/* XPM */
char * about_xpm[] = {
"128 128 17 1",
" 	c None",
".	c #000000",
"+	c #040702",
"@	c #080B06",
"#	c #131512",
"$	c #1A1C1A",
"%	c #1F201E",
"&	c #2A2B29",
"*	c #333532",
"=	c #3A3C3A",
"-	c #454644",
";	c #50524F",
">	c #565855",
",	c #60625F",
"'	c #686A67",
")	c #727471",
"!	c #7D7F7C",
"                                                                                                                                ",
"                                                                                                                                ",
"                                                                                                                                ",
"                                                                                                                                ",
"                                                                                                                                ",
"                                                                                                                                ",
"                                                                                                                                ",
"                                                                                                                                ",
"                                                                                                                                ",
"                                                                                                                                ",
"                                                          .............                                                         ",
"                                                    ........................                                                    ",
"                                                ................................                                                ",
"                                             ............@@$%%%%$#@................                                             ",
"                                           ........@&=->>>;--*&&&&&&***&%@............                                          ",
"                                         ......+&;,,,-&...................%&&@..........                                        ",
"                                       ......*>'';%...+.......................$$@.........                                      ",
"                                     .....@;))>%................+................##.........                                    ",
"                                   .....%,!'=.......................................@+.......                                   ",
"                                  ....$,!'&...................     ................+..@........                                 ",
"                                ....@>!'&.............                    ..............@........                               ",
"                               ....-!!=............                           ....................                              ",
"                             ....$'!,...........                                 ..........+.......                             ",
"                            ....-!!&.........                                      .................                            ",
"                           ....'!,.........                                          .........+.......                          ",
"                          ...#)!-........                                              ................                         ",
"                         ...&!!&........                                                 ...............                        ",
"                        ...&!)#.......                                                    ...............                       ",
"                       ...&!).+......                                                       .............                       ",
"                      ...%!)........                                                         .............                      ",
"                      ...!!#.+....                                                            .............                     ",
"                     ...'!%......                                                              .............                    ",
"                    ...>!=......                         ..............                          ............                   ",
"                   ...=!;......                       ....................                        .....+.....                   ",
"                   ...!'......                      .........................                     ............                  ",
"                  ...,!.......                    ......@&=-----=*&#...........                    ............                 ",
"                 ...&!-.+....                   .....@-,'',>-=*&&&&&&&#.........                    .....+.....                 ",
"                 .+.)'......                   ....$>)),;&#............$#+........                   ...........                ",
"                ...-!#.....                  ....+>!!,=..................@@........                  .....+.....                ",
"                .+.)>.....                  ....=!!,=......................++.......                  ...........               ",
"               ...-!......                 ....>!!-.+................................                  ....+.....               ",
"               .+.!-.....                 ....,!'*....................................                 .....+.....              ",
"              ...=!.+....                ....'!,%.............     ....................                 ....@.....              ",
"              ...';.....                 ...'!,#..........             .................                 ....+.....             ",
"              ..&).+....                ...,!,#.........                 ................                ....#.....             ",
"             ...>,.....                ...-!'%........                     ..............                 ..........            ",
"             ...'&+....                ..%!)&.......                        ..............                ....#.....            ",
"            ...*).....                ...'!-.......                          .............                ....#.....            ",
"            ...;;.....               ...=!>.......                            ...........                  ....@.....           ",
"            ...'%.....               ...))&......                              ........                    ....%.....           ",
"            ..%,.....               ...=!-.+.....                               .....                       ...$.....           ",
"           ...=>.....               ...''%......                                 ..                         ....+....           ",
"           ...>=.....               ..%!-.+....                                                             ....%.....          ",
"           .+.>.....               ...;'&......                                                             ....&.....          ",
"           ...,.....               ...',.+....                                                               ...%.....          ",
"          .+.%>.....               ..$'-......                                                               ...$.....          ",
"          ...&-.+...              ...=,%.....                                                                ...+@+...          ",
"          +..==.....              ...-,......                                                                ....&.....         ",
"          ...-$....               ...;;......                                                                ....*.....         ",
"          ...-.....               ...>=......                                                                 ...=.....         ",
"          ...-+....               ...>*.....                                                                  ...=.....         ",
"          ..+-.....              ....;&.....                                                                  ...=.....         ",
"          ...-+....              ....;$.....                                                                  ...=.....         ",
"          .+.-.....              +..@-#.....                                                                  ..+=.....         ",
"          ...-+....              ....-#.+...                                                                  ...=+....         ",
"          ...-.....              ....-#.....                                                                  ...-.....         ",
"          ...=.....              ....=#.....                                                                  ...-.....         ",
"          ...=.....              ....=$.....                                                                  ..+-.....         ",
"          ...*.....              ....&%.....                                                                  ...;.....         ",
"          ...%.....               ...&%.....                                                                  ..@;.....         ",
"          ...#@....               ...#&......                                                                ...%-+....         ",
"          ....%....               ....&......                                                                ...*-.....         ",
"          ....&.....              ....%......                                                                ...-&+....         ",
"          ...+&.....              ....#@.....                                      .                         ...>.....          ",
"           ...&.....               ....$......                                     ....                      ...,.+...          ",
"           ...$.....               ....#......                                    ........                   .@&>.....          ",
"           ....#....               ....+@......                                   ..........                ...-;.....          ",
"           ....&.....               ...........                                  ...*$.......               .+.,%.....          ",
"           ....%.....               ....++......                                 ..=!,@.....                ..%'.....           ",
"            .........               .............                               ..@)!-......               .+.-,.....           ",
"            ....$.....               ....++......                              ...,!>.......               ...'*.....           ",
"            ....#.....               .............                            ..+-!'%......                ..*).....            ",
"             ..........               .............                          ...=!!=.......               ...,>.....            ",
"             ....#.....               ..............                        ..+&!!-.......                ..$)%.....            ",
"             ....+......               ...............                     ...=!!;.......                ...>'.....             ",
"              ....@.....                ...............                  ....-!!>........                ..$)*.....             ",
"              ....+......                .................             .....>!!-..+.....                ...>)......             ",
"               ....@.....                ........+...........       ......*)!'=........                 ..%!=.....              ",
"               ...........                ........++....................%,!!>&........                 ...,)......              ",
"                ....@.....                 .........@@...............+&>)!>=.........                  ..*!*.....               ",
"                ...........                 ..........@##@........@&-,''>=..........                  ...)'......               ",
"                 ....+......                 ............$$&&**=-->>>>=%...........                  ...>!#.....                ",
"                 .....+.....                   .............@%%&&&&$...+..........                  ...=!;......                ",
"                  ...........                   ........+.+.....................                    .+.!)......                 ",
"                  ............                    ....................+........                    ...'!@.....                  ",
"                   ............                    ..........................                     ...>!=......                  ",
"                    ............                      .....................                      ...;!>......                   ",
"                    .............                        ...............                        ...-!,......                    ",
"                     .............                             ..                              ...=!'.......                    ",
"                      .............                                                           ...-!'.......                     ",
"                       .............                                                         ...-!'.......                      ",
"                        ..............                                                     ....>!'.......                       ",
"                         ..............                                                   ...@'!>.......                        ",
"                          ...............                                               ...+&!!-.......                         ",
"                           ...............                                            .....>!)%.......                          ",
"                            .......+........                                        .....&)!>........                           ",
"                             ........+........                                    .....@>!)&........                            ",
"                              ........+..........                               ......;!!-.........                             ",
"                               .........@+..........                         ......+-)!-.+.......                               ",
"                                 .........@@.............               .........#;));..........                                ",
"                                  ..........@#.................................*,)'=...........                                 ",
"                                    ...........#$@........................+.*>'';#...........                                   ",
"                                      ............$&%@.................@&=>',-$............                                     ",
"                                        ..............$&**&&%$$$%&*=--;;;=%..............                                       ",
"                                          ....................$%%%$....................                                         ",
"                                            ............+..+.........................                                           ",
"                                               ..............+....................                                              ",
"                                                  .............................                                                 ",
"                                                      ....................                                                      ",
"                                                                .                                                               ",
"                                                                                                                                ",
"                                                                                                                                ",
"                                                                                                                                ",
"                                                                                                                                ",
"                                                                                                                                ",
"                                                                                                                                ",
"                                                                                                                                ",
"                                                                                                                                "};
