/* XPM */
char * aligneddimension_xpm[] = {
"128 128 17 1",
" 	c None",
".	c #000000",
"+	c #050804",
"@	c #0E100D",
"#	c #171917",
"$	c #1E201D",
"%	c #232422",
"&	c #2B2D2A",
"*	c #363835",
"=	c #3E403D",
"-	c #444643",
";	c #4C4E4C",
">	c #535552",
",	c #60625F",
"'	c #6A6C69",
")	c #757774",
"!	c #7E807D",
"                                                                                                                                ",
"                                                                                                                                ",
"                                                                                                                                ",
"                                                                                                                                ",
"                                                                                                                                ",
"                                                          #                                                                     ",
"                                                         *..                                                                    ",
"                                                        >;...                                                                   ",
"                                                       ;);+...                                                                  ",
"                                                      =')....                                                                   ",
"                                                     ='!....                                                                    ",
"                                                    =')....                                                                     ",
"                                                   =')....                                                                      ",
"                                                  =')....                                                                       ",
"                                                 =')....                                                                        ",
"                                                =')....                                                                         ",
"                                               =')....                                                                          ",
"                                              =')....                                                                           ",
"                                             =')....                                                                            ",
"                                            =')....                                                                             ",
"                                           =')....                                                                              ",
"                                          =')....                                                                               ",
"                                         =')....                                                                                ",
"                                        =')....                                                                                 ",
"                                       =')....                                                                                  ",
"                                      =')....                                                                                   ",
"                                     =')....                                                                                    ",
"                                    =')....                                                                                     ",
"                                   =')....                                                                                      ",
"                                  =')....                                                                                       ",
"                                 =')....                                                                                        ",
"                                =')....                                                                                         ",
"                               =')....                                                                                          ",
"                              =')...+                                                                                           ",
"                             =')...@>&                                                                                          ",
"                            =')....%,>@.                                                                                        ",
"                           =').... .@>;...                                                                                      ",
"                          =')....   ..>;....                                                                                    ",
"                         =')....    ...>>.....                                                                                  ",
"                        =')....      ...>>+.....                                                                                ",
"                       =')....        ...;=@......                                                                              ",
"                      =')....         ..+.**#.......                                                                            ",
"                     =')....          .....%$$@.......                                                                          ",
"                    =')....            .....##%$#.......                                                                        ",
"                   =')....             .......@#$$#.......                                                                      ",
"                  =')....               ......@.@##$#+.......                                                                   ",
"                 =')....                .........@@##@.......                                                                   ",
"                =')....                  ...................                                                                    ",
"               =')....                   ..................                                                                     ",
"              =')....                     ....+...........                                                                      ",
"             =')....                      ...............                                                                       ",
"            =')....                       ...............                                                                       ",
"           =')....                         ..............                                                                       ",
"          =')....                          ...............                                                                      ",
"         *,)....                            ...............                                                                     ",
"        $;>....                             ................                                                                    ",
"       .......                               ......   .......                                                                   ",
"       ......                                .....     .......                                                                  ",
"        ....                                 ....       .......                                                                 ",
"         ..                                   ..         .......                                                                ",
"                                                          .......                                                               ",
"                                                           .......                                                              ",
"                                                            .......                                                             ",
"                                                             .......                                                #           ",
"                                                              .......         &.                                   *..          ",
"                                                               .......       =%..                                 >;...         ",
"                                                                .......     =;$..                                ;);+...        ",
"                                                                 ...+...   =;,&..                               =')....         ",
"                                                                  ...$&@.#=,')&...                             ='!....          ",
"                                                                   .+.;,;>,)!)$...                            =')....           ",
"                                                                    ..%,''''';+....                          =')....            ",
"                                                                     ..=,,>;=&.....                         =')....             ",
"                                                                      .*-*&%#@......                       =')....              ",
"                                                                     .%==%@.........                      =')....               ",
"                                                                    @%;;=%..........                     =')....                ",
"                                                                   @%=,;*#+..........                   =')....                 ",
"                                                                  ...%&%.............                  =')....                  ",
"                                                                 ..+..................                =')....                   ",
"                                                                 .....................               =')....                    ",
"                                                                    ...................             =')....                     ",
"                                                                      .................            =')....                      ",
"                                                                        ................          =')....                       ",
"                                                                          ..............         =')....                        ",
"                                                                            ............        =')....                         ",
"                                                                              ...........      =')....                          ",
"                                                                                .........     =')....                           ",
"                                                                                  ........   =')....                            ",
"                                                                                    ....... =')....                             ",
"                                                                                      ....+=')....                              ",
"                                                                                        .+*')....                               ",
"                                                                                        @=')....                                ",
"                                                                                        =')....                                 ",
"                                                                                       =')....                                  ",
"                                                                                      =')....                                   ",
"                                                                                     =')....                                    ",
"                                                                                    =')....                                     ",
"                                                                                   =')....                                      ",
"                                                                                  =')....                                       ",
"                                                                                 =')....                                        ",
"                                                                                =')....                                         ",
"                                                                               =')....                                          ",
"                                                                              =')....                                           ",
"                                                                             =')....                                            ",
"                                                                            =')....                                             ",
"                                                                           =')....                                              ",
"                                                                          =')....                                               ",
"                                                                         =')....                                                ",
"                                                                        =')....                                                 ",
"                                                                       =')....                                                  ",
"                                                                      =')....                                                   ",
"                                                                     =')....                                                    ",
"                                                                    =')....                                                     ",
"                                                                   *,)....                                                      ",
"                                                                  $;>....                                                       ",
"                                                                 .......                                                        ",
"                                                                 ......                                                         ",
"                                                                  ....                                                          ",
"                                                                   ..                                                           ",
"                                                                                                                                ",
"                                                                                                                                ",
"                                                                                                                                ",
"                                                                                                                                ",
"                                                                                                                                ",
"                                                                                                                                ",
"                                                                                                                                ",
"                                                                                                                                ",
"                                                                                                                                ",
"                                                                                                                                "};
