/* XPM */
char * app_xpm[] = {
"128 128 17 1",
" 	c None",
".	c #000000",
"+	c #1B1D1B",
"@	c #272826",
"#	c #373936",
"$	c #464845",
"%	c #545654",
"&	c #676966",
"*	c #797C79",
"=	c #8A8C89",
"-	c #989B97",
";	c #ABADAA",
">	c #BDBFBC",
",	c #CCCECB",
"'	c #DADCD9",
")	c #E9EBE8",
"!	c #FBFEFA",
"                                                                                                                                ",
"                                                                                                                                ",
"                                                                                                                                ",
"                                                                                                                                ",
"                                                                                                                                ",
"                                                                                                                                ",
"                                                                                                                                ",
"                                                                                                                                ",
"                                                                                                                                ",
"                                                                                                                                ",
"                    .............................................................................................               ",
"                 .........+.+.+.+.+.+.+.+.+.+.+.+.+.+.+.+.+.+.+.+.+.+.+.+.+.+.+.+.+.+.+.+.+.+.+.+.+.+.+.+.+++.....              ",
"               ..#&%@........................................................................................@$#...             ",
"              .#*#...................................................................................................           ",
"            ..*%...#*====*=*=*=*=*=*=*=*=*=*=*=*=*=*=*=*=*=*=*=*=*=*=*=*=*=*=*=*=*=*=*=*=*=*=*=*=*=*=*=*=*=*=**@......          ",
"          ..$*...@;)''',,,,,,,,,,,,,,,,,,,,,,,,,,,,,,,,,,,,,,,,,,,,,,,,,,,,,,,,,,,,,,,,,,,,,,,,,,,,,,,,',,,,,',,*......         ",
"         ..*#...*')'',,,,,,,,,,,,,,,,,,,,,,,,,,,,,,,,,,,,,,,,,,,,,,,,,,,,,,,,,',,,',,,,,',,,,,',,,,,,,,,,,',,,,,,;+..+...       ",
"        ..*@..%,)',,,,,,,,,',',',',',''',',',',','',,'',',',',',,''',','',',',,,',,,',',,,',',,,,'',,',,,',,,,',,,,$......      ",
"        .$%.+;)'',,,,,,'''''''''''''''''''''''''''''''''''''''''''''''''''''''''''''''''''''''''''''''''''''''''''',=.....      ",
"        .%..&%%%%%%%%%%%%&%&%&%&&%&&%%&%%&%&&%&%&%&%&&%&%&%&%&%&&%&%%&&%&%&%&&%&&%&%&&%&&%&%&&%&&%&%&&%&%&&%&%&&%%%%%$....      ",
"        .@.@&%%%%%%%&&&&&&&&&&&&&&&&&&&&&&&&&&&&&&&&&&&&&&&&&&&&&&&&&&&&&&&&&&&&&&&&&&&&&&&&&&&&&&&&&&&&&&&&&&&&&&&&&&....      ",
"        ...@&&'!!!>&);*&>)*')!)-*;)!!)=**,!!;*;)*'!!),*;!!!!*>!)!,**!;**>)**>)!,**!!)!;*>)!))=*)!)!;-!!!)=****=)!,***&....      ",
"        .+.@&&)';;=*!!==!!=!'>)!*>!>;!!*'!>'!>>!*))>,!>>!;>>*,!>,!,*!!==!!*>!,,!,*!,>'!-'!>>!'=!,>>=>!>;!)****'!,!>***++..      ",
"        .+.@**!,*=*=!!))!!=)'=,!=>!==>!=!'==!'>!=!'==)'>!===='!=='!=!!))!!='!=='!=!,==!>'!==')=!,===>!==,!==-=,>=)'===.@..      ",
"        .@.@**)!)'==!'!!'!-!!!!)-,!--'!=!'--!',!-!'--!',!!!>-'!--!)-!'!!'!='!--'!=!,--!,'!--'!-!!!,-,!--'!---=-=,!,==-.$..      ",
"        .@.#**!),>--!,)',!-!),'!;,!!!!'-!'--!',!-!'--!',!,,;-'!!!!>-!,)',!-'!--'!-!,--!,')--'!-!',;-,!!!!,------!)-;--.$..      ",
"        .@.@**)'*==-!,-=,!=!'--!',!,)!--!'-=!',!=!'-=!',!==--'!,!)--!>--,!-'!--'!-!,--!,'!--'!-!,=-=,!,)!------'!;----.$..      ",
"        .@.@**),====!>==>!=)'=-!,>!=;!,=)!=-!,>!=!'==!'>!-===')=,!;=!,==>!=,!-=!)=!>=-!,'!==))=!,=-=>!=;!,====;!,=====.#..      ",
"        .@.@&&!!)),*!>==>!=!!!!!->!*='!=;!!!!->!*!!!!!->!!!!*'!*=!'=!>==>!=-!!!!;*!!!!!*,!!!!>=!!)!;>!*='!===*)!!!,===.$..      ",
"        .@.@%&-;;>=*>=**=;*;;>;**=>**=;**=;>*&=>*->;>=*=;>;>*--**=-*;=*&=;***;>=**;>;>**=>;>=**;>>;==>**=>&***;;>;=***.$..      ",
"        .@.@%%%&&&&&&&&&*&&&&*&&&&&&*&&&&&*&&*&&*&*&&*&*&&&&&&*&*&**&*&**&&*&&&*&*&*&&&*&*&&&&&*&&*&&&&&&&&&*&*&&*&&&&.$..      ",
"        .@.+%%%%%&&&&&&&&&&&&&&&&&&&&&&&&&&&&&&&&&&&&&&&&&&&&&&&&&&&&&&%&&&&&&&&&&&&&&&&&&&&&&&&&&&&&&&&&&&&&%&&&&&&*&.#..      ",
"        .@.$>;;=->'';;,'';;,'';;,'';;,')'''''''''''''''')'')'''''''''''''''')'''''''')''''')''''''')')'')''')'''''''''+$..      ",
"        .@.$>>>=-,');;'));;'));>')';>')')))))))))')))))')))')))))))'))))))))')))))))))'))))'))))))))))))))))'))))))))).$..      ",
"        .@.$>,,-;'));>)));>)));>)));>))!))!))))))))))!))))))))))))!))))))))!))))))))))!))))!)))))))))))))))))))))))))).$..      ",
"        .@.%,,,-;')!>>)!!>,)!!>>)!!>>)!!!!!!!!!!!!!!!!!!!!!!!!!!!!!!!!!!!!!!!!!!!!!!!!!!!!!!!!!!!!!!!!!!!!!!!!!!!!!!!!.$..      ",
"        .@.$,,,;>)!!>,)!!>,)!!>,)!!>,)!!!!!!!!!!!!!!!!!!!!!!!!!!!!!!!!!!!!!!!!!!!!!!!!!!!!!!!!!!!!!!!!!!!!!!!!!!!!!!!!.$..      ",
"        .@.%,,,-;'!!>,!!!>,)!!>,!!!>,)!!!!!!!!!!!!!!!!!!!!!!!!!!!!!!!!!!!!!!!!!!!!!!!!!!!!!!!!!!!!!!!!!!!!!!!!!!!!!!!!.$..      ",
"        .@.%',,;;))!>>)!!>>!!!>>)!!>,!!!!!!!!!!!),,,,,,,,,,,,,,,,,,,,,,,,,,,,,,,,,,!!!!!,;--;--;--;---;--;--;--;-,!!!!.$..      ",
"        .@.$,,,->'!!>,)!!>,)!!>,)!!>>)!!!!!!!!!!>..................................'!!!!-=*&&&&&&&&*&&&&&&*&&&&&&-!!!!+#..      ",
"        .@.%,,,-;)!!>,)!!>,!!!>,!!!>,)!!!!!!!!!'+.$$#+@###$##$##$##$##$##$$%*&%....,)!!!-*>&&&&&&&&&&&&*&&&&&&-&&-!!!!.$..      ",
"        .@.%','-;))!>,!!!;,)!!>>)!!>>!!!!!!!!!'@#*@...........................$$...;)))!-&&&&%%%%%%%%%%%%%%%%&&&&-!!!!.$..      ",
"        .@.$,,,;;))!>>)!!>,)!!>,)!!>,)!!!!!!!'@%*..................................;')));&&%,>>>>>>,>>>>>>>,>>&*%-!!!!.$..      ",
"        .@.%',,-;)!!>,)!!>>!!!>,!!!>>!!!!!!!'@%%...                            ....;''')-**%>>>,>>>>>>>>>>>>>>&-&-!!!!.$..      ",
"        .@.%,,,;;))!>,)!!>,)!!>>)!!>,)!!!!!'+&%...                             ....-,,')-**%>>>>>>>>>>>>>>>>>>*;&-!!!!.$..      ",
"        .@.%,',->'!!>>!!!>,)!!>,)!!,,!!!!!)+&%...                              ....;,,''-&*&>>>>>>>>>>>>>>>>>>*;&;!!!!.$..      ",
"        .@.%,,,-;))!>,)!!>>!!!>,!!!!!!!!!'@%&...                               ....-,,,';**%,>>>,>>,>>>>,>>>>>*;&-!!!!.$..      ",
"        .@.$,,'-;)!!>>!!!>,)!!>>)!!!!!!!'@%%...                                .@..;>,''-**&>>>>>>>>>>>>>,>>>>*;*;!!!!+#..      ",
"        .@.%,,,;;'!!>,)!!>,!!!>,)!!!!!!'+&%...                                 .#..;,,,)-**&>>,>>>>>>,>>>>>,>>*>&;!!!!.$..      ",
"        .@.$',,->))!>,)!!;,)!!>>!!!!!!)+&%...                                  .#..;,,,';==&>>>>>>>>>>>>>>>>>,*>*;!!!!+#..      ",
"        .@.%,,,-;)!!>>!!!>,)!!,,!!!!!'@%&...                                   .#..;,,'';*=*;>>>>>,>>>>>>>>>>>*>*;!!!!.$..      ",
"        .@.$,',;;))!>,)!!>>!!!!!!!!!'+&%...                                    .#..;,,,';==&,>,>>>>>>,>>>>>>,>=;*;!!!!+#..      ",
"        .@.%,,,-;)!)>,!!!>,)!!!!!!!'@%%...                                     .#..;,,,';==*>>>>>>>>>>>,>>>>>>=,*;!!!!.$..      ",
"        .#.$','->'!!>>)!!>>!!!!!!!'@%&...                                      .#..;','';==&>>>>>>>>>>>>>>>>>,=>=;!!!!.$..      ",
"        .$.$,,,-;)!!>,!!!>,)!!!!!'@%&...                                       .#..;,,'';=-*>>>>,>>>,>>>>>>>>>=>*;!!!!.$..      ",
"        .%.%,,';>'!!,,)!!,,!!!!!'@%%...                                        .#..;,,,);==*,>>>>>>>>>>>>>,>>>=,=;!!!!.$..      ",
"        .%.#,,,'))!!!!!!!!!!!!!'@&%...                                         .#..;',,';--*;,>>>>>>>>>>>>>>>>=,=;!!!!.$..      ",
"        .#..,,,')))!!!!!!!!!!!'+&%...                                          .#..;,',);-=*>>>>>>>,>>>>>>>>,>=>=;!!!!+#..      ",
"        ..%.-,,,))!!!!!!!!!!!'@&$...                                           .#..;,,,';=-*>>,>>>>>>>,>>>>>>>=>=;!!!!.$..      ",
"        ...+.@@@@#@######@####*....                                            .#..;,,,);==*>>>>>>>>>>>>>>>>>>=>=;!!!!+#..      ",
"         .......+##@#@###$%*&#....                                             .#..>,,,';==&>>>>>>>>>>>>>>>>>,=>*;!!!!.$..      ",
"         ........................                                              .#..;,,'';==&>>>>>>>>>>>,>>>>>,*>*;!!!!.$..      ",
"          ......................                                               .#..;','';==*>>,>>>,>>>>>>,>>>>=>*;!!!!.$..      ",
"                  #*$#                                                         .#..;,,,';**&>>>>>>>>>>,>>>>>>>*>*-!!!!.$..      ",
"                  %=$$                                                         .#..;,,'';*=%,>>,>>>>>>>>>>>>>>*>*;!!!!.$..      ",
"                  $*%$                                                         .#..;,,,'-**&>>>>>>>>>>>>>>,>>>*;*-!!!!.$..      ",
"                  %&%$                                                         .#..;','';**%,>>>>>>>>>,>>>>>>>*;*-!!!!.$..      ",
"                  %&%$                                                         .#..;,,,)-&*&>>>>>>>,>>>>>>>>>>*;&;!!!!+#..      ",
"                  %*%$                                                         .#..;,,,';*&%>>>>>>>>>>>>>>>>>>&;&-!!!!.$..      ",
"                  %&%%                                                         .#..>,,''=&*%>>>>,>>>>>,>>>>>>>*;&-!!!!+#..      ",
"                  &&%%                                                         .#..;,,'';&*%,>>>>>>>,>>>>>,>>>*;&-!!!!.$..      ",
"                  &&%$                                                         .#..;,,,'=&-&&&&&&&&&&&&&&&%&&&'*&-!!!!+#..      ",
"                  %&%$                                                         .#..;',''-&;&*----;---;-;-;;-;,>&&-!!!!.$..      ",
"                  %&&                                                          .#..;,,,'=&&&%&&&%&&&&%&&&%&&&%&&%-!!!!+#..      ",
"                  &%%                                                          .#..;,,''-%%%%%%%%%%$%%%$%%%%%%$%$-!!!!.$..      ",
"                  %&%                                                          .#..;',,')))!!!!!!!!!!!!!!!!!!!!!!!!!!!.$..      ",
"                  %&%                                                          .#..;,,'')!!!!!!!!!!!!!!!!!!!!!!!!!!!!!.$..      ",
"                   %%                                                          .#..>,,'',;;>;;>>!';>>;;;,!'>;>;;>>!!!!.$..      ",
"                   &%                                                          .#..;,,''==&&*&%&)--&*&*%&)=-&*&*%&)!!!.$..      ",
"                   %                                                           .#..;,,,'&*%%%%$&'&*%$%%$&'**$%%%$&')!!.$..      ",
"                   &                                                           .#..;,,''&*$%$%$&,**%%$%%%,**%$$%$%,)!!.$..      ",
"                   %                                                           .#..>,,,'&*$%%%$&,&*$%%%$&,&*%%%%%&,)!!.$..      ",
"                                                                               .#..;,,''&*%$%%%&,**%$%%$&,**$%$%$&,!!!.$..      ",
"                                                                               .#..;',,)&&$%%$%%,&*%%$%%%,&*%%%%%&,)!!.$..      ",
"                                                                               .#..;,,''**%$%$%%,*&%%$%%%,**$%$%$&,)!!.$..      ",
"                                                                               .#..;,,,'&$%$%$%&,*%$$%$%&,&$%$%$$&,)!!.$..      ",
"                                                                               .$..>,,''-**&**&*,-=*&*&*=,;**&**&=')!!.$..      ",
"                                                                               .&..;,,,''',','''))',',','))'',','''!!!+#..      ",
"                                                                               .*..;,,'')))!))))!!!)!))))!!)!)!))!)!!!.$..      ",
"                                                                               .=..;',,',;;;>>;,!';>>;>>,!'>>;;>>,!!!!.$..      ",
"                                                                               %%..;,,,)=-&*&*$&)--*&*&%&)-=**&&%&)!!!.$..      ",
"     .........................................................................$*...;,,''&*%$%%%&'&*$%%%$&,**$$%%$&,)!!.$..      ",
"    .........+.+.+.+.+.+.+.+.+.+.+.+.+.+.+.+.+.+.+.+.+.+.+.+.+.+.+.+.+.+.++%**&....;,,''&&%%$%$&,**%$%%$&,&*%%%%$&,)!!.$..      ",
"   ..+%@...........................................................................;,,,)&*$$%%%%,&*%%$%$&,**%$%$%&,)!!.$..      ",
"   ..*$............................................................................;>,,'&*%%$%$&,**$%%%%%,&*%$%%$&,)!!.$..      ",
"   ..$.*===*=*=*=*=*=*=*=*=*=*=*=*=*=*=*=*=*=*=*=*=*=*=*=*=*=*=*=*=*=*=*=*=*=*=*=-,,,,,)&*$%%$%&,&*%$%$%&,&*%%$%%&,)!!+#..      ",
"   ....,'',,,,,,,,,,,,,,,,,,,,,,,,,,,,,,,,,,,,,,,,,,,,,,,,,,,,,,,,,,,,,,,,,,,,,,,,,>>,,)&*$%%%$&,**%%%$%&,**$%%$%%')!!.$..      ",
"   ....>',,,,,,,,,,',,,,,',,,,,,,,,,,',,,,,',,,,,',,,,,,,,,,,',,,,,,,,,',,,,',,,,>,,,,')&$%$$$%%,&%$$%$%%,&$%$$%$&,)!!+#..      ",
"   ....>,,>,,,,',,,',,',,,,',,'',',,,,',,,,',,',,,,',,'',',,,,','',',',,'',,,',',,,,''')-****&*=,-**&*&*='-***&***')!!.$..      ",
"   .#..>,,,,,''''''''''')'''''''''')'''''''''''')''''''''')''''''''''''''''''''''''''))))',,'',,))),''','))'''',,')!!!+#..      ",
"   .$..>,>,,'')))))))))))))))))))))))))))))))))))))))))))')))))))))))))))))))))))))))))!!)!)))!!!!!)))!))!!!)))!))!!!!.$..      ",
"   .%..>,,,''))!))!)))))))!))))))!))!)!)))!)))))))!))))))!)!!))))!)))!)))!))!))))))!)!!!!!!!!!!!!!!!!!!!!!!!!!!!!!!!!!.$..      ",
"   .$..>,,,'))!!!!!!!!!!!!!!!!!!!!!!!)!!!!!!!!!!!!!!!!!!!!)!!!!!)!!!!!!!)!!!!!!!!!!!!!!!!!!!!!!!!!!!!!!!!!!!!!!!!!!!!!.$..      ",
"   .#$.;,,'')!)!!!!!!!!!!!!!!!!!!!!!!!!!!!!!!!!!!!!!!!!!!!!!!!!!!!!!!!!!!!!!!!!!!!!!!!!!!!!!!!!!!!!!!!!!!!!!!!!!!!!!!!.$..      ",
"   ..*.+>,'')!!!!!!!!!!!!!!!!!!!!!!!!!!!!!!!!!!!!!!!!!!!!!!!!!!!!!!!!!!!!!!!!!!!!!!!!!!!!!!!!!!!!!!!!!!!!!!!!!!!!!!!!!.$..      ",
"   ..*..+>,'))!!!!!!!!!!!!!!!!!!!!!!!!!!!!!!!!!!!!!!!!!!!!!!!!!!!!!!!!!!!!!!!!!!!!!!!!!!!!!!!!!!!!!!!!!!!!!!!!!!!!!!!!.$..      ",
"   ..&#...**==-=---------------------------------------------------------------;!!--------------!!------!!!!!!!!!!!!!!.$..      ",
"   ..@$........................................................................@!!&%$@..........!!&%@...!!!!!!!!!!!!!!.$..      ",
"   ...........++++++++++++++++++++++++++++++++++++++++++++++++++++++++++++.....@))%$%%$++++.....)!%%$...)))!!!!!!!!!!!.$..      ",
"   ............................................................................@))..............))......))))!)!!!!!!!!+#..      ",
"   ....$%%$%$%%%%%%%%%%%%%%%%%%%%%%%%%%%%%%%%%%%%%%%%%%%%%%%%%%%%%%%%%%%%%%%%%%*''%&%&%%%%%%%%%%''%%&%&%)))))!!!!!!!!!.%..      ",
"   ....>>>>>,>,,,',',',',',',',',',',',',',',',',','',',',,',',',',',',''''',',,'''')')''',','','''')'''''''))!!!!!!!!.*..      ",
"   ..+.>,>>;,>,,,,,,,,,,,,,,,,,,,,,,,,,,,,,,,,,,,,,,,,,,,',,,,,,,,,,,,,,,,,,,,,,,''''''',,,,,,,,,'''')',''')))!!!!!!!!.=..      ",
"   ..%.;,>>>,,,,,,,,,,',,,,,',,',,,,,,,',,,,,,,',,,,,,,,,,,,,,,,,,',,,,,,,,,',,','''))'''',,,,',,,'')''','')))!!!!!!!!$%..      ",
"   ..%.>,,,,,,'''''''''''''''''''''''''''''''','''''''''''''''''''''''''''''''''''')))'''''''''''')')))''''))!!!!!!!!!*...      ",
"   .................................................................................................................#*&...      ",
"   ........@$$$$$$$$$$$$$$$$$$$$$$$$$$$$$$$$$$$$$$$$$$$$$$$$$$$$$$$$$$$$$$$$$$$$$$$$$$$$$$$$$$$$$$$$$$$$$$$$$$$$$%**%.....      ",
"   .......................................................................................................................      ",
"    ......................................................................................................................      ",
"                                                                                                                                ",
"                                                                                                                                ",
"                                                                                                                                ",
"                                                                                                                                ",
"                                                                                                                                ",
"                                                                                                                                ",
"                                                                                                                                ",
"                                                                                                                                ",
"                                                                                                                                "};
