/* XPM */
char * arc3points_xpm[] = {
"128 128 17 1",
" 	c None",
".	c #000200",
"+	c #310000",
"@	c #440000",
"#	c #5B0000",
"$	c #6B0000",
"%	c #760100",
"&	c #7F0000",
"*	c #272826",
"=	c #8A1314",
"-	c #3C3C39",
";	c #992E2F",
">	c #565552",
",	c #AB5352",
"'	c #6F716E",
")	c #BF7E7D",
"!	c #D3A7A7",
"                                                                                                                                ",
"                                                                                                                                ",
"                                                                                                                                ",
"                                                                                                                                ",
"                                                                                                                                ",
"                                                                                                                                ",
"                                                                                                                                ",
"                                                                                                                                ",
"                                                                                                                                ",
"                                                                                                           %                    ",
"                                                                                                       %%%%%%%%$                ",
"                                                                                                     %%&&&&&%%$%%#              ",
"                                                                                                    &&&%&&&%&&%$%$#             ",
"                                                                                                   &%%&,)!),;&&&$%$#            ",
"                                                                                                   %&&)!!),,;;%&%%$#            ",
"                                                                                                  #%&)!!);=&&&&&%$%$#           ",
"                                                                               ..................+$&&!!,;=%=&&&&&%$$#           ",
"                                                                         ..............*---------@%%&!);&&&&&&&&&%%$#@          ",
"                                                                      ........->>>-..............@%&&),=&&&&&&&&&&$$##          ",
"                                                                   ......->>>....................@%%&),&&&&&&&&&&%%$#@          ",
"                                                                .....*>'*........................@&%&,;&&&&&&&&&&%$$#@          ",
"                                                             .....-''................            #$%&&;&&&&&&&&&&%$$#@          ",
"                                                           ....*>'............                    $%&&&&&&&&&&&&&%$##           ",
"                                                         ....-'-.........                         $$%%&&&&&&&&&%%$###           ",
"                                                       ....>'*........                             $$%%&&&&&&%&%$$##+           ",
"                                                     ....>'........                                #$$%%%=%&%&$$$##@            ",
"                                                    ...>'.......                                    #$$%%$$%$%$####             ",
"                                                  ...-'*......                                       #$#$$$$$$###@              ",
"                                                ....'>......                                           ##$######@               ",
"                                               ...''......                                               @@#@@+                 ",
"                                              ..*'*.....                                                                        ",
"                                       %    ...''......                                                                         ",
"                                   %%%%%%$$#+.'*.....                                                                           ",
"                                 %%&&&%&%&%$#,.....                                                                             ",
"                                &&&&&&&&&%%$$#@...                                                                              ",
"                               %%%&,)!),;&&&$$#@.                                                                               ",
"                               &&&)!!)),;;&&&%$$@                                                                               ",
"                              %%%)!!,;=&&&&&%%$#@                                                                               ",
"                              %&&!!);%&&&&&&&%%$#+                                                                              ",
"                              %%&!);&&&&&&&&&%$$#@                                                                              ",
"                             %%%&),=&&&&&&&&&&$$#@                                                                              ",
"                             %%&=,,&&&&&&&&&&%%$#@                                                                              ",
"                             %%%&;;%&&&&&&&&&%%$#@                                                                              ",
"                              $&%&;&&&&&&&&&%%$##@                                                                              ",
"                              $%%&&&&&&&&&&&&%$$#                                                                               ",
"                              $$%&&&&&&&&&&&%$$#@                                                                               ",
"                              +$$%%&&&&&&&&$$###@                                                                               ",
"                             ..@$%%%%&%&%%$%$##@                                                                                ",
"                             ..'#$$$$%%%$%$####                                                                                 ",
"                            ..'..@#$$#$$$##$#@                                                                                  ",
"                           ..->...@#$#######@                                                                                   ",
"                           ..'....  +@@@@@+                                                                                     ",
"                          ..'....                                                                                               ",
"                          ..'...                                                                                                ",
"                         ..'....                                                                                                ",
"                         .*>...                                                                                                 ",
"                        ..'....                                                                                                 ",
"                        .--...                                                                                                  ",
"                       ..'...                                                                                                   ",
"                       .*>...                                                                                                   ",
"                      ..'...                                                                                                    ",
"                      ..'...                                                                                                    ",
"                     ..>....                                                                                                    ",
"                     ..'...                                                                                                     ",
"                     .**...                                                                                                     ",
"                    ..>....                                                                                                     ",
"                    ..'...                                                                                                      ",
"                    .*....                                                                                                      ",
"                   ..>...                                                                                                       ",
"                   ..>...                                                                                                       ",
"                   ..-...                                                                                                       ",
"                   .>...                                                                                                        ",
"                  ..>...                                                                                                        ",
"                  ..>...                                                                                                        ",
"                  ..*...                                                                                                        ",
"                  .-...                                                                                                         ",
"                 ..>...                                                                                                         ",
"                 ..>...                                                                                                         ",
"                 ..>...                                                                                                         ",
"                 ..*...                                                                                                         ",
"                 ......                                                                                                         ",
"                 .*...                                                                                                          ",
"                 .*...                                                                                                          ",
"                 .-...                                                                                                          ",
"                ..-...                                                                                                          ",
"                ..-...                                                                                                          ",
"                ..>...                                                                                                          ",
"                ..-...                                                                                                          ",
"                ..-..                                                                                                           ",
"                ..-..                                                                                                           ",
"                ..-..                                                                                                           ",
"                ..*..                                                                                                           ",
"                ..-..                                                                                                           ",
"                ..*..                                                                                                           ",
"                ..*..                                                                                                           ",
"                ..*..                                                                                                           ",
"                ..*..                                                                                                           ",
"                +@@+++                                                                                                          ",
"              %&%$%$$$#                                                                                                         ",
"            %%&%&%&%%%%$#                                                                                                       ",
"           &&%&&&&&&%%%%$#                                                                                                      ",
"          %%%&,)!),;&&%$$$#                                                                                                     ",
"          &&&)!!),,;;&&&$$#                                                                                                     ",
"         %%&)!!);=%&&&&&$$$#                                                                                                    ",
"         %%&!!,;=&&&&&&&%$##                                                                                                    ",
"         %%&!);%&&&&&&&&&%%#@                                                                                                   ",
"        %%&&),=&&&&&&&&&%$$$@                                                                                                   ",
"        %%&&),&&&&&&&&&%%%$##                                                                                                   ",
"        %$&&;;=&&&&&&&&&%%##@                                                                                                   ",
"         %%&&;&&&&&&&&&&%$$#@                                                                                                   ",
"         $$%&&&&&&&&&&&&%$##                                                                                                    ",
"         %%%%&&&&&&&&&&$$##@                                                                                                    ",
"          $%%%&&&&&&&&&%$##@                                                                                                    ",
"          $$$$%%&&%%%$$$##@                                                                                                     ",
"           $$$$$%$%$%$####                                                                                                      ",
"            #$$$$$$$####@                                                                                                       ",
"              #####$###@                                                                                                        ",
"                @@#@@+                                                                                                          ",
"                                                                                                                                ",
"                                                                                                                                ",
"                                                                                                                                ",
"                                                                                                                                ",
"                                                                                                                                ",
"                                                                                                                                ",
"                                                                                                                                ",
"                                                                                                                                ",
"                                                                                                                                ",
"                                                                                                                                "};
