/* XPM */
char * arccenterstartend_xpm[] = {
"128 128 17 1",
" 	c None",
".	c #000000",
"+	c #280000",
"@	c #430000",
"#	c #5A0000",
"$	c #6E0000",
"%	c #7C0004",
"&	c #800000",
"*	c #252724",
"=	c #353734",
"-	c #9A2F2F",
";	c #4D4F4C",
">	c #AB5655",
",	c #767875",
"'	c #C48686",
")	c #A7AAA6",
"!	c #D6ADAD",
"                                                                                                                                ",
"                                                                                                                                ",
"                                                                                                                                ",
"                                                                                                                                ",
"                                                                                                                                ",
"                                                                                                                                ",
"                                                                                                                                ",
"                                                                                                                                ",
"                                                                                                                                ",
"                                                                                                           .                    ",
"                                                                                                       .........                ",
"                                                                                                     .............              ",
"                                                                                                    ...............             ",
"                                                                                                   ....;,),;=.......            ",
"                                                                                                   ...,)),,;=*......            ",
"                                                                                                  ...,!),=...........           ",
"                                                                                  ...................));*............           ",
"                                                                           ..........................),=..............          ",
"                                                                        ........*=;;;;===**.*.***....,;*..............          ",
"                                                                    .......=;;;*.....................,=...............          ",
"                                                                 ......=;;*..........................==...............          ",
"                                                              ......;,;...............................*...............          ",
"                                                            .....;,=.............                 ...................           ",
"                                                          ....*,;..........                       ...................           ",
"                                                        ....=,=.........                          ...................           ",
"                                                      ....;,*........                              .................            ",
"                                                     ...;,*.......                                  ...............             ",
"                                                   ...*,=.......                                     .............              ",
"                                                 ....,;.......                                        ...........               ",
"                                                ...;,.......                                             ......                 ",
"                                               ..*,=......                                                                      ",
"                                             ...;,......                                                                        ",
"                                            ...,;......                                                                         ",
"                                           ..=,......                                                                           ",
"                                          ..;,.....                                                                             ",
"                                        ...,;.....                                                                              ",
"                                       ...,*.....                                                                               ",
"                                      ...,.....                                                                                 ",
"                                     ..*,.....                                                                                  ",
"                                    ..*,.....                                                                                   ",
"                                   ...,....                                                                                     ",
"                                   ..,....                                                                                      ",
"                                  ..,....                                                                                       ",
"                                 ..,*...                                                                                        ",
"                                ..;;....                                                                                        ",
"                               ..=,....                                                                                         ",
"                               ..,....                                                                                          ",
"                              ..,....                                                                                           ",
"                             ..,=....                                                                                           ",
"                            ..*,....                                                                                            ",
"                            ..,....                                                                                             ",
"                           ..,....                                                                                              ",
"                          ..*,....                                                                                              ",
"                          ..,....                                                                                               ",
"                         ..=;...                                                                                                ",
"                         ..,....                                                                                                ",
"                        ..;*...                                                                                                 ",
"                        ..,....                                                                                                 ",
"                       ..;*...                                                                                                  ",
"                       ..,....                                                                                                  ",
"                      ..;....                                                                                                   ",
"                      ..,....                                                                                                   ",
"                     ..=*...                                                                                                    ",
"                     ..,....                                                                                                    ",
"                     ..;...                                                                                                     ",
"                    ..;....                                                                                                     ",
"                    ..,...                                                                                                      ",
"                    .**...                                                                                                      ",
"                   ..;...                                                                                                       ",
"                   ..,...                                                                                                       ",
"                   ..*...                                                                                                       ",
"                  ..;...                                                                                                        ",
"                  ..,...                                                                                                        ",
"                  ..;...                                                                                                        ",
"                  .*....                                                                                                        ",
"                 ..;...                                                                                                         ",
"                 ..;...                                                                                                         ",
"                 ..;...                                                                                                         ",
"                 ..=...                                                                                                         ",
"                 ......                                                                                                         ",
"                 .=...                                                                                                          ",
"                ..;...                                                                                                          ",
"                ..;...                                                                                                          ",
"                ..;...                                                                                                          ",
"                ..;...                                                                                                          ",
"                ..;...                                                                                                          ",
"                ..=...                                                                                                          ",
"                ..*...                                                                                                          ",
"                ..*..                                                                                                           ",
"                .....                                                                                                           ",
"                .....                                                                                                           ",
"                .*...                                                                                                           ",
"                .*...                                                                                                           ",
"                .=...                                                                                                           ",
"                .*....                                                                                                          ",
"                .=....                                                                                                          ",
"               .......                                                                                                          ",
"               ++@@@++                                                                                     %                    ",
"              %$$$$$$$#                                                                                %%%%%%%$$                ",
"            %%%&%&%%%$%$#                                                                            %%%%&%%$%$$$$              ",
"           &%&&&%&&%&%$$$#                                                                          &%&&&&&&&&%%$$$             ",
"          &$&&>'''>-&&%%$$#                                                                        &$&%>'''>-%&%$$##            ",
"          &%%'!!'>>--%&$$$#                                                                        &&&'!!'>>--%&%$$$            ",
"         &$&>!!>-%&%&&&&&#$#                                                                      $&$>!!>-%%%&&&%%$$#           ",
"         &&&!!>-%%&&&&&&&$$#                                                                      %&&!!>-%%&&&&&&$$$#           ",
"         %&&!'-&&&&&&&&&%%#$@                                                                     $&&!'-%%&&&&&&&&$#$@          ",
"        $%$&'>%&&&&&&&&%$%$#@                                                                    &%%&'>%&&&&&&&&&%%#$@          ",
"        $%&%>>&&&&&&&&&&&$$##                                                                    $$%%>>%&&&&&&&&%%%$#@          ",
"        $%%&>-%&&&&&&&&&%$$#@                                                                    $&%%>-&&&&&&&&&%$$$#@          ",
"         $&%&-&&&&&&&&&&$$$#@                                                                     $%&&-&&&&&&&&&&&$$$@          ",
"         $$%&&&&&&&&&&&&$#$#                                                                      $%$&&&&&&&&&&&$$$##           ",
"         $%$%&&&&&&&%&$%$$#@                                                                      $$&%&&&&&&&&&&&$###           ",
"          $$$%%&&%%&%&$$###@                                                                       $$$%&&&&&&%$$$$##@           ",
"          $$$$&$%&%%$%$$#$@                                                                        #$$$$%&$%$&$$$##@            ",
"           #$$$$$$$%$$####                                                                          $$$$$$$%$$$$###             ",
"            ###$$$$$$###@                                                                            #$#$$$$$####@              ",
"              #########@                                                                               #####$###@               ",
"                @#@#@@                                                                                   #@#@@@                 ",
"                                                                                                                                ",
"                                                                                                                                ",
"                                                                                                                                ",
"                                                                                                                                ",
"                                                                                                                                ",
"                                                                                                                                ",
"                                                                                                                                ",
"                                                                                                                                ",
"                                                                                                                                ",
"                                                                                                                                "};
