/* XPM */
char * arcstartendangle_xpm[] = {
"128 128 17 1",
" 	c None",
".	c #000200",
"+	c #270000",
"@	c #460101",
"#	c #5B0000",
"$	c #670100",
"%	c #740000",
"&	c #7E0000",
"*	c #222320",
"=	c #8A1414",
"-	c #323331",
";	c #993333",
">	c #4C4E4B",
",	c #AD5B5A",
"'	c #757774",
")	c #C28482",
"!	c #D6ADAC",
"                                                                                                                                ",
"                                                                                                                                ",
"                                                                                                                                ",
"                                                                                                                                ",
"                                                                                                                                ",
"                                                                                                                                ",
"                                                                                                                                ",
"                                                                                                                                ",
"                                                                                                                                ",
"                                                                                                           %                    ",
"                                                                                                       &&%%&%%%$                ",
"                                                                                                     %&%&&%&&%%%$$              ",
"                                                                                                    &&&&%&&&%%&%%$$             ",
"                                                                                                   &%%&,))),;&&&$%$#            ",
"                                                                                                   %&&)!!),;;=&&%%$$            ",
"                                                                                                  &&&,!!);====&&&%%$#           ",
"                                                                                  ...............+$&&!!,==&&&&&&&%%$#           ",
"                                                                           ......................+&%%!);=&&&&&&&&%$$$@          ",
"                                                                        ........*->>>>---***.****@=&&),=&&&&&&&&&&%$$@          ",
"                                                                    .......>>>>*.................@%&&,;&&&&&&&&&&%%$##          ",
"                                                                 ......->'.......................@&&=;;=&&&=&&&&&&%$#@          ",
"                                                              ......>'>..........................#$%&==&&&&&&&&&&%$##@          ",
"                                                            .....>'-.............                 $%&%=&&&&&=&&&%%%##           ",
"                                                          ....*'>..........                       $%%&&&&&&&&&&&&$$#@           ",
"                                                        ....-'>.........                          @$%%&&&&&&&&%%%#$#@           ",
"                                                      ....>'*........                              $$$%%%&&&&&%$$##@            ",
"                                                     ...>'*.......                                  $$$$$%%%$$%$##@             ",
"                                                   ...-'-.......                                     #$$%$$$$$$##@              ",
"                                                 ....'>.......                                        ####$$###@@               ",
"                                                ...>'.......                                             @@@@@@                 ",
"                                               ..*'-......                                                                      ",
"                                             ...>'......                                                                        ",
"                                            ...'>......                                                                         ",
"                                           ..-'......                                                                           ",
"                                          ..>'.....                                                                             ",
"                                        ...'>.....                                                                              ",
"                                       ...'*..+..                                                                               ",
"                                      ..*'.....                                                                                 ",
"                                     ..*'.....                                                                                  ",
"                                    ..*'.....                                                                                   ",
"                                   ...'....                                                                                     ",
"                                   ..'....                                                                                      ",
"                                  ..'....                                                                                       ",
"                                 ..'*...                                                                                        ",
"                                ..>>....                                                                                        ",
"                               ..-'....                                                                                         ",
"                               ..'....                                                                                          ",
"                              ..'....                                                                                           ",
"                             ..>-....                                                                                           ",
"                            ..-'....                                 &&%$                                                       ",
"                            ..'.+..                                 &%&%$                                                       ",
"                           ..>*...                                  &&&%%                                                       ",
"                          ..*'....                                 &&&=%$$                                                      ",
"                          ..'....                                  %=,)%%$                                                      ",
"                         ..>>...                                   %%!)%$$#                                                     ",
"                         ..'....                                  &%&!)&%$$                                                     ",
"                        ..>*...                                   &&;!,%%$$@                                                    ",
"                        ..'....                                  %&%),=%%%$$                                                    ",
"                       ..>*...                                   &&=;=&&%%$$                                                    ",
"                       ..'....                                  &%==%&&&&%$$#                                                   ",
"                      ..>....                                   &&&&%%&%&&$$#                                                   ",
"                      ..'....                                  &%,&& %%&&&%$$@                                                  ",
"                     ..-*...                                   &,=%% #%&%&&%$#                                                  ",
"                     ..'....                                   &!%%   %%&=&$$$                                                  ",
"                     ..>...                                   &,=%$   $%&%&&$$#                                                 ",
"                    ..>....                                   &!&$#    $%&=%%$#                                                 ",
"                    ..'...                                   &;,%$     $%&&&$$$@                                                ",
"                    .**...                                   %!%%#     #%%&=&%$#                                                ",
"                   ..'...                                   &&!%#       %%==&$$#                                                ",
"                   ..>...                                   %)=%$       $%&=&&%$@                                               ",
"                   .**...                                   &!&$         &&&,%%$$                                               ",
"                  ..>...                                   &=!%%         %%=,&%%$@                                              ",
"                  ..'...                                   &,!&$          &&,&%$$#                                              ",
"                  ..>...                                  &%!=%$$$$$$;)  &&&&&&%$$                                              ",
"                  .*....                                  &&)&$$%%&&,!!,%&&&&&%$$$#                                             ",
"                 ..>...                                  &&,%%%%$$%%&%&%%%%%&&&&%$#                                             ",
"                 ..>...                                  &;&%####@#####$###$%&&&%$$@                                            ",
"                 ..>...                                  %)&$              $%%&&%%##                                            ",
"                 ..-...                                 &)&$$               $%&=%%$$                                            ",
"                 .*....                                 %!%%                $%&&&%%$@                                           ",
"                 .-...                                 &,;%$                 %%&;%$$#                                           ",
"                ..>...                                 &!&$#                 $%%=&%%$@                                          ",
"                ..>...                                &=!%#                  $%%&;%$$#                                          ",
"                ..>...                                %!=%#                   %&&,&%$$                                          ",
"                ..>...                               &%!&$                    %%&,&%%$#                                         ",
"                ..>...                               &,!&%                    $&&&&&$%%                                         ",
"                ..-...                              &&;=%$                    %&&&&%%$%$                                        ",
"                ..*...                            &&%&&$%%$#                 &&$%%$%$%$%$$                                      ",
"                ..*..                            &&&%%%$$$$%%%$            &&&%$$$#$$%$%$$%%                                    ",
"                .....                            &%%$#$#####$$#            &%%$$$@$@#@###$$$                                    ",
"                .....                                                                                                           ",
"                .*...                                                                                                           ",
"                .*...                                                                                                           ",
"                .**..                                                                                                           ",
"                .*....                                                                                                          ",
"                .*....                                                                                                          ",
"               ..*....                                                                                                          ",
"               +@@@@++                                                                                                          ",
"              %$$#$%%%$                                                                                                         ",
"            &&&&&&&%%%$$#                                                                                                       ",
"           &%&&%&&&&%&%%$#                                                                                                      ",
"          &&&&,))),;&&%%%$#                                                                                                     ",
"          %&%)!!),,;=&%&%$$                                                                                                     ",
"         %&&,!!,;=&=&&&%%$$#                                                                                                    ",
"         %&&!!,;&&&&&&&&%$$#                                                                                                    ",
"         &%&!);=&&&=&&&&&%$#@                                                                                                   ",
"        %&&&),&&&&&&&&&&%%$$@                                                                                                   ",
"        %$&=,;&&&&&&&&&&&%$##                                                                                                   ",
"        %%&%,;=&&&&&=&&&&%$#@                                                                                                   ",
"         %%&&=&=&&&&&&&%%$##@                                                                                                   ",
"         %%&&&&&&&&&&&&&%$##                                                                                                    ",
"         $$%&&&&&&&&&&%%%$##                                                                                                    ",
"          $%%&&&&&&&&&%$$##@                                                                                                    ",
"          %$$%%%&&&&%%$$##@                                                                                                     ",
"           $$$$%%%$$%%$##@                                                                                                      ",
"            $$%#$$$$####@                                                                                                       ",
"              #$#$$###@@                                                                                                        ",
"                @@@@@@                                                                                                          ",
"                                                                                                                                ",
"                                                                                                                                ",
"                                                                                                                                ",
"                                                                                                                                ",
"                                                                                                                                ",
"                                                                                                                                ",
"                                                                                                                                ",
"                                                                                                                                ",
"                                                                                                                                ",
"                                                                                                                                "};
