/* XPM */
char * arcstartendradius_xpm[] = {
"128 128 17 1",
" 	c None",
".	c #000200",
"+	c #2D0000",
"@	c #440000",
"#	c #580000",
"$	c #6B0000",
"%	c #770200",
"&	c #7F0000",
"*	c #242623",
"=	c #8C1516",
"-	c #393B38",
";	c #962E2E",
">	c #4E504E",
",	c #A95554",
"'	c #767572",
")	c #B66E6D",
"!	c #D3A7A7",
"                                                                                                                                ",
"                                                                                                                                ",
"                                                                                                                                ",
"                                                                                                                                ",
"                                                                                                                                ",
"                                                                                                                                ",
"                                                                                                                                ",
"                                                                                                                                ",
"                                                                                                                                ",
"                                                                                                           %                    ",
"                                                                                                       %%%%%%$$$                ",
"                                                                                                     %%%&&%&%&%%$$              ",
"                                                                                                    &&&%&&&&&&%%$$$             ",
"                                                                                                   %%%&,!!),;&&&$$$#            ",
"                                                                                                   %&&)!!)),;;%&&$$$            ",
"                                                                                                  %%&)!!);=&&&&&%$$$#           ",
"                                                                                  ...............+$%&!!);&&&&&&&&&$$#           ",
"                                                                           ......................+%&&!)=&&&&&&&&&%$$$@          ",
"                                                                        ........*->>>----**.*.***@%&=!,=&&&&&&&&&&$$$@          ",
"                                                                    .......->>-*.................@&%&,,=&&&&&&&&&&$$##          ",
"                                                                 ......->>*......................@%%&;;&&&&&&&&&&&$$#@          ",
"                                                              ......>'>..........................@$&%==&&&&&&&&&%%$##@          ",
"                                                            .....>'-.............                 $%%%&&&&&&&&&&&%$$#           ",
"                                                          ....*'>..........                       $$%=&&&&&&&&&&%$$#@           ",
"                                                        ....-'-.........                          #$$%%&&&&&&%%%$$##@           ",
"                                                      ....>'*........                              $$%$=%&=%%%$$$$#@            ",
"                                                     ...-'*.......                                  $$$$$%%$%%$$###             ",
"                                                   ...-'-.......                                     #$$$$$$$$###@              ",
"                                                 ....'>.......                                        ###$#####@@               ",
"                                                ...>'.......                                             @$###@.                ",
"                                               ..*'-......                                                #)@@                  ",
"                                             ...>'......                                                  #)$#                  ",
"                                            ...'>......                                                   $)##                  ",
"                                           ..-'......                                                     $)$#                  ",
"                                          ..>'.....                                                       $,$#                  ",
"                                        ...'>.....                                                        %)%$                  ",
"                                       ...'*.....                                                         %)%$                  ",
"                                      ...'.....                                                           &)$$                  ",
"                                     ..*'.....                                                            &,%$                  ",
"                                    ..*'.....                                                             &)%$                  ",
"                                   ...'....                                                               &)%$                  ",
"                                   ..'....                                                                %)$$                  ",
"                                  ..'....                                                                 &,%$                  ",
"                                 ..'*...                                                                  &)%$                  ",
"                                ..>>....                                                                  &)%$                  ",
"                               ..-'....                                                                   %)$$                  ",
"                               ..'....                                                                    &,%$                  ",
"                              ..'....                                                                     &)%$                  ",
"                             ..>-....                                                                     &)%$                  ",
"                            ..*'....                                                                      %,%$                  ",
"                            ..'....                                                                       %)%$                  ",
"                           ..'....                                                                        &,%$                  ",
"                          ..*'....                                                                        %)%$                  ",
"                          ..'....                                                                         &)%$                  ",
"                         ..>-...                                                                          &)%$                  ",
"                         ..'....                                                                          &,%$                  ",
"                        ..>*...                                                                           %)%$                  ",
"                        ..'....                                                                           &)%$                  ",
"                       ..>*...                                                                            &)%$                  ",
"                       ..'....                                                                            &,%$                  ",
"                      ..>....                                                                             %)$$                  ",
"                      ..'....                                                                             &)&$                  ",
"                     ..**...                                                                              &)%$                  ",
"                     ..'....                                                                              &,%$                  ",
"                     ..>...                                                                               %)%$                  ",
"                    ..>....                                                                               &,%$                  ",
"                    ..'...                                                                                %)%$                  ",
"                    .**...                                                                                &)%$                  ",
"                   ..>...                                                                                 &)%$                  ",
"                   ..'...                                                                                 &)%$                  ",
"                   .**...                                                                                 %,%$                  ",
"                  ..>...                                                                                  &)%$                  ",
"                  ..'...                                                                                  &)%$                  ",
"                  ..>...                                                                                  &,%$                  ",
"                  .*....                                                                                  %)%$                  ",
"                 ..>...                                                                                   &)$$                  ",
"                 ..>...                                                                                   &,%$                  ",
"                 ..>...                                                                                   &)%$                  ",
"                 ..*...                                                                                   &)%$                  ",
"                 .*....                                                                                   &)%$                  ",
"                 .-...                                                                                    &!%$                  ",
"                ..>...                                                                                    =!&$                  ",
"                ..>...                                                                                    ;!=%                  ",
"                ..>...                                                                                    ;!&$                  ",
"                ..>...                                                                             &&%%%&%,,&%$$$$$$$           ",
"                ..>...                                                                            &&&&&&&=))&%%%%%%%%$          ",
"                ..-...                                                                            %%&;;;,!!!;&%&$%%$$$          ",
"                ..*...                                                                             %&&!!!!!),=&&&%$$#           ",
"                ..*..                                                                              $%&%)!),;;;&&&%$$#           ",
"                .....                                                                               $$=%=;;==&&%$$##            ",
"                .....                                                                                %%&&=&&&&&&$##             ",
"                .*...                                                                                $$%&==&&&%$$$#             ",
"                .*...                                                                                 %%&%=&&&&$##              ",
"                .*...                                                                                 $%&&=&&%$$$#              ",
"                .*....                                                                                $$%%&&&&$$##              ",
"                .*....                                                                                $%%&&%&%$##@              ",
"               ..*....                                                                                 $%%&&%%$#@               ",
"               ++@@@++                                                                                 $%%&&%$$$@               ",
"              %$$$$$$$$                                                                                 %%&&%$##                ",
"            %%&%&&%%%$$$#                                                                                %%&%$$                 ",
"           &%&%&&&&&&%%$$#                                                                              $%%&%$#@                ",
"          %&%&,!!),;&&%%$$#                                                                             $%%&$$#@                ",
"          %&&)!!)),;;&%&$$$                                                                             $$%&$$#+                ",
"         %%&)!!);=&&&&&%&$$#                                                                             $%%$$@                 ",
"         %&&!!);&&&&&&&%%$$#                                                                              &&%$                  ",
"         %%&!);&&&&&&&&&%$$$@                                                                             $&$$                  ",
"        %&&&!,=&&&&&&&&&&%$#@                                                                             %&$$                  ",
"        $%$&);&&&&&&&&&&%$$$#                                                                             %&%#                  ",
"        %&%&,;&&&&&&&&&&%$$#@                                                                             %%%$                  ",
"         $%&&;&&&&&&&&&&%$##@                                                                             %%$#                  ",
"         $%%&&&&&&&&&%&%$$$#                                                                              $$$#                  ",
"         $$%%&&&&&&&&&&%%$#@                                                                               %$                   ",
"          $$%%&&&&&&&%%$$##@                                                                                                    ",
"          $%%%%=%&&%%$$$##@                                                                                                     ",
"           $$$%$%$%%$$$#$#                                                                                                      ",
"            #$$$$$$$$###@                                                                                                       ",
"              ##$###$##+                                                                                                        ",
"                @##@@+                                                                                                          ",
"                                                                                                                                ",
"                                                                                                                                ",
"                                                                                                                                ",
"                                                                                                                                ",
"                                                                                                                                ",
"                                                                                                                                ",
"                                                                                                                                ",
"                                                                                                                                ",
"                                                                                                                                ",
"                                                                                                                                "};
