/* XPM */
char * arcstartenddirection_xpm[] = {
"128 128 17 1",
" 	c None",
".	c #000000",
"+	c #2C0000",
"@	c #460001",
"#	c #5B0000",
"$	c #6A0000",
"%	c #770200",
"&	c #800000",
"*	c #242624",
"=	c #8A1214",
"-	c #363835",
";	c #992E2F",
">	c #494B49",
",	c #AA5352",
"'	c #757774",
")	c #BF7E7D",
"!	c #D4A7A8",
"                                                                                                                                ",
"                                                                                                                                ",
"                 ..                                                                                                             ",
"                *...                                                                                                            ",
"                .>..                                                                                                            ",
"                .'..                                                                                                            ",
"                .'..                                                                                                            ",
"                .'..                                                                                                            ",
"                .'..                                                                                                            ",
"                .'..                                                                                       %                    ",
"               ..'...                                                                                  %%%%%%$%$                ",
"               ..'...                                                                                %%%%&&%%&$%$$              ",
"              ...'...                                                                               %&%&&&&&%&%&$$$             ",
"              ...'...                                                                              %%%&,!)),;%%%%%$#            ",
"               .*'...                                                                              %&&)!!));;=&%%$$$            ",
"              ..-'....                                                                            %%&)!!);====&%%%$$#           ",
"             ...>'.....                                                           ...............+$%&!!,;&&&&&&&%%$$#           ",
"             ...'>.....                                                    ......................+&%&!);&&&&&&&&&&$$$@          ",
"            ...*'>......                                                ........*->>>>---***.****@%%&),=%&&&&&&&&&$$#@          ",
"            ...>'-......                                            .......>>>>*.................@%%&),=&&&&&&&&%%%$##          ",
"            ...''*......                                         ......-'>*......................@%%&;;&&&&&&&&&&%$$#@          ",
"            ..-'>.......                                      ......>'-..........................@$%%%=&&&&&&&&&&%$$#@          ",
"           ...'>-........                                   .....>'-.............                 $%%%%&&&&&&&&%%%$##           ",
"           ..>'>*........                                 ....*''..........                       $$%&&&&&&&&&%&%$$#@           ",
"          ...''*..........                              ....-'>.........                          #$$%%%&&&&%&%%$$##@           ",
"         ...**.............                           ....>'*........                              #%$$%%%%%%%%$$##@            ",
"         ..................                          ...>'*.......                                  #$%$%%%%$$$$###             ",
"        ....................                       ...*'-.......                                     #$$$$$$$$$##@              ",
"        ....................                     ....'>.......                                        @###$$###@@               ",
"         ...................                    ...>'.......                                             @@@@@+                 ",
"                ....                           ..*'-......                                                                      ",
"                ....                         ...>'......                                                                        ",
"                ....                        ...'>......                                                                         ",
"                ....                       ..-'......                                                                           ",
"                .-..                      ..>'.....                                                                             ",
"                .>..                    ...'>.....                                                                              ",
"                .>..                   ...'*.....                                                                               ",
"                .>..                  ..*'.....                                                                                 ",
"                .>..                 ..*'.....                                                                                  ",
"                .>..                ..*'.....                                                                                   ",
"                .>..               ...'....                                                                                     ",
"                .>..               ..'....                                                                                      ",
"                .>..              ..'....                                                                                       ",
"                .>..             ..'*...                                                                                        ",
"                .>..            ..>>....                                                                                        ",
"                .>..           ..-'....                                                                                         ",
"                .>..           ..'....                                                                                          ",
"                .>..          ..'....                                                                                           ",
"                .>..         ..'-....                                                                                           ",
"                .>..        ..*'....                                                                                            ",
"                .-..        ..'....                                                                                             ",
"                .>..       ..'....                                                                                              ",
"                .>..      ..*'....                                                                                              ",
"                .>..      ..'....                                                                                               ",
"                .>..     ..>-...                                                                                                ",
"                .>..     ..'....                                                                                                ",
"                .-..    ..>*...                                                                                                 ",
"                .>..    ..'....                                                                                                 ",
"                .>..   ..>*...                                                                                                  ",
"                .>..   ..'....                                                                                                  ",
"                .>..  ..>....                                                                                                   ",
"                .>..  ..'....                                                                                                   ",
"                .-.. ..-*...                                                                                                    ",
"                .>.. ..'....                                                                                                    ",
"                .>.. ..>...                                                                                                     ",
"                .>....>....                                                                                                     ",
"                .>....'...                                                                                                      ",
"                .>...**...                                                                                                      ",
"                .-...'....                                                                                                      ",
"                .>...'...                                                                                                       ",
"                .>..**...                                                                                                       ",
"                .>..>....                                                                                                       ",
"                .>..'...                                                                                                        ",
"                .-..>...                                                                                                        ",
"                .*.*....                                                                                                        ",
"                .*.>....                                                                                                        ",
"                ...'...                                                                                                         ",
"                ...>...                                                                                                         ",
"                ...*...                                                                                                         ",
"                ..*....                                                                                                         ",
"                ..-....                                                                                                         ",
"                ..>...                                                                                                          ",
"                ..>...                                                                                                          ",
"                ..>...                                                                                                          ",
"                ..>...                                                                                                          ",
"                ..>...                                                                                                          ",
"                ..-...                                                                                                          ",
"                ..*...                                                                                                          ",
"                ..*...                                                                                                          ",
"                .....                                                                                                           ",
"                .....                                                                                                           ",
"                .*...                                                                                                           ",
"                .*...                                                                                                           ",
"                .**...                                                                                                          ",
"                .*....                                                                                                          ",
"                .*....                                                                                                          ",
"               .......                                                                                                          ",
"               ++@@@++                                                                                                          ",
"              %$$$$$$$#                                                                                                         ",
"            %%&&&%&%%%%$#                                                                                                       ",
"           %%%&&&&&%%%%$$#                                                                                                      ",
"          %&&&,)!),;&%%%$$#                                                                                                     ",
"          %%&)!!!,,;=&&%$$#                                                                                                     ",
"         %%%)!!,;====&%&&$$#                                                                                                    ",
"         %&&!!)==&&&&&&%%$$#                                                                                                    ",
"         %%%!);%&&&&&&&&&%$#@                                                                                                   ",
"        %%&&),=&&&&&&&&&%%$#@                                                                                                   ",
"        %%%=,,=&&&&&&&&%%$$##                                                                                                   ",
"        $%%&,;&&&&&&&&&&&%$#@                                                                                                   ",
"         %%%&=&&&&&&&&&%%$##@                                                                                                   ",
"         $%%%%&&&&&&&&&%%$##                                                                                                    ",
"         %$%&&&&&&&&&%&%%##@                                                                                                    ",
"          $$%%%&&&&%&%%$$##@                                                                                                    ",
"          $$$$&%%&%%%%$$##@                                                                                                     ",
"           $$$$$$%%$$$###@                                                                                                      ",
"            #$$$$$$$$$##@                                                                                                       ",
"              ##$#$####@                                                                                                        ",
"                @#@@@+                                                                                                          ",
"                                                                                                                                ",
"                                                                                                                                ",
"                                                                                                                                ",
"                                                                                                                                ",
"                                                                                                                                ",
"                                                                                                                                ",
"                                                                                                                                ",
"                                                                                                                                ",
"                                                                                                                                ",
"                                                                                                                                "};
