/* XPM */
char * arcstartcenterend_xpm[] = {
"128 128 17 1",
" 	c None",
".	c #000200",
"+	c #450001",
"@	c #580000",
"#	c #6A0000",
"$	c #770200",
"%	c #800000",
"&	c #252624",
"*	c #8A1314",
"=	c #353734",
"-	c #992F2F",
";	c #4D4F4C",
">	c #AA5352",
",	c #767875",
"'	c #BF7E7D",
")	c #A8AAA7",
"!	c #D3A7A7",
"                                                                                                                                ",
"                                                                                                                                ",
"                                                                                                                                ",
"                                                                                                                                ",
"                                                                                                                                ",
"                                                                                                                                ",
"                                                                                                                                ",
"                                                                                                                                ",
"                                                                                                                                ",
"                                                                                                           $                    ",
"                                                                                                       $$$$$$#$#                ",
"                                                                                                     $$$$%$%$%#$##              ",
"                                                                                                    $%%%%%%%$%$$###             ",
"                                                                                                   $$$$>'!'>-%$$$$#@            ",
"                                                                                                   $%%'!!'>>-*%$$#$#            ",
"                                                                                                  $$%'!!'-****%%$$##@           ",
"                                                                                  ................%$%!!>-$%%%%%$%$##@           ",
"                                                                           ......................+$$%!'-%%%%%%%%%$$##+          ",
"                                                                        ........&=;;;;===&&.&.&&&+$$%'>**%%%%%%%$$$##+          ",
"                                                                    .......=;;;&.................+$%$'>*%%%%%%%%%$##@@          ",
"                                                                 ......=;;&......................+$$%--%%%%%%%%%%$##@+          ",
"                                                              ......;,;..........................+$$$$*%%%%%%%%%%$$#@+          ",
"                                                            .....;,=.............                 #$$%$%%%%%%%%$$##@@           ",
"                                                          ....&,;..........                       ##$$%%%%%%%%$%$$#@@           ",
"                                                        ....=,=.........                          @#$$$$%%%%$%$$##@@+           ",
"                                                      ....;,&........                              ####$$$$$$$$$#@@+            ",
"                                                     ...;,&.......                                  #####$$####@#@@             ",
"                                                   ...&,=.......                                     ##########@@+              ",
"                                                 ....,;.......                                        +####@@@@@+               ",
"                                                ...;,.......                                             ++@@++                 ",
"                                               ..&,=......                                                                      ",
"                                             ...;,......                                                                        ",
"                                            ...,;......                                                                         ",
"                                           ..=,......                                                                           ",
"                                          ..;,.....                                                                             ",
"                                        ...,;.....                                                                              ",
"                                       ...,&.....                                                                               ",
"                                      ...,.....                                                                                 ",
"                                     ..&,.....                                                                                  ",
"                                    ..&,.....                                                                                   ",
"                                   ...,....                                                                                     ",
"                                   ..,....                                                                                      ",
"                                  ..,....                                                                                       ",
"                                 ..,&...                                                                                        ",
"                                ..;;....                                                                                        ",
"                               ..=,....                                                                                         ",
"                               ..,....                                                                                          ",
"                              ..,....                                                                                           ",
"                             ..;=....                                                                                           ",
"                            ..&,....                                                                                            ",
"                            ..,....                                                                                             ",
"                           ..,....                                                                                              ",
"                          ..&,....                                                                                              ",
"                          ..,....                                                                                               ",
"                         ..=;...                                                                                                ",
"                         ..,....                                                                                                ",
"                        ..;&...                                                                                                 ",
"                        ..,....                                                                                                 ",
"                       ..;&...                                                                                                  ",
"                       ..,....                                                                                                  ",
"                      ..;....                                                                                                   ",
"                      ..,....                                                                                                   ",
"                     ..&&...                                                                                                    ",
"                     ..,....                                                                                                    ",
"                     ..;...                                                                                                     ",
"                    ..;....                                                                                                     ",
"                    ..,...                                                                                                      ",
"                    .&&...                                                                                                      ",
"                   ..;...                                                                                                       ",
"                   ..,...                                                                                                       ",
"                   ..&...                                                                                                       ",
"                  ..;...                                                                                                        ",
"                  ..,...                                                                                                        ",
"                  ..;...                                                                                                        ",
"                  .&....                                                                                                        ",
"                 ..;...                                                                                                         ",
"                 ..;...                                                                                                         ",
"                 ..;...                                                                                                         ",
"                 ..&...                                                                                                         ",
"                 .&....                                                                                                         ",
"                 .=...                                                                                                          ",
"                ..;...                                                                                                          ",
"                ..;...                                                                                                          ",
"                ..;...                                                                                                          ",
"                ..;...                                                                                                          ",
"                ..;...                                                                                                          ",
"                ..=...                                                                                                          ",
"                ..&...                                                                                                          ",
"                ..&..                                                                                                           ",
"                .....                                                                                                           ",
"                .....                                                                                                           ",
"                .&...                                                                                                           ",
"                .&...                                                                                                           ",
"                .&...                                                                                                           ",
"                .&&...                                                                                                          ",
"                .&....                                                                                                          ",
"               .......                                                                                                          ",
"               .......                                                                                     $                    ",
"              .........                                                                                $$$$$$#$#                ",
"            .............                                                                            $$$%%$%$%$$##              ",
"           ...............                                                                          %$%$%%%%$$$$###             ",
"          ....;,),;=.......                                                                        $$%%>'!'>-%$$$###            ",
"          ...,)),,;=&......                                                                        $$%'!!'>>-*%$%###            ",
"         ...,)),=...........                                                                      $$%'!!'-****%%$$##@           ",
"         ...)),&............                                                                      $$%!!>-$%%%%%$$$##@           ",
"         ...),&..............                                                                     $%%!'-*%%%%%%%%$$##+          ",
"        ....,;&..............                                                                    $$$%'>*%%%%%%%%%$###+          ",
"        ....,=...............                                                                    $$$*>>%%%%%%%%%%$$#@@          ",
"        ....==...............                                                                    #$$%>-%%%%%%%%%$$##@+          ",
"         ....&...............                                                                     #$%%-%%%%%%%%%%$##@+          ",
"         ...................                                                                      #$$%%%%%%%%%%$$$##@           ",
"         ...................                                                                      $#$$$%%%%%%%%%$$@@@           ",
"          ..................                                                                       ##$$$%%%%%$$$##@@+           ",
"          .................                                                                        #$#$$$$%$$$$##@@+            ",
"           ...............                                                                          ############@@@             ",
"            .............                                                                            #####$####@@+              ",
"              ..........                                                                               ##@##@@@@+               ",
"                ......                                                                                   @+@+++                 ",
"                                                                                                                                ",
"                                                                                                                                ",
"                                                                                                                                ",
"                                                                                                                                ",
"                                                                                                                                ",
"                                                                                                                                ",
"                                                                                                                                ",
"                                                                                                                                ",
"                                                                                                                                ",
"                                                                                                                                "};
