/* XPM */
char * arcstartcenterlength_xpm[] = {
"128 128 17 1",
" 	c None",
".	c #000100",
"+	c #310100",
"@	c #550001",
"#	c #670100",
"$	c #740000",
"%	c #7E0000",
"&	c #222321",
"*	c #8B1616",
"=	c #323331",
"-	c #993232",
";	c #4C4E4B",
">	c #AB5655",
",	c #777875",
"'	c #C78D8D",
")	c #9B9D9A",
"!	c #DEBCBC",
"                                                                                                                                ",
"                                                                                                                                ",
"                                                                                                                                ",
"                                                                                                                                ",
"                                                                                                                                ",
"                                                                                                                                ",
"                                                                                                                                ",
"                                                                                                                                ",
"                                                                                                                                ",
"                                                                                                           $                    ",
"                                                                                                       %%$$%$$#$                ",
"                                                                                                     $%$%%$%%$%#$#              ",
"                                                                                                    %%%%$%%%$%%$###             ",
"                                                                                                   %$$%>'''>-%%$$$$@            ",
"                                                                                                   $%%'!!'>--*%%%#$#            ",
"                                                                                                  %%$>!!>-****%$%$##@           ",
"                                                                                  ................$%$'!>**%%%%%%%$##@           ",
"                                                                           ......................+$%*''-*%%%%%%%$%$$@@          ",
"                                                                        ........==;;;;===&&&.&&&&@$%%'>%%%%%%%%%%$$$#@          ",
"                                                                    .......;;;;&.................@$%%>-%%%%%%%%%%%$@@@          ",
"                                                                 ......=;;&......................@#%%--*%%%%%*%%%$$#@@          ",
"                                                              ......;,;..........................@$$***%%%%%%%%%%$$##+          ",
"                                                            .....;,=.............                 $#%$%%%%%%%%%%%#$@#           ",
"                                                          ....&,;..........                       #$$%%%%%%%%%%$%$#@@           ",
"                                                        ....=,;.........                          @#$$%%%%%%%%%$$@#@+           ",
"                                                      ....;,&........                             @###$$%$%%%$$$@#@@            ",
"                                                     ...;,&.......                               #$-@##$$$$#$$###@@             ",
"                                                   ...=,=.......                                 $>!*#####$##@#@@@              ",
"                                                 ....,;.......                                  %-!$#@@@@##@#@#@+               ",
"                                                ...;,.......                                   $>!###@  ++@@@++                 ",
"                                               ..&,=......                                    %-!%$@@                           ",
"                                             ...;,......                                     %-!%#@@                            ",
"                                            ...,;......                                     $>!$$#@                             ",
"                                           ..=,......                                      %-!%##@                              ",
"                                          ..;,.....                                       %>!$$@@                               ",
"                                        ...,;.....                                       $-!%$#@                                ",
"                                       ...,&.....                                       %-!%#@@                                 ",
"                                      ...,.....                                        %-!%##@                                  ",
"                                     ..&,.....                                        %-!%$#@                                   ",
"                                    ..&).....                                        $>!%#@@                                    ",
"                                   ...,....                                         %-!$$#@                                     ",
"                                   ..,....                                         %-!%$#@                                      ",
"                                  ..,....                                         %-!%##@                                       ",
"                                 ..,&...                                         %-!%#@@                                        ",
"                                ..;;....                                        %-!%$#@                                         ",
"                               ..=,....                                        %-!%##@                                          ",
"                               ..,....                                        %-!*#@@                                           ",
"                              ..,....                                        %-!$##@                                            ",
"                             ..;=....                                       %-!%$@@                                             ",
"                            ..=,....                                       %-!%##@                                              ",
"                            ..,....                                       %-!%$#@                                               ",
"                           ..,....                                       %-!$##@                                                ",
"                          ..&,....                                      %-!%$#@                                                 ",
"                          ..,....                                      %-!%#@@                                                  ",
"                         ..;;...                                      %-!%$#@                                                   ",
"                         ..,....                                     %-!$##@                                                    ",
"                        ..;&...                                     %-!%$#@                                                     ",
"                        ..,....                                    %-!%##@                                                      ",
"                       ..;&...                                    %*!%$@@                                                       ",
"                       ..,....                                   %-!%##@                                                        ",
"                      ..;....                                   %*!%$@@                                                         ",
"                      ..,....                                  %-!$##@                                                          ",
"                     ..=&...                                  %-!%$#@                                                           ",
"                     ..,....                                 %-!%##@                                                            ",
"                     ..;...                                 %*!%$#@                                                             ",
"                    ..;....                                %-!$$@@                                                              ",
"                    ..,...                                %*!%##@                                                               ",
"                    .&&...                               %-!%$#@                                                                ",
"                   ..,...                               %*!%##@                                                                 ",
"                   ..;...                              %-!$##@                                                                  ",
"                   .&&...                             %*!%$#@                                                                   ",
"                  ..;...                             %-!%##@                                                                    ",
"                  ..,...                            %*!%$#@                                                                     ",
"                  ..;...                           %*!%$@@                                                                      ",
"                  .&....                          %*!$$#@                                                                       ",
"                 ..;...                          %*!%##@                                                                        ",
"                 ..;...                         %*!*$#@                                                                         ",
"                 ..;...                        %*!$##@                                                                          ",
"                 ..=...                       %*!%$#@                                                                           ",
"                 ......                      %*!$$@@                                                                            ",
"                 .=...                      %*!%$#@                                                                             ",
"                ..;...                     %*!%##@                                                                              ",
"                ..;...                    %*!*$#@                                                                               ",
"                ..;...                   %*!$##@                                                                                ",
"                ..;...                  %*!%$#@                                                                                 ",
"                ..;...                 %*!%##@                                                                                  ",
"                ..=...                %*!$$#@                                                                                   ",
"                ..&...               %*!%$#@                                                                                    ",
"                ..&..               %*!$$@@                                                                                     ",
"                .....              %*!%###                                                                                      ",
"                .....             %*!%$#@                                                                                       ",
"                .&...            %*!$$#@                                                                                        ",
"                .&...           %*!%##@                                                                                         ",
"                .&&..          %%!%##@                                                                                          ",
"                .&....        %*!%$#@                                                                                           ",
"                .=....       %%!$$#@                                                                                            ",
"               .......      %*!%##@                                                                                             ",
"               .......     %%!%##@                                                                         $                    ",
"              .........   $*!%$#@                                                                      %$%$%$$$#                ",
"            .............@#!%##@                                                                     %$$%%$%%$$$$#              ",
"           ..............+)$#@@                                                                     %$%%%%%$$$%$###             ",
"          ....;)),;=......+@@@                                                                     $$%%>'''>-%%$$$$@            ",
"          ...,!),,;=&......+@                                                                      %%$'!!'>---%%%#$#            ",
"         ...,)),=...........                                                                      %%$>!!>-***%%$%$##@           ",
"         ...)),&............                                                                      %%%'!>**%%%%%%%%#$@           ",
"         ...),=..............                                                                     $%%''-*%%%%%%%$$$##@          ",
"        ....);&..............                                                                    $%%*'>%%%%%%%%%%%#$@@          ",
"        ....,=...............                                                                    #$%%>-%%%%%%%%%$$%@#@          ",
"        ....==...............                                                                    $$%$>-*%%%%%%%%%%$#@@          ",
"         ....&...............                                                                     $$%%*%%%%%%%%%%$##@+          ",
"         ....................                                                                     $$%%%%%%%%*%%%%$##@           ",
"         ...................                                                                      $#$%%%%%%%%%%%$$##@           ",
"          ..................                                                                       ##$%%%%%%%%$$#$@#+           ",
"          .................                                                                        $$#$$%%%$%%$##@@@            ",
"           ...............                                                                          ####$$$$#$$#@#+             ",
"            .............                                                                            ##$####$@@@#@              ",
"              ..........                                                                               ####@##@@+               ",
"                ......                                                                                   @@@@@+                 ",
"                                                                                                                                ",
"                                                                                                                                ",
"                                                                                                                                ",
"                                                                                                                                ",
"                                                                                                                                ",
"                                                                                                                                ",
"                                                                                                                                ",
"                                                                                                                                ",
"                                                                                                                                ",
"                                                                                                                                "};
