/* XPM */
char * arcstartcenterangle_xpm[] = {
"128 128 17 1",
" 	c None",
".	c #000000",
"+	c #290000",
"@	c #460001",
"#	c #5B0000",
"$	c #680100",
"%	c #740000",
"&	c #7E0000",
"*	c #212320",
"=	c #8A1313",
"-	c #323331",
";	c #9A3434",
">	c #4C4E4C",
",	c #AE5D5C",
"'	c #777976",
")	c #C38685",
"!	c #CFAEAD",
"                                                                                                                                ",
"                                                                                                                                ",
"                                                                                                                                ",
"                                                                                                                                ",
"                                                                                                                                ",
"                                                                                                                                ",
"                                                                                                                                ",
"                                                                                                                                ",
"                                                                                                                                ",
"                                                                                                           .                    ",
"                                                                                                       .........                ",
"                                                                                                     .............              ",
"                                                                                                    ...............             ",
"                                                                                                   ....>'''>-.......            ",
"                                                                                                   ...'!!''>-*......            ",
"                                                                                                  ...'!!'-*..........           ",
"                                                                                  ...................'!>*............           ",
"                                                                           .........................*''-..............          ",
"                                                                        ........*->>>>---***.***-....''...............          ",
"                                                                    .......>>>>*.....................'>...............          ",
"                                                                 ......->'...........................--...............          ",
"                                                              ......>'>...............................*...............          ",
"                                                            .....>'-.............                 ...................           ",
"                                                          ....*'>..........                       ...................           ",
"                                                        ....-'>.........                          ...................           ",
"                                                      ....>'*........                              .................            ",
"                                                     ...>'*.......                                  ...............             ",
"                                                   ...-'-.......                                     .............              ",
"                                                 ....'>.......                                        ...........               ",
"                                                ...>'.......                                             ......                 ",
"                                               ..*'-......                                                                      ",
"                                             ...>'......                                                                        ",
"                                            ...'>......                                                                         ",
"                                           ..-'......                                                                           ",
"                                          ..>'.....                                                                             ",
"                                        ...'>.....                                                                              ",
"                                       ...'*.....                                                                               ",
"                                      ..*'.....                                                                                 ",
"                                     ..*'.....                                                                                  ",
"                                    ..*'.....                                                                                   ",
"                                   ...'....                                                                                     ",
"                                   ..'....                                                                                      ",
"                                  ..'....                                                                                       ",
"                                 ..'*...                                                                                        ",
"                                ..>>....                                                                                        ",
"                               ..-'....                                                                                         ",
"                               ..'....                                                                                          ",
"                              ..'....                                                                                           ",
"                             ..>>....                                                                                           ",
"                            ..*'....                                 &&%$                                                       ",
"                            ..'....                                 &%&%$                                                       ",
"                           ..'....                                  &&&%%                                                       ",
"                          ..*'....                                 &&=;%$$                                                      ",
"                          ..'....                                  &%,)%%$                                                      ",
"                         ..>>...                                   %&))%$$#                                                     ",
"                         ..'....                                  &&&!)&$$$                                                     ",
"                        ..>*...                                   &&;!,%%$$@                                                    ",
"                        ..'....                                  %&=,,=&%%$#                                                    ",
"                       ..>*...                                   &%;;=&%%$%$                                                    ",
"                       ..'....                                  &%&&&%&&&&$##                                                   ",
"                      ..>....                                   &&=%%&&&&&%$#                                                   ",
"                      ..'....                                  &&,&% %%&&&%$$@                                                  ",
"                     ..-*...                                   &,=&$ #%%&=&$$#                                                  ",
"                     ..'....                                   =)&%   %%&&&%$$                                                  ",
"                     ..>...                                   &,=$$   #%&&&%$$#                                                 ",
"                    ..>....                                   %!&$#    $%%;&%##                                                 ",
"                    ..'...                                   &;,%$     $%&&%%$$@                                                ",
"                    .**...                                   &!&$#     #%%&=&%$#                                                ",
"                   ..'...                                   &=)%$       %%&;%%$#                                                ",
"                   ..>...                                   &)=%$       $%%&&%$$@                                               ",
"                   .**...                                   &!=$         %&=,&%$$                                               ",
"                  ..>...                                   &=!&$         &&&,&$$$@                                              ",
"                  ..'...                                   &,!&$          &&,&&$$#                                              ",
"                  ..>...                                  &&!=&#$$$$$;)  &&&=&&%#$                                              ",
"                  .*....                                  &=,%%$$$&&,!!,%&&&%&%%$$@                                             ",
"                 ..>...                                  &&,&%%$%%$%&%&%&%%%&&&&%$#                                             ",
"                 ..>...                                  %;=%##@##@###$$##$%%&&&%%$@                                            ",
"                 ..>...                                  &)%$              #%%&&&$##                                            ",
"                 ..-...                                 &)&%$               $%&=&%$$                                            ",
"                 .*....                                 &!&$                #%&%&%$$@                                           ",
"                 .-...                                 %,;%$                 %%&;&$$#                                           ",
"                ..>...                                 &!%$#                 $%%=&%$$@                                          ",
"                ..>...                                &=!%#                  $%%&;&$$#                                          ",
"                ..>...                                &)=%#                   %&&,&%$$                                          ",
"                ..>...                               &&!=%                    %%&,&%$$#                                         ",
"                ..>...                               =,!&$                    $&=&&%%%$                                         ",
"                ..-...                              &&,&%%                    &&&&&%%%$$                                        ",
"                ..-...                            &&%%&%%$$#                 &&$%$$$$%%%$$                                      ",
"                ..*..                            &&&%%$%#%$$$%$            &&%%$$$$#$#$%$%$%                                    ",
"                .....                            %%%%#$####$$$#            %%%%$##@###@##$$$                                    ",
"                .....                                                                                                           ",
"                .*...                                                                                                           ",
"                .*...                                                                                                           ",
"                .**..                                                                                                           ",
"                .-....                                                                                                          ",
"                .*....                                                                                                          ",
"               ..*....                                                                                                          ",
"               ++@@@++                                                                                     %                    ",
"              $$%$%%%$$                                                                                &%&&%%%%$                ",
"            &&&&%&%%%%$$#                                                                            &%&&%&&&%%%$$              ",
"           &&&&&&&&%&&%$$#                                                                          &&%%&&&&%%&%%$$             ",
"          &%%&,))),;&&&%%$#                                                                        %%&&,))),;&&&%%$#            ",
"          &&&)!!),;;=&&&%$$                                                                        &&%)!!),;;=%&&%$$            ",
"         %&&,!!,;====&&&$$$#                                                                      &&&,!!,;====&&&%$$#           ",
"         %&&!!,;=&&&&&&&&$$#                                                                      &&&)!,;==%&&%&%%$$#           ",
"         %&=));&&&&&&&&&&%$#@                                                                     %&=!);&&&&&=&&&&%$$@          ",
"        %&&=),=&&&&&&&&&%%$$@                                                                    %&&=),=&&&&&&&&&&%$$@          ",
"        %%&&,;=&&&&&&&&&%%$##                                                                    %%&&,;&&&&&&&&&&&$%##          ",
"        %%%&;;=&&&=&&&&&%$$#@                                                                    %%&&;;=&&&&=&&&&%%##@          ",
"         %%&==&&&&&&&&&&%%##@                                                                     %$&&;&&&&&&&&&&%$$#@          ",
"         %%%&&&&=&&=&&&&$$##                                                                      %%&&&&&&&&&&&&%%$$#           ",
"         $$%%&&&&&&&&&%%%$##                                                                      $%%&&&&&&&&&&&%$##@           ",
"          $%%%&&&&&&&&%$#$#@                                                                       $%%&&&&&&&&%%$$##@           ",
"          %$$%&%&%&%%%$$##@                                                                        $$$%%&&&%&&%$$$#@            ",
"           $$$$%%%%$$$$##@                                                                          $$$$%%%%%$$$##@             ",
"            $$$$$$$$$$##@                                                                            #$$$$$$#$###@              ",
"              #$##$###@@                                                                               ##$$####@@               ",
"                #@@@@@                                                                                   @#@@@@                 ",
"                                                                                                                                ",
"                                                                                                                                ",
"                                                                                                                                ",
"                                                                                                                                ",
"                                                                                                                                ",
"                                                                                                                                ",
"                                                                                                                                ",
"                                                                                                                                ",
"                                                                                                                                ",
"                                                                                                                                "};
