/* XPM */
char * array_xpm[] = {
"128 128 17 1",
" 	c None",
".	c #000000",
"+	c #191A18",
"@	c #282A27",
"#	c #343633",
"$	c #4A4C49",
"%	c #555754",
"&	c #696C69",
"*	c #7C7E7B",
"=	c #CACDC9",
"-	c #D2D5D1",
";	c #D7DAD6",
">	c #E3E5E2",
",	c #EBEDEA",
"'	c #F0F2EF",
")	c #F6F9F5",
"!	c #FDFFFC",
"                                                                                                                                ",
"                                                                                                                                ",
"                                                                                                                                ",
"                                                                                                                                ",
"                                                                                                                                ",
"     ...............................................                     ...............................................        ",
"     ..++....@@@###########################$&**$....                     ..++....@@############################$&**$....        ",
"     .+*@......................................$%...                     .+*@......................................$%...        ",
"     .+@..##$$$$$$$$$$$$$$$$$$$$$$$$$$$$$$$$$##.....                     .+@..##$$$$$$$$$$$$$$$$$$$$$$$$$$$$$$$$$##.....        ",
"     ....>---=--------------------------;;---=--....                     ....>---=---------------------------;---=--....        ",
"     ...#--==========-======-=-=====-=-==-===-==@...                     ...#;-=======-=-===-======-====-=-======-==@...        ",
"     ...#-=======---=--------=-------=-==---=---#...                     ...#========--=---=------=------=------=--=#...        ",
"     ...$-=====-;-;;-;;;;;;---;;;;;;;;;;;;;;-;;-$...                     ...$-=====---;--;;-;;;;;;-;;;;--;;;;;;;-;--$...        ",
"     .@.$=====->>>>>>>>>>>>>>>>>>>>>>>>>>>>>>>>>$...                     .@.$====-->>>>>>>>>>>>>>>>>>>>>>>>>>>>>>>>>$...        ",
"     .@.$====->>,',''','''''''','','''','''','''%+..                     .@.$====->>,'',''',',''''''''''''''''''''''%+..        ",
"     .#.$====>>''!!!!!!'!!!'!!!!'!!!'!!!!!!'!!''%@..                     .#.$====>>''!!!!!!!!!'!!!'!'!!!'!!!'!!!!!'!%@..        ",
"     .#.$-==;>,!'!!'!!!!!'!!'!!!!!'!!'!!'!!'!!!!%@..                     .#.$-=-->,!'!!''!!!'!!''!!!!!!!!!'!!'!!!!'!%@..        ",
"     .#.$=--->''!!!!!!!!!!!!!!!!!!!!!!!!!!!!!!!!%@..                     .#.$-=-;>,'!!!!!!!!!!!!!!!!!!!!!!!!!!!!!!!!%@..        ",
"     .#.$--=;>,)!!!!!!!!!!!!!!!!!!!!!!!!!!!!!!!!%@..                     .#.$-==;>')!!!!!!!!!!!!!!!!!!!!!!!!!!!!!!!!%@..        ",
"     .#.$-=-;>'!!!!!!!!!!!!!!!!!!!!!!!!!!!!!!!!!%@..                     .#.$---;>'!!!!!!!!!!!!!!!!!!!!!!!!!!!!!!!!!%@..        ",
"     .#.$---;>,))!!!!!!!!!!!!!!!!!!!!!!!!!!!!!!!%@..                     .#.$--=;>,))!!!!!!!!!!!!!!!!!!!!!!!!!!!!!!!%@..        ",
"     .#.$-==>>''!!!!!!!!!!!!!!!!!!!!!!!!!!!!!!!!%@..                     .#.$-=-;>''!!!!!!!!!!!!!!!!!!!!!!!!!!!!!!!!%@..        ",
"     .#.$-=-;>')!!!!!!!!!!!!!!!!!!!!!!!!!!!!!!!!%@..                     .#.$-=-;>')!!!!!!!!!!!!!!!!!!!!!!!!!!!!!!!!%@..        ",
"     .#.$-=-;>,!)!!!!!!!!!!!!!!!!!!!!!!!!!!!!!!!%@..                     .#.$--=;>'!)!!!!!!!!!!!!!!!!!!!!!!!!!!!!!!!%@..        ",
"     .#.$---->'!!!!!!!!!!!!!!!!!!!!!!!!!!!!!!!!!%@..                     .#.$---;>,'!!!!!!!!!!!!!!!!!!!!!!!!!!!!!!!!%@..        ",
"     .#.$-==>>''!!!!!!!!!!!!!!!!!!!!!!!!!!!!!!!!%@..                     .#.$-=->>'!!!!!!!!!!!!!!!!!!!!!!!!!!!!!!!!!%@..        ",
"     .#.$-=-;>'!)!!!!!!!!!!!!!!!!!!!!!!!!!!!!!!!%@..                     .#.$--=;>,))!!!!!!!!!!!!!!!!!!!!!!!!!!!!!!!%@..        ",
"     .#.$--=;>,'!!!!!!!!!!!!!!!!!!!!!!!!!!!!!!!!%@..                     .#.$-=-;>''!!!!!!!!!!!!!!!!!!!!!!!!!!!!!!!!%@..        ",
"     .#.$---;>'!!!!!!!!!!!!!!!!!!!!!!!!!!!!!!!!!%@..                     .#.$-=-;>')!!!!!!!!!!!!!!!!!!!!!!!!!!!!!!!!%@..        ",
"     .#.$-=-;>,'!!!!!!!!!!!!!!!!!!!!!!!!!!!!!!!!%@..                     .#.$--=>>'!!!!!!!!!!!!!!!!!!!!!!!!!!!!!!!!!%@..        ",
"     .#.$-=-;>''!!!!!!!!!!!!!!!!!!!!!!!!!!!!!!!!%@..                     .#.$---;>,))!!!!!!!!!!!!!!!!!!!!!!!!!!!!!!!%@..        ",
"     .#.$--=>>,!!!!!!!!!!!!!!!!!!!!!!!!!!!!!!!!!%@..                     .#.$-=-;>,!!!!!!!!!!!!!!!!!!!!!!!!!!!!!!!!!%@..        ",
"     .#.$-=-;>,))!!!!!!!!!!!!!!!!!!!!!!!!!!!!!!!%@..                     .#.$-==;>,)!!!!!!!!!!!!!!!!!!!!!!!!!!!!!!!!%@..        ",
"     .#.$--=;>''!!!!!!!!!!!!!!!!!!!!!!!!!!!!!!!!%@..                     .#.$-=->>'')!!!!!!!!!!!!!!!!!!!!!!!!!!!!!!!%@..        ",
"     .#.$---;>')!!!!!!!!!!!!!!!!!!!!!!!!!!!!!!!!%@..                     .#.$-=-;>'!!!!!!!!!!!!!!!!!!!!!!!!!!!!!!!!!%@..        ",
"     .#.$-==>>'')!!!!!!!!!!!!!!!!!!!!!!!!!!!!!!!%@..                     .#.$--=;>,'!!!!!!!!!!!!!!!!!!!!!!!!!!!!!!!!%@..        ",
"     .#.$-=-;>'!!!!!!!!!!!!!!!!!!!!!!!!!!!!!!!!!%@..                     .#.$---;>')!!!!!!!!!!!!!!!!!!!!!!!!!!!!!!!!%@..        ",
"     .#.$--=;>''!!!!!!!!!!!!!!!!!!!!!!!!!!!!!!!!%@..                     .#.$-==>>'')!!!!!!!!!!!!!!!!!!!!!!!!!!!!!!!%@..        ",
"     .#.$---;>'!!!!!!!!!!!!!!!!!!!!!!!!!!!!!!!!!%@..                     .#.$--=;>'!!!!!!!!!!!!!!!!!!!!!!!!!!!!!!!!!%@..        ",
"     .#.$-==>>'!'!!!!!!!!!!!!!!!!!!!!!!!!!!!!!!!%@..                     .#.$-=-;>''!!!!!!!!!!!!!!!!!!!!!!!!!!!!!!!!%@..        ",
"     .#.$-=-;>,'!!!!!!!!!!!!!!!!!!!!!!!!!!!!!!!!%@..                     .#.$-=-;>'!!!!!!!!!!!!!!!!!!!!!!!!!!!!!!!!!%@..        ",
"     .#.$-=-;>'!!!!!!!!!!!!!!!!!!!!!!!!!!!!!!!!!%@..                     .#.$--=>>''!!!!!!!!!!!!!!!!!!!!!!!!!!!!!!!!%@..        ",
"     .$.$---;>'))!!!!!!!!!!!!!!!!!!!!!!!!!!!!!!!%#..                     .$.$---;>'))!!!!!!!!!!!!!!!!!!!!!!!!!!!!!!!%#..        ",
"     .$.$-=-;>''!!!!!!!!!!!!!!!!!!!!!!!!!!!!!!!!%$..                     .$.$-=-;>,!!!!!!!!!!!!!!!!!!!!!!!!!!!!!!!!!%$..        ",
"     .&.$--=;>,)!!!!!!!!!!!!!!!!!!!!!!!!!!!!!!!!%&..                     .&.$-=-;>,)!!!!!!!!!!!!!!!!!!!!!!!!!!!!!!!!%&..        ",
"     .*.#-=-;>'!)!!!!!!!!!!!!!!!!!!!!!!!!!!!!!!!#*..                     .*.#--=>>,!)!!!!!!!!!!!!!!!!!!!!!!!!!!!!!!!#*..        ",
"     .*.#-=-;>,'!!!!!!!!!!!!!!!!!!!!!!!!!!!!!!!!#*..                     .*.#=-=;>,'!!!!!!!!!!!!!!!!!!!!!!!!!!!!!!!!#*..        ",
"     .$$.-=-;>'!!!!!!!!!!!!!!!!!!!!!!!!!!!!!!!!!$$..                     .$$.-=-->,!!!!!!!!!!!!!!!!!!!!!!!!!!!!!!!!!$$..        ",
"     ..$..@#$$$%%%%%%%%%%%%%%%%%%%%%%%%%%%%%%#$$*...                     ..$..@#$$%$%%%%%%%%%%%%%%%%%%%%%%%%%%%%%#$$*...        ",
"     .........@@@@@@@@@@@@@@@@@@@@@@@@@@@@#$&**$....                     .........+@@@@@@@@@@@@@@@@@@@@@@@@@@##$&**$....        ",
"     ...............................................                     ...............................................        ",
"     ...............................................                     ...............................................        ",
"                                                                                                                                ",
"                                                                                                                                ",
"                                                                                                                                ",
"                                                                                                                                ",
"                                                                                                                                ",
"                                                                                                                                ",
"                                                                                                                                ",
"                                                                                                                                ",
"                                                                                                                                ",
"                                                                                                                                ",
"                                                                                                                                ",
"                                                                                                                                ",
"                                                                                                                                ",
"                                                                                                                                ",
"                                                                                                                                ",
"                                                                                                                                ",
"                                                                                                                                ",
"                                                                                                                                ",
"                                                                                                                                ",
"                                                                                                                                ",
"                                                                                                                                ",
"     ...............................................                     ...............................................        ",
"     ..++....@@############################$&**$....                     ..++....@@############################$&**$....        ",
"     .+*@......................................$%...                     .+*@......................................$%...        ",
"     .+@..##$$$$$$$$$$$$$$$$$$$$$$$$$$$$$$$$$##.....                     .+@..##$$$$$$$$$$$$$$$$$$$$$$$$$$$$$$$$$##.....        ",
"     ....>-------------------------------;---=--....                     ....>---=--------------------------;;------....        ",
"     ...#;=============-==-=-=-==-=====-=====-==@...                     ...#--============-========-=-=====-=-=====@...        ",
"     ...#-=======-----=---=-=-=-=-----=-----=--=#...                     ...#-=======-----=----------=-=-----=-=----#...        ",
"     ...$======-;-;;;;-;;;;;;;;;-;;;;;;;;;;;-;--$...                     ...$-=====--;-;;;-;;;;;;;;;;-;;;;;-;;;--;;-$...        ",
"     .@.$=====->>>>>>>>>>>>>>>>>>>>>>>>>>>>>>>>>$...                     .@.$=====;>>>>>>>>>>>>>>>>>>>>>>>>>>>>>>>>>$...        ",
"     .@.$====->>,',',''''','''''''',',',''''''''%+..                     .@.$====->>,'',','''''',''''''',''',''','''%+..        ",
"     .#.$-===>>''!!'!!!!'!!!'!!'!!!!!!!'!!!!!!'!%@..                     .#.$===-;>,!'!!!!!'!!'!'!!!'!!'!!!!!!!'!'!'%@..        ",
"     .#.$-=-->,!!'!!'!!!!!'!!!!!!!'!!'!!!'!!!!'!%@..                     .#.$-=-;>,'!!!''!!'!!!!!!'!!!!!!!'!!!!!!!!!%@..        ",
"     .#.$-==->'''!!!!!!!!!!!!!!!!!!!!!!!!!!!!!!!%@..                     .#.$-==;>'!)!!!!!!!!!!!!!!!!!!!!!!!!!!!!!!!%@..        ",
"     .#.$-=-;>'!!!!!!!!!!!!!!!!!!!!!!!!!!!!!!!!!%@..                     .#.$-=-->,!!!!!!!!!!!!!!!!!!!!!!!!!!!!!!!!!%@..        ",
"     .#.$---;>''!!!!!!!!!!!!!!!!!!!!!!!!!!!!!!!!%@..                     .#.$--=;>,'!!!!!!!!!!!!!!!!!!!!!!!!!!!!!!!!%@..        ",
"     .#.$-=-;>')!!!!!!!!!!!!!!!!!!!!!!!!!!!!!!!!%@..                     .#.$---->'!!!!!!!!!!!!!!!!!!!!!!!!!!!!!!!!!%@..        ",
"     .#.$-=-;>''!!!!!!!!!!!!!!!!!!!!!!!!!!!!!!!!%@..                     .#.$-=->>''!!!!!!!!!!!!!!!!!!!!!!!!!!!!!!!!%@..        ",
"     .#.$---;>')!!!!!!!!!!!!!!!!!!!!!!!!!!!!!!!!%@..                     .#.$--=;>'')!!!!!!!!!!!!!!!!!!!!!!!!!!!!!!!%@..        ",
"     .#.$-==>>'!)!!!!!!!!!!!!!!!!!!!!!!!!!!!!!!!%@..                     .#.$-=-;>'!!!!!!!!!!!!!!!!!!!!!!!!!!!!!!!!!%@..        ",
"     .#.$-=-;>,'!!!!!!!!!!!!!!!!!!!!!!!!!!!!!!!!%@..                     .#.$-=-;>')!!!!!!!!!!!!!!!!!!!!!!!!!!!!!!!!%@..        ",
"     .#.$--=;>'!!!!!!!!!!!!!!!!!!!!!!!!!!!!!!!!!%@..                     .#.$--=>>,!!!!!!!!!!!!!!!!!!!!!!!!!!!!!!!!!%@..        ",
"     .#.$---;>,))!!!!!!!!!!!!!!!!!!!!!!!!!!!!!!!%@..                     .#.$---;>,))!!!!!!!!!!!!!!!!!!!!!!!!!!!!!!!%@..        ",
"     .#.$-==>>''!!!!!!!!!!!!!!!!!!!!!!!!!!!!!!!!%@..                     .#.$-=-;>''!!!!!!!!!!!!!!!!!!!!!!!!!!!!!!!!%@..        ",
"     .#.$---->')!!!!!!!!!!!!!!!!!!!!!!!!!!!!!!!!%@..                     .#.$-==;>')!!!!!!!!!!!!!!!!!!!!!!!!!!!!!!!!%@..        ",
"     .#.$-=-;>'!!!!!!!!!!!!!!!!!!!!!!!!!!!!!!!!!%@..                     .#.$-=-;>'!)!!!!!!!!!!!!!!!!!!!!!!!!!!!!!!!%@..        ",
"     .#.$--=;>,))!!!!!!!!!!!!!!!!!!!!!!!!!!!!!!!%@..                     .#.$-=-;>,'!!!!!!!!!!!!!!!!!!!!!!!!!!!!!!!!%@..        ",
"     .#.$-=->>,!!!!!!!!!!!!!!!!!!!!!!!!!!!!!!!!!%@..                     .#.$--=>>,!!!!!!!!!!!!!!!!!!!!!!!!!!!!!!!!!%@..        ",
"     .#.$---;>,)!!!!!!!!!!!!!!!!!!!!!!!!!!!!!!!!%@..                     .#.$---;>,)!!!!!!!!!!!!!!!!!!!!!!!!!!!!!!!!%@..        ",
"     .#.$-=-;>'')!!!!!!!!!!!!!!!!!!!!!!!!!!!!!!!%@..                     .#.$-=-;>''!!!!!!!!!!!!!!!!!!!!!!!!!!!!!!!!%@..        ",
"     .#.$-=-;>'!!!!!!!!!!!!!!!!!!!!!!!!!!!!!!!!!%@..                     .#.$--=;>''!!!!!!!!!!!!!!!!!!!!!!!!!!!!!!!!%@..        ",
"     .#.$-==>>''!!!!!!!!!!!!!!!!!!!!!!!!!!!!!!!!%@..                     .#.$-==>>'!!!!!!!!!!!!!!!!!!!!!!!!!!!!!!!!!%@..        ",
"     .#.$--=;>')!!!!!!!!!!!!!!!!!!!!!!!!!!!!!!!!%@..                     .#.$-=-;>,)!!!!!!!!!!!!!!!!!!!!!!!!!!!!!!!!%@..        ",
"     .#.$-=-;>'!)!!!!!!!!!!!!!!!!!!!!!!!!!!!!!!!%@..                     .#.$--=;>'!!!!!!!!!!!!!!!!!!!!!!!!!!!!!!!!!%@..        ",
"     .#.$---;>,'!!!!!!!!!!!!!!!!!!!!!!!!!!!!!!!!%@..                     .#.$---;>,))!!!!!!!!!!!!!!!!!!!!!!!!!!!!!!!%@..        ",
"     .#.$--=;>,!!!!!!!!!!!!!!!!!!!!!!!!!!!!!!!!!%@..                     .#.$-=-;>''!!!!!!!!!!!!!!!!!!!!!!!!!!!!!!!!%@..        ",
"     .#.$-=-;>'))!!!!!!!!!!!!!!!!!!!!!!!!!!!!!!!%@..                     .#.$--=;>')!!!!!!!!!!!!!!!!!!!!!!!!!!!!!!!!%@..        ",
"     .$.$-=->>,!!!!!!!!!!!!!!!!!!!!!!!!!!!!!!!!!%@..                     .#.$-=-;>,!)!!!!!!!!!!!!!!!!!!!!!!!!!!!!!!!%@..        ",
"     .#.$---;>,)!!!!!!!!!!!!!!!!!!!!!!!!!!!!!!!!%#..                     .$.$-=-;>,'!!!!!!!!!!!!!!!!!!!!!!!!!!!!!!!!%#..        ",
"     .$.$-=-;>''!!!!!!!!!!!!!!!!!!!!!!!!!!!!!!!!%$..                     .$.$--->>,!!!!!!!!!!!!!!!!!!!!!!!!!!!!!!!!!%$..        ",
"     .&.$-==;>'))!!!!!!!!!!!!!!!!!!!!!!!!!!!!!!!%&..                     .&.$--=;>,)!!!!!!!!!!!!!!!!!!!!!!!!!!!!!!!!%&..        ",
"     .*.#-=-;>'!!!!!!!!!!!!!!!!!!!!!!!!!!!!!!!!!#*..                     .*.#-=-;>''!!!!!!!!!!!!!!!!!!!!!!!!!!!!!!!!#*..        ",
"     .*.#-=-->,)!!!!!!!!!!!!!!!!!!!!!!!!!!!!!!!!$*..                     .*.#---;>'))!!!!!!!!!!!!!!!!!!!!!!!!!!!!!!!#*..        ",
"     .$$.--=>>''!!!!!!!!!!!!!!!!!!!!!!!!!!!!!!!!$$..                     .$$.-==;>'!!!!!!!!!!!!!!!!!!!!!!!!!!!!!!!!!$$..        ",
"     ..$..@@$$%$%%%%%%%%%%%%%%%%%%%%%%%%%%%%%##%*...                     ..$..@#$$%$%%%%%%%%%%%%%%%%%%%%%%%%%%%%%#$$*...        ",
"     .........@@@@@@@@@@@@@@@@@@@@@@@@@@@@#$***#....                     .........+@@@@@@@@@@@@@@@@@@@@@@@@@@@#$&**$....        ",
"     ...............................................                     ...............................................        ",
"     ...............................................                     ...............................................        ",
"                                                                                                                                ",
"                                                                                                                                ",
"                                                                                                                                ",
"                                                                                                                                ",
"                                                                                                                                ",
"                                                                                                                                ",
"                                                                                                                                ",
"                                                                                                                                "};
