/* XPM */
char * backview_xpm[] = {
"128 128 17 1",
" 	c None",
".	c #000000",
"+	c #1C2124",
"@	c #2A3745",
"#	c #3B3C3A",
"$	c #535553",
"%	c #60625F",
"&	c #5E7B9B",
"*	c #828481",
"=	c #76A1C9",
"-	c #87B5E3",
";	c #B1B3B0",
">	c #BCBFBB",
",	c #99CAFD",
"'	c #CED1CD",
")	c #DDDFDC",
"!	c #FBFEFA",
"                                                                                                                                ",
"                                                                                                                                ",
"                                                                                                                                ",
"                                                                                                                                ",
"                                                                                                                                ",
"                                                                                                                                ",
"                                                                                                                                ",
"                                                                                                                                ",
"                                                                                                                                ",
"                                                                                                                                ",
"                                        ........................................................................                ",
"                                       .........................................................................                ",
"                                       ........++#+##+##+###+#+###+#+##+#+##+##+##+#+##+#+##+##+####%*%$+.......                ",
"                                      ...##...........................................................#***$.....                ",
"                                     ...*$..............................................................#%%+....                ",
"                                    ...*%...@&&&&&&&&&&&&&&&&&&&&&&&&&&&&&&&&&&&&&&&&&&&&&&&&&&&&&&&&&&&.++.....                ",
"                                   ..#%%....@=========================================================&.........                ",
"                                  ..%%+.....@==&=====================================================&..........                ",
"                                 ..*#..+....@=============-====-===-====-====-=-=-=-===========-====&.##........                ",
"                                .+*...#*....@&=&===-------=----------------==-=-=-=----------------&.#*...++....                ",
"                               .+*...#)%....@====--------------------------,,--,-,--,-------------=..*...+=+....                ",
"                              ..*...#'>%....@=&==---,,,,,,,,,,,,,,,,-,,,,,,,-,,-,-,-,-,,,,,,,,,-,=..*...+==+....                ",
"                             .+*...#)>>%....@====--,,,,,,,,,-,,,-,-,,,,-,,,,,-,,,,,,,,,,,,,,,,,,=..&...+===@....                ",
"                            .+*...#'''>%.+..@===---,-,,-,,,,,,,,,,,,,,,,,,,,,,,,,,,,,,,,,,,,,,-=..*...+=-==+....                ",
"                           .+*...#'';>>%.#..@===--,,,,,,,,,,,,,,,,,,,,,,,,,,,,,,,,,,,,,,,,,,,,=..*...+-====+.+..                ",
"                          ..*...@''>>;'%.#..@====--,,,,,,,,,,,,,,,,,,,,,,,,,,,,,,,,,,,,,,,,,,=..*...+=-====+.#..                ",
"                         .+*...#'>>>;>>&.#..@===--,,,,,,,,,,,,,,,,,,,,,,,,,,,,,,,,,,,,,,,,,,=..*...+=-=====+.#..                ",
"                        .+*...#''>;>>>'*.$..@====-,-,,,,,,,,,,,,,,,,,,,,,,,,,,,,,,,,,,,,,,,=..*...+========@.#..                ",
"                       .+*...#''>>;>>)'*.#..@===---,,,,,,,,,,,,,,,,,,,,,,,,,,,,,,,,,,,,,,,=..*...+=-==&==--+.#..                ",
"                      .+*...#''>>->>)))*.#.+@===--,,,,,,,,,,,,,,,,,,,,,,,,,,,,,,,,,,,,,,,=..*...@========--@.#..                ",
"                     .+*...#'';>>>>))))*.#..@====--,,,,,,,,,,,,,,,,,,,,,,,,,,,,,,,,,,,,,=..*...+=-=====---,@.#..                ",
"                    ..*...#'>>;>>>')))!*.#..@===--,,,,,,,,,,,,,,,,,,,,,,,,,,,,,,,,,,,,,=..*...+========----@.#..                ",
"                   .+*...#'';>>;''))!!!*.$..@-==---,,,,,,,,,,,,,,,,,,,,,,,,,,,,,,,,,,,=..*...+=======-=-,,,@.#..                ",
"                  .+*...#''>>;>>')))!!!*.#..@====-,,,,,,,,,,,,,,,,,,,,,,,,,,,,,,,,,,,=..*...@=-======---,,-@.#..                ",
"                 .+*...#'';>->>)))!!)!!*.$..@===--,,,,,,,,,,,,,,,,,,,,,,,,,,,,,,,,,,=..*...+====&==---,,-,,@.#..                ",
"                ..*...#'>>;>>',)))!!!!!*.#.+@====--,,,,,,,,,,,,,,,,,,,,,,,,,,,,,,,,=..*...+====-===---,,,,,@.#..                ",
"               .+*...#'>>>>>>'))!!)!!!!*.#..@===--,,,,,,,,,,,,,,,,,,,,,,,,,,,,,,,,=..*...+=-==&==-=-,,,,,,,@.#..                ",
"              ..*...#''>>;>>))))!!!!!!!*.$..@====--,,,,,,,,,,,,,,,,,,,,,,,,,,,,,,=..*...+=-======--,-,,,,,-@.#..                ",
"             ..*...#'>>>>>>'))!!!!!!!!!*.%..@-==--,,,,,,,,,,,,,,,,,,,,,,,,,,,,,,=..*...+-======---,,,,,,,,,@.#..                ",
"            ..#$..#''>>;>>))))!!!!!!!!!*+*..@====-,,,,,,,,,,,,,,,,,,,,,,,,,,,,,=..*...@========--,-,,,,,,,,@.#..                ",
"           ..+*..#'>>>->>))))!!!!!!!!!!*.*..@===---,,,,,,,,,,,,,,,,,,,,,,,,,,,=..*...+====&==-=-,,,,,,,,,,,@.#..                ",
"          ...*#.@''>>;>>),))!!!!!!!!!!!*@*.+@===--,,,,,,,,,,,,,,,,,,,,,,,,,,,=..*...+=-======--,-,,,,,,,,,,@.#..                ",
"        ....*%..+++++++++#@+@@+@+#+#+#++$*...@+++++@+@@@@@@@@@@@@@@@@@@@@@@@+.+*...+-======---,,,,,,,,,,,,,@.#..                ",
"       ....%%........................#%%*%+..................................+#...+========--,-,,,,,,,,,,,,@.#..                ",
"        ..+$.........+#+#+##+##+###$%*%%$#.......+#+#+##+##+#+##+##+####%****#...+=======---,,,,,,,,,,,,,,,@.#..                ",
"        ..+................................................................##...+========--,-,,,,,,,,,,,,,-@.#..                ",
"        ........................................................................&=======---,,,,,,,,,,,,,,,,@.#..                ",
"        ....#;***********;***;**;***;**$....@&&&&&&&&&&&&&&&&&&&&&&&&&&&&&&+....&==&===--,,,,,,,,,,,,,,,,,,@.#..                ",
"        ....#>;;;;;>>>'>>;>'>;>>;>'>;>'%....@=&============================+....&&===----,,-,,,,,,,,,,,,,,,@.#..                ",
"        ....$>;;;;;;;>>>>>>>>>>>>>;>>>>%....@=&=&==========================@....&=====-,,,,,,,,,,,,,,,,,,,,@.#..                ",
"        .+..#>;;;>>>>>>'>>>>>'>>'>>>>>'%....@=============-====-=====-=-===+....&&===---,,,,,,,,,,,,,,,,,,,@.#..                ",
"        .#..@>;;>>')))))))))'))))))))))*.+..@=&====------------------=----=@.+..&===--,,,,,,,,,,,,,,,,,,,,,@.#..                ",
"        .#..$>>>>))))))))))))))))))))))*.#..@=====-------------------------@.#..&&==---,,,,,,,,,,,,,,,,,,,,@.#..                ",
"        .#..@>>->))))!!)!!!)!!!!)!!!!)!*.#..@====---,,,,,,-,,,,,,,,,,,,,,,-@.#..&===--,,,,,,,,,,,,,,,,,,,,,@.#..                ",
"        .#..$>>>'))!!!!!!!!!!)!!!!)!!!!*.#..@===---,,,,,-,,,,-,,,,,,,-,,-,,@.#..&===---,,,,,,,,,,,,,,,,,,,,@.#..                ",
"        .$..@>>>)))!!!!!!!!!!!!!!!!!!!!*.$..@====-,-,,,,,,,,,,,,,,,,,,,,,,,@.#..&===--,,,,,,,,,,,,,,,,,,,,-@.#..                ",
"        .#..$>>>)))!!!!!!!!!!!!!!!!!!!!*.#..@===--,,,,,,,,,,,,,,,,,,,,,,,,,@.#..&===--,,,,,,,,,,,,,,,,,,,,,@.#..                ",
"        .#..@>>>')!)!!!!!!!!!!!!!!!!!!!*.$..@====---,,,,,,,,,,,,,,,,,,,,,,-@.#..&===--,,,,,,,,,,,,,,,,,,,,,@.#..                ",
"        .#..$>>>,))!!!!!!!!!!!!!!!!!!!!*.#..@-==--,,,,,,,,,,,,,,,,,,,,,,,,,@.#..&===--,,,,,,,,,,,,,,,,,,,,,@.#..                ",
"        .$..@>>>))!!!!!!!!!!!!!!!!!!!!!*.$..@===---,,,,,,,,,,,,,,,,,,,,,,,,@.#..&===--,,,,,,,,,,,,,,,,,,,,,@.#..                ",
"        .#..$>>>'))!!!!!!!!!!!!!!!!!!!!*.#..@===---,,,,,,,,,,,,,,,,,,,,,,,,@.#..&&-=--,,,,,,,,,,,,,,,,,,,,,@.#..                ",
"        .#..@>>>'))!!!!!!!!!!!!!!!!!!!!*.#.+@===---,,,,,,,,,,,,,,,,,,,,,,,-@.#..&===--,,,,,,,,,,,,,,,,,,,,,@.#..                ",
"        .$..$>>>))!!!!!!!!!!!!!!!!!!!!!*.#..@====-,,,,,,,,,,,,,,,,,,,,,,,,,@.#..&===--,,,,,,,,,,,,,,,,,,,,,@.#..                ",
"        .#..@>>>'))!!!!!!!!!!!!!!!!!!!!*.#..@===---,,,,,,,,,,,,,,,,,,,,,,,,@.#..&===--,,,,,,,,,,,,,,,,,,,,,@.#..                ",
"        .#..$>>>)))!!!!!!!!!!!!!!!!!!!!*.$..@===--,,,,,,,,,,,,,,,,,,,,,,,,,@.#..&===--,,,,,,,,,,,,,,,,,,,,,@.#..                ",
"        .$..@;>>'))!!!!!!!!!!!!!!!!!!!!*.#..@===-=,,,,,,,,,,,,,,,,,,,,,,,,,@.#..&===--,,,,,,,,,,,,,,,,,,,,,@.#..                ",
"        .#..$>>>)))!!!!!!!!!!!!!!!!!!!!*.$..@-===-,,,,,,,,,,,,,,,,,,,,,,,,,@.#..&===--,,,,,,,,,,,,,,,,,,,,,@.#..                ",
"        .#..@>;>))!!!!!!!!!!!!!!!!!!!!!*.#..@===---,,,,,,,,,,,,,,,,,,,,,,,,@.#..&===--,,,,,,,,,,,,,,,,,,,,-@.#..                ",
"        .$..$>>>'))!!!!!!!!!!!!!!!!!!!!*.@..@===--,,,,,,,,,,,,,,,,,,,,,,,,,@.#..&===--,,,,,,,,,,,,,,,,,,,,,@.#..                ",
"        .#..@>->'))!!!!!!!!!!!!!!!!!!!!*.$.+@====-,,,,,,,,,,,,,,,,,,,,,,,,,@.#..&===-,,,,,,,,,,,,,,,,,,,,,,@.#..                ",
"        .#..$>>>)))!!!!!!!!!!!!!!!!!!!!*.#..@===---,,,,,,,,,,,,,,,,,,,,,,,,@.#..&===--,,,,,,,,,,,,,,,,,,,,,@.#..                ",
"        .#..$>>;))!!!!!!!!!!!!!!!!!!!!!*.#..@====-,,,,,,,,,,,,,,,,,,,,,,,,,@.#..&===--,,,,,,,,,,,,,,,,,,,,,@.#..                ",
"        .$..#>>>'))!!!!!!!!!!!!!!!!!!!!*.$..@-==---,,,,,,,,,,,,,,,,,,,,,,,,@.#..&===--,,,,,,,,,,,,,,,,,,,,,@.#..                ",
"        .#..@>>>)))!!!!!!!!!!!!!!!!!!!!*.#..@====-,,,,,,,,,,,,,,,,,,,,,,,,-@.#..&===-,,,,,,,,,,,,,,,,,,,,,,@.#..                ",
"        .#..$>>-))!!!!!!!!!!!!!!!!!!!!!*.#..@===--,,,,,,,,,,,,,,,,,,,,,,,,,@.#..&===--,,,,,,,,,,,,,,,,,,,,,@.#..                ",
"        .$..$>>>>))!!!!!!!!!!!!!!!!!!!!*.#.+@====-,,,,,,,,,,,,,,,,,,,,,,,,,@.#..&===--,,,,,,,,,,,,,,,,,,,,,@.#..                ",
"        .#..#>>>'))!!!!!!!!!!!!!!!!!!!!*.$..@===--,,,,,,,,,,,,,,,,,,,,,,,,,@.#..&===--,,,,,,,,,,,,,,,,,,,,,@.#..                ",
"        .#..$>>>)))!!!!!!!!!!!!!!!!!!!!*.$..@====--,,,,,,,,,,,,,,,,,,,,,,,,@.$..&===-,,,,,,,,,,,,,,,,,,,,,,@.#..                ",
"        .#..#>>>)))!!!!!!!!!!!!!!!!!!!!*.$..@-==--,,,,,,,,,,,,,,,,,,,,,,,,,@.%..&===--,,,,,,,,,,,,,,,,,,,,,@+#..                ",
"        .#..@>>>)))!!!!!!!!!!!!!!!!!!!!*.%..@==-=-,,,,,,,,,,,,,,,,,,,,,,,,-@#*..&====,,,,,,,,,,,,,,,,,,,,,,+$#..                ",
"        .$..$>>>)))!!!!!!!!!!!!!!!!!!!!*.%#.@===--,,,,,,,,,,,,,,,,,,,,,,,,,@$%..&===--,,,,,,,,,,,,,,,,,,,,,@*...                ",
"        .#..@>>>)))!!!!!!!!!!!!!!!!!!!!*.%%.+&&@&&&&&&&=&=&=&=&&=&&&&&&&&&&+%%..@&@&&&&&&=&=&=&&=&&&&&&&&&&+*...                ",
"        .#..$>>>')!!!!!!!!!!!!!!!!!!!!!$.*%...............................+%*%.............................$#...                ",
"        .$..@>-;)))!!!!!!!!!!!!!!!!!!!*.+%......+##$#$##########$#$#$#$%*****#......+##$####$###$#$#$##++#%*....                ",
"        .#..$>>>)))!!!!!!!!!!!!!!!!!!*..%............................................................#*****.....                ",
"        .#..#>>>'))!!!!!!!!!!!!!!!!!*.+*...............................................................+$$......                ",
"        .#..$>>>))!!!!!!!!!!!!!!!!!*.+*...+#########$#$$#$$$##$#$#$##$#$#$#+....######$#$#$#$##$#$#$#$##+.......                ",
"        .$..@>>>'))!!!!!!!!!!!!!!!*.+*...#'>>;;>>>>>>>;>;>;>'>>>>>>>>;>>>;>+....*;;;;;>>>>>>>'>>>;>>>>>#.......                 ",
"        .#..$>>>)))!!!!!!!!!!!!!!*.+*...#'>>;;;;;>>;>>>>>>>>>;>>>>>>>>>>>>>+....*;;;;;>>>>>;>;>>>>>;>;@.......                  ",
"        .#..@>>>'))!!!!!!!!!!!!!*.+*...#'>>>;>;>>>>>'>>>>>>>>>>>>>>>>>>>>>>#....*;;;;>>>>>>>>>>>'>>>;#+#.....                   ",
"        .#..$>>>')!!!!!!!!!!!!!*.+*...#'>>>;>>>>)'''')'')'')'))''))'')')')'+....*;;;;>''')'')')'')''@.%.....                    ",
"        .$..@>->)))!!!!!!!!!!!*.+*...#''>>>>>'))))))))))))))))))))))))))'))#.#..&;;>>')))))))))))))#.%#....                     ",
"        .#..$>>>)))!!!!!!!!!!*.+*...#'>>>>>>'))))))!)!)))!))!)))))!))!))!))+.#..*;>>')))))!))))!))@.%%...                       ",
"        .#..#>>>'))!!!!!!!!!*.+*...#''>>;>>),))!!!!!!!!!!!!!!!!!!!!!!!!!!!!#.#..*>>>)))!!!!!!!)!!#.$%...                        ",
"        .#..$>>>))!!!!!!!!!*.+*...#'';>->>)))!!!)!!!!!!!!!!!!!!!!!!!!!!!!!!+.#..*>;-)))!!!!!!!!!@.%$...                         ",
"        .$..@>;>)))!!!!!!!*.+*...#'>>;>>>')))!!!!!!!!!!!!!!!!!!!!!!!!!!!!!!#.#.+*>>>))!!!!!!!!!#.$%...                          ",
"        .#..$>>>'))!!!!!!*.+*...#'>>>;>>'))!!!!!!!!!!!!!!!!!!!!!!!!!!!!!!!!#.#..*>>>))!!!!!!!!#.$%...                           ",
"        .#..@>->')!!!!!!*.+*...#''>>>>>)))!)!!!!!!!!!!!!!!!!!!!!!!!!!!!!!!!#.#..*>>>)))!!!!!!#.$%...                            ",
"        .$..$>>>)))!!!!*.+*...#'>>;>>>')))!!!!!!!!!!!!!!!!!!!!!!!!!!!!!!!!!#.#..*'>,))!!!!!!#.%%...                             ",
"        .#..#>>>'))!!!*.+*...#''>->>',))!!!!!!!!!!!!!!!!!!!!!!!!!!!!!!!!!!!#.#.+*>>>)))!!!!#.%%...                              ",
"        .#..$>>>'))!!*.+*...#'>>>;>>')))!)!!!!!!!!!!!!!!!!!!!!!!!!!!!!!!!!!#.#..*>>>))!!!!#.%$...                               ",
"        .$..@>>>)))!*.+*...#''>>>>>)))!!!!!!!!!!!!!!!!!!!!!!!!!!!!!!!!!!!!!#.@..*;'>)))!!@.%$...                                ",
"        .#..$>>>))!*.+*...#'>>>;>>'))!)!!!!!!!!!!!!!!!!!!!!!!!!!!!!!!!!!!!!@.#..*>>>))!!#.$%...                                 ",
"        .#..@>->')*.+*...#''>;>>>))))!!!!!!!!!!!!!!!!!!!!!!!!!!!!!!!!!!!!!!#.#.+&>'>)))@.%$...                                  ",
"        .$..$>>>'&.+*...#''>>>>>,))!!!!!!!!!!!!!!!!!!!!!!!!!!!!!!!!!!!!!!!!#.#..*>>'))@.%%...                                   ",
"        .$..#>>>*.+*...#''>>;;')))!)!!!!!!!!!!!!!!!!!!!!!!!!!!!!!!!!!!!!!!!#.$..&>;>)#.%%...                                    ",
"        .#@.$>>*.#*...#'>;;->>')))!!!!!!!!!!!!!!!!!!!!!!!!!!!!!!!!!!!!!!!!!+.%..*'>>@.$%...                                     ",
"        .#%.@>%.$*...@'''>>>>)))!!!!!!!!!!!!!!!!!!!!!!!!!!!!!!!!!!!!!!!!!!!#.%.+*;;#.%$...                                      ",
"        .+*.$%.##...#'>;>>>>'))!)!!!!!!!!!!!!!!!!!!!!!!!!!!!!!!!!!!!!!!!!!!#.*#.*>@+*$...                                       ",
"        ..*$@......#')>>;>>))))!!!!!!!!!!!!!!!!!!!!!!!!!!!!!!!!!!!!!!!!!!!!#.%%.*#.$+...                                        ",
"        ..%*......#>>>;>>>')))!!!!!!!!!!!!!!!!!!!!!!!!!!!!!!!!!!!!!!!!!!!!!#.$*.@......                                         ",
"        ..#*#....#>>>>>>-)))!!!!!!!!!!!!!!!!!!!!!!!!!!!!!!!!!!!!!!!!!!!!!!!#.$*+......                                          ",
"        ...%+...#;>;>>>>))))!!!!!!!!!!!!!!!!!!!!!!!!!!!!!!!!!!!!!!!!!!!!!!!#.%*......                                           ",
"        ...#...+%%%&$&*%*&**&**********************************************+$*.......                                           ",
"        .................................................................+$*$.......                                            ",
"        ............+#####$##$##$#$#$##$#$##$##$#$#$#$#$#$#$#$#$#$##$#$%*%#........                                             ",
"        ..........................................................................                                              ",
"        .........................................................................                                               ",
"        ........................................................................                                                ",
"                                                                                                                                ",
"                                                                                                                                ",
"                                                                                                                                ",
"                                                                                                                                ",
"                                                                                                                                ",
"                                                                                                                                ",
"                                                                                                                                ",
"                                                                                                                                ",
"                                                                                                                                "};
