/* XPM */
char * bean_xpm[] = {
"128 128 17 1",
" 	c None",
".	c #000000",
"+	c #320201",
"@	c #520001",
"#	c #6C0000",
"$	c #7F0000",
"%	c #1D1E1B",
"&	c #2D2E2C",
"*	c #8B1617",
"=	c #5B2628",
"-	c #3B3C39",
";	c #973433",
">	c #535452",
",	c #AB5756",
"'	c #6E706D",
")	c #C28485",
"!	c #D6ACAB",
"                                                                                                                                ",
"                                                                                                                                ",
"                                                                                                                                ",
"                                                                                                                                ",
"                                                                                                                                ",
"                                                                                                                                ",
"                                                                                                                                ",
"                                                                                                                                ",
"                                                                                                                                ",
"                                                                                                                                ",
"                                                                                                                                ",
"                                                                                                                                ",
"                                                                                                                                ",
"                                                                                                                                ",
"                                                                                                                                ",
"                                                                                                                                ",
"                                                                                                                                ",
"                                                                                                                                ",
"                                                                                                                                ",
"                                                                                                                                ",
"                                                                                                                                ",
"                                                                                                                                ",
"                                                                                                                                ",
"                                                                                                                                ",
"                                                                                                                                ",
"                                                                                                                                ",
"                                                                                                                                ",
"                                                                                                                                ",
"                                                                                                                                ",
"                                                                                                                                ",
"                                                                                                                                ",
"                                                                                                                                ",
"                                                                                                                                ",
"                                                                                                                                ",
"                                                      %%%%%%%.%.%........                                                       ",
"                                                %&&->>>>''''>'>>>>>>>----&%....                                                 ",
"                                            &-->'''>>--%...............%&->>--%....                                             ",
"                                         ->>'''>-%...........................%&--&%...                                          ",
"                                      ->>'''-.....................................&-&%...                                       ",
"                                    >''''-...........                     ...........%-%...                                     ",
"                                 ->'''>.........                               .........&%....                                  ",
"                                ''''%.......                                       .......%%...                                 ",
"                              >'''.......                                             .......%...                               ",
"                            >'''%.....                                                  .......%...                             ",
"                           >''>.....                                                       .....%...                            ",
"                         -'''.....                                                           ........                           ",
"                        -''>....                                                               ....%...                         ",
"                       -''&....                                                                 ........                        ",
"                      -''%...                                                                     .......                       ",
"                     -''....                                                                       .......                      ",
"                    &>'%...                                                                         .......                     ",
"                    >'%...                                                                           ......                     ",
"                   %&....                                                                             ......                    ",
"                  @++...                                                                               ..%+@@#                  ",
"              ;;**$$$#@@                                                                               ==;**$$$$#               ",
"            ;,,,),;*$$###                                                                             ;;,),,,*$$#$#             ",
"           ;,))!!!),;$$##@                                                                           ;,))!!)),;$$#$#            ",
"          ;;,!!!!))),*$$$#@                                                                         ;;,!!!!)),,*$####           ",
"          *,)!!!,,;;;;$$$##                                                                         *,!!!!,,;;;;$$###           ",
"         $*,!!),**$$$*$$$##@                                                                       $*,!!);**$*$*$$$##@          ",
"         $*,));*$$$$$$$$$###                                                                       $*,));**$$$$$$$$###          ",
"         $$,),**$$$$$$$$####=.                                                                    @$*,),*$$$$$$$$$$##@@         ",
"        $$$;,;$$$$$$$$$$$##@=>-%&&&&&&&&&&&&&&&&&&&&&&&&&&&&&&&&&&&&&&&&&&&&&&&&&&&&&&&&&&&&&&&&%.+$$;,;*$$$$$$$$$###@@         ",
"        #$**,*$$$$$$$$$$$#@#=>>>>>>>>>>>>>>>>>>>>>>>>>>>>>>>>>>>>>>>>>>>>>>>>>>>>>>>>>>>>>>>>>>>-.@$$;;*$$$$$$$$$$$##@@         ",
"        ##$$**$$*$$$$$$$$##@+.....................................................................+#$$;*$$$*$$$$$$$##@@         ",
"         #$*$*$$$$$$$$$$###@+.....................................................................+$$$$*$$$$$$$$$$##@@+         ",
"         ##$$$$$$$*$$$$$#@#@......................................................................+##$$$$$$$$$$$$$###@          ",
"         ###$$$$$$$$$$$##@@@                                                                       @##$$$$$*$$$$$##@@@          ",
"          ####$$$$$$$$###@@+                                                                       @###$$$$$$$$####@@+          ",
"          #######$$####@@@@                                                                         @@###$##$####@@@@           ",
"           @##########@@@@                                                                           #@#########@@@+            ",
"            @@@#@#@#@@@@@                                                                             @@@@#@#@@@@@@             ",
"              @@@@@@@@++                                                                               @@@#@@@#@++              ",
"                @@++=...                                                                                ->++++++                ",
"                  ......                                                                               ->-...                   ",
"                   ......                                                                             -'>...                    ",
"                   .......                                                                           -''...                     ",
"                    .......                                                                         >''....                     ",
"                     .......                                                                       >''....                      ",
"                      .......                                                                     >''....                       ",
"                       ........                                                                 -')'....                        ",
"                        ....%...                                                               >''-....                         ",
"                         .........                                                           >>''....                           ",
"                           ....%....                                                       -'''-....                            ",
"                            .....%....                                                  -->'''.....                             ",
"                              .....%%....                                             ->'''>.....                               ",
"                               ......%&%....                                       &->'''-.....                                 ",
"                                 .......&-%.....                               %&->'''>.......                                  ",
"                                   .......%&-&%%.....                     %&&->''''>%.......                                    ",
"                                      ........%---&%%................%%-->>'''>>&........                                       ",
"                                        ...........%&->>>>'>>>>>>>>>>>>'''>-%..........                                         ",
"                                           ...............%%&%%%%.%................                                             ",
"                                                ...............................                                                 ",
"                                                     ....................                                                       ",
"                                                                                                                                ",
"                                                                                                                                ",
"                                                                                                                                ",
"                                                                                                                                ",
"                                                                                                                                ",
"                                                                                                                                ",
"                                                                                                                                ",
"                                                                                                                                ",
"                                                                                                                                ",
"                                                                                                                                ",
"                                                                                                                                ",
"                                                                                                                                ",
"                                                                                                                                ",
"                                                                                                                                ",
"                                                                                                                                ",
"                                                                                                                                ",
"                                                                                                                                ",
"                                                                                                                                ",
"                                                                                                                                ",
"                                                                                                                                ",
"                                                                                                                                ",
"                                                                                                                                ",
"                                                                                                                                ",
"                                                                                                                                ",
"                                                                                                                                ",
"                                                                                                                                ",
"                                                                                                                                ",
"                                                                                                                                ",
"                                                                                                                                ",
"                                                                                                                                ",
"                                                                                                                                ",
"                                                                                                                                ",
"                                                                                                                                ",
"                                                                                                                                "};
