/* XPM */
char * bottomview_xpm[] = {
"128 128 17 1",
" 	c None",
".	c #000000",
"+	c #1E201E",
"@	c #30322F",
"#	c #2B3A49",
"$	c #414341",
"%	c #565855",
"&	c #666865",
"*	c #587594",
"=	c #868885",
"-	c #76A1CA",
";	c #B1B3B0",
">	c #BDBFBC",
",	c #96C7F9",
"'	c #CFD1CE",
")	c #DEE0DD",
"!	c #FCFEFB",
"                                                                                                                                ",
"                                                                                                                                ",
"                                                                                                                                ",
"                                                                                                                                ",
"                                                                                                                                ",
"                                                                                                                                ",
"                                                                                                                                ",
"                                                                                                                                ",
"                                                                                                                                ",
"                                                                                                                                ",
"                                        ........................................................................                ",
"                                       .........................................................................                ",
"                                       ........+++@@@@@@@@@@@@@@@@@@@@@@@@@@@@@@@@@@@@@@@@@@@@@@@@$%&&&$+.......                ",
"                                      ...$@...........................................................$==&%.....                ",
"                                     ...&%..............................................................$&&+....                ",
"                                    ...=&...$===;===================================================;==&.++.....                ",
"                                   ..@&&....$>>;;>'>'>'>'>'>'>'>'>'>'>'>'>'>'>'>'>'>'>'>'>'>'>'>'>>>;>=.........                ",
"                                  ..&&+.....$;;;;;;>>>;';>>>;>>>;>>>;>>>>>>>;>>>;>>>;>>>;';>>>;>>>>>>=.+........                ",
"                                 ..=$..+....$;;;;>>>>'>>>>>'>'>'>>>'>>>>>>'>>>>'>>>''>>'>>>>>'>>>>>'=.@@........                ",
"                                .+=...$&....#;;;>>'''')'))'''''')')'')'))''')')')')''')'')')''))')';.#&...++....                ",
"                               .+=...$'=....$;;;''')))))))))))))))))))))))))))))))))))))))))))))));..=...+;+....                ",
"                              .+&...$'>&....$-;;'))!)!!!!!!!!!!!!!!!!!!!!!!!!!!!!)!!!!!!!!!!!!!)!;..=...+>>+....                ",
"                             .+=...$'>>&....$>;>'')!!!)!!)!!!)!!!)!)!)!!!)!!!)!!!!!!!)!)!)!!!)!!;..=...+''>+....                ",
"                            ..=...$>'';&.+..$;>>,)!)!!!!!!!!!!!!!!!!!!!!!!!!!!!!!!!!!!!!!!!!!!!>..=...+>'>>+....                ",
"                           .+=...$'';>;&.@..$>;''))!!!!!!!!!!!!!!!!!!!!!!!!!!!!!!!!!!!!!!!!!!!>..=...+''>>>+.+..                ",
"                          .+=...#''>;>>&.$..$;>>'))!!!!!!!!!!!!!!!!!!!!!!!!!!!!!!!!!!!!!!!!!!>..=...+>'>;>>+.@..                ",
"                         .+&...$'>;>>;'&.$..$;>''))!!!!!!!!!!!!!!!!!!!!!!!!!!!!!!!!!!!!!!!!!;..=...+'';>>>'+.@..                ",
"                        .+=...@''>>>;''&.$..#>>;'))!!!!!!!!!!!!!!!!!!!!!!!!!!!!!!!!!!!!!!!!>..=...+'>>;>;>'@.@..                ",
"                       .+&...$''>;;>>')&.$..%>>>')!!!!!!!!!!!!!!!!!!!!!!!!!!!!!!!!!!!!!!!!>..=...+>''>;>>''#.@..                ",
"                      .+=...#''>;>>>'))=.$..#>;''))!!!!!!!!!!!!!!!!!!!!!!!!!!!!!!!!!!!!!!>..=...+'>>>->>'')@.@..                ",
"                     .+&...$'>;>>,>'))!=.$..%>>;'))!!!!!!!!!!!!!!!!!!!!!!!!!!!!!!!!!!!!!;..=...+''>>;>'')))@.@..                ",
"                    .+=...$>'>;>;>'))!!=.#..#>;''))!!!!!!!!!!!!!!!!!!!!!!!!!!!!!!!!!!!!;..=...#>'>;>>>'')!!@.$..                ",
"                   .+&...$''>>;>'''))!!=.$..$';''))!!!!!!!!!!!!!!!!!!!!!!!!!!!!!!!!!!!;..=...+>>;>>>'''))!)#.@..                ",
"                  .+=...#'';>>>>'))!)!!=.$..#;>>)))!!!!!!!!!!!!!!!!!!!!!!!!!!!!!!!!!!>..=...+>''>>;>'')!!!!@.@..                ",
"                 .+&...$'>>>;>>'))!!!!!=.$..%>;''))!!!!!!!!!!!!!!!!!!!!!!!!!!!!!!!!!;..=...+'';;;,>')))!)!!@.@..                ",
"                .+=...$''>;,>>'))!)!!!!=.$..#;>>''!!!!!!!!!!!!!!!!!!!!!!!!!!!!!!!!!>..=...+>'>>>>>')))!!!!!@.@..                ",
"               .+&...$>';>;>>'))!)!!!!!=.$..%>>''))!!!!!!!!!!!!!!!!!!!!!!!!!!!!!!!;..=...+''>;;>>'')!!!!!!!@.@..                ",
"              ..=...$'>>;>>>),))!!!!!!!=.%..#;;>'))!!!!!!!!!!!!!!!!!!!!!!!!!!!!!!;..=...+>>>>;>>'))!)!!!!!!@.@..                ",
"             ..&+..$>'>>>;''))!!!!!!!!!=.&..%>>''))!!!!!!!!!!!!!!!!!!!!!!!!!!!!!>..=...+''>>>>>''))!!!!!!!!@.#..                ",
"            ..$%..#'';>;>>')))!!!!!!!!!=.=..#>>;'))!!!!!!!!!!!!!!!!!!!!!!!!!!!!;..=...+'>>;,;>),))!!!!!!!!!@.@..                ",
"           ..+&..$'>>>>>>'')!!!!!!!!!!!=.=..$>>'')!!!!!!!!!!!!!!!!!!!!!!!!!!!!;..=...+''>>;>>'))!!!!!!!!!!!@.@..                ",
"          ...&$.@'>';;;''))!)!!!!!!!!!!=+=..#>;>'))!!!!!!!!!!!!!!!!!!!!!!!!!!>..=...#>'>>;>>'))!)!!!!!!!!!!@.$..                ",
"        ....=&..@++#.#+#+#+#+#+@+@+@+@@+&&..++#+#+++++@@+@@@+@+@+@@@@@+@@@+@+..=...+>';>>;'''))!!!!!!!!!!!!@.@..                ",
"       ....&&.......................+#%&=&+..................................+$...+>>>>;>>')))!!!!!!!!!!!!!@.@..                ",
"        ..+$.........++@@@@@@@@@@@$$&&&%%#.......+@@@@@@@@@@@@@@@@@@@@@$&===&%...+''>>>,>'')!!!!!!!!!!!!!!!@.@..                ",
"        ..@................................................................@$...+>>>>;;>'))!)!!!!!!!!!!!!!!@.@..                ",
"        ........................................................................=>>;;>>''))!!!!!!!!!!!!!!!!@.@..                ",
"        ....$=======================;==%....@=====;==================;=====+....=;;;>'')))!!!!!!!!!!!!!!!!!@.@..                ",
"        ....$>>;;;;;;>>>'>'>'>'>'>'>>>>&....$;;;;;;>'>'>'>'>'>'>'>'>>;>'>'>+....=;;;;'')!!!!!!!!!!!!!!!!!!!@.#..                ",
"        ....$;;;;;;>>;>>>>>>;>>>;>>>;>>&....$;;;;;;>;>>>>>>>;>>>;>>>;'>;>>>+....=->;,')))!!!!!!!!!!!!!!!!!!@.@..                ",
"        .+..%;;;;;>>>>>>'>>'>>>''>>'>>>&....$;;;;;>'>>>>>>'>>>>'>>>'>>'>>'>@....=;;>'))!!!!!!!!!!!!!!!!!!!!@.@..                ",
"        .$..#>;;;'''')')'''''')''''''))&.+..$-;;;'''')'))''')')')')''''''')+.+..=;>>'))!!!!!!!!!!!!!!!!!!!!@.@..                ",
"        .$..$>;>>')))))))))))))))))))))=.$..$;;>>''))))))))))))))))))))))))@.@..=>>'')!)!!!!!!!!!!!!!!!!!!!@.@..                ",
"        .$..#>>>''))!!!!!!!!!!!!!!!!!!!=.$..$;>;')))!!!!!!!!!!!!!!!!!!!!!!!@.@..=>;>))!!!!!!!!!!!!!!!!!!!!!@.$..                ",
"        .$..%>;',))!)!!!!!)!!)!)!!)!!)!=.$..$>>>,))!)!!)!)!!!)!)!)!!!)!)!)!@.@..=>'>')!)!!!!!!!!!!!!!!!!!!!@.@..                ",
"        .$..#;>>'))!!!!!!!!!!!!!!!!!!!!=.$..#>>>'))!!!!!!!!!!!!!!!!!!!!!!!!@.@..*;;'')!!!!!!!!!!!!!!!!!!!!!@.@..                ",
"        .$..%>>>')!)!!!!!!!!!!!!!!!!!!!=.$..%>>'')!!!!!!!!!!!!!!!!!!!!!!!!!@.#..=';'')!)!!!!!!!!!!!!!!!!!!!@.@..                ",
"        .$..#>;''))!!!!!!!!!!!!!!!!!!!!=.$..#>;>'))!!!!!!!!!!!!!!!!!!!!!!!!@.@.+*>>>)))!!!!!!!!!!!!!!!!!!!!@.@..                ",
"        .$..%>>>')!!!!!!!!!!!!!!!!!!!!!=.$..%>>>'))!!!!!!!!!!!!!!!!!!!!!!!!@.@..='>>')!!!!!!!!!!!!!!!!!!!!!@.#..                ",
"        .$..#>;''))!!!!!!!!!!!!!!!!!!!!=.$..#>;>'))!!!!!!!!!!!!!!!!!!!!!!!!@.@..=>;'))!!!!!!!!!!!!!!!!!!!!!@.@..                ",
"        .$..$>>>''!)!!!!!!!!!!!!!!!!!!!=.$..$'>''))!!!!!!!!!!!!!!!!!!!!!!!!@.$..=>>'')!)!!!!!!!!!!!!!!!!!!!@.@..                ",
"        .$..#>>>'))!!!!!!!!!!!!!!!!!!!!=.$..#;;>'))!!!!!!!!!!!!!!!!!!!!!!!!@.@..*>;>')!!!!!!!!!!!!!!!!!!!!!@.@..                ",
"        .$..%;>'')!)!!!!!!!!!!!!!!!!!!!=.$..%>>>')!!!!!!!!!!!!!!!!!!!!!!!!!@.@..='>'')!)!!!!!!!!!!!!!!!!!!!@.$..                ",
"        .$..#>;>''!!!!!!!!!!!!!!!!!!!!!=.$..#>>''))!!!!!!!!!!!!!!!!!!!!!!!!@.$..=;>'')!!!!!!!!!!!!!!!!!!!!!@.@..                ",
"        .$..%>>,'))!!!!!!!!!!!!!!!!!!!!=.$..$>;>'))!!!!!!!!!!!!!!!!!!!!!!!!@.@..=>;'')!)!!!!!!!!!!!!!!!!!!!@.@..                ",
"        .$..#>>>'))!!!!!!!!!!!!!!!!!!!!=.$..#>>''))!!!!!!!!!!!!!!!!!!!!!!!!@.#..*>>>)))!!!!!!!!!!!!!!!!!!!!@.@..                ",
"        .$..$>>>)))!!!!!!!!!!!!!!!!!!!!=.$..%>;>'))!!!!!!!!!!!!!!!!!!!!!!!!@.@..;>>>')!!!!!!!!!!!!!!!!!!!!!@.@..                ",
"        .$..$;>>'))!!!!!!!!!!!!!!!!!!!!=.$..#>>>'))!!!!!!!!!!!!!!!!!!!!!!!!@.@..=>;'))!!!!!!!!!!!!!!!!!!!!!@.@..                ",
"        .$..%>>>')!)!!!!!!!!!!!!!!!!!!!=.$..$';'')!)!!!!!!!!!!!!!!!!!!!!!!!@.$..=>>>')!)!!!!!!!!!!!!!!!!!!!@.$..                ",
"        .$..#>;''))!!!!!!!!!!!!!!!!!!!!=.$..#>>>'))!!!!!!!!!!!!!!!!!!!!!!!!@.@..*>;'')!!!!!!!!!!!!!!!!!!!!!@.@..                ",
"        .$..$';>')!!!!!!!!!!!!!!!!!!!!!=.$..$>>>')!!!!!!!!!!!!!!!!!!!!!!!!!@.#..='>'')!)!!!!!!!!!!!!!!!!!!!@.@..                ",
"        .$..#>>>'))!!!!!!!!!!!!!!!!!!!!=.$..#>>>'))!!!!!!!!!!!!!!!!!!!!!!!!@.@..=;>>))!!!!!!!!!!!!!!!!!!!!!@.@..                ",
"        .$..$>>>'))!!!!!!!!!!!!!!!!!!!!=.$..%>>>'))!!!!!!!!!!!!!!!!!!!!!!!!@.@..=>>>')!)!!!!!!!!!!!!!!!!!!!@.@..                ",
"        .$..#>;''))!!!!!!!!!!!!!!!!!!!!=.#..#>;''))!!!!!!!!!!!!!!!!!!!!!!!!@.$..*>>')))!!!!!!!!!!!!!!!!!!!!@.@..                ",
"        .$..%>>>'))!!!!!!!!!!!!!!!!!!!!=.$..$>>>'))!!!!!!!!!!!!!!!!!!!!!!!!@.@..;;>>')!!!!!!!!!!!!!!!!!!!!!@.#..                ",
"        .$..#>;''))!!!!!!!!!!!!!!!!!!!!=.$..#>;''))!!!!!!!!!!!!!!!!!!!!!!!!@.@..=>>>))!!!!!!!!!!!!!!!!!!!!!@.@..                ",
"        .$..$';>')!!!!!!!!!!!!!!!!!!!!!=.$..%>>;')!!!!!!!!!!!!!!!!!!!!!!!!!@.$..=>>'')!)!!!!!!!!!!!!!!!!!!!@.@..                ",
"        .$..#>>>'))!!!!!!!!!!!!!!!!!!!!=.%..#>;''))!!!!!!!!!!!!!!!!!!!!!!!!@.%..*;>>')!!!!!!!!!!!!!!!!!!!!!@.$..                ",
"        .$..$>>'''!)!!!!!!!!!!!!!!!!!!!=.%..%>>>''!)!!!!!!!!!!!!!!!!!!!!!!!@.&..='>'')!)!!!!!!!!!!!!!!!!!!!@+$..                ",
"        .$..#';>'))!!!!!!!!!!!!!!!!!!!!=.&..$,;''))!!!!!!!!!!!!!!!!!!!!!!!!@#=..=;>>))!!!!!!!!!!!!!!!!!!!!!@%@..                ",
"        .$..$>;'')!!!!!!!!!!!!!!!!!!!!!=.&@.$';>')!!!!!!!!!!!!!!!!!!!!!!!!!@%&..=>'>')!!!!!!!!!!!!!!!!!!!!!@=...                ",
"        .$..#>>>'))!!!!!!!!!!!!!!!!!!!!=.&%.@&&*&=&========================+&&..$*&*&======================+&...                ",
"        .$..%>;''))!!!!!!!!!!!!!!!!!!!!%.&&...............................+&=%.............................%$...                ",
"        .$..#;>>'))!!!!!!!!!!!!!!!!!!!=.+%......+$$$$$$$$$$$$$$$$$$$$$%&===&&$......+$$$$$$$$$$$$$$$$$@++#&&....                ",
"        .$..%>>>'))!!!!!!!!!!!!!!!!!!=..&...................................+........................$====&+....                ",
"        .$..#>;''))!!!!!!!!!!!!!!!!!=.+&...............................................................+%%......                ",
"        .$..$>>>')!!!!!!!!!!!!!!!!!=.+=...+################################+....########################+.......                ",
"        .$..#>>>'))!!!!!!!!!!!!!!!=.+=...#---------------------------------+....**---------------,-----#.......                 ",
"        .$..%>;>'))!!!!!!!!!!!!!!=.+=...#-----*----------------------------#....*-*-------------------#.......                  ",
"        .$..#>>''))!!!!!!!!!!!!!=.+=...#-----------------------------------#....*--*-----------------#+$.....                   ",
"        .$..$>;'')!!!!!!!!!!!!!=.+=...#------------,-,-,-,-,-,-,--,--,-----+....**------,--,-,------#.&.....                    ",
"        .$..#>>>'')!!!!!!!!!!!=.+=...#,---*-----,-,-,--,,-,-,-,-,,-,,-,,,,-#.@..*-----,-,,-,-,,,,,,#.&$....                     ",
"        .$..%;>''))!!!!!!!!!!=.+&...#--------,,,,,,,,,,,,,,,,,,,,,,,,,,-,,,+.@..*-----,,,,,,,,-,,-#.%&...                       ",
"        .$..$,;>'))!!!!!!!!!=.+=...#-------,--,,,,,,,,,,,,,,,,,,,,,,,,,,,,,#.@..*-----,-,,,,,,,,,#.%%...                        ",
"        .$..$>>'')!)!!!!!!!=.+=...#--------,,,,,,,,,,,,,,,,,,,,,,,,,,,,,,,,#.@..*---,,,,,,,,,,,,#.%%...                         ",
"        .$..$>>;'))!!!!!!!=.+=...#----------,,,,,,,,,,,,,,,,,,,,,,,,,,,,,,,#.@..*-----,,,,,,,,,#.%%...                          ",
"        .$..$>>>')!!!!!!!=.+=...#--------,,,,,,,,,,,,,,,,,,,,,,,,,,,,,,,,,,#.@..*---,,,,,,,,,,#.%%...                           ",
"        .$..#;>>'))!!!!!=.+=...#,-------,-,,,,,,,,,,,,,,,,,,,,,,,,,,,,,,,,,#.@..*----,,,,,,,,#.%&...                            ",
"        .$..%>>>'))!!!!=.+&...#--------,,,,,,,,,,,,,,,,,,,,,,,,,,,,,,,,,,,,#.@..*---,-,,,,,,#.%&...                             ",
"        .$..#>;''))!!!=.+=...#-------,--,,,,,,,,,,,,,,,,,,,,,,,,,,,,,,,,,,,#.@..*----,,,,,,#.%%...                              ",
"        .$..$';>'))!!=.+=...#-,-------,,,,,,,,,,,,,,,,,,,,,,,,,,,,,,,,,,,,,#.$..*----,,,,,#+%&...                               ",
"        .$..#>>>')!!=.+=...#-------,-,,,,,,,,,,,,,,,,,,,,,,,,,,,,,,,,,,,,,,#.@..*----,,,,#.%%...                                ",
"        .$..$>>''))=.+&...#---------,,,,,,,,,,,,,,,,,,,,,,,,,,,,,,,,,,,,,,,#.@..*---,,,,#.%&...                                 ",
"        .$..#>;>')=.+=...#,--------,,,,,,,,,,,,,,,,,,,,,,,,,,,,,,,,,,,,,,,,#.@..*----,,#.%%...                                  ",
"        .%..%>>''=.+=...#--------,,,,,,,,,,,,,,,,,,,,,,,,,,,,,,,,,,,,,,,,,,#.$..*----,#.%&...                                   ",
"        .$..#>;>&.+&...#----------,,,,,,,,,,,,,,,,,,,,,,,,,,,,,,,,,,,,,,,,,#.$..*----#.%%...                                    ",
"        .$$.$'>*.$=...#--------,,,,,,,,,,,,,,,,,,,,,,,,,,,,,,,,,,,,,,,,,,,,#.&..*---#.%%...                                     ",
"        .#&.#>&.%=...#-,------,-,,,,,,,,,,,,,,,,,,,,,,,,,,,,,,,,,,,,,,,,,,,#.&..*--#.&%...                                      ",
"        .+=.$&.$$...#--------,,,,,,,,,,,,,,,,,,,,,,,,,,,,,,,,,,,,,,,,,,,,,,#.&@.*-#.&%...                                       ",
"        ..=%@......#,---------,,,,,,,,,,,,,,,,,,,,,,,,,,,,,,,,,,,,,,,,,,,,,#.&&.*#.%+...                                        ",
"        ..%=+.....#--------,,,,,,,,,,,,,,,,,,,,,,,,,,,,,,,,,,,,,,,,,,,,,,,,#.%=.+......                                         ",
"        ..@=+....#---------,,,,,,,,,,,,,,,,,,,,,,,,,,,,,,,,,,,,,,,,,,,,,,,,#.%=@......                                          ",
"        ..+&+...#--------,,,,,,,,,,,,,,,,,,,,,,,,,,,,,,,,,,,,,,,,,,,,,,,,,,#.&&......                                           ",
"        ...$....*#*#*#*%********--*--*-*--*---*-*---*--*-*--*-*--*--*-*-***+%&+......                                           ",
"        ......................+..........................................+%&&.......                                            ",
"        ............+@$$$$$$$$$$$$$$$$$$$$$$$$$$$$$$$$$$$$$$$$$$$$$$$$$&=&$........                                             ",
"        ..........................................................................                                              ",
"        .........................................................................                                               ",
"        ........................................................................                                                ",
"                                                                                                                                ",
"                                                                                                                                ",
"                                                                                                                                ",
"                                                                                                                                ",
"                                                                                                                                ",
"                                                                                                                                ",
"                                                                                                                                ",
"                                                                                                                                ",
"                                                                                                                                "};
