/* XPM */
char * boundary_xpm[] = {
"128 128 17 1",
" 	c None",
".	c #000000",
"+	c #460000",
"@	c #6C0001",
"#	c #7D0000",
"$	c #2D2F2D",
"%	c #622020",
"&	c #494B49",
"*	c #754C4B",
"=	c #9D4241",
"-	c #BD7678",
";	c #8C8E8B",
">	c #BABCB9",
",	c #C7C9C6",
"'	c #D7D9D6",
")	c #E6E8E5",
"!	c #FDFFFC",
"                                                                                                                                ",
"                                                                                                                                ",
"                                                                                                                                ",
"                                                                                                                                ",
"                                                                                                                                ",
"                                                                                                                                ",
"                                                                                                                                ",
"                                                                                                                                ",
"                                                                                                                                ",
"                       ....                                                                     ....                            ",
"                      .....                                                                    .....                            ",
"                      ..&..                                                                    ..&..                            ",
"                      ..>..                                                                    ..>..                            ",
"                      ..&..                                                                    ..&..                            ",
"                      ..&..                                                                    ..&..                            ",
"                      ..&...                                                                   ..&...                           ",
"                      ..&...                                                                   ..&...                           ",
"                      ..&...                                                                   ..&...                           ",
"                      ..;...                                                                   ..;...                           ",
"                      ..*...                                                                   ..>...                           ",
"                      .&;...                                                                   .$;...                           ",
"                      .**+++++++++++++++++++++++++++++++++++++++++++++++++++++++++++++++++++++++*%.+....                        ",
"         .............%#@@@@#@#################################################################@@##@+.................          ",
"         .$&;&&&&&&;;>%########================================================================###@++....$$&&$&&$$....          ",
"         .............+##-=###################################################################--###@..................          ",
"         .............+##-##@@@@@@@@@@@@@@@@@@@@@@@@@@@@@@@@@@@@@@@@@@@@@@@@@@@@@@@@@@@@@@@@@@###@@@+.................          ",
"         .............+###@%%%%%%%%%%%%%%%%%%%%%%%%%%%%%%%%%%%%%%%%%%%%%%%%%%%%%%%%%%%%%%%%%%%%@##@@..................          ",
"                      +###@*>>>>>,>,>,,>,>,,,>>,>,,,>,,>,>,>,,>,>,>>,,>,>,,>,,>,>,,>,,>,,,,,,,,%##@@+                           ",
"                      +###@*;>>>>,,,,,,,,,,,,,,,,,>,,,,,,,,,,,,,,,,,,,,,,,,,,,,,,,,,,,,>,,,,,,,%##@@+                           ",
"                      +###@*>>>>>,,,,,,,,,,,,,,,,,,,,,,,,,,,,,,,,,,,,,,,,,,,,,,,,,,,,,,,,,,,,,,%###++                           ",
"                      +#=#@*>>>,,,,''''''''''''''''''''''''''''''''''''''''''''''''''''''''''''%#=#@+                           ",
"                      +#=@@*>>,,''))))))))))))))))))))))')))))))))))))))))))'))))))))))))))))))%#=#++                           ",
"                      +#=#@*>>,'')))))!)))))))!)))!))!)))!)!)))!))))))))))!))!)))))))!))!)))!))%#=#@+                           ",
"                      +#=@@*,,,'))!!!!)!!!!!!)!!!!)!!)!!!)!)!!!)!!!!!!!!!!)!!)!!!!!!!)!)!!!!)!!%#=@@+                           ",
"                      @#=#@*>,,'))!!!!!!!!!!!!!!!!!!!!!!!!!!!!!!!!!!!!!!!!!!!!!!!!!!!!!!!!!!!!!%#=#@+                           ",
"                      +#=@@*,,,'))!!!!!!!!!!!!!!!!!!!!!!!!!!!!!!!!!!!!!!!!!!!!!!!!!!!!!!!!!!!!!%#=#++                           ",
"                      +#=#@*>,'')!!!!!!!!!!!!!!!!!!!!!!!!!!!!!!!!!!!!!!!!!!!!!!!!!!!!!!!!!!!!!!%#=#@+                           ",
"                      @#=@@*,,,')))!!!!!!!!!!!!!!!!!!!!!!!!!!!!!!!!!!!!!!!!!!!!!!!!!!!!!!!!!!!!%#=#++                           ",
"                      +#=#@*>,,')!!!!!!!!!!!!!!!!!!!!!!!!!!!!!!!!!!!!!!!!!!!!!!!!!!!!!!!!!!!!!!%#=#@+                           ",
"                      @#=@@*,,,'))!!!!!!!!!!!!!!!!!!!!!!!!!!!!!!!!!!!!!!!!!!!!!!!!!!!!!!!!!!!!!%#=@@+                           ",
"                      +#=#@*>,'')!!!!!!!!!!!!!!!!!!!!!!!!!!!!!!!!!!!!!!!!!!!!!!!!!!!!!!!!!!!!!!%#=#@+                           ",
"                      @#=@@*,,,'))!!!!!!!!!!!!!!!!!!!!!!!!!!!!!!!!!!!!!!!!!!!!!!!!!!!!!!!!!!!!!%#=@++                           ",
"                      +#=#@*>,,'))!!!!!!!!!!!!!!!!!!!!!!!!!!!!!!!!!!!!!!!!!!!!!!!!!!!!!!!!!!!!!%#=#@+                           ",
"                      +#=@@*,,,')!!!!!!!!!!!!!!!!!!!!!!!!!!!!!!!!!!!!!!!!!!!!!!!!!!!!!!!!!!!!!!=#=@@+                           ",
"                      +#=#@*>,,'))!!!!!!!!!!!!!!!!!!!!!!!!!!!!!!!!!!!!!!!!!!!!!!!!!!!!!!!!!!!!!%#=#@+                           ",
"                      +#=@@*,,'')!!!!!!!!!!!!!!!!!!!!!!!!!!!!!!!!!!!!!!!!!!!!!!!!!!!!!!!!!!!!!!%#=@++                           ",
"                      @#=#@*>,,'))!!!!!!!!!!!!!!!!!!!!!!!!!!!!!!!!!!!!!!!!!!!!!!!!!!!!!!!!!!!!!%#=#@+                           ",
"                      +#=@@*,,,'))!!!!!!!!!!!!!!!!!!!!!!!!!!!!!!!!!!!!!!!!!!!!!!!!!!!!!!!!!!!!!=#=#++            ...            ",
"                      +#=#@*,,,')!!!!!!!!!!!!!!!!!!!!!!!!!!!!!!!!!!!!!!!!!!!!!!!!!!!!!!!!!!!!!!%#=#@+           .....           ",
"                      @#=@@*,,,')))!!!!!!!!!!!!!!!!!!!!!!!!!!!!!!!!!!!!!!!!!!!!!!!!!!!!!!!!!!!!%#=#++          .......          ",
"                      +#=#@*>,,')!!!!!!!!!!!!!!!!!!!!!!!!!!!!!!!!!!!!!!!!!!!!!!!!!!!!!!!!!!!!!!%#=#@+         ..$&....          ",
"                      +#=@@*,,''))!!!!!!!!!!!!!!!!!!!!!!!!!!!!!!!!!!!!!!!!!!!!!!!!!!!!!!!!!!!!!%#=#++        ..$;....           ",
"                      +#=#@*>,,')!!!!!!!!!!!!!!!!!!!!!!!!!!!!!!!!!!!!!!!!!!!!!!!!!!!!!!!!!!!!!!%#=#@+       ..$;....            ",
"                      +#=@@*,,,'))!!!!!!!!!!!!!!!!!!!!!!!!!!!!!!!!!!!!!!!!!!!!!!!!!!!!!!!!!!!!!%#=#++      ..$;....             ",
"                      @#=@@*>,,'))!!!!!!!!!!!!!!!!!!!!!!!!!!!!!!!!!!!!!!!!!!!!!!!!!!!!!!!!!!!!!%#=#@+     ..$;....              ",
"                      +#=#@*,,,')!!!!!!!!!!!!!!!!!!!!!!!!!!!!!!!!!!!!!!!!!!!!!!!!!!!!!!!!!!!!!!=#=#++    ..$;....               ",
"                      +#=#@*>,,'))!!!!!!!!!!!!!!!!!!!!!!!!!!!!!!!!!!!!!!!!!!!!!!!!!!!!!!!!!!!!!%#=#@+   ..$;....                ",
"                      +#=@@*,,'')!!!!!!!!!!!!!!!!!!!!!!!!!!!!!!!!!!!!!!!!!!!!!!!!!!!!!!!!!!!!!!%#=#++  ..$;....                 ",
"                      @#=#@*>,,'))!!!!!!!!!!!!!!!!!!!!!!!!!!!!!!!!!!!!!!!!!!!!!!!!!!!!!!!!!!!!!%#=#@+ ..&;....                  ",
"                      +#=#@*,,,'))!!!!!!!!!!!!!!!!!!!!!!!!!!!!!!!!!!!!!!!!!!!!!!!!!!!!!!!!!!!!!=#=#++..&$....                   ",
"                      +#=#@*>,,')!!!!!!!!!!!!!!!!!!!!!!!!!!!!!!!!!!!!!!!!!!!!!!!!!!!!!!!!!!!!!!%#=#@+.......                    ",
"                      @#=@@*,',')))!!!!!!!!!!!!!!!!!!!!!!!!!!!!!!!!!!!!!!!!!!!!!!!!!!!!!!!!!!!!%#=#@.......                     ",
"                      +#=#@*>,,')!!!!!!!!!!!!!!!!!!!!!!!!!!!!!!!!!!!!!!!!!!!!!!!!!!!!!!!!!!!!!!%#-#@+.....                      ",
"                      +#=@@*,,''))!!!!!!!!!!!!!!!!!!!!!!!!!!!!!!!!!!!!!!!!!!!!!!!!!!!!!!!!!!!!!%#=@@.....                       ",
"                      +#=#@*>,,')!!!!!!!!!!!!!!!!!!!!!!!!!!!!!!!!!!!!!!!!!!!!!!!!!!!!!!!!!!!!!!%#-#@+...                        ",
"                      +#=@@*,,''))!!!!!!!!!!!!!!!!!!!!!!!!!!!!!!!!!!!!!!!!!!!!!!!!!!!!!!!!!!!!!@=#@@...                         ",
"                      @#=#@*>,,'))!!!!!!!!!!!!!!!!!!!!!!!!!!!!!!!!!!!!!!!!!!!!!!!!!!!!!!!!!!!!*#-#@@+.                          ",
"                      +#=@@*,,,')!!!!!!!!!!!!!!!!!!!!!!!!!!!!!!!!!!!!!!!!!!!!!!!!!!!!!!!!!!!!%#-#@@+.                           ",
"                      +#=#@*>,,'))!!!!!!!!!!!!!!!!!!!!!!!!!!!!!!!!!!!!!!!!!!!!!!!!!!!!!!!!!!*#==@@@+.                           ",
"                      @#=@@*,,,')!!!!!!!!!!!!!!!!!!!!!!!!!!!!!!!!!!!!!!!!!!!!!!!!!!!!!!!!!!=#=-@@@...                           ",
"                      +#=#@*>,,'))!!!!!!!!!!!!!!!!!!!!!!!!!!!!!!!!!!!!!!!!!!!!!!!!!!!!!!!!*#=-#@@+...                           ",
"                      +#=@@*,,,'))!!!!!!!!!!!!!!!!!!!!!!!!!!!!!!!!!!!!!!!!!!!!!!!!!!!!!!!%#=-#@++....                           ",
"                      +#=#@*>',')!!!!!!!!!!!!!!!!!!!!!!!!!!!!!!!!!!!!!!!!!!!!!!!!!!!!!!!*#=-#@@+.....                           ",
"                      +#=@@*,,,')!)!!!!!!!!!!!!!!!!!!!!!!!!!!!!!!!!!!!!!!!!!!!!!!!!!!!!%#=-#@@.......                           ",
"                      @#=#@*>,,'))!!!!!!!!!!!!!!!!!!!!!!!!!!!!!!!!!!!!!!!!!!!!!!!!!!!!*#=-#@@. ......                           ",
"                      +#=@@*,,,')!!!!!!!!!!!!!!!!!!!!!!!!!!!!!!!!!!!!!!!!!!!!!!!!!!!!%#=-#@@+  ......                           ",
"                      +#=@@*>,,'))!!!!!!!!!!!!!!!!!!!!!!!!!!!!!!!!!!!!!!!!!!!!!!!!!!=#=-#@@+   ......                           ",
"                      @#=#@*,','))!!!!!!!!!!!!!!!!!!!!!!!!!!!!!!!!!!!!!!!!!!!!!!!!!%#=-#@++    ......                           ",
"                      +#=#@*>,,')!)!!!!!!!!!!!!!!!!!!!!!!!!!!!!!!!!!!!!!!!!!!!!!!!=#=-#@@+     ..$...                           ",
"                      @#=@@*,>''))!!!!!!!!!!!!!!!!!!!!!!!!!!!!!!!!!!!!!!!!!!!!!!!*##>#@++      ..&...                           ",
"                      +#=#@*>,,')!!!!!!!!!!!!!!!!!!!!!!!!!!!!!!!!!!!!!!!!!!!!!!!%#=-#@@+       ..&...                           ",
"                      @#=@@*,,,'))!!!!!!!!!!!!!!!!!!!!!!!!!!!!!!!!!!!!!!!!!!!!!*#=-#@@+        ..&...                           ",
"                      +#=#@*>,,')!)!!!!!!!!!!!!!!!!!!!!!!!!!!!!!!!!!!!!!!!!!!!=#=-#@@+         ..&...                           ",
"                      @#=@@*,',')!!!!!!!!!!!!!!!!!!!!!!!!!!!!!!!!!!!!!!!!!!!!*@=-#@++          ..&...                           ",
"                      +#=#@*>,,'))!!!!!!!!!!!!!!!!!!!!!!!!!!!!!!!!!!!!!!!!!!%#=-#@@+           ..&...                           ",
"                      @#=@@*,,,')!)!!!!!!!!!!!!!!!!!!!!!!!!!!!!!!!!!!!!!!!!*#=-#@++            ..&...                           ",
"                      +#=#@*>,,'))!!!!!!!!!!!!!!!!!!!!!!!!!!!!!!!!!!!!!!!!*#=-#@@+             ..&...                           ",
"                      @#=@@*,,,')!!!!!!!!!!!!!!!!!!!!!!!!!!!!!!!!!!!!!!!!=#=-#@@+              ..&...                           ",
"                      +#=#@*>,,'))!!!!!!!!!!!!!!!!!!!!!!!!!!!!!!!!!!!!!!%#=-#@@+               ..&...                           ",
"                      @#=@@*,,''))!!!!!!!!!!!!!!!!!!!!!!!!!!!!!!!!!!!!!*#=-#@++                ..&...                           ",
"                      +#=#@*>,,')!)!!!!!!!!!!!!!!!!!!!!!!!!!!!!!!!!!!!=#=-#@@+                 ..&...                           ",
"                      @#=#@*,,''))!!!!!!!!!!!!!!!!!!!!!!!!!!!!!!!!!!!*#=-#@@+                  ..&...                           ",
"                      +#-#@*>,,')!!!!!!!!!!!!!!!!!!!!!!!!!!!!!!!!!!!%#=-#@@+                   ..;...                           ",
"                      +#=#@*,,,'))!!!!!!!!!!!!!!!!!!!!!!!!!!!!!!!!!*#=-#@++                    ..>...                           ",
"                      +#-@@*,,,')!)!!!!!!!!!!!!!!!!!!!!!!!!!!!!!!!%#=-#@@+                     .$;...                           ",
"                      +#=-#@********-***-***-***-***-***-***-***-%#=-#@++ ......               .&;......                        ",
"         .............%##=#######################################=-##@@+......................$&;&....................          ",
"         .$&;&&&&&&;>;%@#######===============================---=#@@++......$$$&$&&&$&&&&&&;&;;;&......$$$&&$&&$$....          ",
"         .............+@@@@@######################################@@@+................................................          ",
"         .............+@@@@@@@@@@@@@@@@@@@@@@@@@@@@@@@@@@@@@@@@@@@@++.................................................          ",
"         ..............++++++++++++++++++++++++++++++++++++++++++++...................................................          ",
"                      ......                               ........                            ......                           ",
"                      ......                              ........                             ......                           ",
"                      ......                             ..&.....                              ......                           ",
"                      ......                            ..&$....                               ......                           ",
"                      ..$...                           ..&&....                                ..$...                           ",
"                      ..&...                          ..$;....                                 ..&...                           ",
"                      ..&...                         ..$;....                                  ..&...                           ",
"                      ..&...                        ..$;....                                   ..&...                           ",
"                      ..&...                       ..$;....                                    ..&...                           ",
"                      ..&...                      ..$;....                                     ..&...                           ",
"                      ..&...                     ..$;....                                      ..&...                           ",
"                      ..&...                    ..$;....                                       ..&...                           ",
"                      ......                   ..$;....                                        ......                           ",
"                      ......                  ...&....                                         ......                           ",
"                      ......                 ........                                          ......                           ",
"                      ......                  ......                                           ......                           ",
"                      ......                   ....                                            ......                           ",
"                                                ..                                                                              ",
"                                                                                                                                ",
"                                                                                                                                ",
"                                                                                                                                ",
"                                                                                                                                ",
"                                                                                                                                ",
"                                                                                                                                ",
"                                                                                                                                ",
"                                                                                                                                ",
"                                                                                                                                "};
