/* XPM */
char * break2points_xpm[] = {
"128 128 17 1",
" 	c None",
".	c #000100",
"+	c #5E0507",
"@	c #700201",
"#	c #7F0000",
"$	c #313230",
"%	c #3E403D",
"&	c #53514F",
"*	c #994240",
"=	c #646663",
"-	c #8C5C5C",
";	c #C18181",
">	c #B1A5A4",
",	c #C6C7C4",
"'	c #D6D8D5",
")	c #E4E6E3",
"!	c #FDFFFC",
"                                                                                                                                ",
"                                                                                                                                ",
"                                                                                                                                ",
"                                                                                                                                ",
"                                                                                                                                ",
"                                                                                                                                ",
"                                                                                                                                ",
"                                                                                                                                ",
"                                                                                                                                ",
"                                                                                                                                ",
"                                                                                                                                ",
"                                                                                                                                ",
"                                                                                                                                ",
"                                      @                                                  @                                      ",
"                                  #@@#@@@@@                                          #@##@@@@@                                  ",
"                                #@########@@@                                      #@###@###@@@@                                ",
"                               ##@######@#@@@+                                    ##@########@@@+                               ",
"                              @###*;;;**###@+@+                                  #@##*;;;**###@@@+                              ",
"                              @##;',;;**####@@@-                                 @##;,,;;**#@#@@@+                              ",
"                             @##*';**####@##@@++>                               *##*);**########@@+                             ",
"                             @##;'**########@@++>>')!)!!!!!!!!!!!!!!!!!!!!!!!!!;###;;;*#######@@@@++                            ",
"           .................+###;;*##########@@@-,''))!!!!!!!!!!!!!!!!!!!!!!!!!;@##;;*##########@+@................             ",
"           .........$$$$$$..++##;;###########@++-,,))!!!!!!!!!!!!!!!!!!!!!!!!!!;@##;;###########@+++.&=&$$$$$......             ",
"           ..==.............+###;*###########@@+-,,'))!!!!!!!!!!!!!!!!!!!!!!!!!;###;*##########@#+++........&==....             ",
"           ..=..............++##**#########@#@@+->,')))!!!!!!!!!!!!!!!!!!!!!!!);@##**###########@@+................             ",
"           ....$$$$$$$$$$$$$+###############@@++->,,'!)!!!!!!!!!!!!!!!!!!!!!!!!>@###*##########@@+@$$$$$$$$$$%......            ",
"           ....&,,,,,,,,,,,,>+##############@@++>>',')!!!!!!!!!!!!!!!!!!!!!!!!!>#@#############@@++-,>,>,,,,,,&.....            ",
"           ....&,,,,>,,,,,,,>*@@############@++*>>,'')!)!!!!!!!!!!!!!!!!!!!!!!!!*@@###########@@++*>>,>,>,,,,,&.....            ",
"           ....&,>,,,,,,,,,,,-@@@########@@@+++->,,,')!)!!!!!!!!!!!!!!!!!!!!!!!!;#@@########@#@@++=>>,,,,,,,',&.....            ",
"           .$..&,,>,,,,''',')>-@@@#######@@+++->,>,'')!!!!!!!!!!!!!!!!!!!!!!!!!!!-@@@@######@@+++->,>>,,,,''''&.....            ",
"           .%..&,,,,')')))))))>-@@@@@@@@@@@++-=>>,,'')!!!!!!!!!!!!!!!!!!!!!!!!!!!,-@@@@@#@@@@@+++>>>,,,,''))))=.%...            ",
"           .%..&,,,'')))))!))))>-+@+@@@@++++*>>>,,,')!)!!!!!!!!!!!!!!!!!!!!!!!!!!!,-+@+@@+@++++-=>,>,,''))))))=.%...            ",
"           .%..&,,,'')!!!)!!!!)),;*++++++++=>>,>,,'')!!!!!!!!!!!!!!!!!!!!!!!!!!!!!)';*++++++++->>,>,,,')!!)!!!=.%...            ",
"           .%..&,,,'))!)!!!!!!!!)'>>-*--->>>>>,,,,')!)!!!!!!!!!!!!!!!!!!!!!!!!!!!!!))>>--*-->>>>>,,,,')))!!!!!=.%...            ",
"           .%..&,,,'))!!!!!!!!!!)))',>>>>>>,,,,,,'))!)!!!!!!!!!!!!!!!!!!!!!!!!!!!!!)))',>>>>>>,,,>,,'))!!!!!!!=.%...            ",
"           .%..&',,')!!!!!!!!!!!!!))',,,,,,,,,,'')))!!!!!!!!!!!!!!!!!!!!!!!!!!!!!!!!!))',,,,,,,,,,''))!!!!!!!!=.%...            ",
"           .%..&,,''))!!!!!!!!!!!)!))'',,,,,,,''))!!)!!!!!!!!!!!!!!!!!!!!!!!!!!!!!!!))))'',,,,,,,''))!)!!!!!!!=.%...            ",
"           .%..&,,,'))!!!!!!!!!!!!)!!))'''''''))!!)!!!!!!!!!!!!!!!!!!!!!!!!!!!!!!!!!!!!!)))'''''))!)!)!!!!!!!!=.&...            ",
"           .%..&,,,')!!!!!!!!!!!!!!)!)!!)))))!)!)!!!!!!!!!!!!!!!!!!!!!!!!!!!!!!!!!!!!)!!)!)))))))))!!!!!!!!!!!=.%...            ",
"           .%..&,,,')!)!!!!!!!!!!!!!!!)!)!)!)!)!!!!!!!!!!!!!!!!!!!!!!!!!!!!!!!!!!!!!!!!!)!!)!)!)!!!)!!!!!!!!!!=.%...            ",
"           .%..&,,,''!)!!!!!!!!!!!!!!!!!!!)!!!!!!!!!!!!!!!!!!!!!!!!!!!!!!!!!!!!!!!!!!!!!!!!!!!!!!!!!!!!!!!!!!!=.%...            ",
"           .%..&,,,'))!!!!!!!!!!!!!!!!!!!!!!!!!!!!!!!!!!!!!!!!!!!!!!!!!!!!!!!!!!!!!!!!!!!!!!!!!!!!!!!!!!!!!!!!=.%...            ",
"           .%..&','')!)!!!!!!!!!!!!!!!!!!!!!!!!!!!!!!!!!!!!!!!!!!!!!!!!!!!!!!!!!!!!!!!!!!!!!!!!!!!!!!!!!!!!!!!=.%...            ",
"           .%..&>,,'))!!!!!!!!!!!!!!!!!!!!!!!!!!!!!!!!!!!!!!!!!!!!!!!!!!!!!!!!!!!!!!!!!!!!!!!!!!!!!!!!!!!!!!!!=.&...            ",
"           .%..&',,')!)!!!!!!!!!!!!!!!!!!!!!!!!!!!!!!!!!!!!!!!!!!!!!!!!!!!!!!!!!!!!!!!!!!!!!!!!!!!!!!!!!!!!!!!=.%...            ",
"           .&..&,,,')!!!!!!!!!!!!!!!!!!!!!!!!!!!!!!!!!!!!!!!!!!!!!!!!!!!!!!!!!!!!!!!!!!!!!!!!!!!!!!!!!!!!!!!!!=.%...            ",
"           .%..&,,,'))!!!!!!!!!!!!!!!!!!!!!!!!!!!!!!!!!!!!!!!!!!!!!!!!!!!!!!!!!!!!!!!!!!!!!!!!!!!!!!!!!!!!!!!!=.%...            ",
"           .%..&,,,'))!!!!!!!!!!!!!!!!!!!!!!!!!!!!!!!!!!!!!!!!!!!!!!!!!!!!!!!!!!!!!!!!!!!!!!!!!!!!!!!!!!!!!!!!=.%...            ",
"           .%..&,,,')!)!!!!!!!!!!!!!!!!!!!!!!!!!!!!!!!!!!!!!!!!!!!!!!!!!!!!!!!!!!!!!!!!!!!!!!!!!!!!!!!!!!!!!!!=.%...            ",
"           .&..&',,'))!!!!!!!!!!!!!!!!!!!!!!!!!!!!!!!!!!!!!!!!!!!!!!!!!!!!!!!!!!!!!!!!!!!!!!!!!!!!!!!!!!!!!!!!=.&...            ",
"           .$..&,,,')!!!!!!!!!!!!!!!!!!!!!!!!!!!!!!!!!!!!!!!!!!!!!!!!!!!!!!!!!!!!!!!!!!!!!!!!!!!!!!!!!!!!!!!!!=.%...            ",
"           .&..&,,,')))!!!!!!!!!!!!!!!!!!!!!!!!!!!!!!!!!!!!!!!!!!!!!!!!!!!!!!!!!!!!!!!!!!!!!!!!!!!!!!!!!!!!!!!=.%...            ",
"           .%..&,,'')!!!!!!!!!!!!!!!!!!!!!!!!!!!!!!!!!!!!!!!!!!!!!!!!!!!!!!!!!!!!!!!!!!!!!!!!!!!!!!!!!!!!!!!!!=.%...            ",
"           .%..&,,,')))!!!!!!!!!!!!!!!!!!!!!!!!!!!!!!!!!!!!!!!!!!!!!!!!!!!!!!!!!!!!!!!!!!!!!!!!!!!!!!!!!!!!!!!=.%...            ",
"           .%..&,,,')!!!!!!!!!!!!!!!!!!!!!!!!!!!!!!!!!!!!!!!!!!!!!!!!!!!!!!!!!!!!!!!!!!!!!!!!!!!!!!!!!!!!!!!!!=.&...            ",
"           .%..&,,,'))!!!!!!!!!!!!!!!!!!!!!!!!!!!!!!!!!!!!!!!!!!!!!!!!!!!!!!!!!!!!!!!!!!!!!!!!!!!!!!!!!!!!!!!!=.%...            ",
"           .%..&,,,'))!!!!!!!!!!!!!!!!!!!!!!!!!!!!!!!!!!!!!!!!!!!!!!!!!!!!!!!!!!!!!!!!!!!!!!!!!!!!!!!!!!!!!!!!=.%...            ",
"           .%..&',,))!!!!!!!!!!!!!!!!!!!!!!!!!!!!!!!!!!!!!!!!!!!!!!!!!!!!!!!!!!!!!!!!!!!!!!!!!!!!!!!!!!!!!!!!!=.%...            ",
"           .%..&,,,'))!!!!!!!!!!!!!!!!!!!!!!!!!!!!!!!!!!!!!!!!!!!!!!!!!!!!!!!!!!!!!!!!!!!!!!!!!!!!!!!!!!!!!!!!=.%...            ",
"           .%..&,,,'))!!!!!!!!!!!!!!!!!!!!!!!!!!!!!!!!!!!!!!!!!!!!!!!!!!!!!!!!!!!!!!!!!!!!!!!!!!!!!!!!!!!!!!!!=.%...            ",
"           .%..&,,,')!)!!!!!!!!!!!!!!!!!!!!!!!!!!!!!!!!!!!!!!!!!!!!!!!!!!!!!!!!!!!!!!!!!!!!!!!!!!!!!!!!!!!!!!!=.&...            ",
"           .%..&,,,'))!!!!!!!!!!!!!!!!!!!!!!!!!!!!!!!!!!!!!!!!!!!!!!!!!!!!!!!!!!!!!!!!!!!!!!!!!!!!!!!!!!!!!!!!=.%...            ",
"           .%..&,,'')!)!!!!!!!!!!!!!!!!!!!!!!!!!!!!!!!!!!!!!!!!!!!!!!!!!!!!!!!!!!!!!!!!!!!!!!!!!!!!!!!!!!!!!!!=.%...            ",
"           .%..&,,,'))!!!!!!!!!!!!!!!!!!!!!!!!!!!!!!!!!!!!!!!!!!!!!!!!!!!!!!!!!!!!!!!!!!!!!!!!!!!!!!!!!!!!!!!!=.%...            ",
"           .%..&,,,')!)!!!!!!!!!!!!!!!!!!!!!!!!!!!!!!!!!!!!!!!!!!!!!!!!!!!!!!!!!!!!!!!!!!!!!!!!!!!!!!!!!!!!!!!=.%...            ",
"           .%..&,,,'))!!!!!!!!!!!!!!!!!!!!!!!!!!!!!!!!!!!!!!!!!!!!!!!!!!!!!!!!!!!!!!!!!!!!!!!!!!!!!!!!!!!!!!!!=.%...            ",
"           .%..&,,,')!!!!!!!!!!!!!!!!!!!!!!!!!!!!!!!!!!!!!!!!!!!!!!!!!!!!!!!!!!!!!!!!!!!!!!!!!!!!!!!!!!!!!!!!!=.%...            ",
"           .&..&',,')))!!!!!!!!!!!!!!!!!!!!!!!!!!!!!!!!!!!!!!!!!!!!!!!!!!!!!!!!!!!!!!!!!!!!!!!!!!!!!!!!!!!!!!!=.%...            ",
"           .%..&,,,))!!!!!!!!!!!!!!!!!!!!!!!!!!!!!!!!!!!!!!!!!!!!!!!!!!!!!!!!!!!!!!!!!!!!!!!!!!!!!!!!!!!!!!!!!=.&...            ",
"           .%..&,,,'))!!!!!!!!!!!!!!!!!!!!!!!!!!!!!!!!!!!!!!!!!!!!!!!!!!!!!!!!!!!!!!!!!!!!!!!!!!!!!!!!!!!!!!!!=.%...            ",
"           .%..&,,,'))!!!!!!!!!!!!!!!!!!!!!!!!!!!!!!!!!!!!!!!!!!!!!!!!!!!!!!!!!!!!!!!!!!!!!!!!!!!!!!!!!!!!!!!!=.%...            ",
"           .%..&,,,'))!!!!!!!!!!!!!!!!!!!!!!!!!!!!!!!!!!!!!!!!!!!!!!!!!!!!!!!!!!!!!!!!!!!!!!!!!!!!!!!!!!!!!!!!=.%...            ",
"           .%..&,,'')!!!!!!!!!!!!!!!!!!!!!!!!!!!!!!!!!!!!!!!!!!!!!!!!!!!!!!!!!!!!!!!!!!!!!!!!!!!!!!!!!!!!!!!!!=.%...            ",
"           .%..&,,,')!)!!!!!!!!!!!!!!!!!!!!!!!!!!!!!!!!!!!!!!!!!!!!!!!!!!!!!!!!!!!!!!!!!!!!!!!!!!!!!!!!!!!!!!!=.&...            ",
"           .%..&,,,''!)!!!!!!!!!!!!!!!!!!!!!!!!!!!!!!!!!!!!!!!!!!!!!!!!!!!!!!!!!!!!!!!!!!!!!!!!!!!!!!!!!!!!!!!=.%...            ",
"           .%..&,,,'))!!!!!!!!!!!!!!!!!!!!!!!!!!!!!!!!!!!!!!!!!!!!!!!!!!!!!!!!!!!!!!!!!!!!!!!!!!!!!!!!!!!!!!!!=.%...            ",
"           .%..&,,'')!)!!!!!!!!!!!!!!!!!!!!!!!!!!!!!!!!!!!!!!!!!!!!!!!!!!!!!!!!!!!!!!!!!!!!!!!!!!!!!!!!!!!!!!!=.%...            ",
"           .&..&,,,'))!!!!!!!!!!!!!!!!!!!!!!!!!!!!!!!!!!!!!!!!!!!!!!!!!!!!!!!!!!!!!!!!!!!!!!!!!!!!!!!!!!!!!!!!=.%...            ",
"           .%..&,,,'))!!!!!!!!!!!!!!!!!!!!!!!!!!!!!!!!!!!!!!!!!!!!!!!!!!!!!!!!!!!!!!!!!!!!!!!!!!!!!!!!!!!!!!!!=.%...            ",
"           .%..&,,,'))!!!!!!!!!!!!!!!!!!!!!!!!!!!!!!!!!!!!!!!!!!!!!!!!!!!!!!!!!!!!!!!!!!!!!!!!!!!!!!!!!!!!!!!!=.&...            ",
"           .%..&,,'')!)!!!!!!!!!!!!!!!!!!!!!!!!!!!!!!!!!!!!!!!!!!!!!!!!!!!!!!!!!!!!!!!!!!!!!!!!!!!!!!!!!!!!!!!=.%...            ",
"           .%..&,,,'))!!!!!!!!!!!!!!!!!!!!!!!!!!!!!!!!!!!!!!!!!!!!!!!!!!!!!!!!!!!!!!!!!!!!!!!!!!!!!!!!!!!!!!!!=.%...            ",
"           .%..&,,,')!)!!!!!!!!!!!!!!!!!!!!!!!!!!!!!!!!!!!!!!!!!!!!!!!!!!!!!!!!!!!!!!!!!!!!!!!!!!!!!!!!!!!!!!!=.%...            ",
"           .&..&,,,')!!!!!!!!!!!!!!!!!!!!!!!!!!!!!!!!!!!!!!!!!!!!!!!!!!!!!!!!!!!!!!!!!!!!!!!!!!!!!!!!!!!!!!!!!=.%...            ",
"           .$..&,,,'')!!!!!!!!!!!!!!!!!!!!!!!!!!!!!!!!!!!!!!!!!!!!!!!!!!!!!!!!!!!!!!!!!!!!!!!!!!!!!!!!!!!!!!!!=.%...            ",
"           .&..&,,,)))!!!!!!!!!!!!!!!!!!!!!!!!!!!!!!!!!!!!!!!!!!!!!!!!!!!!!!!!!!!!!!!!!!!!!!!!!!!!!!!!!!!!!!!!=.&...            ",
"           .%..&,,,')!!!!!!!!!!!!!!!!!!!!!!!!!!!!!!!!!!!!!!!!!!!!!!!!!!!!!!!!!!!!!!!!!!!!!!!!!!!!!!!!!!!!!!!!!=.%...            ",
"           .%..&,,,')!)!!!!!!!!!!!!!!!!!!!!!!!!!!!!!!!!!!!!!!!!!!!!!!!!!!!!!!!!!!!!!!!!!!!!!!!!!!!!!!!!!!!!!!!=.%...            ",
"           .%..&,,,'))!!!!!!!!!!!!!!!!!!!!!!!!!!!!!!!!!!!!!!!!!!!!!!!!!!!!!!!!!!!!!!!!!!!!!!!!!!!!!!!!!!!!!!!!=.%...            ",
"           .&..&,,,')!)!!!!!!!!!!!!!!!!!!!!!!!!!!!!!!!!!!!!!!!!!!!!!!!!!!!!!!!!!!!!!!!!!!!!!!!!!!!!!!!!!!!!!!!=.%...            ",
"           .%..&',,')!)!!!!!!!!!!!!!!!!!!!!!!!!!!!!!!!!!!!!!!!!!!!!!!!!!!!!!!!!!!!!!!!!!!!!!!!!!!!!!!!!!!!!!!!=.%...            ",
"           .%..&,,,''!!!!!!!!!!!!!!!!!!!!!!!!!!!!!!!!!!!!!!!!!!!!!!!!!!!!!!!!!!!!!!!!!!!!!!!!!!!!!!!!!!!!!!!!!=.&...            ",
"           .%..&,,,'))!!!!!!!!!!!!!!!!!!!!!!!!!!!!!!!!!!!!!!!!!!!!!!!!!!!!!!!!!!!!!!!!!!!!!!!!!!!!!!!!!!!!!!!!=.%...            ",
"           .%..&,,''))!!!!!!!!!!!!!!!!!!!!!!!!!!!!!!!!!!!!!!!!!!!!!!!!!!!!!!!!!!!!!!!!!!!!!!!!!!!!!!!!!!!!!!!!=.%...            ",
"           .%..&,,,')!)!!!!!!!!!!!!!!!!!!!!!!!!!!!!!!!!!!!!!!!!!!!!!!!!!!!!!!!!!!!!!!!!!!!!!!!!!!!!!!!!!!!!!!!=.%...            ",
"           .%..&,,,'))!!!!!!!!!!!!!!!!!!!!!!!!!!!!!!!!!!!!!!!!!!!!!!!!!!!!!!!!!!!!!!!!!!!!!!!!!!!!!!!!!!!!!!!!=.%...            ",
"           .%..&,,,')!)!!!!!!!!!!!!!!!!!!!!!!!!!!!!!!!!!!!!!!!!!!!!!!!!!!!!!!!!!!!!!!!!!!!!!!!!!!!!!!!!!!!!!!!=.%...            ",
"           .&..&',,')!!!!!!!!!!!!!!!!!!!!!!!!!!!!!!!!!!!!!!!!!!!!!!!!!!!!!!!!!!!!!!!!!!!!!!!!!!!!!!!!!!!!!!!!!=.%...            ",
"           .%..&,,,'))!!!!!!!!!!!!!!!!!!!!!!!!!!!!!!!!!!!!!!!!!!!!!!!!!!!!!!!!!!!!!!!!!!!!!!!!!!!!!!!!!!!!!!!!=.%...            ",
"           .%..&,,,'))!!!!!!!!!!!!!!!!!!!!!!!!!!!!!!!!!!!!!!!!!!!!!!!!!!!!!!!!!!!!!!!!!!!!!!!!!!!!!!!!!!!!!!!!=.&...            ",
"           .&..&,,,)))!!!!!!!!!!!!!!!!!!!!!!!!!!!!!!!!!!!!!!!!!!!!!!!!!!!!!!!!!!!!!!!!!!!!!!!!!!!!!!!!!!!!!!!!=.=...            ",
"           .&..&',,')))!!!!!!!!!!!!!!!!!!!!!!!!!!!!!!!!!!!!!!!!!!!!!!!!!!!!!!!!!!!!!!!!!!!!!!!!!!!!!!!!!!!!!!!=.=...            ",
"           .%$.&,,,')!!!!!!!!!!!!!!!!!!!!!!!!!!!!!!!!!!!!!!!!!!!!!!!!!!!!!!!!!!!!!!!!!!!!!!!!!!!!!!!!!!!!!!!!!=%&...            ",
"           .$=.&,,''))!!!!!!!!!!!!!!!!!!!!!!!!!!!!!!!!!!!!!!!!!!!!!!!!!!!!!!!!!!!!!!!!!!!!!!!!!!!!!!!!!!!!!!!!==....            ",
"           ..=..$$$$$$%%%%%%%%%%%%%%%%%%%%%%%%%%%%%%%%%%%%%%%%%%%%%%%%%%%%%%%%%%%%%%%%%%%%%%%%%%%%%%%%%%%%%%%%&>....            ",
"           ................................................................................................$===.....            ",
"           .........$$$$$$$$$$$%$$$$%$$$$$$%$$$$$$$$%$$$$$$$%$$$$$$$$$$%$$$$$%$$$$$$$$$%$$$$$$%$$$$$%$$$$%%%$.......            ",
"           .........................................................................................................            ",
"           .........................................................................................................            ",
"                                                                                                                                ",
"                                                                                                                                ",
"                                                                                                                                ",
"                                                                                                                                ",
"                                                                                                                                ",
"                                                                                                                                ",
"                                                                                                                                ",
"                                                                                                                                ",
"                                                                                                                                ",
"                                                                                                                                ",
"                                                                                                                                ",
"                                                                                                                                ",
"                                                                                                                                ",
"                                                                                                                                ",
"                                                                                                                                ",
"                                                                                                                                ",
"                                                                                                                                ",
"                                                                                                                                ",
"                                                                                                                                "};
