/* XPM */
char * centermark_xpm[] = {
"128 128 17 1",
" 	c None",
".	c #000000",
"+	c #090C08",
"@	c #0D0F0C",
"#	c #161816",
"$	c #1F211E",
"%	c #2A2C29",
"&	c #30322F",
"*	c #363835",
"=	c #40423F",
"-	c #4B4D4A",
";	c #565856",
">	c #5D5F5C",
",	c #666865",
"'	c #6D6F6C",
")	c #727572",
"!	c #7D7F7C",
"                                                                                                                                ",
"                                                                                                                                ",
"                                                                                                                                ",
"                                                                                                                                ",
"                                                                                                                                ",
"                                                                                                                                ",
"                                                                                                                                ",
"                                                       ..........+........                                                      ",
"                                                  ....#=;;-&.....+%-;-=%......                                                  ",
"                                               ...*;>*...................+&*#.....                                              ",
"                                            ...-,=...........       ..........$$.....                                           ",
"                                          ..=,=.......                   ........#@....                                         ",
"                                        .#,)@.....                           .......$....                                       ",
"                                      .%!>......                                ......#....                                     ",
"                                    .$);.....                                      .....+....                                   ",
"                                  ..,,.....                                          .........                                  ",
"                                 .=!....                                               .........                                ",
"                               .+);....                                                  ........                               ",
"                              .*!....                                                      ........                             ",
"                             .,)....                                                         .......                            ",
"                            .!*...                                                            .......                           ",
"                           +!....                                                               ......                          ",
"                         .#!...                                                                  ......                         ",
"                        .#!...                                                                    ......                        ",
"                        #!...                                                                       .....                       ",
"                       @!...                                                                         ..+..                      ",
"                      .!...                                                                           .....                     ",
"                     .!...                                                                             .....                    ",
"                    .,*..                                                                              .....                    ",
"                   .=)..                                                                                ..@..                   ",
"                   .!...                                                                                 .....                  ",
"                  .)...                                                                                   .....                 ",
"                 .=;..                                                                                    ..#..                 ",
"                 .!...                                                                                     .....                ",
"                .,...                                                                                       ....                ",
"                $,..                                                                                        .....               ",
"               .)...                                                                                         .....              ",
"               %;..                                                                                          .....              ",
"              .)..                                                                                            .....             ",
"              #,..                                                                                             .@..             ",
"             .,...                                                                                             .....            ",
"             .)..                                                                                              ..#..            ",
"            .=#..                                                                                               ....            ",
"            .,..                                                                                                .....           ",
"            .=..                                                                                                 .+..           ",
"           .=...                                                                                                 ....           ",
"           .>..                                                                                                   ....          ",
"           .=..                                                                                                   .#..          ",
"           %.+                                                                                                    .#..          ",
"          .;..                                               .....                                                ....          ",
"          .;..                                               .....                                                 .+..         ",
"          .=..                                               .#&..                                                 .$..         ",
"          #@.                                                .#'..                                                 .$..         ",
"         .*..                                                ..;..                                                 ....         ",
"         .;..                                                ..%..                                                 ....         ",
"         .;..                                                ..%..                                                  ....        ",
"         .-..                                                ..%..                                                  ....        ",
"         .*..                                                ..%..                                                  .$..        ",
"         .@..                                                ..%..                                                  .*..        ",
"         ...                                       ............%............                                        .=..        ",
"         ...                                       ..#@........%............                                        .-..        ",
"         ...                                       ..&);%&&&&%&%&%&&&&%.....                                        .-..        ",
"         .#.                                       ............#............                                        .=..        ",
"         .&.                                       ............$............                                        .*..        ",
"         .-.                                                 ..$.....                                               .*..        ",
"         .;..                                                ..$..                                                  .=..        ",
"         .-..                                                ..$..                                                  .=..        ",
"         .=..                                                ..$..                                                  .=..        ",
"         .&..                                                ..$..                                                  #$..        ",
"         .#..                                                .....                                                  =..         ",
"         ....                                                .....                                                 .>..         ",
"          .+..                                               .....                                                 .,..         ",
"          .*..                                               .....                                                 .>..         ",
"          .&..                                               .....                                                 @*..         ",
"          .+..                                                                                                     =..          ",
"          .....                                                                                                   .,..          ",
"           .%..                                                                                                   .,..          ",
"           .$..                                                                                                   **..          ",
"           .....                                                                                                 .,..           ",
"           ..$..                                                                                                 .'..           ",
"            .+..                                                                                                 =$..           ",
"            .....                                                                                               .)..            ",
"             .#..                                                                                               $>..            ",
"             .....                                                                                             .)...            ",
"             ..#..                                                                                             @)..             ",
"              .....                                                                                           .'...             ",
"              ..+..                                                                                           @,..              ",
"               .....                                                                                         .,...              ",
"               .....                                                                                         $;..               ",
"                .....                                                                                       .)...               ",
"                .....                                                                                       -*..                ",
"                 .....                                                                                     @!..                 ",
"                  .....                                                                                   .!...                 ",
"                  .....                                                                                  .>=..                  ",
"                   .....                                                                                 *)..                   ",
"                    .....                                                                               @!...                   ",
"                     .....                                                                             .!...                    ",
"                     .....                                                                            .!...                     ",
"                      .....                                                                          .)%..                      ",
"                       .....                                                                        .)*..                       ",
"                        ......                                                                     .)&..                        ",
"                         ..+...                                                                   .!$...                        ",
"                          ...+..                                                                 #!...                          ",
"                           ...$...                                                             .*!...                           ",
"                            ...@...                                                           .>,...                            ",
"                             ........                                                       .$!$...                             ",
"                               .......                                                     .;)....                              ",
"                                ........                                                 .&!$...                                ",
"                                 .........                                             .#);....                                 ",
"                                   ....#....                                         .@',....                                   ",
"                                     ....+.....                                   ..%);.....                                    ",
"                                      ...........                               .+;)=.....                                      ",
"                                         ......+.....                       ...-),......                                        ",
"                                           ......@$+......             ....%;,>.......                                          ",
"                                             ........+$#.............$=>,,-@.......                                             ",
"                                                ............#%*======&..........                                                ",
"                                                    ........................                                                    ",
"                                                          ............                                                          ",
"                                                                                                                                ",
"                                                                                                                                ",
"                                                                                                                                ",
"                                                                                                                                ",
"                                                                                                                                ",
"                                                                                                                                ",
"                                                                                                                                ",
"                                                                                                                                ",
"                                                                                                                                ",
"                                                                                                                                "};
