/* XPM */
char * circlecenterdiameter_xpm[] = {
"128 128 17 1",
" 	c None",
".	c #000000",
"+	c #171916",
"@	c #800000",
"#	c #730504",
"$	c #681A19",
"%	c #323331",
"&	c #494744",
"*	c #9E4746",
"=	c #6B6A67",
"-	c #888785",
";	c #BF8080",
">	c #B0AEAB",
",	c #C5C4C2",
"'	c #D3D4D0",
")	c #E5E7E3",
"!	c #FDFFFC",
"                                                                                                                                ",
"                                                                                                                                ",
"                                                                                                                                ",
"                                                                                                                                ",
"                                                                                                                                ",
"                                                                                                                                ",
"                                                                                                                                ",
"                                                       ...................                                                      ",
"                                                  ....+%&=&%......%&&=%%......                                                  ",
"                                               ...%&=%.......++%%%++......%%+.....                                              ",
"                                            ...&=&....++%%%%&->,',>-%%%%++....++.....                                           ",
"                                          ..&=&...++%&-,,,,,,''''''',,>,>-%%++...++....                                         ",
"                                        .+==...+%&->,,'''''''''''''''''',',>>-%%+...+....                                       ",
"                                      .%==...+&->,)''''''','','''''''''''''',,,>=%%+..+....                                     ",
"                                    .+-&..+%&-,')''''''',''''''')')))')'''''''',,,>=%+.......                                   ",
"                                  ..==..+&-,,''',''',''')'')')))))))!)!))))))'''''',,=%+......                                  ",
"                                 .&-..+&-,')'''',',''''')))!))!))!!)!)!!!))))!))'''''',=%+......                                ",
"                               .+=&..%-'')'''',',')')))!))!)!!)!!!!!!!!)!!!!!)!))))'''''>-%+.....                               ",
"                              .%-..+&>')''',''''''))))!)!!!!!!!!!!!!!!!!!!!)!)!!!)!)!)')'',=%......                             ",
"                             .=-..%-,''''',''')))'!)!!!!!!!!!!!!!!!!!!!!!!!!!!!!!!!!!)))''''-%+.....                            ",
"                            .-%.+&>')'''',''')))!!!)!!!!!!!!!!!!!!!!!!!!!!!!!!!!!!!)!!!!)))'',=%.....                           ",
"                           .-..%-')'',',''')))!!)!!!!!!!!!!!!!!!!!!!!!!!!!!!!!!!!!!!!!!!!))))',>%.....                          ",
"                         .+-..&>'')'','')'))!!)!!!!!!!!!!!!!!!!!!!!!!!!!!!!!!!!!!!!!!!!!!!!!)))'>%+....                         ",
"                        .+-..%>)''',''')'!)!)!!!!!!!!!!!!!!!!!!!!!!!!!!!!!!!!!!!!!!!!!!!!!!)!!))',=+....                        ",
"                        +-..&>))'''''''))!)!!!!!!!!!!!!!!!!!!!!!!!!!!!!!!!!!!!!!!!!!!!!!!!!!!)!)))>$.....                       ",
"                       .-..&>)''',''))!)!!!!!!!!!!!!!!!!!!!!!!!!!!!!!!!!!!!!!!!!!!!!!!!!!!!!!!!!!>##$.....                      ",
"                      .-..&>')',',''))!)!!!!!!!!!!!!!!!!!!!!!!!!!!!!!!!!!!!!!!!!!!!!!!!!!!!!!!!!,@###$.....                     ",
"                     .-..%>)'','''))))!!!!!!!!!!!!!!!!!!!!!!!!!!!!!!!!!!!!!!!!!!!!!!!!!!!!!!!!!'##;##$$+....                    ",
"                    .=%.&>)''''''))!!!!!!!!!!!!!!!!!!!!!!!!!!!!!!!!!!!!!!!!!!!!!!!!!!!!!!!!!!!'@@;@#$$>=+...                    ",
"                   .%=.%>))',',')'))!!!!!!!!!!!!!!!!!!!!!!!!!!!!!!!!!!!!!!!!!!!!!!!!!!!!!!!!!'#@;##$$>,>%.+..                   ",
"                   .-.+-'''',''))!!!!!!!!!!!!!!!!!!!!!!!!!!!!!!!!!!!!!!!!!!!!!!!!!!!!!!!!!!!'@@;@##$,,,,-%....                  ",
"                  .-..&')''''')'!!!!!!!!!!!!!!!!!!!!!!!!!!!!!!!!!!!!!!!!!!!!!!!!!!!!!!!!!!!'#@;@#$$,',,>,-%....                 ",
"                 .&&.%>')',')')!))!!!!!!!!!!!!!!!!!!!!!!!!!!!!!!!!!!!!!!!!!!!!!!!!!!!!!!!!'@@;###$,'',,,,,=++..                 ",
"                 .-.+-)'''''''!!!!!!!!!!!!!!!!!!!!!!!!!!!!!!!!!!!!!!!!!!!!!!!!!!!!!!!!!!!'#@;@##$,',,,,,,',%....                ",
"                .=..&,'',,'))!)!!!!!!!!!!!!!!!!!!!!!!!!!!!!!!!!!!!!!!!!!!!!!!!!!!!!!!!!!'@@;###$,',,,,''')'-+...                ",
"                +=.%>)''''')'!!!!!!!!!!!!!!!!!!!!!!!!!!!!!!!!!!!!!!!!!!!!!!!!!!!!!!!!!!'#@;@#$$,'',,,'')))!'%....               ",
"               .=.+-')','''!!)!!!!!!!!!!!!!!!!!!!!!!!!!!!!!!!!!!!!!!!!!!!!!!!!!!!!!!!!'@@;@##$,'',,,,')))!)!>%....              ",
"               %=.&''''''')'!!!!!!!!!!!!!!!!!!!!!!!!!!!!!!!!!!!!!!!!!!!!!!!!!!!!!!!!!'#@;@#$$'',,,,'')'!!!!))-+...              ",
"              .=.+-)'''''!)!!!!!!!!!!!!!!!!!!!!!!!!!!!!!!!!!!!!!!!!!!!!!!!!!!!!!!!!!'@@;@##$,'',,,''))!)!!!!!,%....             ",
"              +=.&,''','')!)!!!!!!!!!!!!!!!!!!!!!!!!!!!!!!!!!!!!!!!!!!!!!!!!!!!!!!!'#@;##$$,'',,,,''))!!!!!!!!-++..             ",
"             .=.+-''''')'!!!!!!!!!!!!!!!!!!!!!!!!!!!!!!!!!!!!!!!!!!!!!!!!!!!!!!!!!'@@;@##$,'',,,''))!!!!!!!!!!'&....            ",
"             .=.%,)'',')))!!!!!!!!!!!!!!!!!!!!!!!!!!!!!!!!!!!!!!!!!!!!!!!!!!!!!!!'#@;@#$$''',,,''))!)!!!!!!!!!)-++..            ",
"            .&+.&,'',''!!!)!!!!!!!!!!!!!!!!!!!!!!!!!!!!!!!!!!!!!!!!!!!!!!!!!!!!!'@@;@##$,',,,,,')))!!!!!!!!!!!!,%...            ",
"            .=.+-''''''')!!!!!!!!!!!!!!!!!!!!!!!!!!!!!!!!!!!!!!!!!!!!!!!!!!!!!!'#@;@#$$''',,,'')')!!!!!!!!!!!!!'&....           ",
"            .&.&,'''')!!!!!!!!!!!!!!!!!!!!!!!!!!!!!!!!!!!!!!!!!!!!!!!!!!!!!!!!'@@;@##$,'',,,''))!!)!!!!!!!!!!!!!-+...           ",
"           .&..-)',',''!!!!!!!!!!!!!!!!!!!!!!!!!!!!!!!!!!!!!!!!!!!!!!!!!!!!!!'#@;##$$,',,,,,')')!!!!!!!!!!!!!!!!)&...           ",
"           .=.%>'''''!)!!!!!!!!!!!!!!!!!!!!!!!!!!!!!!!!!!!!!!!!!!!!!!!!!!!!!'@@;@##$,'',,,''))!!!!!!!!!!!!!!!!!!)-+...          ",
"           .&.&''',',!'!!!!!!!!!!!!!!!!!!!!!!!!!!!!!!!!!!!!!!!!!!!!!!!!!!!!'#@;@#$$'',,,,,')'!)!!!!!!!!!!!!!!!!!!,++..          ",
"           %.+-'','')!!!!!!!!!!!!!!!!!!!!!!!!!!!!!!!!!!!!!!!!!!!!!!!!!!!!!'@@;@##$,'',,,'')!)!!!!!!!!!!!!!!!!!!!!'%+..          ",
"          .&.+>)''''')!!!!!!!!!!!!!!!!!!!!!!!!!!!!!!!!!!!!!!!!!!!!!!!!!!!'#@;@#$$''',,,'''))!!!!!!!!!!!!!!!!!!!!!)&...          ",
"          .=.%,''''!)!!!!!!!!!!!!!!!!!!!!!!!!!!!!!!!!!!!!!!!!!!!!!!!!!!!'@@;@##$,',,,,''))!!)!!!!!!!!!!!!!!!!!!!!!-+...         ",
"          .&.&'',','))!!!!!!!!!!!!!!!!!!!!!!!!!!!!!!!!!!!!!!!!!!!!!!!!!'#@;@#$$,'',,,,')')!!!!!!!!!!!!!!!!!!!!!!!!,+%..         ",
"          +.+-''''))!!!!!!!!!!!!!!!!!!!!!!!!!!!!!!!!!!!!!!!!),;;;;;')!,@@;###$,'',,,''))!!!!!!!!!!!!!!!!!!!!!!!!!!'%+..         ",
"         .%.+>'!;'')!!!!!!!!!!!!!!!!!!!!!!!!!!!!!!!!!!!!!!!;;#######*;##;@#$$''',,,''')!)!!!!!!!!!!!!!!!!!!!!!!!!!)%...         ",
"         .=.%,''))))!)!!!!!!!!!!!!!!!!!!!!!!!!!!!!!!!!!!!';@@@@@#######;###$,',,,,'')))!!!!!!!!!!!!!!!!!!!!!!!!!!!)&...         ",
"         .&.&,'''''!!!!!!!!!!!!!!!!!!!!!!!!!!!!!!!!!!!!!)*@#@@@@@@@@#####$$,',,,,',)'!!!!!!!!!!!!!!!!!!!!!!!!!!!!!!-+...        ",
"         .&.%,',''!)!!!!!!!!!!!!!!!!!!!!!!!!!!!!!!!!!!!);@@@*;;;;*@@#####$,,,,,,'')!)!!!!!!!!!!!!!!!!!!!!!!!!!!!!!!,+...        ",
"         .%.%,'''''!!!!!!!!!!!!!!!!!!!!!!!!!!!!!!!!!!!!;##@;'';***##@###$;>,,,,,''!'!!!!!!!!!!!!!!!!!!!!!!!!!!!!!!!)%+..        ",
"         .+.&,'''!)!)!!!!!!!!!!!!!!!!!!!!!!!!!!!!!!!!!);@@;,;**@@@@@@@##$$>>>,,''!!!!!!!!!!!!!!!!!!!!!!!!!!!!!!!!!!)%&..        ",
"         ..+;'',,')!!!!!!!!!!!!!!!!!!!!!!!!!!!!!!!!!!!,##@;'**@@@@@#@####$;>>,''))'!!!!!!!!!!!!!!!!!!!!!!!!!!!!!!!!'%&..        ",
"         ..+>''')))!!!!!!!!!!!!!!!!!!!!!!!!!!!!!!!!!!!;@@@;;*@@@@@@@@@###$=;>,,)!!!!!!!!!!!!!!!!!!!!!!!!!!!!!!!!!!!)%&..        ",
"         ..%,',')')!!!!!!!!!!!!!!!!!!!!!!!!!!!!!!!!!!!;##@;*@@@@@@@@#@###$*>>,'')!!!!!!!!!!!!!!!!!!!!!!!!!!!!!!!!!!)%&..        ",
"         .+%,'''')!!!!!!!!!!!!!!!!!!!!!!!!!!!!!!!!!!!);#@@;*@@@#@@@@@@###$$->,'!!!!!!!!!!!!!!!!!!!!!!!!!!!!!!!!!!!!)%&..        ",
"         .%+;''''))!!!!!!!!!!!!!!!!!!!!!!!!!!!!!!!!!!);#@@**@@@@@#@@#@##$$*>>,!;!!!!!!!!!!!!!!!!!!!!!!!!!!!!!!!!!!!)%%..        ",
"         .&+-)''))!!!!!!!!!!!!!!!!!!!!!!!!!!!!!!!!!!!!;##@@#@@#@@@#@@@###$&>>,)!!!!!!!!!!!!!!!!!!!!!!!!!!!!!!!!!!!!)%&..        ",
"         .=.&,'')))!!!!!!!!!!!!!!!!!!!!!!!!!!!!!!!!!!!,###@@@@@@@@@@@####$;>,',))!!!!!!!!!!!!!!!!!!!!!!!!!!!!!!!!!!)%%..        ",
"         .&.%>'''!!!!!!!!!!!!!!!!!!!!!!!!!!!!!!!!!!!!!)*##@#@@@@@@@@@##$$$->,,))!!!!!!!!!!!!!!!!!!!!!!!!!!!!!!!!!!!)%&..        ",
"         .&.%,'''))!!!!!!!!!!!!!!!!!!!!!!!!!!!!!!!!!!!!;####@@@#@@@#####$->>,''')!!!!!!!!!!!!!!!!!!!!!!!!!!!!!!!!!!'%%..        ",
"         .%.%,,'')!!!!!!!!!!!!!!!!!!!!!!!!!!!!!!!!!!!!,@#####@#@#@###$$#$->,,,!)!!!!!!!!!!!!!!!!!!!!!!!!!!!!!!!!!!!,%%..        ",
"         .+.%,'')')!!!!!!!!!!!!!!!!!!!!!!!!!!!!!!!!!!'#@;#############$*->>,,,'))!!!!!!!!!!!!!!!!!!!!!!!!!!!!!!!!!!>&..         ",
"         ...+>,''))!!!!!!!!!!!!!!!!!!!!!!!!!!!!!!!!!'@@;##$$#######$$$$->>,,,')!!!!!!!!!!!!!!!!!!!!!!!!!!!!!!!!!!!)&=..         ",
"          .+.;'''))!!!!!!!!!!!!!!!!!!!!!!!!!!!!!!!!'##;@#$$;$$$$$$$$$=->>>,,''))!!!!!!!!!!!!!!!!!!!!!!!!!!!!!!!!!!)%=..         ",
"          .%.%,,'))!!!!!!!!!!!!!!!!!!!!!!!!!!!!!!!'@@;@##$>>-=$$$&*=->>,,,,'))!!)!!!!!!!!!!!!!!!!!!!!!!!!!!!!!!!!!)%=..         ",
"          .%.%,,'')!!!!!!!!!!!!!!!!!!!!!!!!!!!!!!'##;@#$$,,>>>>--->>>>,>,,,''))!!!!!!!!!!!!!!!!!!!!!!!!!!!!!!!!!!!,+%..         ",
"          .+.+>,'))!)!!!!!!!!!!!!!!!!!!!!!!!!!!!'@@;@##$,,,,>>>>>>>>,,,,,'))!!!!!!!!!!!!!!!!!!!!!!!!!!!!!!!!!!!!!!-=..          ",
"          ....-''''!!!!!!!!!!!!!!!!!!!!!!!!!!!!'#@;@#$$,',,>,>,,,,',,,,')''))!!!!!!!!!!!!!!!!!!!!!!!!!!!!!!!!!!!!)&=..          ",
"           .%.&,,))!!!!!!!!!!!!!!!!!!!!!!!!!!!'@@;###$,'',,,,,'''')')')')!)!!!!!!!!!!!!!!!!!!!!!!!!!!!!!!!!!!!!!!,%=..          ",
"           .+.%>,'')!!!!!!!!!!!!!!!!!!!!!!!!!'#@;@@$$,',,,,'''))))))))'!'!!)!!!!!!!!!!!!!!!!!!!!!!!!!!!!!!!!!!!!!-&%..          ",
"           ...+=''')!)!!!!!!!!!!!!!!!!!!!!!!'@@;###$,'',,,'')))!!)!!)!!!!!!!!!!!!!!!!!!!!!!!!!!!!!!!!!!!!!!!!!!!)&=..           ",
"           ..+.&,''))!!!!!!!!!!!!!!!!!!!!!!'#@;@#$$,',,,,,')))!)!!!!!)!)!!!!!!!!!!!!!!!!!!!!!!!!!!!!!!!!!!!!!!!!'%=..           ",
"            ...%>,)))!!!!!!!!!!!!!!!!!!!!!'@@;@##$,'',,,'')))!!!!!!!!!!!!!!!!!!!!!!!!!!!!!!!!!!!!!!!!!!!!!!!!!!!-=+..           ",
"            ....=,')))!!!!!!!!!!!!!!!!!!!'#@;@#$$,'',,,,')))!!!!!!!!!!!!!!!!!!!!!!!!!!!!!!!!!!!!!!!!!!!!!!!!!!!'%-..            ",
"             .+.&>'')!)!!!!!!!!!!!!!!!!!'@@;@##$''',,,''')!)!!!!!!!!!!!!!!!!!!!!!!!!!!!!!!!!!!!!!!!!!!!!!!!!!!!-&=..            ",
"             ....-'''!!!!!!!!!!!!!!!!!!'#@;@#$$,',,,,,'))!!!!!!!!!!!!!!!!!!!!!!!!!!!!!!!!!!!!!!!!!!!!!!!!!!!!!)&=...            ",
"             ..+.%>'))!!!!!!!!!!!!!!!!'@@;@##$,'',,,''))!)!!!!!!!!!!!!!!!!!!!!!!!!!!!!!!!!!!!!!!!!!!!!!!!!!!!!-%=..             ",
"              ....-'''!)!!!!!!!!!!!!!'#@;##$$,'',,,'')')!!!!!!!!!!!!!!!!!!!!!!!!!!!!!!!!!!!!!!!!!!!!!!!!!!!!!)&=...             ",
"              ....&>'))!!!!!!!!!!!!!'@@;@##$,'',,,,'))!!!!!!!!!!!!!!!!!!!!!!!!!!!!!!!!!!!!!!!!!!!!!!!!!!!!!!!-%=..              ",
"               ...+=''))!!!!!!!!!!!'#@;@#$$'',,,,''')!)!!!!!!!!!!!!!!!!!!!!!!!!!!!!!!!!!!!!!!!!!!!!!!!!!!!!!'&=...              ",
"               ....&>'))!)!!!!!!!!'@@;@##$,'',,,''))!!!!!!!!!!!!!!!!!!!!!!!!!!!!!!!!!!!!!!!!!!!!!!!!!!!!!!!!-%=..               ",
"                ....='''!!!!!!!!!'#@;##$$,',,,,,')'!)!!!!!!!!!!!!!!!!!!!!!!!!!!!!!!!!!!!!!!!!!!!!!!!!!!!!!!)&=...               ",
"                ....%-)))!)!!!!!'@@;@##$'',,,,')))!!!!!!!!!!!!!!!!!!!!!!!!!!!!!!!!!!!!!!!!!!!!!!!!!!!!!!!!!-=%..                ",
"                 ....%,''!!!!!!'#@;@#$$,'',,,,'''!)!!!!!!!!!!!!!!!!!!!!!!!!!!!!!!!!!!!!!!!!!!!!!!!!!!!!!!!>&-..                 ",
"                  ...+=')))!!!'@@;@##$,'',,,''!'!!!!!!!!!!!!!!!!!!!!!!!!!!!!!!!!!!!!!!!!!!!!!!!!!!!!!!!!!,&=...                 ",
"                  ....%-')!!!'#@;@#$$''',,,''')!)!!!!!!!!!!!!!!!!!!!!!!!!!!!!!!!!!!!!!!!!!!!!!!!!!!!!!!!)&=%..                  ",
"                   ....&-')),@@;@##$,',,,,'''!)!!!!!!!!!!!!!!!!!!!!!!!!!!!!!!!!!!!!!!!!!!!!!!!!!!!!!!!!!-&=..                   ",
"                    ....&,),#@;@#$$,'',,,,''!)!!!!!!!!!!!!!!!!!!!!!!!!!!!!!!!!!!!!!!!!!!!!!!!!!!!!!!!!!>&-...                   ",
"                     ...+=>@#;###$,),,,,'')!)!!!!!!!!!!!!!!!!!!!!!!!!!!!!!!!!!!!!!!!!!!!!!!!!!!!!!!!!!,&-...                    ",
"                     ....+$#*##$$'',,,,,')'!!!!!!!!!!!!!!!!!!!!!!!!!!!!!!!!!!!!!!!!!!!!!!!!!!!!!!!!!!>%-...                     ",
"                      .....$##$$,'',,,''))!)!!!!!!!!!!!!!!!!!!!!!!!!!!!!!!!!!!!!!!!!!!!!!!!!!!!!!!!!,&-+..                      ",
"                       .....$$$,',,,,,,!')!!!!!!!!!!!!!!!!!!!!!!!!!!!!!!!!!!!!!!!!!!!!!!!!!!!!!!!!!>&=%..                       ",
"                        ......;,,,,,''')!!!!!!!!!!!!!!!!!!!!!!!!!!!!!!!!!!!!!!!!!!!!!!!!!!!!!!!!!!,%-%..                        ",
"                         ....+%-,,,,''!!'!!!!!!!!!!!!!!!!!!!!!!!!!!!!!!!!!!!!!!!!!!!!!!!!!!!!!!!),&-+...                        ",
"                          .....%->,''!)!!!!!!!!!!!!!!!!!!!!!!!!!!!!!!!!!!!!!!!!!!!!!!!!!!!!!!!!)-&-...                          ",
"                           ...+.+-;,)'!!!!!!!!!!!!!!!!!!!!!!!!!!!!!!!!!!!!!!!!!!!!!!!!!!!!!!!!>&&-...                           ",
"                            ...+.+&>)!)!!!!!!!!!!!!!!!!!!!!!!!!!!!!!!!!!!!!!!!!!!!!!!!!!!!!!)-%==...                            ",
"                             ......+;''!!!!!!!!!!!!!!!!!!!!!!!!!!!!!!!!!!!!!!!!!!!!!!!!!!!!>&%-+...                             ",
"                               ......&;!)!!!!!!!!!!!!!!!!!!!!!!!!!!!!!!!!!!!!!!!!!!!!!!!!)-%==....                              ",
"                                ......%;>))!!!!!!!!!!!!!!!!!!!!!!!!!!!!!!!!!!!!!!!!!!!!)-&&-+...                                ",
"                                 .......%&-'!!!!!!!!!!!!!!!!!!!!!!!!!!!!!!!!!!!!!!!!!)-&%==....                                 ",
"                                   ....+..+&-'!!!!!!!!!!!!!!!!!!!!!!!!!!!!!!!!!!!!),-&%==....                                   ",
"                                     ....+..+%-,)!!!!!!!!!!!!!!!!!!!!!!!!!!!!!!!'-&%&=&.....                                    ",
"                                      ........+%&-,')!!!!!!!!!!!!!!!!!!!!!!!)),-&+==&.....                                      ",
"                                         ........++%&-,'))!!!!!!!!!!!!!))),-&%+===......                                        ",
"                                           .......%..++%%&-,')))))))),-&%%+%===.......                                          ",
"                                             .........++..++%%%%%%%%%%&===&+.......                                             ",
"                                                ............+%%&%&&&&%..........                                                ",
"                                                    ........................                                                    ",
"                                                          ............                                                          ",
"                                                                                                                                ",
"                                                                                                                                ",
"                                                                                                                                ",
"                                                                                                                                ",
"                                                                                                                                ",
"                                                                                                                                ",
"                                                                                                                                ",
"                                                                                                                                ",
"                                                                                                                                ",
"                                                                                                                                "};
