/* XPM */
char * circle3points_xpm[] = {
"128 128 17 1",
" 	c None",
".	c #000000",
"+	c #560105",
"@	c #171917",
"#	c #720201",
"$	c #7F0000",
"%	c #323331",
"&	c #4B4744",
"*	c #9E4443",
"=	c #706866",
"-	c #888683",
";	c #BF8081",
">	c #B4AEAC",
",	c #C4C0BE",
"'	c #D3D5D2",
")	c #E9E7E5",
"!	c #FDFFFC",
"                                                                                                                                ",
"                                                                                                                                ",
"                                                                                                                                ",
"                                                                                                                                ",
"                                                                                                                                ",
"                                                                                                                                ",
"                                                                                                                                ",
"                                                       ...................                                                      ",
"                                                  ....@&&=&%......%&&=%%......                                                  ",
"                                               ...%=&%.......@@%%%@@......%%@.....                                              ",
"                                            ...&=&....@@%%%%%-,,,'>-%%%%@@....@@.....                                           ",
"                                          ..&=&...@@%&-,,,,,''''''''',,,>-%%@@...@@....                                         ",
"                                        .@==...@%%->,,'''''',''''''''''''',,>-%%@...@....                                       ",
"                                      .%==...@&-,')'''''''''',''''''''''',',',,>=%%@..@....                                     ",
"                          #         .@-&..@%&-,''''''',''''''''''')')')'''''''''',>=%@.......        #                          ",
"                      #$##$####   ..==..@&->'''''','''''')''))))))))))))))))''''','',=%@......   ###$$####                      ",
"                    $$#$$#$$####+.&-..@&-,''''','',''''''))))))))!)!)!)!))))))))''''''>-%@.....+$$$$#$$$####                    ",
"                   $#$$$$$$$$$$#++&..%-'')''''',''''))))!))!)!!!)!!)!!!)!)!!)!)))))'''''>-%@..+#$$$$$$$$#####                   ",
"                  $#$$*;;;**$$#$##+@%>'''''',''')'))))!)!)!!!!!!!!!!!!!!!!!!!)!!)!))))''',,=%+##$*;;;**$$####+                  ",
"                  #$$;,,;;**#$$##+#&>,'',',''''')))))!)!!!!!!!!!!!!!!!!!!!!!!!!!)!!)!))))),,=#$$;,,;;**#$$#+##                  ",
"                 $#$*,;;$$$$$$$####*>,,,'''''))))!!!)!!!!!!!!!!!!!!!!!!!!!!!!!!!!!!)!!!)))),*#$*,;;$$$$$$$$##++                 ",
"                 #$$;)**$$$$$$$$$+#+->>,,'')))!!)!!!!!!!!!!!!!!!!!!!!!!!!!!!!!!!!!!!!!!!!))>#$$;)**$$$$$$$$###+                 ",
"                 $$$;;*$$$$$$$$$$###=>>,,')))!)!)!!!!!!!!!!!!!!!!!!!!!!!!!!!!!!!!!!!!!!!!!);$$$;;$$$$$$$$$$####+                ",
"                #$$$;*$$$$$$$$$$#$++*->,,)))!)!!!!!!!!!!!!!!!!!!!!!!!!!!!!!!!!!!!!!!!!!!!!!;#$$;**$$$$$$$$$$#+++                ",
"                ##$$;*$$$$$$$$$$$##+*-,,'))!!!!!!!!!!!!!!!!!!!!!!!!!!!!!!!!!!!!!!!!!!!!!!!);#$$;*$$$$$$$$$$#$#++                ",
"                ##$$**$$$$$$$$$$###+&>,,')!)!!!!!!!!!!!!!!!!!!!!!!!!!!!!!!!!!!!!!!!!!!!!!!);$$$**$$$$$$$$$#$##++                ",
"                 #$$$*$$$$$$$$$$###+*>>,'))!!!!!!!!!!!!!!!!!!!!!!!!!!!!!!!!!!!!!!!!!!!!!!!);##$$$$$$$$$$$$$##+++                ",
"                 ##$$$$$$$$$$$$###++=>,,'))!!!!!!!!!!!!!!!!!!!!!!!!!!!!!!!!!!!!!!!!!!!!!!!!,$#$$$$$$$$$$$$$##++                 ",
"                 $##$$$$$$$$$$$##++*-,,''))!!!!!!!!!!!!!!!!!!!!!!!!!!!!!!!!!!!!!!!!!!!!!!!!)*###$$$$$$$$$$###++                 ",
"                  ###$$$$$$$$$####+=>,,'')!)!!!!!!!!!!!!!!!!!!!!!!!!!!!!!!!!!!!!!!!!!!!!!!!)>#$##$$$$$$$##$++++                 ",
"                  +###$#$$$#####++*->>,'')!!!!!!!!!!!!!!!!!!!!!!!!!!!!!!!!!!!!!!!!!!!!!!!!!!)*####$$$##$##+#++                  ",
"                  @+##########++++-,>,,')))!!!!!!!!!!!!!!!!!!!!!!!!!!!!!!!!!!!!!!!!!!!!!!!!!!,*######$####+++..                 ",
"                 .&&+++#####++#+=->,,,,')!)!!!!!!!!!!!!!!!!!!!!!!!!!!!!!!!!!!!!!!!!!!!!!!!!!!!,;+####+#+++++...                 ",
"                 .-.@&*+++#++++*>>>>,,''))!!!!!!!!!!!!!!!!!!!!!!!!!!!!!!!!!!!!!!!!!!!!!!!!!!))),;*+++#+#++&%....                ",
"                .=..&>>;=*+=*-->>,,,,''))!!!!!!!!!!!!!!!!!!!!!!!!!!!!!!!!!!!!!!!!!!!!!!!!!!!!!))'>>;&*=*->>=.....               ",
"                @=.%>,>>-->->>>,>,,,''))!)!!!!!!!!!!!!!!!!!!!!!!!!!!!!!!!!!!!!!!!!!!!!!!!!!!!!!!)',,>>>>>>>>%....               ",
"               .=.@-',,,>>>>,,,,,,''''))!!!!!!!!!!!!!!!!!!!!!!!!!!!!!!!!!!!!!!!!!!!!!!!!!!!!!!!)!))),,,,,>,>-%....              ",
"               %=.&,'',,,,,,',,'''''))!)!!!!!!!!!!!!!!!!!!!!!!!!!!!!!!!!!!!!!!!!!!!!!!!!!!!!!!!)!))))'''',''>=@...              ",
"              .=.@-)'',,'''''''''')))!!!!!!!!!!!!!!!!!!!!!!!!!!!!!!!!!!!!!!!!!!!!!!!!!!!!!!!!!!!!)!)))''''''',%....             ",
"              @=.&''''''''))))))))!)!)!!!!!!!!!!!!!!!!!!!!!!!!!!!!!!!!!!!!!!!!!!!!!!!!!!!!!!!!!!!!!)))))))))))-@@..             ",
"             .=.@=)'',''')!)!)!)!)!)!!!!!!!!!!!!!!!!!!!!!!!!!!!!!!!!!!!!!!!!!!!!!!!!!!!!!!!!!!!!!!!!!!!!)!!)!)'%....            ",
"             .=.%,'''''))!)!)!!!)!!!!!!!!!!!!!!!!!!!!!!!!!!!!!!!!!!!!!!!!!!!!!!!!!!!!!!!!!!!!!!!!!!!!!)!!)!!)!)-@@..            ",
"            .&@.&,'''''))!)!!!!!!!!!!!!!!!!!!!!!!!!!!!!!!!!!!!!!!!!!!!!!!!!!!!!!!!!!!!!!!!!!!!!!!!!!!!!!!!!!!!!,%...            ",
"            .=.@-'',,')))!!!!!!!!!!!!!!!!!!!!!!!!!!!!!!!!!!!!!!!!!!!!!!!!!!!!!!!!!!!!!!!!!!!!!!!!!!!!!!!!!!!!!!'&....           ",
"            .&.&,)'''')!!!!!!!!!!!!!!!!!!!!!!!!!!!!!!!!!!!!!!!!!!!!!!!!!!!!!!!!!!!!!!!!!!!!!!!!!!!!!!!!!!!!!!!!)-@...           ",
"           .&..-'',''')!)!!!!!!!!!!!!!!!!!!!!!!!!!!!!!!!!!!!!!!!!!!!!!!!!!!!!!!!!!!!!!!!!!!!!!!!!!!!!!!!!!!!!!!!)&...           ",
"           .=.%,'',')))!!!!!!!!!!!!!!!!!!!!!!!!!!!!!!!!!!!!!!!!!!!!!!!!!!!!!!!!!!!!!!!!!!!!!!!!!!!!!!!!!!!!!!!!!)-@...          ",
"           .&.%'''''')!)!!!!!!!!!!!!!!!!!!!!!!!!!!!!!!!!!!!!!!!!!!!!!!!!!!!!!!!!!!!!!!!!!!!!!!!!!!!!!!!!!!!!!!!!!,@@..          ",
"           %.@-'',''))!!!!!!!!!!!!!!!!!!!!!!!!!!!!!!!!!!!!!!!!!!!!!!!!!!!!!!!!!!!!!!!!!!!!!!!!!!!!!!!!!!!!!!!!!!!'%@..          ",
"          .&.@>'''')'!)!!!!!!!!!!!!!!!!!!!!!!!!!!!!!!!!!!!!!!!!!!!!!!!!!!!!!!!!!!!!!!!!!!!!!!!!!!!!!!!!!!!!!!!!!!)&...          ",
"          .=.%,),,'')!)!!!!!!!!!!!!!!!!!!!!!!!!!!!!!!!!!!!!!!!!!!!!!!!!!!!!!!!!!!!!!!!!!!!!!!!!!!!!!!!!!!!!!!!!!!)-@...         ",
"          .&.&'''''))!!!!!!!!!!!!!!!!!!!!!!!!!!!!!!!!!!!!!!!!!!!!!!!!!!!!!!!!!!!!!!!!!!!!!!!!!!!!!!!!!!!!!!!!!!!!!,@%..         ",
"          @.@-'''''))!!!!!!!!!!!!!!!!!!!!!!!!!!!!!!!!!!!!!!!!!!!!!!!!!!!!!!!!!!!!!!!!!!!!!!!!!!!!!!!!!!!!!!!!!!!!!)%@..         ",
"         .%.@>''''))!)!!!!!!!!!!!!!!!!!!!!!!!!!!!!!!!!!!!!!!!!!!!!!!!!!!!!!!!!!!!!!!!!!!!!!!!!!!!!!!!!!!!!!!!!!!!!)%...         ",
"         .&.%,''''))!)!!!!!!!!!!!!!!!!!!!!!!!!!!!!!!!!!!!!!!!!!!!!!!!!!!!!!!!!!!!!!!!!!!!!!!!!!!!!!!!!!!!!!!!!!!!!)&...         ",
"         .=.%,''''))!!!!!!!!!!!!!!!!!!!!!!!!!!!!!!!!!!!!!!!!!!!!!!!!!!!!!!!!!!!!!!!!!!!!!!!!!!!!!!!!!!!!!!!!!!!!!!!-@...        ",
"         .&.%,','')!!!!!!!!!!!!!!!!!!!!!!!!!!!!!!!!!!!!!!!!!!!!!!!!!!!!!!!!!!!!!!!!!!!!!!!!!!!!!!!!!!!!!!!!!!!!!!!!,@...        ",
"         .%.%,'''))!)!!!!!!!!!!!!!!!!!!!!!!!!!!!!!!!!!!!!!!!!!!!!!!!!!!!!!!!!!!!!!!!!!!!!!!!!!!!!!!!!!!!!!!!!!!!!!!)%@..        ",
"         .@.%'''')))!!!!!!!!!!!!!!!!!!!!!!!!!!!!!!!!!!!!!!!!!!!!!!!!!!!!!!!!!!!!!!!!!!!!!!!!!!!!!!!!!!!!!!!!!!!!!!!'%&..        ",
"         ..@-'','')!!!!!!!!!!!!!!!!!!!!!!!!!!!!!!!!!!!!!!!!!!!!!!!!!!!!!!!!!!!!!!!!!!!!!!!!!!!!!!!!!!!!!!!!!!!!!!!!)%&..        ",
"         ..@>'''))))!!!!!!!!!!!!!!!!!!!!!!!!!!!!!!!!!!!!!!!!!!!!!!!!!!!!!!!!!!!!!!!!!!!!!!!!!!!!!!!!!!!!!!!!!!!!!!!)%&..        ",
"         ..%,'''')!!!!!!!!!!!!!!!!!!!!!!!!!!!!!!!!!!!!!!!!!!!!!!!!!!!!!!!!!!!!!!!!!!!!!!!!!!!!!!!!!!!!!!!!!!!!!!!!!)%&..        ",
"         .@%,''''))!!!!!!!!!!!!!!!!!!!!!!!!!!!!!!!!!!!!!!!!!!!!!!!!!!!!!!!!!!!!!!!!!!!!!!!!!!!!!!!!!!!!!!!!!!!!!!!!)%&..        ",
"         .%@>'''')!)!!!!!!!!!!!!!!!!!!!!!!!!!!!!!!!!!!!!!!!!!!!!!!!!!!!!!!!!!!!!!!!!!!!!!!!!!!!!!!!!!!!!!!!!!!!!!!!)%%..        ",
"         .&@-''''))!!!!!!!!!!!!!!!!!!!!!!!!!!!!!!!!!!!!!!!!!!!!!!!!!!!!!!!!!!!!!!!!!!!!!!!!!!!!!!!!!!!!!!!!!!!!!!!!)%%..        ",
"         .&.%,''))!!!!!!!!!!!!!!!!!!!!!!!!!!!!!!!!!!!!!!!!!!!!!!!!!!!!!!!!!!!!!!!!!!!!!!!!!!!!!!!!!!!!!!!!!!!!!!!!!)%%..        ",
"         .=.%,'')))!!!!!!!!!!!!!!!!!!!!!!!!!!!!!!!!!!!!!!!!!!!!!!!!!!!!!!!!!!!!!!!!!!!!!!!!!!!!!!!!!!!!!!!!!!!!!!!!)%&..        ",
"         .&.%>''')!)!!!!!!!!!!!!!!!!!!!!!!!!!!!!!!!!!!!!!!!!!!!!!!!!!!!!!!!!!!!!!!!!!!!!!!!!!!!!!!!!!!!!!!!!!!!!!!!)%%..        ",
"         .%.%,'')))!!!!!!!!!!!!!!!!!!!!!!!!!!!!!!!!!!!!!!!!!!!!!!!!!!!!!!!!!!!!!!!!!!!!!!!!!!!!!!!!!!!!!!!!!!!!!!!!,%%..        ",
"         .@.%>,'')!)!!!!!!!!!!!!!!!!!!!!!!!!!!!!!!!!!!!!!!!!!!!!!!!!!!!!!!!!!!!!!!!!!!!!!!!!!!!!!!!!!!!!!!!!!!!!!!!>&..         ",
"         ...@>'')))!!!!!!!!!!!!!!!!!!!!!!!!!!!!!!!!!!!!!!!!!!!!!!!!!!!!!!!!!!!!!!!!!!!!!!!!!!!!!!!!!!!!!!!!!!!!!!!)&=..         ",
"          .@@-,'''!)!!!!!!!!!!!!!!!!!!!!!!!!!!!!!!!!!!!!!!!!!!!!!!!!!!!!!!!!!!!!!!!!!!!!!!!!!!!!!!!!!!!!!!!!!!!!!!'%=..         ",
"          .%.%,''))!!!!!!!!!!!!!!!!!!!!!!!!!!!!!!!!!!!!!!!!!!!!!!!!!!!!!!!!!!!!!!!!!!!!!!!!!!!!!!!!!!!!!!!!!!!!!!!'%=..         ",
"          .%.%,,'))!)!!!!!!!!!!!!!!!!!!!!!!!!!!!!!!!!!!!!!!!!!!!!!!!!!!!!!!!!!!!!!!!!!!!!!!!!!!!!!!!!!!!!!!!!!!!!!,%%..         ",
"          .@.@>,'')!!!!!!!!!!!!!!!!!!!!!!!!!!!!!!!!!!!!!!!!!!!!!!!!!!!!!!!!!!!!!!!!!!!!!!!!!!!!!!!!!!!!!!!!!!!!!!!-&..          ",
"          ....-''))))!!!!!!!!!!!!!!!!!!!!!!!!!!!!!!!!!!!!!!!!!!!!!!!!!!!!!!!!!!!!!!!!!!!!!!!!!!!!!!!!!!!!!!!!!!!!)&=..          ",
"           .%.%,''))!!!!!!!!!!!!!!!!!!!!!!!!!!!!!!!!!!!!!!!!!!!!!!!!!!!!!!!!!!!!!!!!!!!!!!!!!!!!!!!!!!!!!!!!!!!!!'%=..          ",
"           .@.%>''))!!!!!!!!!!!!!!!!!!!!!!!!!!!!!!!!!!!!!!!!!!!!!!!!!!!!!!!!!!!!!!!!!!!!!!!!!!!!!!!!!!!!!!!!!!!!!-&%..          ",
"           ...@=''')!)!!!!!!!!!!!!!!!!!!!!!!!!!!!!!!!!!!!!!!!!!!!!!!!!!!!!!!!!!!!!!!!!!!!!!!!!!!!!!!!!!!!!!!!!!!)&=..           ",
"           ..@.%,')))!!!!!!!!!!!!!!!!!!!!!!!!!!!!!!!!!!!!!!!!!!!!!!!!!!!!!!!!!!!!!!!!!!!!!!!!!!!!!!!!!!!!!!!!!!!'%=..           ",
"            ...%>,'))!!!!!!!!!!!!!!!!!!!!!!!!!!!!!!!!!!!!!!!!!!!!!!!!!!!!!!!!!!!!!!!!!!!!!!!!!!!!!!!!!!!!!!!!!!!-&%..           ",
"            ....=''))!)!!!!!!!!!!!!!!!!!!!!!!!!!!!!!!!!!!!!!!!!!!!!!!!!!!!!!!!!!!!!!!!!!!!!!!!!!!!!!!!!!!!!!!!!'&-..            ",
"             .@.%>'')!)!!!!!!!!!!!!!!!!!!!!!!!!!!!!!!!!!!!!!!!!!!!!!!!!!!!!!!!!!!!!!!!!!!!!!!!!!!!!!!!!!!!!!!!!-%=..            ",
"             ...@=''))!!!!!!!!!!!!!!!!!!!!!!!!!!!!!!!!!!!!!!!!!!!!!!!!!!!!!!!!!!!!!!!!!!!!!!!!!!!!!!!!!!!!!!!!)&=...            ",
"             ..@.&>''))!!!!!!!!!!!!!!!!!!!!!!!!!!!!!!!!!!!!!!!!!!!!!!!!!!!!!!!!!!!!!!!!!!!!!!!!!!!!!!!!!!!!!!!-%=..             ",
"              ...@='))!!!!!!!!!!!!!!!!!!!!!!!!!!!!!!!!!!!!!!!!!!!!!!!!!!!!!!!!!!!!!!!!!!!!!!!!!!!!!!!!!!!!!!!)&=...             ",
"              ....%,''))!!!!!!!!!!!!!!!!!!!!!!!!!!!!!!!!!!!!!!!!!!!!!!!!!!!!!!!!!!!!!!!!!!!!!!!!!!!!!!!!!!!!!-@=..              ",
"               ...@=')))!!!!!!!!!!!!!!!!!!!!!!!!!!!!!!!!!!!!!!!!!!!!!!!!!!!!!!!!!!!!!!!!!!!!!!!!!!!!!!!!!!!!)&=...              ",
"               ....%>'))))!!)!!!!!!!!!!!!!!!!!!!!!!!!!!!!!!!!!!!!!!!!!!!!!!!!!!!!!!!!!!!!!!!!!!!!!!!!!!!!!!!-%=..               ",
"                ...@=',,;;;;;,)!!!!!!!!!!!!!!!!!!!!!!!!!!!!!!!!!!!!!!!!!!!!!!!!!!!!!!!!!!!!!!!!!!!!!!!!!!!!)&-...               ",
"                ....%;*##$##$#*,)!!!!!!!!!!!!!!!!!!!!!!!!!!!!!!!!!!!!!!!!!!!!!!!!!!!!!!!!!!!!!!!!!!!!!!!!!!-&%..                ",
"                 ...+##$#$$#####;')!!!!!!!!!!!!!!!!!!!!!!!!!!!!!!!!!!!!!!!!!!!!!!!!!!!!!!!!!!!!!!!!!!!!!!!,&-..                 ",
"                  .+##$$$$$$$####;,)!)!!!!!!!!!!!!!!!!!!!!!!!!!!!!!!!!!!!!!!!!!!!!!!!!!!!!!!!!!!!!!!!!!!!,%-...                 ",
"                  +#$$*;;;**$$$###;))!!!!!!!!!!!!!!!!!!!!!!!!!!!!!!!!!!!!!!!!!!!!!!!!!!!!!!!!!!!!!!!!!!!)&=%..                  ",
"                  $$$;),;;**$#$#+#+;)))!!!!!!!!!!!!!!!!!!!!!!!!!!!!!!!!!!!!!!!!!!!!!!!!!!!!!!!!!!!!!!!!!-&-..                   ",
"                 ##$*);**$$$$$$$$#+*,)))!!!!!!!!!!!!!!!!!!!!!!!!!!!!!!!!!!!!!!!!!!!!!!!!!!!!!!!!!!!!!!!>&=...                   ",
"                 $$$;,**$$$$$$$####+>))))!!!!!!!!!!!!!!!!!!!!!!!!!!!!!!!!!!!!!!!!!!!!!!!!!!!!!!!!!!!!!>&-...                    ",
"                 #$$;;*$$$$$$$$$###+;'')!)!!!!!!!!!!!!!!!!!!!!!!!!!!!!!!!!!!!!!!!!!!!!!!!!!!!!!!!!!!),&-...                     ",
"                ##$$;;$$$$$$$$$$$##+=>'))!!!!!!!!!!!!!!!!!!!!!!!!!!!!!!!!!!!!!!!!!!!!!!!!!!!!!!!!!!!,&=@..                      ",
"                #$$$**$$$$$$$$$$##+#*>'')))!!!!!!!!!!!!!!!!!!!!!!!!!!!!!!!!!!!!!!!!!!!!!!!!!!!!!!!!,%-%..                       ",
"                ##$$**$$$$$$$$$$$$+#=>,'))!!!!!!!!!!!!!!!!!!!!!!!!!!!!!!!!!!!!!!!!!!!!!!!!!!!!!!!!>&-%..                        ",
"                 #$$$*$$$$$$$$$$###+=,,''))!!!!!!!!!!!!!!!!!!!!!!!!!!!!!!!!!!!!!!!!!!!!!!!!!!!!!),&-@...                        ",
"                 ##$$$$$$$$$$$#$#+#+;>,'))!!!!!!!!!!!!!!!!!!!!!!!!!!!!!!!!!!!!!!!!!!!!!!!!!!!!!)-&-...                          ",
"                 ###$$$$$$$$$$$###++>,,,')))!!!!!!!!!!!!!!!!!!!!!!!!!!!!!!!!!!!!!!!!!!!!!!!!!!>&&=...                           ",
"                  ###$$$$$$$$$$#+#+=>>,'')!!!!!!!!!!!!!!!!!!!!!!!!!!!!!!!!!!!!!!!!!!!!!!!!!!)-%==...                            ",
"                  ######$$$###+#+++@&->,)))!!!!!!!!!!!!!!!!!!!!!!!!!!!!!!!!!!!!!!!!!!!!!!!!>&%-@...                             ",
"                   +#######$##++++..@%-,')!)!!!!!!!!!!!!!!!!!!!!!!!!!!!!!!!!!!!!!!!!!!!!!)-%==....                              ",
"                    #+#+###+#+#++.....%=>'!)!!!!!!!!!!!!!!!!!!!!!!!!!!!!!!!!!!!!!!!!!!!)-%&-@...                                ",
"                      #+#+#+++++ ......@%%-'!!!!!!!!!!!!!!!!!!!!!!!!!!!!!!!!!!!!!!!!!)-&%-&....                                 ",
"                        ++++++     ....@..@&-')!!!!!!!!!!!!!!!!!!!!!!!!!!!!!!!!!!!)'-&%==....                                   ",
"                                    .....@..@&-,)!!!!!!!!!!!!!!!!!!!!!!!!!!!!!!!'-&%%==.....                                    ",
"                                      ........@%%-,')!!!!!!!!!!!!!!!!!!!!!!!)',-&%&-%.....                                      ",
"                                         ........@@%&-,'))!!!!!!!!!!!!!!)',-&%@===......                                        ",
"                                           .......%..@@%%&-,')')))))),-&%&@%==&.......                                          ",
"                                             ........@@@..@@%%%%%%%%%%&===&@.......                                             ",
"                                                ............@%&%&&%&&%..........                                                ",
"                                                    ........................                                                    ",
"                                                          ............                                                          ",
"                                                                                                                                ",
"                                                                                                                                ",
"                                                                                                                                ",
"                                                                                                                                ",
"                                                                                                                                ",
"                                                                                                                                ",
"                                                                                                                                ",
"                                                                                                                                ",
"                                                                                                                                ",
"                                                                                                                                "};
