/* XPM */
char * circletantantan_xpm[] = {
"128 128 17 1",
" 	c None",
".	c #000000",
"+	c #2C0202",
"@	c #570204",
"#	c #710202",
"$	c #7F0000",
"%	c #2C2D2B",
"&	c #4C4B48",
"*	c #9C4746",
"=	c #895A59",
"-	c #676865",
";	c #898482",
">	c #C08181",
",	c #B4AFAC",
"'	c #D2D2CF",
")	c #E6E8E5",
"!	c #FDFFFC",
"                                                                                                                                ",
"                                                                                                                                ",
"                                                                                                                                ",
"                                                                                                                                ",
"                                                                                                                                ",
"                                                                                                                                ",
"                                                                                                                                ",
"                                                                                                                                ",
"                                                                                                                                ",
"                                                                                                                                ",
"                                                                                                                                ",
"                                                                                                                                ",
"                                                                                                                                ",
"                                        ...                                                                                     ",
"                                        .......                                                                                 ",
"                                        ..--.......                        #                                                    ",
"                             ....       ....%%%.......                 $#$######                                                ",
"                             ....       .........%........           $#$$$$$$#####                                              ",
"                            ..%..         ...........%........      $$#$$$$$$$####@                                             ",
"                            .&&..             ...........%.......  ##$$*>>>**$$$###@                                            ",
"                            .&...                .................+#$$>',>>*#$$#####                                            ",
"                            .-...                  .....%&-&-&&&%%@$$*)>**$$$$$$$$@#@                                           ",
"                           ..-...               ...%-&&..........+#$$>'*$$$$$$$$$$##@                                           ",
"                           ..&..              ..%--..............+$$$>>*$$$$$$$$#$#@#@                                          ",
"                           .%...            .%--........   ;;;;,;@#$$>>$$$$$$$$$$$#@@@                                          ",
"                           .&...          .%--......  ,''''')''''>$$$>*$$$$$$$$$#$$##+..                                        ",
"                           .-...        .%--.....  ''''''''''''',=#$$*$$$$$$$$$$$##@@+.....                                     ",
"                          ..-...      ..--..... ''''''''''''''')'>$#$$*$$$$$$$$$$$##@+.........                                 ",
"                          ..%..      .&;....  '')''''''''')')))))>##$$$$$$$$$$$#$##@@.............                              ",
"                          .%...     .--.... )')'''''''''')))))))!'*##$$$$$$$$$$$###@@........%........                          ",
"                          .-...   ..;%... '')''''''''))))))!!)!!)),###$$$$$$$$$$#@#@=%...........%........                      ",
"                         ..-...  .%;.... ')'''''')')))))!!!)!!!!!!)*####$#$$$####@@=;,;.............%........                   ",
"                         ..&..  .&;... ')'''''''')))!)!!!!!!!!!!!!!'*@########@@@#@;,;,,%...............%........               ",
"                         ..... .&;... ))''''''')))!)!!)!!!!!!!!!!!!!'=###@###@#@@=;,,,,,,;.....  ...........%........           ",
"                         .&....%;... )''''''')))))!!!!!!!!!!!!!!!!!))'>=@#@@@@@@=,,,,,,',',.....     ..........%.......         ",
"                         .-...%;...,)''''''')))!!!!!!!!!!!!!!!!!!!!!!)',,==*==>,,,,,,,''')''%.%..       ...............         ",
"                        ..-...;...,')'''''))))!!!!!!!!!!!!!!!!!!!!!!!))''',,,,,,,,'''''')))''.....          ...........         ",
"                        ..%..;...,)''''''))!)!!!!!!!!!!!!!!!!!!!!!!!!!!)'''''',',','''))))!)),.....             .......         ",
"                        .%..-%..;')''''')))!!)!!!!!!!!!!!!!!!!!!!!!!!)!!))'''''''''''))!!)!)))-....                .            ",
"                        .-.%;..&)''''''))!!)!!!!!!!!!!!!!!!!!!!!!!!!!!!)!))')'''''))))!)!!!!!))-....                            ",
"                       ..-.;...))'''''))!)!!!!!!!!!!!!!!!!!!!!!!!!!!!!!!!)!)))))))))!!!!!!!!!!))&....                           ",
"                       ...-%..')'''')))!)!!!!!!!!!!!!!!!!!!!!!!!!!!!!!!!!!!)!!))))!!!)!!!!!!!!)),%...                           ",
"                       ...;..;'''''')))!!!!!!!!!!!!!!!!!!!!!!!!!!!!!!!!!!!!!!!!!!!)!!!!!!!!!!!!))-....                          ",
"                       ..-..%))''''')!!)!!!!!!!!!!!!!!!!!!!!!!!!!!!!!!!!!!!!!!!!!!!!!!!!!!!!!!!!!'%...                          ",
"                       ..-..,'''''))))!!!!!!!!!!!!!!!!!!!!!!!!!!!!!!!!!!!!!!!!!!!!!!!!!!!!!!!!!!!);....                         ",
"                      ..-..%))''''))!!!!!!!!!!!!!!!!!!!!!!!!!!!!!!!!!!!!!!!!!!!!!!!!!!!!!!!!!!!!!)'%...                         ",
"                      ..-..,''''''))!!!!!!!!!!!!!!!!!!!!!!!!!!!!!!!!!!!!!!!!!!!!!!!!!!!!!!!!!!!!!!);....                        ",
"                      .&..%)'''')))!!!!!!!!!!!!!!!!!!!!!!!!!!!!!!!!!!!!!!!!!!!!!!!!!!!!!!!!!!!!!!!)'%...                        ",
"                     @@=++,''''')))!!!!!!!!!!!!!!!!!!!!!!!!!!!!!!!!!!!!!!!!!!!!!!!!!!!!!!!!!!!!!!!!!-....                       ",
"                  #$$###@#=>,'''))!!!!!!!!!!!!!!!!!!!!!!!!!!!!!!!!!!!!!!!!!!!!!!!!!!!!!!!!!!!!!!!!!!'%...                       ",
"                $#$$$$######=,'')!!!!!!!!!!!!!!!!!!!!!!!!!!!!!!!!!!!!!!!!!!!!!!!!!!!!!!!!!!!!!!!!!!!);...                       ",
"               $$$$#$$$$$$###*,')!)!!!!!!!!!!!!!!!!!!!!!!!!!!!!!!!!!!!!!!!!!!!!!!!!!!!!!!!!!!!!!!!!!!,%...                      ",
"              $#$$*>>>**$$$###=''!)!!!!!!!!!!!!!!!!!!!!!!!!!!!!!!!!!!!!!!!!!!!!!!!!!!!!!!!!!!!!!!!!!!)%%..                      ",
"              #$$>''>***#$$###@>')!!!!!!!!!!!!!!!!!!!!!!!!!!!!!!!!!!!!!!!!!!!!!!!!!!!!!!!!!!!!!!!!!!!!&...                      ",
"             $$$*'>**$$$$$#$##@*')))!!!!!!!!!!!!!!!!!!!!!!!!!!!!!!!!!!!!!!!!!!!!!!!!!!!!!!!!!!!!!!!!!!-...                      ",
"             #$$>>>*$$$$$$$$$##@,'))!)!!!!!!!!!!!!!!!!!!!!!!!!!!!!!!!!!!!!!!!!!!!!!!!!!!!!!!!!!!!!!!!!'%%..                     ",
"             $$$,>$$$$$$$$$$###@>,')!)!!!!!!!!!!!!!!!!!!!!!!!!!!!!!!!!!!!!!!!!!!!!!!!!!!!!!!!!!!!!!!!!)%%..                     ",
"            ##$$>>$$$$$$$$$$$#@#=''))!!!!!!!!!!!!!!!!!!!!!!!!!!!!!!!!!!!!!!!!!!!!!!!!!!!!!!!!!!!!!!!!!!&...                     ",
"            ##$$>*$$$$$$$$$$###@=,'')))!!!!!!!!!!!!!!!!!!!!!!!!!!!!!!!!!!!!!!!!!!!!!!!!!!!!!!!!!!!!!!!!&...                     ",
"            $#$$**$$$$$$$$$$$#@#=,,')!)!!!!!!!!!!!!!!!!!!!!!!!!!!!!!!!!!!!!!!!!!!!!!!!!!!!!!!!!!!!!!!!!;...                     ",
"             ##$$$$$$$$$$$$$###@='''')!!!!!!!!!!!!!!!!!!!!!!!!!!!!!!!!!!!!!!!!!!!!!!!!!!!!!!!!!!!!!!!!!'%..                     ",
"             ##$$$$$$$$$$$$$##@@;,,''))!!!!!!!!!!!!!!!!!!!!!!!!!!!!!!!!!!!!!!!!!!!!!!!!!!!!!!!!!!!!!!!!!%..                     ",
"             ###$$$$$$$$$$$###@*,,''')!!!!!!!!!!!!!!!!!!!!!!!!!!!!!!!!!!!!!!!!!!!!!!!!!!!!!!!!!!!!!!!!!!&..                     ",
"              ###$$$$$$$$$###@@=,,,'))))!!!!!!!!!!!!!!!!!!!!!!!!!!!!!!!!!!!!!!!!!!!!!!!!!!!!!!!!!!!!!!!)-%.                     ",
"              #####$$$$####@@@=,,'''')!!!!!!!!!!!!!!!!!!!!!!!!!!!!!!!!!!!!!!!!!!!!!!!!!!!!!!!!!!!!!!!!!!&&.                     ",
"               #@#########@#@*;,,,'')))!!!!!!!!!!!!!!!!!!!!!!!!!!!!!!!!!!!!!!!!!!!!!!!!!!!!!!!!!!!!!!!!)-&.                     ",
"                #@#@##@##@@#=;,,,','))!!!!!!!!!!!!!!!!!!!!!!!!!!!!!!!!!!!!!!!!!!!!!!!!!!!!!!!!!!!!!!!!!!&&.                     ",
"                 +@@@@#@@@@=;,,,,''))!)!!!!!!!!!!!!!!!!!!!!!!!!!!!!!!!!!!!!!!!!!!!!!!!!!!!!!!!!!!!!!!!!'-%.                     ",
"                 ..+@+@==-;,,,,','')!!!!!!!!!!!!!!!!!!!!!!!!!!!!!!!!!!!!!!!!!!!!!!!!!!!!!!!!!!!!!!!!!!!;&..                     ",
"                 ..%..%;;;,;,','''))))!!!!!!!!!!!!!!!!!!!!!!!!!!!!!!!!!!!!!!!!!!!!!!!!!!!!!!!!!!!!!!!!!&-..                     ",
"                 .%....;,,,,,,'')))!!!!!!!!!!!!!!!!!!!!!!!!!!!!!!!!!!!!!!!!!!!!!!!!!!!!!!!!!!!!!!!!!!!!&-..                     ",
"                 .&..%.&,;,,''''))!)!!!!!!!!!!!!!!!!!!!!!!!!!!!!!!!!!!!!!!!!!!!!!!!!!!!!!!!!!!!!!!!!!!!&-..                     ",
"                ..-..&.&,,',''')))!!!!!!!!!!!!!!!!!!!!!!!!!!!!!!!!!!!!!!!!!!!!!!!!!!!!!!!!!!!!!!!!!!!!'&%..                     ",
"                ..&..%.%',,''))!!!)!!!!!!!!!!!!!!!!!!!!!!!!!!!!!!!!!!!!!!!!!!!!!!!!!!!!!!!!!!!!!!!!!!)-&..                      ",
"                .%.....%,'''))!!!!!!!!!!!!!!!!!!!!!!!!!!!!!!!!!!!!!!!!!!!!!!!!!!!!!!!!!!!!!!!!!!!!!!!!&-..          ..          ",
"                .&....%.-'''))))!!!!!!!!!!!!!!!!!!!!!!!!!!!!!!!!!!!!!!!!!!!!!!!!!!!!!!!!!!!!!!!!!!!!!!%-..         .....        ",
"                .-....%.&',)))!!!!!!!!!!!!!!!!!!!!!!!!!!!!!!!!!!!!!!!!!!!!!!!!!!!!!!!!!!!!!!!!!!!!!!)'-%..       .......        ",
"               ..-......%,'')!)!!!!!!!!!!!!!!!!!!!!!!!!!!!!!!!!!!!!!!!!!!!!!!!!!!!!!!!!!!!!!!!!!!!!!!;-..       ..%%....        ",
"               ..%.. ..%.-''')!!!!!!!!!!!!!!!!!!!!!!!!!!!!!!!!!!!!!!!!!!!!!!!!!!!!!!!!!!!!!!!!!!!!!!'&-..      ..-&....         ",
"               .%...  .%.%,'))))!!!!!!!!!!!!!!!!!!!!!!!!!!!!!!!!!!!!!!!!!!!!!!!!!!!!!!!!!!!!!!!!!!!!;-...    ...-.....          ",
"               .-...  ....-''))!!!!!!!!!!!!!!!!!!!!!!!!!!!!!!!!!!!!!!!!!!!!!!!!!!!!!!!!!!!!!!!!!!!!'%;..    ..&;....            ",
"              ..-...   .%.%,')))!!!!!!!!!!!!!!!!!!!!!!!!!!!!!!!!!!!!!!!!!!!!!!!!!!!!!!!!!!!!!!!!!!);&%..  ...-&....             ",
"              ..&..    ....-''))!!!!!!!!!!!!!!!!!!!!!!!!!!!!!!!!!!!!!!!!!!!!!!!!!!!!!!!!!!!!!!!!!!'&;..  ..%-.....              ",
"              ..%..     ...%,'))!)!!!!!!!!!!!!!!!!!!!!!!!!!!!!!!!!!!!!!!!!!!!!!!!!!!!!!!!!!!!!!!!!-&%.. ..%-....                ",
"              .&...     ....-''))!!!!!!!!!!!!!!!!!!!!!!!!!!!!!!!!!!!!!!!!!!!!!!!!!!!!!!!!!!!!!!!!'&-.....-%....                 ",
"              .-...      ...%,')))!!!!!!!!!!!!!!!!!!!!!!!!!!!!!!!!!!!!!!!!!!!!!!!!!!!!!!!!!!!!!!);-....%-.....                  ",
"             ..&...      ....&''))!!!!!!!!!!!!!!!!!!!!!!!!!!!!!!!!!!!!!!!!!!!!!!!!!!!!!!!!!!!!!!'&-...&-....                    ",
"             ..&..        ....-')))!!!!!!!!!!!!!!!!!!!!!!!!!!!!!!!!!!!!!!!!!!!!!!!!!!!!!!!!!!!!)&-...-%....                     ",
"             .%...         ...%,'))!!!!!!!!!!!!!!!!!!!!!!!!!!!!!!!!!!!!!!!!!!!!!!!!!)!!!!!!!!!!--%..-.....                      ",
"             .&...         ....&'')!)!!!!!!!!!!!!!!!!!!!!!!!!!!!!!!!!!!!!!!!!!!!)'>>>>>')!!!!!'--..&....                        ",
"            ..-...          ....-''))!!!!!!!!!!!!!!!!!!!!!!!!!!!!!!!!!!!!!!!!!)>*#$#####*,)!!)-;.......                         ",
"            ..&..            ....-'))!!!!!!!!!!!!!!!!!!!!!!!!!!!!!!!!!!!!!!!!)>*#$$$$$#$##>'';;.......                          ",
"            ..%..             ....-'))!!!!!!!!!!!!!!!!!!!!!!!!!!!!!!!!!!!!!!'*$$$$$$$$$$###==;......                            ",
"            .&...             .....-')!)!!!!!!!!!!!!!!!!!!!!!!!!!!!!!!!!!!!)>$$$>>>>**$$$###=%.....                             ",
"            .-...              .....-'))!!!!!!!!!!!!!!!!!!!!!!!!!!!!!!!!!!!>#$$>,'>>**$#$###@+....                              ",
"           ..&...               .....-'))!!!!!!!!!!!!!!!!!!!!!!!!!!!!!!!!!!*$$*)>**$$$$$$###@@..                                ",
"           .....                 .....&,))!!!!!!!!!!!!!!!!!!!!!!!!!!!!!!!!'$$$>'**$$$$$$$$$#@@+                                 ",
"           .....                   ....%-'))!!!!!!!!!!!!!!!!!!!!!!!!!!!!!!>$$$>>*$$$$$$$$$$###+                                 ",
"           .....                    .....%;')!!!!!!!!!!!!!!!!!!!!!!!!!!!!!>#$$>*$$$$$$$$$#$##@@.                                ",
"           .....                     ......&,))!!!!!!!!!!!!!!!!!!!!!!!!!!)>$$$>*$$$$$$$$$$##@@@.                                ",
"           ....                       ......%;,)!)!!!!!!!!!!!!!!!!!!!!!!!)>#$$**$$$$$$$$$$$##@+.                                ",
"                                        ......%--')!!!!!!!!!!!!!!!!!!!!!!!>##$$$$$$$$$$$$$####+.                                ",
"                                          ....%..%--')!)!!!!!!!!!!!!!!!!!),#$$$$$$$$$$$$$$##@@+                                 ",
"                                           ......%..%--'!)!)!!!!!!!!)!';&%&@##$$$$$$$$$$####@@.                                 ",
"                                              .........%%&-&&&-&&&&-&%&&--&+###$$$$$$$$$##@@@+                                  ",
"                                                ........%&&-&&%&%%%&&&%.....@####$$#$$###@#@@                                   ",
"                                                   .%.....................%-%@@##########@@@+                                   ",
"                                                       .%%..........%%&%.%-...@@#######@@@@                                     ",
"                                                                      ..-&.....@@@@@@@@#@+                                      ",
"                                                                    ...-.....   .++@@@++                                        ",
"                                                                   ..%-.....                                                    ",
"                                                                 ...-&....                                                      ",
"                                                                ...;.....                                                       ",
"                                                               ..&-.....                                                        ",
"                                                              ..-&....                                                          ",
"                                                            ..%;.....                                                           ",
"                                                           ..&-....                                                             ",
"                                                          ........                                                              ",
"                                                          .......                                                               ",
"                                                          .....                                                                 ",
"                                                           ...                                                                  ",
"                                                                                                                                ",
"                                                                                                                                ",
"                                                                                                                                ",
"                                                                                                                                ",
"                                                                                                                                ",
"                                                                                                                                ",
"                                                                                                                                "};
