/* XPM */
char * circle2points_xpm[] = {
"128 128 17 1",
" 	c None",
".	c #000000",
"+	c #540002",
"@	c #181917",
"#	c #710202",
"$	c #7F0000",
"%	c #323331",
"&	c #464745",
"*	c #9D4746",
"=	c #6E6A68",
"-	c #878784",
";	c #BF8282",
">	c #B7B1AF",
",	c #C8C4C1",
"'	c #D4D4D1",
")	c #E6E8E5",
"!	c #FDFFFC",
"                                                                                                                                ",
"                                                                                                                                ",
"                                                                                                                                ",
"                                                                                                                                ",
"                                                                                                                                ",
"                                                                                                                                ",
"                                                                                                                                ",
"                                                       ...................                                                      ",
"                                                  ....@&&=&%......%&&=%%......                                                  ",
"                                               ...%=&%.......@@%%%@@......%%@.....                                              ",
"                                            ...&=&....@@%%%%%->,,,>-&%%%@@....@@.....                                           ",
"                                          ..&=&...@@%&->,,,,'''''''',,>>>-%%@@...@@....                                         ",
"                                        .@==...@%&->,'''''','''''''''''',',>>=&%@...@....                                       ",
"                                      .%==...@&->''''''''''''','''''''''',',''>>=%%@..@....                                     ",
"                                    .@-&..@%&-,''''''',''''''''''))))))')'''''','>>=%@.......        #                          ",
"                                  ..==..@&->'''',''','''')''))))))))))))))))')''',''>=%@......   #$##$####                      ",
"                                 .&-..@&-,)''''',,,''''))))))))))))!))!))))))))))''''',=&@.....+$$$$$$$$####                    ",
"                               ..-&..%-,)''',''''''))))))))!!!!!!!!!!!!!!)!!)!))))))''''>=%@..+$$#$$$$$######                   ",
"                              .%-..@&>'''''',',''))')))!!!!)!!!!!!!!!!!!!!!!!)!!))))!))'''>=%+#$$*;;;**$$####+                  ",
"                             .==..%-,')'','''''))))!)!!))!!!!!!!!!!!!!!!!!!!!!!!!!!!))))))'>;#$$;,,;***#$$####                  ",
"                            .-%.@&>')'''','')))))!)!!!!!!!!!!!!!!!!!!!!!!!!!!!!!!!!)!)!)))',*#$*,;;*$$$$$$####+                 ",
"                           .-..%-,)''',,''')))!)!!!!!!!!!!!!!!!!!!!!!!!!!!!!!!!!!!!!!!!)!))>#$$;,*$$$$$$$$$###+                 ",
"                         .@-..&>')'''''''))))!)!)!!!!!!!!!!!!!!!!!!!!!!!!!!!!!!!!!!!!!!!!)!;$$$;;*$$$$$$$$$$+#++                ",
"                        .@-..%>))'''',''))))!!!!!!!!!!!!!!!!!!!!!!!!!!!!!!!!!!!!!!!!!!!!!!);#$$;;$$$$$$$$$$$$##+                ",
"                        @-..&>)''',,'))))!!)!!!!!!!!!!!!!!!!!!!!!!!!!!!!!!!!!!!!!!!!!!!!!!);#$$;*$$$$$$$$$#$#+++                ",
"                       .-..&>)''','')'))!)!!!!!!!!!!!!!!!!!!!!!!!!!!!!!!!!!!!!!!!!!!!!!!!!);$$$**$$$$$$$$$$$##++                ",
"                      .-..&>''',''')))!)!!!!!!!!!!!!!!!!!!!!!!!!!!!!!!!!!!!!!!!!!!!!!!!!!!!;#$$$$$$$$$$$$$$$##++                ",
"                     .-..%>)'''','))))!!!!!!!!!!!!!!!!!!!!!!!!!!!!!!!!!!!!!!!!!!!!!!!!!!!!),##$$$$$$$$$$$$###++                 ",
"                    .=%.&>''',''')')!!!!!!!!!!!!!!!!!!!!!!!!!!!!!!!!!!!!!!!!!!!!!!!!!!!!!!!'*##$$$$$$$$$$$$#+++                 ",
"                   .%=.%>))'',''))!!)!!!!!!!!!!!!!!!!!!!!!!!!!!!!!!!!!!!!!!!!!!!!!!!!!!!!!!!;#$#$$$$$$$$####+++                 ",
"                   .-.@-''''''')')!)!!!!!!!!!!!!!!!!!!!!!!!!!!!!!!!!!!!!!!!!!!!!!!!!!!!!!!!!)*#+$##$$$$#$#++#+                  ",
"                  .=..&'')',',)))!!!!!!!!!!!!!!!!!!!!!!!!!!!!!!!!!!!!!!!!!!!!!!!!!!!!!!!!!!!!,*###########+++..                 ",
"                 .&&.%>)''','))!)!!!!!!!!!!!!!!!!!!!!!!!!!!!!!!!!!!!!!!!!!!!!!!!!!!!!!!!!!!!!),;#+####++++++...                 ",
"                 .-.@-'''''''))!!!!!!!!!!!!!!!!!!!!!!!!!!!!!!!!!!!!!!!!!!!!!!!!!!!!!!!!!!!!!!!),-*++#+#+#+=%....                ",
"                .=..&')',''))))!!!!!!!!!!!!!!!!!!!!!!!!!!!!!!!!!!!!!!!!!!!!!!!!!!!!!!!!!!!!!!!))'>;=*&*=->-=.....               ",
"                @=.%>'''','))!)!!!!!!!!!!!!!!!!!!!!!!!!!!!!!!!!!!!!!!!!!!!!!!!!!!!!!!!!!!!!!!!!!))),>>>>>>>-%....               ",
"               .=.@-)'',''))!)!!!!!!!!!!!!!!!!!!!!!!!!!!!!!!!!!!!!!!!!!!!!!!!!!!!!!!!!!!!!!!!!!!)))'',,,>,,,-%....              ",
"               %=.&,'','''))!!!!!!!!!!!!!!!!!!!!!!!!!!!!!!!!!!!!!!!!!!!!!!!!!!!!!!!!!!!!!!!!!!!!!!)))'',',,,,=@...              ",
"              .=.@-)'','')))!)!!!!!!!!!!!!!!!!!!!!!!!!!!!!!!!!!!!!!!!!!!!!!!!!!!!!!!!!!!!!!!!!!!!)!)))''')''',%....             ",
"              @=.&,)''''))!!!!!!!!!!!!!!!!!!!!!!!!!!!!!!!!!!!!!!!!!!!!!!!!!!!!!!!!!!!!!!!!!!!!!!!!)!))!)))))))-@@..             ",
"             .=.@-'''''')))!!!!!!!!!!!!!!!!!!!!!!!!!!!!!!!!!!!!!!!!!!!!!!!!!!!!!!!!!!!!!!!!!!!!!!!!!!)!!))))!)'%....            ",
"             .=.%>)',''))!!!!!!!!!!!!!!!!!!!!!!!!!!!!!!!!!!!!!!!!!!!!!!!!!!!!!!!!!!!!!!!!!!!!!!!!!!!!!!)!!!!)!)-@@..            ",
"            .&@.&,'','')))!!!!!!!!!!!!!!!!!!!!!!!!!!!!!!!!!!!!!!!!!!!!!!!!!!!!!!!!!!!!!!!!!!!!!!!!!!!!!!!!!!!!),%...            ",
"            .=.@-)''''))!!!!!!!!!!!!!!!!!!!!!!!!!!!!!!!!!!!!!!!!!!!!!!!!!!!!!!!!!!!!!!!!!!!!!!!!!!!!!!!!!!!!!!!)&....           ",
"            .&.&,'',''))!!!!!!!!!!!!!!!!!!!!!!!!!!!!!!!!!!!!!!!!!!!!!!!!!!!!!!!!!!!!!!!!!!!!!!!!!!!!!!!!!!!!!!!)-@...           ",
"           .&.@='''''))!!!!!!!!!!!!!!!!!!!!!!!!!!!!!!!!!!!!!!!!!!!!!!!!!!!!!!!!!!!!!!!!!!!!!!!!!!!!!!!!!!!!!!!!!)&...           ",
"           .=.%,''','))!)!!!!!!!!!!!!!!!!!!!!!!!!!!!!!!!!!!!!!!!!!!!!!!!!!!!!!!!!!!!!!!!!!!!!!!!!!!!!!!!!!!!!!!!)-@...          ",
"           .&.&,',',))!)!!!!!!!!!!!!!!!!!!!!!!!!!!!!!!!!!!!!!!!!!!!!!!!!!!!!!!!!!!!!!!!!!!!!!!!!!!!!!!!!!!!!!!!!!,@@..          ",
"           %.@-)',''))!!!!!!!!!!!!!!!!!!!!!!!!!!!!!!!!!!!!!!!!!!!!!!!!!!!!!!!!!!!!!!!!!!!!!!!!!!!!!!!!!!!!!!!!!!!'%@..          ",
"          .&.@>'','''!)!!!!!!!!!!!!!!!!!!!!!!!!!!!!!!!!!!!!!!!!!!!!!!!!!!!!!!!!!!!!!!!!!!!!!!!!!!!!!!!!!!!!!!!!!!)&...          ",
"          .=.%,'','))!!!!!!!!!!!!!!!!!!!!!!!!!!!!!!!!!!!!!!!!!!!!!!!!!!!!!!!!!!!!!!!!!!!!!!!!!!!!!!!!!!!!!!!!!!!!)-@...         ",
"          .&.&''''')))!!!!!!!!!!!!!!!!!!!!!!!!!!!!!!!!!!!!!!!!!!!!!!!!!!!!!!!!!!!!!!!!!!!!!!!!!!!!!!!!!!!!!!!!!!!!,@%..         ",
"          @.@-'','))!)!!!!!!!!!!!!!!!!!!!!!!!!!!!!!!!!!!!!!!!!!!!!!!!!!!!!!!!!!!!!!!!!!!!!!!!!!!!!!!!!!!!!!!!!!!!!'%@..         ",
"         .%.@>)'''')!!!!!!!!!!!!!!!!!!!!!!!!!!!!!!!!!!!!!!!!!!!!!!!!!!!!!!!!!!!!!!!!!!!!!!!!!!!!!!!!!!!!!!!!!!!!!!)%...         ",
"         .=.%,','')))!!!!!!!!!!!!!!!!!!!!!!!!!!!!!!!!!!!!!!!!!!!!!!!!!!!!!!!!!!!!!!!!!!!!!!!!!!!!!!!!!!!!!!!!!!!!!)&...         ",
"         .&.%,','')!!!!!!!!!!!!!!!!!!!!!!!!!!!!!!!!!!!!!!!!!!!!!!!!!!!!!!!!!!!!!!!!!!!!!!!!!!!!!!!!!!!!!!!!!!!!!!!!-@...        ",
"         .&.%,''')')!!!!!!!!!!!!!!!!!!!!!!!!!!!!!!!!!!!!!!!!!!!!!!!!!!!!!!!!!!!!!!!!!!!!!!!!!!!!!!!!!!!!!!!!!!!!!!!,@...        ",
"         .%.%,','))!)!!!!!!!!!!!!!!!!!!!!!!!!!!!!!!!!!!!!!!!!!!!!!!!!!!!!!!!!!!!!!!!!!!!!!!!!!!!!!!!!!!!!!!!!!!!!!!)%@..        ",
"         .@.%''''))!!!!!!!!!!!!!!!!!!!!!!!!!!!!!!!!!!!!!!!!!!!!!!!!!!!!!!!!!!!!!!!!!!!!!!!!!!!!!!!!!!!!!!!!!!!!!!!!'%&..        ",
"         ..@-'',')))!!!!!!!!!!!!!!!!!!!!!!!!!!!!!!!!!!!!!!!!!!!!!!!!!!!!!!!!!!!!!!!!!!!!!!!!!!!!!!!!!!!!!!!!!!!!!!!)%&..        ",
"         ..@>''''))!!!!!!!!!!!!!!!!!!!!!!!!!!!!!!!!!!!!!!!!!!!!!!!!!!!!!!!!!!!!!!!!!!!!!!!!!!!!!!!!!!!!!!!!!!!!!!!!)%&..        ",
"         ..%,''''))!!!!!!!!!!!!!!!!!!!!!!!!!!!!!!!!!!!!!!!!!!!!!!!!!!!!!!!!!!!!!!!!!!!!!!!!!!!!!!!!!!!!!!!!!!!!!!!!)%&..        ",
"         .@%,'''')!)!!!!!!!!!!!!!!!!!!!!!!!!!!!!!!!!!!!!!!!!!!!!!!!!!!!!!!!!!!!!!!!!!!!!!!!!!!!!!!!!!!!!!!!!!!!!!!!)%&..        ",
"         .%@>'''))!)!!!!!!!!!!!!!!!!!!!!!!!!!!!!!!!!!!!!!!!!!!!!!!!!!!!!!!!!!!!!!!!!!!!!!!!!!!!!!!!!!!!!!!!!!!!!!!!)%%..        ",
"         .&@-'''')!)!!!!!!!!!!!!!!!!!!!!!!!!!!!!!!!!!!!!!!!!!!!!!!!!!!!!!!!!!!!!!!!!!!!!!!!!!!!!!!!!!!!!!!!!!!!!!!!)%%..        ",
"         .&.&,''))!!!!!!!!!!!!!!!!!!!!!!!!!!!!!!!!!!!!!!!!!!!!!!!!!!!!!!!!!!!!!!!!!!!!!!!!!!!!!!!!!!!!!!!!!!!!!!!!!)%&..        ",
"         .=.%,''')!)!!!!!!!!!!!!!!!!!!!!!!!!!!!!!!!!!!!!!!!!!!!!!!!!!!!!!!!!!!!!!!!!!!!!!!!!!!!!!!!!!!!!!!!!!!!!!!!)%&..        ",
"         .&.%,,')))!!!!!!!!!!!!!!!!!!!!!!!!!!!!!!!!!!!!!!!!!!!!!!!!!!!!!!!!!!!!!!!!!!!!!!!!!!!!!!!!!!!!!!!!!!!!!!!!'%%..        ",
"         .%.%,,'))!!!!!!!!!!!!!!!!!!!!!!!!!!!!!!!!!!!!!!!!!!!!!!!!!!!!!!!!!!!!!!!!!!!!!!!!!!!!!!!!!!!!!!!!!!!!!!!!!,&@..        ",
"         .@.%>''')))!!!!!!!!!!!!!!!!!!!!!!!!!!!!!!!!!!!!!!!!!!!!!!!!!!!!!!!!!!!!!!!!!!!!!!!!!!!!!!!!!!!!!!!!!!!!!!!-=..         ",
"         ...@>,''))!!!!!!!!!!!!!!!!!!!!!!!!!!!!!!!!!!!!!!!!!!!!!!!!!!!!!!!!!!!!!!!!!!!!!!!!!!!!!!!!!!!!!!!!!!!!!!!)&=..         ",
"          ..@-,''))!!!!!!!!!!!!!!!!!!!!!!!!!!!!!!!!!!!!!!!!!!!!!!!!!!!!!!!!!!!!!!!!!!!!!!!!!!!!!!!!!!!!!!!!!!!!!!!'%=..         ",
"          .%.%,''))!!!!!!!!!!!!!!!!!!!!!!!!!!!!!!!!!!!!!!!!!!!!!!!!!!!!!!!!!!!!!!!!!!!!!!!!!!!!!!!!!!!!!!!!!!!!!!!'%=..         ",
"          .%.%>',))!)!!!!!!!!!!!!!!!!!!!!!!!!!!!!!!!!!!!!!!!!!!!!!!!!!!!!!!!!!!!!!!!!!!!!!!!!!!!!!!!!!!!!!!!!!!!!!,@%..         ",
"          ...@>,'')!)!!!!!!!!!!!!!!!!!!!!!!!!!!!!!!!!!!!!!!!!!!!!!!!!!!!!!!!!!!!!!!!!!!!!!!!!!!!!!!!!!!!!!!!!!!!!!-=..          ",
"          ...@='')))!!!!!!!!!!!!!!!!!!!!!!!!!!!!!!!!!!!!!!!!!!!!!!!!!!!!!!!!!!!!!!!!!!!!!!!!!!!!!!!!!!!!!!!!!!!!!)&=..          ",
"           .%.&>''))!!!!!!!!!!!!!!!!!!!!!!!!!!!!!!!!!!!!!!!!!!!!!!!!!!!!!!!!!!!!!!!!!!!!!!!!!!!!!!!!!!!!!!!!!!!!!,%=..          ",
"           .@.%>''))!!!!!!!!!!!!!!!!!!!!!!!!!!!!!!!!!!!!!!!!!!!!!!!!!!!!!!!!!!!!!!!!!!!!!!!!!!!!!!!!!!!!!!!!!!!!!-&%..          ",
"           ...@='')))!!!!!!!!!!!!!!!!!!!!!!!!!!!!!!!!!!!!!!!!!!!!!!!!!!!!!!!!!!!!!!!!!!!!!!!!!!!!!!!!!!!!!!!!!!!)&=..           ",
"           ..@.&>,')!)!!!!!!!!!!!!!!!!!!!!!!!!!!!!!!!!!!!!!!!!!!!!!!!!!!!!!!!!!!!!!!!!!!!!!!!!!!!!!!!!!!!!!!!!!!'%=..           ",
"            .@.%>,)')!!!!!!!!!!!!!!!!!!!!!!!!!!!!!!!!!!!!!!!!!!!!!!!!!!!!!!!!!!!!!!!!!!!!!!!!!!!!!!!!!!!!!!!!!!!-=@..           ",
"            ...@=,')))!!!!!!!!!!!!!!!!!!!!!!!!!!!!!!!!!!!!!!!!!!!!!!!!!!!!!!!!!!!!!!!!!!!!!!!!!!!!!!!!!!!!!!!!!'&=..            ",
"             .@.%>')))!!!!!!!!!!!!!!!!!!!!!!!!!!!!!!!!!!!!!!!!!!!!!!!!!!!!!!!!!!!!!!!!!!!!!!!!!!!!!!!!!!!!!!!!!-&=..            ",
"             ...@=,')!)!!!!!!!!!!!!!!!!!!!!!!!!!!!!!!!!!!!!!!!!!!!!!!!!!!!!!!!!!!!!!!!!!!!!!!!!!!!!!!!!!!!!!!!)&=...            ",
"             ..@.&>'))!!!!!!!!!!!!!!!!!!!!!!!!!!!!!!!!!!!!!!!!!!!!!!!!!!!!!!!!!!!!!!!!!!!!!!!!!!!!!!!!!!!!!!!!-%=..             ",
"              ...@=,,)))!!!!!!!!!!!!!!!!!!!!!!!!!!!!!!!!!!!!!!!!!!!!!!!!!!!!!!!!!!!!!!!!!!!!!!!!!!!!!!!!!!!!!'&=...             ",
"              ....%,'))!!!!!!!!!!!!!!!!!!!!!!!!!!!!!!!!!!!!!!!!!!!!!!!!!!!!!!!!!!!!!!!!!!!!!!!!!!!!!!!!!!!!!!-%=..              ",
"               ...@=,))))!!!!!!!!!!!!!!!!!!!!!!!!!!!!!!!!!!!!!!!!!!!!!!!!!!!!!!!!!!!!!!!!!!!!!!!!!!!!!!!!!!!)&=...              ",
"               ....&>'))!)!!)!!!!!!!!!!!!!!!!!!!!!!!!!!!!!!!!!!!!!!!!!!!!!!!!!!!!!!!!!!!!!!!!!!!!!!!!!!!!!!!-%=..               ",
"                ...@=,,>;;;;;,))!!!!!!!!!!!!!!!!!!!!!!!!!!!!!!!!!!!!!!!!!!!!!!!!!!!!!!!!!!!!!!!!!!!!!!!!!!!'&=...               ",
"                ....%;*#$#####*,)!!!!!!!!!!!!!!!!!!!!!!!!!!!!!!!!!!!!!!!!!!!!!!!!!!!!!!!!!!!!!!!!!!!!!!!!!!-=%..                ",
"                 ...+#$#$$$$$$##;'!!!!!!!!!!!!!!!!!!!!!!!!!!!!!!!!!!!!!!!!!!!!!!!!!!!!!!!!!!!!!!!!!!!!!!!!>&-..                 ",
"                  .+##$$$$#$$####*,)!!!!!!!!!!!!!!!!!!!!!!!!!!!!!!!!!!!!!!!!!!!!!!!!!!!!!!!!!!!!!!!!!!!!!,&=...                 ",
"                  +#$$*;;;**$$$##+;'))!!!!!!!!!!!!!!!!!!!!!!!!!!!!!!!!!!!!!!!!!!!!!!!!!!!!!!!!!!!!!!!!!!)&=%..                  ",
"                  $$$;',;;**$$#####;))!)!!!!!!!!!!!!!!!!!!!!!!!!!!!!!!!!!!!!!!!!!!!!!!!!!!!!!!!!!!!!!!!!-&=..                   ",
"                 #$$*';**$$$$$$$##+*,)))!!!!!!!!!!!!!!!!!!!!!!!!!!!!!!!!!!!!!!!!!!!!!!!!!!!!!!!!!!!!!!!>&-...                   ",
"                 ##$;,**$$$$$$$$###+>'))!!!!!!!!!!!!!!!!!!!!!!!!!!!!!!!!!!!!!!!!!!!!!!!!!!!!!!!!!!!!!!>&-...                    ",
"                 $$$;;*$$$$$$$$$####;,')))!!!!!!!!!!!!!!!!!!!!!!!!!!!!!!!!!!!!!!!!!!!!!!!!!!!!!!!!!!!>&-...                     ",
"                #$$$;;$$$$$$$$$$###+=,'))!!!!!!!!!!!!!!!!!!!!!!!!!!!!!!!!!!!!!!!!!!!!!!!!!!!!!!!!!!!>&=@..                      ",
"                $#$$**$$$$$$$$$$$##+*,,')))!!!!!!!!!!!!!!!!!!!!!!!!!!!!!!!!!!!!!!!!!!!!!!!!!!!!!!!!>&-%..                       ",
"                ##$$**$$$$$$$$$$$##+;>,'))!!!!!!!!!!!!!!!!!!!!!!!!!!!!!!!!!!!!!!!!!!!!!!!!!!!!!!!!>&=%..                        ",
"                 #$$$*$$$$$$$$$$#+#+=>,,)))!!!!!!!!!!!!!!!!!!!!!!!!!!!!!!!!!!!!!!!!!!!!!!!!!!!!!!>&-%...                        ",
"                 ##$$$$$$$$$$$$$$#+#;>,,'!!)!!!!!!!!!!!!!!!!!!!!!!!!!!!!!!!!!!!!!!!!!!!!!!!!!!!)-&-...                          ",
"                 #$#$$$$$$$$$$$##++*->,''))!!!!!!!!!!!!!!!!!!!!!!!!!!!!!!!!!!!!!!!!!!!!!!!!!!)>&&-...                           ",
"                  ###$$$$$$$$####++&>>,,'))!!!!!!!!!!!!!!!!!!!!!!!!!!!!!!!!!!!!!!!!!!!!!!!!!)-%==...                            ",
"                  ######$$$#$##++++@=->,)))!!!!!!!!!!!!!!!!!!!!!!!!!!!!!!!!!!!!!!!!!!!!!!!!>&%-@...                             ",
"                   +############++..@%-,')!!!!!!!!!!!!!!!!!!!!!!!!!!!!!!!!!!!!!!!!!!!!!!!)-%==....                              ",
"                    +######+#++++.....@=>')!)!!!!!!!!!!!!!!!!!!!!!!!!!!!!!!!!!!!!!!!!!!)-&&-@...                                ",
"                      ++#+#++#++ ......@%%-'!!!!!!!!!!!!!!!!!!!!!!!!!!!!!!!!!!!!!!!!!)-&%==....                                 ",
"                        ++++++     ....@..@&-))!!!!!!!!!!!!!!!!!!!!!!!!!!!!!!!!!!!),-&%==....                                   ",
"                                    .....@..@%-,)!!!!!!!!!!!!!!!!!!!!!!!!!!!!!!!'-&%%==.....                                    ",
"                                      ........@%%-,')!!!!!!!!!!!!!!!!!!!!!!!)',-&@==&.....                                      ",
"                                         ........@@%&-,'))!!!!!!!!!!!!!!)',-&%@===......                                        ",
"                                           .......%..@@%%&-,')')))))),-&%&@%===.......                                          ",
"                                             ........@@@..@@%%%%%%%%%%&===&@.......                                             ",
"                                                ............@%%&&%&&&%..........                                                ",
"                                                    ........................                                                    ",
"                                                          ............                                                          ",
"                                                                                                                                ",
"                                                                                                                                ",
"                                                                                                                                ",
"                                                                                                                                ",
"                                                                                                                                ",
"                                                                                                                                ",
"                                                                                                                                ",
"                                                                                                                                ",
"                                                                                                                                ",
"                                                                                                                                "};
