/* XPM */
char * cloud_2_xpm[] = {
"128 128 17 1",
" 	c None",
".	c #2E5E97",
"+	c #3775BB",
"@	c #3F83D3",
"#	c #508AC9",
"$	c #3E90E5",
"%	c #6598CC",
"&	c #579DEB",
"*	c #63A1E0",
"=	c #78B4F1",
"-	c #98BDE2",
";	c #91C0EF",
">	c #B0D4F6",
",	c #CDE3F9",
"'	c #DEEFFC",
")	c #EDF4FD",
"!	c #FDFFFC",
"                                                                                                                                ",
"                                                                                                                                ",
"                                                                                                                                ",
"                                                                                                                                ",
"                                                        @@@@@@@@@                                                               ",
"                                                     @@@$$$$$@$@@@@@                                                            ",
"                                                   @$$$$$$$$$$$$$@@@@@                                                          ",
"                                                  $$$&$&=;;;==&$$$$@@@@+                                                        ",
"                                                 @$$$=>,;=$$$$&==&$$@#@@+                                                       ",
"                                                $$$*,,;$$$@$$@@@$$&&$$@@@@      @@@@@@@                                         ",
"                                               $$$=,,&$$@#@+@+@@@$$$$$$$@@@ @@@$$$$$@$@@@@                                      ",
"                                              $$$='>$$$+@++@#+++@@@&$$$$$$$@$$$$$$$$$@$$@@@@                                    ",
"                                              $$&,>$$@@++#%%%%*#+@@@$$&&$$$$$&$*====&&@$$@@@@+                                  ",
"                                             $&$,,$$@++.%%-;>;-;%%+@@@$$=*=&=;;;;&&&&&=*$$$$@@@                                 ",
"                                     @ @    $$$>,=$@++#%->>>>>>>>-;#@@@$$&==&$$$$@$@@$$$&&$$@@@++                               ",
"                                @@@@@$@&@@$$$&>,>$&@+.%->>>>>>>>>>>-%@@@$$$$$$@$@@@@@@$@$$$$$$@@@+                              ",
"                              @$$$$$$$$$$$$$=>,,&@@++%->>,>,,,,,,>,>-%@@$@$$$@@+++#+++@@@@&$$$$@@++                             ",
"                            $@$$$$$$$&$$$&&;>,,=$$#.#-,,,,,>,,,,,,,,,-%+@@@@+++.#%%%%##++@@$$$$@@@+                             ",
"                          @$$$&&;>>>;;=;=;>>;>=$$@++%>,,,,,',,,,,,',,,-#@+@@++#%-->--;;%#@@@&$&$@@@+                            ",
"                         $$$$=>>>=$$$$$$&$$$&&$$@@++-,,,'''''''''''''',-%+++.%%->,>>>->-=%#@@@$&$@@++                           ",
"                        @$$&>,>$$$@@@@@@+$$$$$$$@+.%,'''''''''''''''))',-%%%%-,,,,,,>>>>>;%@@@$$&$@@++                          ",
"                       $$$=,,=$$@@@@+++#+@@#$@$@@#+%')'''))))')))))))''),,,-,,',,,,,,>>>>>;%#@@$$$$@++                          ",
"                      @$$&'>$$@@+++###%###++@@+++.#-))))))'))!!'!))))!'))'')))',,,,,,,>>>>>;%@@@$$&$@++                         ",
"                      $$&,,$$$@++.%%-->--;%#++@++.%,)!))!)!!!))!)!!!)!)!)!)))')))'',,,,,>,>>;%@@$$$$@@++                        ",
"                     @$$;,&&++++%%>->,,,,',-%#+#.%-))!)!!)!!!!!!!!!!!!)))!)!)'))''''',,,,,>,>-*@@$$$$@++                        ",
"                     $&&,;$$@@.%->>,,,,,'''',-%%%-))!!!!!!!!!!!!!!!!!!!!!!!)!)!))))'''',,,,>>>;#@$$&$@++.                       ",
"                    @$$>,$$++#%-->>,,,',')))))'')))!!!!!!!!!!!!!!!!!!!!!!!!!!)!)!)')'''',,,,>>>=@@$$$$@@+                       ",
"                    $$$>=$#@.+->>,,,,'')'))))!!)!!!!!!!!!!!!!!!!!!!!!!!!!!!!!!!!))!))''''',,,,>-%@@&&@@++                       ",
"                    @$&>$@@+#%>>,,,,'''')))!)!!!!!!!!!!!!!!!!!!!!!!!!!!!!!!!!!!!!!)!!))'''',,,,>;@@$&&$@++                      ",
"                   @$$=>$@+.%>>,,,,','))'!)!!!!!!!!!!!!!!!!!!!!!!!!!!!!)!!!!!!!!!!!!)))))''',,,>;*$$$&$@@++                     ",
"                   @$$==$@+#%>,>,,''')))!)!!!!!!!!)!!!!!!!!!!!!!!!!!!!!!!!!!!!!!!!!!!!!))'''',,,>-@@$&&$$@@+@                   ",
"                   $@$=&$@.#-,,,,''))))!!!!!!!!)!!!!!!!!!!!!!!!!!!!!!!!!!!!!!!!!!!!!!!)!)!)''',,,;@$$$$$$$@@++                  ",
"                   @$$=$@@+%>>,,'''))!)!!!!!!!!!!!!!!!!!!!!!!!!!!!!!!!!!!!!!!!!!!!!!!!!!)!))''',,-#@@$$&$$$$@@@+                ",
"                   $@$=$&++%,,''')))!)!!!!)!!!!!!!!!!!!!!!!!!!!!!!!!!!!!!!!!!!!!!!!!!!!!!!!)))''',=@@@$$$&$$$@@@+               ",
"                   @$$&$@++%,,'')))!!!!!!!!!!!!!!!!!!!!!!!!!!!!!!!!!!!!!!!!!!!!!!!!!!!!!!!!)))''',-%@@@@@$$&$$@@++              ",
"                   @@$&&@@#%,'''))!)!!!!!!!!!!!!!!!!!!!!!!!!!!!!!!!!!!!!!!!!!!!!!!!!!!!!!!!!!))''',;%#+@@$@$&$$@@@+             ",
"                   @$$&=$++%,'')))!!!!!!!!!!!!!!!!!!!!!!!!!!!!!!!!!!!!!!!!!!!!!!!!!!!!!!!!!)!!)))'',--%+@@@@&$&$@@++            ",
"                    $$=;$@+#>'))!!)!!!!!!!!!!!!!!!!!!!!!!!!!!!!!!!!!!!!!!!!!!!!!!!!!!!!!!!!!!)))''',,,-;%@@@@$$$$@@+            ",
"                    $$;;&@++-')))!!!!!!!!!!!!!!!!!!!!!!!!!!!!!!!!!!!!!!!!!!!!!!!!!!!!!!!!!!!!!)!)'),,,,>-%#@@@$&$@@++           ",
"                    $=>>$@++%,)!!!!!!!!!!!!!!!!!!!!!!!!!!!!!!!!!!!!!!!!!!!!!!!!!!!!!!!!!!!!!!!!)))'',,,,>-=#@@@$$$$@++          ",
"                  $$&>,;$$@+#-)!!!!!!!!!!!!!!!!!!!!!!!!!!!!!!!!!!!!!!!!!!!!!!!!!!!!!!!!!!!!!!!!!!)))',,,>,>=#@@&$$$@++          ",
"                $$$$>,,=$@&+.%'!!!!!!!!!!!!!!!!!!!!!!!!!!!!!!!!!!!!!!!!!!!!!!!!!!!!!!!!!!!!!!!!!)!)',',,>>>>=#@@$&$@+++         ",
"               @$$$>,,=$$$$+@#>!!!!!!!!!!!!!!!!!!!!!!!!!!!!!!!!!!!!!!!!!!!!!!!!!!!!!!!!!!!!!!!!!!!))'',,,>>>;*@@$$$@@+.         ",
"             @$$&&>,>&$$$$@++.-)!!!!!!!!!!!!!!!!!!!!!!!!!!!!!!!!!!!!!!!!!!!!!!!!!!!!!!!!!!!!!!)!!)!))'',,,>>>;*@$&&$@++         ",
"             $$$;,,=$$$@@#@++.-)!!!!!!!!!!!!!!!!!!!!!!!!!!!!!!!!!!!!!!!!!!!!!!!!!!!!!!!!!!!!!!!!!)!'))',,,>>>;;@@$=$@@+.        ",
"            $$$;,>$$$@#++@++.#-)!!!!!!!!!!!!!!!!!!!!!!!!!!!!!!!!!!!!!!!!!!!!!!!!!!!!!!!!!!!!!!!!!!)!)''',>,>>>;#$$*&@++.        ",
"           @$$;';$$@@++#+##+%-,)!!!!!!!!!!!!!!!!!!!!!!!!!!!!!!!!!!!!!!!!!!!!!!!!!!!!!!!!!!!!!!!!!!!!!)''',,>>;;*$$=$$++.        ",
"          $$&=,>$$@++#%%-----,)!!!!!!!!!!!!!!!!!!!!!!!!!!!!!!!!!!!!!!!!!!!!!!!!!!!!!!!!!!!!!!!!!!!!)))'',,,>>>>&@$=$@@+.        ",
"          $$&,>$@+@.#%,''))'!)!!!!!!!!!!!!!!!!!!!!!!!!!!!!!!!!!!!!!!!!!!!!!!!!!!!!!!!!!!!!!!!!!!!!!!!)''',,,>>;*$$;&$++.        ",
"         $@$>,$$@++.--'')!)!!!!!!!!!!!!!!!!!!!!!!!!!!!!!!!!!!!!!!!!!!!!!!!!!!!!!!!!!!!!!!!!!!!!!!!!))))'',,,>>;&&$>$@@+.        ",
"        @$$=,=$@++%-,''')))!!)!!!!!!!!!!!!!!!!!!!!!!!!!!!!!!!!!!!!!!!!!!!!!!!!!!!!!!!!!!!!!!!!!!!!!!)!)''',,>>;$$&>&@++.        ",
"        $$$>>$@@+.%,,''))!)!!!!!!!!!!!!!!!!!!!!!!!!!!!!!!!!!!!!!!!!!!!!!!!!!!!!!!!!!!!!!!!!!!!!!!!!!!))'',,,,>=&$;;$$@+.        ",
"        $$*,&&@+.%,,,'')))!!!!!!!!!!!!!!!!!!!!!!!!!!!!!!!!!!!!!!!!!!!!!!!!!!!!!!!!!!!!!!!!!!!!!!!!!!!!))'',,>>$$&,=$+++.        ",
"       @$$;>$@#+#-,,,'')!)!!!!!!!!!!!!!!!!!!!!!!!!!!!!!!!!!!!!!!!!!!!!!!!!!!!!!!!!!!!!!!!!!!!!!!!!!!!)!)'',,>=&$>,$$@+..        ",
"       @$$>=$@+.%-,,''')!)!!!!!!!!!!!!!!!!!!!!!!!!!!!!!!!!!!!!!!!!!!!!!!!!!!!!!!!!!!!!!!!!!!!!!!!!!!!)))'',>;&$=,;$++..         ",
"       @&$>$@@+#->>,'')))!!!!!!!!!!!!!!!!!!!!!!!!!!!!!!!!!!!!!!!!!!!!!!!!!!!!!!!!!!!!!!!!!!!!!!!!!!!!!!))'>;&&&,,$$+#..         ",
"      @$$&>$@++%-,,,'''))!!!!!!!!!!!!!!!!!!!!!!!!!!!!!!!!!!!!!!!!!!!!!!!!!!!!!!!!!!!!!!!!!!!!!!!!!!!!!!''>*$$&,,*$@++.          ",
"      @@$=;$@+.%>>,,''))!!!!!!!!!!!!!!!!!!!!!!!!!!!!!!!!!!!!!!!!!!!!!!!!!!!!!!!!!!!!!!!!!!!!!!!!!!!!!!)),*$$$,,;$@@+..          ",
"      @$$&=$@+#->,,,'')))!!!!!!!!!!!!!!!!!!!!!!!!!!!!!!!!!!!!!!!!!!!!!!!!!!!!!!!!!!!!!!!!!!!!!!!!!!!!!));&@$>,>$$@@+.           ",
"      @@&&=$++#->>,,''))!!!!!!!!!!!!!!!!!!!!!!!!!!!!!!!!!!!!!!!!!!!!!!!!!!!!!!!!!!!!!!!!!!!!!!!!!!!!!!!);&$$=>=$$@+.            ",
"      @@$&*$++%->,,,'))))!!!!!!!!!!!!!!!!!!!!!!!!!!!!!!!!!!!!!!!!!!!!!!!!!!!!!!!!!!!!!!!!!!!!!!!!!!!!!))-@@$$&$$&++.            ",
"      @$$$=$@+#->,,,''))!!!!!!!!!!!!!!!!!!!!!!!!!!!!!!!!!!!!!!!!!!!!!!!!!!!!!!!!!!!!!!!!!!!!!!!!!!!!!!!),%@&$$$$@@+.            ",
"      @$$$=$@+#->,,,''!'!!!!!!!!!!!!!!!!!!!!!!!!!!!!!!!!!!!!!!!!!!!!!!!!!!!!!!!!!!!!!!!!!!!!!!!!!!!!!!!)'-#@$$&$$@+.            ",
"       @$$*$@++;>>,'')')!!!!!!!!!!!!!!!!!!!!!!!!!!!!!!!!!!!!!!!!!!!!!!!!!!!!!!!!!!!!!!!!!!!!!!!!!!!!!!!)),;@@$$$$$++.           ",
"       @$$&&$#+%-,,,''!)!!!!!!!!!!!!!!!!!!!!!!!!!!!!!!!!!!!!!!!!!!!!!!!!!!!!!!!!!!!!!!!!!!!!!!!!!!!!!!!))',%@@$$$$@++           ",
"       @@$$&$@@#%>,,')'))!!!!!!!!!!!!!!!!!!!!!!!!!!!!!!!!!!!!!!!!!!!!!!!!!!!!!!!!!!!!!!!!!!!!!!!!!!!!!)))''>#@$$&$@++           ",
"       @@$$=$$@+#;>,'''))!!!!!!!!!!!!!!!!!!!!!!!!!!!!!!!!!!!!!!!!!!!!!!!!!!!!!!!!!!!!!!!!!!!!!!!!!!!!!)!''',;@@$*$@++.          ",
"        @@$=&$$@+#%,,))!!!!!!!!!!!!!!!!!!!!!!!!!!!!!!!!!!!!!!!!!!!!!!!!!!!!!!!!!!!!!!!!!!!!!!!!!!!!!!!!))'',>*@$&&$+++          ",
"        @$$=;$$$@+#;>)'))!!!!!!!!!!!!!!!!!!!!!!!!!!!!!!!!!!!!!!!!!!!!!!!!!!!!!!!!!!!!!!!!!!!!!!!!!!!!!)))'',,;@$&&$++.          ",
"         $$=;$$$@++#>'')!!!!!!!!!!!!!!!!!!!!!!!!!!!!!!!!!!!!!!!!!!!!!!!!!!!!!!!!!!!!!!!!!!!!!!!!!!!!!)!))',,>;$$&=$@++          ",
"        @$$;=&$$$+++-'')))!!!!!!!!!!!!!!!!!!!!!!!!!!!!!!!!!!!!!!!!!!!!!!!!!!!!!!!!!!!!!!!!!!!!!!!!!!!!)))'',>;@$&=@@++          ",
"        $$&>=$$@@++.-,)))!!!!!!!!!!!!!!!!!!!!!!!!!!!!!!!!!!!!!!!!!!!!!!!!!!!!!!!!!!!!!!!!!!!!!!!!!!!!)!''',,,=&$;=&++.          ",
"       @$&;>$&@@+++%-''))!!!!!!!!!!!!!!!!!!!!!!!!!!!!!!!!!!!!!!!!!!!!!!!!!!!!!!!!!!!!!!!!!!!!!!!!!!!!)!)'',>>*$$>*$@++          ",
"       @$$,;$$$++.#->'')))!!!!!!!!!!!!!!!!!!!!!!!!!!!!!!!!!!!!!!!!!!!!!!!!!!!!!!!!!!!!!!!!!!!!!!!!!!!!))''',;&&=>$$++.          ",
"      @$$=,$$@++#%->,''')!)!!!!!!!!!!!!!!!!!!!!!!!!!!!!!!!!!!!!!!!!!!!!!!!!!!!!!!!!!!!!!!!!!!!!!!!!!)))'',,-*$$>>&@++.          ",
"      $$$;>$@@.#%->,,,')))!!!!!!!!!!!!!!!!!!!!!!!!!!!!!!!!!!!!!!!!!!!!!!!!!!!!!!!!!!!!!!!!!!!!!!!!!)!))'''>=$$>'=$$++.          ",
"      @$$>=$@@+%->>,,,,''))!!!!!!!!!!!!!!!!!!!!!!!!!!!!!!!!!!!!!!!!!!!!!!!!!!!!!!!!!!!!!!!!!!!!!!!!)!))',>=$$;,;$@+++.          ",
"      $$$>$$#.#%->>>,,,'')!!!!!!!!!!!!!!!!!!!!!!!!!!!!!!!!!!!!!!!!!!!!!!!!!!!!!!!!!!!!!!!!!!)!!!!!!!)))>;*&$=,,$$@+..           ",
"      @$$;$@++%;>->>,,,'')))!!!!!!!!!!!!!!!!!!!!!!!!!!!!!!!!!!!!!!!!!!!!!!!!!!!!!!!!!!!!!!!),,,''!'''>;=&$$;,,$&@++..           ",
"     @$$$;$@++*;;>>>>,,''')!)!!!!!!!!!!!!!!!!!!!!!!!!!!!!!!!!!!!!!!!!!!!!!!!!!!!!!!!!!!!!!,;=**-;-;;;&#&$$>'>$$@++..            ",
"     @@$$=$@+#%;;>>>,,,'''))!!!!!!!!!!!!!!!!!!!!!!!!!!!!!!!!!!!!!!!!!!!!!!!!!!!!!!!!!!!!!'=&&@$@$@$@@$$$;,,;$$@@++.             ",
"      $&$=$@+#=;;;>>>>,,,'))))!!!!!!!!!!!!!!!!!!!!!!!!!!!!!!!!!!!!!!!!!!!!!!!!!!!!!!!!!!!,*$$$$$$$$$$&;>>>$$$@++..              ",
"      @$&=$@+#*;;;;>>>,,''')!)!!!!!!!!!!!!!!!!!!!!!!!!!!!!!!!!!!!!!!!!!!!!!!!!!!!!!!!!!!!,*$$>,=&&==;>>&$$$@+++..               ",
"      @@$=$@++%=;>;>>>,,,,)')!)!!!!!!!!!!!!!!!!!!!!!!!!!!!!!!!!!!!!!!!!!!!!!!!!!!!!!!!!!!'-@$&,>;===$$$&@@@+++..                ",
"      @$$&&$@@%=;;;>>>>,,,'')))!!!!!!!!!!!!!!!!!!!!!!!!!!!!!!!!!!!!!!!!!!!!!!!!!!!!!!!!!!)-&@$&=&$$$@$@@++++...                 ",
"      @@$&$@++#==;;;>>>>,,''')!))!!!!!!!!!!!!!!!!!!!!!!!!!!!!!!!!!!!!!!!!!!!!!!!!!!!!!!!!!,*@$$$&$$$@@++++...                   ",
"      @@@$=$$@#*=;;;>>>,,,,''')!)!!!!!!!!!!!!!!!!!!!!!!!!!!!!!!!!!!!!!!!!!!!!!!!!!!!!!!!!!)-@$$$$$$@+++...                      ",
"       @$$&$@@+#=;;;;>>>>,,,'')))!!!!!!!!!!!!!!!!!!!!!!!!!!!!!!!!!!!!!!!!!!!!!!!!!!!!!!!!!),#@&$$$@@+.                          ",
"       @@$$&$@@+*=;;;>>>>,,,''')))!!!!!!!!!!!!!!!!!!!!!!!!!!!!!!!!!!!!!!!!!!!!!!!!!!!!!!!!!);@$$&&@@+                           ",
"       @@@$&$$$+@=;;;;;>>>,,,''))))!!!!!!!!!!!!!!!!!!!!!!!!!!!!!!!!!!!!!!!!!!!!!!!!!!!!!!!!)-&$$&$@+.                           ",
"        @@@$&$@@@#*;=>;>>>>,,,'''))!)!!!!!!!!!!!!!!!!!!!!!!!!!!!!!!!!!!!!!!!!!!!!!!!!!!!!!!),*$$=$@@+.                          ",
"        @@@$$$$@@@@=;;;;>>>>,,,')))))!!!!!!!!!!!!!!!!!!!!!!!!!!!!!!!!!!!!!!!!!!!!!!!!!!!!))!,*$$;$@+..                          ",
"         @@@&$&$@@@@*=;>;>>>,>,'''')))!!!!!!!!!!!!!!!!!!!!!!!!!!!!!!!!!!!!!!!!!!!!!!!!!!!))),*$$;$$@+.                          ",
"          @@@$$$$&@@@**;;>>>>,,,,'')))))!!!!!!!!!!!!!!!!!!!!!!!!!!!!!!!!!!!!!!!!!!!!!!!)))))>&$$>$@++.                          ",
"          @+@@$$$$&@@@@&*=;->>>,,''')))))!!!!!!!!!!!!!!!!!!!!!!!!!!!!!!!!!!!!!!!!!!!!!!!))''>&$=>$@+..                          ",
"           @@@$$$&$$$$@@$#&*=;>,,,,''))))))!!!!!!!!!!!!!!!!!!!!!!!!!!!!!!!!!!!!!!!!!))))''',;&$>;$@++.                          ",
"            ++@@@$$$&$$$$@@@@#;>>,,,''')))))!!!!!!!!!!!!!!!!!!!!!!!!!!!!!!!!!!!!!!)!)))))''-&$;>=$@+..                          ",
"             ++@$@$$$&&$$$$@++#;,>,,,,'')))!))!!!!!!!!!!!!!!!!!!!!!!!!!!!!)''>,,')!)))'',,;*$&,>$@+#.                           ",
"              +++@@@&$$&=&$$@+#;>>,,,'','''))))!)!!!!!!!!!!!!!!!!!!!!!!!!!';*&%%;;,,,,>,;=&$&,'=$@++.                           ",
"                +++@@@$$$&$$@@+;>>>>,>,,''''')))))))!!!!!!!!!!!!!!!!!!!!!)>&$$$$$#%*=***&$$*,,;$@@+..                           ",
"                 ++++@@$$&$$#++%>>>>>,,,,,''''')))!))!!)!!!!!!!!!!!!!!!)),*&$$$$$@@@$&$@$$;,,;$@@++.                            ",
"                   ++++@@$$$@@+%;;>>,>>,,,,''''))')))))!)))!)!)!)!)!)))!!>&$&>=$$$$&$$$&;>,>$$@@++..                            ",
"                      ++@$$$$@+#=>;>>>>>,,,,,','''))')))!))))))))))!))))'-@$;,>==&&==;;>;=$$@@@++..                             ",
"                       +@$$$$$@+#;;;>>>>>>>,,,,,''''''')''))))))))))))'',*$$,>&$$$$$$$$$$$$@@@+...                              ",
"                        +@$&$$@@#=;;;>>>>>>>,,,,,,,''''''''')')')''''')'-&$=,=$$$$@$@@$@@++++.+..                               ",
"                        @@@$$$$@+#=;;;;>>>>>>>>,>,,,,,,''''''''''''''',,=$$>>$$$$+@+@++++++.+..                                 ",
"                         @@$$&$@@@#=;;;;;>>>>>>,>,>,,,,,,,,,',,,,',,,,,;$&=,=$@@+++++++.+....                                   ",
"                         +@@$$$$@@@#=;;;;;;>>>>>>>>;;;;>,,,,,,,,,,,,,,;*$$>>$$#@.........                                       ",
"                          @@@&$$&@@@#==;;;;;;;>>>>;=&*#*->,>>,,>>,>,>>=&$;,=$@++.                                               ",
"                          +@@@$$$$$$@@*=;;;;;;;;;=&&$@@$*;>,>>>>,>>>>=&$=,>$@@+..                                               ",
"                           @@@@$$$$@@@@#&==;;=;=*&$@$&@@@#*;>>>>>>;;*$$=',$$@++.                                                ",
"                            +@@$$$&$$$$@@$#&=&&&$$$&=$$$@@@#*==;;;=&$$=,,&$@++..                                                ",
"                             ++@@$$$$$$$$$@$$$$$$=>,>;$$$$$@#&&$$&&$&=,,&$$++..                                                 ",
"                              ++@@$$$$&$$$$$$$$=>,,;&&$$$$$$$@$@$$$&>'>$$@@.+.                                                  ",
"                               +++@@$$$$&=&==;>>;&$$$$$&$$&$$$$&$=>,>=$&@@+..                                                   ",
"                                ++@+@@@$$$$$&$$$$$@$@@@@$$$$&*=;;;=$$$@@+++..                                                   ",
"                                  ++@+@@@@@@@@@@@@+@+@@+@@@$$$$$$$$@$@+++..                                                     ",
"                                   +.+++@+@@@@+@+++.+.++++@@@@@@@+@@++++..                                                      ",
"                                      .+.+.+++.+.+...  .+++++++@+++++....                                                       ",
"                                         ........         ...+++.+.....                                                         ",
"                                                             . ..                                                               ",
"                                                                                                                                ",
"                                                                                                                                ",
"                                                                                                                                ",
"                                                                                                                                ",
"                                                                                                                                ",
"                                                                                                                                ",
"                                                                                                                                "};
