/* XPM */
char * cloud_xpm[] = {
"128 128 17 1",
" 	c None",
".	c #3D0000",
"+	c #4B0000",
"@	c #580000",
"#	c #650000",
"$	c #6B0000",
"%	c #720002",
"&	c #740000",
"*	c #7A0001",
"=	c #7D0000",
"-	c #820403",
";	c #952828",
">	c #A13F3F",
",	c #AE5959",
"'	c #BD797A",
")	c #CC9595",
"!	c #DCB6B7",
"                                                                                                                                ",
"                                                                                                                                ",
"                                                                                                                                ",
"                                                                                                                                ",
"                                                        &*&&&&&%%                                                               ",
"                                                     *&**=****&&&&%$                                                            ",
"                                                   **==========&*&&%%$                                                          ",
"                                                  **==-=>,,,,>--==*&&%$#                                                        ",
"                                                 *===,))),--==->>=-=&&%$$                                                       ",
"                                                *=*;!!'==**&&*&*==;--*&%$$      &&&*&&%                                         ",
"                                               *=*,!!***%#$%#%%%&===--=*&%%$%&&*****&&&&%$                                      ",
"                                              *==,!)-*%%###@#@##%&&==-===&&*&*========**&%%$                                    ",
"                                              *=;!!=*&##@@@.+++@#$$%*==---=-===;>,,>;====&&%$$                                  ",
"                                             ==-)!-=%$#@+       .@##%*=->>;>>,'',;=*=>>;=-*&%%$                                 ",
"                                     & &    ===)!>*%$#@+          +@$%&=-;>>;--&&***=*===--=&%$$#                               ",
"                                *&*&**&*&**=*-)!)**$#@+             @$&*=&-*&*&&%%$#$&$*==---&%%#@                              ",
"                              ***=====*====->)!!-=%#@+               #$%&*==&&%$###@#$$%%**--=&&%$@                             ",
"                            **=*====--=-==;,!!!,**$#@.                #$%%&%$$#@@++@+@@#$$&=-=-&$$#@                            ",
"                          **===-,')'',,,,')))',=*%##+                  #$$$##@@+.     .+##%&==-=*&$#                            ",
"                         *===>)!)>=*=*==*==-%;-=*$@@.                   ####@@+          @#$&=--=&$$#                           ",
"                        *==-)!)-=*&%$$&$&&**-==*&%@+                     @@@+.            @#&&==-*&$#@                          ",
"                       *==>!!>**%$$$#$##$$$%&*=&%#@+                                       @$%&=--*&$#+                         ",
"                      **=;!!-=*%$##@@+@@@@#$&$$%##@.                                        @$&*=-**$$@                         ",
"                      *=-!!=*%###@+..    +@##$$##@+                                          @$%==-=&%$@                        ",
"                     *=='!;*&$#@+.         .@###@@.                                           #$&==-&$$@                        ",
"                     *=;!'=&%#@+             ++++.                                             $%**-=&$$+                       ",
"                    **='!-&$#@+                                                                #$*=--&$$@                       ",
"                    **=),*&$@@                                                                  $%&--=&$#+                      ",
"                    *=;)-&%$@.                                                                  #%**;-*$$@                      ",
"                   &*=>'=&$@+                                                                    $%&-;==%%@                     ",
"                   &**,,=$#@.                                                                    $&==;==&&$#@                   ",
"                   &**>;&$#@                                                                      %&==--==&%%$#                 ",
"                   &&*>-=$@+                                                                      $%&*=-===&&$$#                ",
"                   &==;=&$#+                                                                      $$%&==--==*&%$#               ",
"                   &&*;-*%#+                                                                       $$$$&*=---=&%$#              ",
"                   &==--&$#+                                                                        ##$$%&==-=*&$$@             ",
"                   &*=;>*%#@                                                                         @@#$$%*=-==&&$@            ",
"                    &=>,=%$@                                                                           +@$#&&=--&&$#@           ",
"                    =*''&&$#+                                                                            @#$&*=-=*&$#           ",
"                    =>)'-*&$@                                                                             +$$&*=-=&$#@          ",
"                  ==;)!'-&&$#+                                                                              #$&==-=$$@          ",
"                *===)!!,==&$#@                                                                               $&&===&$#@         ",
"               *===)!!,==*&$#@.                                                                              @%&==-&$$@         ",
"             **==;)!)=-==*&$$#+                                                                               #&&-;=&#@         ",
"             *==,!!>=*=&&%%$##+                                                                                &*=;*&$#+        ",
"            *=='!)=*&%$$$####@+                                                                                $*=>-&$#+        ",
"           *=='!'-*%$$#@@@@@@@                                                                                 $=&>==##+        ",
"          *==,!'*&$$#@+++.++.                                                                                  %*=,-&%#@        ",
"          *=-!)-=%#@@+                                                                                         %==,-&$#@        ",
"         **-)!-*&##@.                                                                                          &=*)-&%#+        ",
"        ***,!,*&$@@.                                                                                           &=;)=%$#+        ",
"        *=-))=&$#@.                                                                                            =*,)=%##@        ",
"        *=;!;=$#@+                                                                                            *=;),&$#@+        ",
"       **=')-&$#@                                                                                            **='!-=$#@.        ",
"       &==),*$#@+                                                                                            *-,!'*&#@+         ",
"       *=*)==&@@.                                                                                          *=*;!!-=$#@+         ",
"      &==;'=&%@+                                                                                          *==*!!;&$##+          ",
"      &&*>,=$$@.                                                                                         **==!!'==$#@+          ",
"      **=;,=$$@                                                                                          **-'!)-=&$#+           ",
"      &*=;>*%#@                                                                                          **-,)>=*$#+.           ",
"      &&&-;&$#+                                                                                          %**-;-==$$.            ",
"      &===>*$$@                                                                                          $$&*=*=*&#+            ",
"      &&*=>=$$@                                                                                           $&&===*%%@            ",
"       &*=>=&$#.                                                                                          $$&*===%$#+           ",
"       %&=*-=$#@                                                                                           #%&===&#$@           ",
"       &&*-;==$#+                                                                                           $&=--=&$@.          ",
"       %&*->=*&%#+                                                                                          #%**;*&%#+          ",
"        %**>;*=$$#@                                                                                          $&=;-&$#@          ",
"        %**>,==*%$#@                                                                                         $&=--*%#@          ",
"         *=,,-==&$##                                                                                          ==;>*$#@          ",
"        &=-',-=*$$#@+                                                                                         ==;,=$$@.         ",
"        &*;),-=*&$##+                                                                                         =*,,=&##.         ",
"       ==*,)==*$$@@@                                                                                         *=='>&$#@.         ",
"       *=-)'=*%$##+.                                                                                         *=,!-&$#@.         ",
"      =*=,!=*&$#++                                                                                          *==))=&$#+          ",
"      &*=''**$#@.                                                                                          *=-'!>=&$@+          ",
"      &==)>*&#@+                                                                                          *==,!)=&$$@.          ",
"      ===)=*$#@                                                                                          *==,!!==$#@@           ",
"      &=='*$$#+                                                                                        *===,!!-=&$#@+           ",
"     &&==,*&$@.                                                                            ==*&&&%&&****=-)!)-*&$#@+            ",
"     &==-,*$$@                                                                            ====**&***====,!!'-*%$#@+.            ",
"     %&==>=&#@                                                                            *===-======;,)!'-=&%$#@+.             ",
"      &&*>&$$@                                                                            *==)!,-;;,')'>-**&##@@+.              ",
"      &&*>-&$@.                                                                           &&=;!),,,;-*=*&&%##@@+                ",
"      &**;-&$#+                                                                            &&=;,;===&&&$$##@@++                 ",
"      &&=--*%#@                                                                            &&**=-==*&$$##@@++                   ",
"      $&&=;=&##.                                                                           $&*&===&&$#@+++.                     ",
"       &==;=*%$@                                                                            %&=====$#+..                        ",
"       &&==-*&%#+                                                                           %&====&$@                           ",
"       $$&*--&&$#                                                                            &==;=&$#                           ",
"        %%&*-=*&$#                                                                           %==>=&#@.                          ",
"        $$&*-==&%$#                                                                          &*=,=&$#+                          ",
"         $%&==-=*&%$@                                                                        &=&'=&#@+                          ",
"          $%&=-=**&%%$#                                                                      *=-'=&$#+                          ",
"          #%&&==--=&&$$$$                                                                    *->)&&$@+                          ",
"           #$%&=======*&%%$$$                                                               *==)'=%$#+                          ",
"            #$%%===--===&&&%$$                                                              ==,!;&$#@.                          ",
"             @#$$&===-;=-=*$%$#                                                            ==;!)=&$@@.                          ",
"              @$$$%&===;>--*$$#                                            =**&&%        *==;)!>-&%@@                           ",
"               @@##%$&===;==%$#                                            *==*&&&%&&&&*===;!!'*&$##.                           ",
"                 @@#$$%*=-==&##+                                          *===-==&****====,!!'-*%#@@                            ",
"                   @@#$%*=-=&&$+                                          **-',==-==-==*,)!'-=*$#@@.                            ",
"                     +@#%*=-*%%@                                         **='!)>>;;>>''))>-*=%%#@@+                             ",
"                       @$*=--&$$+                                        *==!);=-======*=**$$$#@@+                              ",
"                        $&*=-=&%#                                        *=>!,==***&&$&&$$$##@@++                               ",
"                        #$*=-=&%$@                                      *==))==&&$%$$$#$###@@@+.                                ",
"                         $&*=-=&&$@                                     ==>!>=&&$##@$@@@@@@++                                   ",
"                         $$%===-&%%@                                   **=!)=&$$@+.@.++...                                      ",
"                          %&*==-=&&$#              *&&&$              *=='!>=&$#+                                               ",
"                          #$%=====&&%$#           *****%$            *==,!)=&$#@+                                               ",
"                           #$&==--==&&%$$       **====*&%$$         *==;!!==%$@+                                                ",
"                            $%%==-===*&&%%%%%%**===>>===&&%$$      *=*>!!;*&$@@+                                                ",
"                             $$$&===-===&&&&&*===>)!),--=&*&&&&&&*===,!!;=&$#@+                                                 ",
"                              #$%&&=*--=---=-==>)!!';--==-==****==-;)!)-=&$#@+                                                  ",
"                               ##%&&*===;>>>,'))'-***=====---====>'!!,*=&$#@@.                                                  ",
"                                @#$%%%&=**====*&***&&%&&====->>,'',===*%$#@+.                                                   ",
"                                 +@##$$&&&&&&&&%%#$$$#$$%$&**&===***%$$##@@.                                                    ",
"                                   +@###$$$$$%$####@@@@##$%#%%$&&%$$$##@@+.                                                     ",
"                                     +@@@###@#@@@@++.  +@@###$#######@@+.                                                       ",
"                                        +++@@@++..       +@@@#@@@@@@++.                                                         ",
"                                                             +.++..                                                             ",
"                                                                                                                                ",
"                                                                                                                                ",
"                                                                                                                                ",
"                                                                                                                                ",
"                                                                                                                                ",
"                                                                                                                                ",
"                                                                                                                                "};
