/* XPM */
char * colorcyan_xpm[] = {
"128 128 17 1",
" 	c None",
".	c #000000",
"+	c #10120F",
"@	c #1E201E",
"#	c #323431",
"$	c #3C3E3B",
"%	c #016768",
"&	c #626461",
"*	c #028F8D",
"=	c #757774",
"-	c #00B3B3",
";	c #00C6C4",
">	c #1BCECC",
",	c #00DCDF",
"'	c #00E9EA",
")	c #00F6F6",
"!	c #00FEFD",
"                                                                                                                                ",
"                                                                                                                                ",
"                                                                                                                                ",
"                                                                                                                                ",
"                                                                                                                                ",
"                                                                                                                                ",
"                                                                                                                                ",
"                                                                                                                                ",
"                                                                                                                                ",
"                                                                                                                                ",
"           ..........................................................................................................           ",
"          ............................................................................................................          ",
"          ...@@..+@#$$$$$$$$$$$$$$$$$$$$$$$$$$$$$$$$$$$$$$$$$$$$$$$$$$$$$$$$$$$$$$$$$$$$$$$$$$$$$$$$$$$$$$$$$&&=$.....          ",
"          ..#=@.................................................................................................$&....          ",
"          ..@#........................................................................................................          ",
"          .....%************************************************************************************************%.....          ",
"          .....*>;;;;;;;;;;>;;;;;>;;;;;>;;;;;>;;>;;;;;;;>;;;;;;;;;;>;;;;;>;;;;;>;;;;;;>;;;;;>;;;>;;;;;;;>>;>>>;;*.....          ",
"          ..+..*>;-;-;-;>>->>-;>->>-;>->>->>->>->-;>>->;>-;>>->;>>->>-;>->>->>->->->>-;>->>-;>-;>-;>>-;>;-;>;->;*.....          ",
"          ..@..*-;->>,>>>,;>,>>,>>,>>,>>,>>,>>>>,>>>,>>>,>>>,>>>>,;>,>>,>>,>>,>>,>>>,>>,>>,>>,>>,>>>,>>>,>>>,>>>*.....          ",
"          ..#..*;;;-;>,,>,,,,,,,,,,,,,>,,,,,,,,,,,,,,,,,,,,,,,,,>,,,,,,,>,,,,,,,,,,,,,,,,,,,,,,,,,,,,,,,,,,,,,,,*.@...          ",
"          ..$..*->;,,,,'''',','','',''',',''''''','',','','','''''',',''',',''''''',','',',','''',''','',','''''-.#...          ",
"          ..$..*>-;>,'))'))))))))))))))))!')')')))'))))'))))))')')))))))))))')')))))))))))))))'))))'))))))))'))'-.#...          ",
"          ..$..*;>>,'')!))!!))))))))))!))!!!!!!))!)))!!!))))!!)!))!!))!)!))!)!))))!))))))!)!)!!)))!)!))!)!)!!)!)-.#...          ",
"          ..$..*;;>,'))!!!!)!!!!!!!!!!!!!!!!!!)!!!!!!!!)!!!!!!!!!!!)!!!!!!!!!!!!!!!!!!!!!)!!!!)!!!!!!!!!!!!)!!!)-.#...          ",
"          ..$..*;>;,'))!)!!!!!!!)!!!!!)!)!))!!!!!!!!)!!!!)!!)!!!!!!!!))!!!!!!!!)!!!!!!!!!!)!!!!!!)!!)!!))!!!!!!)-.#...          ",
"          ..$..*;>>,'))!!!!!!!!!!!!!!!!!!!!!!!!!!!!!!!!!!!!!!!!!!!!!!!!!!!!!)!!!!!!!!!!!!!!!!!!!!!!!!!!!!!!!!!!!-.#...          ",
"          ..$..*-,>,'))!!!!!!)!!!!!!!!!!!!!!!!!!!!!!!!!!!!!!!!!))!!!!!!!)!!!!!!!!!)!)!!!!)!!!!!!!!!)!!!!!!))!!!!-.#...          ",
"          ..$..*;;>,')!)!)!)!!!)!))!)!)!)!)!)!)!)!)!)!)!)!)!)!!!)!)!)!)!!!)!)!)!)!!!)!)!!)!))!)!)!!!)!!)!!!!)!!!-.#...          ",
"          ..$..*>->,'))!!!!!!!!!!!!!!!!!!!!!!!!!!!!!!!!!!!!!!!!!!!!!!!!!!!!!!!!!!!!!!!!!!!!!!!!!!!!!!!!!!!!!!)!!-.#...          ",
"          ..$..*;>>,'))!!!)!!!!!!!!!!!!!!!!!!!!!!!!!!!!!!!!!!!!!!!!!!)!!!!!!!!!!!!!!!!!!!!!!!!!!!!!)!!!!!!!!!!)!-.#...          ",
"          ..$..*;;>,''!!!!!!)!!)!!)!!)!!)!!)!)!!)!!)!)!!)!!)!!!!)!!)!!!)!!)!!)!!)!!)!!)!!!!)!)!!!)!!!!)!!)!!!!!!-.#...          ",
"          ..$..*;>>,'))!!!!!!!!!!!!!!!!!!!!!!!!!!!!!!!!!!!!!!!!!!!!!!!!!!!!!!!!!!!!!!!!!!!!!!!!!!!!!!!!!!)!!!!!!-.#...          ",
"          ..$..*>;>,'))!!!!!!!!)!!!!!!!!!!!!!)!!!!!!!)!!!!!)!)!!!!!!!!!)!!!!!)!!!!!)!!!)!!!!!!)!!!)!!!!!)!!)!!)!-.#...          ",
"          ..$..*;;>,')!!)!)!)!!!)!)!)!)!)!)!!!)!)!)!!!)!)!!!!!)!!)!)!!!!)!)!!!)!)!!!!!!!!)!)!!!!!!!)!)!!!!!!!!!!-.#...          ",
"          ..$..*->>,'))!!!!!!!!!!!!!!!!!!!!!!!!!!!!!!!!!!!!!!!!!!!!!!!!!!!!!!!!!!!!!!!!!!!!!!!!!!!!!!!!!!!!)!!!!-.#...          ",
"          ..$..*;>>,'))!!!!)!!!!!!!!!!!!!!!!!!!!!!!!!!!!!!!!!!!!!!!!!!!!!!!!!!!!!!!!!!!!!!!!!!!!!!!!!!!!!)!!!)!!-.#...          ",
"          ..$..*>;>,')!!!)!!!)!!!!!!!!!!!)!!)!!!!)!)!!!))!)!!)!!!!))!)!!!)!)!!!)))))!)!!!!)))))!)!!!)!!!!!!)!!!)-.#...          ",
"          ..$..*-;>,'))!!!!!!!!)!!)!!)!!!!!!!!!!!!!!!!!!!!!!!!)!!!!!!!!!!!!!!!!!!!!!!!)!!!!!!!!!!!!!!!)!!!!!!!!!-.#...          ",
"          ..$..*>>>,'))!!!!!!!!!!!!!!!!!!!!!!!!!!!!!!!!!!!!!!!!!!!!!!!!!!!!!!!!!!!!!!!!!!!!!!!!!!!!!!!!!!!!)!!!!-.#...          ",
"          ..$..*->>,'))!!)!!!!)!!!!!!)!!)!!)))!!)!!)!!)!!)!!)!!)!!)!!)!)!!)!!!!!)!!!!!!!!!!)!!!!)!!!!!!)!!!!!)!!-.#...          ",
"          ..$..*>;>,')!)!!!)!!!!!)!!!!!!!!!!!!!!!!!!!!!!!!!!!!!)!!!!)!!!!!!!!!!)!!)!!)!!!)!!!)!!!!)!)!!!!!!!!!!)-.#...          ",
"          ..$..*;;>,')!!!!!!)!!!!!!)!)!)!!!!!)!!!!!!!)!!)!!!!!!!!!!!!!!!!!)!!!!!!!!!!!)!!!!!!!)!!!!!)!!!!!)!!!!!-.#...          ",
"          ..$..*;>>,'))!)!!!!!)!)!!!!!!!!)!!!!!!!)!!!!!!!!!!)!!!!!!)!!!!)!!!)!!!!!!!!!!!!!)!!!!!!!!!!!!!!!!)!!!!-.#...          ",
"          ..$..*->>,'))!!)!!!!!!!!!)!!!!!!!!)!)!!!)!!!!!!!!!!!!!)!!!!!!!!!!!!!)!)!)!!!)!!!!!!!)!)!!!!)!)!!!!!!!!-.#...          ",
"          ..$..*>;>,'))!!!!!!!!!)!!!!!)!!!!!!!!!!!!!!)!!!))!!)!!!!)!!!!!!!!)!!!!!!!!!!!!)!!)!!!!!!!!!!!!!!!!!)!)-.#...          ",
"          ..$..*;;>,'))!!!!!!!!!!!!)!!!!!!!!!!!!!)!!!)!!!!!!!!!!!!!!)!!)!!!!)!!!!!!!!!!!!!!!!!!!!!!!!!!!)!!!!!!!-.#...          ",
"          ..$..*>>>,'))!!!!))!!!!)!!!!)!!!!!!!)!!!!!!!!!!!)!!!!!)!!!!!!!!!!!!!!!)!!))!!!!!!!!!!!))!!!!!!!!!)!!!!-.#...          ",
"          ..$..*->>,')!)!!!!)!!!!!!!!!!!!))!!!)!!!)!!!)!!!!!!!!!!!!!!)!)!!!)!!!!!!!!!!!!)!)!!)!!!!)!)!!!)!!!!!!!-.#...          ",
"          ..$..*>>>,'))!!)!)!!!)!!!!!)!)!!!!!)!!!)!!!)!!)!!!))!!!!)!!!!!!!!!)!!!!)!!!!!!!!!!!!!!!!!)!!)!!!!!)!!)-.#...          ",
"          ..$..*-;>,')!!!!!!!!!!!)!!!!!!!!)!!!!!!!!!!!!!!!!!!!!!!!!!!!!)!!!!!!!!!!!!))!!!)!!!)!!!!!!!)!!!!)!!!!!-.#...          ",
"          ..$..*>>>,''!!)!!!!)!!!!!!!!!!!!!!!!!)!!!!)!!!)!!!!)!!!)!!!!!!!)!!!!)!!!!!!!!!!!!!!!!!)!!!!!!)!!!)!!!!-.#...          ",
"          ..$..*->>,')!!!!!!!!)!!)!!!!)!!!!!!!!!)!!!!)!!!!)!!!!!!!)!!)!!!!!)!!!!!)!!!)!!!!!!!!!!!)!!!!!!!!!!!!!!-.#...          ",
"          ..$..*>;>,'))!!!!)!!!!!!!!!!!)!!!!!!!!)!!!!!!!!!!!!!!)!!!!!!!!!!!!!!!!!!!)!!!!)!)!!!)!!!)!!!)!!!!!!)!)-.#...          ",
"          ..$..*>>>,')!!!!!!!!!)!!)!!!!!)!!!!)!!!!!!!!)!!)!!)!!!!!!)!!)!)!!)!!!!!!!!)!!!!!)!!!!!!!!!!!!!)!!!!!!!-.#...          ",
"          ..$..*->>,'))!!!!!!!!!!!)!!)!!!!!!!!!!!!)!!!!!!!!!!!!!!!!!!!!!!!!!!!))!!!!!!!!!!!!!!)!!!)!!!!!!!!)!!!!-.#...          ",
"          ..$..*;>>,')!))!!!!!!!!!!!!!!!!!!!)!!!!!!)!!!!)!!)!!!!!!!!!!!)!!)!!!!)!!!!!!!!)!)!!!!!!!!!!!!!)!!!!!!!-.#...          ",
"          ..$..*>->,''!!!!)!!)!)!!!!)!!!!)!!!!!!!)!!!!)!!!!!!!)))!!)!!!!!!!!!!!!!!)!!)!!!!!!!!)!!!!!))!!!!!!)!!)-.#...          ",
"          ..$..*>>>,'))!!!!!!!!!!)!!!!)!!!!!))!!!!!!!!!!!)!!!!!!!!!!!!!!!!!!!!!)!!!!!!!!!!!!!!!!!)!!!!!!)!)!!!!!-.#...          ",
"          ..$..*;->,'))!!!!!!!)!!!!!)!!!!!!!!!!!!!!!!!!)!!!!)!!!!!!!)!!)!!!)!!!!!!!!)!!)!!!)!!)!!!!!!)!!!!!!!!!!-.#...          ",
"          ..$..*>>>,'))!!)!)!!!!!)!!!!!!))!!!)!!!!)!!!!!!!!!!!!!!)!!!!!!!!!!!)!!)!!!!!!!)!!!!!!)!)!!!!!!!!)!!!!!-.#...          ",
"          ..$..*>>>,')!!!!!!!!!!!!!)!!)!!!!!!!!!)!!!!!!!!)!)!!)!!!!!)!!!)!)!!!!!!!!!!!)!!!!)!!!!!!!!!!!!!!!!)!!)-.#...          ",
"          ..$..*->>,')!!!!!)!!!)!!!!!!!!)!!)!)!!!!!)!!!!!!!!!!!!!!)!!!!!!!!)!!!!)!!!)!!!!!!!!!!!!!!!!!!!!!!!!!!!-.#...          ",
"          ..$..*>;>,'))!!)!!!)!!!!!!!!)!!!!!!!!!)!!!!))!!!!!!!!!)!!!!!!)!!!!!!!)!!!!!!!!!!!!!!!!!!)!!)!!!)!!!!!!-.#...          ",
"          ..$..*->>,')!!!!!!!!!!!!!)!!!!!!!!!)!!!!)!!!!!)!!!!!!!!!)!!!!!!!!!!!!!)!!!!!!)!!!!)!!)!!)!!)!!!!)!!!!!-.#...          ",
"          ..$..*>;>,,))!)!!!!!!!))!!!!!!!)!!!!!!!)!!!!!!!!!!))!!!!!!!!)!!!)!!!!!!!!!!)!!!)!!!!!!!!!!!!!!!!!!)!!)-.#...          ",
"          ..$..*>>>,'))!!!)!!)!!!!!!!)!!!!!!!)!!!)!!!!)!!!!!!!!)!!!!!!!)!!!!)!!!))!!!!)!!!!!)!!!!!)!!)!!!)!!!!!!-.#...          ",
"          ..$..*>;>,'))!!!!!!!!!!!!!!!!!!!!)!!!!!!!!!!!!!!)!!)!!!!!)!!!!!!!!!!!!!!!!)!!!!!!!!!!!!!!!!!!)!!!)!!!!-.#...          ",
"          ..$..*->>,')!!)!!!!)!!)!)!!!!)!!)!!!!!!!!!!!)!!!!!!!!)!!!!!!!!)!!!)!)!!!!!!)!!!!!)!)!)!!)!!!!!!!!!!!!!-.#...          ",
"          ..$..*>;>,'))!!)!!!!!!!!!!!!!)!!!!)!)!!!!)!!!!)!!!!!!!!!!)!!)!!!!!!!!!!!!!!!!!!!!!!!!!!!!!!!!)!)!!!)!)-.#...          ",
"          ..$..*;>>,'))!!!!!!!!!!!))!!!!!!!!!!!!!!!)!!!!!!!!!!!)!)!!!!!)!!!!!!!))!!!!!)!!!!!!!!!!!!!)!!!!!!!!!!!-.#...          ",
"          ..$..*>->,')!!!!!!!!!)!!!!!!)!!!!)!!!!)!)!!!)!!!!!!!!!!!!!!)!!!!)!!)!!!!!!!!!!!))!!)!!!!)!!!!!!!!)!!!!-.#...          ",
"          ..$..*>>>,')))!!!)!!!!)!!!!!!!!!!!!)!!!!!!!!!)!!))!!!!!!!!!!!!!!!!!!!!!!)!)!)!!!!!!!)!!!!!!!!)!!!!!!!!-.#...          ",
"          ..$..*>;>,'))!!)!!!!!!!!!!!!)!!)!!!!!)!!!!)!!!)!!!!!)!!!!!!!!!)!!!)!!!!)!!!!!!!!!!)!!!!!)!!)!!!!!!!)!)-.#...          ",
"          ..$..*->>,'))!!!)!!!)!!!)!!!!!!!!!!!!!!!!!!!!!!!!!!!!!)!!!)!!!!)!!!!!!!!!)!!!!!)!!!!)!!!!!!!!)!!!!!!!!-.#...          ",
"          ..$..*>;>,'))!!!!!!!!!)!!!!!!!!!!)!!)!)!!)!!!!!!!)!!!!!!)!!!!!!!!!!!!)!)!!!!!)!!!!!!!!!)!!!!!!!!!)!!!!-.#...          ",
"          ..$..*>>>,'))!!!!!!)!!!!!!!)!!)!!!!!!!!!!!!!!)!!!!!)!!)!!!!!!)!!!))!!!!!!!!!)!!!!!!)!!!!!)!!!!)!!!!!!!-.#...          ",
"          ..$..*;->,'))!!!!)!!!!!!!)!!!!!!)!!!!!!!!!!!!!)!!!)!!!!!!)!!!!!!!!!!!!!!!!!!!!)!)!!!!!!!!!!!!!!!!!)!!)-.#...          ",
"          ..$..*>>>,')!)!!!!!!!)!!!!)!!!!!!!!!!!!!!!!!!!!!!!!!!!!!!!!!!!!)!!)!!!!))!!!!!!!!!!!!!!)!)!!!!!)!!!!!!-.#...          ",
"          ..$..*>>>,')!)!)!!!!!)!!)!!!!)!!!)!!))!!)!)))!)!!!!)!!!!!!!)!!!!!!!!!!)!!!!!!!!!!!!!))!!!!!!!!!!!!!!!!-.#...          ",
"          ..$..*->>,')!!!!!!!!!!!!!!!!!!!!!!!!!!!!!!!!!!!!!!!!)!!)!!!!)!!!!!)!!!!!)!!!!!)!!)!!!!!!!!))!!!!)!!!!!-.#...          ",
"          ..$..*>;>,'))!!)!)!!!!!!!!!!)!!)!!!!!!!!)!!!!!)!!!!!!!)!!!!!!!)!!!!!!!!!!!!))!!!!!!!!!!)!!!!!!!!!!)!!)-.#...          ",
"          ..$..*->>,'))!!!!!)!!!!!)!!!!!!!)!!)!!!!!!!)!!)!!)!)!!)!!!!)!!!!!!)!!!)!!!!!!)!!!)!!!!!!)!!)!!!!!!!!!!-.#...          ",
"          ..$..*>>>,'))!!!!!!!)!!!!!!!!!!!!!!!!)!!!!!!!!!!!!!!!!!!!!!!!!!!!!!!!!!!)!!!!!)!!!!)!!!!!!!!!!!)!!!!!!-.#...          ",
"          ..$..*->>,'))!!!!)!!!!)!)!!)!)!)!!!!!!)!!!!!!!!!)!!!!!!!!!!!!))!!!!!)!!!!!!!)!!!!!!!)!!)!!!))!!!)!!!!!-.#...          ",
"          ..$..*>;>,')!)!)!!!!!!!!!!!!!!!!!!)!!!!)!!)!!!!!!!!)!!!!)!!)!!!!)!!!!!!!)!!!!!!!!!!!!!!!!!!!!!!!!!)!!)-.#...          ",
"          ..$..*;>>,'))!!!!!!!!!!!!!!!!!!!!)!!!!!!!!!!)!!!!!!!!)!!!)!!!!!!!!)!!!!!!!!!!!)!!!!)!!!!!)!!)!!!!!!!!!-.#...          ",
"          ..$..*>;>,'))!!)!!!))!!!!))!!!)!!!!!!)!!!!)!!!!!!!!!!!!!!!!)!!!!)!!!!)!!!!!!)!!!)!!!!!)!!!!!!!!)!!)!!!-.#...          ",
"          ..$..*->>,')!!!!)!!!!)!!!!!)!!!!!!)!!!!!!!!)!!)!!)!!)!)!!!!!!!!!!!!!!!!))!!!!!!!!!!!!!)!!!)!!!!!!!!!!!-.#...          ",
"          ..$..*>;>,'))!!!)!!!!!!!!!!!!)!!!!!!!!!!!)!!!!!!!!!!!!!!)!!!!!!!!!!!!!!!!!!)!!!!!)!!!)!!!!!!!!!)!!)!!)-.#...          ",
"          ..$..*->>,')!!!!!!!)!!!!!)!!!!!!)!!!)!!!!!!!!)!!)!!!!!!!!!))!!!!)!!)!!!!)!!!!)!!!!!!!!!!)!))!!!!!!!!!!-.#...          ",
"          ..$..*>>>,'))!!!!!!!!!!)!!!!!!)!!!!!!!!!!!!!!!!!!!!!!!!!)!!!!))!!!!!)!!!!!!!!!!!!!!!!!!!!!!!!)!!)!!!!!-.#...          ",
"          ..$..*->>,,)!)!!!!!!)!!!!)!!!!!!)!)!!)!)!!)!!)!!!!)!)!!!!!!!!!!!!!!!!!!)!!!!!!!))!!!)!!!!!!!!)!!!!!!!!-.#...          ",
"          ..$..*>>>,'))!!!!)!!!)!!!!!)!!!!!!!!!)!!!)!!!!!!)!!!!!!!)!!!!!)!!!)!!)!!!!))!!)!!!!!!!)!!!!!)!!!!!!)!)-.#...          ",
"          ..$..*->>,')))!!!!!!!!!!!!!!!!!!!!!!!!!!!)!!!!!!!!!!!!!!!!!)!!!!!!!!!!!!!!!!!!!!!!!!!!!!!!!!!!!!)!!!!!-.#...          ",
"          ..$..*>>>,'))!!!!)!!!!!)!!!!!!!!!!!)!!!!!!!!)!!!!)!!))!!!!!!!!!!!)!!!!)!!!!!!)!!)!!))!!!)!!!!!!!!!!!!!-.#...          ",
"          ..$..*->>,')!)!!!!!)!!!!!!)!)!!))!!!!)!!!!!!)!!!!!!!!!!)!!!!))!!!)!!!!!!!!!!!!!!!!!!!)!!!!!!!)!!!!!!!!-.#...          ",
"          ..$..*>>>,''!)!!!!!!!!!)!!)!!!)!!!!!!!!)!!!)!!!)!!!!!!!!!!)!!!!!!!!!)!!)!!)!!)!!)!!!!!!!!!!!!!)!!)!!!)-.#...          ",
"          ..$..*->>,')!!!)!!!!!!!!!!!!!!!!!!!!!!!!!!!!!!!!)!!!!)!!!!!!!!!!!!)!!!)!!!!!!!!!!!!!!!!!))!!!!!!!!!!!!-.#...          ",
"          ..$..*>;>,'))!!!!!!))!)!!)!!!!!!!)!!!!!!!!!!!!!!!!!!!!!!!!)!!!!!!!!!)!!!!!!!!!!!!!!!)!!!!!!)!!!!!)!!!)-.#...          ",
"          ..$..*>>>,'))!!)!!!!!!)!!!)!!!!!!)!)!!)!!!!)!)!)!)!!!!!)!!!))!!!!!!!!!!)!)!!!!)!!)!)!!!!!!)!!!!!!!)!!!-.#...          ",
"          ..$..*;;>,'))!!!!)!!!!!!!!!!!)!)!!!!!!!!!!!!!!!!!!!)!!)!!!!!!!))!!)!!!!!!!!))!!!!!!!)!!!)!!!)!)!!!!!!!-.#...          ",
"          ..$..*->>,')!)!!!!!!!!!!!!)!!!!!!!!!!!!)!!!)!!!)!!!!!!!!!!!!!!!)!!!!!)!!!!!!!!!)!!!!!!!!!!!!!!!!!!!!!!-.#...          ",
"          ..$..*,->,'))!!!!!!!!!!!)!!!!!)!!!)!)!!)!!!!!!!)!!!!!!!!)!!!!!!!!!!!!!!!)!!!!!!!!!!!!!!!!!!!!!)!!)!!!)-.#...          ",
"          ..$..*>>>,')!!!)!!)!!)!!!!!!!!!!!!!!!!!!)!!!!!!!!!)!)!!!!!!!!!!!!!!!!!!!)!!!)!!!))!)!!!!!!!!!!!!!!!!!!-.#...          ",
"          ..$..*->>,'))!!!!!!!!!!!!!)!!!!!!!!!!!!!!!)!)!!!!!!!!!!!!!!)!!)!!)!!!!)!!!!)!!!)!!!!!)!!)!!)!!!)!!)!!!-.#...          ",
"          ..$..*>>>,'))!!!!!!!!)!!!!!)!!))!)!!!!)!!!!!!!!!!!!!!)))!!!!!!!!!!)!!!!!!!!!!!!!!!!!)!!!)!!!!!!!!!!!!!-.#...          ",
"          ..$..*>;>,'))!!!)!)!!!!!)!!!!!!!!!!!!!!!!!!!!!!)!!)!!!!!!!!)!!)!!!!!!!!!!!!)!!!!)!!!!!!!!!!)!!!!!!!!!)-.#...          ",
"          ..$..*-;>,')!!!!!!!)!!)!!!!!)!!!!!)!!!)!!!))!!!!!!!!!!!)!!!!!!!!!!)!!!!!!!!!!!)!!!!)!!!!!!!!!!)!!)!!!!-.$...          ",
"          ..$..*,;>,'')!!)!!!!!!!!!!)!!!!)!!!!)!!!)!!!!!)!!)!!!!!!!!)!!!!!)!!!!)!))!!!!!!!!!!!!!)!!)!!!!!!!!)!!!-.&...          ",
"          ..&..*->>,'))!!!!!!!!!!!!!!!)!!!!!!!!!!!!!!!!!!!!!!!!!!!!!!))!!!!)!!!!!!!!!)!)!!!!!!!!!!!!))!!)!!!!!!!-.&...          ",
"          ..=..*>;>,')!!!!!)!!!!!!!!!!!!!)!!!)!!)!!!!!!!)!!)!)!!)!!!!!!!!!!!!)!!!!!!!!!!!!!)!)!!!)!!!!!!!!!!)!!)-.=...          ",
"          ..=..*>>>,'))!)!!!!!!)!!!!!!!!!)!!!!!!)!!!)!!!!!!!!)!!!!!)!!!)!!!!!!!!!!!)!!!!)!!!!!!!!!!!!)!!!)!!!!!!-@=...          ",
"          ..$&.%****--------------------------------------------------------------------------------------------*&$...          ",
"          ...$..........+.+.+.++.+.+.+...+.+.+.++.+.+.+.+.+.++.+.+.+.+.+.+.+..+.+.+.+.+.++....+.+....+.+.+.....@&=....          ",
"          ........+@$$$$#$#$#$##$#$#$#$$#$#$#$##$#$$$$#$#$$$##$#$#$###$#$##$#$##$##$$$#$##$$$$##$#$$#$#$$#$$&&==$.....          ",
"          ............................................................................................................          ",
"          ............................................................................................................          ",
"           ..........................................................................................................           ",
"                                                                                                                                ",
"                                                                                                                                ",
"                                                                                                                                ",
"                                                                                                                                ",
"                                                                                                                                ",
"                                                                                                                                ",
"                                                                                                                                ",
"                                                                                                                                ",
"                                                                                                                                ",
"                                                                                                                                "};
