/* XPM */
char * colorwhite_xpm[] = {
"128 128 17 1",
" 	c None",
".	c #000000",
"+	c #212321",
"@	c #373936",
"#	c #4C4E4C",
"$	c #60625F",
"%	c #6D706D",
"&	c #7E807D",
"*	c #8D8F8C",
"=	c #9EA09D",
"-	c #B1B4B0",
";	c #C2C5C1",
">	c #CACDC9",
",	c #DADDD9",
"'	c #E7E9E6",
")	c #F1F3F0",
"!	c #FCFFFB",
"                                                                                                                                ",
"                                                                                                                                ",
"                                                                                                                                ",
"                                                                                                                                ",
"                                                                                                                                ",
"                                                                                                                                ",
"                                                                                                                                ",
"                                                                                                                                ",
"                                                                                                                                ",
"                                                                                                                                ",
"           ..........................................................................................................           ",
"          ............................................................................................................          ",
"          ...++...+@@@@@@@@@@@@@@@@@@@@@@@@@@@@@@@@@@@@@@@@@@@@@@@@@@@@@@@@@@@@@@@@@@@@@@@@@@@@@@@@@@@@@@@@@#$%%#.....          ",
"          ..+&+.................................................................................................##....          ",
"          ..++........................................................................................................          ",
"          .....@......................................................................................................          ",
"          .....*%.....................................................................................................          ",
"          .....*;$....................................................................................................          ",
"          ..+..*;;$...................................................................................................          ",
"          ..@..*;;;%..............................................................................................+...          ",
"          ..@..*;-;>%.............................................................................................@...          ",
"          ..@..*;;>>'&............................................................................................@...          ",
"          ..@..*;;>,''&...........................................................................................@...          ",
"          ..@..*;>>,'))*..........................................................................................@...          ",
"          ..#..*;>>,'))!&.........................................................................................@...          ",
"          ..@..*;;>,')!!!*........................................................................................@...          ",
"          ..@..*;;>,')!!!!&.......................................................................................@...          ",
"          ..@..*;>>,'))!!!!*......................................................................................@...          ",
"          ..@..*>>>''))!!!!!&.....................................................................................@...          ",
"          ..@..*;;>,')!!!!!!!*....................................................................................@...          ",
"          ..#..*;;>,'))!!!!!!!&...................................................................................@...          ",
"          ..@..*>>>,')!!!!!!!!!*..................................................................................@...          ",
"          ..@..*;>>,')!!!!!!!!!!&.................................................................................@...          ",
"          ..@..*;>>,'))!!!!!!!!!!*................................................................................@...          ",
"          ..@..*;>>,'))!!!!!!!!!!!&...............................................................................@...          ",
"          ..@..*;>>,)))!!!!!!!!!!!!*..............................................................................@...          ",
"          ..#..*;>>,')!!!!!!!!!!!!!!&.............................................................................@...          ",
"          ..@..*;>>,')!!!!!!!!!!!!!!!*............................................................................@...          ",
"          ..@..*;>>,'))!!!!!!!!!!!!!!!&...........................................................................@...          ",
"          ..@..*;>>,')!!!!!!!!!!!!!!!!!*..........................................................................@...          ",
"          ..@..*;;>''))!!!!!!!!!!!!!!!!!&.........................................................................@...          ",
"          ..@..*;;>,')!!!!!!!!!!!!!!!!!!!*........................................................................@...          ",
"          ..@..*;>>,'))!!!!!!!!!!!!!!!!!!!&.......................................................................@...          ",
"          ..@..*>;>,')!!!!!!!!!!!!!!!!!!!!!*......................................................................@...          ",
"          ..#..*>;>,'))!!!!!!!!!!!!!!!!!!!!!&.....................................................................@...          ",
"          ..@..*;>>,')!!!!!!!!!!!!!!!!!!!!!!!*....................................................................@...          ",
"          ..@..*;>>,')!!!!!!!!!!!!!!!!!!!!!!!!&...................................................................@...          ",
"          ..@..*;;>,'))!!!!!!!!!!!!!!!!!!!!!!!!*..................................................................@...          ",
"          ..@..*;>>,')!!!!!!!!!!!!!!!!!!!!!!!!!!&.................................................................@...          ",
"          ..@..*;;>,'))!!!!!!!!!!!!!!!!!!!!!!!!!!*................................................................@...          ",
"          ..#..*>;>,')!!!!!!!!!!!!!!!!!!!!!!!!!!!!&...............................................................@...          ",
"          ..@..*;>>''))!!!!!!!!!!!!!!!!!!!!!!!!!!!!*..............................................................@...          ",
"          ..@..*;;>,'))!!!!!!!!!!!!!!!!!!!!!!!!!!!!!&.............................................................@...          ",
"          ..@..*>>>,)))!!!!!!!!!!!!!!!!!!!!!!!!!!!!!!*............................................................@...          ",
"          ..@..*;>>,')!!!!!!!!!!!!!!!!!!!!!!!!!!!!!!!!&...........................................................@...          ",
"          ..@..*;;>,'))!!!!!!!!!!!!!!!!!!!!!!!!!!!!!!!!*..........................................................@...          ",
"          ..#..*>;>,')!!!!!!!!!!!!!!!!!!!!!!!!!!!!!!!!!!&.........................................................@...          ",
"          ..@..*;>>,'))!!!!!!!!!!!!!!!!!!!!!!!!!!!!!!!!!!*........................................................@...          ",
"          ..@..*>;>''))!!!!!!!!!!!!!!!!!!!!!!!!!!!!!!!!!!!&.......................................................@...          ",
"          ..@..*;>>,'))!!!!!!!!!!!!!!!!!!!!!!!!!!!!!!!!!!!!*......................................................@...          ",
"          ..@..*;>>'')!!!!!!!!!!!!!!!!!!!!!!!!!!!!!!!!!!!!!!&.....................................................@...          ",
"          ..@..*>;>,'))!!!!!!!!!!!!!!!!!!!!!!!!!!!!!!!!!!!!!!*....................................................@...          ",
"          ..#..*;;>,')!!!!!!!!!!!!!!!!!!!!!!!!!!!!!!!!!!!!!!!!&...................................................@...          ",
"          ..@..*;>>,'))!!!!!!!!!!!!!!!!!!!!!!!!!!!!!!!!!!!!!!!!*..................................................@...          ",
"          ..@..*;>>,'))!!!!!!!!!!!!!!!!!!!!!!!!!!!!!!!!!!!!!!!!!&.................................................@...          ",
"          ..@..*>;>,)))!!!!!!!!!!!!!!!!!!!!!!!!!!!!!!!!!!!!!!!!!!*................................................@...          ",
"          ..@..*;;>,')!!!!!!!!!!!!!!!!!!!!!!!!!!!!!!!!!!!!!!!!!!!!&...............................................@...          ",
"          ..@..*;>>,'))!!!!!!!!!!!!!!!!!!!!!!!!!!!!!!!!!!!!!!!!!!!!&..............................................@...          ",
"          ..@..*>>>'')!!!!!!!!!!!!!!!!!!!!!!!!!!!!!!!!!!!!!!!!!!!!!!&.............................................@...          ",
"          ..@..*;;>,')!!!!!!!!!!!!!!!!!!!!!!!!!!!!!!!!!!!!!!!!!!!!!!!&............................................@...          ",
"          ..#..*;;>,'))!!!!!!!!!!!!!!!!!!!!!!!!!!!!!!!!!!!!!!!!!!!!!!!&...........................................@...          ",
"          ..@..*>>>,')!!!!!!!!!!!!!!!!!!!!!!!!!!!!!!!!!!!!!!!!!!!!!!!!!&..........................................@...          ",
"          ..@..*;>>,')!!!!!!!!!!!!!!!!!!!!!!!!!!!!!!!!!!!!!!!!!!!!!!!!!!&.........................................@...          ",
"          ..@..*;;>,'))!!!!!!!!!!!!!!!!!!!!!!!!!!!!!!!!!!!!!!!!!!!!!!!!!!&........................................@...          ",
"          ..@..*>;>,'))!!!!!!!!!!!!!!!!!!!!!!!!!!!!!!!!!!!!!!!!!!!!!!!!!!!&.......................................@...          ",
"          ..@..*;>>,)))!!!!!!!!!!!!!!!!!!!!!!!!!!!!!!!!!!!!!!!!!!!!!!!!!!!!&......................................@...          ",
"          ..#..*;;>,')!!!!!!!!!!!!!!!!!!!!!!!!!!!!!!!!!!!!!!!!!!!!!!!!!!!!!!&.....................................@...          ",
"          ..@..*>>>,'))!!!!!!!!!!!!!!!!!!!!!!!!!!!!!!!!!!!!!!!!!!!!!!!!!!!!!!&....................................@...          ",
"          ..@..*;>>,')!!!!!!!!!!!!!!!!!!!!!!!!!!!!!!!!!!!!!!!!!!!!!!!!!!!!!!!!&...................................@...          ",
"          ..@..*;;>''))!!!!!!!!!!!!!!!!!!!!!!!!!!!!!!!!!!!!!!!!!!!!!!!!!!!!!!!!&..................................@...          ",
"          ..@..*;>>,')!!!!!!!!!!!!!!!!!!!!!!!!!!!!!!!!!!!!!!!!!!!!!!!!!!!!!!!!!!&.................................@...          ",
"          ..@..*;;>,'))!!!!!!!!!!!!!!!!!!!!!!!!!!!!!!!!!!!!!!!!!!!!!!!!!!!!!!!!!!&................................@...          ",
"          ..#..*;>>,')!!!!!!!!!!!!!!!!!!!!!!!!!!!!!!!!!!!!!!!!!!!!!!!!!!!!!!!!!!!!&...............................@...          ",
"          ..@..*;;>''))!!!!!!!!!!!!!!!!!!!!!!!!!!!!!!!!!!!!!!!!!!!!!!!!!!!!!!!!!!!!&..............................@...          ",
"          ..@..*;>>,'))!!!!!!!!!!!!!!!!!!!!!!!!!!!!!!!!!!!!!!!!!!!!!!!!!!!!!!!!!!!!!&.............................@...          ",
"          ..@..*;;>,')!!!!!!!!!!!!!!!!!!!!!!!!!!!!!!!!!!!!!!!!!!!!!!!!!!!!!!!!!!!!!!!&............................@...          ",
"          ..@..*;>>,'))!!!!!!!!!!!!!!!!!!!!!!!!!!!!!!!!!!!!!!!!!!!!!!!!!!!!!!!!!!!!!!!&...........................@...          ",
"          ..@..*;;>'')!!!!!!!!!!!!!!!!!!!!!!!!!!!!!!!!!!!!!!!!!!!!!!!!!!!!!!!!!!!!!!!!!&..........................@...          ",
"          ..#..*>;>,'))!!!!!!!!!!!!!!!!!!!!!!!!!!!!!!!!!!!!!!!!!!!!!!!!!!!!!!!!!!!!!!!!!&.........................@...          ",
"          ..@..*;;>,')!!!!!!!!!!!!!!!!!!!!!!!!!!!!!!!!!!!!!!!!!!!!!!!!!!!!!!!!!!!!!!!!!!!&........................@...          ",
"          ..@..*;>>,'))!!!!!!!!!!!!!!!!!!!!!!!!!!!!!!!!!!!!!!!!!!!!!!!!!!!!!!!!!!!!!!!!!!!&.......................@...          ",
"          ..@..*>;>,')!!!!!!!!!!!!!!!!!!!!!!!!!!!!!!!!!!!!!!!!!!!!!!!!!!!!!!!!!!!!!!!!!!!!!&......................@...          ",
"          ..@..*>;>''))!!!!!!!!!!!!!!!!!!!!!!!!!!!!!!!!!!!!!!!!!!!!!!!!!!!!!!!!!!!!!!!!!!!!!&.....................@...          ",
"          ..@..*;;>,')!!!!!!!!!!!!!!!!!!!!!!!!!!!!!!!!!!!!!!!!!!!!!!!!!!!!!!!!!!!!!!!!!!!!!!!&....................@...          ",
"          ..#..*;>>,')!!!!!!!!!!!!!!!!!!!!!!!!!!!!!!!!!!!!!!!!!!!!!!!!!!!!!!!!!!!!!!!!!!!!!!!!&...................@...          ",
"          ..@..*>;>,'))!!!!!!!!!!!!!!!!!!!!!!!!!!!!!!!!!!!!!!!!!!!!!!!!!!!!!!!!!!!!!!!!!!!!!!!!&..................@...          ",
"          ..@..*;>>,'))!!!!!!!!!!!!!!!!!!!!!!!!!!!!!!!!!!!!!!!!!!!!!!!!!!!!!!!!!!!!!!!!!!!!!!!!!&.................@...          ",
"          ..@..*;>>,')!!!!!!!!!!!!!!!!!!!!!!!!!!!!!!!!!!!!!!!!!!!!!!!!!!!!!!!!!!!!!!!!!!!!!!!!!!!&................@...          ",
"          ..@..*;;>,'))!!!!!!!!!!!!!!!!!!!!!!!!!!!!!!!!!!!!!!!!!!!!!!!!!!!!!!!!!!!!!!!!!!!!!!!!!!!&...............@...          ",
"          ..@..*;>>,')!!!!!!!!!!!!!!!!!!!!!!!!!!!!!!!!!!!!!!!!!!!!!!!!!!!!!!!!!!!!!!!!!!!!!!!!!!!!!&..............@...          ",
"          ..#..*;>>''))!!!!!!!!!!!!!!!!!!!!!!!!!!!!!!!!!!!!!!!!!!!!!!!!!!!!!!!!!!!!!!!!!!!!!!!!!!!!!&.............@...          ",
"          ..@..*;;>,')!!!!!!!!!!!!!!!!!!!!!!!!!!!!!!!!!!!!!!!!!!!!!!!!!!!!!!!!!!!!!!!!!!!!!!!!!!!!!!!&............@...          ",
"          ..@..*>;>,')!!!!!!!!!!!!!!!!!!!!!!!!!!!!!!!!!!!!!!!!!!!!!!!!!!!!!!!!!!!!!!!!!!!!!!!!!!!!!!!!&...........@...          ",
"          ..@..*;>>,'))!!!!!!!!!!!!!!!!!!!!!!!!!!!!!!!!!!!!!!!!!!!!!!!!!!!!!!!!!!!!!!!!!!!!!!!!!!!!!!!!&..........@...          ",
"          ..@..*;>>,'))!!!!!!!!!!!!!!!!!!!!!!!!!!!!!!!!!!!!!!!!!!!!!!!!!!!!!!!!!!!!!!!!!!!!!!!!!!!!!!!!!&.........@...          ",
"          ..@..*>;>,'))!!!!!!!!!!!!!!!!!!!!!!!!!!!!!!!!!!!!!!!!!!!!!!!!!!!!!!!!!!!!!!!!!!!!!!!!!!!!!!!!!!&........@...          ",
"          ..#..*;;>'')!!!!!!!!!!!!!!!!!!!!!!!!!!!!!!!!!!!!!!!!!!!!!!!!!!!!!!!!!!!!!!!!!!!!!!!!!!!!!!!!!!!!&.......@...          ",
"          ..@..*;>>,'))!!!!!!!!!!!!!!!!!!!!!!!!!!!!!!!!!!!!!!!!!!!!!!!!!!!!!!!!!!!!!!!!!!!!!!!!!!!!!!!!!!!!&......@...          ",
"          ..#..*>>>,')!!!!!!!!!!!!!!!!!!!!!!!!!!!!!!!!!!!!!!!!!!!!!!!!!!!!!!!!!!!!!!!!!!!!!!!!!!!!!!!!!!!!!!&.....#...          ",
"          ..$..*;;>,')!!!!!!!!!!!!!!!!!!!!!!!!!!!!!!!!!!!!!!!!!!!!!!!!!!!!!!!!!!!!!!!!!!!!!!!!!!!!!!!!!!!!!!!&....%...          ",
"          ..%..*;;>''))!!!!!!!!!!!!!!!!!!!!!!!!!!!!!!!!!!!!!!!!!!!!!!!!!!!!!!!!!!!!!!!!!!!!!!!!!!!!!!!!!!!!!!!&...*...          ",
"          ..%..*>>>,')!!!!!!!!!!!!!!!!!!!!!!!!!!!!!!!!!!!!!!!!!!!!!!!!!!!!!!!!!!!!!!!!!!!!!!!!!!!!!!!!!!!!!!!!!&.+%...          ",
"          ..##.$***==-------------------------------------------------------------------------------------------@$@...          ",
"          ...#.................................................................................................+$*....          ",
"          .........+@@@@@@@@@@@@@@@@@@@@@@@@@@@@@@@@@@@@@@@@@@@@@@@@@@@@@@@@@@@@@@@@@@@@@@@@@@@@@@@@@@@@@@@@#%&%@.....          ",
"          ............................................................................................................          ",
"          ............................................................................................................          ",
"           ..........................................................................................................           ",
"                                                                                                                                ",
"                                                                                                                                ",
"                                                                                                                                ",
"                                                                                                                                ",
"                                                                                                                                ",
"                                                                                                                                ",
"                                                                                                                                ",
"                                                                                                                                ",
"                                                                                                                                ",
"                                                                                                                                "};
