/* XPM */
char * colorblue_xpm[] = {
"128 128 17 1",
" 	c None",
".	c #000000",
"+	c #09008F",
"@	c #0003A7",
"#	c #0800CD",
"$	c #0700DE",
"%	c #1400B2",
"&	c #1000C4",
"*	c #0600F3",
"=	c #0003E9",
"-	c #10120F",
";	c #2C00F7",
">	c #202220",
",	c #333432",
"'	c #3B3D3A",
")	c #4D4F4C",
"!	c #6E706D",
"                                                                                                                                ",
"                                                                                                                                ",
"                                                                                                                                ",
"                                                                                                                                ",
"                                                                                                                                ",
"                                                                                                                                ",
"                                                                                                                                ",
"                                                                                                                                ",
"                                                                                                                                ",
"                                                                                                                                ",
"           ..........................................................................................................           ",
"          ............................................................................................................          ",
"          ...>>..->,''''''''''''''''''''''''''''''''''''''''''''''''''''''''''''''''''''''''''''''''''''''''))!!).....          ",
"          ..,!>.................................................................................................))....          ",
"          ..>,........................................................................................................          ",
"          .....++++++++++++++++++++++++++++++++++++++++++++++++++++++++++++++++++++++++++++++++++++++++++++++++++.....          ",
"          .....+##&&#########################################################################################&&&+.....          ",
"          ..-..+#%&&&&&#&#&#&&#&&##&&#&#&&#&&##&&&&#&&&#&&&#&&#&#&&##&&#&#&&#&&#&#&#&&#&&##&&#&#&&#&#&&##&###&&&+.....          ",
"          ..>..+&&%&&&##########################################################################################+.....          ",
"          ..,..+&&&&##$$$$$$$$$$$$$$$$$$$$$$$$$$$$$$$$$$$$$$$$$$$$$$$$$$$$$$$$$$$$$$$$$$$$$$$$$$$$$$$$$$$$$$$$$$@.>...          ",
"          ..'..+&&&#$$=$$==$$===$$=$===$$===$====$===$===$==$=$=$=$$=$===$$===$$===$$===$$=$====$=$==$===$====$=@.,...          ",
"          ..'..+&&#$$=*=*=***=*=*;=*=*=**=*=*=*=**==**=*=**=*=;=******=*=**=*=**==***=*=*;=*==*=;=*=***=**==**==%.,...          ",
"          ..'..+#&#$==*;**;;*;;;;**;*;;;*;;;*;;;*;;*;;*;;;*;;;*;*;;*;;*;;;*;;;;*;*;;*;;;;**;;;;;*;;*;;*;;;**;;;*%.,...          ",
"          ..'..+&##$==*;;;;;;;*;;;;;*;;;*;;;;*;;;;;;;;;;;;*;;;;;*;;*;;*;;;;;*;;;;;;;;;*;;;;*;*;;;;;;*;;*;;;;;;;;%.,...          ",
"          ..'..+&&#$=*;;;*;*;*;;;;;*;;;*;;*;*;;*;;*;*;*;*;;;*;;*;;;;;;;;*;*;;;;*;*;*;*;;;;*;;;;*;;;*;;;;;;;*;;;*%.,...          ",
"          ..'..+###$=**;;;;;;*;;*;;;*;;*;;;;;;;*;;;;;;;;*;;;*;;*;;*;;*;;;;*;*;;;;;;;;*;;;;*;*;;;*;;;;;*;*;;;*;;;%.,...          ",
"          ..'..+&##$=**;*;*;*;;*;;;*;;;;;*;*;*;;;*;*;*;*;;;*;;;;;*;;*;;*;*;;;;*;*;*;*;;*;*;;;;*;;;*;*;;;;;*;;;;;%.,...          ",
"          ..'..+&&#$=*;;;;;;;;;*;;;;;;*;;;;;;*;;;;;;;;;*;;;;;;*;;*;;*;;;;*;*;;;;;;;;*;;;;;*;;;;*;;;;;*;*;;;*;*;;%.,...          ",
"          ..'..+###$==*;;*;*;;;;;*;*;*;;;*;*;;;*;*;*;*;;;*;*;*;;*;;;;;;*;;;;;*;*;;*;;;*;;*;;*;*;;*;*;;;;;*;;;;;;%.,...          ",
"          ..'..+&##$=**;;;;;*;*;;;;;;;;;;;;*;;;;;;;;;*;;;;;;;*;;;;;*;;;*;;*;;;;*;;*;;;*;;*;;;;*;;;;;*;*;;;*;*;;;%.,...          ",
"          ..'..+&&#$=**;*;*;;;;;*;*;*;*;;*;;;*;*;*;*;;;*;*;;*;;;*;*;;;*;;*;;;*;;;*;;;*;;;;;*;*;;*;*;;;;;*;;;;;*;%.,...          ",
"          ..'..+###$=**;;;;*;*;;;;;;;;*;;*;;;;;;;;;*;;;;;*;;;;;;;;*;;;*;;;*;;*;;;*;;;;;;*;;;;;;;;;;*;*;;;*;*;;;;%.,...          ",
"          ..'..+#&#$=**;;*;;;;;*;*;*;*;;*;;*;*;*;*;;;*;;*;;*;*;*;*;;;*;;;*;;;;;*;;;*;*;*;;*;*;;*;*;;;;;*;;;;;;*;%.,...          ",
"          ..'..+&##$=**;;;*;*;;;;;;;;;;;*;;;;;;;;*;;;*;;*;;;;;;;;*;;;;;;;;;;*;;*;;;;;;;;;;;;*;;;;;*;*;;;*;;*;;;;%.,...          ",
"          ..'..+&##$=**;*;;;;;*;*;*;*;;;;;*;*;;*;;;;*;;*;;*;*;;*;;;*;*;;*;*;;;;;;;*;*;*;;;*;;;*;*;;;;;*;;;*;;;*;%.,...          ",
"          ..'..+&##$=**;;*;*;;;;;;;;;*;*;;;;*;;*;*;;*;;;;;;;*;;*;;;;;*;;;;;*;*;*;;;;;;;*;;*;;;;;;*;*;;;*;;*;;;;;%.,...          ",
"          ..'..+#&#$=*;*;;;;;*;*;*;*;;;;;*;*;;*;;;;*;;;*;*;*;;*;;*;;*;;*;*;;;;;;;*;*;*;;;*;;*;*;*;;;;*;;;*;;*;*;%.,...          ",
"          ..'..+&##$=**;*;*;;;;;;;;;*;*;;;;*;;;*;;;;;;;;;;;;;;*;;*;;*;;;;;*;*;*;;;;;;;*;;*;;;;;;;*;;;;*;;*;;;;;;%.,...          ",
"          ..'..+&##$=**;;;;;*;*;*;*;;;;;;*;;;;*;;;*;*;*;*;*;;;;;*;;*;;*;*;;;;;;;*;*;*;;;;;;*;*;;*;;;*;;;;;;*;;*;%.,...          ",
"          ..'..+&##$=**;;*;;;;;;;;;*;*;;;*;;;;*;;;;;;;;;;;*;*;;;*;;;;;;;;*;*;*;;;;;;;*;;*;;;;*;;*;;;;*;;*;;*;;;;%.,...          ",
"          ..'..+#&#$=**;*;;*;*;*;*;;;;;;*;;;;*;;*;*;*;;;*;;;;;;;;;*;;*;*;;;;;;;*;*;*;;;*;;*;*;;*;;*;*;;*;;;;;;*;%.,...          ",
"          ..'..+&##$=*;;*;;;;;;;;*;*;*;;*;*;;*;;;;;;;*;;*;*;*;*;;;*;;;;;*;*;*;;;;;;;*;;;;;;;;;;*;;;;*;;;;;*;;;;;%.,...          ",
"          ..'..+&##$==*;;;*;*;;*;;;;;;;*;;;;*;;*;*;*;;;*;;;;;;;;;;;;*;*;;;;;;;*;*;*;;;*;;*;*;;;;;*;*;;*;*;;;*;*;%.,...          ",
"          ..'..+&##$=**;;;;;*;;*;;*;*;;;*;;;;;;;;;;;*;;;*;;*;*;*;*;;;;;*;*;*;;;;;;;*;;*;;;;;*;*;;;;;;;;;;*;;;;;;%.,...          ",
"          ..'..+#&#$=**;*;;*;;*;;*;;;;;*;;;*;;*;*;*;;;;*;;*;;;;;;;;*;*;;;;;;;*;*;*;;;*;;*;*;;;;;*;*;;*;*;;;*;;*;%.,...          ",
"          ..'..+&##$=**;*;;;;;*;;*;;*;;*;;;*;;;;;;*;*;;*;;*;*;*;*;;;;;*;*;*;;;;;;;*;;*;;;;;*;*;;;;*;;;;;*;;*;;;;%.,...          ",
"          ..'..+&##$=**;;;*;;;;;*;;*;;;;;;*;;*;*;*;;;;*;;;;;;;;;;;*;*;;;;;;;*;*;*;;;;;;*;*;;;;;;*;;;*;*;;;*;;;*;%.,...          ",
"          ..'..+&##$=*;*;;*;*;;;*;;;;*;*;;*;;;;;;*;*;;;;;*;*;*;*;;;;;*;*;*;;;;;;;*;;*;;;;;*;*;;;*;;;;;;*;;;*;;;;%.,...          ",
"          ..'..+&##$==*;;;;;;;;;;;*;*;;;;*;;*;;*;;;;;*;*;;;;;;;;;*;*;;;;;;;*;*;*;;;*;;*;*;;;;;;*;;*;*;*;;;*;;;*;%.,...          ",
"          ..'..+&&#$=*;;;*;*;*;*;;;;*;*;;;;;*;;*;;*;;;;;*;*;*;*;;;;;*;*;*;;;;;;;*;;;;;;;*;*;*;;*;;;;;;*;;;;*;;;;%.,...          ",
"          ..'..+#&#$==*;*;;;;;;;;;*;;;;;*;*;;;*;;*;;;*;*;;;;;;;;*;*;;;;;;;*;*;*;;;*;;;*;;;;;;;*;;*;*;*;;*;*;;;*;%.,...          ",
"          ..'..+&##$=*;;*;*;*;*;;;*;;*;;;;*;;;*;;;;;;;;;*;;*;*;;;;;*;*;*;;;;;;;*;;;*;;*;;*;*;;;;;;;;;*;;;;;*;;;;%.,...          ",
"          ..'..+&&#$==*;;;;;;;;;;*;;*;;;*;;;*;;;*;*;*;;*;;*;;;;*;*;;;;;;;*;*;*;;;*;;;*;;*;;;;*;;*;;*;;;*;;*;;;*;%.,...          ",
"          ..'..+###$=*;*;;*;*;*;;;;;*;;;*;;;*;;;;;;;*;;*;;*;*;;;;;*;*;*;;;;;;;*;;;*;;*;;*;*;;*;;*;;*;;;*;;;*;;;;%.,...          ",
"          ..'..+&##$==*;;*;;;;;;*;;;;;;*;;*;;;;*;*;*;;*;;;;;;;*;*;;;;;;;*;*;*;;;*;;;;;;*;;;;;;;*;;*;;;;;;;*;;;*;%.,...          ",
"          ..'..+&##$=**;;*;*;*;;*;*;*;;;;;*;*;;;;;;*;;;;;*;*;;;;;*;*;*;;;;;;;*;;;*;;*;;;*;;;*;;*;;;*;;*;;;;*;;;;%.,...          ",
"          ..'..+&&#$=**;;;;;;;;*;;;;;;*;;;;;;;*;;*;;;*;*;;;;;*;*;;;;;;;*;*;*;;;*;;;*;;;*;;*;;;;;;;*;;*;;*;*;;;*;%.,...          ",
"          ..'..+###$=**;*;*;*;;*;*;*;;;*;*;*;;*;;*;;;;;;*;*;;;;;*;*;*;;;;;;;*;;;*;;;;;;*;;;*;;*;;;*;;*;;;;;*;;;;%.,...          ",
"          ..'..+&&#$=*;*;;;;;;;;;;;;;*;;;;;;;*;;*;;;*;*;;;;;*;*;;;;;;;*;*;*;;;*;;;*;;*;;;*;;;*;;;*;;;;;*;;*;;;*;%.,...          ",
"          ..'..+###$=**;*;;*;;*;*;*;;;*;*;*;;;;;*;;;;;;*;*;;;;;*;*;*;;;;;;;*;;;*;;*;;*;;;;*;;*;;;;;;*;;*;;;*;;;;%.,...          ",
"          ..'..+&##$=**;;;*;;*;;;;;;*;;;;;;;*;;;;;*;*;*;;;;*;*;;;;;;;*;*;*;;;*;;;*;;*;;*;*;;*;;*;*;*;;;;;;*;;;*;%.,...          ",
"          ..'..+&&#$=*;*;;*;;;*;;*;;;*;*;*;;;*;*;;;;;;;*;;;;;;*;*;*;;;;;;;*;;;*;;;;;*;;;;;;;*;;;;;;;;;*;;;;*;;;;%.,...          ",
"          ..'..+#&#$==*;;*;;;*;;*;;*;;;;;;;*;;;;;*;*;;*;;*;*;*;;;;;;*;*;*;;;*;;;*;;;;;*;*;;;;;*;*;*;*;;;*;*;;;*;%.,...          ",
"          ..'..+&##$=**;;;*;;*;;;;;;*;*;*;;;*;*;;;;*;;*;;;;;;;*;;*;;;;;;;*;;;*;;;*;*;;;;;*;*;;;;;;;;;*;;;;;*;;;;%.,...          ",
"          ..'..+&&#$=*;;;*;;;;;*;;*;;;;;;;*;;;;;*;*;;*;;*;*;;*;;*;;*;*;*;;;*;;;*;;;;;*;*;;;;;*;*;*;*;;;*;;*;;;*;%.,...          ",
"          ..'..+###$=**;;;;;*;;*;;;*;*;*;;;*;*;;;;*;;;;;;;*;;*;;*;;;;;;;*;;;*;;;*;*;;;;;*;*;;;;;;;;;*;;*;;;*;;;;%.,...          ",
"          ..'..+&##$=**;*;*;;;*;;*;;;;;;;*;;;;;;*;;;*;;*;*;;*;;;;;*;*;*;;;*;;;*;;;;;*;*;;;;;*;*;*;*;;;*;;;*;;;*;%.,...          ",
"          ..'..+&&#$=*;;;;*;;;*;;;*;*;;;;*;*;*;;*;;;*;;;;*;;;;;*;;;;;;;*;;;*;;;*;*;;;;;*;*;;;;;;;;;*;;;*;;;*;;;;%.,...          ",
"          ..'..+#&#$==*;;*;;;;;;*;;;;;*;;;;;;;;*;;;;;;;*;;;*;*;;;*;*;*;;;*;;;*;;;;;*;*;;;;;*;*;*;*;;;;*;;;*;;;*;%.,...          ",
"          ..'..+&##$=**;;*;*;*;;;*;*;;*;*;*;*;;;*;*;*;;*;;;;;;*;;;;;;;*;;;*;;;*;*;;;;;*;*;;;;;;;;*;*;;;*;;;*;;;;%.,...          ",
"          ..'..+&&#$=**;*;;;;;;*;;;;;*;;;;;;;;;*;;;;;;*;;;*;*;;;*;*;*;;;*;;;*;;;;;*;*;;;;;*;*;*;*;;;;;*;;;*;;;*;%.,...          ",
"          ..'..+###$=**;;*;;*;;;*;*;;;*;;*;*;;;;*;;*;;*;;;;;;*;;;;;;;*;;;*;;;*;*;;;;;*;*;;;;;;;;*;*;;;;*;;;*;;;;%.,...          ",
"          ..'..+&##$=**;*;;*;;*;;;;;;*;;*;;;;*;*;;*;;;;;*;*;*;;*;*;*;;;*;;;*;;;;;*;*;;;;;*;*;;*;;;;;*;*;;;*;;;*;%.,...          ",
"          ..'..+&&#$=**;*;;;;;*;*;*;;*;;*;*;;;;*;;;*;*;;;;;;;;;;;;;;*;;;*;;;*;*;;;;;*;*;;;;*;;*;;*;;;;;*;;;*;;;;%.,...          ",
"          ..'..+#&#$=*;;;;*;*;;;;;;;*;;;;;;;;*;;;;*;;;;*;*;*;;*;*;*;;;*;;;*;;;;;*;*;;;;;*;*;;*;;*;;*;;*;;;*;;;*;%.,...          ",
"          ..'..+&##$=**;;;;;*;;*;*;;;;;*;;*;;*;;;;;*;;;;;;;*;;;;;;;*;;;*;;;*;*;;;;;*;*;;;;*;;;;;*;;*;;;*;;;*;;;;%.,...          ",
"          ..'..+&&#$=**;*;*;;;*;;;;*;*;;;*;;;;;*;;*;;;*;*;*;;*;*;*;;;*;;;*;;;;;*;*;;;;;;*;;;*;;;;;*;;;*;;;*;;;*;%.,...          ",
"          ..'..+###$=**;;;*;;;*;*;;;;;*;;;;;*;;*;;*;;;;;;;*;;;;;;;*;;;*;;;*;*;;;;;*;*;;;*;;;;*;*;;;*;;;*;;;*;;;;%.,...          ",
"          ..'..+&##$=*;;*;;;;*;;;;*;*;;;*;*;;;*;;*;;*;*;*;;;*;*;*;;;*;;;*;;;;;*;*;;;;;;*;;;*;;;;;;*;;;*;;;*;;;*;%.,...          ",
"          ..'..+&&#$=**;*;*;;;*;;;;;;*;;;;;*;;;;;*;;;;;;*;;;;;;;;*;;;*;;;*;*;;;;*;*;*;;*;;;;*;*;;;;*;;;*;;;*;;;;%.,...          ",
"          ..'..+#&#$=**;;;;;;*;;;*;*;;;*;*;;;*;;;;;*;;*;;;*;*;*;*;;*;;;*;;;;;*;*;;;;;;*;;*;*;;;;*;*;;;*;;;*;;;*;%.,...          ",
"          ..'..+&##$=*;;*;*;;*;;;;;;*;;;;;*;;;*;*;;*;;*;;;;;;;;;*;;;*;;;*;*;;;;*;;*;;;*;;;;*;*;;;;;*;;;*;;;*;;;;%.,...          ",
"          ..'..+&##$==*;;;;;*;;*;*;*;;*;*;;;*;;;;;*;;*;;;*;*;*;*;;*;;;*;;;;;;*;;;*;;;;;;*;*;;;;*;;*;;;*;;;*;;;*;%.,...          ",
"          ..'..+&##$=***;*;;*;;;;;;*;;;;;*;;;*;*;;;;;*;;;;;;;;;;;;;*;;;*;*;;;*;;;*;*;*;;;;;*;;;*;;;*;;;*;;;*;;;;%.,...          ",
"          ..'..+#&#$=*;;;;;;;;*;*;*;;*;*;;;*;;;;;*;;;;;*;*;*;;*;;*;;;*;;;;;;*;;;*;;;;;;*;;*;;*;;;;*;;;*;;;*;;;*;%.,...          ",
"          ..'..+&##$=**;*;;*;;;;;;;;;;;;*;;;*;*;;;*;*;;;;;;*;;*;;;*;;*;*;*;;*;;;;*;*;;;*;;;;;*;;;;;*;;;*;;;*;;;;%.,...          ",
"          ..'..+&##$=**;;;*;;;*;;*;;*;*;;;*;;;;;*;;;;;*;*;*;;*;;*;;;;;;;;;;*;;*;*;;;;;;;;*;;;;;*;;*;;;*;;;*;;;*;%.,...          ",
"          ..'..+&##$=*;*;;;;;;*;;*;;;;;*;;;*;*;;;*;*;;;;;;;;;*;;;*;*;*;*;;;*;;;;;*;;*;*;;;*;*;;*;;;*;;;*;;;*;;;;%.,...          ",
"          ..'..+#&#$=**;;*;*;*;;*;;*;*;;;*;;;;;*;;;;;*;*;*;;;;;*;;;;;;;;;;;;;*;;*;;*;;;;*;;;;;*;;;*;;;*;;;*;;;*;%.,...          ",
"          ..'..+&##$=*;;;;;;;;;;*;;;;;*;;;*;*;;;*;*;;;;;;;*;*;;;*;*;*;*;*;*;;*;;*;;*;*;;;*;*;;*;;;;*;;;*;;;*;;;;%.,...          ",
"          ..'..+&##$==**;*;;*;;;;;*;*;;;*;;;;;*;;;;;*;*;*;;;;;*;;;;;;;;;;;;;*;;;;;*;;;;*;;;;;;;;*;*;;;*;;;*;;;*;%.,...          ",
"          ..'..+&##$=**;;*;;;*;*;;;;;*;;;*;*;;;*;*;;;;;;;*;*;;;*;*;*;*;*;*;;;;;*;;;*;;;;*;*;;*;;;;;*;;;*;;;*;;;;%.,...          ",
"          ..'..+#&#$=*;;*;;*;;;;;*;*;;;*;;;;;*;;;;;*;*;*;;;;;*;;;;;;;;;;;;;*;*;;;;*;;*;*;;;;*;;*;;*;;;*;;;*;;;*;%.,...          ",
"          ..'..+&##$=**;*;;;*;*;;;;;*;;;*;*;;;*;*;;;;;;;*;*;;;*;*;*;*;*;*;;;;;*;;;*;;;;*;*;;*;;*;;;*;;;*;;;*;;;;%.,...          ",
"          ..'..+&##$=**;;;*;;;;;*;*;;;*;;;;;*;;;;;*;*;*;;;;;*;;;;;;;;;;;;;*;*;;;;*;;;;*;;;;*;;;;;;*;;;*;;;*;;;*;%.,...          ",
"          ..'..+&##$=*;;;;;*;*;;;;;*;;;*;*;;;*;*;;;;;;;*;*;;;*;*;*;*;*;*;;;;*;*;;;;*;;;*;;;;;;*;;;;*;;;*;;;*;;;;%.,...          ",
"          ..'..+&##$==*;*;*;;;;*;*;;;*;;;;;*;;;;;*;*;*;;;;;*;;;;;;;;;;;;;*;*;;;;*;*;;;*;;;*;*;;;*;*;;;*;;;*;;;*;%.,...          ",
"          ..'..+&##$=**;;;*;*;;;;;*;;;*;*;;;*;*;;;;;;;*;*;;;*;*;*;*;*;*;;;;*;*;;;;*;;;*;;;;;;*;;;;;*;;;*;;;*;;;;%.,...          ",
"          ..'..+&&#$=*;;;*;;;;*;*;;;*;;;;;*;;;;;*;*;*;;;;;*;;;;;;;;;;;;;;*;;;;;;*;;;;*;;*;*;*;;*;;*;;;*;;;*;;;*;%.,...          ",
"          ..'..+###$=**;;;*;;;;;;*;;;*;*;;;*;*;;;;;;;*;*;;;*;*;*;*;*;*;;;*;;*;;;*;*;;*;;;;;;*;;*;;;*;;;*;;;*;;;;%.,...          ",
"          ..'..+&##$=***;*;;*;*;*;;*;;;;;*;;;;;*;*;*;;;;;*;;;;;;;;;;;;;;*;;*;;;*;;;;*;;*;*;*;;;;;;*;;;*;;;*;;;*;%.,...          ",
"          ..'..+&&#$=*;;;*;;;;;;*;;;*;*;;;*;*;;;;;;;*;*;;;*;;*;*;*;*;*;;;;;*;;;;*;;;;;;;;;;;;;*;;;;*;;;*;;;*;;;;%.,...          ",
"          ..'..+#&#$==*;;;;*;*;*;;;*;;;;*;;;;;*;*;*;;;;;*;;;*;;;;;;;;;;*;;;;;*;*;;;*;;*;*;*;*;;;*;*;;;*;;;*;;;*;%.,...          ",
"          ..'..+&##$=**;*;;;;;;;;;;*;*;;;*;*;;;;;;;*;*;;;*;;*;*;*;*;*;;;*;*;;;;*;;;*;;;;;;;;;*;;;;;*;;;*;;;*;;;;%.,...          ",
"          ..'..+&&#$=**;;;*;*;*;*;*;;;;*;;;;;*;*;*;;;;;*;;;*;;;;;;;;;;*;;;;;;*;;;;*;;*;*;*;*;;;*;;*;;;*;;;*;;;*;%.,...          ",
"          ..'..+###$=***;;;;;;;;;;;*;;;;*;*;;;;;;;*;*;;;*;;;*;;*;*;*;;*;*;*;;*;*;;*;;;;;;;;;*;;*;;;*;;;*;;;*;;;;%.,...          ",
"          ..'..+&##$=**;;;*;;*;*;;*;;;*;;;;;*;*;*;;;;;*;;;;*;;*;;;;;;*;;;;;;*;;;;*;;*;*;*;*;;;*;;;*;;;*;;;*;;;*;%.,...          ",
"          ..'..+&&#$=*;;;;*;;;;*;;*;;;;*;*;;;;;;;*;*;;*;*;;*;;*;;*;;;*;*;*;;;*;;;;;;;;;;;;;*;;;*;;;*;;;*;;;*;;;;%.,...          ",
"          ..)..+#&#$==*;;*;;*;*;;;;;*;*;;;;*;*;*;;;;;*;;;;*;;;;;*;;;;;;;;;;;*;;;*;;*;*;*;*;;;;*;;;*;;;*;;;*;;;*;%.)...          ",
"          ..)..+&##$=**;;*;;;;;;;*;;;;*;*;;;;;;*;*;;;*;*;;;;;*;;*;*;*;;*;*;;*;;;*;;;;;;;;*;*;;;*;;;*;;;*;;;*;;;;%.!...          ",
"          ..!..+&&#$=**;*;;*;*;*;;;*;*;;;;*;;*;;;;;;;;;;;*;*;;;*;;;;;;*;;;;*;;;*;;*;*;*;*;;;;;*;;;*;;;*;;;*;;;;;%.!...          ",
"          ..!..+###$=**;;;;;;;;;*;;;;;*;;;*;;*;;*;*;*;*;;;;;*;;;*;;*;;*;;;;*;;;*;;;;;;;;*;*;;;;*;;;*;;;*;;;;*;;;%>!...          ",
"          ..)).++++@@@%%%%%%%%%%%%%%%%%%%%%%%%%%%%%%%%%%%%%%%%%%%%%%%%%%%%%%%%%%%%%%%%%%%%%%%%%%%%%%%%%%%%%%%%%%+!'...          ",
"          ...).................................................................................................-!!....          ",
"          .........>,,,,,,,,,,,,,,,,,,,,,,,,,,,,,,,,,,,,,,,,,,,,,,,,,,,,,,,,,,,,,,,,,,,,,,,,,,,,,,,,,,,,,,,')!!!'.....          ",
"          ............................................................................................................          ",
"          ............................................................................................................          ",
"           ..........................................................................................................           ",
"                                                                                                                                ",
"                                                                                                                                ",
"                                                                                                                                ",
"                                                                                                                                ",
"                                                                                                                                ",
"                                                                                                                                ",
"                                                                                                                                ",
"                                                                                                                                ",
"                                                                                                                                ",
"                                                                                                                                "};
