/* XPM */
char * colorgreen_xpm[] = {
"128 128 17 1",
" 	c None",
".	c #000000",
"+	c #222421",
"@	c #333432",
"#	c #3B3D3A",
"$	c #066700",
"%	c #525451",
"&	c #048F00",
"*	c #737572",
"=	c #00B300",
"-	c #00C600",
";	c #00CF03",
">	c #00DC04",
",	c #00E903",
"'	c #00F400",
")	c #00FD00",
"!	c #13F900",
"                                                                                                                                ",
"                                                                                                                                ",
"                                                                                                                                ",
"                                                                                                                                ",
"                                                                                                                                ",
"                                                                                                                                ",
"                                                                                                                                ",
"                                                                                                                                ",
"                                                                                                                                ",
"                                                                                                                                ",
"           ..........................................................................................................           ",
"          ............................................................................................................          ",
"          ...++...+@########################################################################################%%**%.....          ",
"          ..@*+.................................................................................................%%....          ",
"          ..++........................................................................................................          ",
"          .....$&&&&&&&&&&&&&&&&&&&&&&&&&&&&&&&&&&&&&&&&&&&&&&&&&&&&&&&&&&&&&&&&&&&&&&&&&&&&&&&&&&&&&&&&&&&&&&&&$.....          ",
"          .....&;--------;-;--;--;--;--;--;--;--;---;---;---;------;--;--;--;--;---;--;--;--;--;;---;---;---;---&.....          ",
"          .....&--=--------------------------;--------;-------;-;---------------------------------;-------;-----&.....          ",
"          ..+..&--=---;;;;;;;;;;;;;;;;;;;;;;;;;;;;;;;;;;;;;;;;;;;;;;;;;;;;;;;;;;;;;;;;;;;;;;;;;;;;;;;;;;;;;;;;;;&.....          ",
"          ..@..&----;;>>>>>>>>>>>>>>>>>>>>>>>>>>>>>>>>>>>>>>>>>>>>>>>>>>>>>>>>>>>>>>>>>>>>>>>>>>>>>>>>>>>>>>>>>>&.+...          ",
"          ..#..&---;>>,>,,,,,,,,,,,,,,,,,,,,,,,,,,,,,,,,,,,,,,,,,,,,,,,,,,,,,,,,,,,,,,,,,,,,,,,,,,,,,,,,,,,,,,,'=.@...          ",
"          ..#..&--->>,'''''''''''''''''''!''''''!'''''''!''''''''''''''''''''''!'''''''''''''''''''''!'''''''!',=.@...          ",
"          ..#..&--;>,,!'!!)'))!!)'!)'!)'!')!!')!!''')'')!''')'!)'!)'))'!)'!)'')'!!)'))'!)'!)'')')''!)'')!''!)'!'=.@...          ",
"          ..#..&--;>,'))))))))))))))))))))))))))))))))))))))))))))))))))))))))))))))))))))))))))))))))))))))))!)=.@...          ",
"          ..#..&--;>,')))))))))))))))))))))))))))))))))))))))))))))))))))))))))))))))))))))))))))))))))))))))))!=.@...          ",
"          ..#..&;-;>,'!)))))))))))))))))))))))))))))))))))))))))))))))))))))))))))))))))))))))))))))))))))))))))=.@...          ",
"          ..#..&--;>,'!)))))))))))))))))))))))))))))))))))))))))))))))))))))))))))))))))))))))))))))))))))))))))=.@...          ",
"          ..#..&--;>,'))))))))))))))))))))))))))))))))))))))))))))))))))))))))))))))))))))))))))))))))))))))))))=.@...          ",
"          ..#..&;-;>,'!)))))))))))))))))))))))))))))))))))))))))))))))))))))))))))))))))))))))))))))))))))))))))=.@...          ",
"          ..#..&-;;>,'))))))))))))))))))))))))))))))))))))))))))))))))))))))))))))))))))))))))))))))))))))))))))=.@...          ",
"          ..#..&--->,'))))))))))))))))))))))))))))))))))))))))))))))))))))))))))))))))))))))))))))))))))))))))))=.@...          ",
"          ..#..&-;;>,'!)))))))))))))))))))))))))))))))))))))))))))))))))))))))))))))))))))))))))))))))))))))))))=.@...          ",
"          ..#..&--;>,'))))))))))))))))))))))))))))))))))))))))))))))))))))))))))))))))))))))))))))))))))))))))))=.@...          ",
"          ..#..&--;>,'))))))))))))))))))))))))))))))))))))))))))))))))))))))))))))))))))))))))))))))))))))))))))=.@...          ",
"          ..#..&--->,'!)))))))))))))))))))))))))))))))))))))))))))))))))))))))))))))))))))))))))))))))))))))))))=.@...          ",
"          ..#..&-;;>,,!)))))))))))))))))))))))))))))))))))))))))))))))))))))))))))))))))))))))))))))))))))))))))=.@...          ",
"          ..#..&--;>,'))))))))))))))))))))))))))))))))))))))))))))))))))))))))))))))))))))))))))))))))))))))))))=.@...          ",
"          ..#..&--;>,'))))))))))))))))))))))))))))))))))))))))))))))))))))))))))))))))))))))))))))))))))))))))))=.@...          ",
"          ..#..&--;>,'')))))))))))))))))))))))))))))))))))))))))))))))))))))))))))))))))))))))))))))))))))))))))=.@...          ",
"          ..#..&-;;>,,))))))))))))))))))))))))))))))))))))))))))))))))))))))))))))))))))))))))))))))))))))))))))=.@...          ",
"          ..#..&--;>,!))))))))))))))))))))))))))))))))))))))))))))))))))))))))))))))))))))))))))))))))))))))))))=.@...          ",
"          ..#..&--;>,'))))))))))))))))))))))))))))))))))))))))))))))))))))))))))))))))))))))))))))))))))))))))))=.@...          ",
"          ..#..&--;>,'!)))))))))))))))))))))))))))))))))))))))))))))))))))))))))))))))))))))))))))))))))))))))))=.@...          ",
"          ..#..&-;;>,,))))))))))))))))))))))))))))))))))))))))))))))))))))))))))))))))))))))))))))))))))))))))))=.@...          ",
"          ..#..&--;>,'))))))))))))))))))))))))))))))))))))))))))))))))))))))))))))))))))))))))))))))))))))))))))=.@...          ",
"          ..#..&--;>,'')))))))))))))))))))))))))))))))))))))))))))))))))))))))))))))))))))))))))))))))))))))))))=.@...          ",
"          ..#..&-;;>,'))))))))))))))))))))))))))))))))))))))))))))))))))))))))))))))))))))))))))))))))))))))))))=.@...          ",
"          ..#..&-;;>,'))))))))))))))))))))))))))))))))))))))))))))))))))))))))))))))))))))))))))))))))))))))))))=.@...          ",
"          ..#..&--;>,'')))))))))))))))))))))))))))))))))))))))))))))))))))))))))))))))))))))))))))))))))))))))))=.@...          ",
"          ..#..&--;>,'))))))))))))))))))))))))))))))))))))))))))))))))))))))))))))))))))))))))))))))))))))))))))=.@...          ",
"          ..#..&--;>,'))))))))))))))))))))))))))))))))))))))))))))))))))))))))))))))))))))))))))))))))))))))))))=.@...          ",
"          ..#..&-;;>,'))))))))))))))))))))))))))))))))))))))))))))))))))))))))))))))))))))))))))))))))))))))))))=.@...          ",
"          ..#..&--->,'!)))))))))))))))))))))))))))))))))))))))))))))))))))))))))))))))))))))))))))))))))))))))))=.@...          ",
"          ..#..&--;>,'))))))))))))))))))))))))))))))))))))))))))))))))))))))))))))))))))))))))))))))))))))))))))=.@...          ",
"          ..#..&-;;>,'!)))))))))))))))))))))))))))))))))))))))))))))))))))))))))))))))))))))))))))))))))))))))))=.@...          ",
"          ..#..&--;>,'))))))))))))))))))))))))))))))))))))))))))))))))))))))))))))))))))))))))))))))))))))))))))=.@...          ",
"          ..#..&;-->,'')))))))))))))))))))))))))))))))))))))))))))))))))))))))))))))))))))))))))))))))))))))))))=.@...          ",
"          ..#..&--;>,'!)))))))))))))))))))))))))))))))))))))))))))))))))))))))))))))))))))))))))))))))))))))))))=.@...          ",
"          ..#..&--;>,'))))))))))))))))))))))))))))))))))))))))))))))))))))))))))))))))))))))))))))))))))))))))))=.@...          ",
"          ..#..&-;;>,'))))))))))))))))))))))))))))))))))))))))))))))))))))))))))))))))))))))))))))))))))))))))))=.@...          ",
"          ..#..&--;>,'!)))))))))))))))))))))))))))))))))))))))))))))))))))))))))))))))))))))))))))))))))))))))))=.@...          ",
"          ..#..&--;>,'))))))))))))))))))))))))))))))))))))))))))))))))))))))))))))))))))))))))))))))))))))))))))=.@...          ",
"          ..#..&--;>,'!)))))))))))))))))))))))))))))))))))))))))))))))))))))))))))))))))))))))))))))))))))))))))=.@...          ",
"          ..#..&-;;>,'))))))))))))))))))))))))))))))))))))))))))))))))))))))))))))))))))))))))))))))))))))))))))=.@...          ",
"          ..#..&--;>,'))))))))))))))))))))))))))))))))))))))))))))))))))))))))))))))))))))))))))))))))))))))))))=.@...          ",
"          ..#..&--;>,'))))))))))))))))))))))))))))))))))))))))))))))))))))))))))))))))))))))))))))))))))))))))))=.@...          ",
"          ..#..&--;>,'!)))))))))))))))))))))))))))))))))))))))))))))))))))))))))))))))))))))))))))))))))))))))))=.@...          ",
"          ..#..&--;>,,))))))))))))))))))))))))))))))))))))))))))))))))))))))))))))))))))))))))))))))))))))))))))=.@...          ",
"          ..#..&--->,'')))))))))))))))))))))))))))))))))))))))))))))))))))))))))))))))))))))))))))))))))))))))))=.@...          ",
"          ..#..&-;;>,'!)))))))))))))))))))))))))))))))))))))))))))))))))))))))))))))))))))))))))))))))))))))))))=.@...          ",
"          ..#..&--;>,'))))))))))))))))))))))))))))))))))))))))))))))))))))))))))))))))))))))))))))))))))))))))))=.@...          ",
"          ..#..&-;;>,'))))))))))))))))))))))))))))))))))))))))))))))))))))))))))))))))))))))))))))))))))))))))))=.@...          ",
"          ..#..&--;>,'!)))))))))))))))))))))))))))))))))))))))))))))))))))))))))))))))))))))))))))))))))))))))))=.@...          ",
"          ..#..&--;>,'))))))))))))))))))))))))))))))))))))))))))))))))))))))))))))))))))))))))))))))))))))))))))=.@...          ",
"          ..#..&--;>,'))))))))))))))))))))))))))))))))))))))))))))))))))))))))))))))))))))))))))))))))))))))))))=.@...          ",
"          ..#..&-;;>,'))))))))))))))))))))))))))))))))))))))))))))))))))))))))))))))))))))))))))))))))))))))))))=.@...          ",
"          ..#..&--;>,'!)))))))))))))))))))))))))))))))))))))))))))))))))))))))))))))))))))))))))))))))))))))))))=.@...          ",
"          ..#..&--;>,'))))))))))))))))))))))))))))))))))))))))))))))))))))))))))))))))))))))))))))))))))))))))))=.@...          ",
"          ..#..&-;;>,'))))))))))))))))))))))))))))))))))))))))))))))))))))))))))))))))))))))))))))))))))))))))))=.@...          ",
"          ..#..&--;>,'))))))))))))))))))))))))))))))))))))))))))))))))))))))))))))))))))))))))))))))))))))))))))=.@...          ",
"          ..#..&--;>,'')))))))))))))))))))))))))))))))))))))))))))))))))))))))))))))))))))))))))))))))))))))))))=.@...          ",
"          ..#..&--;>,'))))))))))))))))))))))))))))))))))))))))))))))))))))))))))))))))))))))))))))))))))))))))))=.@...          ",
"          ..#..&--;>,'))))))))))))))))))))))))))))))))))))))))))))))))))))))))))))))))))))))))))))))))))))))))))=.@...          ",
"          ..#..&--;>,'')))))))))))))))))))))))))))))))))))))))))))))))))))))))))))))))))))))))))))))))))))))))))=.@...          ",
"          ..#..&;-;>,'))))))))))))))))))))))))))))))))))))))))))))))))))))))))))))))))))))))))))))))))))))))))))=.@...          ",
"          ..#..&--;>,'')))))))))))))))))))))))))))))))))))))))))))))))))))))))))))))))))))))))))))))))))))))))))=.@...          ",
"          ..#..&--;>,'))))))))))))))))))))))))))))))))))))))))))))))))))))))))))))))))))))))))))))))))))))))))))=.@...          ",
"          ..#..&--;>,'))))))))))))))))))))))))))))))))))))))))))))))))))))))))))))))))))))))))))))))))))))))))))=.@...          ",
"          ..#..&;-;>,'))))))))))))))))))))))))))))))))))))))))))))))))))))))))))))))))))))))))))))))))))))))))))=.@...          ",
"          ..#..&--;>,'))))))))))))))))))))))))))))))))))))))))))))))))))))))))))))))))))))))))))))))))))))))))))=.@...          ",
"          ..#..&--;>,'!)))))))))))))))))))))))))))))))))))))))))))))))))))))))))))))))))))))))))))))))))))))))))=.@...          ",
"          ..#..&-;;>,,))))))))))))))))))))))))))))))))))))))))))))))))))))))))))))))))))))))))))))))))))))))))))=.@...          ",
"          ..#..&--;>,'))))))))))))))))))))))))))))))))))))))))))))))))))))))))))))))))))))))))))))))))))))))))))=.@...          ",
"          ..#..&--;>,'))))))))))))))))))))))))))))))))))))))))))))))))))))))))))))))))))))))))))))))))))))))))))=.@...          ",
"          ..#..&--;>,'))))))))))))))))))))))))))))))))))))))))))))))))))))))))))))))))))))))))))))))))))))))))))=.@...          ",
"          ..#..&-;;>,,))))))))))))))))))))))))))))))))))))))))))))))))))))))))))))))))))))))))))))))))))))))))))=.@...          ",
"          ..#..&--;>,'')))))))))))))))))))))))))))))))))))))))))))))))))))))))))))))))))))))))))))))))))))))))))=.@...          ",
"          ..#..&-;;>,,))))))))))))))))))))))))))))))))))))))))))))))))))))))))))))))))))))))))))))))))))))))))))=.@...          ",
"          ..#..&--->,'))))))))))))))))))))))))))))))))))))))))))))))))))))))))))))))))))))))))))))))))))))))))))=.@...          ",
"          ..#..&-;;>,'))))))))))))))))))))))))))))))))))))))))))))))))))))))))))))))))))))))))))))))))))))))))))=.@...          ",
"          ..#..&-;;>,'')))))))))))))))))))))))))))))))))))))))))))))))))))))))))))))))))))))))))))))))))))))))))=.@...          ",
"          ..#..&--;>,'))))))))))))))))))))))))))))))))))))))))))))))))))))))))))))))))))))))))))))))))))))))))))=.@...          ",
"          ..#..&--;>,'!)))))))))))))))))))))))))))))))))))))))))))))))))))))))))))))))))))))))))))))))))))))))))=.@...          ",
"          ..#..&-;;>,'!)))))))))))))))))))))))))))))))))))))))))))))))))))))))))))))))))))))))))))))))))))))))))=.@...          ",
"          ..#..&--;>,'))))))))))))))))))))))))))))))))))))))))))))))))))))))))))))))))))))))))))))))))))))))))))=.@...          ",
"          ..#..&-;;>,'')))))))))))))))))))))))))))))))))))))))))))))))))))))))))))))))))))))))))))))))))))))))))=.@...          ",
"          ..#..&--;>,'))))))))))))))))))))))))))))))))))))))))))))))))))))))))))))))))))))))))))))))))))))))))))=.@...          ",
"          ..#..&--;>,'))))))))))))))))))))))))))))))))))))))))))))))))))))))))))))))))))))))))))))))))))))))))))=.@...          ",
"          ..%..&--->,'!)))))))))))))))))))))))))))))))))))))))))))))))))))))))))))))))))))))))))))))))))))))))))=.%...          ",
"          ..%..&-;;>,,))))))))))))))))))))))))))))))))))))))))))))))))))))))))))))))))))))))))))))))))))))))))))=.*...          ",
"          ..*..&--;>,'))))))))))))))))))))))))))))))))))))))))))))))))))))))))))))))))))))))))))))))))))))))))))=.*...          ",
"          ..*..&-;;>,'))))))))))))))))))))))))))))))))))))))))))))))))))))))))))))))))))))))))))))))))))))))))))=+*...          ",
"          ..%%.$&&&&============================================================================================&%#...          ",
"          ...%.................................................................................................+**....          ",
"          .........+@@@@@@@@@@@@@@@@@@@@@@@@@@@@@@@@@@@@@@@@@@@@@@@@@@@@@@@@@@@@@@@@@@@@@@@@@@@@@@@@@@@@@@@#%***@.....          ",
"          ............................................................................................................          ",
"          ............................................................................................................          ",
"           ..........................................................................................................           ",
"                                                                                                                                ",
"                                                                                                                                ",
"                                                                                                                                ",
"                                                                                                                                ",
"                                                                                                                                ",
"                                                                                                                                ",
"                                                                                                                                ",
"                                                                                                                                ",
"                                                                                                                                ",
"                                                                                                                                "};
