/* XPM */
char * colormagenta_xpm[] = {
"128 128 17 1",
" 	c None",
".	c #000000",
"+	c #670066",
"@	c #242623",
"#	c #8D0290",
"$	c #B200B3",
"%	c #323432",
"&	c #C900C6",
"*	c #CF00D2",
"=	c #3B3D3A",
"-	c #DC00DA",
";	c #E400E5",
">	c #EC00E9",
",	c #F500F7",
"'	c #FF00FC",
")	c #4D4F4C",
"!	c #6E706D",
"                                                                                                                                ",
"                                                                                                                                ",
"                                                                                                                                ",
"                                                                                                                                ",
"                                                                                                                                ",
"                                                                                                                                ",
"                                                                                                                                ",
"                                                                                                                                ",
"                                                                                                                                ",
"                                                                                                                                ",
"           ..........................................................................................................           ",
"          ............................................................................................................          ",
"          ...@@...@%========================================================================================))!!).....          ",
"          ..@!@.................................................................................................))....          ",
"          ..@@........................................................................................................          ",
"          .....+################################################################################################+.....          ",
"          .....#-&&&&&&&&&&&&&&&&&&&&&&&&&&&&&&&&&&&&&&&&&&&&&&&&&&&&&&&&&&&&&&&&&&&&&&&&&&&&&&&&&&&&&&&*&&&*&&&#.....          ",
"          .....#&&$$&$&&&&&*&&&&&*&&&&&*&&&&&*&&&&&&&&&&&&&&&&&&&&&*&&&&&*&&&&&*&&&*&&&&&*&&&&&*&&&&&&&&&&**&&&*#.....          ",
"          ..@..#$&&&*&***&&*&**&&*&**&&*&**&&**&*****************&&*&**&&*&**&&&*&&*&**&&*&**&&********&*&&&**&&#.....          ",
"          ..%..#*$$&&*----;-----;-----;-----;---------------------;-----;-----;---;-----;-----;----------;;---->#.@...          ",
"          ..=..#&&&*;-;;>;;>;;>;;>;;>;;>;;>;>;>;;;;;;;;;;;;;;;;;>;;>;;>;;>;;>;>;>;;>;;>;;>;;>;;;;;;;>>>;;;;;;>;>$.%...          ",
"          ..=..#&&&*->>,,,,,,,,,,,,,,,,,,,,,,,,,,,,,,,,,,,,,,,,,,,,,,,,,,,,,,,,,,,,,,,,,,,,,,,,,,,,,>,,,,,,,,,,>$.%...          ",
"          ..=..#&&*-;,,,,,,,,,,,,,,,,,,,,,',,,',,,,,',,',,,,',,,,,,,,,,,,,,,,,',,,,,,,,,,,,,,,',,,,,,,,',',,,,,,$.%...          ",
"          ..=..#&&*-;,,,,'''''''''''''''''''''''''''''''''''''''''''''''''''',''''''''''''''''''''''','','''''''$.%...          ",
"          ..=..#&&*-;,'',''''','','',''',',',''''''',''''''',,'',''''','','''',',''''','','','''',''''''',''''',$.%...          ",
"          ..=..#&&*-;,,''''''''','''''''''''''''',''',''',''''''''','''','',''''''','''','''''''''''''''''''''''$.%...          ",
"          ..=..#&*&;;,,''','''''''''''''''''''''''''''''''''''''''''''''''''''''''''''''''''''''''''''''''''''''$.%...          ",
"          ..=..#&&*->>''''''''''''''''''''''''''''''''''''''''''''''''''''''''''''''''''''''''''''''''''''''''''$.%...          ",
"          ..=..#&&&-,,,'''''''''''''''''''''''''''''''''''''''''''''''''''''''''''''''''''''''''''''''''''''''''$.%...          ",
"          ..=..#&&*-;>,'''''''''''''''''''''''''''''''''''''''''''''''''''''''''''''''''''''''''''''''''''''''''$.%...          ",
"          ..=..#&&&-,,,''''''''''''''''''''''''''''',''''''''''''''''''''''''''''''''''''''''''''',',','',''''''$.%...          ",
"          ..=..#*&*-;,''''''''''''',',','',',','''''''',''','''''''''''''''''''''''''''',',','',''''''''''',''''$.%...          ",
"          ..=..#&&*-;,,'',''',',','''''''''''''',',','''''''',',',','''',',',',',','','''''''''''''','',''''''''$.%...          ",
"          ..=..#&&*->>'''''''''''''''''',',''''''''''',',','''''''''','''''''''''''''''',',','',','''''',','''''$.%...          ",
"          ..=..#&&&->,,',','''',',',','''''',',',','''''''''',',',','''',',',',',',',','''''''''''',',''''''''''$.%...          ",
"          ..=..#&&*->>,''''',''''''''',',''''''''''',',',','''''''''',''''''''''''''''''''''',','''''''',',','''$.%...          ",
"          ..=..#&&*->,'','''''',',','''''',','''',''''''''''''''','''''''''''''',',',',',','''''',',',''''''''''$.%...          ",
"          ..=..#&&*-;,,''',',''''''''',''''''',''',',''''',',',''',','',',',',''''''''''''',',''''''''','',','''$.%...          ",
"          ..=..#&&*->,,',''''''''',',''','','''''''''',''''''''''''''''''''''''''''',',','''''',''',',''''''''''$.%...          ",
"          ..=..#&&*-;>'''','',','''''''''''''',',',''''',',',',',','',',',',',',',''''''''',''''''''''',',''''''$.%...          ",
"          ..=..#&&*;;,,''''''''''',',','',','''''''',','''''''''''''''''''''''''''''''',',''',',',',''''''',''''$.%...          ",
"          ..=..#&&*-;,''',',',','''''''''''',',',''''''',''''',','',',''''''',','',',''''''''''''''',','''''''''$.%...          ",
"          ..=..#&&&;>>,''''''''''',',','','''''''',',''''','''''''''''',',''''''''''''',',',',','''''''',',','''$.%...          ",
"          ..=..#&&*-;,,'',',''','''''''''''','''''''',',''',',''',','''''',',''',',',''''''''''''',','''''''''''$.%...          ",
"          ..=..#&&*->,','''''''''''',',',',''',','''''''''''''',''''',','''''','''''''',','''',',''''',',','''''$.%...          ",
"          ..=..#&&&-;,,'''',',',',''''''''''''''''',',',',',''''','''''''',''''',''','''''','''''',''''''''','''$.%...          ",
"          ..=..#&&*->,,',''''''''''',',',',',',','''''''''''',''''','',',''',''''''''''',''''',''''','''',''''''$.%...          ",
"          ..=..#&&*-;>''''',',',',''''''''''''''',',''',','''',','''''''''''',',',',',''''',''',','''',''',','''$.%...          ",
"          ..=..#&&*-;,,',''''''''''''''',',''','''''''''''','''''',',',',','''''''''''',',''''''''',''''''''''''$.%...          ",
"          ..=..#&&*-;,'''','''''',',',''''''''''','',',''''''','''''''''''''',',',',''''''',',','''''',',','''''$.%...          ",
"          ..=..#&&*->>,',''',','''''''''',',',','''''''',',',''',''''',',','''''''''',',''''''''',',''''''''''''$.%...          ",
"          ..=..#&&*;;,''''''''''',','',''''''''''',','''''''''''''','''''''','''''''''''',',','''''',',',',','''$.%...          ",
"          ..=..#&$*->>,',',',','''''''''',',',','''''',',',',',',''''''',',''',',',''','''''''',',''''''''''''''$.%...          ",
"          ..=..#&*&;;,'''''''''',''',',''''''''',','''''''''''''',',',''''''''''''',''',','''''''''',''''',','''$.%...          ",
"          ..=..#&*&;>>,',''',',''','''''''''','''''',''''',',',''''''''',',',',','''''''''',','',',''','''''''''$.%...          ",
"          ..=..#$&*-;,'''''''''''''',',',',''''','''''',''''''''',',',''''''''''''',',',''''''''''''''',',''''''$.%...          ",
"          ..=..#&&&;>>,',',',',',''''''''''',',''',','''''''',','''''''',','''',',''''''',','',',',','''''',''''$.%...          ",
"          ..=..#&&*-;,,'''''''''',','',',''''''''''''',',','''''''''','''''','''''',',''''''''''''''''',''''''''$.%...          ",
"          ..=..#&&&;>,'',''',',''''''''''',',',',',','''''''',',',''''''',''''',''''''','',',''',',','''',',''''$.%...          ",
"          ..=..#&&*-;,,'''''''''',',','''''''''''''''',',',''''''',',',''''',''',',''''''''''''''''''',''''','''$.%...          ",
"          ..=..#&&*->,,',','',',''''''','''',',''','''''''''',','''''''',',''''''''',',',',',',''',','''',''''''$.%...          ",
"          ..=..#&&&-;,''''''''''''''''''',''''''''',','''',''''''',',''''''',',',''''''''''''''''''''',''''','''$.%...          ",
"          ..=..#&*&-;>,'',',',',',',',',''''',',''''''','''''',',''''',',''''''''',',''''',',',',',''''',','''''$.%...          ",
"          ..=..#&&*;>,'''''''''''''''''''','''''',',''''',','''''''''''''',',','''''''',''''''''''',',''''''''''$.%...          ",
"          ..=..#&&&->>''''''',',',',',',''''',',''''','''''''',',',','','''''''','',','''''',',''''''''',','''''$.%...          ",
"          ..=..#&&*-;,,',',''''''''''''',','''''',''''',',','''''''''''',','''''''''''',',''''''',',','''''','''$.%...          ",
"          ..=..#&&*-;,,'''''''''''''',''''''',''''',','''''''',',','','''''',','',',''''''''',','''''''',','''''$.%...          ",
"          ..=..#&&*;>>'',',',',',',''''',',''',','''''',''','''''''''''','''''''''''',','','''''',''','''''','''$.%...          ",
"          ..=..#&&&-;,,''''''''''''',','''''''''''',''''''''''''',',','''',',',''','''''''''','''''''''','''''''$.%...          ",
"          ..=..#&&*->>,''',',',',''''''''',',',',''',',',',',','''''''',''''''',''',','',','''',',',',''',',''''$.%...          ",
"          ..=..#&&*-;,'''''''''''',',','''''''''''''''''''''''''',',','''''',''''''''''''''','''''''''''''''''''$.%...          ",
"          ..=..#&&*;;,,,','''''''''''''',',',''',',',',',',',','''''''',',''''',',','',','''',',',',',',',',''''$.%...          ",
"          ..=..#&&*->,,'''',',','''',','''''''''''''''''''''''''''',''''''',','''''''''''','''''''''''''''''''''$.%...          ",
"          ..=..#&&&->,,'''''''''','''''',''',',',',''''''''''',','''',',''''''',','',','''''',''''''',','''','''$.%...          ",
"          ..=..#&&*->,',',',',','''',''''''''''''''',',',',''''''','''''',','''''''''''',','''',',''''''',''''''$.%...          ",
"          ..=..#&&**>,,'''''''''','''',',',',',''''''''''''',','''',','''''',',''',',''''''',''''',',''''',','''$.%...          ",
"          ..=..#&&*->,,'''''',''''','''''''''''',',',',',',''''','''''','''''''',''''',',','''','''''','''''''''$.%...          ",
"          ..=..#&&*-;,,',',''',',''',',',',''''''''''''''''','''''','''''',',''''',''''''''',''''',''''',','''''$.%...          ",
"          ..=..#&&*-;,'''''''''''''''''''''',',',''''''',''''',','''',','''''',''''',''',''''',',''',','''''''''$.%...          ",
"          ..=..#&&*->,,',',',',',',','''''''''''''',',''',','''''',''''',','''',',''''''',','''''''''''',',','''$.%...          ",
"          ..=..#&&*->,,''''''''''''''',',',','',','''''''''''',','''','''''','''''',','''''''',',',','''''''''''$.%...          ",
"          ..=..#&$*-;,'''',',''',','''''''''''''''',',',',','''''',''''','''''',''''''',',',''''''''',','',','''$.%...          ",
"          ..=..#&&*-;>,''''''''''''',',','',',','''''''''''''',''''',',''',','''',',','''''''',','''''''''''''''$.%...          ",
"          ..=..#&**->,,'',''',','''''''''''''''',','',',''',''',','''''''''''','''''''',''',''''''',',',',''''''$.%...          ",
"          ..=..#&$*->,',''',''''',''''',','''''''''''''''''''''''''',',',',','''''',''''''''''',',''''''''',''''$.%...          ",
"          ..=..#&*&-;,,'''''','''',',''''''',',',',','',',',',',','''''''''''',',''',',',',','''''',''''''''''''$.%...          ",
"          ..=..#&**->,,',','''','''''''',',''''''''''''''''''''''''',',''','''''''''''''''''''',''''',',',',''''$.%...          ",
"          ..=..#$&*-;>'''''',''''','','''''',',''''','',',',',''','''''''''',',',',',',',',',''',',''''''''','''$.%...          ",
"          ..=..#*&*-;,,',''''',',''''''',''''''','''''''''''''''''''',',',''''''''''''''''''''''''''',',',''''''$.%...          ",
"          ..=..#&&*-;,''',',''''''',',''',','''''',',',''''''',',',''''''',',''',',''''''''',',',',''''''''','''$.%...          ",
"          ..=..#$&*;>>,''''''',','''''''''''',','''''''',',','''''''',','''''''''''',',',''''''''''''''',','''''$.%...          ",
"          ..=..#&*&-;,,'',',''''',',',',','''''',',',''''''''',',',''''''','',','''''''''',',','''',',''''''''''$.%...          ",
"          ..=..#&&*->,'''''''','''''''''''',','''''''',',',''''''''''',','''''''','',',',''''''',''''''',','''''$.%...          ",
"          ..=..#&&&-;,,','',''''',''',','''''''','''''''''',',''''',''''''',','''''''''''','''''',',','''''','''$.%...          ",
"          ..=..#&**->,,'''''',',''''''''','',',''',','''''''''',','''',','''''',','''',''''',',''''''''',','''''$.%...          ",
"          ..=..#&&*-;>'',',''''''',','''''''''''''''''',',',''''''',''''',',''''''',''',',''''''',''','''''','''$.%...          ",
"          ..=..#&&*-;,,'''''',','''''',',',',',',',','''''''',','''''','''''',',','''''''''',',''''''''','''''''$.%...          ",
"          ..=..#&&*->>,''',''''',','''''''''''''''''',',',''''''',',''''',''''''''',',',',''''',',',',''',',''''$.%...          ",
"          ..=..#&$*;;,''''''','''''',',''''',',''','''''''','','''''',',''',''','''''''''''','''''''''''''''''''$.%...          ",
"          ..=..#&**-;,,',',''''','''''''',''''''''''',''''''''',',''''''''''''''',',',''',''''',',',',',',',''''$.%...          ",
"          ..=..#&&*->,,''''',',''','',',''''',',',',''',','','''''',',',',',',',''''''''''',',''''''''''''''''''$.%...          ",
"          ..=..#$&&->,'',''''''''''''''''','''''''''''''''''''',''''''''''''''''','''',','''''''''''',','''','''$.%...          ",
"          ..=..#*&*-;>,''',',',','',',',''''',',',',',',',',',''',''',',',',',''''',''''''',',',',''''''',''''''$.%...          ",
"          ..=..#&&*->,,''''''''''''''''',',''''''''''''''''''''''''''''''''''',',''',',',''''''''',',''''',','''$.%...          ",
"          ..=..#&&*->,','''',',','''',''''''''''',',''',',',',',',',''''''''''''''''''''''',',','''''','''''''''$.%...          ",
"          ..=..#&&&-;,,'','''''''',''''',',',',''''''''''''''''''''''',',',',',',',',''',''''''''',''''',','''''$.%...          ",
"          ..=..#&**->,,''''''',',''',',''''''''''',','''''',',',',','''''''''''''''''''''''''',',''',','''''''''$.%...          ",
"          ..=..#&&&-;>',',','''''''''''''',','','''''',',''''''''''',',',',',''',','',',',','''''''''''',',','''$.=...          ",
"          ..)..#&&*-;,'''''''',',',',',''''''''''',','''''''''''','''''''''''''''''''''''''''',',',','''''''''''$.)...          ",
"          ..)..#&&*;;>,,',',''''''''''',',''',','''''',',',',',''''','''''''',',''',',',',',''''''''',','',','''$.!...          ",
"          ..!..#&&&-;,'''''''',',''','''''','''''',''''''''''''',',''',',','''''','''''''''''',','''''''''''''''$.!...          ",
"          ..!..#&&*;;,,'''',''''''''''',''''',',''',','',',','''''''''''''',',''''',''''''',''''''',',',',''''''$@!...          ",
"          ..)).+####$$$$$$$$$$$$$$$$$$$$$$$$$$$$$$$$$$$$$$$$$$$$$$$$$$$$$$$$$$$$$$$$$$$$$$$$$$$$$$$$$$$$$$$$$$$$#!%...          ",
"          ...)..................................................................................................!!....          ",
"          .........@%%%%%%%%%%%%%%%%%%%%%%%%%%%%%%%%%%%%%%%%%%%%%%%%%%%%%%%%%%%%%%%%%%%%%%%%%%%%%%%%%%%%%%%=)!!!=.....          ",
"          ............................................................................................................          ",
"          ............................................................................................................          ",
"           ..........................................................................................................           ",
"                                                                                                                                ",
"                                                                                                                                ",
"                                                                                                                                ",
"                                                                                                                                ",
"                                                                                                                                ",
"                                                                                                                                ",
"                                                                                                                                ",
"                                                                                                                                ",
"                                                                                                                                ",
"                                                                                                                                "};
