/* XPM */
char * constructionline_xpm[] = {
"128 128 17 1",
" 	c None",
".	c #000000",
"+	c #2E0000",
"@	c #470000",
"#	c #131512",
"$	c #710001",
"%	c #800000",
"&	c #242623",
"*	c #343633",
"=	c #3A3C39",
"-	c #8D2E2D",
";	c #4E504D",
">	c #AB5756",
",	c #6A6C69",
"'	c #7A7C79",
")	c #C48686",
"!	c #D6ADAD",
"                                                                                                                                ",
"                                                                                                                                ",
"                                                                                                                                ",
"                                                                                                                                ",
"                                                                                                                                ",
"                                                                                                                                ",
"                                                                                                                                ",
"                                                                                                                                ",
"                                                                                                                                ",
"                                                                                                                    .           ",
"                                                                                                                   ..           ",
"                                                                                                                 ...            ",
"                                                                                                               .....            ",
"                                                                                                              .....             ",
"                                                                                                            ......              ",
"                                                                                                           ...#...              ",
"                                                                                                         ....&...               ",
"                                                                                                       ....&=....               ",
"                                                                                                     .....;=....                ",
"                                                                                                   .....&,;....                 ",
"                                                                                                  ....#;';.....                 ",
"                                                                                                .....;'';.....                  ",
"                                                                                             ......=,',=......                  ",
"                                                                                            .....=,'';*......                   ",
"                                                                                         ......*,'';=&.......                   ",
"                                                                                       ......*,'';;&#.......                    ",
"                                                                                    .......;,',;=&..........                    ",
"                                                                                  .......;,',;=&#..........                     ",
"                                                                               .......&;'',;=&.............                     ",
"                                                                            .......#=,',,=*&..............                      ",
"                                                                       #.......#*;,'',;=&#..+.............                      ",
"                                                                     ...#;,''''',;&......................                       ",
"                                                                       ..................................                       ",
"                                                                        ................................                        ",
"                                                                          . ............................                        ",
"                                                                              .........................                         ",
"                                                                                     ..................                         ",
"                                                                                      ................                          ",
"                                                                                     ..;......#.......                          ",
"                                                                                    ..,.......#.......                          ",
"                                                                                   ..'........#......                           ",
"                                                                                  ..'....  ...&......                           ",
"                                                                                 ..'....   ...#......                           ",
"                                                                                ..'....    ...#.....                            ",
"                                                                               ..'....     .........                            ",
"                                                                              ..'....      ........                             ",
"                                                                             ..'....       ........                             ",
"                                                                            ..'....        ........                             ",
"                                                                           ..'....          ......                              ",
"                                                                          ..'....           ......                              ",
"                                                                         ..'....            ......                              ",
"                                                                        ..'....             .....                               ",
"                                                                       ..'....               ....                               ",
"                                                              $       ..'....                ....                               ",
"                                                          $%$%$$$$$  ..'....                 ....                               ",
"                                                        %$%$%$%%%$$$@.'....                   ..                                ",
"                                                       $%%%%%%%$%$$$$-....                     .                                ",
"                                                      $%%%>)))>-%%$$$$+..                                                       ",
"                                                      $%$)!!)>>--%$$$$$.                                                        ",
"                                                     $%%>!!)-%%%%%%$$$$@                                                        ",
"                                                     $$%!!>-%%%%%%%%$$$$                                                        ",
"                                                     %%%))-%%%%%%%%%$$$@@                                                       ",
"                                                    $$%%)>%%%%%%%%%%$$$$@                                                       ",
"                                                    $%$%>>%%%%%%%%%%$$$@@                                                       ",
"                                                    $$%$>-%%%%%%%%%%$$$$+                                                       ",
"                                                     $%%%-%%%%%%%%%%$$$@@                                                       ",
"                                                     $$%%%%%%%%%%%%$$$@$+                                                       ",
"                                                     $$$$%%%%%%%%%%$$$@@                                                        ",
"                               .                      $$$%%%%%%%%$$$$$@@                                                        ",
"                               ..                     @$$$$$$%$$%$$@$@@                                                         ",
"                               #..                   ..-$$$$$$$$$$$$@@                                                          ",
"                              .&..                  ..,.+$$$$$$$$@$@@                                                           ",
"                              .;..                 ..'...+@@$@@@$@@@                                                            ",
"                              .;...               ..'....  +@@@@@+                                                              ",
"                              .,...              ..'....                                                                        ",
"                             ..'...             ..'....                                                                         ",
"                             ..'....           ..>....                                                                          ",
"                             ..'....          .#'....                                                                           ",
"                            ...'....         ..'#...                                                                            ",
"                            ..#'....        ..'....                                                                             ",
"                            ..=,....       ..'....                                                                              ",
"                           ...,;....      ..'....                                                                               ",
"                           ..#'=....     ..'....                                                                                ",
"                          ...;'#....    ..'....                                                                                 ",
"                          ...,,#.....  ..'....                                                                                  ",
"                          ..*,;.........,....                                                                                   ",
"                         ...;,*........;....                                                                                    ",
"                         ..#';&............                                                                                     ",
"                        ...;'=#...........                                                                                      ",
"                        ...,,&................. .                                                                               ",
"                       ...=';#.....................                                                                             ",
"                       ...,,*#.........................                                                                         ",
"                       ..*';&...........................                                                                        ",
"                      ...,,=..............................                                                                      ",
"                     ...=',&.............................                                                                       ",
"                     ...,,=#........................                                                                            ",
"                     ..*',&......................                                                                               ",
"                    ...,,=#...................                                                                                  ",
"                   ...=';&..................                                                                                    ",
"                   ...,'=................                                                                                       ",
"                  ...;';+..............                                                                                         ",
"                  ...,,#.............                                                                                           ",
"                 ...;'&...........                                                                                              ",
"                 ..#,=..........                                                                                                ",
"                ...,=.........                                                                                                  ",
"                ..;*........                                                                                                    ",
"               ..&&.......                                                                                                      ",
"              ..##.......                                                                                                       ",
"              ..#......                                                                                                         ",
"             ........                                                                                                           ",
"             ......                                                                                                             ",
"            .....                                                                                                               ",
"           .....                                                                                                                ",
"           ...                                                                                                                  ",
"          ..                                                                                                                    ",
"          .                                                                                                                     ",
"                                                                                                                                ",
"                                                                                                                                ",
"                                                                                                                                ",
"                                                                                                                                ",
"                                                                                                                                ",
"                                                                                                                                ",
"                                                                                                                                ",
"                                                                                                                                ",
"                                                                                                                                ",
"                                                                                                                                ",
"                                                                                                                                ",
"                                                                                                                                "};
