/* XPM */
char * continuedimension_xpm[] = {
"128 128 17 1",
" 	c None",
".	c #000000",
"+	c #070A05",
"@	c #121411",
"#	c #1D1F1D",
"$	c #262825",
"%	c #2C2E2C",
"&	c #323432",
"*	c #3B3D3A",
"=	c #434542",
"-	c #484A48",
";	c #535552",
">	c #5A5C59",
",	c #626562",
"'	c #6B6D6A",
")	c #737572",
"!	c #7B7D7A",
"                                                                                                                                ",
"                                                                                                                                ",
"                                                                                                                                ",
"                                                                                                                                ",
"                                                                                                                                ",
"                                                                                                                                ",
"                                                                                                                                ",
"                                                                                                                                ",
"                                                                                                                                ",
"        .....                                                .....                                                 .....        ",
"        .#...                                                ..+..                                                 ..+..        ",
"        .'...                                                +.,..                                                 +.,..        ",
"        .!...                                                ..!..                                                 ..!..        ",
"        .-...                                                ..;..                                                 ..;..        ",
"        .&...                                                ..*..                                                 ..*..        ",
"        .&...                                                ..*..                                                 ..*..        ",
"        .&...                                                ..*..                                                 ..*..        ",
"        .&...                                                ..*..                                                 ..*..        ",
"        .&...                                                ..*..                                                 ..*..        ",
"        .&...                                                ..*..                                                 ..*..        ",
"        .&...                                                ..*..                                                 ..*..        ",
"        .&...                                                ..*..                                                 ..*..        ",
"        .&...                                                ..*..                                                 ..*..        ",
"        .&...                                                ..*..                                                 ..*..        ",
"        .&...                                                ..*..                                                 ..*..        ",
"        .&...                                                ..*..                                                 ..*..        ",
"        .&...                                                ..*..                                                 ..*..        ",
"        .&...                                                ..*..                                                 ..*..        ",
"        .&...                                                ..*..                                                 ..*..        ",
"        .&...                                                ..*..                                                 ..*..        ",
"        .&...                                                ..*..                                                 ..*..        ",
"        .&...                                                ..*..                                                 ..*..        ",
"        .&...                                                ..*..                                                 ..*..        ",
"        .&...           ..                      ..           ..*..            ..                      ..           ..*..        ",
"        .&...          ...                      ...          ..*..           ...                      ...          ..*..        ",
"        .&...         ....                      ....         ..*..          ....                      ....         ..*..        ",
"        .&...       ......                      .......      ..*..        ......                      .......      ..*..        ",
"        .&...   ..........                      .*%.....     ..*..    ..........                      .*%.....     ..*..        ",
"        .&..+ ......#;*.........               ..,!$.......  ..*..@ ......#;*.........               ..,!$.......  ..*..        ",
"        .&.+.@#$->,)!)$.......+*==========-)!!=+.;)-...........*.+.@#%-;,)!)$.......+*==========-'!!=.+-)-...........*..        ",
"        .&.....................................................*.....................................................*..        ",
"        .&.................................................. ..&....................................+............. ..&..        ",
"        .&...   ..........                      ..........   ..&..    ..........                      ..........   ..&..        ",
"        .&...      .......                      .......      ..&..       .......                      .......      ..&..        ",
"        .&...        .....                      .....        ..&..         .....                      .....        ..&..        ",
"        .&...          ...                      ...          ..&..           ...                      ...          ..&..        ",
"        .&...           ..                      ..           ..&..            ..                      ..           ..&..        ",
"        .&...                                                ..*..                                                 ..*..        ",
"        .&...                                                ..*..                                                 ..*..        ",
"        .&...                                                ..*..                                                 ..*..        ",
"        .&...                                                ..*..                                                 ..*..        ",
"        .&...                                                ..*..                                                 ..*..        ",
"        .&...                                                ..*..                                                 ..*..        ",
"        .&...                                                ..*..                                                 ..*..        ",
"        .&...                                                ..*..                                                 ..*..        ",
"        .&...                                                ..*..                                                 ..*..        ",
"        .&...                                                ..*..                                                 ..*..        ",
"        .&...                                                ..*..                                                 ..*..        ",
"        .&...                                                ..*..                                                 ..*..        ",
"        .&...                                                ..*..                                                 ..*..        ",
"        .&...                                                ..*..                                                 ..*..        ",
"        .&...                                                ..*..                                                 ..*..        ",
"        .&...                                                ..*..                                                 ..*..        ",
"        .&...                                                ..*..                                                 ..*..        ",
"        .&...                                                ..*..                                                 ..*..        ",
"        .&...                                                ..*..                                                 ..*..        ",
"        .&...                                                ..*..                                                 ..*..        ",
"        .&...                                                ..*..                                                 ..*..        ",
"        .&...                                                ..*..                                                 ..*..        ",
"        .&...                                                ..*..                                                 ..*..        ",
"        .&...                                                ..*..                                                 ..*..        ",
"        .&...                                                ..*..                                                 ..*..        ",
"        .&...                                                ..*..                                                 ..*..        ",
"        .&...                                                ..*..                                                 ..*..        ",
"        .&...                                                ..*..                                                 ..*..        ",
"        .&...                                                ..*..                                                 ..*..        ",
"        .&...                                                ..*..                                                 ..*..        ",
"        .&...                                                ..*..                                                 ..*..        ",
"        .&...                                                ..*..                                                 ..*..        ",
"        .&...                                                ..*..                                                 ..*..        ",
"        .&...                                                ..*..                                                 ..*..        ",
"        .&...                                                ..*..                                                 ..*..        ",
"        .&...                                                ..*..                                                 ..*..        ",
"        .&...                                                ..*..                                                 ..*..        ",
"        .&...                                                ..*..                                                 ..*..        ",
"        .&...                                                ..*..                                                 ..*..        ",
"        .&...                                                ..*..                                                 ..*..        ",
"        .&...                                                ..*..                                                 ..*..        ",
"        .&...                                                ..*..                                                 ..*..        ",
"        .&...                                                ..*..                                                 ..*..        ",
"        .&...                                                ..*..                                                 ..*..        ",
"        .&...                                                ..*..                                                 ..*..        ",
"        .&...                                                ..*..                                                 ..*..        ",
"        .&...                                                ..*..                                                 ..*..        ",
"        .&...                                                ..*..                                                 ..*..        ",
"        .&...                                                ..*..                                                 ..*..        ",
"        .&...                                                ..*..                                                 ..*..        ",
"        .&...                                                ..*..                                                 ..*..        ",
"        .&...                                                ..*..                                                 ..*..        ",
"        .&...                                                ..*..                                                 ..*..        ",
"        .&...                                                ..*..                                                 ..*..        ",
"        .&...                                                ..*..                                                 ..*..        ",
"        .&...                                                ..*..                                                 ..*..        ",
"        .&...                                                ..*..                                                 ..*..        ",
"        .&...                                                ..*..                                                 ..*..        ",
"        .&...                                                ..*..                                                 ..*..        ",
"        .&...                                                ..*..                                                 ..*..        ",
"        .&...                                                ..*..                                                 ..*..        ",
"        .&...                                                ..*..                                                 ..*..        ",
"        .&...                                                ..*..                                                 ..*..        ",
"        .&...                                                ..*..                                                 ..*..        ",
"        .&...                                                ..*..                                                 ..*..        ",
"        .&...                                                ..*..                                                 ..*..        ",
"        .....                                                .....                                                 .....        ",
"        .....                                                .....                                                 .....        ",
"        .....                                                .....                                                 .....        ",
"        .....                                                .....                                                 .....        ",
"        .....                                                .....                                                 .....        ",
"                                                                                                                                ",
"                                                                                                                                ",
"                                                                                                                                ",
"                                                                                                                                ",
"                                                                                                                                ",
"                                                                                                                                ",
"                                                                                                                                ",
"                                                                                                                                ",
"                                                                                                                                ",
"                                                                                                                                "};
