/* XPM */
char * copyobject_xpm[] = {
"128 128 17 1",
" 	c None",
".	c #000000",
"+	c #181A18",
"@	c #262825",
"#	c #383A37",
"$	c #4A4C4A",
"%	c #60625F",
"&	c #6E706D",
"*	c #7E817E",
"=	c #8E908D",
"-	c #9FA19E",
";	c #AFB1AE",
">	c #BABDB9",
",	c #CACCC9",
"'	c #DBDDDA",
")	c #EBEDEA",
"!	c #FAFDF9",
"                                                                                                                                ",
"                                                                                                                                ",
"                                                                                                                                ",
"                                                                                                                                ",
"                                                                                                                                ",
"                                                                .                                                               ",
"                       ............                            ...                                                              ",
"                    .......@@#@+......                        .....                                                             ",
"                  ....+&;'')')'''>=#.....                    ...$....                                                           ",
"                ....&>)))))))'))')'''-#...                   ...#&....                                                          ",
"               ...&)))))))))))))'))'''';@...                  ....+....                                                         ",
"              ..#,)))!))!)!)!))))'))'''''=...                  .........                                                        ",
"             ..%'!)))!!)!!!!!!!)!)))'''',';+..                  .........                                                       ",
"            ..*)))!)!!!!!!!!!!!!!!))))''',,>@..                  .........                                                      ",
"           ..-))!!)!!!!!!!!!!!!!!!!))))''',',#..                  .........                                                     ",
"          ..*)!)))!!!!!!!!!!!!!!!!!!!)))''',,>@..                  .........                     .                              ",
"         ..$)))!!!!!!!!!!!!!!!!!!!!!!!)))'',,,;..                   .........                   ..                              ",
"         .@))!)!!!!!!!!!!!!!!!!!!!!!!!!))'''',,=..                   .........                 ...                              ",
"        ..-)))!!!!!!!!!!!!!!!!!!!!!!!!!!))'',,,,#..                   .........                .+..                             ",
"       ..#!)!)!!!!!!!!!!!!!!!!!!!!!!!!!!)))'',,,;..                    .........               .#..                             ",
"       ..;))!!!!!!!!!!!!!!!!!!!!!!!!!!!!!))'',,,>#..                    .........             ..%..                             ",
"       .#)!))!!!!!!!!!!!!!!!!!!!!!!!!!!!!)))'',,,-..                     .........            ..&...                            ",
"      ..*))!!!!!!!!!!!!!!!!!!!!!!!!!!!!!!!))'',,>>+.                      .........           ..*...                            ",
"      ..')))!!!!!!!!!!!!!!!!!!!!!!!!!!!!!!))'',,,>%..                      .........          ..*...                            ",
"      .@))!!!!!!!!!!!!!!!!!!!!!!!!!!!!!!!!!))'',,>=..                       .........        ...*....                           ",
"      .%))))!!!!!!!!!!!!!!!!!!!!!!!!!!!!!!!))',,,>;..                        .........       ...*....                           ",
"     ..*)))!!!!!!!!!!!!!!!!!!!!!!!!!!!!!!!!))'',,>>+.                         .........      ...&....                           ",
"     ..-)))!!!!!!!!!!!!!!!!!!!!!!!!!!!!!!!!)'),,,;>#.                          .........     ...&.....                          ",
"     ..;)))!!!!!!!!!!!!!!!!!!!!!!!!!!!!!!!!))),,,>;$.                           .........    ...&.....                          ",
"     ..>))))!!!!!!!!!!!!!!!!!!!!!!!!!!!!!!!))'',,>;$..                           .........   ..#%+....                          ",
"     ..;))!)!!!!!!!!!!!!!!!!!!!!!!!!!!!!!!!))'',>>;$..                            .........  .#%%+.....                         ",
"     ..;')))!!!!!!!!!!!!!!!!!!!!!!!!!!!!!!!))',,,;;#..                             ....+.....$**%@.....                         ",
"     ..=))))!!!!!!!!!!!!!!!!!!!!!!!!!!!!!!)))',,>;;@.                               ...#$...$&**$+......                        ",
"     ..*'')))!!!!!!!!!!!!!!!!!!!!!!!!!!!!!))'',,>>;+.                                ...&%##%*&%#.......                        ",
"      .$'')))!!!!!!!!!!!!!!!!!!!!!!!!!!!!!)))',>;;-..                                 ..$&%$$%$#@.......                        ",
"      .+''))!)!!!!!!!!!!!!!!!!!!!!!!!!!!!!)'',,,>;*..                                  +$%$##@@+.........                       ",
"      ..;'''))!!!!!!!!!!!!!!!!!!!!!!!!!!!))'',>;;;$..                              ...#%&%#+....+........                       ",
"      ..&''')))!!!!!!!!!!!!!!!!!!!!!!!!!)))',,>>;;..                          .......@%**%#+..............                      ",
"       .+'''))))!!!!!!!!!!!!!!!!!!!!!!!!))'',>;;;&..                      ...........$**&$@...............                      ",
"       ..&,''')))!!!!!!!!!!!!!!!!!!!!!!)))',,>;;;+..                     .+#%*****&%&&&&$#++...............                     ",
"        ..,'''))))!!!!!!!!!!!!!!!!!!!)!)'',,;>;;%..                    ............@####@+.................                     ",
"        ..%,',''))))!!!!!!!!!!!!!!!!)))'',,>;;;-+..                      ...................................                    ",
"         ..;,','')')))!!!!!!!!!!!)!))))'',>>;;-$..                            ..............................                    ",
"         ..+>,',''))))))!)!)!)!))))))',,,>;;;;&..                               .............................                   ",
"          ..@,,,','')'))))))))))))'''',,;;;;-*...                                  ..........................                   ",
"           ..$,,,,,''''')'))))')'''',,,;>;;;=...                                     .........................                  ",
"            ..#,,,,,,,''''''''''',,,,;>;;;;*+..                                         ......................                  ",
"             ..@-,,,,,,,,,,,',,,,,,>>>;;;-%...                                            .....................                 ",
"              ...%>,,,,,,,,,,,,,>>>;;;;;=#...                                                ..................                 ",
"               ....&>>>>>,,>>>;>;>;>;;-#....                                                   .................                ",
"                 ...+%;>>;;>>>;>;;;;*#....                                                       ...............                ",
"                   ....@$&==;;-=*%#.....                                                           ..............               ",
"                     .................                                                               .............              ",
"                        ...........                                                                    ...........              ",
"                                                                                                        ...........             ",
"                                                                                                          .........             ",
"                                                                                                            ........            ",
"                                                                                                              .......           ",
"                                                                           ............                        ......           ",
"                                                                        .......@@#@.......                       .....          ",
"                                                                      ....+&;''))'))'>=$.....                      ...          ",
"                                                                    ....&>)))))))')')''',-#...                       ..         ",
"                                                                   ...&))))))))))))))')'''';#...                      .         ",
"                                                                  ..#,)))!))!)!)!))))))')'','*...                               ",
"                                                                 ..%)))))!!!!!!!!!)!)))))'''',;+..                              ",
"                                                                ..*))!)!!!!!!!!!!!!!!!))))'''',>@..                             ",
"                                                               ..-)))!)!!!!!!!!!!!!!!!!))))''',',#..                            ",
"                                                              ..*))!)!!!!!!!!!!!!!!!!!!!))))''',,>@..                           ",
"                                                             ..$)!))!!!!!!!!!!!!!!!!!!!!!!))''',,,;..                           ",
"                                                             .@)))!!!!!!!!!!!!!!!!!!!!!!!!!)))''',,=..                          ",
"                                                            ..-)!)!!!!!!!!!!!!!!!!!!!!!!!!!!))''',,,#..                         ",
"                                                           ..#))))!!!!!!!!!!!!!!!!!!!!!!!!!!))''',,,-..                         ",
"                                                           ..>)!!!!!!!!!!!!!!!!!!!!!!!!!!!!!!))'',,,,#...                       ",
"                                                           .#)))!!!!!!!!!!!!!!!!!!!!!!!!!!!!!!))'',,>-....                      ",
"                                                          ..*))))!!!!!!!!!!!!!!!!!!!!!!!!!!!!!))'',,>>+.@...                    ",
"                                                          ..,!)!!!!!!!!!!!!!!!!!!!!!!!!!!!!!!!))''',,>%.$&...                   ",
"                                                          .@)))!!!!!!!!!!!!!!!!!!!!!!!!!!!!!!!)))',,,>=.@>-+..                  ",
"                                                          .%))))!!!!!!!!!!!!!!!!!!!!!!!!!!!!!!!))'',,>>..;>;@..                 ",
"                                                         ..*))!!!!!!!!!!!!!!!!!!!!!!!!!!!!!!!!!)'',,,;>+.=>,>#..                ",
"                                                         ..-)))!!!!!!!!!!!!!!!!!!!!!!!!!!!!!!!!))'',,>>#.*;>,;@..               ",
"                                                         ..;)))!!!!!!!!!!!!!!!!!!!!!!!!!!!!!!!!))'',,;;#.&;>>,;..               ",
"                                                         ..>')!)!!!!!!!!!!!!!!!!!!!!!!!!!!!!!!!))),,,>>$.&;>>,,*..              ",
"                                                         ..>)))!!!!!!!!!!!!!!!!!!!!!!!!!!!!!!!!))'',>>;$.&;,>,,,#..             ",
"                                                         ..;')))!!!!!!!!!!!!!!!!!!!!!!!!!!!!!!)))',,,;>#.&>>,>,,;..             ",
"                                                         ..=')))!!!!!!!!!!!!!!!!!!!!!!!!!!!!!!)))',,>;;@.=>,,,>,>$..            ",
"                                                         ..&)')))!!!!!!!!!!!!!!!!!!!!!!!!!!!!!!)'',,>>;+.-;,,,,,>-..            ",
"                                                          .$')))!!!!!!!!!!!!!!!!!!!!!!!!!!!!!!))'',,;;-..,,>,,,,>>@.            ",
"                                                          .+''')))!!!!!!!!!!!!!!!!!!!!!!!!!!!!))',,>>;*.#;,,,,,,>>%..           ",
"                                                          ..;'')))!!!!!!!!!!!!!!!!!!!!!!!!!!!))'',,;;;$.%>,',',,,>=..           ",
"                                                          ..&''')))!!!!!!!!!!!!!!!!!!!!!!!!!)))',,>;;;..->,''',,,>;..           ",
"                                                           .+'''')))!!!!!!!!!!!!!!!!!!!!!!!!))'',>>;;&.@>,,,'',,>>>+.           ",
"                                                           ..&'''')))!!!!!!!!!!!!!!!!!!!!!!))'',,;;;;+.&>,,'''',,>;#.           ",
"                                                            ..,'''))))!!!!!!!!!!!!!!!!!!!))))',,>;;;%.@>>,''''',,>;$.           ",
"                                                            ..%','''))))!!!!!!!!!!!!!!!!)!))',,>;;;-+.*>,,'''',,,>;$..          ",
"                                                             ..;,''''')))!)!!!!!!!!!!)!)))'',,>>;;;$.@>>,'')''',,>;$..          ",
"                                                             ...>,,,''')))!)))!)!)!))))))'',,>>;;;%..->,,''')',,>;;#..          ",
"                                                              ..#,,,''''')')))))))))))''',,,;;;;-*..&>>,')))'',,>>;@.           ",
"                                                               ..$,,,,,,'''))'))'))''''',,,>>;;;=..$;>,''')')',,>;;+.           ",
"                                                                ..#,,,,,,','''''''''',,,,>;;;;;*+.#>>,,'')))'',,;>-..           ",
"                                                                 ..@-,,,,,,,,,,',,,,,,,,>;;;;-%..#;>,,'')))'',,>;;*..           ",
"                                                                  ...%>,,,,,,,,,,,,,>>;;;>;;=#..$>>>,,)))))'',,;;;$..           ",
"                                                                   ...+&>>>>>>>,,>>>>;;>;--#..+*;>,,''')))'',,>;;;..            ",
"                                                                     ...+%;>>>>;;;;;;>;;*$...$;>>,,,))))))'',>>;;&..            ",
"                                                                       ....@$&==;;;=*%#....$-;;,,,')'))))'',,>;;;+..            ",
"                                                                        ................@%->,,,,'''))))))',,;>;;%..             ",
"                                                                        ..%=%$@+...@#$*;>>>>,,,''')))))'',,>;;;-+..             ",
"                                                                         ..-;>;>;>;>>>,>,,,,''''))))))'',,>>;;;#..              ",
"                                                                         ..+;>>;>>>>>,,,,,,''')')))))'',,>>;-;%..               ",
"                                                                          ..@>,>>>>,,,,,'''''')'''''',,,>;;;;*...               ",
"                                                                           ..$>,,>,,,,,,','''')''''',,>>;;;;=...                ",
"                                                                            ..#>,,>,,,,,''''''''',,,,>>;;;-=+..                 ",
"                                                                             ..+-,,>,,,,,,,,',,,,,,>;>;;;;%...                  ",
"                                                                              ...%>,,,,,,,,,,,,,>>>>;;;;=#...                   ",
"                                                                               ....&>>>>>,>,>>>>>;;;;;-#....                    ",
"                                                                                 ...+%;;>;>;>>;;>;;;*$....                      ",
"                                                                                   ....@$&==;;-=*%#.....                        ",
"                                                                                     .................                          ",
"                                                                                        ...........                             ",
"                                                                                                                                ",
"                                                                                                                                ",
"                                                                                                                                ",
"                                                                                                                                ",
"                                                                                                                                ",
"                                                                                                                                ",
"                                                                                                                                ",
"                                                                                                                                ",
"                                                                                                                                ",
"                                                                                                                                "};
