/* XPM */
char * copy_xpm[] = {
"128 128 17 1",
" 	c None",
".	c #000000",
"+	c #131512",
"@	c #262725",
"#	c #2E302E",
"$	c #424441",
"%	c #626461",
"&	c #90938F",
"*	c #BABCB9",
"=	c #A4CBCC",
"-	c #C4C8C5",
";	c #DBDFDC",
">	c #C1E8E9",
",	c #F0F3EF",
"'	c #CFFFFF",
")	c #F2FEFF",
"!	c #FCFFFB",
"                                                                                                                                ",
"                                                                                                                                ",
"                                                                                                                                ",
"                                                                                                                                ",
"                                                                                                                                ",
"                                                                                                                                ",
"        ...................................................                                                                     ",
"        .....................................................                                                                   ",
"        ...@...@#$$$$$$$$$$$$$$$$$$$$$$$$$$$$$$$$$$#+.........                                                                  ",
"        ..$&+......................................$%&%$.......                                                                 ",
"        ..#...........................................$$#.......                                                                ",
"        .........................................................                                                               ",
"        ....#---**-*-*-*-*-*-*-*-*-**-*--*-*-*-*---*%.............                                                              ",
"        ....#-*********-***-***-***--*-******-*-***-$.....+........                                                             ",
"        ....#-****--------*---*----*-*-------*---*--%.....&+........                                                            ",
"        .+..#-**-----;--;-;--;-;--;--;--;--;-;--;--;$.....*&+........                                                           ",
"        .@..#--*--;;;;;;;;;;;;;;;;;;;;;;;;;;;;;;;;;;%.....**&+........                                                          ",
"        .#..#*---;;;;),);),),);),),);),),);,),);),),%.@...**-&+........                                                         ",
"        .@..#----;;),,),),);),,),,),),),),)),),),);)%.@...***-*+........                                                        ",
"        .#..#---;;,,)!)),!)!)),)),)!),),)!,),)!))!!)%.#...-*****+........                                                       ",
"        .#..#---;;),))!!))!)!!)!!)!)!)!)!))!)!)!!!!!%.#...-*--;-*+........                                                      ",
"        .@..#----;,,!))!!)!!)!)!!))!!!!)!!!!)!)))!!)%.#...----;;;*+........                                                     ",
"        .#..#---;;),)!!)!!)!!)!!)!!)!)!!!)!)!)!)!!)!%.$...**--;;;,*+........                                                    ",
"        .@..#----;,,!)!!)!!)!!!!!)!!!!!)!)!!)!!)!!!)%.#...--*;;;,,;*+........                                                   ",
"        .#..#---;;,)!!!!!)!!)!!)!!)!!!)!!!)!!)!!)!)!%.#...-*--;);),;-+........                                                  ",
"        .@..#---;;,,)!!)!!)!!!!!)!!)!!!))!)!!)!!!!!)%.#...*--;;;),),;*+........                                                 ",
"        .#..#---;;,)!)!!)!!)!!)!!)!!!)!!!!!)!!)!!)!!%.$...-*--;,),)),,*+........                                                ",
"        .@..#----;,,!!)!!)!!!!!)!!)!!!)!)!!))!)!!!!)%.#...*--;;,,!!),,,*+..%.....                                               ",
"        .#..#---;;,)!!!)!!)!!)!!)!!!)!!!!!)!!!!)!)!!%.#...**--;,),)!),,;*+.#%.....                                              ",
"        .@..#---;;,,!)!!)!!!!!)!!)!!!!!)!!!!!)!!!!!)%..$..-*-;;,,!)!))));-+#%#.....                                             ",
"        .#..#----;),)!)!!)!!)!!)!!!)!!)!!);%%.+@####+..+..@@+@@@@@@@@@@@@@@+++................                                  ",
"        .#..#---;;,,)!!)!!!!!)!!)!!))!!)!!-.....................................................                                ",
"        .@..#---;;,)!!!!)!!)!!)!!!)!!!)!!)-...@..+@#$$$$$$$$$$$$$$$$$$$$$$$$$$$$$$$$$$#+.........                               ",
"        .#..#----;,,!!)!!!!!)!!)!!!!)!!!)!-..$&+......................................$%&%$.......                              ",
"        .#..#---;;,,)!!)!!)!!)!!!)!!!!))!)-..#...........................................$$#.......                             ",
"        .@..#---;;)!!)!!!!!)!!)!!)!!)!!)!!-.........................................................                            ",
"        .#..#----;,)!!!!)!!!)!!!)!!)!)!!!)-....#---****--*-*-**--*-*-*-*-*-**-*--*-**-*$+............                           ",
"        .@..#---;;;)))))))))))))))))))))))*....#-*****-*-**-*--****-***-***--*-**-*----$.....+........                          ",
"        .#..#====>>'''''''''''''''''''''''=....#-****-*---*-*-*---*-------*---*----*---%.....&+........                         ",
"        .@..#---;;,,!!!!!!!!!!!!!!!!!!!!!!*.+..#-**-------;-;-;-;-;--;--;-;---;--;-;--;$.....*&+........                        ",
"        .#..#-*--;,,)!!)!!!)!!!)!!!!)!!)!!-.@..#--*--;;;;;;;;;;;;;;;;;;;;;;;;;;;;;;;;;;%.....**&+........                       ",
"        .@..#---;;,)))))))))))))))))))))))*.@..#*---;;;),),),),);),),);),),);,),);),),,%.@...**-&+........                      ",
"        .#..#====>>'''''''''''''''''''''''=.#..#---;;;,,),);),;),,),),,,),),),,),),),),%.@...***-*+........                     ",
"        .@..#---;;,,!!!!!!!!!!!!!!!!!!!!!!*.@..#----;)),),),))!)),),)))),!)!)),),),),))%.#...-*****+........                    ",
"        .#..#-*--;,)!!)!!!)!!!)!!!!!)!!!)!-.#..#---;;;,)!)!!!!!)!)!)!!!!))!)!!)!)!)!)!!%.#...-*---;*+........                   ",
"        .@..#---;;;)))))))))))))))))))))))*.@..#---;;,)!!!)!)!!)!)!))))!!)))!!!!!!!!!!)%.#...---;-;;*+........                  ",
"        .#..#====>>'''''''''''''''''''''''=.#..#---;;,))!!!!!!!!!!)!!!!))!!!)!!)!!!)!)!%.$...*-*-;;;;-+........                 ",
"        .@..#---;;,,!!!!!!!!!!!!!!!!!!!!!!*.@..#----;,,!!)!!)!!!)!!)))!!!)!!!!!!!!!!!!)%.#...----;;),;*+........                ",
"        .@..#---;;,,!)!!!)!!!)!!!!!)!!!)!!-.#..#---;;,))!!!)!!)!!)!!!!!!)!!)!!)!!)!!)!!%.#...---;;,,),;*+........               ",
"        .#..#----;;)))))))))))))))))))))))-.@..#----;,,!)!!)!!!)!!!)!)!!)!!)!!))!)!!!!)%.#...-*--;,,,),,*+........              ",
"        .@..#====>>'''''''''''''''''''''''=.@..#---;;,))!))!!)!!)!!!!)!)!!)!!)!!)!!)!!!%.#...*---;);),,,;*+........             ",
"        .#..#---;;,,!!!!!!!!!!!!!!!!!!!!!,-.#..#---;;,,!!!)!!!)!!!!)!!!)!!)!!!)!!!!!!!)%.$...-*-;;,,)))),,*+..%.....            ",
"        .@..#---;;),!)!!)!!!)!!!!!)!!!)!!!-.@..#---;;,)!!!!!)!!)!!)!)!!!!)!!)!!)!!)!!)!%.@...--*-;,)!!),),;*+.#%.....           ",
"        .#..#----;,,))))))))))))))))))))))*.#..#----;,,!!)!!!)!!!!)!!!)!!)!!!)!!!!)!!!)%.+$..*--;;,,)!)!)),,*+#%#.....          ",
"        .@..#====>>>''''''''''''''''''''''=.@..#---;;,,))!!)!!)!!!!)!!!!)!!)!!)!!)!!)!!%..%..&&&***---------**%%$......         ",
"        .#..#---;;),!!!!!!!!!!!!!!!!!!!!!!*.#..#----;),!)!!!)!!!!)!!!)!!)!!!)!!!!)!!!!)%..+................$%%$#........        ",
"        .#..#---;;,)!!!)!!!)!!!!!)!!!!)!!!-.#..#---;;,)!!)!!!)!!!!)!!!!)!!)!!)!!)!!)!!!*.........+@@@@@#$%&%%...........        ",
"        .@..#----;;,))))))))))))))))))))))*.@..#----;,,!!!!)!!!!)!!!)!!)!!!)!!!!)!!!!!)!................................        ",
"        .#..#===>>>'''''''''''''''''''''''=.#..#---;;,))!!!!)!!!!)!!!!)!!)!!)!!)!!)!!)!)$...............................        ",
"        .@..#-**;;,,!!!!!!!!!!!!!!!!!!!!!!*.@..#----;,,)!!)!!!!)!!!)!!)!!!)!!!!)!!))!!!)%####@@@@@@@@@#@@#@@##@#@@@.....        ",
"        .#..#---;;,)!!)!!!)!!!!!)!!!!!)!!!-.@..#---;;,)!)!!)!!!!)!!!!)!!)!!)!!)!!)!!!)!!!,;;;-***---------------***.....        ",
"        .@..#----;;)))))))))))))))))))))))-.#..#---;;;)))))))))))))))))))))))))))))))))))));---*-**----------*--***.....        ",
"        .#..#===>>>>''''''''''''''''''''''=.@..#====>>>''''''''''''''''''''''''''''''''''>>'>======================.....        ",
"        .@..#*---;,,!!!!!!!!!!!!!!!!!!!!!,-.#..#---;;,)!!!!!!!!!!!!!!!!!!!!!!!!!!!!!!!!!!!,,;;;-;-;-;-;--;-;-;-;---.....        ",
"        .#..#---;,,)!)!!!)!!!!!)!!!!!)!!!!-.@..#---;;,,)!!)!!!!)!!!!)!!)!!)!!)!!)!!)!!!)!!),,,;,;;;;;;;,;;;;;;;,;;;.....        ",
"        .#..#----;;)))))))))))))))))))))))*.#..#---;;;,))))))))))))))))))))))))))))))))))))))));),);),););),););,,;.....        ",
"        .@..#====>>'''''''''''''''''''''''=.@..#====>'>'''''''''''''''''''''''''''''''''''>'>>'>'>'>'>'>'>'>'>'>'>>.....        ",
"        .#..#---;;,,!!!!!!!!!!!!!!!!!!!!!!*.#..#**-;;,,!!!!!!!!!!!!!!!!!!!!!!!!!!!!!!!!!!!!!!)!)!)!)!)!)!)!)!)!))),.....        ",
"        .#..#---;;,)!!)!!)!!!!)!!!!!)!!!)!-.#..#---;;,,)!!!!!!)!!!!)!!)!!)!!)!!!)!!)!!!)!!!)!!!!)!!!!!)!!!)!!!)!!!,.....        ",
"        .@..#----;;)))))))))))))))))))))))*.@..#----;))))))))))))))))))))))))))))))))))))))))))))))))))))))))))))),.....        ",
"        .#..#====>>>''''''''''''''''''''''=.#..#====>>>'''''''''''''''''''''''''''''''''''''''''''''''''''''''''''>.+...        ",
"        .@..#---;,,,!!!!!!!!!!!!!!!!!!!!!!*.@..#---;;),!!!!!!!!!!!!!!!!!!!!!!!!!!!!!!!!!!!!!!!!!!!!!!!!!!!!!!!!!!!,.....        ",
"        .#..#----;),)!!!)!!!!)!!!!!!)!!!)!-.@..#----;,)!!!!!!)!!!!)!!)!!)!!)!!!)!!!)!!)!!!)!!!!!)!)!!!)!!)!!!)!!!),.....        ",
"        .@..#---;;,,))))))))))))))))))))))*.#..#---;;,,))))))))))))))))))))))))))))))))))))))))))))))))))))))))))),.....        ",
"        .#..#====>>'''''''''''''''''''''''=.@..#====>>''''''''''''''''''''''''''''''''''''''''''''''''''''''''''''>.....        ",
"        .@..#*--;;,,!!!!!!!!!!!!!!!!!!!!!!*.#..#*--;;,,!!!!!!!!!!!!!!!!!!!!!!!!!!!!!!!!!!!!!!!!!!!!!!!!!!!!!!!!!!!).....        ",
"        .#..#-*--;),!)!!)!!!)!!!!!!!)!!)!!-.@..#----;,)!!)!!)!!!!)!!)!!)!!)!!!)!!!!)!!)!!)!!)!!!!)!!!!)!!)!!)!!!!!,.+...        ",
"        .@..#---;;;)))))))))))))))))))))))*.#..#---;;;)))))))))))))))))))))))))))))))))))))))))))))))))))))))))))),.....        ",
"        .#..#====>>'''''''''''''''''''''''=.@..#====>>''''''''''''''''''''''''''''''''''''''''''''''''''''''''''''>.....        ",
"        .@..#---;;,,!!!!!!!!!!!!!!!!!!!!!!*.#..#-*-;;,,!!!!!!!!!!!!!!!!!!!!!!!!!!!!!!!!!!!!!!!!!!!!!!!!!!!!!!!!!!!,.....        ",
"        .@..#---;;,,)!!)!!!)!!!!!!!)!!)!!!-.@..#---;;,,!)!!)!!!!)!!)!!)!!)!!!)!!!!)!!)!!)!!)!!!!)!!!!)!!)!!)!!!!)!,.....        ",
"        .#..#----;,)))))))))))))))))))))))*.#..#----;;)))))))))))))))))))))))))))))))))))))))))))))))))))))))))))),.....        ",
"        .#..#====>>'''''''''''''''''''''''=.@..#====>>''''''''''''''''''''''''''''''''''''''''''''''''''''''''''''>.+...        ",
"        .@..#---;;,,!!!!!!!!!!!!!!!!!!!!!!*.#..#---;;,,!!!!!!!!!!!!!!!!!!!!!!!!!!!!!!!!!!!!!!!!!!!!!!!!!!!!!!!!!!!,.....        ",
"        .#..#----;,)!!)!!!)!!!!!!!)!!)!!)!-.@..#---;;,),!!)!!!!)!!)!!)!!)!!!)!!!!)!!)!!)!!)!!!!)!!!!)!!)!!)!!!!)!),.....        ",
"        .@..#---;;,)))))))))))))))))))))))*.#..#----;;))))))))))))))))))))))))))))))))))))))))))))))))))))))))))))).....        ",
"        .#..#====>>>''''''''''''''''''''''=.@..#===>>>''''''''''''''''''''''''''''''''''''''''''''''''''''''''''''>.....        ",
"        .#..#-*-;;,,!!!!!!!!!!!!!!!!!!!!!!*.#..#-*--;,,!!!!!!!!!!!!!!!!!!!!!!!!!!!!!!!!!!!!!!!!!!!!!!!!!!!!!!!!!!!,.....        ",
"        .@$.#----;),)!!!!)!!!!!!!)!!)!!!)!-.@..#---;;,,)!!)!!!)!!)!!)!!)!!!)!!!!)!!)!!)!!)!!!!)!!!!)!!)!!)!!!!)!!),.+...        ",
"        ..%.#---;;,,)!!!!!!!!!!!!!!!!)!!!)*.#..#---;;;,))))))))))))))))))))))))))))))))))))))))))))))))))))))))))),.....        ",
"        ..&.+$%$%%%%%%%%%%%%%%%%%%%%%%%%%%$.#..#====>'>'''''''''''''''''''''''''''''''''''''''''''''''''''''''''''>.....        ",
"        ...+................................@..#---;;,,!!!!!!!!!!!!!!!!!!!!!!!!!!!!!!!!!!!!!!!!!!!!!!!!!!!!!!!!!!!,.....        ",
"        ........+$$$$$$$$$$$$$$$$$$$$$$$$$#.#..#-*-;;,,)!!!!!)!!)!!)!!)!!!)!!!!)!!)!!)!!)!!!!)!!!!)!!)!!)!!!!)!!!),.....        ",
"        ....................................@..#---;;;)))))))))))))))))))))))))))))))))))))))))))))))))))))))))))),.....        ",
"        ....................................#..#====>>''''''''''''''''''''''''''''''''''''''''''''''''''''''''''''>.+...        ",
"          ..................................@..#---;;,,!!!!!!!!!!!!!!!!!!!!!!!!!!!!!!!!!!!!!!!!!!!!!!!!!!!!!!!!!!!,.....        ",
"                                           .#..#*--;;),!)!!!)!!)!!)!!)!!!)!!!!)!!)!!)!!)!!!!)!!!!)!!)!!)!!!!)!!!!),.....        ",
"                                           .@..#---;;;)))))))))))))))))))))))))))))))))))))))))))))))))))))))))))),.....        ",
"                                           .#..#====>>''''''''''''''''''''''''''''''''''''''''''''''''''''''''''''>.....        ",
"                                           .@..#-*-;;,,!!!!!!!!!!!!!!!!!!!!!!!!!!!!!!!!!!!!!!!!!!!!!!!!!!!!!!!!!!!).....        ",
"                                           .@..#----;,,)!)!!)!!)!!)!!)!!)!!!!)!!)!!)!!)!!!!)!!!!)!!)!!)!!!!)!!!!!!,.+...        ",
"                                           .#..#---;;,,))))))))))))))))))))))))))))))))))))))))))))))))))))))))))),.....        ",
"                                           .@..#====>>''''''''''''''''''''''''''''''''''''''''''''''''''''''''''''>.....        ",
"                                           .#..#---;;,,!!!!!!!!!!!!!!!!!!!!!!!!!!!!!!!!!!!!!!!!!!!!!!!!!!!!!!!!!!!,.....        ",
"                                           .@..#----;,,!)!!)!!)!!)!!)!!)!!!!)!!)!!)!!)!!!!)!!!!)!!)!!)!!!!)!!!!!)!,.....        ",
"                                           .#..#---;;;)))))))))))))))))))))))))))))))))))))))))))))))))))))))))))),.....        ",
"                                           .@..#====>>''''''''''''''''''''''''''''''''''''''''''''''''''''''''''''>.+...        ",
"                                           .#..#---;;,,!!!!!!!!!!!!!!!!!!!!!!!!!!!!!!!!!!!!!!!!!!!!!!!!!!!!!!!!!!!,.....        ",
"                                           .#..#---;;,,)!!)!!)!!)!!)!!)!!!!)!!)!!)!!)!!!!)!!!!)!!)!!)!!!!)!!!!!)!),.....        ",
"                                           .#..#----;,,)))))))))))))))))))))))))))))))))))))))))))))))))))))))))))).+...        ",
"                                           .#..#====>>''''''''''''''''''''''''''''''''''''''''''''''''''''''''''''>.#...        ",
"                                           .#..#---;;,,!!!!!!!!!!!!!!!!!!!!!!!!!!!!!!!!!!!!!!!!!!!!!!!!!!!!!!!!!!!,.%...        ",
"                                           .@$.#---;;,,)!!)!!)!!)!!)!!)!!!)!!)!!)!!)!!!!)!!!!)!!)!!)!!!!)!!!!!)!!),.&...        ",
"                                           ..%.#-*-;;,,)!!!!!!!!!!!!!!!!!!!!!!!!!!!!!!!!!!!!!!!!!!!!!!!!!!!!!!!!!),.&...        ",
"                                           ..&.+%$$%%%%%%%%%%%%%%%%%%%%%%%%%%%%%%%%%%%%%%%%%%%%%%%%%%%%%%%%%%%%%%%%$$...        ",
"                                           ...+.................................................................+%%&....        ",
"                                           ........+$$$$$$$$$$$$$$$$$$$$$$$$$$$$$$$$$$$$$$$$$$$$$$$$$$$$$$$$$$%%%$......        ",
"                                           .............................................................................        ",
"                                           .............................................................................        ",
"                                             .........................................................................          ",
"                                                                                                                                ",
"                                                                                                                                ",
"                                                                                                                                ",
"                                                                                                                                ",
"                                                                                                                                ",
"                                                                                                                                ",
"                                                                                                                                ",
"                                                                                                                                "};
