/* XPM */
char * day_xpm[] = {
"128 128 17 1",
" 	c None",
".	c #000000",
"+	c #262600",
"@	c #2A2C28",
"#	c #50524E",
"$	c #5D5B35",
"%	c #626100",
"&	c #797A6F",
"*	c #817D3C",
"=	c #8E8E00",
"-	c #A5A200",
";	c #BCB800",
">	c #C7C000",
",	c #D1CB00",
"'	c #E0D800",
")	c #E8E400",
"!	c #F5EE00",
"                                                                                                                                ",
"                                                                                                                                ",
"                                                                                                                                ",
"                                                                                                                                ",
"                                                                                                                                ",
"                                                                                                                                ",
"                                                                                                                                ",
"                                                       ###########&##@@@..                                                      ",
"                                                  ###&#&###@.......@######@@..                                                  ",
"                                               ##&&&#@.........+++@.......@@#@@...                                              ",
"                                            ##&&#@.....@+++++%====%%++++.@....@@#@...                                           ",
"                                          #&&##...+.++%%=========-======%%++@.....@@...                                         ",
"                                        &&&#@...++%===============-=========%%++....@@...                                       ",
"                                      &&&#....+%=======-======-==-=-==-========%%++....@...                                     ",
"                                    &&&@...++%=======-===--=-=----=--=--=-========%%+....@...                                   ",
"                                  #&&#...+%==-====-====-==---------;-----------======%+.......                                  ",
"                                 &&&...+%==========---=--------;-;;-;;;--;-------======%+...@...                                ",
"                               #&&@..+%==-======--=----;-;;;;;;;;;;;;-;;;-;;--------=====%+......                               ",
"                              &&&...+==-====-=-=----;;;;;;;;;;;;;;;;;;;;;;;;;;;-;-----=====%+......                             ",
"                             &&#..+%====-==-=-----;;-;;;;;;;;;;;;;;>>;;;;;;;;;;;;;;-----====%+@.....                            ",
"                            &&@..+%-=====-=----;;;;;;;;;;>>>>>>>>>;>;>>;;;>;;;;;;;;;;-;---====%+.....                           ",
"                           &&..+%==-===-=----;->-;>;>;;>>;>>;>;>;>>;>>>>>>;;;;;;;;;;;;-;----===%+.....                          ",
"                         #&&..+%-====-==--->->;;>>;;;>>>>>>>>>>,>,>>>;>>>>>>>>;;;;;;;;;;-;---===%+.....                         ",
"                        #&&..+=-=--==----;-;;>>;;>>>>>>>>>>>>>,,>>,,,>,>>>>>;;>>>>>;;>;;;;;;----==%+....                        ",
"                        &#..+%==-==-=---;;;>>;>>;>>>>;,,>,,,,>>,,;,,>>,>,,,>,>>;;;>>;>;;;;;-;;--===%+....                       ",
"                       &&..+=-=====----;;;;;>>;>>>>>,,;>,,>,,,,,>,>,,,,,,>>,>,>,;,;>>;>;>;;;;;-;--=-%+....                      ",
"                      &#..+%-==-=---->;;;>;;;,;,,>;,>,,,,,>,,>,,,,>,,>,>,,,,>,>,;,;>;>;>;;;;;;;;-;--=%+....                     ",
"                     #&..+%-=====--;-;;>;>>;,>>;>,,,,,,,,,,,,,,,,,,,,,,,,>,,,,,,,,>,,>>;>>>;;;;;;-----%+....                    ",
"                    #&@.+=-==-=---->;>;>;>,,;,,,,,>,,,>,,,,,',',',',',,,,,,,,,,>,,>>;,>>;;>;;;;;;;--;-=%....                    ",
"                   #&#.+%==-===---;;;>;>;>;,>,,>,,,,,,,,,',,,,,',',,,,,',,,,,,,,,,,>,>>>;>>;>;;;;;;;---=+....                   ",
"                   #&..%-====---;>;;;>;>,>,,,;,,,,,,'',','''','',''''','',,,,,,,,,,,,>,,;>>>;;;;;;;;;---%+....                  ",
"                  #&..+=-==-=---;;;;>>>;,;,,,,,,,,,',',',',','',',',',',,'',',,,,>,,>,,;,,;>>>;;;;;-;;-;-=+....                 ",
"                 @&@.+%-===---;>;;;>>;,,,>,>,,,,',,','''''''',''''''''''',','',,',,,,,,,>,>;>;>;;;;;;;---=%....                 ",
"                 ##..%=====----;;;;>,;,>,,,,,,,,,'',',',',',')''''',),',',''','',,,,,,,,,>,,>>;>;;;;;;;;--=+....                ",
"                ##..+===-=--;->>;>>>;,>,,>,,,'',','''',''')'''''''),'')''),','',),',,,,,,>,>,,;>;>;;;;;;;--%....                ",
"                ##.+%=-==---;;>>;,>,;,,,,,,',,,',',',''''''''''''''''',''',)','',',',,,,,,>,>;,>>;;;;;;-;--=+....               ",
"               ##.@%=-==----;;;;>>;,,,>,,,,''''''''''''''''''')'')'')')'',)',','''',',,,,,,,,>;>;>;>;;;;;;;-=+....              ",
"               &@.+=====--;;;;>;>,>;,,,,,',,',','''''''''''')''''')')''')'')''),'','',',,,>,,,,>,;>;;;;;-;--=%....              ",
"              @#..%==-=----;>;>>,;,,>,,,,,',',''''')'''')'''')'')'')'')''')''''')'',''),,,,,>,,>>>;>;;;;;;;;-=+....             ",
"              ##.+=====--;;;>;;>;,,,,,,,'','',''),'''))'')))'))))')')''')')'')''',''',,'',,,,;,,,>>>;;;;;;;---%....             ",
"             @&..%====---;;;>,>,,>,,,,','',')','')')''')))')'))'))'))))''')'''')')','''',',,,,>>,>>,;>;;;;;;;-=+....            ",
"             ##.+=-==---;;;;;;>,,,,,,,,',,'',)')'''')''))'))))')!')'))))))))')'''''''','',',,,,,>,;>>;;;;;;-;;-%....            ",
"            .#..+===-=-;->;>>,>;,>,,,','','''''''))'))')))'))))'))))'))')')))')')'''''',',,',,,,,,>,;>;;;;;;;--=+...            ",
"            @#..%===---;;;>;,;,,,,,,',,'''''''')'')'))')))))))!)))!)))!))''))')'')''),),''',,,,,,,,;,;>;;;;;;;--+....           ",
"            @@.+====--;;;;;;>,>,,>,,','',','')'''))')))')))!'!'!')!'!')))!'')))'''''''),),',',,,>>,;,>,;;;;;;;--%....           ",
"           .#..%====---;>>;,;>,,,,',,,''''),'''))')))'!)!'!)!!'!!!))!'!'!)))))))))'')'''','',,,,,,,,;>;;;;;;;;;;-+...           ",
"           @@.+%===--;;;;>;,;,>,,,,','',''')')''')'))))'!'!'!'!)'!!'!!))'!)))'))'')'')',)','',,,,,,,>,;;;;;;;-;--%....          ",
"           @@.+=-==---;;>;,;,,,,,,,'''',')')'))'))))!'!)!'!!)!!!'!!))!!!'!')!'))))')'')''),''',,,>,;,>,>;;;;;;;;-=+...          ",
"           #..%===---;;;;,;>>,>,,,',','),')'''))'!'!'!'!!)!'!!!!!!'!!!)!!)!'!)!')))')'''),'',',',,,,>;>,;;;;;-;;-=+...          ",
"          .#.+%====--;>;;>;,,,,,,,','',')'')''')'!')!!'!'!!'!'!!!!!!'!)!'!!)')))'))')')''''''',','>,,,>;>;;;;;-;;-+...          ",
"          .#.+===--;-;;>;,,>;,,,,',',')''''))))'!'!'!)!!!!!!!!!!!!!!!!!!!'!!!'!)!'))''')''',',',,,,>,,>;>;;;;;;-;-%....         ",
"          @@.+====--;;;,;>;,,,,,','','''))''')!'!)!'!!'!!!!!!!!'!!!'!!!!!!))!'!))))')')')')','',',,,;>,,;>;;;;;;;-=@...         ",
"          @..%==---;;;;;>,,>,,,,,',''''''''))''!'!)!'!!!'!!!!!!!!!!!!'!!!!!'!!'!'!'!))''''','',',,,,,,;,>;>;;;;-;-=+...         ",
"         .#.+%===---;;;;>;;,>,,',,'','''))')!')!'!'!!'!!!!!'!!!!!!!!!!!!!!!!!!!'))))))')''),','',,',>,,>;,;;;;;;;;-+...         ",
"         .@.+===---;;;,;,,>,,,,,,'',')'''''))'!'!!!'!!!!!!!!!!!!!!!!!!!!'!!'!'!!!'))')')'')')'',',,,,,>,;;>;;;;;-;-+...         ",
"         .@.+===---;;;;;>>,>,,,',,'',''))')'))!''!!'!!!'!!!!!!!!!!!!!!!!!!!!!!!)!'))')')''',','',',,,>,>,>>;;;;;;-;%....        ",
"         .@.+===--;;;;,;>,>,,,,'''',),''')')'!'!!!'!!!!!!!!!!!!!!!!!!!!!!!!!'!!')!)))))')')'',',',,,,>,>>;;;;;;;;-;=....        ",
"         .@.+===---;;;;>,>>,,,,,','''')''')'!)!'!!'!!!!!!!!!!!!!!!!!!!!!!!!!!!!!))!'))))')'')''',',,,,;,;,>;;;-;;;--+...        ",
"         ...+===--;;;>;;;,,,>,',,''''''')'!)'!'!'!!!!'!!!!!!!!!!!!!!!!!!!!!'!!'!'!!)'')')''''','',,,,,,,;>;;;;;;-;;=+@..        ",
"         ...%===--;;;;;,>,>,,,,',','''')''!''!'!'!'!!!!!!!!!!!!!!!!!!!!!!!!!!!!!)!'!))))')'''','',,,,,>,,>>;;;;;>-;=+@..        ",
"         ...%=-=--;;;,;;>,>,,,',','),)'''!''!'!!!!!!!!!!!!!!!!!!!!!!!!!!!!!!!!'!'!)))')')'''',''',',,,>;,;;>;;;;;;;=+@..        ",
"         ..+===---;;;;>>;>,,,,,,'',''''''!')!)'!'!'!!!!!!!!!!!!!!!!!!!!!!!!!!!!!'!'!))')'')')'',',,,,,,,;>,;;;;;;-;=+@..        ",
"         @.+===---;;;;>>,,>,,,',',','')')'!')'!'!!!!'!!!!!!!!!!!!!!!!!!!!!!'!!!'!!))'!))))'''','',',,>,,,;,;;;;;;;;=+@..        ",
"         .@.%==---;;;>;;>,>,,,,',''')'')''!'!'!!!'!!!!!!!!!!!!!!!!!!!!!!!!!!!!!!!'!))))''')''','',',,,>,;>;>;;;;--;=+@..        ",
"         .@.%==---;;;>>,>;,,,,,,'',',)''')''!)''!!'!!!!!!!!!!!!!!!!!!!!!!!!!'!!!'!'!''')''''),'',,,,,,>,>,;;;;;;;;;=+...        ",
"         @@.+==--;;;;;;;,>>,,,,',''''')''))'!!!'!!!!!!!!!!!!!!!!!!!!!!!!!!!!!!'!!!'!)!))')'''',''',,,,,,>;;>;;;;;---+@..        ",
"         .@.+==---;;;;,>;,,,,,','','''''))'!''!)!'!'!!!!!!!!!!!!!!!!!!!!!!!!!!!'!'!'')'))')''),',',,>,>,>,;;;;;;;;;=+@..        ",
"         .@.+===-;;;>;;;>;>,,,,,,'''''''''')))'!!'!!!!!!!!!!!!!!!!!!!!!!!'!!!!!!!!'!!'''''),''',',,,,,,;>;,;;;;;-;--$@..        ",
"         .@.+%-----;;;,;,,>,,,',','''')'!'!''!'!'!!'!!!!!!!!!!!!!!!!!!!!!!!'!!'!''!'!'!')'''','',',,,>,;>;;;;;;;;;-=@...        ",
"         ...+===-;;;;;;>;>>,,,,,,''','''''))'!'!!'!!'!!!!!!!!!!!!!!!!!!!!!!!'!'!!'!)')')''),)'',',,,,,,,>;,>;;;;-;;%#..         ",
"         ....%-=--;;;>;>,>>,>,,,,,'''')')''!'!!'!'!!!!!!!!!!!!!!!!!!!!!!!!!!!!!'!)))))'')',)','',,,,>,>,,;;;;;;;;;-$#..         ",
"          ...%==-;-;;>>;>;>,,,,,',',''''''')''!'!'!'!'!!!!!!!!!!!!!!!!!!!!'!!'!)))))')'')''','',',,,,,,;;>;;;;;-;--+#..         ",
"          .@.+==--;;;;;;,>,>,,,,,''','')')'))''!!'!!!!'!!!!!!!!!!!!!!!!!'!!'!!'!)!'))')')'''','',,,,>>,;>,;>;;;;;;=$@..         ",
"          .@.+==---;;;>;>;,>,,,,','',)'''''''!'!'!'!'!!!'!!!!!!!!!!!!'!!!!!'!!!)'!')')''''''',',,,,,>,;,>;;;;;;;-;=@@..         ",
"          ....%==-;;;;>;>>>,>,,,,,''''''')')!''!!'!'!!'!!!!!!!!!!!!!!!!!!'!!'!')!'!'))'))',',',',',,>,,;>,;;;;;-;-%$...         ",
"          ....%=---;;;;;;>>>,,,,,,,,','''''''!'''!'!'!'!!'!'!!!!!'!!!'!!!'!!'!'!'!')''''),)'''',,,,>,>,,;;;;;;;;;-$#..          ",
"           ...+==---;;;>>,;>,>,,,),''',)')''''!)'!'!'!!'!!!!'!'!!!!'!!'!'!!'!'!'')'!')'''),',,,',,,>,>;>;>;;;;;-;=$@..          ",
"           ...+%=--;;;>;;>>;>>,,,,,,','''''!''''!''!'!'!'!'!!'!!!'!!'!!!'!'!!'!)))'')''','',''',,,,>,;,;,;;;;;;;-%#@..          ",
"           ....%=---;;;;;>>,>,,,,,','','''''''!')'!'!'!'!'!'!!'!!!'!!'!'!'!'!'')'')'')''),'',,,,,,,>,>,;;;;;;;-;-$#..           ",
"           ....+==-;-;;;>>;>;,>,,,,',','''')''''''!'!'!'!!'!'!'!'!!'!'!!!'))'!'!'')''''',''',',,>,,>,;;;;;;;;;>-=$#..           ",
"            ...+%---->;;;;>>>,>,,,,,',',''''''!'!''!'!'!'!'!'!'!'!'!'!''!'!'!')''')'''''',',',,,,,>>>,,;;;;-;-;;%#@..           ",
"            ....$=---;;;;;>>;>>,>,,,,,'',''''''''')''!'!'!'!'!!'!'!'!!!'!)')''!')'''),)','',,',>,>,>>;;,;;;;;;--$#..            ",
"             ...+==--;;;;>;>,>>,,,,,,','''''')''')'!''!''!!'!'!!'!'!'''!')!'!'''')'''','',,',,,,,>,>>;;;;;;;;;;%&@..            ",
"             ....*=---;;;;;;>;>,>>,,,,,',',''''''''''''!''''!''''!'!'!')''')'')''''''','',',,,,,>,;>>;;;;;;-;--$#...            ",
"             ....+==-;-;;;;;>,>;,,,,,',,''',''')'''!'!'''!'!''!'!''!'')')')')'')'))'','),,,,',,>,>>>,;;;;;;;;-%&#..             ",
"              ....*=---;;;;;;;>>>>,,,,,,,',''''''''''')!'''!'!')'!''!'''')'')''''',''',,),,,>,,,,>>;;;;;;;;-;;$#...             ",
"              ....+==;;-;;;;>;>>>,>>,,,,,','',''''''''''''''''!''))'''!')'''''''',',',',,,,,,,>;>>>;>;;;;-;;-%$#..              ",
"               ....$=--;;;;;>>;>>>,>,,,,,,,,','''')''''')')''')''')')'''')''''''''','',',,,,,>,>>>,;>;;;;;-;-$#...              ",
"               ....+=----;;;;;>;>>>,,,,,,,,',',,','''''''''')'''')'')''''''''',',',),,,,,,,>,>;,;;;>;;;;;;-;%&@..               ",
"                ....$=--;;;;;;;>;>;>;>,,,,,,',''','''''')''''''''''''')''''''','',,,,,,,,,,;,,;,>>;;;;;;-;;-$&...               ",
"                ....+*---;;;;;>>>>>,;,,,,,,,,,,,'',',','''''''')'''''''''''','),,),',,,,,,,>;>;;;;;;;;-;;;;%&@..                ",
"                 ....+=--;-;;;;;>;;>>;>>,,,,,,',,',''''''''')''''''''''',','',',',',,,,,;,,>>,;,;;;;;;;;;--$#..                 ",
"                  ...@$=--;;;;;;>;>>>,>>,,,,,,,,',',,',,','','','''',','',',,',',,,,',,,>,>;,;;;;;;;;;-;-=*&...                 ",
"                  ....+*----;;;;;;>;;;>,>>,,,,,,,,',','','',',''',,','',',',',,',,,,>,>,,>;>,;>;;;;;;-;;-&&@..                  ",
"                   ....+*-;-;;;;;;;;>>;>>>,,,,,,,,,,,',,',,',',,'''',,',','',,,,,,,,,,>>;>>;;>;>;;;;;;-;=##..                   ",
"                    ....+=---;;;;>;;;,;>>>;>;,>,,,,,',,,,',','',,,',',,',,,,,,,,,>,>>>>,;,;>>;;;;;;;-;-=&#...                   ",
"                     ...@$--;-;;;;;;;;>;>>,,,>,>>,>,>,,,,,',',,,),,',)>',',,,,>,>,,>,;>>>;,;;;;;-;-;;;=*&...                    ",
"                     ....+*=--;-;;;;;>;;>;;>;>,>,>,>,,,,,>,,,,,,,,,,>,,,,,,,,,,>,>,;>,>>;;;;;;;;;;;-;=&&...                     ",
"                      ....+=---;-;;;;;;;>;>;,>;>,>,>,,,,,,,>,,,,,,,,,,,>,>,>,>>,>,;,;;>;>;;;;;;;-;-;=*&@..                      ",
"                       ....+*---;;;-;;;>;;>;>;>>,>,>,>,>>,,,,,,>,,,>,,>,>,,>,>,>>>>>>;>;;;;;;;;;;;;-&&@..                       ",
"                        ....+*=;-;-;;;;;;;;>;,;>;>>;,>,>,,>,>,,,>,>,,>,>,>>>>>>>>>;;;>;;;;;;;-;-;-=*&@..                        ",
"                         ....@+*--;-;;;;;;;;;;;,;>;>>;>>>>;,;>>>,>,>>,>,>,>>>,;>;>>;;;>;;;;;;;;;--&&....                        ",
"                          ...@.+=-;;-;-;;;;;;;;;;>,>;,>;>,>;,>>>>,>>>>>>>>>;>;;>;>;;>;;;;;-;-;--**&...                          ",
"                           ...@.+*=--;;-;;;;;;;;;;;;;;>>;>;>>>,;>;>>>>;;>;,;>>;;;;;;;;;;;;;;-;=*&&...                           ",
"                            ......+=-;-;;;;;;;;;;;;>;>;>>;>;>;>;>>;,;>>>>;;>;;;;;;;;;;;-;-;--*&&#...                            ",
"                             ....@.@*---;-;-;;;;;;;;;;;;;>;>;>>;>;;;;>;>;;;;;;;;;;;;-;;;-;;-*&&@...                             ",
"                               ......+=--;;;;-;;;;;;;;;;;;;;;;;;;;>;>;;;;;;;;;;;;;;-;;-;;-*&&&....                              ",
"                                ....@.+$==--;;;-;;;;;;;;;;;;;;;;;;;;;;;;;;;;;;;;;;;-;;;-**&&....                                ",
"                                 .....@+++*--;-;;-;;;;;;;;;;;;;;;;;;;;;;;;;;-;;-;-;;--**&&#....                                 ",
"                                   .....#.@+*---;;-;-;-;-;;;;;;;;;;;;;;;;-;;;;-;;;-==&&&#....                                   ",
"                                     .....@..+*=--;;;-;;;;-;-;-;;-;-;-;-;;-;-;;--**&&&#.....                                    ",
"                                      ......@@+@+*==-;-;-;-;;;;;-;;;;;;-;;-;---**&&&@.....                                      ",
"                                         ......@@@@++*=-=;-;-;-;;-;-;-;---=*&&&&&#......                                        ",
"                                           .......#@##@$#+**-=-------==&&&&&&&#.......                                          ",
"                                             .........@@@##$$&&&&&&&&&&&&##........                                             ",
"                                                .............@@@@@#@#@..........                                                ",
"                                                    ........................                                                    ",
"                                                           ...........                                                          ",
"                                                                                                                                ",
"                                                                                                                                ",
"                                                                                                                                ",
"                                                                                                                                ",
"                                                                                                                                ",
"                                                                                                                                ",
"                                                                                                                                ",
"                                                                                                                                ",
"                                                                                                                                ",
"                                                                                                                                "};
