/* XPM */
char * diameterdimension_xpm[] = {
"128 128 17 1",
" 	c None",
".	c #000000",
"+	c #090C08",
"@	c #0D0F0C",
"#	c #171816",
"$	c #1F211E",
"%	c #2C2E2B",
"&	c #363836",
"*	c #3F413E",
"=	c #4B4D4A",
"-	c #575957",
";	c #5E605D",
">	c #656765",
",	c #666866",
"'	c #6E706D",
")	c #777976",
"!	c #7E807D",
"                                                                                                                                ",
"                                                                                                                                ",
"                                                                                                                                ",
"                                                                                                                                ",
"                                                                                                                                ",
"                                                                                                                                ",
"                                                                                                                                ",
"                                                       ..........+........                                                      ",
"                                                  ....#*--=%+....+%=-=*%......                                                  ",
"                                               ...&--&...................@%&#.....                                              ",
"                                            ...=>*...........       ..........$$.....                                           ",
"                                          ..*,*.......                   ........#@....                                         ",
"                                        .#,'@.....                           .......$....                                       ",
"                                      .%)>......                                ......#....                                     ",
"                                    .$)-.....                                      .....+....                                   ",
"                                  ..>>.....                                          .........                                  ",
"                                 .*!....                                               .........                                ",
"                               ..)-....                                                  ........                               ",
"                              .*!....                                                      ........                             ",
"                             .,,....                                                         .......                            ",
"                            .!&...                                                            .......                           ",
"                           +!....                                                               ......                          ",
"                         .#!...                                                                  ......                         ",
"                        .#!...                                                                    ......                        ",
"                        #!...                                                                       .....                       ",
"                       @!...                                                                        ...+..                      ",
"                      .!...                                                                        ........                     ",
"                     .!...                                                                       ..... .....                    ",
"                    .>&..                                                                       .....  .....                    ",
"                   .*'..                                                                      ......    ..@..                   ",
"                   .!...                                                                     ...#...     .....                  ",
"                  .)...                                                                    ...+%...       .....                 ",
"                 .*-..                                                                   ....%&....       ..#..                 ",
"                 .!...                                                                 .....=*....         .....                ",
"                .>...                                                                .....%>=....           ....                ",
"                $>..                                                                ....+-)=.....           .....               ",
"               .,...                                                              .....=)!*.....             .....              ",
"               %-..                                                            ......*'!'*......             .....              ",
"              .)..                                                            .....&>!'-%......               .....             ",
"              #,..                                                         ......%>!)-*$.......                .@..             ",
"             .,...                                                       ......&,))-*$#.......                 .....            ",
"             .'..                                                     ......$='!'-*$@@........                 ..#..            ",
"            .*#..                                                     ....%,!!,-*$@@.........                   ....            ",
"            .>..                                                       .....&=*$@............                   .....           ",
"            .*..                                                        ......$@@...........                     .+..           ",
"           .*...                                                         .....#@............                     ....           ",
"           .>..                                                           ....#............                       ....          ",
"           .*..                                                            ................                       .#..          ",
"           %..                                                             ...............                        .#..          ",
"          .-..                                                            ................                        ....          ",
"          .-..                                                           .@>.............                          .+..         ",
"          .*..                                                          ..!.... .........                          .$..         ",
"          #@.                                                          ..!....   .......                           .$..         ",
"         .&..                                                         ..!....      .....                           ....         ",
"         .=..                                                        ..!....        ....                           ....         ",
"         .-..                                                       ..!....          ..                             ....        ",
"         .=..                                                      ..!....            .                             ....        ",
"         .&..                                                     ..!....                                           .$..        ",
"         .@..                                                    ..!....                                            .&..        ",
"         ...                                                    ..!....                                             .*..        ",
"         ...                                                   ..!....                                              .=..        ",
"         ...                                                  ..!....                                               .=..        ",
"         .#.                                                 ..!....                                                .*..        ",
"         .%.                                                ..)@...                                                 .&..        ",
"         .=.                                               ..)#...                                                  .&..        ",
"         .-..                                             ..!#...                                                   .*..        ",
"         .=..                                            ..)$...                                                    .*..        ",
"         .*..                                           ..)#...                                                     .*..        ",
"         .&..                                          ..)$...                                                      #%..        ",
"         .#..                             ..          ..)$...                                                       *..         ",
"         ....                             ...        ..)$...                                                       .;..         ",
"          .+..                           .....      ..)#...                                                        .>..         ",
"          .&..                           ......    ..)$...                                                         .;..         ",
"          .%..                          ...*..... ..,$...                                                          +&..         ",
"          .+..                          ..$!#......%@...                                                           *..          ",
"          .....                        ...=!*..........                                                           .,..          ",
"           .%..                        ...,)&++#$#....                                                            .,..          ",
"           .#..                        ..&)-#@@$$@....                                                            &&..          ",
"           .....                      ...,)*#..@@......                                                          .>..           ",
"           ..$..                     ...&)-$............                                                         .,..           ",
"            .+..                     ...,)*@@............                                                        *$..           ",
"            .....                    ..&!-$@..............                                                      .)..            ",
"             .#..                   ...''*@+...............                                                     $;..            ",
"             .....                 ...*!>#.................                                                    .'...            ",
"             ..#..                 ...,'&@...............                                                      @'..             ",
"              .....               ...*!-@..............                                                       .'...             ",
"              ..+..               ...'>#.............                                                         @,..              ",
"               .....             ...=)%...........                                                           .,...              ",
"               .....             ..#)&..........                                                             #>..               ",
"                .....           ...>&.........                                                              .)...               ",
"                .....           ..=&........                                                                =&..                ",
"                 .....         ..%%.......                                                                 @!..                 ",
"                  .....       ..##.......                                                                 .!...                 ",
"                  .....       .........                                                                  .;&..                  ",
"                   .....     ........                                                                    &)..                   ",
"                    .....    ......                                                                     @!...                   ",
"                     .....  .....                                                                      .!...                    ",
"                     ..... .....                                                                      .!...                     ",
"                      ........                                                                       .)$..                      ",
"                       ......                                                                       .)&..                       ",
"                        ......                                                                     .)%..                        ",
"                         ..@...                                                                   .!$...                        ",
"                          ...+..                                                                 #!...                          ",
"                           ...#...                                                             .&!...                           ",
"                            ...+...                                                           .-,...                            ",
"                             ........                                                       .$!$...                             ",
"                               .......                                                     .-)....                              ",
"                                ........                                                 .%!$...                                ",
"                                 .........                                             .#)-....                                 ",
"                                   ....#....                                         .@'>....                                   ",
"                                     ....+.....                                   ..%'-.....                                    ",
"                                      ...........                               .+-)&.....                                      ",
"                                         ......+.....                       ...=)>......                                        ",
"                                           ......@$+......             ....%-,-.......                                          ",
"                                             ........+$#.............$*;,>=@.......                                             ",
"                                                ............#%&******%@.........                                                ",
"                                                    ........................                                                    ",
"                                                          ............                                                          ",
"                                                                                                                                ",
"                                                                                                                                ",
"                                                                                                                                ",
"                                                                                                                                ",
"                                                                                                                                ",
"                                                                                                                                ",
"                                                                                                                                ",
"                                                                                                                                ",
"                                                                                                                                ",
"                                                                                                                                "};
