/* XPM */
char * dimensionupdate_xpm[] = {
"128 128 17 1",
" 	c None",
".	c #000100",
"+	c #2A0303",
"@	c #490204",
"#	c #570100",
"$	c #650000",
"%	c #710001",
"&	c #750000",
"*	c #7E0000",
"=	c #1D1F1D",
"-	c #880E0F",
";	c #373936",
">	c #9B3737",
",	c #50524F",
"'	c #6F716E",
")	c #B5696A",
"!	c #BE7F7E",
"                                                                                                                                ",
"                                                                                                                                ",
"                                                                                                                                ",
"                                                                                                                                ",
"                                                                                                                                ",
"                                                                                                                                ",
"                                                                                                                                ",
"                                                                                                                                ",
"                                                                                                                                ",
"                                                                                                                                ",
"                                                                                                                                ",
"                                                                                                                                ",
"                                                                                                                                ",
"                                                                                                                                ",
"                                                                                                                                ",
"                                                                                                                                ",
"                         ***&%                                                                                     ***&&        ",
"                         **&%$                                                                                     ****%        ",
"                         *)*&$                                                                                     **>&%        ",
"                         *)*&$                                                                                     &&!*%        ",
"                         &)*%$                                                                                     **)&$        ",
"                         *>*$#                                                                                     %&>*$        ",
"                         *>*%#                                                                                     *&>&$        ",
"                         *>*$#                                                                                     &*>*$        ",
"                         *>*&#                                                                                     &*>&$        ",
"                         &>*$#                                                                                     &->&$        ",
"                         *>*%#                                                                                     &&>&$        ",
"                         &>*%#                       &&                                   **                       &*>*$        ",
"                         &>*$#                     ***&%                                 ***&&                     &->*$        ",
"                         *>*&#                    *&*&%$                                 ****%%                    &*>&$        ",
"                         *>*%#                  *&**&&$$                                 &*-**&%%                  &&>&$        ",
"                         *>*%#               &**&**-*&%#                                 &--)*&&&%%%               &*>*$        ",
"        .....            *>*$#            &&*&&**>)>*%$$                                 &&-!>*&*&+....            &->&$        ",
"        .....            *>*&#           ******>)))**&$#                                 *->!)-***+....@           &*>*$        ",
"        .,...            &>&&#      &&&*&***->))))>*&*%$                                 &*)))--&&+.,..@&%%%%      &&>&$        ",
"        .'...            *>*%%%&&********->)!)))>-***&&%&&&*****************************-->))>----+.'..#$%%%&&&&&&&&*>&$        ",
"        .'...            *>*&-))!!!!!!!!!!!))>----****&&&***>>>>>>>>>>>>>>>>>>>>>>>>))!!)))))>-*-&+.'..#%$&%&&****&%&>&$        ",
"        .;...            *>*&&***********&***--*******&&&&&&*&-%&-&-&&&-%&-&&-&-&-&&*&****&->>-***+.;..@$$$$%&&&&&&%%>%$        ",
"        .;...            *>*&%$$$%%%%%%%&&&*&&******&&%&$%%$$$%%$%%$%%$%%%%$%$$%$%%%&%%%&&**--&***+.;..@####$$$%$$$$%>$$        ",
"        .;...            *>&$#      $#$#$$$%%&&****&*&$#                                 %&*-*-**%+.;..+@@##@      ##>$#        ",
"        .;...            &>*&#       @##@$#$%&%&&***&&$#                                 $&***&&&%+.;..++++@       #$>##        ",
"        .;...            *>*$#            #$$$$%%%&&&%$@                                 $*&**&%$#+.;..+           ##>$#        ",
"        .;...            *>*%#              @$#$$&&&%$$@                                 $&&&&$$$#..;...           #$>$$        ",
"        .;...            *>*$#      ..          $$$&%$$#                 ..              $&&&$$$# ..;...           $$>$#        ",
"        .;...            *>*$#    .....          @$$$$##                .....            &&%$##@  ..;...           $&>%$        ",
"        .;...            *>*&#   ......            #$$$#                ......           %%$$#    ..;...           %&>*$        ",
"        .;...            *>&&# ........              $#@                ..=.....          %$      ..;...           %*>%$        ",
"        .;...            *>@......=....                                 ..='.......               ..;...           &*>*$        ",
"        .;...            ++.....;,;....                                 ..=',.........            ..;..            &&>%$        ",
"        .;...           ......;'''.....                                 ..;''..........           ..;..            &*>*$        ",
"        .;...      .........,''',;.....                                 ..,',==.............      ..;..            &->&$        ",
"        .;...............;'''',;=.......................................=,'';=..=...................;..            %*>*$        ",
"        .;..=,''''''''''''',;=.............;;;;,;;;,;;;,;;;,;;;,;;,,'''',,',;.......................;..            &&>&$        ",
"        .;.......=.=.=.=..................................................=;=.......................;..            &*>*$        ",
"        .;.................................................................==.......................;..            &->&$        ",
"        .;...      ....................                                 ....................      ..;..            &*>&$        ",
"        .;...       ...................                                 ...................       ..;..            %&>&$        ",
"        .;...           +++............                                 ...............           ..;..            &*>*$        ",
"        .;...            #@+...........                                 ............              ..;..            &->&$        ",
"        .;...            #>$#@.........                                 ........                  ..;..            &*>*$        ",
"        .;...            $>##@ ........                                 .......                   ..;..            &&>&$        ",
"        .;...            $>&#@   ......                                 .....                     ..;..            &*>*$        ",
"        .;...            %>%$@      ...                                  ..                       ..;..            &->&$        ",
"        .;...            %>*$#                                                                    ..;..            %*>*$        ",
"        .;...            &>&%#                                                                    ..;..            &&>&$        ",
"        .;...            &>*$#                                                                    ..;..            &*>*$        ",
"        .;...            *>*%#                                                                    ..;..            &->&$        ",
"        .;...            *>*%#                                                                    ..;..            &*>&$        ",
"        .;...            *>&%#                                                                    ..;..            &&>*$        ",
"        .;...            *>*$#                                                                    ..;..            &*>&$        ",
"        .;...            &>*%#                                                                    ..;..            &->&$        ",
"        .;...            *>*%#                                                                    ..;..            &*>&$        ",
"        .;...            *>*%#                                                                    ..;..            %*>*$        ",
"        .;...            *>*$#                                                                    ..;..            &->&$        ",
"        .;...            *>*%#                                                                    ..;..            &&>&$        ",
"        .;...            &>*%#                                                                    ..;..            &*>*$        ",
"        .;...            *>*%#                                                                    ..;..            &->&$        ",
"        .;...            &>*%#                                                                    ..;..            &*>*$        ",
"        .;...            *>*$#                                                                    ..;..            &&>&$        ",
"        .;...            *>*&#                                                                    ..;..            &*>*$        ",
"        .;...            *>&&#                                                                    ..;..            &->%$        ",
"        .;...            *>*$#                                                                    ..;..            &*>*$        ",
"        .;...            &>*%#                                                                    ..;..            &&>&$        ",
"        .;...            *>*%#                                                                    ..;..            &*>&$        ",
"        .;...            *>*%#                                                                    ..;..            &->*$        ",
"        .;...            *>*$#                                                                    ..;..            %*>&$        ",
"        .;...            *>*%#                                                                    ..;..            &&>&$        ",
"        .;...            *>*%#                                                                    ..;..            *->&$        ",
"        .;...            &>*%#                                                                    ..;..            &&>*$        ",
"        .;...            *>*%#                                                                    ..;..            &*>&$        ",
"        .;...            *>*$#                                                                    ..;..            **>&$        ",
"        .;...            *>*&#                                                                    ..;..            &->*$        ",
"        .;...            *>&&#                                                                    ..;..            &&>&$        ",
"        .;...            *>*$#                                                                    ..;..            &*>*$        ",
"        .;...            &>*%#                                                                    ..;..            &->&$        ",
"        .;...            *>*%#                                                                    ..;..            %*>*$        ",
"        .;...            *>*%#                                                                    ..;..            &&>&$        ",
"        .;...            ***$#                                                                    ..;..            &**&$        ",
"        .;...            &&*$#                                                                    ..;..            &&*%$        ",
"        .;...            &*&$#                                                                    ..;..            &&&%$        ",
"        .;...            %$&$#                                                                    ..;..            &&%$$        ",
"        .;...            &$$$$                                                                    ..;..            %%$$$        ",
"        .;...                                                                                     ..;..                         ",
"        .;...                                                                                     ..;..                         ",
"        .;...                                                                                     ..;..                         ",
"        .;...                                                                                     ..;..                         ",
"        .;...                                                                                     ..;..                         ",
"        .;...                                                                                     ..;..                         ",
"        .;...                                                                                     ..;..                         ",
"        .;...                                                                                     ..;..                         ",
"        .;...                                                                                     ..;..                         ",
"        .;...                                                                                     ..;..                         ",
"        .;...                                                                                     ..;..                         ",
"        .....                                                                                     .....                         ",
"        .....                                                                                     .....                         ",
"        .....                                                                                     .....                         ",
"        .....                                                                                     .....                         ",
"        .....                                                                                     .....                         ",
"                                                                                                                                ",
"                                                                                                                                ",
"                                                                                                                                ",
"                                                                                                                                ",
"                                                                                                                                ",
"                                                                                                                                ",
"                                                                                                                                ",
"                                                                                                                                ",
"                                                                                                                                ",
"                                                                                                                                "};
