/* XPM */
char * dimensionstyle_xpm[] = {
"128 128 17 1",
" 	c None",
".	c #000000",
"+	c #1C1A14",
"@	c #271D04",
"#	c #35280F",
"$	c #2E2F2B",
"%	c #40413E",
"&	c #524830",
"*	c #5E5B51",
"=	c #7C7B74",
"-	c #979996",
";	c #A7A9A6",
">	c #B6B8B5",
",	c #C6C9C5",
"'	c #D7D9D6",
")	c #E7EAE6",
"!	c #FDFFFC",
"                                                                                                                                ",
"                                                                                                                                ",
"                                                                                                                                ",
"                                                                                                                                ",
"                                                                                                                                ",
"                                                                                                                                ",
"                                                                                                                                ",
"                                                                                                                                ",
"                                                                                                                                ",
"                                                                                                                                ",
"                                                                                                                                ",
"                                                                                                                                ",
"                                                                                                                                ",
"        .....                                                                                                      .....        ",
"        .+...                                                                                                      .....        ",
"        .=...                                                                                                      ..*..        ",
"        .=...                                                                                                      ..=..        ",
"        .*...                                                                                                      ..*..        ",
"        .$...                                                                                                      ..%..        ",
"        .$...                                                                                                      ..%..        ",
"        .$...                                                                                                      ..%..        ",
"        .%...                                                                                                      ..%..        ",
"        .$...                                                                                                      ..%..        ",
"        .$...                                                                                                      ..%..        ",
"        .%...                                                                                                      ..%..        ",
"        .$...                                                                                                      ..%..        ",
"        .$...                                                                                                      ..%..        ",
"        .$...                                                                                                      ..%..        ",
"        .%...                                                                                                      ..%..        ",
"        .$...                                                                                                      ..%..        ",
"        .$...                                                                                                      ..%..        ",
"        .$...                        ..                                                  ..                        ..%..        ",
"        .%...                      .....                                                .....                      ..%..        ",
"        .$...                     ......                                                ......                     ..%..        ",
"        .$...                   ........                                                ..+.....                   ..%..        ",
"        .$...                ......+..........                                          ..$*.......                ..%..        ",
"        .%...             .......+$...+@.+.++$$.....                                    ..+=%.........             ..%..        ",
"        .$...            ......++++%%..+....+.+..+@....                                 ..$==..........            ..%..        ",
"        .$...       .........+.$$%+.....%*=*=%+.....+.+...                              ..*=*$..............       ..%..        ",
"        .$...+............$+.%$$...$%==------;-===%$....+...............................$%=*%+.+.+...................%..        ",
"        .%....*======-===$.%%...%*----------;-;>;;--=*+......+%%%%%%%%%%%%%%%%%%%%%%==-*%**%$........................%..        ",
"        .$...............%%$..%=--=--------;;;;;;------*$.................................$%$........................%..        ",
"        .$.............+%%..%=---------;;;;;>;>;>;;;;;---*$................................++........................$..        ",
"        .%...       ..$*...=-------;-;;>''''')'))''''''>>>-*+.....                      ....................       ..$..        ",
"        .$...       .%%.+*--------;;>>>,)))!)))!!)))))'''',,;*.....                     ...................        ..$..        ",
"        .$...      .%$.$-;------;>>,>>>')'))))!)))!)))))))'',>=.....                    ...............            ..%..        ",
"        .%...     .%$.$->;;;--;>>>>>>,>,)))))))!!)!!)!!)!)')'',-%....                   ............               ..$..        ",
"        .$...    .%$.$;>>;>>'''',>>,>,>'))))!!)))!))!))!)!!!))''>%....                  ........                   ..$..        ",
"        .$...   .%$.$->;;>,'')')'',>>,>,)))))!!!!!!)!!!!))!)!!))',%....                 .......                    ..%..        ",
"        .$...  .%$.$;,>>>''')!!))!','>>')))!)!!)!!!!!)!!!!!!)!!!)',$....                .....                      ..%..        ",
"        .%... .+%.$;,>>,,')!))!!)!))',,')))!)!!!!!!!!!!!!!!!!!!!!))-....                 ..                        ..%..        ",
"        .$... .%+.-,>;,,'!)!!!!!!)!!!'))))))!!!!!!!!!!!!!!!!!!!!!!!)=....                                          ..%..        ",
"        .$....%$.%>>>>'))!!!!!!!!!!)!)!)!)!))!!!!!!!!!!!!!!!!!!!!!!!)*....                                         ..%..        ",
"        .$....%.$>>>>,')!!!!!!!!!!)!!))!)!)!!!!!!!!!!!!!!!!!!!!!!!!!!,....                                         ..%..        ",
"        .%...%..=>;>,')!!!!!!!!!!!!!!!)!)!))!!!!!!!!!!!!!!!!!!!!!!!!!)=....                                        ..%..        ",
"        .$..+%.*>>>>''!!!!!!!!!!!!!!!!!!)!!!)!!!!!!!!!!!!!!!!!!!!!!!!!'$...                                        ..%..        ",
"        .$..$+.;>>>'')!!!!!!!!!!!!!!!!!!)!!!!!!!!!!!!!!!!!!!!!!!!!!!!!!;....                                       ..%..        ",
"        .%..%.*>;>,')!!!!!!!!!!!!!!!!!!!!!!!!!!!!!!!!!!!!!!!!!!!!!!!!!!)%...                                       ..%..        ",
"        .$.%.+-;;>,)!!!!!!!!!!!!!!!!!!!!!!!!!!!!!!!!!!!!!!!!!!!!!!!!!!!!-....                                      ..%..        ",
"        .%.$.$;;>,')!!!!!!!!!!!!!!!!!!!!!!!!!!!!!!!!!!!!!!!!!!!!!!!!!!!!,+...                                      ..%..        ",
"        .+$+.=>;>''!!!!!!!!!!!!!!!!!!!!!!!!!!!!!!!!!!!!!!!!!!!!!!!!!!!!!!*...                                      ..%..        ",
"        .++++;>;>''!!!!!!!!!!!!!!!!!!!!!!!!!!!!!!!!!!!!!!!!!!!!!!!!!!!!!!>...                                      ..%..        ",
"        .+$.%;;>,))!!!!!!!!!!!!!!!!!!!!!!!!!!!!!!!!!!!!!!!!!!!!!!!!!!!!!!)$...                                     ..%..        ",
"        ..%.*>>>''!!!!!!!!!!!!!!!!!!!!!!!!!!!!!!!!!!!!!!!!!!!!!!!!!!!!!!!!=...                                     ..%..        ",
"        ..+.-;>,')!!!!!!!!!!!!!!!!!!!!!!!!!!!!!!!!!!!!!!!!!!!!!!!!!!!!!!!!=...                                     ..+..        ",
"        ...+-;>>'))!!!!!!!!!!!!!!!!!!!!!!!!!!!!!!!!!!!!!!!!!!!!!!!!!!!!!!!-...                                     .....        ",
"        .+.$-;>''!!!!!!!!!!!!!!!!!!!!!!!!!!!!!!!!!!!!!!!!!!!!!!!!!!!!!!!!!'+..                                     .....        ",
"        .$.%->>'))!!!!!!!!!!!!!!!!!!!!!!!!!!!!!!!!!!!!!!!!!!!!!!!!!!!!!!!!!$...                                    .....        ",
"        .+.=->>''!!!!!!!!!!!!!!!!!!!!!!!!!!!!!!!!!!!!!!!!!!!!!!!!!!!!!!!!!!%...                                    .....        ",
"        .+.-;;,')!)!!!!!!!!!!!!!!!!!!!!!!!!!!!!!!!!!!!!!!!!!!!!!!!!!!!!!!!!%...                                                 ",
"        .$.->>''!)!!!!!!!!!!!!!!!!!!!!!!!!!!!!!!!!!!!!!!!!!!!!!!!!!!!!!!!!!%...                                                 ",
"        .%.=>>,')!)!!!!!!!!!!!!!!!!!!!!!!!!!!!!!!!!!!!!!!!!!!!!!!!!!!!!!!!!%...                                                 ",
"        .%.=>>'))!!!!!!!!!!!!!!!!!!!!!!!!!!!!!!!!!!!!!!!!!!!!!!!!!!!!!!!!!!%...                                                 ",
"        .$.$>>''!!)!!!!!!!!!!!!!!!!!!!!!!!!!!!!!!!!!!!!!!!!!!!!!!!!!!!!!!!!%+..                                                 ",
"         ..+;,''!!!!!!!!!!!!!!!!!!!!!!!!!!!!!!!!!!!!!!!!!!!!!!!!!!!!!!!!!!'$%.                                                  ",
"         ..+;>''!!!!!!!!!!!!!!!!!!!!!!!!!!!!!!!!!!!!!!!!!!!!!!!!!!!!!!!!!!;.%.                                                  ",
"         .$.->''!!!!!!!!!!!!!!!!!!!!!!!!!!!!!!!!!!!!!!!!!!!!!!!!!!!!!!!!!!-.+.                                                  ",
"         .+.*,,))!!!!!!!!!!!!!!!!!!!!!!!!!!!!!!!!!!!!!!!!!!!!!!!!!!!!!!!!!=$..                                                  ",
"         ...%;,'!!!!!!!!!!!!!!!!!!!!!!!!!!!!!!!!!!!!!!!!!!!!!!!!!!!!!!!!!)$%..                                                  ",
"         .+..-,')!!!!!!!!!!!!!!!!!!!!!!!!!!!!!!!!!!!!!!!!!!!!!!!!!!!!!!!!>+$.                                                   ",
"          ...*,')!!!!!!!!!!!!!!!!!!!!!!!!!!!!!!!!!!!!!!!!!!!!!!!!!!!!!!!!*%+.                                                   ",
"          ...$;,))!!!!!!!!!!!!!!!!!!!!!!!!!!!!!!!!!!!!!!!!!!!!!!!!!!!!!!'$$..                                                   ",
"          ....-,')!!!!!!!!!!!!!!!!!!!!!!!!!!!!!!!!!!!!!!!!!!!!!!!!!!!!!!-.%.                                                    ",
"           ...%,'))!!!!!!!!!!!!!!!!!!!!!!!!!!!!!!!!!!!!!!!!!!!!!!!!!!!!!%%..                                                    ",
"           ...+-''!!!!!!!!!!!!!!!!!!!!!!!!!!!!!!!!!!!!!!!!!!!!!!!!!!!!!>+$..                                                    ",
"            ...%,')!!!!!!!!!!!!!!!!!!!!!!!!!!!!!!!!!!!!!!!!!!!!!!!!!!!)%%..                                                     ",
"            ....='))!!!!!!!!!!!!!!!!!!!!!!!!!!!!!!!!!!!!!!!!!!!!!!!!!!=+%..                                                     ",
"             ...$;')!!!!!!!!!!!!!!!!!!!!!!!!!!!!!!!!!!!!!!!!!!!!!!!!!,$%..                                                      ",
"             ....%'))!!!!!!!!!!!!!!!!!!!!!!!!!!!!!!!!!!!!!!!!!!!!!!!!*$$..                                                      ",
"              ....='))!!!!!!!!!!!!!!!!!!!!!!!!!!!!!!!!!!!!!!!!!!!!!!-+%..                                                       ",
"               ...$;')!!!!!!!!!!!!!!!!!!!!!!!!!!!!!!!!!!!!!!!!!!!!!;.*..                                                        ",
"               ....$>))!!!!!!!!!!!!!!!!!!!!!!!!!!!!!!!!!!!!!!!!!!!)%%$..                                                        ",
"                ....$>)!!!!!!!!!!!!!!!!!!!!!!!!!!!!!!!!!!!!!!!!!!)*$$..                                                         ",
"                 ....$>))!!!!!!!!!!!!!!!!!!!!!!!!!!!!!!!!!!!!!!!)*.%..                                                          ",
"                  ....$>)!!!!!!!!!!!!!!!!!!!!!!!!!!!!!!!!!!!!!!,%.*..                                                           ",
"                   ....$;))!!!!!!!!!!!!!!!!!!!!!!!!!!!!!!!!!!)-.+*%..   ###                                                     ",
"                    ....+=,!!!!!!!!!!!!!!!!!!!!!!!!!!!!!!!!!,%+*%$.... @&##                                                     ",
"                     .....+-)!!!!!!!!!!!!!!!!!!!!!!!!!!!!!)=+$%.......@=&#@##                                                   ",
"                      ......%>)!!!!!!!!!!!!!!!!!!!!!!!!!)-$+%$... ..+%*&@@%##                                                   ",
"                       ......+%-,!!!!!!!!!!!!!!!!!!!!!)=$+%%...    .@=&@@*&#@##                                                 ",
"                         .......+=,)!!!!!!!!!!!!!!!);=$+%$+...     @*&#&*&#+###                                                 ",
"                           .......+$*;,,)!!!!!',>=$$$.%%....      #=&@#=&@@**#@##                                               ",
"                             ...........*==--*$.+%%+$$....        #&@@*&#+*&#+###                                               ",
"                               .............$%*%........         ###@**@@&*#@&*#@##                                             ",
"                                  ...................             ###&#@**#+&*#+###                                             ",
"                                       ........                    ###+*&@@&*#@&*####                                           ",
"                                                                    ###&#+&=#+&*#@@##                                           ",
"                                                                     ###+&*@+&=#+&*#@##                                         ",
"                                                                      ###&#@#*#@$=#@@##                                         ",
"                                                                       ###@&=#@#=#+&*##                                         ",
"                                                                        #@@&#+#=#@@=#@.                                         ",
"                                                                         ###@&=#+#=&@...                                        ",
"                                                                          #@@&#@#=#@...                                         ",
"                                                                           ###+#=#@...                                          ",
"                                                                            ##@*&@...                                           ",
"                                                                             ###@...                                            ",
"                                                                              ##...                                             ",
"                                                                                                                                ",
"                                                                                                                                ",
"                                                                                                                                ",
"                                                                                                                                ",
"                                                                                                                                ",
"                                                                                                                                ",
"                                                                                                                                ",
"                                                                                                                                ",
"                                                                                                                                ",
"                                                                                                                                ",
"                                                                                                                                "};
