/* XPM */
char * dimensionedit_xpm[] = {
"128 128 17 1",
" 	c None",
".	c #000100",
"+	c #4D0000",
"@	c #111310",
"#	c #620001",
"$	c #730002",
"%	c #7E0000",
"&	c #1B1D1B",
"*	c #292B28",
"=	c #343633",
"-	c #942427",
";	c #3D3F3C",
">	c #525451",
",	c #AA5454",
"'	c #727572",
")	c #BF7C7C",
"!	c #D6AAAA",
"                                                                                                                                ",
"                                                                                                                                ",
"                                                                                                                                ",
"                                                                                                                                ",
"                                                                                                                                ",
"                                                                                                                                ",
"                                                                                                                                ",
"                                                                                                                                ",
"                                                                                                                                ",
"                                                                                                                                ",
"                                                                                                                                ",
"                                                                                                                                ",
"                                                                                                                                ",
"                                                                                                                                ",
"                                                                                                                                ",
"                                                                                                                                ",
"                                                                                                                                ",
"                                                              %%%$                                                              ",
"                                                              $%%$$                                                             ",
"                                                              %%%$#                                                             ",
"                                                             %$,%$$#                                                            ",
"                                                             %%!-$##                                                            ",
"                                                            $%%!-%#$+                                                           ",
"                                                            $%-!-%$##                                                           ",
"                                                           $%%)!-%$##                                                           ",
"                                                           %%%!!%%$$##                                                          ",
"                                                          $$%,!)%%%$##                                                          ",
"                                                          %%$))%%%%$$#+                                                         ",
"                                                          %%,,%%%%%$$##                                                         ",
"                                                         $%%,%%$%%%%$$#+                                                        ",
"                                                         %%,%$$%%%%%$$##                                                        ",
"                                                        %%)%$$ $$%%%%$##                                                        ",
"                                                        $-)%$# $$%%-%$#$+                                                       ",
"                                                       $%!%$#  +$$%%%%$##                                                       ",
"                                                       %%)$$#   $$%%%%$##+                                                      ",
"                                                       %!%$#    #$$%-%%$$+                                                      ",
"                                                      %%!$##     $$%%%%$$#                                                      ",
"                                                      $)%$#      $$$%-%$##+                                                     ",
"                                                     %%!$##      #$$%%%%$$#                                                     ",
"                                                     %,-$#        $$$%$%$##+                                                    ",
"                                                    $%!%##        $$%%-%$$##                                                    ",
"                                                    %-)%#+         $$%%%%$$#                                                    ",
"                                                   %%!%$#          $$%%,%$#$+                                                   ",
"                                                   $%!$$#           %%%,%%$##                                                   ",
"                                                   $-!%$            %%-,%%$$#+                                                  ",
"                                                  %%))%$            %%-,$%%$##                                                  ",
"                                                  %%!%%$$%%%%%%%-!!,%%%%%%$$##                                                  ",
"                                                 %$,-$$$$$$%%,,),,%%%$%%%%%%$##                                                 ",
"                                                 %%)%$##$$$$%$$$$$$$$$$%%%%%$##                                                 ",
"                                                %%)%$#+++++++#########$$%%$%$$#+                                                ",
"                                                %-,$#+                #$$%%%$$##                                                ",
"                                               %%!%$#                  $$%%%%$$#                                                ",
"                                               $%)$#+                  #$%%-%$$#+                                               ",
"                                               %!%$#                    $$%%%$$$#                                               ",
"                                              $%!$##                    $$%%-%$$#+                                              ",
"                                              %)%$#                     #$$%$%$$$#                                              ",
"                                             %%!%##                      $$%%-%$#$+                                             ",
"                                             $-!%#+                      $$%%,%$$##                                             ",
"                                            $%!$$#                        $%%,%%$##                                             ",
"        .....                               %%!%$#                        %%$)%%$$$#                               .....        ",
"        .&...                              %%)!%$#                        %%%%%%%$$$+                              .....        ",
"        .'...                             %%%-%$$$                        $%%$%$%$$$$#                             ..'..        ",
"        .'...                           %%%%%$$$$$$#                    %%%%$$$$$$#$$$$                            ..'..        ",
"        .>...                          %%%%$$$$##$$$$$$               %%%%$$$#####$#$$$$$$                         ..>..        ",
"        .=...                          %$$$########$$$$               %$$$#############$$$                         ..;..        ",
"        .=...                                                                                                      ..;..        ",
"        .=...                                                                                                      ..;..        ",
"        .=...                                                                                                      ..;..        ",
"        .=...                                                                                                      ..;..        ",
"        .=...                                                                                                      ..;..        ",
"        .=...                                                                                                      ..;..        ",
"        .=...                                                                                                      ..;..        ",
"        .=...                                                                                                      ..;..        ",
"        .=...                                                                                                      ..;..        ",
"        .=...                                                                                                      ..;..        ",
"        .=...                                                                                                      ..;..        ",
"        .=...                                                                                                      ..;..        ",
"        .=...                        ..                                                  ..                        ..;..        ",
"        .=...                      .....                                                .....                      ..;..        ",
"        .=...                     ......                                                ......                     ..;..        ",
"        .=...                   ........                                                ..&.....                   ..;..        ",
"        .=...                ......@....                                                ..&'.......                ..;..        ",
"        .=...             .......=>=....                                                ..&'>.........             ..;..        ",
"        .=...            ......*'''.....                                                ..='>@.........            ..;..        ",
"        .=...       ........@;'''>=.....                                                ..>'>*.@............       ..;..        ",
"        .=...@............='''>>=&......................................................&>'';&.@@@...................;..        ",
"        .=...@>'''''''''''''>;*&............*;;;;;;;;;;;;;;;;;;;;;;;;;;;;;;;;;;;;;;>''''>>>>*........................=..        ",
"        .=......@.@.@.@.@.................................................................*=*........................;..        ",
"        .=.................................................................................&&........................=..        ",
"        .=...       ....................                                                ....................       ..=..        ",
"        .=...        ...................                                                ...................        ..=..        ",
"        .=...             ..............                                                ...............            ..=..        ",
"        .=...               ............                                                ............               ..=..        ",
"        .=...                   ........                                                ........                   ..;..        ",
"        .=...                    .......                                                .......                    ..=..        ",
"        .=...                      .....                                                .....                      ..;..        ",
"        .=...                        ...                                                 ..                        ..;..        ",
"        .=...                                                                                                      ..;..        ",
"        .=...                                                                                                      ..;..        ",
"        .=...                                                                                                      ..;..        ",
"        .=...                                                                                                      ..;..        ",
"        .=...                                                                                                      ..;..        ",
"        .=...                                                                                                      ..;..        ",
"        .=...                                                                                                      ..;..        ",
"        .=...                                                                                                      ..;..        ",
"        .=...                                                                                                      ..;..        ",
"        .=...                                                                                                      ..;..        ",
"        .=...                                                                                                      ..;..        ",
"        .=...                                                                                                      ..;..        ",
"        .=...                                                                                                      ..;..        ",
"        .@...                                                                                                      ..&..        ",
"        .....                                                                                                      .....        ",
"        .....                                                                                                      .....        ",
"        .....                                                                                                      .....        ",
"        .....                                                                                                      .....        ",
"                                                                                                                                ",
"                                                                                                                                ",
"                                                                                                                                ",
"                                                                                                                                ",
"                                                                                                                                ",
"                                                                                                                                ",
"                                                                                                                                ",
"                                                                                                                                ",
"                                                                                                                                ",
"                                                                                                                                ",
"                                                                                                                                ",
"                                                                                                                                ",
"                                                                                                                                "};
