/* XPM */
char * distance_xpm[] = {
"128 128 17 1",
" 	c None",
".	c #000100",
"+	c #520000",
"@	c #700100",
"#	c #7F0000",
"$	c #26261B",
"%	c #3C3E02",
"&	c #3F413E",
"*	c #973030",
"=	c #6F6E00",
"-	c #6D6F6C",
";	c #B66968",
">	c #929100",
",	c #9CA000",
"'	c #B8BA00",
")	c #C3C300",
"!	c #D7AFAF",
"                                                                                                                                ",
"                                                                                                                                ",
"                                                                                                                                ",
"                                                                                                                                ",
"                                                                                                                                ",
"                                                                                                                                ",
"                                                                                                                                ",
"                                                                                                                                ",
"                                                                                                                                ",
"                                                                                                                                ",
"                                                                                                                                ",
"                                                                                                                                ",
"                                                                                                                                ",
"                                                                                                                                ",
"                                                                                                                                ",
"                                                                                                                                ",
"                                                                                                                                ",
"                                                                                                                                ",
"                                                                                                                                ",
"                                                                                                                                ",
"                                                                                                                                ",
"                                                                                                                                ",
"                                                                                                                                ",
"                                                                                                                                ",
"                                                                                                                                ",
"                                                                                                                                ",
"                                                                                                                                ",
"                                                                                                                                ",
"                                                                                                                                ",
"                                                                                                                                ",
"                                                                                                                                ",
"                                                                                                                                ",
"                                                                                                                                ",
"                                                                                                                                ",
"                                                                                                                                ",
"                                                                                                                                ",
"                   @                                                                                        @                   ",
"               ##@@@@@@@                                                                                @##@@@@@@               ",
"             ########@@@@@                                                                            ########@@@@@             ",
"            #@#@#######@@@@                                                                          #@#@#######@@@@            ",
"           ##@#;;!;;*##@@@@+                                                                        ####;;!;;*@#@@@+@           ",
"           @##;!!;;***##@@@@                                                                        @#@;!!;;**###@@@@           ",
"          ###;!!;**####@#@@@+                                                                      ###;!!;**##*##@@@@+          ",
"          @@#!!;*#######@@@@@                                                                      @@#!!;*#########+@@          ",
"          ###!;*#########@@+@+........            ........            ........            ........+###!;*##########@@++         ",
"         @###;;###########@@++........            ........            ........            ........+#@#;;###########@@@+         ",
"         @@##;;##########@@@++..&-....            ..--....            ..--....            ..--....@@##;;##########@@@++         ",
"         @@##**##########@@+++........            ........            ........            ........+##@**#########@@@@++         ",
"          @@##*##########@@@++........            ........            ........            ........+@###*##########@@@++         ",
"          @@#@###########@@++..                                                                   +@@############@@@++          ",
"          @@@############@@++                                                                      @@@###########@@@++          ",
"           @@@#########@@@+++                                                                      +@@@@########@@@+++          ",
"           @@@@@@##@#@@@+@++                                                                        @@@@@####@@@@@+@+           ",
"            +@@@@@@@@@@@+++                                                                          +@@@@@@@@@@@+++            ",
"             @+@@@@@+@+@++                                                                            +@@@+@@@+@+++             ",
"               +++@+@++++                                                                               ++@+@+@+++              ",
"                 ++++++                                                                                   ++++++                ",
"                                                                                                                                ",
"                                                                                                                                ",
"                                                                                                                                ",
"                                                                                                                                ",
"                                                                                                                                ",
"                                                                                                                                ",
"                                                                                                                                ",
"                                                                                                                                ",
"                                                                                                                                ",
"                                                                                                                                ",
"                                                                                                                                ",
"                                                                                                                                ",
"                                                                                                                                ",
"                                                                                                                                ",
"                                                                                                                                ",
"                                                                                                                                ",
"                                                                                                                                ",
"                                                                                                                                ",
"                                                                                                                                ",
"                                                                                                                                ",
"                                                                                                                                ",
"                                                                                                                                ",
"                                                                                                                                ",
"                                                                                                                                ",
"                                                                                                                                ",
"                                                                                                                                ",
"                                                                                                                                ",
"                                                                                                                                ",
"                                                                                                                                ",
"          ............................................................................................................          ",
"          ............................................................................................................          ",
"          ..&&...$&&&&&&&&&&&&&&---&$......$$&&&&&&&&&&&&&---&$......$$&&&&&&&&&&&&&---&$......$$&&&&&&&&&&&&&---&....          ",
"          ..-&.....................---$......................---$......................-;-$......................&&...          ",
"          ..$.........................................................................................................          ",
"          ....=====================%....$====================%....$====================%....$=====================.....         ",
"          ....=,>>>>>,,,,,,,>,,>>>>%....%>>>>>>>,,,,,,>,,,>>>%....%>>>>>>,,,,>,,>,,,>,>%....%>>>>>,>>,,,,,,,,,,,,=.....         ",
"          ....=,,,>,,>>>>>>>,>>,,,,%.-..%>>>,,>,>>>>>>,>>>,,,%.-..%>>>,>,>>>>,>>,>>>,,,%.-..%>>>>,>,,>>>>>>>>>>>>=.....         ",
"          .$..=>>>>>,,,,,,,,,,,,,,,=.-..%>>>>>>,,,,,,,,,,,,,,=.-..%>>>>>>,,,,,,,,,,,,,,=.-..%>>>>>>,>,,,,,,,,,,,,=.....         ",
"          .&..=,>>,,,,,',',',',',',%.&..%>>>,,,',,',',',',','%.&..%>>>>,',,,',',,',,','%.&..%>>>,,,,',,',,',',','=.$...         ",
"          .&..=,,,,','''',''','',''=....%>>>,,,'''''','''''''=....%>>,,,,'''''''''''','=....%>>>,,''''''''','''''=.&...         ",
"          .&..=>,>,,'''''''''''''''=....%,>,,,'''''''''''''',=....%>>,,,'''''''''''''''=....%,>,,,','''''''''''''>.&...         ",
"          .&..=,>,'''''')''')'))'''=....%>>,,',''''')'''''')'=....%>>,,',''''''''''''''=....%>>,,'''''''')))''')'>.&...         ",
"          .&..=>,,>'''))')))'))')''=....%,>,,'''))))'))))))''=....%,,>,'')'))')))))))''=....%,>,,,''))))))))))))'>.&...         ",
"          .&..=,,,,''')))))))))))))'>=>=,>,>,''')))))))))))))'>=>=,>,,,'')'))))))))))))'>=>=,>,,,''')))))))))))))>.&...         ",
"          .&..=>,,,'')))))))))))))'))'',,,,,',')))))))))))))))'''',,>,,,''))))))))))))'))'',,,,,,'''))))))))))))'>.&...         ",
"          .&..=,>,',')))))))))))))))''',,,,,,'''))))))))))))))''',,,,,''')))))))))))))))''',,,,',''')))))))))))))>.&...         ",
"          .&..=,,,,''))))))))))))))')'''',','''))))))))))))))))'''',','''))))))))))))))))''''',,''')))))))))))))'>.&...         ",
"          .&..=,>,,'')))))))))))))))))'','',''')))))))))))))))))''','',)))))))))))))))))))'','','')))))))))))))))>.&...         ",
"          .&..=>>','''))))))))))))))))))''''')))))))))))))))))))''''''''))))))))))))))))')''''''''')))))))))))))'>.&...         ",
"          .&..=,>,,''))))))))))))))))'))''))')))))))))))))))))))))'''')'))))))))))))))))))))'''''))))))))))))))))>.&...         ",
"          .&..=,,,,''))))))))))))))))))')))')')))))))))))))))))))')'))))))))))))))))))))))')))))))))))))))))))))'>.&...         ",
"          .&..=>,,,''')))))))))))))))))))))))))))))))))))))))))))))))))))))))))))))))))))))))))))))))))))))))))))>.&...         ",
"          .&..=,,,,'')))))))))))))))))))))))))))))))))))))))))))))))))))))))))))))))))))))))))))))))))))))))))))'>.&...         ",
"          .-..=>,,,''))))))))))))))))))))))))))))))))))))))))))))))))))))))))))))))))))))))))))))))))))))))))))))>.-...         ",
"          .-..=>,,,'))))))))))))))))))))))))))))))))))))))))))))))))))))))))))))))))))))))))))))))))))))))))))))'>.-...         ",
"          .-..=,,,,''))))))))))))))))))))))))))))))))))))))))))))))))))))))))))))))))))))))))))))))))))))))))))))>.-...         ",
"          .&&.=>,,,'''))))))))))))))))))))))))))))))))))))))))))))))))))))))))))))))))))))))))))))))))))))))))))'>-&...         ",
"          ..-.%%%%%%%%%%%%%%%%%%%%%%%%%%%%%%%%%%%%%%%%%%%%%%%%%%%%%%%%%%%%%%%%%%%%%%%%%%%%%%%%%%%%%%%%%%%%%%%%%%%%-....         ",
"          ..$..................................................................................................&--&....         ",
"          ........$&&&&&&&&&&&&&&&&&&&&&&&&&&&&&&&&&&&&&&&&&&&&&&&&&&&&&&&&&&&&&&&&&&&&&&&&&&&&&&&&&&&&&&&&&&&-&.......         ",
"          .............................................................................................................         ",
"          .............................................................................................................         ",
"                                                                                                                                ",
"                                                                                                                                ",
"                                                                                                                                ",
"                                                                                                                                ",
"                                                                                                                                ",
"                                                                                                                                ",
"                                                                                                                                ",
"                                                                                                                                ",
"                                                                                                                                "};
