/* XPM */
char * dolphin_xpm[] = {
"128 128 17 1",
" 	c None",
".	c #000000",
"+	c #181917",
"@	c #282A27",
"#	c #3A3C39",
"$	c #4A4C49",
"%	c #5A5C59",
"&	c #6C6E6B",
"*	c #7A7C79",
"=	c #898B88",
"-	c #989A97",
";	c #A9ABA8",
">	c #BABCB9",
",	c #CCCECB",
"'	c #DADCD9",
")	c #E8EAE7",
"!	c #FAFCF9",
"                                                                                                                                ",
"                                                                                                                                ",
"                                                                                                                                ",
"                                                                                                                                ",
"                                                                                                                                ",
"                                                                                                                                ",
"                                                                                                                                ",
"                                                                                                                                ",
"                                                                                                                                ",
"                                                                                                                                ",
"                                                                                                                                ",
"                                                                                                                                ",
"                                                                                                                                ",
"                                                                                                                                ",
"                                                                                                                                ",
"                                                                                                                                ",
"                                                                                                                                ",
"                                                                                                                                ",
"                                                                                                                                ",
"                                                                                                                                ",
"                                                                                                                                ",
"                                                                                                                                ",
"                                                                                                                                ",
"                                                                                                                                ",
"                                                                                                                                ",
"                                                                                                                                ",
"                                                                  @+...                                                         ",
"                                                                #$$#....                                                        ",
"                                                           $$%&&**&@...                                                         ",
"                                                         $&&**&*&*$....                                                         ",
"                                                        &**$+....+....                                                          ",
"                                                      %**#....+$*%....                                                          ",
"                                                    %&=%...$*;,'>+...                                                           ",
"                                                   %**+...*''',,*....                                                           ",
"                                                  &*%...%;',,,,,#....                                                           ",
"                                                %**#..+;''',,,,-++..                                                            ",
"                                               &*&...@>',,,,,,'%$+..                                                            ",
"                                           $%&*&#...%,',,,,,,'>#%...                                                            ",
"                                        $%&**%@...+-',,,,,,'');@%..                                                             ",
"                                      %&*&$+....+#,'',,,,,''))*@&..                                                             ",
"                                   %&&*$+....+@#=,',,,,,''))!)#+%.                                                              ",
"                                $&&*&@....+&;>,,',,,,,,'))!)!)@.#..                                                             ",
"                              %&*&$.....$-,'',',,,,,,'')))!!!'+.......                                                          ",
"                           $&**%+....@&;,,,,,,,,,,,''')))!!!!'@.........                                                        ",
"                          %**$....+%->''',,,,,,'''''))!!!!!!!!-.......@+..                                                      ",
"                         **&...+%=>''',,,,,,''''')'!))!!!!!!!!)>=%#+....@+..                                                    ",
"                       %**+..+*;,',,,,,,,'',''')))!)!!!!!!!!!!!))'>;=#....@...                                                  ",
"                      &*%...%>''',,,,,,,,'')))!))!!!!!!!!!!!!!!))',,,,-$....+..                                                 ",
"                    %**#..+='',,,,,,,'''')))!)!!!!!!!!!!!!!!!!!!))',,,,,=$...+...                                               ",
"                   %*&...$>',,,,,,,''')))!)!!!!!!!!!!!!!!!!!!!!!!))'',,,,,-#......                                              ",
"                  &*%...*'',,,,,,'')))))!!!!!!!!!!!!!!!!!!!!!!!!!)))))''',,>&...+..                                             ",
"                 &*#..#;',,,,,,''))))!!!!!!!!!!!!!!!!!!!!!!!!!!!!!!!)))))',',-#..+..                                            ",
"                &=+..$>'',,,,'')))!!!!!!!!!!!!!!!!!!!!!!!!!!!!!!!!!!!!)))))',,;$......                                          ",
"              $&*...&'',,,,,''))!)!!!!!!!!!!!!!!!!!!!!!!!!!!!!!!!!!!!!!!)!)))'';%......                                         ",
"              **...='',,,,''')))!!!!!!!!!!!!!!!!!!!!!!!!!!!!!!!!!!!!!!!!!!!))))',*...+...                                       ",
"             &&..+-',,,,,'''!)!!!!!!!!!!!!!!!!!!!!!!!!!!!!!!!!!!!!!!!!!!!!!!!))'',=+......                                      ",
"           $**..+='',,,,,'))!!!!!!!!!!!!!!!!!!!!!!!!!!!!!!!!!!!!!!!!!!!!!!!!!!!))'';#......                                     ",
"          $&&...-',,,,,')))!!!!!!!!!!!!!!!!!!!!!!!!!!!!!!!!!!!!!!!!!!!!!!!!!!!!!))'',&+..+..                                    ",
"         $&*...-',,,,,'')!!!!!!!!!!!!!!!!!!!!!!!!!!!!!!!!!!!!!!!!!!!!!!!!!!!!!!!!!))',-@.....                                   ",
"        #&*...-',,,,,')!)!!!!!!!!!!!!!!!!!!!!!!!!!!!!!!!!!!!!!!!!!!!!!!!!!!!!!!!!!)))''>$.....                                  ",
"        %&..+;'',,,'')))!!!!!!!!!!!!!!!!!!!!!!!!!!!!!!!!!!!!!!!!!!!!!!!!!!!!!!!!!!!!))',,&.....                                 ",
"       @&#.+;',,,,,'))!!!!!!!!!!!!!!!!!!!!!!!!!!!!!!!!!!!!!!!!!!!!!!!!!!!!!!!!!!!!!!!)))'>&.....                                ",
"       #%.+-'',,,,')))!!!!!!!!!!!!!!!!!!!!!!!!!!!!!!!!!!!!!!!!!!!!!!!!!!!!!!!!!!!!!!!)!))',%.....                               ",
"      .#@.%',,,,''))!!!!!!!!!!!!!!!!!!!!!!!!!!!!!!!!!!!!!!!!!!!!!!!!!!!!!!!!!!!!!!!!!!!))))>$.....                              ",
"      .#..=',,,,')))!!!!!!!!!!!!!!!!!!!!!!!!!!!!!!!!),;--->'))!!!!!!!!!!!!!!!!!!!!!!!!!!)))'>#.....                             ",
"      .#..=,,,,'))!!!!!!!!!!!!!!!!!!!!!!!!!!!!!!)';=&%%%$###$$%=->)!!!!!!!!!!!!!!!!!!!!!!!))'>#.....                            ",
"      .#..-,,,'')!!!!!!!!!!!!!!!!!!!!!!!!!!!!!!>*%&&&%$####$$$$##++%=;>)!!!!!!!!!!!!!!!!!!!!))>@.....                           ",
"      .@.@>,,,)))!!!!!!!!!!!!!!!!!!!!!!!!!!!!!=%**%+...........+@#$##@@##&=,!!!!!!!!!!!!!!!!))',@.....                          ",
"      .@.$,,,'))!!!!!!!!!!!!!!!!!!!!!!!!!!!!!,@&*#...................@####+.%;)!!!!!!!!!!!!!!!)'>+.....                         ",
"      .@.$,,,'))!!!!!!!!!!!!!!!!!!!!!!!!!!!!!*+%$...          ...........+#@+.$-)!!!!!!!!!!!!!))'-+....                         ",
"      .@.#,,,')!!!!!!!!!!!!!!!!!!!!!)!!!!!!!!&.@..                 .........+@+.#*>)!!!!!!!!!!!!))=......                       ",
"      .@.@>,')))!!!!!!!!!!!!!!!!!);#+&!!!!!!!*....                       ......@@+.$-'!!!!!!!!!)))'=...+..                      ",
"      .+..=,,))!!!!!!!!!!!!!!!!)>&$#..&!!!!!!;....                          .....+@@++%*;)!!!!!!)!''=...+@@@##@..               ",
"      ..+.#>'')!!!!!!!!!!!!!!);=***&@..=)!!!!)#....                           ......+@@+.@*'!!!!!!)''=.......@##@...            ",
"       .+..;'')!!!!!!!!!!!!,-&**%@......=)!!!!=.....                            .......@#+.@*)!!!!!!)';@.........@@+..          ",
"       .@..=,)))!!!!!!!!!,-&*&#.........@>)!)!)%.....                              .......@+.+;)!!))))';$.+$&%#....#$+...       ",
"       @+..=,'))!!!!!!!'=&*&@.....  .....+-)!!!'#.+..                                 ......@..%>!!!)))',;;,,,,-%@..%%@...      ",
"       #...-,'))!!!!!);&=&@.....     ......%;)))>++...                                   .....+.@-))!!))'',,,,,,,;&#@&%....     ",
"      #$..$;,,))!!!);**&@....         ......+=)))-@@...                                    ....+..&))))))'',,,',,,,>-*%.....    ",
"     @%@..=,,'')));*=*#....            .....@+%,')*$@..                                      ...+..*!)!!))'''','''';=$+.....    ",
"     %&..&>,,')';***$.....               ....@#%-),&$...                                      ......&))!)!))')''',=%@.......    ",
"    #&&.@;,,,,;***$.....                  .....#%=,>&@...                                       .....&))!)!)!)!);&*%.......     ",
"   +$*#.-,,,;***%.....                      .....#%;;#....                                       .....=))!!!!)!>%&&......       ",
"   .$*@*',;*&*%.....                         .......$$....                                        ....$'))!!!!)%&&....          ",
"  ..@#%--&$&$.....                             .......+....                                       ....$')))!!!>#%...            ",
"  .....+........                                ...........                                        ...%,')!!!!*##..             ",
"  .............                                   .........                                       ....%,,)))!!$$...             ",
"   ..........                                       ......                                         ...#>''))!,+#..              ",
"    .......                                                                                        ...+-,')!!;@#..              ",
"                                                                                                   ..+.$,,)))*#+..              ",
"                                                                                                    ....*,))!&$..               ",
"                                                                                                    ....+;'))*%..               ",
"                                                                                                     ....#,))=%..               ",
"                                                                                                     ...++=''=$..               ",
"                                                                                                      ...#$>'=@..               ",
"                                                                                                       ...$*>*...               ",
"                                                                                                       ....#**...               ",
"                                                                                                        ....+#...               ",
"                                                                                                         .........              ",
"                                                                                                          ........              ",
"                                                                                                           .......              ",
"                                                                                                            ......              ",
"                                                                                                             ......             ",
"                                                                                                             .....              ",
"                                                                                                              ....              ",
"                                                                                                                                ",
"                                                                                                                                ",
"                                                                                                                                ",
"                                                                                                                                ",
"                                                                                                                                ",
"                                                                                                                                ",
"                                                                                                                                ",
"                                                                                                                                ",
"                                                                                                                                ",
"                                                                                                                                ",
"                                                                                                                                ",
"                                                                                                                                ",
"                                                                                                                                ",
"                                                                                                                                ",
"                                                                                                                                ",
"                                                                                                                                ",
"                                                                                                                                ",
"                                                                                                                                ",
"                                                                                                                                ",
"                                                                                                                                ",
"                                                                                                                                ",
"                                                                                                                                ",
"                                                                                                                                "};
