/* XPM */
char * donut_2_xpm[] = {
"128 128 17 1",
" 	c None",
".	c #291404",
"+	c #432503",
"@	c #643F0B",
"#	c #6C573E",
"$	c #6051B8",
"%	c #FD735F",
"&	c #E07FCF",
"*	c #A39B92",
"=	c #919FD5",
"-	c #FFB4C4",
";	c #84E2B5",
">	c #D2CFCD",
",	c #FDCE5C",
"'	c #DEF181",
")	c #E9F8C5",
"!	c #F9FBF8",
"                                                                                                                                ",
"                                                                                                                                ",
"                                                                                                                                ",
"                                                                                                                                ",
"                                                                                                                                ",
"                                                                                                                                ",
"                                                                                                                                ",
"                                                                                                                                ",
"                                                              .....                                                             ",
"                                                       +........++.+.....                                                       ",
"                                                   ....++++.++++++++++++.....                                                   ",
"                                                ...+.++++++++++++++++.+++++.+.+.                                                ",
"                                             ...++.+++++++++++@@@@@+@@++@+++++++...                                             ",
"                                           +.++++++++@++@@@@@@@@##****-@%#@++.+++++.+.                                          ",
"                                        ...+.++++@+@@@@@@@@@@#>>!!!!!!!>>**@@++++++++...                                        ",
"                                      .+.++++++@+@@+@@@@@##*>!>!>!!!!!!!!>!>*@+@++++++++..                                      ",
"                                     ..++++@++@@@@@@@@#**>>!!!!!!!!!!!!!!!>!>>#@@@+@@++++...                                    ",
"                                   +..+++++@@###*****>->!!!!!!--!!!!!!!!!!!!>!*%@@@++@@+++++.                                   ",
"                                  ..++++@+*>>!!!!!!!)!)!!!!!!!&!!!!!!!!!!!!!!>%%#@@@@+++++++...                                 ",
"                                ..++++@@#>>!!!!!!!!!!!!!!!!!!!!!!!!!!!!!!!!!!!>*>@@@@@@@@@++++++                                ",
"                               .+.++@+@>!!!!!!!!!!!!!!!!!!!!!!!!!!!!!!!!!!!!!!!!>*#@@@@@@@+++++..                               ",
"                              ..++++@#>!!!!!!!!!!!!!!!!!!)!)!!!!!!!!!!&!!!!!!!!!!>*#@@@@@@@@+++++..                             ",
"                             ..+++@@#!!!!!!!!!!!!!!!!!!!)''''!!!!!!!!&&!!!!!!!!>!>>*#@@@#@#@@@+++++.                            ",
"                            ..++++@@>!!!!!!!!!!!!!!!!!!!);;)!!!!!!!!-&-))!!!!!!!!!!!>>>>>>!>**@@+++.+                           ",
"                           .++++@@@>!!!!!!!!!!!;;!!!!!!!!!!!!!!!!!!!!!)',!!!!!!!!!!!!!!!!!!>!>>*#++...                          ",
"                          ..++++@@#!!!!;!!!!!!!;;!!!!!!!!!!!!!!!!!!!!!!),)!!!!&&!!!!!!!!!!!!!!!>>*@+++.                         ",
"                         .+.+++@@@>!!!!!!!!!!!!;)!!!!!!!!!!!!!!!!!!!!!!!!!!!!!!&&&!!!!!!!!!!!!!!>>*#+.+.                        ",
"                        .+++@+@@@#>!!!!!!!!!!!!>!!!!!!!!!!!!!!!!!!!!!!!!!!!!!!!!=&!!!!!!!!!!!!!!!!>*#++..                       ",
"                       .+++++@@@@*!!!!!!!!!&=-!!!!!!!!!!!!!!!!!!!!!!!!!!!!!!!!!!!!!!!!!!!!!!!!!!!>!>*+++..                      ",
"                      ..++++@@@@@>!!!!!!!!!&&$>!!!!!!!!!!!!!!!!!!!!!!!!!!!!!!!!!!!!!!!!!!!!!!!!%!!!!>*+++.                      ",
"                     .++++@@@@@@#>!!!!!!!!!!!!!!!!!!!!!!=$!!!!!!!!!!!!!!!!!!!!!!!!!!!!!!!!!!!!-%!!!>>=#++..                     ",
"                     .+++@@@@@@@*!!!!!!!!!!!!!!!!!!!!!!!!$>!!!!!!!!!!!!!!!!!!!!!!!!>!!!!!!!!!!%-!!!!!>*+++..                    ",
"                    .+++@@@@@@@*!!!!!!!!!!!!!!!!!!!!!!!!!!!>!>!>!>!>!>!!!!!!!!!!!!!,%!!!!!!!!!%!!!!!>>>#+++..                   ",
"                   ..++++@@@@#>!!!!!!!!!!!!!!!!!!!!!!!>>>>>>>>>>>>>>>>>>>!>!!!!!!!!>!!!!!!!!!!!!!!!!!>>*++.+.                   ",
"                   .+++@@@@-)!!!!!!!!!!!!!!!!!!!!!!>>>>>>>>>>>>>>>>>>>>>>>>!>!!!!!!!!!!!!=>!!!!!!!>$=>>*+++.+.                  ",
"                  ..+++@@*>!!!!!!!!!!!!!!!!!!!!!!!>>>>>>**$#**#**#=#*****>>>>>!!!!!!!!!!!=$!!!!!!!>=!>>>#+++.+                  ",
"                 .++++@@->!!!!!!!!!!!!!!!=!!!!!>>>>>>*##.................***>>>>!!!!!!!!!!$>!!!!!!!!!>>*#+++...                 ",
"                 ..+@@@>!!!!!!!!!!!!!!!!!$!!!!!!>==#=....                  .**>>>!!!!!!!!!>!!!!!!!!!!>>>#++++++.                ",
"                .+.++@>!!!!!!!!!!!!!!!!!>==!>>>>>>*....                      #*>>>!!!!!!!!!!!!!!!!!!!>>>#@+++.+.                ",
"                .++@@*>!!!!!!!!!!!!!!!!!!;;!!>>**#...                          **>>>!!!!!!!!!!!!!!!!!!>>#++++++..               ",
"                .+++#!!!=!!!!!!!!!!!!!!!!!=!>>**....                            #*>>!!!!!!!!!!!!!!!!!>>*#@+@+++.+               ",
"               +.++@>!!!==!!!!!!!!!!!!!!!!>>>=#...                                *>>>!!!!!!!!!!!!!!!!!*#@++@+++.               ",
"               .+++#!!!!==!!!!!!!!!!!!!!!>>=>#...                                  *>>!!!!!!!!!!!!!!!!>>##@@@++++.              ",
"              ..+@@*!!!!=>!!!!!!!!!!!!!!!>>**...                                    *>>!!!!!!!!!!!!!!!!>>*#@+@++..              ",
"              .+++@>!!!!!!!!!>===!!!!!!>>>*#...                                      *>>!!!!!!!!!!!!!!!-%->*#@++++.             ",
"              .++@#!!!!!!!!!!==$!!!!!!!>>=*...                                        *>>!!!!!!!!!!!!!!-->!>>#++++.             ",
"             .+++@*>!!!!!!!!!!>!!!!!!!>>>*...                                         #>>!!!!!!!!!!!!!!!!>!>>>#++..             ",
"             .+++@*!!!!!!!!!!!!!!!!!!!>>>#..                                           *>>!!!!!!!!!!!!!!!!!!!>>@++..            ",
"             +++@@*>!!!!!!!!!!!!!!!!!>>**..                                             *>!!!!!;!!!!!!!!!!!!>>>*++..            ",
"            ..+++@*>!!!!!!!!!!;;!!!!>>>*...                                              *>!!!=;!!!!!!!!!!!!!!>>#++.            ",
"            .++@+@#!!!!!!!!!!!!=;!!!>>*=..                                               *>!!!!!!!!!!!!!!!!!!>>>*+..            ",
"            .+++@@#>!!!!!!!!!!!!!!!!>>*..                                                 >>!!!!!->!!!!!!!!!!!!>>#+..           ",
"            .++@@@@!!!!!!!!!!!!!>!!>>>*..                                                 *!!!!!!%%!!!!!!!!!!!>>>*...           ",
"           ..+++@@@*>!!!!!!!!!!!==!>>=#.                                                  *>!!!!!!!!!!!!!;;!!!!>>*+..           ",
"           .+++@@@@*!!!!!!!!!!!!=$!>>*..                                                   >>!!!!!!!!!!!;=!!!!>>>*#..           ",
"           .+++@@@@#>!!!!!!!!!!!!=!>>=.                                                    >!!!!!!!!!!!!!!!!!!!>>>+...          ",
"           .+++@@@@*!!!!!!!!!!!!!!!>>#.                                                    *>!!!!!!!!!!!!!!!!!!>>>....          ",
"           ..@+@@@@*>!!!!!!!!!!!!!>>>*.                                                    *!!!!!!!!!!!!!!!!!!!>>>#...          ",
"           .+++@@@@>!!!!!!!!!!!!!!!>>*.                                                    *!!!!!!!!!!!!!!!!!!!>>*#...          ",
"           +++@@@@@>!!!!!!!!!!!!!!>>**.                                                    *!!!!!!!!!!!!!!-!!!!>>*+...          ",
"          .+++@@@@-!!!!!!!!!!!!!!!!>>*.                                                    *!!!!!!!!!!!!!!-%-!>>>*.+..          ",
"          .+++@@@@>!!!!!!!!!!!!!!!>>**.                                                    *>!!!!!!!!!!!!!>%-!>>**....          ",
"          ..++@@@)!!!!!!!!!!!!!!!!!>>*.                                                    >!!!!!!!!!!!!!!!->!>>*#+...          ",
"          .+++@@@>!!!!!!!!!!!!!!!!!>**.                                                    *>!!!!!!!!!!!!!!!!>>>*+.+..          ",
"           .++@@*!!!!!!!!!!!!!!!!!>>=*.                                                    >!!!!!!!!!!!!!!!!!>>>#.+...          ",
"           .++@@*!!!!-!!!!!!!!;;;!!>**.                                                    *>!!!!!!!!!!!!!!!!>>*#+.+..          ",
"           .+++@*!!!-&&!!!!!!!!)!!>!>*.                                                    >!!!!!!!!!!!!!!!!>>>*.+.+..          ",
"           .+++@>!!!!&&-!!!!!!!!!!!>**.                                                    *!!!!!!!!!!!!!!!!>>*##++...          ",
"           .+++@>!!!!!-!!!!!!!!>=!>>>*.                                                    *!!!!!!!!!!!!!!!!>>*#++....          ",
"           .++@@>!!!!!!!!!!!!!!&&=!=>*.                                                    >!!!!!!!!!!!!!!!!>>*#++++.           ",
"           ..++@>!!!!!!!!!!!!!=&&!!!>*.                                                    >>!!!!!!!!!!!);)>>>##+++..           ",
"            .++@>>!!)''!!!!!!!!!!!!>>>#                                                   *!!!!!!!!!!!!!));!>>*#.+...           ",
"            .++@*!!!;';!!!!!!!!!!!!!>>*                                                   *!!!!)!!!!!!!!!!!!>>#++++..           ",
"            .+++*>>!!!!!!!!!!!!!!!!!!>*.                                                  >!!!!''!!!!!!!!!!!>>*#++...           ",
"            ..++#>!!!!!!!!!!!!!!!!!!>>>*                                                 *!!!!!!)!!!!!!!),!!>>>..+..            ",
"             .+@+*!>!!!!!!!!!!!!!!!!!>>*#                                                >!!!!!!!!!!!!!!),!!>>*#+.+.            ",
"             +.+@#>>!!!!!!!!!!!!!!!!!!>>*                                               *!!!!!!!!!!!!!!!-,,!>>>#.+..            ",
"             .+++@>>>!!!!!!!!!!!!!!!!!>>>*                                             *!!!!!!)!!!!!!!!!!)'>!>*#....            ",
"              .+++@>>!>!!!!!!!!!!!!!!!!>>*.                                            >!!!!)')'!!!!!!!!!!!!>>>#...             ",
"              .+++@#>>>!!!!!!!!!!!!!!!)>!>*                                           *!!!!!''')!!!!!!!!!!!!>>>#...             ",
"              .++++@#>>!>!!!!!!!!!!!!)')!>>*                                         *!!!!!!!!!!!!!!!!!!!!!>>>*#...             ",
"               .+++@@#>>>!!!!!!!!!!!!!)!>=>>*                                       *!!!!!!!!!!!!!!!!!!!!!!>>>*...              ",
"               ..++@@@#*>!!!!!!!!!!!!!!-$-!>>*                                     *!!!!!!!!!!!!!!!!!!!!!!!>>*#...              ",
"               ..+++@@@@*>!!!!!!!!!!!!!!!=!>>>*                                   *!!!!!!!!!!!!!!!!!!!!!!!!>=>#..               ",
"                ++++@+@@#>>!!!!!!!!!!!!!!!!!>>>*#                                *!!!!!!!!!!!!!!!!)!!!!!!>>>>#...               ",
"                .++++@@@@*>!!!!!!!!!!!!!!!!!!!!>**                             *>!!!!!!!!!!!!!!!!!,!!!!!!>>>*...                ",
"                 .++++@@@@>!!!!!!!!!!!!!!!!!!!!>>>*                           >!!!!!!!!!!!!!!!!!!!,,!!!!>>>**...                ",
"                 ..++@@@@@>!!!!!!!!!!!!!!!!!!!!!!!>**                       *>>!!!!!!!!!!!!!!!!!!!!)!!!!>=**...                 ",
"                  .++++@@@>>!!!!!!!!!!!!!!!!!!!!!!!>>>**                 **>!!!!!!!!!!!!!!!!!!!!!!!!!>>>>**....                 ",
"                  ..+@+@@@*!!!!!!!!!!!!!!!!!!!!!!!!!>!>>*>***>****>****>>!!!!!!!!!!!!!!!!!!!!!!!!!!>>>>>**#...                  ",
"                   ..+++@@*>!!!!!!!!!!!!!!!!!!!!!!!!!!==!!!!!>!!!!!!!!!!!!!!!!!!!!!!!!!!!!!!!!!!!>>>>>***.....                  ",
"                    .+++@@#>!!!!!!!!!!!!!!!!!!-!!!!!!!==>!!!!!!!!!!!!!!!!!!>!!!!!!!!!!!!!!!!!!!>!>>>>**#.....                   ",
"                    .+++@@#>!!!!!!!!&-!!!!!!!!%%!!!!!!!!!!!!!!!!!!!!!!!!!!!-%%!!!!!!;;!!!!!!!!!>>>**#...+...                    ",
"                     ...+@@*>>!!!!!&&!!%-!!!!!,-!!!!!!!!!!!!!!!!!!!!!!!!!!!!)%%!!!!>;;;!!!!!!!!>>*##+#+.....                    ",
"                      +.+++#>!!!!!!&-!!)%%!!!!!!!!!!!!!!!!!!!!!!!!!!!!!!!!!!!!!!!!!!);!!!!!!!>>>*#++++++...                     ",
"                       .++@@*>>!!!!!!!!!%%%!!!!!!!!!!!!!!!!!!!!!!!!==!!!!!!!!!!!!!!!!!!!%!!!!!>>*++++.....                      ",
"                       ..++@#>>!!!!!!!!!!>>!!!!!!!!!!!!!!!!!!!!!!!!!==!!!!!!!!!!!!!!!!!-%-!!!>>*#.++.+...                       ",
"                        ..++@#>>!>!!!!!!!!!!!!!!!!!!!!!!!!!!!!!!!!!!!!!!!!!!!!!!!!!!!!)-%!!!!>>*#++..+.+                        ",
"                         ..+++*>>>!>!!!!!!!!!!!!!!!!!!!!!!!!!%-!!!!!!!!!!!!!!!!!!!!!!!!-%!!>>>=*+.+....                         ",
"                          ..+++*>>>>>!>!!!!!!!!!!!!!!!!!!!!!%%-!!!!!!!!!!!!!!!!!!!!!!!!!-!!!>>>#++.+..                          ",
"                           .++++#>>>>>>>>>!>!!!!!!!!!!!!!!!!>%%====!!!!!!!!!!!!!!!!!!!;!!!!>>**..+.+.                           ",
"                            ..++.+*>>>>>>>>>>>!!!!!!!!!!!!!!!!>=$=$>!!!!!!!!!!!!!!!!!>;!!!>>*>#.+...                            ",
"                             ..+.+++#***>*>>>>>!!!!!!!!!!!!!!!!!!=!!!!!!!!!!!!!!!!!!!!;!>>>>*#.....                             ",
"                               .+..+.+######**>>>!!!!!!!!!!!!!!!!!!!!!!!!!!!!!!!!!!!!!!>>>>**#....                              ",
"                                ..+++.++++++##*>>!!!!!!!!!!!!!!!!!!!!!!!!!!!!!!!!!!!>!>>>=**.....                               ",
"                                 ...++++++@++@+*>>>!!!!!!!!!!!!!!!!!!!!!>!!>!>>!>>>>>>>>*>.....                                 ",
"                                   ...++++++@++@#>>>!!!!!!%>!!!!!!!!>>>>>>>>>>>>>>>>>>**#.....                                  ",
"                                    .....+++++@++*>>>>!!>**!!!!!!!>!>>>>>>*>>>*>*>>**=##....                                    ",
"                                      +..+++++++@+**>>>!!>!!!>!>>!>>=>*****#########.+.....                                     ",
"                                        ...++++++@+#>>>>>>>>>>>>>>*>*#+++.#.#+...........                                       ",
"                                          ....+++++++#>>>>>>>>>>>***+++++++.+++........                                         ",
"                                            .+.+.++.+.+#***>*>***##++.++.+.++........                                           ",
"                                               ....+......####....+..+.+......+...                                              ",
"                                                  ..+.++.......+....++....+.....                                                ",
"                                                      ......................                                                    ",
"                                                          .............                                                         ",
"                                                                                                                                ",
"                                                                                                                                ",
"                                                                                                                                ",
"                                                                                                                                ",
"                                                                                                                                ",
"                                                                                                                                ",
"                                                                                                                                ",
"                                                                                                                                ",
"                                                                                                                                ",
"                                                                                                                                ",
"                                                                                                                                ",
"                                                                                                                                "};
