/* XPM */
char * donut_xpm[] = {
"128 128 17 1",
" 	c None",
".	c #0E0600",
"+	c #381600",
"@	c #291B00",
"#	c #352500",
"$	c #4B2301",
"%	c #3F2E04",
"&	c #5F3304",
"*	c #513D14",
"=	c #724103",
"-	c #5B4D28",
";	c #8D5305",
">	c #6F6240",
",	c #85795D",
"'	c #9A8F78",
")	c #B7AF9F",
"!	c #DDD9D2",
"                                                                                                                                ",
"                                                                                                                                ",
"                                                                                                                                ",
"                                                                                                                                ",
"                                                                                                                                ",
"                                                                                                                                ",
"                                                                                                                                ",
"                                                                                                                                ",
"                                                              +$$$$                                                             ",
"                                                       $$+$+++$$$$$$$++$+                                                       ",
"                                                   $$+$$&$$$=&$&&$&&$&$$$$$$$                                                   ",
"                                                ++$$$&$&=&$&&&=&====&&==&&$$$$$$                                                ",
"                                             $+$$&$&&&&=======;==;===;&&&=&&&&$&$$$                                             ",
"                                           $$$&&$&&==;==;;=;==;;;=&&&$*=&==&=&=$$$&$$$                                          ",
"                                        $+$$$&&&====;;;;;;;;;=&*%%%%%%#%%$&====&==&&$$$$                                        ",
"                                      $$$&&&=&=;=;;;;;;;;;==&%%%%%%#%%%%%%%#&;=;==&&=&&$$$                                      ",
"                                     $$$$&=====;;;;;;;;==&*#%%%%%%**%%%#%#%###&=;;====&&$$$$                                    ",
"                                   $+$$=&==;=========&**%%%%%-,,,,,,>>--%%#%%#*';;;;=;==&$&$$                                   ",
"                                  $$&&&===&&*%%%#%#%%%%%%%*>,')),>---***-%%%%%''=;;;;;=&==&&$$+                                 ",
"                                +$$$&&;=&$%%%%%%%%%##%%*>,,',,>--*%%%%%%%%%#%%>-%=;;;=;;;=&&&&$$                                ",
"                               $$$$====*%%%%%%%%%---->,,,',>--*%%%%%%%%%%%%%%#%%#%=;;;;;;;==&&&$$                               ",
"                              +$&===;=%%%%*>,,,,,>>,>,>>>>-,-%%#%%%%%%,%%%%%%%%%%%*=;;;;;;;;=;&=$+$                             ",
"                             $+&$==;;&%%%,'',>>>---*-*-*,'!',%%%%%%%%>!*%%%%%%#%#%#*&;;;;==;====&&$$                            ",
"                            +$&&==;;%#%-'''>--%*#%%%%###->,--%%%%%%%-!,>>%%%%%%%%#%%%%%$**&%&====&&$$                           ",
"                           $$&&&=;;&%%-)',--%%%>'%%%%%%%%%%%%%%%%%%%%%>')-%%%%%%%%%%%%%%%%%%###%=&=$$+                          ",
"                          +$$===;;=%%%')'-*%%%%,)*%%%%%%%%%%%%%%%%%%%%%-)-%%%%,'*%%%#%%%%#%%%%%#%%&=$$$                         ",
"                         $$&&&=;;;*%%>))-%%%%%*',%%%%%%%%%%%%%%%%%%%%%%%%%%%%%-)!'**-----**%%%%#%#%&&$$$                        ",
"                        $$&&&=;;;;%%%',>*%%%%%%-%%%%%%%%%%%%%%%%%%%%%%%%%%%%%%%%*)%-*->->->-*%#%%##%&&&$+                       ",
"                       +&&&=;;;;;=%%>'>-%%%,,-%%%%%%%%%%%%%%%%%%%%%%%%%%%%%%%%%%%%%%%%%**%****%%#%%#%&&&$+                      ",
"                      $$$&===;;;;*#%,'>%%%%,'!>%%%%%%%%%%%%%%%%%%%%%%%%%%%%%%%%%%%%%%%%%%%%%%%*'%%###$&$$+                      ",
"                     $$&=;=;;;;;;*%-',*%%%%%%%%%%%%%%%%*>!%%%%%%%%%%%%%%%%%%%%%%%%%%%%%%%%%%%%,)%%%###&&&$$                     ",
"                     $$&==;;;;;;=%%,'>*%%%%%%%%%%%%%%%%%%)*%%%%%%%%%%%%%%%%%%%%%%%*>%%%%%%%%%%!>%%#%%##&&&+$                    ",
"                    $$=&=;;;;;;;%%,',-%%%%%%%%%%%%%%%%%%%%%%%%%%%%%%%%%%%%%%%%%%%%*)'%%%%%%%%%'%%%%%%##$=&$$+                   ",
"                   +$$&=;;;;;;*%%>''>-%%%%%%%%%%%%%%%%%##%#%#########%##%%%%%%%%%%*>-%%%%%%%%%%%%%%%%##*&&$$+                   ",
"                   $$&=;;;;;*%%%>'''-*%%%%%%%%%%%%%%%######@###############%%%%%%%%%%%%%%,-*%%%%%%-!,##%&==$&+                  ",
"                  $+&==;;=$%%%%,'',>-*%%%%%%%%%%%%###@##@@@@@@@@@@@@@@@@@####%%%%%%%%%%%%,)%%%%%%%-,###@&&&&$$                  ",
"                 +$$==;=*%%%%>,'',>*%%%%*>%%%%%%%####@@@.................@@###%%%%%%%%%%%*!*%%%%%%%%####*&&=$$+                 ",
"                 $$===;*%%%-''',>-*%%%%%-)%%%%%##@@@@....                  .@###%%%%%%%%%%-*%%%%%%%%%%#@&==&$&$+                ",
"                $+$=;;&%%%,'',>--%%%%%%%*)'*%#####@....                      .@###%%%%%%%%%%%%%%%%%%####*=&=&&&$                ",
"                $&&==&%%*'''>-%%%%%%%%%*%')-###@@@...                          @##%%%%%%%%%%%%%%%%%%%%##&====&&$+               ",
"                $&&&&%%%)),>*%%%%%%%%%%%%%>##@#@....                            .@##%%%%%%%%%%%%%%%%%%##*===&&&$$               ",
"               $$&&=*%%>!)--%%%%%%%%%%%%%%####@...                                @%#%%%%%%%%%%%%%%%%%#%====;==&$               ",
"               +&===%%%'))*%%%%%%%%%%%%%%###@@...                                  @##%%%%%%%%%%%%%%%%%#%=====&&&+              ",
"              $$&==&%#>'',%%%%*%*%%%%%%%%#@@@...                                    ##%%%%%%%%%%%%%%#%%%>**====&$$              ",
"              +&===%%%,'-%%%%-,'>%%%%%%%##@@...                                      @#%%%%%%%%%%%%%%%%-)>%*=;&&$&+             ",
"              $$&;&%%%,,*%%%%>')%%%%%%###@@...                                        ##%%%%%%%%%%%%%%%>>-%#%&==&$+             ",
"             $&&&;=%#%,>%%%%%->%%%%%%%##@@...                                         @#%%%%*%%%%%%%%%%%*#%%##&==$+             ",
"             $&&==&%%%,-%%%%%%%%%%%%%%###@..                                           +#%%%%%%%%%%%%%%%%%%%%##&&&$+            ",
"             $&&;;*%%%>-*%%%%%%%%%%%%%#@@..                                             #%%%%*-)%%%%%%%%%%%%%###&&$+            ",
"            $&$==;=%%#>-%%%%%*'',%%%###@...                                              #%%%*>)%%%%%%%%%%%%%###&&$$            ",
"            +&===;=#%%*-%%%%%%'')%%%##@@..                                               ##%%%**%%%%%%%%%%%%%%##%&+$            ",
"            +&&=;;;%%%*-%%%%%%%%%%%%##@..                                                 %%%%**%>>%%%%%%%%%%#%##$$$+           ",
"            +&&==;;%#%%-*%%%%%*%-%%###@..                                                 #%%%**%,)-%%%%%%%%%%%#@%$#+           ",
"           +$&&;;;;&%%%-*%%%%%%%,>%##@@.                                                  +#%%*-*-**%%%%%')%%%%##%$$+           ",
"           +$&==;;;=%%%>*%%%%%%%,)%##@..                                                   %%%*-%%%%%%%%!)-%%%%###$$+           ",
"           $&&=;;;;=%%%>*%%%%%%%%>%##@.                                                    %%%%-*%%%%%%%*%%%#%%##@%$+.          ",
"           +&&=;;;;;%%*>-%%%%%%%%#%##@.                                                    #%%%>*%%%%%%%%%%%%%%####$$+          ",
"           $$&==;;;*%%>,**%%%%%%%%%##@.                                                    #%%%>*%%%%%%%%%%%%%%###*$+@          ",
"           $&&=;;;;=%%,,*%%%%%%%%%##@@.                                                    #%%%>-%%%%%%%%%%%%%%###$*$+          ",
"           $&=;;;;;*%*'>*%%%%%%%%%%%#@.                                                    %%%*>*%%%%%%%%%>*%#%#@#$++@          ",
"          $&&==;;;=%%>'>-%%%%%%%%%##@@.                                                    #%%%>*%%%%%%%%%,)>%%###&$$+          ",
"          +$&=;;;;%%%',-%%%%%%%%%%%##@.                                                    #%%*>*%%%%%%%%%*),*##@%$$+@          ",
"          +$&=;;;=%%>',*%%%%%%%%%%%##@.                                                    #%%*>-%%%%%%%%%%--####%*$++          ",
"          +&$=;;;*%%,'>*%%%%%%%%%%%#@@.                                                    #%%*>*%%%%%%%%%%%%%#@#$&$++          ",
"           +$=;;=#%*,,*%%%%%%%*-%%###@.                                                    %%%%>*%%%%%%%%%%#%%##*$&+$.          ",
"           $$&;;*%%-',-%%%%%%%,),%%#@@.                                                    #%%*>*%%%%%%%%%%%%#@#*&*$$+          ",
"           $$==;*%%>'),*%%%%%%%--#%##@.                                                    #%%*>-%%%%%%%%%%%###$&&%$$@          ",
"           +$&&=&#%>,''-%%%%%%%%%%%%@@.                                                    #%%->*%%%%%%%%%%%##%*&=&$++          ",
"           $&=&;%%#->->*%%%%%%%*>-###@.                                                    %%%>>*%%%%%%%%%%%##%&&&&$#+          ",
"           +$&;=#%%->*%%%%%%%%-')>%###.                                                    %%%>>*%%%%%%%%%%%##%*=*$$+           ",
"           +$&&=%%%%>%%%%%%%%%,),%%##@.                                                    %%%,,*%%%%%%%>!-%##$&=$&++           ",
"            +&==%%%%,'!*%%%%%%%*%%%%##@                                                   #%%-'-*%%%%%%%%,>%##%&*&&$+           ",
"            $&=&*%%%')**%%%%%%%%%%%%%#@                                                   %%%>,'*%%%%%%%%%%%##%=&&&#+           ",
"            $&&==#%%%*%%%%%%%%%%%%%%###.                                                  %%%',)'%%%%%%%%%%%###&&$$++           ",
"            $$&==%%%%%%%%%%%%%%%%%%%%##@                                                 #%%>'>>>%%%%%%%,,*%###*%$$+            ",
"             +&&&&%%%%%%%%%%%%%%%%%%%###.                                                %%%''-*%%%%%%%%'!*%%#@&&$$+            ",
"             $$==*%%%%%%%%%%%%%%%%%#%%%#@                                               %%%,',**%%%%%%%%-)'%%##%&%$+            ",
"             $$&=;%#%%%%%%%%%%%%%%%%%%%##@                                             $%%*''>-*%%%%%%%%%,'%###%$$+.            ",
"              $&===%#%%%%%%%%%%%%%%%%#%###.                                            #%%'''!,!%%%%%%%%%%%%%#@$#+$             ",
"              $&&===#%%%%%%%%%%%%%%%%%-*%#@                                           $%%>''),>>%%%%%%%%%%%%###$+$+             ",
"              $&&====#%%%%%%%%%%%%%%%-!>%%#@                                         #%%>''>-%*%%%%%%%%%%%%%###$$+.             ",
"               $$===;=$%%%%%%%%%%%%%%*>**>%#@                                       $%%*'',*%%%%%%%%%%%%%%###@#%+@              ",
"               +$&==;;=%#%%%%*%%%%%%%%%-)>%##@                                     ##%%'',-**%%%%%%%%%%%%%%##@#++.              ",
"               +$&&;=;;=%%%%%**%%%%%%#%->-#%##+                                   #%%%'''>*%%%%%%%%%%%%%%%%##@$++               ",
"                $$&=;;;;=%%%%**%%%%%%%%%%%%%%###@                                #%%%'',>*%%%%%%%*>*%%%%%###@%++@               ",
"                +$&===;;==%%%**%%%%%%%%%%%%%%%%##+                             #%%%*'''>**%%%%%%**)*%%%%%%#@##$@                ",
"                 $&$==;;;=%%%*-%%%%%%%%%%%%%%#%%%##                           $%%%>'',>-%%%%%%%%%*),%%%%####+$+.                ",
"                 $$&&;;;;;%%%%-*%%%%%%%%%%%%%%%%#####                       #%#%%>'',>*%%%%%%%%%%%--%%%%##@##++                 ",
"                  $$&;=;;;%%%%-*%%%%%%%%%%%%%#%%%%%%###+                 ##%%%%-''',--%%%%%%%%%%%%%%%###@##$+#+                 ",
"                  $$&&=;;;*%%%-*%%%%%%%%%%%%%%%%%%%#%%*-####%$#########%%#%%%%,'''>-*%%%%%%%%%%%%%%%%###@#$+++                  ",
"                   +$$&=;;=%%%**%%%%%%%%%%%%%%%%%%%%%#,'*%%#%%%%%%%%%%%%%%%%>''',--%%%%%%%%%%%%%%%####@@%$%+@.                  ",
"                    $&&&;==%%%%*%%%%%*%%%%%%%*'%%%*%%%,,%%%%#%%%%%%%%%%%%-,''',--*%%*%%%%%%%%%%%%##@#@%&$$$$+                   ",
"                    +&$&;==%%%%%*%%*!*%%%%%%%%!,%%***-*-%%*%%*%*%*%***>>,,')!)>*%%%-',**%%%%%%%%####*=*&*+++                    ",
"                     $$&&=;*#%%%%%%>!**)>%%%%%''%%%%%%---->>>>>>>>>>,>,>>>---'!*%%%-!!>%%%%%%%%##%*&=*&$$+@.                    ",
"                      $$&&==%%%%%%*,>%%>!)*%%%%%%%%%%%%%****-*-*-*--*-****%%%%*%%%%->)*%%%%%%%###%==&&&&%++                     ",
"                       $&&=;%#%%%%%*%%%*'!)%%%%%%%%%%%%%%%%%#%%%%%%>)>*%%%%%%%%%%%%%*%%*'*%%%%##%=&&&&+$++                      ",
"                       ++&&==%%#%$%%%%%%%--%%%%%%%%%%%%%%%#%%%%%%%%*))*%%%%%%%%%%%%%%%%-!,%%%###%=&*$%$+$                       ",
"                        +$&&=&##%%%%%%%%%%%%%%%%%%%%%%%%%%%%%%%%%%%%*-%%%%%%%%%%%%%%%%*>)%%%%###&&&$$$+$                        ",
"                         $$&&=*###%%%%%%%%%%%%%%%%%%%%%%%%%%*'-%%%%%%%%%%%%%%%%%%%%%%%%>)*%%%@#%*&%%$++                         ",
"                          $$$==*###%%%%%%%%%%%%%%%%%%%%%%%%%,!)%%%%%%%%%%%%%%%%%%%%%%%***%%###@&&&&$$$                          ",
"                           +&&&=$#######%%%%%%%%%%%%%%%%%%%%-!)*%')-%%%%%%%%%%%%%%%%%%!*%%%##@#%&$$#+                           ",
"                            +$&&&&%#########%%%%%%%%%%%%%%%%*%%%>)!*%%%%%%%%%%%%%%%%%*)*%####@&%&+++                            ",
"                             $$$$&&&%$%########%%%%%%%%%%%%%%%%%%,%%%%%%%%%%%%%%%%%%%*>%%###@#$#$+$                             ",
"                               +$$&&*&&&*&&&%%#%%%%%%%%%%%%%%%%%%%%%%%&%%%%%%%%%%%%%%%%%##@@#$$$++                              ",
"                                ++&$&&&=&====&%%%%%%%%%%%%%%%%%%%%%%%%%%%%%%%%%%%%%%%###@#@##++@.                               ",
"                                 +$$%&&&&&====&&#%%%%%%%%%%%%%%%%%%%%%%%%%%%%%%%%%########%+$++                                 ",
"                                   $$$&&&&=*;===&###%%%%%*!*%%%%%%%%%#%##########%###@@##$+#+.                                  ",
"                                    @+$%%&&&&====&%#%%%%%,'%%%%%%%%##############@#@####$+++                                    ",
"                                      $$$&&&&=&===&####%%%%%%%%%#######%%%%%%&%%$%$%$+$++@.                                     ",
"                                        +$$&&&&&===&%####%%#%#####@#%%&&&&&=&&&&&&$##$++@                                       ",
"                                          +$$$&=&&&&&$#########@#@#%=&&*&&&%&&$%$#$++@+                                         ",
"                                            @$$$$&$&&&&$%###@#@#%%&&&&&&&%&$&$$$++++.                                           ",
"                                               ++$$$%$$%$$%$$%$*$%%$%%&$%$+&+#$$++                                              ",
"                                                  +++$$$+$++$$$$$$$$&$$+$+#$+++.                                                ",
"                                                      +++$++#$+++++$+$+++++.                                                    ",
"                                                          .@++@@+@@++@.                                                         ",
"                                                                                                                                ",
"                                                                                                                                ",
"                                                                                                                                ",
"                                                                                                                                ",
"                                                                                                                                ",
"                                                                                                                                ",
"                                                                                                                                ",
"                                                                                                                                ",
"                                                                                                                                ",
"                                                                                                                                ",
"                                                                                                                                ",
"                                                                                                                                "};
