/* XPM */
char * ellipsecenter_xpm[] = {
"128 128 17 1",
" 	c None",
".	c #000200",
"+	c #580104",
"@	c #1A1816",
"#	c #710302",
"$	c #7F0000",
"%	c #282926",
"&	c #494A48",
"*	c #9B4745",
"=	c #855553",
"-	c #676865",
";	c #8C8684",
">	c #BF8181",
",	c #B3B0AE",
"'	c #D0CECC",
")	c #E7E8E5",
"!	c #FBFDFA",
"                                                                                                                                ",
"                                                                                                                                ",
"                                                                                                                                ",
"                                                                                                                                ",
"                                                                                                                                ",
"                                                                                                                                ",
"                                                                                                                                ",
"                                                                                                                                ",
"                                                                                                                                ",
"                                                                                                                                ",
"                                                                                                                                ",
"                                                                                                                                ",
"                                                                                                                                ",
"                                                                                                                                ",
"                                                                                                                                ",
"                                                                                                                                ",
"                                                                                                                                ",
"                                                               #                                                                ",
"                                                           $$##$####                                                            ",
"                                                         $#$$$$$$#####                                                          ",
"                                                        $##$$$$$$$####+                                                         ",
"                                                       $#$$*>>>**$$$###+                                                        ",
"                                                       $$$>''>***$#$####                                                        ",
"                                                      #$$*'>**$$$$$$$##++                                                       ",
"                                                     +#$$>'**$$$$$$#$$##+@                                                      ",
"                                                 ....@#$$>>*$$$$$$$$$####@.....                                                 ",
"                                              ......@+$$$>>$$$$$$$$$$$##++........                                              ",
"                                           .....%--&.+#$$**$$$$$$$$$#$#+++.@%@.......                                           ",
"                                         ....&--.....+#$$**$$$$$$$$$$$#++@......@......                                         ",
"                                       ...%--.......@+#$$$*$$$$$$$$$$###++@.@......@.....                                       ",
"                                     ...&;%....@@%&-;;##$$$$$$$$$$$$$##++---&&@@.@...%.....                                     ",
"                                   ...--.....%&-;,,'',*##$$$$$$$$$$####++;;;,;;;-&%..........                                   ",
"                                 ...--.@..@%&;',',',',>+$#$$$$$$$$$##+++-;,;,,,,,,;&%..........                                 ",
"                                ..%;....%&;;,'''''',',,*#####$$$$####+#=;;,,,,'''',,;&%@........                                ",
"                              ...--...%&;''''',','''''',*+#########+#++;,,,,,'''''''',;-&@.......                               ",
"                             ..%;...@&;'''',','''''''))',*+#+##+#+#++=;,,,,'''')))')''),,-%........                             ",
"                            ..--...%-''',''''''''))))!)))'>*++#++#+==,,,,,''')))!!))))''',;&%.......                            ",
"                           ..;%..@&;'''',','''')')!)!)!!!)',,======;,,,,,'''))!)!)!!!))))'',;&@......                           ",
"                          ..;..@%-''',',''''))))!)!)!!)!)!)''',,,,',,','''')!)!!!!!)!!)))))'',-%......                          ",
"                         ..;..@&;''',''''')')))!)!!!!!!!!!!))''',','','''')))!!!!!!!!!!!)!)))',-%......                         ",
"                        ..;..%;'''''',''))))!!)!!!!!!!!!!!!)))'''''''''')))!!!!!!!!!!!!!!!)!))''-@......                        ",
"                       ..-@.@-'''','''''))!!)!!!!!!!!!!!!!!!)!!)))')''))))!)!!!!!!!!!!!!!)!!)!)''-%......                       ",
"                       .&-..&,''''''')))!)!!!!!!!!!!!!!!!!!!!)!)))))))))!)!!!!!!!!!!!!!!!!!!!!!))'-%.....                       ",
"                      .@;..%,''',''''))!)!!!!!!!!!!!!!!!!!!!!!!!!)!)!!!!!!!!!!!!!!!!!!!!!!!!!!!!))'-%.....                      ",
"                     ..;..%-'''''''))!)!!!!!!!!!!!!!!!!!!!!!!!!)!)!)!)!!!!!!!!!!!!!!!!!!!!!!!!!!)!)'-@.....                     ",
"                     .&%.@-''','''))!)!!!!!!!!!!!!!!!!!!!!!!!!!!!!!!!!!!!!!!!!!!!!!!!!!!!!!!!!!!!!))'&.....                     ",
"                    ..;..&,''','')))!!!!!!!!!!!!!!!!!!!!!!!!!!!!!!!!!!!!!!!!!!!!!!!!!!!!!!!!!!!!!!!)),@.....                    ",
"                   ..-..%;'',''''))!!!!!!!!!!!!!!!!!!!!!!!!!!!!!!!!!!!!!!!!!!!!!!!!!!!!!!!!!!!!!!!!!))-@.....                   ",
"                   ..-..&''''''))!!!!!!!!!!!!!!!!!!!!!!!!!!!!!!!!!!!!!!!!!!!!!!!!!!!!!!!!!!!!!!!!!!!!)'&.....                   ",
"                  ..-..%;'','''))))!!!!!!!!!!!!!!!!!!!!!!!!!!!!!!!!!!!!!!!!!!!!!!!!!!!!!!!!!!!!!!!!!!!!;%....                   ",
"                  ..-.@&''',''))!!!!!!!!!!!!!!!!!!!!!!!!!!!)'>>>>>')!!!!!!!!!!!!!!!!!!!!!!!!!!!!!!!!!!!'&@@++++                 ",
"                  .&..%;','''))))!!!!!!!!!!!!!!!!!!!!!!!!!>*$######>>)!!!!!!!!!!!!!!!!!!!!!!!!!!!!!!!!!'=+#++#####              ",
"                 ..-.@&,''''''!!!!!!!!!!!!!!!!!!!!!!!!!!'>$*$$$$$####>'!!!!!!!!!!!!!!!!!!!!!!!!!!!!!!!'>$#$$$$$#####            ",
"                 ..&.@;',','))!)!!!!!!!!!!!!!!!!!!!!!!!'>$$$$$$$$$$###*'!)!!!!!!!!!!!!!!!!!!!!!!!!!!!)*#$$$$$$$$#####           ",
"                 .%..%;'''''))!!!!!!!!!!!!!!!!!!!!!!!!)>$$$*>>>>*$#$##+>'!)!!!!!!!!!!!!!!!!!!!!!!!!!)>$$$*>>>**$$##+#+          ",
"                 .-.@&,','')))!!!!!!!!!!!!!!!!!!!!!!!!>$#$>''>**$*$$###+>'!)!!!!!!!!!!!!!!!!!!!!!!!!>$#$>''>***#$$$###          ",
"                ..-..;'','')!)!!!!!!!!!!!!!!!!!!!!!!!)*$$*'>>*$$$$$$$###='))!)!!!!!!!!!!!!!!!!!!!!!)*$$*'>>*$$$$$$##+#+         ",
"                ..-.@;,''''))!!!!!!!!!!!!!!!!!!!!!!!!'#$$>'*$$$$$$$$$$##+>'))!!!!!!!!!!!!!!!!!!!!!!'#$$>'*$$$$$$$#$#$+#         ",
"                ..&.@;''''))!)!!!!!!!!!!!!!!!!!!!!!!!>$$$>>*$$$$$$$$$###+;')))!!!!!!!!!!!!!!!!!!!!!>$$$>>*$$$$$$$$$##+#+        ",
"                ..%.@;',''))!!!!!!!!!!!!!!!!!!!!!!!!!>#$$>>$$$$$$$$#$$###=,''))!!!!!!!!!!!!!!!!!!!!>#$$>>$$$$$$$$$$$$#++        ",
"                ..%.@;','')!)!!!!!!!!!!!!!!!!!!!!!!!!>#$$>*$$$$$$$$$$$##+=''))!)!!!!!!!!!!!!!!!!!!!>#$$>*$$$$$$$$$$##+++        ",
"                ..@.@;''''))!!!!!!!!!!!!!!!!!!!!!!!!)>#$$**$$$$$$$$$$###+=,'')!!!!!!!!!!!!!!!!!!!!)>#$$**$$$$$$$$$$$##++        ",
"                ..@.@;''''!)!!!!!!!!!!!!!!!!!!!!!!!!!>#$$$$$$$$$$$$$$##+#=',''))!!!!!!!!!!!!!!!!!!!>#$$$$$$$$$$$$$$###++        ",
"                ..@.@;,''')!!!!!!!!!!!!!!!!!!!!!!!!!!'##$$$$$$$$$$$$$##++;,''))!!!!!!!!!!!!!!!!!!!!'##$$$$$$$$$$$#$#+++         ",
"                ..%.@;''')))!!!!!!!!!!!!!!!!!!!!!!!!!'*##$$$$$$$$$#$###+*,,,''))!!!!!!!!!!!!!!!!!!!'*##$$$$$$$$$$$###++         ",
"                ..%..;'''')!!!!!!!!!!!!!!!!!!!!!!!!!!!>###$$$$$$$#$$#+++=,,''')!!!!!!!!!!!!!!!!!!!!!>####$$$$$$#$$##+++         ",
"                ..%..-,'')))!!!!!!!!!!!!!!!!!!!!!!!!!!)>####$$$#$####++=,,,'')))!!!!!!!!!!!!!!!!!!!!)*###$#$$$$###++++          ",
"                ..@..&,''')!!!!!!!!!!!!!!!!!!!!!!!!!!!!,=###########++*;,,,''))!!!!!!!!!!!!!!!!!!!!!!'=###########+++           ",
"                 ....%;'')))!!!!!!!!!!!!!!!!!!!!!!!!!!!!'*+#+###+++++=;,,','')))!!!!!!!!!!!!!!!!!!!!!!'=#+#####+#+++            ",
"                 ..%.@-,'')!!!!!!!!!!!!!!!!!!!!!!!!!!!!)!'>*#++#+#+*=,,,',''))!!!!!!!!!!!!!!!!!!!!!!!!)';++++#+++++             ",
"                 ..@..&,''))!!!!!!!!!!!!!!!!!!!!!!!!!!!!!)',>;====;;,,,,,'''))!!!!!!!!!!!!!!!!!!!!!!!!!)'=@+@+++..              ",
"                 .....%;''))!!!!!!!!!!!!!!!!!!!!!!!!!!!!)!!)'',,,,,,,','''))))!!!!!!!!!!!!!!!!!!!!!!!!)!;@&....                 ",
"                  ....@;'''))!!!!!!!!!!!!!!!!!!!!!!!!!!!!!))')'''',','''''')!!!!!!!!!!!!!!!!!!!!!!!!!!!'-.-...                  ",
"                  .....&,'))!!!!!!!!!!!!!!!!!!!!!!!!!!!!!!!!))'''''''''')))!)!!!!!!!!!!!!!!!!!!!!!!!!!!,%&%...                  ",
"                   ....@;''))!!!!!!!!!!!!!!!!!!!!!!!!!!!!!!!)!)))'''')')))!!!!!!!!!!!!!!!!!!!!!!!!!!!!)&.;...                   ",
"                   ....@%,''))!!!!!!!!!!!!!!!!!!!!!!!!!!!!!!!!!))!))!)))!!!!!!!!!!!!!!!!!!!!!!!!!!!!!!,%&%...                   ",
"                    ....@-'')!)!!!!!!!!!!!!!!!!!!!!!!!!!!!!!!!)!)!))!!!)!)!!!!!!!!!!!!!!!!!!!!!!!!!!!'&@;...                    ",
"                    .....%;'')!!!!!!!!!!!!!!!!!!!!!!!!!!!!!!!!!!!!!!)!!!!!!!!!!!!!!!!!!!!!!!!!!!!!!!);@&....                    ",
"                     .....&,))!)!!!!!!!!!!!!!!!!!!!!!!!!!!!!!!!!!!!!!!!!!!!!!!!!!!!!!!!!!!!!!!!!!!!!,%%-...                     ",
"                     .....@-,')!!!!!!!!!!!!!!!!!!!!!!!!!!!!!!!!!!!!!!!!!!!!!!!!!!!!!!!!!!!!!!!!!!!!)&.;...                      ",
"                      .....%-'')!!!!!!!!!!!!!!!!!!!!!!!!!!!!!!!!!!!!!!!!!!!!!!!!!!!!!!!!!!!!!!!!!!);@-....                      ",
"                       .....@-'))!!!!!!!!!!!!!!!!!!!!!!!!!!!!!!!!!!!!!!!!!!!!!!!!!!!!!!!!!!!!!!!!);%;%...                       ",
"                        .....%-')!)!!!!!!!!!!!!!!!!!!!!!!!!!!!!!!!!!!!!!!!!!!!!!!!!!!!!!!!!!!!!!);@&&...                        ",
"                        ......@-')!!!!!!!!!!!!!!!!!!!!!!!!!!!!!!!!!!!!!!!!!!!!!!!!!!!!!!!!!!!!!';%--...                         ",
"                         ......%-,))!!!!!!!!!!!!!!!!!!!!!!!!!!!!!!!!!!!!!!!!!!!!!!!!!!!!!!!!!),&@-&...                          ",
"                          ......@&,')!!!!!!!!!!!!!!!!!!!!!!!!!!!!!!!!!!!!!!!!!!!!!!!!!!!!!!!';%.;%...                           ",
"                           .......@&,))!!!!!!!!!!!!!!!!!!!!!!!!!!!!!!!!!!!!!!!!!!!!!!!!!!!),&@%;....                            ",
"                             ...@...%-')!!!!!!!!!!!!!!!!!!!!!!!!!!!!!!!!!!!!!!!!!!!!!!!!!';%@--....                             ",
"                              ....@..@&,'!!!!!!!!!!!!!!!!!!!!!!!!!!!!!!!!!!!!!!!!!!!!!!),&@%;@....                              ",
"                               ........@-;))!!!!!!!!!!!!!!!!!!!!!!!!!!!!!!!!!!!!!!!!),;&%@--.....                               ",
"                                .........%&;,)!!!!!!!!!!!!!!!!!!!!!!!!!!!!!!!!!!!!),-%%.&;.....                                 ",
"                                  ........@@%&;,)!!!!!!!!!!!!!!!!!!!!!!!!!!!!!!),;&%..--......                                  ",
"                                    ......@...@%-;,)!!!!!!!!!!!!!!!!!!!!!!!!),;-%@.%--......                                    ",
"                                     .......%....@%&;,,')!!!!!!!!!!!!!)',,,;-%@@@-;%......                                      ",
"                                       ..............@@%&;,,,,,,,,,,,;&%@@@..%--&.......                                        ",
"                                         ..........@@...@.@@@@@@@@@@@@..@&&-&@........                                          ",
"                                            ............@@%%%&%%%%&&&--&............                                            ",
"                                               .................................                                                ",
"                                                   ..........................                                                   ",
"                                                         ..............                                                         ",
"                                                                                                                                ",
"                                                                                                                                ",
"                                                                                                                                ",
"                                                                                                                                ",
"                                                                                                                                ",
"                                                                                                                                ",
"                                                                                                                                ",
"                                                                                                                                ",
"                                                                                                                                ",
"                                                                                                                                ",
"                                                                                                                                ",
"                                                                                                                                ",
"                                                                                                                                ",
"                                                                                                                                ",
"                                                                                                                                ",
"                                                                                                                                ",
"                                                                                                                                ",
"                                                                                                                                ",
"                                                                                                                                ",
"                                                                                                                                ",
"                                                                                                                                ",
"                                                                                                                                ",
"                                                                                                                                ",
"                                                                                                                                ",
"                                                                                                                                ",
"                                                                                                                                ",
"                                                                                                                                ",
"                                                                                                                                "};
