/* XPM */
char * ellipsearc_xpm[] = {
"128 128 17 1",
" 	c None",
".	c #000000",
"+	c #560002",
"@	c #181715",
"#	c #710302",
"$	c #7F0000",
"%	c #30312E",
"&	c #4D4C4A",
"*	c #9D4846",
"=	c #726D6A",
"-	c #858380",
";	c #C08282",
">	c #B1AAA8",
",	c #C5C6C3",
"'	c #D6D8D4",
")	c #E7E9E6",
"!	c #FDFFFC",
"                                                                                                                                ",
"                                                                                                                                ",
"                                                                                                                                ",
"                                                                                                                                ",
"                                                                                                                                ",
"                                                                                                                                ",
"                                                                                                                                ",
"                                                                                                                                ",
"                                                                                                                                ",
"                                                                                                                                ",
"                                                                                                                                ",
"                                                                                                                                ",
"                                                                                                                                ",
"                                                                                                                                ",
"                                                                                                                                ",
"                                                                                                                                ",
"                                                                                                                                ",
"                                                                                                                                ",
"                                                                                                                                ",
"                                                                                                                                ",
"                                                                                                                                ",
"                                                                                                                                ",
"                                                                                                                                ",
"                                                          ............                                                          ",
"                                                    ........................                                                    ",
"                                                .......%%&%%%%@@@@@%%&&%........                                                ",
"                                             .....@&=&...................%%%........                                            ",
"                                          .....&=&@......@@%%%%%%%%%%@@.......%@......                                          ",
"                                        ...@==%......@@%%->>>>>>>>>>>>=%%@@......%@......                                       ",
"                                      ...%=&.....@@%%=>>,,,,',,,',,,,,,>>>=%%@@.....@......                                     ",
"                                    ...&=@....@%%->>,,,,,,,,,,,,,',,,',,,,,>>>=%%@..........                                    ",
"                                  ...%-@...@%%->>,,,,,,,,,,,,,'''''''''',',,,,,,-=%%@...@.....                                  ",
"                                 ..@-%...@%=>,,,,,,,,,,,,''''''')))'))))'')',,,,,,>-=%@...@.....                                ",
"                               ...&=...@&-,,,,,,,,,,,,,''',))))))))))))))))))')'''',,>=%@........                               ",
"                              ..@-@...%=>,,,,,,,,,,''')))))))!!)!)!)!)!!)!))))))''''',,>=%........                              ",
"                             ..&-...@%>,,,,,,,,,'''')))))!)!!)!!!!!!!!!!)!!!!!))))))''',,-%@.......                             ",
"                            ..=&...%=,,,,,,,,,'')))))))!)!!!!!!!!!!!!!!!!!!)!!!!!)!)))))''>=%@.......                           ",
"                           ..-@..@%>,,,,,,,,''))))))!!!!!!!!!!!!!!!!!!!!!!!!!!!!!!)!!)))))''>=%..@....                          ",
"                          ..-...%-,,,>,,,,,)))))!)!!!!!!!!!!!!!!!!!!!!!!!!!!!!!!!!!!!!!)!))),'-%.......                         ",
"                         ..-...%-,,,,,,,,'')))!)!!!!!!!!!!!!!!!!!!!!!!!!!!!!!!!!!!!!!!!!)!)))''-%.......                        ",
"                        ..-...%>',,,,,,'))))!)!!!!!!!!!!!!!!!!!!!!!!!!!!!!!!!!!!!!!!!!!!)!!))))'-%......                        ",
"                       ..=@..%>,,,,,,','))))!!!!!!!!!!!!!!!!!!!!!!!!!!!!!!!!!!!!!!!!!!!!!!!!!)))'>%......                       ",
"                      ..&&..%-',,,,,,))))!)!!!!!!!!!!!!!!!!!!!!!!!!!!!!!!!!!!!!!!!!!!!!!!!!!!!!))'>%......                      ",
"                      .@-..%>',,,,,'')))!!!!!!!!!!!!!!!!!!!!!!!!!!!!!!!!!!!!!!!!!!!!!!!!!!!!!!!!)))-%......                     ",
"                     ..-..@=,,,,,,')))!)!!!!!!!!!!!!!!!!!!!!!!!!!!!!!!!!!!!!!!!!!!!!!!!!!!!!!!!!!)))>%.....                     ",
"                    ..&%..%,,,,,,''))!)!!!!!!!!!!!!!!!!!!!!!!!!!!!!!!!!!!!!!!!!!!!!!!!!!!!!!!!!!!!!))=@.....                    ",
"                    ..-..%>,,,,,'')))!!!!!!!!!!!!!!!!!!!!!!!!!!!!!!!!!!!!!!!!!!!!!!!!!!!!!!!!!!!!!)!),%......                   ",
"                   ..=..@=,,,,,,'))!!!!!!!!!!!!!!!!!!!!!!!!!!!!!!!!!!!!!!!!!!!!!!!!!!!!!!!!!!!!!!!!)!)>%.....                   ",
"                   ..=..%,,,,,,))))!!!!!!!!!!!!!!!!!!!!!!!!!!!!!!!!!!!!!!!!!!!!!!!!!!!!!!!!!!!!!!!!!!))-@.....                  ",
"                  ..&..@-,,,,,,))!!!!!!!!!!!!!!!!!!!!!!!!!!!!!!!!!!!!!!!!!!!!!!!!!!!!!!!!!!!!!!!!!!!!!),%.....                  ",
"                 #+@&@.%>,,,,,))))!!!!!!!!!!!!!!!!!!!!!!!!!!!!!!!!!!!!!!!!!!!!!!!!!!!!!!!!!!!!!!!!!!!!!)-@....                  ",
"             $$###$$+++=,,,>,)))!!!!!!!!!!!!!!!!!!!!!!!!!!!!!!!!!!!!!!!!!!!!!!!!!!!!!!!!!!!!!!!!!!!!!!!),%.@...                 ",
"           #$$$$$##$#++;->,'''))!!!!!!!!!!!!!!!!!!!!!!!!!!!!!!!!!!!!!!!!!!!!!!!!!!!!!!!!!!!!!!!!!!!!!!!!)&.....                 ",
"          $$#$$$$$$$#$##*>>,,))!!!!!!!!!!!!!!!!!!!!!!!!!!!!!!!!!!!!!!!!!!!!!!!!!!!!!!!!!!!!!!!!!!!!!!!!!)-@....                 ",
"         $$$#*;;;**$$$##+*>,)))!!!!!!!!!!!!!!!!!!!!!!!!!!!!!!!!!!!!!!!!!!!!!!!!!!!!!!!!!!!!!!!!!!!!!!!!!!,%.....                ",
"         #$$;,,;***##$###+;,,))!!!!!!!!!!!!!!!!!!!!!!!!!!!!!!!!!!!!!!!!!!!!!!!!!!!!!!!!!!!!!!!!!!!!!!!!!!)&.....                ",
"        $#$*,;**$$$$$$$##+*>')))!!!!!!!!!!!!!!!!!!!!!!!!!!!!!!!!!!!!!!!!!!!!!!!!!!!!!!!!!!!!!!!!!!!!!!!!!)-@....                ",
"        #$$;)**$$$$$$$#$##+;,))!!!!!!!!!!!!!!!!!!!!!!!!!!!!!!!!!!!!!!!!!!!!!!!!!!!!!!!!!!!!!!!!!!!!!!!!!!!,@....                ",
"        $$$;;$$$$$$$$$$###+;>)'))!!!!!!!!!!!!!!!!!!!!!!!!!!!!!!!!!!!!!!!!!!!!!!!!!!!!!!!!!!!!!!!!!!!!!!!!!'%....                ",
"       ##$$;**$$$$$$$$$$##+*>,))!!)!!!!!!!!!!!!!!!!!!!!!!!!!!!!!!!!!!!!!!!!!!!!!!!!!!!!!!!!!!!!!!!!!!!!!!!)&....                ",
"       ##$$;*$$$$$$$$$$$##+;>,)))!!!!!!!!!!!!!!!!!!!!!!!!!!!!!!!!!!!!!!!!!!!!!!!!!!!!!!!!!!!!!!!!!!!!!!!!!!-@@..                ",
"       ##$$**$$$$$$$$$$##++*>,,)))!!!!!!!!!!!!!!!!!!!!!!!!!!!!!!!!!!!!!!!!!!!!!!!!!!!!!!!!!!!!!!!!!!!!!!!!!>@%..                ",
"        ##$$$$$$$$$$$$$###+=>,,))!)!!!!!!!!!!!!!!!!!!!!!!!!!!!!!!!!!!!!!!!!!!!!!!!!!!!!!!!!!!!!!!!!!!!!!!!!,@&..                ",
"        ##$$$$$$$$$$$$$##++;>,,'))!!!!!!!!!!!!!!!!!!!!!!!!!!!!!!!!!!!!!!!!!!!!!!!!!!!!!!!!!!!!!!!!!!!!!!!!!-@&..                ",
"        ###$$$$$$$$$$$##++*>>,)')!!!!!!!!!!!!!!!!!!!!!!!!!!!!!!!!!!!!!!!!!!!!!!!!!!!!!!!!!!!!!!!!!!!!!!!!!)&.&..                ",
"         ###$$$$$$$$#####+=>>,,'))!!!!!!!!!!!!!!!!!!!!!!!!!!!!!!!!!!!!!!!!!!!!!!!!!!!!!!!!!!!!!!!!!!!!!!!!'%%%..                ",
"         ######$$$$###+++*>>,,,'))!!!!!!!!!!!!!!!!!!!!!!!!!!!!!!!!!!!!!!!!!!!!!!!!!!!!!!!!!!!!!!!!!!!!!!!!,@&...                ",
"          +###########++*->>,,'))!!!!!!!!!!!!!!!!!!!!!!!!!!!!!!!!!!!!!!!!!!!!!!!!!!!!!!!!!!!!!!!!!!!!!!!!!-@=...                ",
"           +##+##+#++++*->>,,,')))!!!!!!!!!!!!!!!!!!!!!!!!!!!!!!!!!!!!!!!!!!!!!!!!!!!!!!!!!!!!!!!!!!!!!!!)&.=...                ",
"             ++#+#+#+*=>>,,>,,))!!!!!!!!!!!!!!!!!!!!!!!!!!!!!!!!!!!!!!!!!!!!!!!!!!!!!!!!!!!!!!!!!!!!!!!!!,%%%..                 ",
"               +++++=>>>>>,,'))))!!!!!!!!!!!!!!!!!!!!!!!!!!!!!!!!!!!!!!!!!!!!!!!!!!!!!!!!!!!!!!!!!!!!!!!!-@=...                 ",
"                    ->>,,,,',))!!!!!!!!!!!!!!!!!!!!!!!!!!!!!!!!!!!!!!!!!!!!!!!!!!!!!!!!!!!!!!!!!!!!!!!!!'&.=...                 ",
"                     ,,,,,,))))!!!!!!!!!!!!!!!!!!!!!!!!!!!!!!!!!!!!!!!!!!!!!!!!!!!!!!!!!!!!!!!!!!!!!!!!!-@&....                 ",
"                     >,,,'))))!)!!!!!!!!!!!!!!!!!!!!!!!!!!!!!!!!!!!!!!!!!!!!!!!!!!!!!!!!!!!!!!!!!!!!!!!'&.-...                  ",
"                      )')))))!!!!!!!!!!!!!!!!!!!!!!!!!!!!!!!!!!!!!!!!!!!!!!!!!!!!!!!!!!!!!!!!!!!!!!!!!!-@&%...                  ",
"                      ))))))!!!!!!!!!!!!!!!!!!!!!!!!!!!!!!!!!!!!!!!!!!!!!!!!!!!!!!!!!!!!!!!!!!!!!!!!!!'&.=...                   ",
"                       )!!!!!!!!!!!!!!!!!!!!!!!!!!!!!!!!!!!!!!!!!!!!!!!!!!!!!!!!!!!!!!!!!!!!!!!!!!!!!!-@&@...                   ",
"                       !!)!!!!!!!!!!!!!!!!!!!!!!!!!!!!!!!!!!!!!!!!!!!!!!!!!!!!!!!!!!!!!!!!!!!!!!!!!!!>%.-...                    ",
"                        !!!!!!!!!!!!!!!!!!!!!!!!!!!!!!!!!!!!!!!!!!!!!!!!!!!!!!!!!!!!!!!!!!!!!!!!!!!!)&.=....                    ",
"                         !!!!!!!!!!!!!!!!!!!!!!!!!!!!!!!!!!!!!!!!!!!!!!!!!!!!!!!!!!!!!!!!!!!!!!!!!!!-@&%...                     ",
"                         !!!!!!!!!!!!!!!!!!!!!!!!!!!!!!!!!!!!!!!!!!!!!!!!!!!!!!!!!!!!!!!!!!!!!!!!!!>%%=...                      ",
"                          !!!!!!!!!!!!!!!!!!!!!!!!!!!!!!!!!!!!!!!!!!!!!!!!!!!!!!!!!!!!!!!!!!!!!!!!>%.-....                      ",
"                           !!!!!!!!!!!!!!!!!!!!!!!!!!!!!!!!!!!!!!!!!!!!!!!!!!!!!!!!!!!!!!!!!!!!!!>%@-....                       ",
"                            !!!!!!!!!!!!!!!!!!!!!!!!!!!!!!!!!!!!!!!!!!!!!!!!!!!!!!!!!!!!!!!!!!!!,%.-....                        ",
"                             !!!!!!!!!!!!!!!!!!!!!!!!!!!!!!!!!!!!!!!!!!!!!!!!!!!!!!!!!!!!!!!!!)-%.-....                         ",
"                              !!!!!!!!!!!!!!!!!!!!!!!!!!!!!!!!!!!!!!!!!!!!!!!!!!!!!!!!!!!!!!!>%@%-....                          ",
"                               !!!!!!!!!!!!!!!!!!!!!!!!!!!!!!!)!!)!!!!!!!!!!!!!!!!!!!!!!!!!)-%.&=....                           ",
"                                !!!!!!!!!!!!!!!!!!!!!!!!!!!)';;;;;,)!!!!!!!!!!!!!!!!!!!!!!>&@.-%....                            ",
"                                  !!!!!!!!!!!!!!!!!!!!!!!);*#$#$#$#*>)!!!!!!!!!!!!!!!!!!'-%.&=.....                             ",
"                                   !!!!!!!!!!!!!!!!!!!!!);*$#$$$##$##;')!!!!!!!!!!!!!!'-&@.-&.....                              ",
"                                     !!!!!!!!!!!!!!!!!!'*$$$$$$$$$$###*')!!!!!!!!!!),-&@.&-.....                                ",
"                                       !!!!!!!!!!!!!!!);#$$*;;;**#$$###;')!)!!!!!'-&%@.&-......                                 ",
"                                         !!!!!!!!!!!!);#$$;),;;**$$#$#++;))!)!),-&@..&=......                                   ",
"                                           !!!!!!!!!!!*$$*';**$$$$$$$##+*,',,-&%@.%==.......                                    ",
"                                              !!!!!!!,$$$;'**$$$$$$$$#$#+=%%@@.%=-%.......                                      ",
"                                                 !!!!;$$$;;*$$$$$$$$$$#+++..&==@........                                        ",
"                                                     ;$#$;*$$$$$$$$$$$##+%&%.........                                           ",
"                                                     ##$$;*$$$$$$$$$$###++.........                                             ",
"                                                     ##$$**$$$$$$$$$$$##++.....                                                 ",
"                                                      #$$$$$$$$$$$$$###++@..                                                    ",
"                                                      ##$$$$$$$$$$$$$##+++                                                      ",
"                                                      ###$$$$$$$$$$$###++.                                                      ",
"                                                       ###$$$$$$$#$##++++                                                       ",
"                                                       ######$$$$$####++                                                        ",
"                                                        +##########++++.                                                        ",
"                                                         ++#+##+#+#+++                                                          ",
"                                                           +#+#+#++++                                                           ",
"                                                             ++++++                                                             ",
"                                                                                                                                ",
"                                                                                                                                ",
"                                                                                                                                ",
"                                                                                                                                ",
"                                                                                                                                ",
"                                                                                                                                ",
"                                                                                                                                ",
"                                                                                                                                ",
"                                                                                                                                ",
"                                                                                                                                ",
"                                                                                                                                ",
"                                                                                                                                ",
"                                                                                                                                ",
"                                                                                                                                ",
"                                                                                                                                ",
"                                                                                                                                ",
"                                                                                                                                ",
"                                                                                                                                ",
"                                                                                                                                ",
"                                                                                                                                "};
