/* XPM */
char * erase_xpm[] = {
"128 128 17 1",
" 	c None",
".	c #000000",
"+	c #4F080F",
"@	c #7F0100",
"#	c #2C2B21",
"$	c #5D411D",
"%	c #535552",
"&	c #575B03",
"*	c #7D5523",
"=	c #9D6D2F",
"-	c #858784",
";	c #BD7978",
">	c #959D00",
",	c #D8B7B6",
"'	c #C2CE00",
")	c #DEE56F",
"!	c #ECEFAC",
"                                                                                                                                ",
"                                                                                                                  .             ",
"                                                                                                                ...             ",
"                                                                                                               ....             ",
"                                                                                                              .....             ",
"                                                                                                            .......             ",
"                                                                                                           ........             ",
"                                                                                                         ....#%....             ",
"                                                                                                        ....%-%....             ",
"                                                                                                       ....%--.....             ",
"                                                                                                     ....#---%.....             ",
"                                                                                                    ....%--%%......             ",
"                                                                                                   ....---%#.......             ",
"                                                                                                 ....%---%#........             ",
"                                                                                                ...%---%.#.........             ",
"                                                                                               ..%-%...............             ",
"                                                                                             ..#-%.................             ",
"                                                                                            ..%-...................             ",
"                                                                                          ...-#...#==#.............             ",
"                                                                                         ..%-....$====#............             ",
"                                                                                        ..%-....*======$..........              ",
"                                                                                      ...-#...#======***$.........              ",
"                                                                                     ..%-....$=====*=*=**$........              ",
"                                                                                    ..-%....=========*=***$.......              ",
"                                                                                  ...-....$=======**=*=*=**$......              ",
"                                                                                 ..%-....$=========*=*******#.....              ",
"                                                                               ...-%....=========*=*=*******#.....              ",
"                                                                              ..#-....$========*=********$**......              ",
"                                                                             ..%-....*========*=*=********$*.....               ",
"                                                                            ..-%...#=============*=***$***$*.....               ",
"                                                                          ..#-....&>========**=*=*=****$**$$.#...               ",
"                                                                         ..%-....!'>=======*==**********$$$$.#...               ",
"                                                                        ..%-...#!)''======@=**=******$**$*$$.%...               ",
"                                                                       ..%%...&!)'''=========*********$$**$#.%...               ",
"                                                                       .%-..#>!!)''''=====*********$***$+*$#.%...               ",
"                                                                      ..-..#'!!)''''>=**=**********$*$*$*$$#.%...               ",
"                                                                     ..-...''!!''''''==**=**=='>$*$**$$$$$$..%...               ",
"                                                                     .#%..&'!!)'''''>>=***=,))'>*****+*$*$$..#..                ",
"                                                                    ..-..#''!!'''''''>>=>>!!''''*$$$**$$$$$.....                ",
"                                                                    .-...&'!!)'''''>>>>'>)!)''''=**$$*+*$$$.#...                ",
"                                                                   ..-..#')!)''''''>>>>''!!)''''>$$$$*$$$$$.%...                ",
"                                                                   .-...>'!!)''''''>>>''!!)''''>>$$*$$$$$$#.%...                ",
"                                                                  ..-..&')!)'''''>>>>'''!!''''''>*$$$$$$$$#.%...                ",
"                                                                 ..-...>'!!)''''''>>>''!!)'''''>>$$$$$$$$*$.%...                ",
"                                                                 .#%..&'!!)''''''>>>>')!))'''''>>=*$$$$$>'&.%...                ",
"                                                                ..-...''!))'''''>>>>''!!)''''''>>>>>& )'''#.%...                ",
"                                                                .%#..&'!!)''''''>>>'')!)''''''>>>>''!!)'''..#..                 ",
"                                                               ..-..#')!))'''''>>>>''!!)''''>'>>>''!!)''''.....                 ",
"                                                               .%...>'!!)'''''>>>>'')!)''''''>>>>''!!''''>.#...                 ",
"                                                              ..-..#')!)'''''''>>'''!!)''''''>>>''!!)''''>.%...                 ",
"                                                              .-...>'!!)'''''>>>>''!!)'''''>>>>'')!))''''>.%...                 ",
"                                                             ..%..&')!)''''''>>>'''!!)''''''>>>''!!)'''''&.%...                 ",
"                                                            ..-...>'!!)'''''>>>>''!!)''''''>>>'')!)'''''>&.%...                 ",
"                                                            .#%..&')!)''''''>>>>')!!''''''>>>>''!!)''''''#.#...                 ",
"                                                           ..-...''!!)'''''>>>>''!!)'''''>>>>'')!)''''''>&.#..                  ",
"                                                           .%#..&'!!)''''''>>>'')!)''''''>>>>''!!)''''>'>#%...                  ",
"                                                          ..-..#''!!''''''>>>>''!!)''''''>>>''!!)''''''>>.-...                  ",
"                                                          .%...>'!!)''''''>>>'')!)''''''>>>'''!!)'''''>>..%...                  ",
"                                                         ..-..#')!))'''''>>>>''!!)'''''>>>>''!!)''''''>&.-...                   ",
"                                                        ..-...>'!!)''''')>>>'')!)''''''>>>'')!!''''''>>#.-...                   ",
"                                                        ..-..&')!)''''''>>>'''!!)'''''>>>>''!!)''''''>&.-...                    ",
"                                                       ..-...>'!!)''''''>>>''!!)''''''>>>'')!)''''''>>..-...                    ",
"                                                       .#%..&')!)'''''>>>>>')!)''''''>>>>''!!)'''''>>&.-...                     ",
"                                                      ..-...''!!)''''''>>>''!!)''''''>>>'')!)''''''>>.#%...                     ",
"                                                      ..%..&'!!)'''''>>>>'')!))'''')>>>>''!!)''''''>$.-...                      ",
"                                                     ..%#.#''!))''''''>>>''!!)''''''>>>'')!)'''''>>>.#%...                      ",
"                                                     ..-..>'!!)'''''>>>>'')!)''''''>>>>')!!)''''''>#.-...                       ",
"                                                      .-.#')!!'''''''>>>''!!)''''>'>>>''!!)'''''>>&.%#...                       ",
"                                                    ..%-..&!!)'''''>>>>'')!)''''''>>>'''!))''''''>#.-...                        ",
"                                                   ...-%....%''''''>>>'''!!)''''''>>>''!!)''''''>&.%....                        ",
"                                                   ..%.......#&''''>>>''!!)''''''>>>>')!)''''''>>#.-...                         ",
"                                                  ..-.........#.>>>>>>''!))'''''>>>'''!!)''''''>&.-...                          ",
"                                                 ..%%..%.........#&>>''!!)'''''>>>>>')!)''''''>>..%...                          ",
"                                                 ..-..%--%.........#>')!)''''''>>>'''!!)'''''>>&.-...                           ",
"                                                 .%-..-,,--#.........&!!)''''''>>>'')!)''''''>>.#%...                           ",
"                                                 .%%.--,,----#.........&''''''>>>>''!!)'''''>>#.-...                            ",
"                                                ..-#.#----,----#........#&'''>>>>''!!)''''''>>.%#...                            ",
"                                               ..%-....%---------........#.>'>>>'''!))'''''>>#.-...                             ",
"                                              ..%%.......%--------%.........#>>>''!!)''''''>&.%....                             ",
"                                             ..%%..........%--------%.........#>')!))'''''>>#.-...                              ",
"                                             .#-............#%--,-----%.........&!!)''''''>&.-...                               ",
"                                            ..-...@@+..........---------#.........&''''''>>..-...                               ",
"                                            .%...+@@@@..........#---,----%#........#>'''>>&.-...                                ",
"                                           ..-...@;;@@@++.........#--------%.........#>'>>.%%...                                ",
"                                           .-...@;,;@@@@@+..........%---,----%.........#>#%-...                                 ",
"                                          ..%...@,,;@@@@@@@+..........%--------%....#%...#%....                                 ",
"                                         ..-...@;,;;@@@@@@@@@+.........#%--,-----#....--%#....                                  ",
"                                         .%...+;,;;@@@@@@@@@@@@+.........#--------%#...%......                                  ",
"                                        ..%...@;,;@@@@@@@@@@@@@@@+.........#---,----%#.......                                   ",
"                                        .%...@;,;;@@@@@@@@@@@@@@@@++.........#-------%#.....                                    ",
"                                       ..%..+@,,;@@@@@@@@@@@@@@@@@@@+..........%------.....                                     ",
"                                       .#..+@;,;@@@@@@@@@@@@@@@@@@@@@@+.........#%---#%....                                     ",
"                                       .%..+@,,;@@@@@@@@@@@@@@@@@@@@@@@@+.........#%-%-....                                     ",
"                                       .#..@;,;@@@@@@@@@@@@@@@@@@@@@@@@@@@+.....#...#-....                                      ",
"                                      .#..+@,;;@@@@@@@@@@@@@@@@@@@@@@@@@@@@++....--%%.....                                      ",
"                                      .%..@;,;@@@@@@@@@@@@@@@@@@@@@@@@@@@@@@@@....%%.....                                       ",
"                                      .-..@;;;@@@@@@@@@@@@@@@@@@@@@@@@@@@@@@@@@+........                                        ",
"                                      .%.+@,;@@@@@@@@@@@@@@@@@@@@@@@@@@@@@@@@@@@@+.....                                         ",
"                                      ##.++,;@@@@@@@@@@@@@@@@@@@@@@@@@@@@@@@@@@@++.....                                         ",
"                                     .%..+@;;@@@@@@@@@@@@@@@@@@@@@@@@@@@@@@@@@@@@......                                         ",
"                                     .%..+@;@@@@@@@@@@@@@@@@@@@@@@@@@@@@@@@@@@@@+.%...                                          ",
"                                     .#..+@;;@@@@@@@@@@@@@@@@@@@@@@@@@@@@@@@@@@+..%...                                          ",
"                                     ....+@@@@@@@@@@@@@@@@@@@@@@@@@@@@@@@@@@@+@..-...                                           ",
"                                     ..#..@@@@@@@@@@@@@@@@@@@@@@@@@@@@@@@@@@@@@.#%...                                           ",
"                                     ..#..@@@@@@@@@@@@@@@@@@@@@@@@@@@@@@@@@@@+..-...                                            ",
"       .....                          ....+@@@@@@@@@@@@@@@@@@@@@@@@@@@@@@@@@@+.%#...                                            ",
"     .........                        .....@@@@@@@@@@@@@@@@@@@@@@@@@@@@@@@@@+..-...                                             ",
"     ..........                        ....+@@@@@@@@@@@@@@@@@@@@@@@@@@@@@@@@+.;....                              ....           ",
"    ...#%........                      .....@@@@@@@@@@@@@@@@@@@@@@@@@@@@@@++.%%...                            ...........       ",
"    ...--%#........                     .....+@@@@@@@@@@@@@@@@@@@@@@@@@@@@+..-...                           ..............      ",
"   ...#-%#..........                    ......+@@@@@@@@@@@@@@@@@@@@@@@@@@+..-....                         ................      ",
"   ....%%............                    ......+@@@@@@@@@@@@@@@@@@@@@@@@+..-....                        .....#%%-%%%#......     ",
"   ....%#..............                   ......+@@@@@@@@@@@@@@@@@@@@@+@..-.....                      .....#%--%%%##.......     ",
"   ....##................                  ......#+@@@@@@@@@@@@@@@@@@@+.#-....                     ......#%---%##..........     ",
"   ........................                 .......++@@@@@@@@@@@@@@++..%-.....                   ......#----%.#............     ",
"    ..........................               ........++@@@@@@@@@@++...%%....                   ......%%--%%##..............     ",
"    .............................             ...........++++@++....%-.....                .......#%---%%#.................     ",
"     ...............................            .....#...........%--......               ......#%---%#.....................     ",
"      .................................          .........##%%---#......            .......%----%.........................      ",
"      ..................................           ....................        .....##%----#.............................       ",
"       .................................             ................         .#----%%..................................        ",
"              ........................                      ..                .........................................         ",
"                                                                              ...............  ...................              ",
"                                                                                                                                ",
"                                                                                                                                ",
"                                                                                                                                ",
"                                                                                                                                ",
"                                                                                                                                "};
