/* XPM */
char * explode_xpm[] = {
"128 128 17 1",
" 	c None",
".	c #000000",
"+	c #520001",
"@	c #740103",
"#	c #800000",
"$	c #2E2E26",
"%	c #9F4141",
"&	c #585A51",
"*	c #7C7E7B",
"=	c #C18180",
"-	c #AEAD37",
";	c #B1B313",
">	c #ACAE76",
",	c #E1BDBE",
"'	c #DCDC3F",
")	c #DBDB6D",
"!	c #F8FCAE",
"                                                                                                                                ",
"                                                                                                                                ",
"                                                                                                                                ",
"                                                                                                                                ",
"                                                                                                                                ",
"                                                                                                                                ",
"                                                                                                                                ",
"                                                                                                                                ",
"                                                                                                                                ",
"                                                                                                                                ",
"                                                                                                                                ",
"                                                                                                                                ",
"                                                                                                                                ",
"                                                                                                                                ",
"                                                                                                                                ",
"                                                                                                                                ",
"                                                                                                                                ",
"                                                                                                                                ",
"                                                                                                                                ",
"                                                                                                                                ",
"                                                                                                   .....                        ",
"                                                                                                ...........                     ",
"                                                                                             ....$&&&$$.....                    ",
"                                                                                            ...*&.......$....                   ",
"                                                                                          ...*&...............                  ",
"                                                                          #             ...&*......    ........                 ",
"                                                                         #@@@          ...*......        .......                ",
"                                                                        @@@@@@        ..&*.....           .......               ",
"                                                                       @###@@@@      ..&&....              ......               ",
"                                                                      @##%@#@@+@    ..*&....                ......              ",
"                                                                     @##%,=##@@@+  ..&$...                   .....              ",
"                                                                    ##@%,,=#@#@@@+..&&...                    .....              ",
"                                                                   ###%,,=%###@@@@+&$...                     ......             ",
"                                                                  #@@%,,=%@####@@@@+...                       .$...             ",
"                                                                 ###%,,=%#######@@@++.                        .$...             ",
"                                                                @@#%,,=%@#########@@@+                        .$...             ",
"                                                               @##%,,=%#@#########@@@@+                       .&...             ",
"                                                              ###%,,=%%############@@@@+                      .*...             ",
"                                                             @#@%,,=%###############@@@@+                    ..*...             ",
"                                                            ###%,,=%#################@@@@+                   ..&...             ",
"                                                           #@@%,,=%@##################@@@@+                  .*...              ",
"                                                          @@#%,,=%#####################@+@@+                ..*...              ",
"                                                         ###%,,=%@####################@#@++@                .&$...              ",
"                                                        @##%,,=%%####################@@@@@++               ..=...               ",
"                                                       ##@%,,=%#######################@++++               ..&....               ",
"                                                      #@#%,,=%#####################@@@@@++                ..*...                ",
"                                                     ###%,,=%@###################@#@@+@++                ..*....                ",
"                                                    @@#%,,=%######################@@@+++                ..&&...                 ",
"                                                   ##@%,,=%@##################@#@@@+@++                ..$*....                 ",
"                                                  @##%,,=%%##############@###@##@@@+++                 ..*....                  ",
"                                                 @#@%,,=%######################@@@+++                 ..*....                   ",
"                                                ###%,,=%#####################@@@@+++                 ..&&....                   ",
"                                               #@#%,,=%###################@##@@++@+                 ..$*....                    ",
"                                              @@#%,,=%%#####################@#@+++                  ..*....                     ",
"                                             ###%,,=%#####################@@@+@++                  ..*....                      ",
"                                            @##%,,=%####################@#@@@+++                  ..&&....                      ",
"                                           @##%,,=%@#####################@@@+++                  ..$*....                       ",
"                                          @##%,,=%###################@##@#+@++                   ..*....                        ",
"                                         @##%,,=%@####################@@@@+++                   ..*....                         ",
"                                        #@#%,,=%%#####################@@@+++                   ..&&....                         ",
"                                       ###%,,=%#####################@@@++++                   ...*....                          ",
"                                      @@#%,,=%####################@#@@@@++                    ..&....                           ",
"                                     ###%,,=%@#####################@@@+++                     ..*...                            ",
"                                    @@@%,,=%###################@#@@@@+++                     ..&....                            ",
"                                   ###%,,=%@###################@#@@++@+                      ..&...                             ",
"                                  @##%,,=%%#####################@#@+++                      ..&....                             ",
"                                 #@#%,,=%#####################@@@+@++                       ..&...                              ",
"                                @##%,,=%######################@#@+++                        ..$...                              ",
"                               @##%,,=%@###################@@@@+@++                        ..$...                               ",
"                              ##@%,,=%%###################@#@@@+++                         ..&...                               ",
"                             ###%,,=%######################@@@+++                          ..$...                               ",
"                            @@@%,,=%#####################@@@@+++                           ..&...                               ",
"                           @##%,,=%@####################@#@++@+                            ..$..                                ",
"                          ###%,,=%####################@#@@@+++                             ..$..                                ",
"                         #@#%,,=%#%###################@#@+@++                              ..$..                                ",
"                        #@#%,,=%@####################@#@@+++                               .....                                ",
"                       ###%,,=%#####################@@@@+++                                ..$..                                ",
"                      @@#%,,=%%####################@@@@+++                                 ..$$.$                               ",
"                     @##%,,=%#####################@#@@+++                                  $$$.$$                               ",
"                    ###%,,=%@#############@######@@@@+++                                   .$$.&$                               ",
"                   @#@%,,=%#####################@#@++++                                     ..$.$  >    !                       ",
"                  ###%,,=%####################@@@@@@++                                      .$&&$*>!  !!!!!                     ",
"                 @@#%,,=%#@#####################@++++                                       $&$&->>>!!!!!!!!!                   ",
"                ###%,,=%%####################@@@@+++                                        $$$&&>>!!!!!!!!!!! !!               ",
"               #@#%,,=%######################@@@+@+                                          ->>>>!>!!!!!!!!!!!!!!              ",
"              @@#%,,=%#####################@@#++++                                          !>>>>>>!>!!!!!!!!!!!!!!             ",
"             @##%,,=%@#####################@@@@++                                            >>>>>>!!))))))!!!!!!!! !           ",
"            ###%,,=%####################@@@@++++                                             !!>>>>)-'''';';))!!!!!!            ",
"           ##@%,,=%#%####################@#@+++                                            !!!>>>>);;'';''')'))!!!!!!!          ",
"          @@#%,,=%@###################@#@@@+++                                              !!!>>);''''';''';'-)!!!!!           ",
"         @#@%,,=%#####################@@@+@++                                             !!!!!!)'''')!)))'')'-;)!!!!!          ",
"        ###%,,=%%######################@@+++                                               !!!!)''')!!))')'''';;-)!!!!          ",
"       @##%,,=%#####################@@@@+++                                               !!!!!)'')!))'''''''')-;-!!!!          ",
"      @##%,,=%@####################@@@@+++                                                 !!!!';'!!''''''''''''--!!!!!         ",
"     #@@#%==%####################@#@@++++                                               !!!!!!)'''))'''''''''')'-;)!!!!         ",
"     @@#@##@######################@@@@++                                                ! !!!!)'''))'''''''''''-)-)!!!!         ",
"      @@@@######################@@#@+++                                                   !!!!)'''))''''''''''''---!!! !        ",
"       @@@@@####################@@++++                                                   !!!!!')''))'''''''''')'---!!!!!        ",
"        @@@@@################@@@@@+@+                                                     !!!!)'''')''''''''''';--)!!! !        ",
"         @+@@################@#@@+++                                                      !!!!));''''''''''''';---)!!!!!        ",
"          @+@@@##############@@@+++                                                       !!!!!);'''''''''''''----!!!! !        ",
"           @@@@@##########@#@@@+++                                                        !!!!!);;)'''''''';)'-->)!!!!!!        ",
"            @+#@##########@@@++++                                                         !!!!!!);;')'''''';-;---!!!!!!         ",
"             @+@@@#####@##@@@@++                                                           !!!!!!)-););)););----!!!!!!          ",
"              @+@@@######@@++++                                                            !!!!!!!)-;;;;-------)!!!!!!          ",
"               @@@@@###@@@@+++                                                             ! !!!!!))----;---->!!!!!!            ",
"                @+@@@##@@@+@+                                                               !!!!!!!!!)))--!>!!!!!!!!            ",
"                 @@@@@@@@+++                                                                 !!!!!!!!!!!!!!!!!!!!!!             ",
"                  @@@@@++++                                                                   !!!!!!!!!!!!!!!!!!!!              ",
"                   @++@@++                                                                     ! !!!!!!!!!!!!!!!! !             ",
"                    @@+++                                                                        !!!!!!!!!!!!!!                 ",
"                     +++                                                                          !!!!!!!!!! !                  ",
"                                                                                                          !                     ",
"                                                                                                                                ",
"                                                                                                                                ",
"                                                                                                                                ",
"                                                                                                                                ",
"                                                                                                                                ",
"                                                                                                                                ",
"                                                                                                                                ",
"                                                                                                                                ",
"                                                                                                                                ",
"                                                                                                                                ",
"                                                                                                                                ",
"                                                                                                                                ",
"                                                                                                                                ",
"                                                                                                                                ",
"                                                                                                                                "};
