/* XPM */
char * extend_xpm[] = {
"128 128 17 1",
" 	c None",
".	c #000000",
"+	c #2D0000",
"@	c #430102",
"#	c #5A0000",
"$	c #6B0101",
"%	c #750000",
"&	c #7F0000",
"*	c #242624",
"=	c #393B38",
"-	c #9A3030",
";	c #555552",
">	c #626562",
",	c #AB5452",
"'	c #737572",
")	c #BD7B7A",
"!	c #D4A9A9",
"                                                                                                                                ",
"                                                                                                                                ",
"                                                                                                                       .        ",
"                                                                                                                     ....       ",
"                                                                                                                    .....       ",
"                                                                                                                    .=...       ",
"                                                                                                                   ..'...       ",
"                                                                                                                   .;*..        ",
"                                                                                                                  ..'...        ",
"                                                                                                                  .=*..         ",
"                                                                                                                 ..'...         ",
"                                                                                                                 .=*..          ",
"                                                                                                                ..'...          ",
"                                                                                                                .=*..           ",
"                                                                                                               ..'...           ",
"                                                                                                               .=*..            ",
"                                                                                                              ..'...            ",
"                                                                                                              .==..             ",
"                                                                                                             ..'...             ",
"                                                                                                             .==..              ",
"                                                                                                            ..'...              ",
"                                                                                                            .*=...              ",
"                                                                                                           ..'...               ",
"                                                                                                           .==...               ",
"                                                                                                          ..'...                ",
"                                                                                                          .*=...                ",
"                                                                                                         ..'...                 ",
"                                                                                                         .*;...                 ",
"                                                                                                        ..'...                  ",
"                                                                                                        .*;...                  ",
"                                                                                                       ..'...                   ",
"                                                                                                       .*;...                   ",
"                                                                                                      ..'...                    ",
"                                                                                                      ..;...                    ",
"                                                                                                     ..'...                     ",
"                                                                                                     .*;...                     ",
"                                                                                                     .'...                      ",
"                                                                                                    ..;...                      ",
"                                                                                                   ..'...                       ",
"                                                                                                   ..;...                       ",
"                                                                                                   .'...                        ",
"                                                                                                  ..>...                        ",
"                                                                                                  .'...                         ",
"                                                                                                 ..>...                         ",
"                                                                                                 .>...                          ",
"                                                                                                ..>...                          ",
"                                                                                                .>...                           ",
"                                                                                               ..>...                           ",
"                                                                                               .>...                            ",
"                                                                                              ..'...                            ",
"                                                                                              .>...                             ",
"                                                                                             ..>...                             ",
"                                                                                             .>...                              ",
"                                                                                            ..'...                              ",
"              .                                                                         %  +.;...                               ",
"          .........                                                                 %&%%&%%$#;...                               ",
"        .............                                                             &&%&&%%&%%%$@.                                ",
"       ...............                                                           &%%&&&&&&&%%$$@                                ",
"      ....=>>;=*.......                                                         %&&&,)!),-&&%%%$#                               ",
"      ...;'';=**.......                                                         &&&)!!),,--&%&$$#@                              ",
"     ...='';*...........                                                       %&&,!!)--%&&&&&%$$@                              ",
"     ...''=*............                                                       &%%!!,-&&&&&&&&%$$#                              ",
"     ...>;*..............                                                      &&&!!-&&&&&&&&&&%$$@                             ",
"    ....;=...................................           &&&&&&&%%%%$          %%&%),&&&&&&&&&&&$$#@                             ",
"    ....;*..................**====*===**......          &&,!!)-&%%%$          %%&&)-&&&&&&&&&&&$$#@                             ",
"    ....**....................................          &%&%%&%&&$$$          %%%%--&&&&&&&&&&%%$#@                             ",
"     .........................................          %$%%$%$$$$#$           %%&&-&&&&&&&&&&%$$#@                             ",
"     .......................................              $$#######            %%&%&&&&&&&&&&&%$##+                             ",
"     ...................                                                       $$%&&&&&&&&&&&%$$#@                              ",
"      ..................                                                        $%$&&&&&&&%&%$$$#@                              ",
"      .................                                                         $$$%%%&&&%%%$$##@                               ",
"       ...............                                                           $$$$$$%%%%$###@                                ",
"        .............                                                             #$$$$$$$#$##@                                 ",
"          ..........                                                              .+########@@                                  ",
"            ......                                                                .=*++@@@@+.                                   ",
"                                                                                 ..'...                                         ",
"                                                                                 .=*...                                         ",
"                                                                                ..'...                                          ",
"                                                                                .=*..                                           ",
"                                                                               ..'...                                           ",
"                                                                               .=*..                                            ",
"                                                                              ..'...                                            ",
"                                                                              .=*..                                             ",
"                                                                             ..'...                                             ",
"                                                                             .==..                                              ",
"                                                                            ..'...                                              ",
"                                                                            .==...                                              ",
"                                                                           ..'...                                               ",
"                                                                           .*=...                                               ",
"                                                                          ..'...                                                ",
"                                                                          .*=...                                                ",
"                                                                         ..'...                                                 ",
"                                                                         .*;...                                                 ",
"                                                                        ..'...                                                  ",
"                                                                        .*;...                                                  ",
"                                                                       ..'...                                                   ",
"                                                                       .*;...                                                   ",
"                                                                      ..'...                                                    ",
"                                                                      ..;...                                                    ",
"                                                                     ..'...                                                     ",
"                                                                     .*;...                                                     ",
"                                                                     .'...                                                      ",
"                                                                    ..;...                                                      ",
"                                                                    .'...                                                       ",
"                                                                   ..;...                                                       ",
"                                                                   .'...                                                        ",
"                                                                  ..>...                                                        ",
"                                                                  .'...                                                         ",
"                                                                 ..>...                                                         ",
"                                                                 .>...                                                          ",
"                                                                ..>...                                                          ",
"                                                                .'...                                                           ",
"                                                               ..>...                                                           ",
"                                                               .>...                                                            ",
"                                                              ..>...                                                            ",
"                                                              .>...                                                             ",
"                                                             ..'...                                                             ",
"                                                             .;...                                                              ",
"                                                            ..*...                                                              ",
"                                                            .....                                                               ",
"                                                           ......                                                               ",
"                                                           .....                                                                ",
"                                                            ....                                                                ",
"                                                                                                                                ",
"                                                                                                                                ",
"                                                                                                                                ",
"                                                                                                                                ",
"                                                                                                                                "};
