/* XPM */
char * fillet_xpm[] = {
"128 128 17 1",
" 	c None",
".	c #000000",
"+	c #080B07",
"@	c #121411",
"#	c #1C1E1C",
"$	c #272927",
"%	c #2E302D",
"&	c #363835",
"*	c #3E403D",
"=	c #414340",
"-	c #454744",
";	c #4E504D",
">	c #555754",
",	c #616360",
"'	c #6C6E6B",
")	c #767976",
"!	c #7E807D",
"                                                                                                                                ",
"                                                                                                                                ",
"                                                                                                                                ",
"                                                                                                                                ",
"                                                                                                                                ",
"                                                                                                                                ",
"                                                                                                                                ",
"                                                                                                                                ",
"            .....       .....       .....       .....       .....                                                               ",
"            .$...       .$...       .$...       .$...       .$...          ..........................................           ",
"            .>,..       .>,..       .>,..       .>,..       .>,..    .............@$&**==*=*=*=**==*=**=*==*=*=&.....           ",
"            .....       .....       .....       .....       .............@&;>;&@.....................................           ",
"            .....       .....       .....       .....       ........+=,,=............................................           ",
"            .....       .....       .....       .....       .....%>,%................................................           ",
"                                                         .....&',@...............                                               ",
"                                                       ....#,'#...........                                                      ",
"                                                     ....='=..........                                                          ",
"                                                   ....;'@.........                                                             ",
"                                                 ....,).........                                                                ",
"                                                ...>!........                                                                   ",
"            .....                             ...*!#......                                                                      ",
"            .$...                           ...+!-......                                                                        ",
"            .>,..                          ...,)......                                                                          ",
"            .....                         ..%!@.....                                                                            ",
"            .....                       ...''......                                                                             ",
"            .....                      ..+!#.....                                                                               ",
"                                      ..=!.....                                                                                 ",
"                                     ..,'.....                                                                                  ",
"                                    ..)=....                                                                                    ",
"                                   ..!#....                                                                                     ",
"                                  ..!....                                                                                       ",
"                                 ..!....                                                                                        ",
"            .....               ..!....                                                                                         ",
"            .$...              ..!....                                                                                          ",
"            .>,..             ..)@...                                                                                           ",
"            .....            ..,=...                                                                                            ",
"            .....           ..=,...                                                                                             ",
"            .....           .@!...                                                                                              ",
"                           ..!....                                                                                              ",
"                          ..'@...                                                                                               ",
"                         ..*,...                                                                                                ",
"                         ..!....                                                                                                ",
"                        ..)...+                                                                                                 ",
"                       ..=>...                                                                                                  ",
"            .....      ..!....                                                                                                  ",
"            .$...     ..,....                                                                                                   ",
"            .>,..     .+)...                                                                                                    ",
"            .....    ..'....                                                                                                    ",
"            .....    .$;...                                                                                                     ",
"            .....   ..)....                                                                                                     ",
"                   ..%=...                                                                                                      ",
"                   ..)...                                                                                                       ",
"                   .#;...                                                                                                       ",
"                  ..'...                                                                                                        ",
"                  ..'...                                                                                                        ",
"                 ..;....                                                                                                        ",
"            .......'...                                                                                                         ",
"            .$....#&...                                                                                                         ",
"            .>,...,....                                                                                                         ",
"            ......,...                                                                                                          ",
"            .....$@...                                                                                                          ",
"            .....,...                                                                                                           ",
"               ..,...                                                                                                           ",
"               .@$...                                                                                                           ",
"              ..-.+..                                                                                                           ",
"              ..,...                                                                                                            ",
"              ..;...                                                                                                            ",
"              .+#...                                                                                                            ",
"              .&...                                                                                                             ",
"             ..>...                                                                                                             ",
"             ..,...                                                                                                             ",
"             ..;...                                                                                                             ",
"             ..%...                                                                                                             ",
"             ......                                                                                                             ",
"             .#...                                                                                                              ",
"             .%...                                                                                                              ",
"             .*...                                                                                                              ",
"            ..=...                                                                                                              ",
"            ..-...                                                                                                              ",
"            ..-...                                                                                                              ",
"            ..=...                                                                                                              ",
"            ..*..                                                                                                               ",
"            ..&..                                                                                                               ",
"            ..&..                                                                                                               ",
"            ..%..                                                                                                               ",
"            ..%..                                                                                                               ",
"            ..%..                                                                                                               ",
"            ..%..                                                                                                               ",
"            ..$..                                                                                                               ",
"            ..%..                                                                                                               ",
"            ..$..                                                                                                               ",
"            ..$..                                                                                                               ",
"            ..%..                                                                                                               ",
"            ..$..                                                                                                               ",
"            ..%..                                                                                                               ",
"            ..$..                                                                                                               ",
"            ..%..                                                                                                               ",
"            ..$..                                                                                                               ",
"            ..$..                                                                                                               ",
"            ..%..                                                                                                               ",
"            ..$..                                                                                                               ",
"            ..%..                                                                                                               ",
"            ..%..                                                                                                               ",
"            ..$..                                                                                                               ",
"            ..$..                                                                                                               ",
"            ..%..                                                                                                               ",
"            ..$..                                                                                                               ",
"            ..%..                                                                                                               ",
"            ..%..                                                                                                               ",
"            ..$..                                                                                                               ",
"            ..%..                                                                                                               ",
"            ..$..                                                                                                               ",
"            ..$..                                                                                                               ",
"            ..%..                                                                                                               ",
"            ..+..                                                                                                               ",
"            .....                                                                                                               ",
"            .....                                                                                                               ",
"            .....                                                                                                               ",
"            .....                                                                                                               ",
"                                                                                                                                ",
"                                                                                                                                ",
"                                                                                                                                ",
"                                                                                                                                ",
"                                                                                                                                ",
"                                                                                                                                ",
"                                                                                                                                ",
"                                                                                                                                ",
"                                                                                                                                "};
