/* XPM */
char * frontview_xpm[] = {
"128 128 17 1",
" 	c None",
".	c #000000",
"+	c #2A3948",
"@	c #383937",
"#	c #585A57",
"$	c #666865",
"%	c #5E7B9B",
"&	c #797B78",
"*	c #878A87",
"=	c #929591",
"-	c #79A1CA",
";	c #ACAEAB",
">	c #B6B9B5",
",	c #98CAFD",
"'	c #C4C7C3",
")	c #D6D8D5",
"!	c #F9FBF8",
"                                                                                                                                ",
"                                                                                                                                ",
"                                                                                                                                ",
"                                                                                                                                ",
"                                                                                                                                ",
"                                                                                                                                ",
"                                                                                                                                ",
"                                                                                                                                ",
"                                                                                                                                ",
"                                                                                                                                ",
"                                        ........................................................................                ",
"                                       .........................................................................                ",
"                                       .........@@@@@@@@@@@@@@@@@@@@@@@@@@@@@@@@@@@@@@@@@@@@@@@@@@@@$&$@@.......                ",
"                                      ...@@...........................................................@&*&#.....                ",
"                                     ...&#..............................................................@$$@....                ",
"                                    ...$&...@==========================================================$..@.....                ",
"                                   ..@&$....#;>;>;>>>;>>>;>>>>>;>>;>>>>>>>>;>>>>>>;>>>>>;>>>>>>>>>>'>'*.........                ",
"                                  ..$$......@;;>;>>;'>'>>'>>'>'>'>'>>>>>'>>'>>'>>'>'>'>'>'>'>>'>'>>>>*..........                ",
"                                 ..&@..@....@>;>>''''''')''''''''''''')>'''')>'''''''''''''')>''')''*.+@........                ",
"                                ..*...@$....+;;;'>)))))))))))))))))))))))))))))))))))))))))))))))));.@&....@....                ",
"                               .@&...@)&....@>>;'))))))))))))))))!))))!)))))))))))))))))))))))))));..&...@;@....                ",
"                              ..&...@''$....+;;>'))!!!!!!!!!!!!!!!!!!!!!!!!!!!!!!!!!!!!!!!!!!!!!!;..&...@;;@....                ",
"                             ..=...@))>$....#;>',)!!!!!!!!!!!!!!!!!!!!!!!!!!!!!!!!!!!!!!!!!!!!!!>..*...@;>>@....                ",
"                            .@*...@')>>$....+;;')))!!!!!!!!!!!!!!!!!!!!!!!!!!!!!!!!!!!!!!!!!!!!>..*....>'>;@....                ",
"                           ..&...@))>;>$.@..#>;'')!!!!!!!!!!!!!!!!!!!!!!!!!!!!!!!!!!!!!!!!!!!!;..*...@')';>.....                ",
"                          ..*...+)'>>>>$.@..+;>')))!!!!!!!!!!!!!!!!!!!!!!!!!!!!!!!!!!!!!!!!!!'..&...+>)>>''@.@..                ",
"                         .@&...@)''>>>'%.@..#>>'))!!!!!!!!!!!!!!!!!!!!!!!!!!!!!!!!!!!!!!!!!!;..*...@;'>;;>'@.@..                ",
"                        ..&...@')';>'')&.#..+>;')))!!!!!!!!!!!!!!!!!!!!!!!!!!!!!!!!!!!!!!!!>..&....'''>';'>@.@..                ",
"                       ..=...@)'>>;>'))&.@..#>>'))!!!!!!!!!!!!!!!!!!!!!!!!!!!!!!!!!!!!!!!!>..*...@''';>>'))@.@..                ",
"                      .@*...+)'''-'')))&.@..@,>')))!!!!!!!!!!!!!!!!!!!!!!!!!!!!!!!!!!!!!!>..&...+>'';>>''))@.@..                ",
"                     ..&...@)'';>'')))!*.@..#>>>))!!!!!!!!!!!!!!!!!!!!!!!!!!!!!!!!!!!!!!>..*...@;''>>-))))!@.@..                ",
"                    ..*...@)>'>>>>)))!!=.@..+>>'))!!!!!!!!!!!!!!!!!!!!!!!!!!!!!!!!!!!!!>..&....>)>>>'''))!)@.@..                ",
"                   .@&...@)'';>>')))!!!*.#..#'>'')!!!!!!!!!!!!!!!!!!!!!!!!!!!!!!!!!!!!>..*...@')>>>>')))!!!@.@..                ",
"                  ..&...@''';>'')))!!!!*.@..+;;')))!!!!!!!!!!!!!!!!!!!!!!!!!!!!!!!!!!>..&...+>''>>>'')!)!!!@.@..                ",
"                 ..*...@)'';'>,'))!!!!!*.@..#>>'))!!!!!!!!!!!!!!!!!!!!!!!!!!!!!!!!!!;..*...@;'';>,>)))!!!!!@.@..                ",
"                .@*...+)''>>;'))!)!!!!!*.@..+>>''!)!!!!!!!!!!!!!!!!!!!!!!!!!!!!!!!!>..*....>)>>>>>))))!!!!!@.@..                ",
"               ..&...@)'>>;>')))!!!!!!!*.@..#>>'')!!!!!!!!!!!!!!!!!!!!!!!!!!!!!!!!>..*...@')'>;>''))!!!!!!!@.@..                ",
"              ..*...@)'''->')))!!!!!!!!*.#..+>;''!)!!!!!!!!!!!!!!!!!!!!!!!!!!!!!!>..&...+>''>>'')))!!!!!!!!@.@..                ",
"             ..&...@')>>>)')))!!!!!!!!!*.&..#'>,))!!!!!!!!!!!!!!!!!!!!!!!!!!!!!!;..*...@;'';>-)')!)!!!!!!!!@.@..                ",
"            ..@#..+')>>;>>)))!!!!!!!!!!*.*..+>>''))!!!!!!!!!!!!!!!!!!!!!!!!!!!!>..&...@>)'>>'>)))!!!!!!!!!!@.@..                ",
"           ..@$..@)'>;>'')))!!!!!!!!!!!*.&..#'>'))!!!!!!!!!!!!!!!!!!!!!!!!!!!!>..*...@>>';>>')))!!!!!!!!!!!@.@..                ",
"          ...&@.@')>>'-'')!)!!!!!!!!!!!&@*..+>;'))!!!!!!!!!!!!!!!!!!!!!!!!!!!>..*...+>)'>>>'')!)!!!!!!!!!!!@.@..                ",
"        ....&&..@.+.+@.@+++.++@@@@@@@@@.$*...@+.@.@@.@@@@@@@@@@@@@@@@@@@@@@@...$...@>'>;>,''))!!!!!!!!!!!!!@.@..                ",
"       ....$#........................#**#....................................@#...+'>'>>>'),!)!!!!!!!!!!!!!@.@..                ",
"        ..@@..........@@@@@@@@@@@@@@@@...........@@@@@@@@@@@@@@@@@@@@@@@$&*&&@...@;''>>>''))!!!!!!!!!!!!!!!@.@..                ",
"        ...................................................................@@....>'';>>'')!)!!!!!!!!!!!!!!!@.@..                ",
"        ........................................................................*'';>>')))!!!!!!!!!!!!!!!!!@.@..                ",
"        ....+%%%%%%%%%%%%%%%%%%%%%%%%%%%%%%%%%%%%%%%%%%%%%%%%%%%%%%%%%%%%%%+....*;;>>'')!)!!!!!!!!!!!!!!!!!@.@..                ",
"        ....+---%-%-------------------------%--%---------------------------+....*;>-)'))!!!!!!!!!!!!!!!!!!!@.@..                ",
"        ....+--%----------------------------------------------------------%+....%;>;')))!!!!!!!!!!!!!!!!!!!@.@..                ",
"        .@..+--------------------------------------------------------------+....*>>'))!!!!!!!!!!!!!!!!!!!!!@.@..                ",
"        .@..+--%---------,-,-,-,-,-,--,-,--,---,-,--,-,-,---,--,-,-,-,--,--+.+..*;;>)))!!!!!!!!!!!!!!!!!!!!@.@..                ",
"        .@..+-----,,,,,,,-,-,,-,-,-,,,-,,,-,,,,-,,,,-,,,,,,,-,,,-,-,-,,,-,-+.@..*>>',!)!!!!!!!!!!!!!!!!!!!!@.@..                ",
"        .@..+-----,-,,-,,,,,,,,,,,,-,,,-,,,,-,,,,-,,,-,-,-,,,,,,,,,,,,,,,,,+.@..*>>'))!!!!!!!!!!!!!!!!!!!!!@.@..                ",
"        .#..+----,-,,,,,,,,,,,,,,,,,,,,,,,,,,,,,,,,,,,,,,,,,,,,,,,,,,,,,,,,+.@..*>>'))!!!!!!!!!!!!!!!!!!!!!@.@..                ",
"        .@..+-----,,,,,,,,,,,,,,,,,,,,,,,,,,,,,,,,,,,,,,,,,,,,,,,,,,,,,,,,,+.@..%>>'))!!!!!!!!!!!!!!!!!!!!!@.@..                ",
"        .@..+---,-,,,,,,,,,,,,,,,,,,,,,,,,,,,,,,,,,,,,,,,,,,,,,,,,,,,,,,,,,+.@..=>''))!!!!!!!!!!!!!!!!!!!!!@.@..                ",
"        .#..+----,-,,,,,,,,,,,,,,,,,,,,,,,,,,,,,,,,,,,,,,,,,,,,,,,,,,,,,,,,+.@..=>>'))!!!!!!!!!!!!!!!!!!!!!@.@..                ",
"        .@..+----,,,,,,,,,,,,,,,,,,,,,,,,,,,,,,,,,,,,,,,,,,,,,,,,,,,,,,,,,,+.@..*>>)))!!!!!!!!!!!!!!!!!!!!!@.@..                ",
"        .#..+------,,,,,,,,,,,,,,,,,,,,,,,,,,,,,,,,,,,,,,,,,,,,,,,,,,,,,,,,+.@..->>'))!!!!!!!!!!!!!!!!!!!!!@.@..                ",
"        .@..+---,,,,,,,,,,,,,,,,,,,,,,,,,,,,,,,,,,,,,,,,,,,,,,,,,,,,,,,,,,,+.@..*>''))!!!!!!!!!!!!!!!!!!!!!@.@..                ",
"        .#..+----,-,,,,,,,,,,,,,,,,,,,,,,,,,,,,,,,,,,,,,,,,,,,,,,,,,,,,,,,,+.@..=>>'))!!!!!!!!!!!!!!!!!!!!!@.@..                ",
"        .@..+----,,,,,,,,,,,,,,,,,,,,,,,,,,,,,,,,,,,,,,,,,,,,,,,,,,,,,,,,,,+.@..*;''))!!!!!!!!!!!!!!!!!!!!!@.@..                ",
"        .#..+-----,,,,,,,,,,,,,,,,,,,,,,,,,,,,,,,,,,,,,,,,,,,,,,,,,,,,,,,,,+.@..->>'))!!!!!!!!!!!!!!!!!!!!!@.@..                ",
"        .@..+----,-,,,,,,,,,,,,,,,,,,,,,,,,,,,,,,,,,,,,,,,,,,,,,,,,,,,,,,,,+.@..*;''))!!!!!!!!!!!!!!!!!!!!!@.@..                ",
"        .#..+-----,,,,,,,,,,,,,,,,,,,,,,,,,,,,,,,,,,,,,,,,,,,,,,,,,,,,,,,,,+.@..=>>'))!!!!!!!!!!!!!!!!!!!!!@.@..                ",
"        .@..+---,,-,,,,,,,,,,,,,,,,,,,,,,,,,,,,,,,,,,,,,,,,,,,,,,,,,,,,,,,,+.@..*>>)))!!!!!!!!!!!!!!!!!!!!!@.@..                ",
"        .#..+----,,,,,,,,,,,,,,,,,,,,,,,,,,,,,,,,,,,,,,,,,,,,,,,,,,,,,,,,,,+.@..-;>'))!!!!!!!!!!!!!!!!!!!!!@.@..                ",
"        .@..+-----,,,,,,,,,,,,,,,,,,,,,,,,,,,,,,,,,,,,,,,,,,,,,,,,,,,,,,,,,+.@..*>''))!!!!!!!!!!!!!!!!!!!!!@.@..                ",
"        .#..+-----,,,,,,,,,,,,,,,,,,,,,,,,,,,,,,,,,,,,,,,,,,,,,,,,,,,,,,,,,+.@..=>>'))!!!!!!!!!!!!!!!!!!!!!@.@..                ",
"        .@..+---,-,,,,,,,,,,,,,,,,,,,,,,,,,,,,,,,,,,,,,,,,,,,,,,,,,,,,,,,,,+.@..*>''))!!!!!!!!!!!!!!!!!!!!!@.@..                ",
"        .#..+----,,,,,,,,,,,,,,,,,,,,,,,,,,,,,,,,,,,,,,,,,,,,,,,,,,,,,,,,,,+.@..-;>'))!!!!!!!!!!!!!!!!!!!!!@.@..                ",
"        .@..+-----,,,,,,,,,,,,,,,,,,,,,,,,,,,,,,,,,,,,,,,,,,,,,,,,,,,,,,,,,+.@..*;''))!!!!!!!!!!!!!!!!!!!!!@.@..                ",
"        .#..+-----,,,,,,,,,,,,,,,,,,,,,,,,,,,,,,,,,,,,,,,,,,,,,,,,,,,,,,,,,+.@..=>>'))!!!!!!!!!!!!!!!!!!!!!@.@..                ",
"        .@..+---,-,,,,,,,,,,,,,,,,,,,,,,,,,,,,,,,,,,,,,,,,,,,,,,,,,,,,,,,,,+.@..*>>)))!!!!!!!!!!!!!!!!!!!!!@.@..                ",
"        .#..+-----,,,,,,,,,,,,,,,,,,,,,,,,,,,,,,,,,,,,,,,,,,,,,,,,,,,,,,,,,+.@..-;>'))!!!!!!!!!!!!!!!!!!!!!@.@..                ",
"        .@..+---,,,,,,,,,,,,,,,,,,,,,,,,,,,,,,,,,,,,,,,,,,,,,,,,,,,,,,,,,,,+.@..*>''))!!!!!!!!!!!!!!!!!!!!!@.@..                ",
"        .#..+-----,,,,,,,,,,,,,,,,,,,,,,,,,,,,,,,,,,,,,,,,,,,,,,,,,,,,,,,,,+.#..=>>'))!!!!!!!!!!!!!!!!!!!!!@.@..                ",
"        .@..+-;---,,,,,,,,,,,,,,,,,,,,,,,,,,,,,,,,,,,,,,,,,,,,,,,,,,,,,,,,,+.#..*;''))!!!!!!!!!!!!!!!!!!!!!@.#..                ",
"        .#..+----,,,,,,,,,,,,,,,,,,,,,,,,,,,,,,,,,,,,,,,,,,,,,,,,,,,,,,,,,,+.$..->>'))!!!!!!!!!!!!!!!!!!!!!@#@..                ",
"        .@..+-----,,,,,,,,,,,,,,,,,,,,,,,,,,,,,,,,,,,,,,,,,,,,,,,,,,,,,,,,,+.&..*;''))!!!!!!!!!!!!!!!!!!!!!@&...                ",
"        .#..+----,,,,,,,,,,,,,,,,,,,,,,,,,,,,,,,,,,,,,,,,,,,,,,,,,,,,,,,,,,+.##.#%$$%&*********************.&...                ",
"        .@..+----,,,,,,,,,,,,,,,,,,,,,,,,,,,,,,,,,,,,,,,,,,,,,,,,,,,,,,,,,,+.@$............................##...                ",
"        .#..+-----,,,,,,,,,,,,,,,,,,,,,,,,,,,,,,,,,,,,,,,,,,,,,,,,,,,,,,,,,+..$......@@@@@@@@@@@@@#@#@@.+@$&....                ",
"        .@..+----,,,,,,,,,,,,,,,,,,,,,,,,,,,,,,,,,,,,,,,,,,,,,,,,,,,,,,,,,,+..@......................#&*&&$.....                ",
"        .#..#-----,,,,,,,,,,,,,,,,,,,,,,,,,,,,,,,,,,,,,,,,,,,,,,,,,,,,,,,,,+............................$#......                ",
"        .@..+----,,,,,,,,,,,,,,,,,,,,,,,,,,,,,,,,,,,,,,,,,,,,,,,,,,,,,,,,,,+....@@@#@##########@#@#@#@##........                ",
"        .@..+-----,,,,,,,,,,,,,,,,,,,,,,,,,,,,,,,,,,,,,,,,,,,,,,,,,,,,,,,,,+....*>;;;;;;;;;;;;>';'>>>>;@.......                 ",
"        .#..+---,-,,,,,,,,,,,,,,,,,,,,,,,,,,,,,,,,,,,,,,,,,,,,,,,,,,,,,,,,,+....*>>;>;>>'>>'>>>>>>>>>>+.......                  ",
"        .@..+----,,,,,,,,,,,,,,,,,,,,,,,,,,,,,,,,,,,,,,,,,,,,,,,,,,,,,,,,,,+....*;;>;>'>'''''>''''''>@.@.....                   ",
"        .@..+----,,,,,,,,,,,,,,,,,,,,,,,,,,,,,,,,,,,,,,,,,,,,,,,,,,,,,,,,,,+.@..=>;>>')')'))')')')')+.&.....                    ",
"        .#..+-----,,,,,,,,,,,,,,,,,,,,,,,,,,,,,,,,,,,,,,,,,,,,,,,,,,,,,,,,,+.@..*>>>>),)))))))!))))@.$#....                     ",
"        .@..+---,,,,,,,,,,,,,,,,,,,,,,,,,,,,,,,,,,,,,,,,,,,,,,,,,,,,,,,,,,,+.@..*>;')))!!!!!!)!!!)+.##...                       ",
"        .#..+-----,,,,,,,,,,,,,,,,,,,,,,,,,,,,,,,,,,,,,,,,,,,,,,,,,,,,,,,,,+.@..=->'')!)!!)!!!!!!@.$#...                        ",
"        .@..+----,,,,,,,,,,,,,,,,,,,,,,,,,,,,,,,,,,,,,,,,,,,,,,,,,,,,,,,,,,+.@..='>'))!!!!!!!!!!+.##...                         ",
"        .#..+----,,,,,,,,,,,,,,,,,,,,,,,,,,,,,,,,,,,,,,,,,,,,,,,,,,,,,,,,,,+.@..=;''))!!!!!!!!!@.##...                          ",
"        .@..#----,,,,,,,,,,,,,,,,,,,,,,,,,,,,,,,,,,,,,,,,,,,,,,,,,,,,,,,,,,+.@..*>>'))!!!!!!!!+.##...                           ",
"        .#..+----,,,,,,,,,,,,,,,,,,,,,,,,,,,,,,,,,,,,,,,,,,,,,,,,,,,,,,,,,,+.@..->>,))!!!!!!!@.$#...                            ",
"        .@..+----,,,,,,,,,,,,,,,,,,,,,,,,,,,,,,,,,,,,,,,,,,,,,,,,,,,,,,,,,,+.@..=>>)))!!!!!!@.##...                             ",
"        .@..+-----,,,,,,,,,,,,,,,,,,,,,,,,,,,,,,,,,,,,,,,,,,,,,,,,,,,,,,,,,+.@..*>>'))!!!!!@.##...                              ",
"        .@..+----,,,,,,,,,,,,,,,,,,,,,,,,,,,,,,,,,,,,,,,,,,,,,,,,,,,,,,,,,,+.@..=>>)))!!!!@.$#...                               ",
"        .#..+----,,,,,,,,,,,,,,,,,,,,,,,,,,,,,,,,,,,,,,,,,,,,,,,,,,,,,,,,,,+.@..*;>'))!!!@.##...                                ",
"        .@..+----,,,,,,,,,,,,,,,,,,,,,,,,,,,,,,,,,,,,,,,,,,,,,,,,,,,,,,,,,,+.@..*>>'))!!@.##...                                 ",
"        .#..#-----,,,,,,,,,,,,,,,,,,,,,,,,,,,,,,,,,,,,,,,,,,,,,,,,,,,,,,,,,+.@..->>)))!+.$#...                                  ",
"        .@..+----,,,,,,,,,,,,,,,,,,,,,,,,,,,,,,,,,,,,,,,,,,,,,,,,,,,,,,,,,,+.@..*;>)))@.##...                                   ",
"        .@..+----,,,,,,,,,,,,,,,,,,,,,,,,,,,,,,,,,,,,,,,,,,,,,,,,,,,,,,,,,,+.#..*>>>)@.##...                                    ",
"        .#..+----,,,,,,,,,,,,,,,,,,,,,,,,,,,,,,,,,,,,,,,,,,,,,,,,,,,,,,,,,,+.#..=>''+.#$...                                     ",
"        .#..+-----,,,,,,,,,,,,,,,,,,,,,,,,,,,,,,,,,,,,,,,,,,,,,,,,,,,,,,,,,+.$..%>;@.$#...                                      ",
"        .@..+----,,,,,,,,,,,,,,,,,,,,,,,,,,,,,,,,,,,,,,,,,,,,,,,,,,,,,,,,,,+.$@.=>+.&#...                                       ",
"        .#..@-----,,,,,,,,,,,,,,,,,,,,,,,,,,,,,,,,,,,,,,,,,,,,,,,,,,,,,,,,,+.$&.*@.#....                                        ",
"        .#..+---,,,,,,,,,,,,,,,,,,,,,,,,,,,,,,,,,,,,,,,,,,,,,,,,,,,,,,,,,,,+.#&.@......                                         ",
"        .@@.@-----,,,,,,,,,,,,,,,,,,,,,,,,,,,,,,,,,,,,,,,,,,,,,,,,,,,,,,,,,+.#&@......                                          ",
"        ..$..----,,,,,,,,,,,,,,,,,,,,,,,,,,,,,,,,,,,,,,,,,,,,,,,,,,,,,,,,,,+.$$......                                           ",
"        ..=...+#%%%%-%-%-%-%-%--%-%%-%-%-%-%-%-%-%-%-%--%-%-%-%%%%%%%%%%%%%.#&.......                                           ",
"        ..@...............................................................#&$.......                                            ",
"        .........@@@@@#@@#@@@@@@#@@#@@#@@@#@@@@@#@@#@@@@@@#@@@@#@#@@#@@$&$#........                                             ",
"        ..........................................................................                                              ",
"        .........................................................................                                               ",
"        ........................................................................                                                ",
"                                                                                                                                ",
"                                                                                                                                ",
"                                                                                                                                ",
"                                                                                                                                ",
"                                                                                                                                ",
"                                                                                                                                ",
"                                                                                                                                ",
"                                                                                                                                ",
"                                                                                                                                "};
