/* XPM */
char * gridsettings_xpm[] = {
"128 128 17 1",
" 	c None",
".	c #000000",
"+	c #10120F",
"@	c #1A1C1A",
"#	c #242623",
"$	c #323431",
"%	c #3B3C3A",
"&	c #404240",
"*	c #454744",
"=	c #494B49",
"-	c #4F514E",
";	c #555755",
">	c #5F615E",
",	c #656765",
"'	c #6A6C69",
")	c #757875",
"!	c #7E807D",
"                                                                                                                                ",
"                                                                                                                                ",
"                                                                                                                                ",
"                                                                                                                                ",
"                                                                                                                                ",
"                                                                                                                                ",
"                                                                                                                                ",
"                                                                                                                                ",
"                                                                                                                                ",
"                                                                                                                                ",
"                                                                                                                                ",
"            ........................................................................................................            ",
"           ..........................................................................................................           ",
"           ...#@..+#$%%%%%%%%%%&->''=@.....+#$%%%%%%%%%%%->'';#.....+@$%%%%%%%%%%&->',;#.....+@$%%%%%%%%%%%=>''-.....           ",
"           ..#!#...................+,!>@.....................;!,#.....................;!,#.....................--....           ",
"           ..@#......................................................................................................           ",
"           ......                   ......                   ......                   ......                   ......           ",
"           .....                    ......                   ......                   ......                    .....           ",
"           ..+..                    ......                   ......                   ......                    .....           ",
"           ..#..                    ......                   ......                   ......                    .....           ",
"           ..$..                    ..@...                    .@...                    .@...                    .@...           ",
"           ..%..                    ..%...                    .%...                    .%...                    .$...           ",
"           ..%..                    ..&...                    .&...                    .%...                    .$...           ",
"           ..%..                    ..=...                    .%...                    .&...                    .$...           ",
"           ..%..                    ..&...                    .&...                    .&...                    .$...           ",
"           ..%..                    ..&...                    .&...                    .%...                    .$...           ",
"           ..%..                    ..*...                    .%...                    .&...                    .$...           ",
"           ..%..                    ..&...                    .&...                    .&...                    .$...           ",
"           ..%..                    ..*...                    .&...                    .%...                    .$...           ",
"           ..%..                    ..&...                    .%...                    .&...                    .$...           ",
"           ..%..                    ..*...                    .&...                    .&...                    .$...           ",
"           ..&..                    ..;...                    .=...                    .=...                    .%...           ",
"           ..-..                    ..,...                    .'...                    .'...                    .;...           ",
"           ..,..                    ..!...                    .!...                    .!...                    .)...           ",
"           ..'..                    .@!...                    .!...                    .!...                    .!...           ",
"           ..,+.                    .&)...                    @!...                    #!...                    $,...           ",
"           ..=>......................,'.......................;).......................;).......................,#...           ",
"           ..@!...................@*,!,....................+%>))+...................+&>!)+....................%,!....           ",
"           ...;.....@%*&**&***&-'!!)),%......@%**&&**&*&-,)!!',=......+$&**&*&&*&-,)!),,=......+$**&&****&=,)!!)-....           ",
"           ...@......................................................................................................           ",
"           ..........................................................................................................           ",
"           ..........................................................................................................           ",
"           .....                    ......                   ......                   ......                    .....           ",
"           ..+..                    ......                   ......                   ......                    .....           ",
"           ..#..                    ......                   ......                   ......                    .....           ",
"           ..$..                    ..@...                    .+...                    .@...                    .@...           ",
"           ..%..                    ..%...                    .%...                    .$...                    .$...           ",
"           ..%..                    ..&...                    .%...                    .&...                    .$...           ",
"           ..%..                    ..*...                    .&...                    .&...                    .$...           ",
"           ..%..                    ..&...                    .&...                    .%...                    .$...           ",
"           ..%..                    ..&...                    .%...                    .&...                    .$...           ",
"           ..%..                    ..=...                    .&...                    .&...                    .$...           ",
"           ..%..                    ..*...                    .&...                    .%...                    .$...           ",
"           ..%..                    ..&...                    .%...                    .&...                    .$...           ",
"           ..%..                    ..&...                    .&...                    .&...                    .$...           ",
"           ..%..                    ..=...                    .%...                    .%...                    .$...           ",
"           ..&..                    ..-...                    .-...                    .-...                    .%...           ",
"           ..;..                    ..,...                    .,...                    .,...                    .;...           ",
"           ..>..                    ..!...                    .!...                    .!...                    .)...           ",
"           ..,..                    .@!...                    .!...                    .!...                    .!...           ",
"           ..'+.                    .&)...                    @!...                    @!...                    %,...           ",
"           ..=,......................,'.......................;).......................;).......................,#...           ",
"           ..@!...................@*,!,....................+%;!)+...................+%;!)+...................+$,)....           ",
"           ...;.....@%***&*&*&*-,!!)',%......@%**&*&*&*&->)!!),=......+$&**&*&**&=,)!!),=......+$**&**&*&*=>)!));....           ",
"           ...@......................................................................................................           ",
"           ..........................................................................................................           ",
"           ..........................................................................................................           ",
"           .....                    ......                   ......                   ......                    .....           ",
"           ..+..                    ......                   ......                   ......                    .....           ",
"           ..#..                    ......                   ......                   ......                    .....           ",
"           ..$..                    ..@...                    .+...                    .+...                    .@...           ",
"           ..%..                    ..%...                    .%...                    .%...                    .$...           ",
"           ..%..                    ..*...                    .&...                    .&...                    .$...           ",
"           ..%..                    ..&...                    .&...                    .&...                    .$...           ",
"           ..%..                    ..&...                    .%...                    .%...                    .$...           ",
"           ..%..                    ..=...                    .&...                    .&...                    .$...           ",
"           ..%..                    ..*...                    .&...                    .&...                    .$...           ",
"           ..%..                    ..&...                    .%...                    .%...                    .$...           ",
"           ..%..                    ..&...                    .&...                    .&...                    .$...           ",
"           ..%..                    ..=...                    .&...                    .&...                    .$...           ",
"           ..%..                    ..*...                    .%...                    .%...                    .$...           ",
"           ..&..                    ..=...                    .=...                    .=...                    .%...           ",
"           ..-..                    ..,...                    .>...                    .>...                    .;...           ",
"           ..;..                    ..)...                    .!...                    .!...                    .)...           ",
"           ..'..                    .+!...                    .!...                    .!...                    .!...           ",
"           ..,..                    .%)...                    @!...                    @!...                    #)...           ",
"           ..;;.....                .,'......                .&)......                .&)......                .;$...           ",
"           ..#!....................@;!,.....................+=!)+....................+=!)+....................+=!....           ",
"           ...,.....@%&%%&&&%&%-'!!!))=......+$&&%&&%&&%=>!!!!);......+$&&%&&%&&&=>)!!));......+$&&%&&%&&%*>)!!!,....           ",
"           ...#......................+........................+........................+.............................           ",
"           ..........................................................................................................           ",
"           ..........................................................................................................           ",
"           .....                    ......                   ......                   ......                    .....           ",
"           ..+..                    ......                   ......                   ......                    .....           ",
"           ..@..                    ......                   ......                   ......                    .....           ",
"           ..$..                    ..+...                    .+...                    .+...                    .+...           ",
"           ..%..                    ..$...                    .$...                    .$...                    .$...           ",
"           ..%..                    ..&...                    .%...                    .&...                    .$...           ",
"           ..%..                    ..*...                    .&...                    .&...                    .$...           ",
"           ..%..                    ..&...                    .&...                    .&...                    .$...           ",
"           ..%..                    ..*...                    .%...                    .%...                    .$...           ",
"           ..%..                    ..&...                    .&...                    .&...                    .$...           ",
"           ..%..                    ..&...                    .&...                    .&...                    .$...           ",
"           ..%..                    ..&...                    .%...                    .%...                    .$...           ",
"           ..%..                    ..&...                    .&...                    .&...                    .$...           ",
"           ..%..                    ..=...                    .&...                    .&...                    .$...           ",
"           ..%..                    ..=...                    .*...                    .*...                    .%...           ",
"           ..=..                    ..,...                    .>...                    .>...                    .=...           ",
"           ..>..                    ..)...                    .)...                    .)...                    .'...           ",
"           ..,..                    ..!...                    .!...                    .!...                    .!...           ",
"           ..'..                    .%!...                    +!...                    +!...                    @)...           ",
"           ..;-..                   .,)...                   .=!...                   .=!...                   .,%...           ",
"           ...-....................$,!-.....................#;!,.....................#,),.....................@,!....           ",
"           .........@$$$$$$$$$$%;)!,#........@$$$$$$$$$$%-)!)$........+#$$$$$$$$$%;'!)$........+$$$$$$$$$$%-'!)%.....           ",
"           ..........................................................................................................           ",
"           ..........................................................................................................           ",
"            ........................................................................................................            ",
"                                                                                                                                ",
"                                                                                                                                ",
"                                                                                                                                ",
"                                                                                                                                ",
"                                                                                                                                ",
"                                                                                                                                ",
"                                                                                                                                ",
"                                                                                                                                ",
"                                                                                                                                ",
"                                                                                                                                ",
"                                                                                                                                "};
