/* XPM */
char * gridsnapsettings_xpm[] = {
"128 128 17 1",
" 	c None",
".	c #000000",
"+	c #0E100D",
"@	c #191B19",
"#	c #262825",
"$	c #383A37",
"%	c #444643",
"&	c #565855",
"*	c #676966",
"=	c #7B7D7A",
"-	c #848784",
";	c #A0A29F",
">	c #B2B4B1",
",	c #BFC1BE",
"'	c #CFD2CE",
")	c #DEE1DD",
"!	c #F2F5F1",
"                                                                                                                                ",
"                                                                                                                                ",
"                                                                                                                                ",
"                                                                                                                                ",
"                                                                                                                                ",
"                                                                                                                                ",
"                                                                                                                                ",
"                                                                                                                                ",
"                                                                                                                                ",
"                                                                                                                                ",
"                                                                                                                                ",
"            ........................................................................................................            ",
"           ..........................................................................................................           ",
"           ...#@..+@$$$$$$$$$$$$&***%@.....+@$$$$$$$$$$$$%***&#......##$$$$$$$$$$%%***&#......##$$$$$$$$$$$%***&.....           ",
"           ..#-#...................+*=&@.....................&=*#.....................&=*#.....................%&....           ",
"           ..@#......................................................................................................           ",
"           ......                   ......                   ......                   ......                   ......           ",
"           .....                    ......                   ......                   ......                    .....           ",
"           ..+..                    ......                   ......                   ......                    .....           ",
"           ..#..                    ......                   ......                   ......                    .....           ",
"           ..$..                    ..@...                    .@...                    .@...                    .@...           ",
"           ..$..                    ..$...                    .$...                    .$...                    .$...           ",
"           ..$..                    ..%...                    .%...                    .$...                    .$...           ",
"           ..$..                    ..%...                    .$...                    .%...                    .$...           ",
"           ..$..                    ..%...                    .%...                    .%...                    .#...           ",
"           ..$..                    ..%...                    .%...                    .$...                    .$...           ",
"           ..%..                    ..%...                    .$...                    .%...                    .$...           ",
"           ..$..                    ..%...                    .%...                    .%...                    .#...           ",
"           ..$..                    ..%...                    .%...                    .$...                    .$...           ",
"           ..$..                    ..%...                    .$...                    .%...                    .$...           ",
"           ..$..                    ..%...                    .%...                    .%...                    .$...           ",
"           ..%..                    ..&...                    .%...                    .%...                    .$...           ",
"           ..&..                    ..*...                    .*...                    .*...                    .&...           ",
"           ..&..                    ..=...                    .-...                    .-...                    .=...           ",
"           ..*..                    .@=...                    .=...                    .=...                    .=...           ",
"           ..*+.                    .%=...                    @-...                    @-...                    $*...           ",
"           ..&*......................**.......................&=.......................&=.......................*#...           ",
"           ..+=...................@%*=*....................+$&=*+...................+%&==+....................$*=....           ",
"           ...&.....@$%%%%%%%%%&*=-=**$......@$%%%%%%%%%%*=--**&......+$%%%%%%%%%%*===**%......+$%%%%%%%%%%*====%....           ",
"           ...@......................................................................................................           ",
"           ..........................................................................................................           ",
"           ..........................................................................................................           ",
"           .....                    ......                   ......                   ......                    .....           ",
"           ..+..                    ......                   ......                   ......                    .....           ",
"           ..#..                    ......                   ......                   ......                    .....           ",
"           ..#..                    ..@...                    .@...                    .@...                    .@...           ",
"           ..$..                    ..$...                    .$...                    .$...                    .#...           ",
"           ..$..                    ..%...                    .%...                    .%...                    .$...           ",
"           ..%..                    ..%...                    .%...                    .%...                    .$...           ",
"           ..$..                    ..%...                    .$...                    .%...                    .$...           ",
"           ..$..                    ..%...                 ..........                  .%...                    .#...           ",
"           ..$..                    ..%...               ....+..++......               .$...                    .$...           ",
"           ..$..                    ..%...              ....@$&=*=&$+....              .%...                    .$...           ",
"           ..$..                    ..%...             ...@&;'))))',-%+...             .%...                    .#...           ",
"           ..%..                    ..%...            ...#-'!!!)))))),*@+..            .$...                    .$...           ",
"           ..$..                    ..%...           ...#;)!!!!!!!))))'=#..            .%...                    .$...           ",
"           ..%..                    ..&...           ..@-)!!!!!!!!!))'''*+..           .&...                    .%...           ",
"           ..&..                    ..*...          ...&)!!!!!!!!!)))'''>$..           .*...                    .&...           ",
"           ..&..                    ..=...          ..@;!!!!!!!!!!!)))'',-+..          .=...                    .=...           ",
"           ..*..                    .@-...          ..$)!!!!!!!!!!!!)''',>#..          .-...                    .=...           ",
"           ..*+.                    .%=...          .+&!!!!!!!!!!!!!)''',,&..          @=...                    $*...           ",
"           ..%*......................**..............+-)!!!!!!!!!!!!)'',,>&............&=.......................*#...           ",
"           ..@=...................@%*=*..............+-)!)!!!!!!!!!))'',,>*+........+$&==+...................+$&-....           ",
"           ...&.....@$%%%%%%%%%&*===**$......@$%%%%$..-))!!!!!!!!!!))',,>>*..$$%$%*=--**%......+$%%%%%%%%%%&=-==&....           ",
"           ...@.......................................*)))!)!!!!!)))'',,>>%+.........................................           ",
"           ........................................+..%')))!!)!!!))'',,>>;#..........................................           ",
"           ...........................................@;)))'))))))',,,,>>-@..........................................           ",
"           .....                    ......          ..+&''''))))''',,,>>>$..          ......                    .....           ",
"           ..+..                    ......           ..@-)''''''',,,>>>>*@..          ......                    .....           ",
"           ..#..                    ......           ..+#-'',',,,,,,>>>*#...          ......                    .....           ",
"           ..#..                    ..@...            ..+$=,',,,,,>>>>*#...            .@...                    .@...           ",
"           ..$..                    ..$...             ...@&-,,,>>>;-%+...             .$...                    .#...           ",
"           ..$..                    ..%...              ...+#$&***&$@+...              .%...                    .$...           ",
"           ..$..                    ..%...               .....+@++......               .$...                    .$...           ",
"           ..%..                    ..%...                .............                .%...                    .$...           ",
"           ..$..                    ..%...                   .......                   .%...                    .#...           ",
"           ..$..                    ..%...                    .$...                    .$...                    .$...           ",
"           ..$..                    ..%...                    .$...                    .%...                    .$...           ",
"           ..$..                    ..%...                    .%...                    .%...                    .#...           ",
"           ..$..                    ..%...                    .%...                    .$...                    .$...           ",
"           ..$..                    ..%...                    .$...                    .$...                    .$...           ",
"           ..%..                    ..%...                    .%...                    .%...                    .$...           ",
"           ..&..                    ..*...                    .*...                    .*...                    .&...           ",
"           ..&..                    ..=...                    .=...                    .=...                    .*...           ",
"           ..*..                    .+-...                    .-...                    .=...                    .-...           ",
"           ..*..                    .$=...                    +-...                    +-...                    #=...           ",
"           ..&&.....                .&*......                .%=......                .%-......                .&$...           ",
"           ..#=....................@&-*.....................@%==+....................+%==+....................+%=....           ",
"           ...*.....@$%$$%%%$%$&*=-===%......@$%%$%%$%%$%*=====&......+$$%$%%$%%%%*==-==&......+#%%$%%$%%$%&=---*....           ",
"           ...#......................+........................+........................+.............................           ",
"           ..........................................................................................................           ",
"           ..........................................................................................................           ",
"           .....                    ......                   ......                   ......                    .....           ",
"           ..+..                    ......                   ......                   ......                    .....           ",
"           ..@..                    ......                   ......                   ......                    .....           ",
"           ..#..                    ..+...                    .+...                    .+...                    .@...           ",
"           ..$..                    ..$...                    .$...                    .$...                    .#...           ",
"           ..$..                    ..%...                    .%...                    .$...                    .$...           ",
"           ..%..                    ..%...                    .$...                    .%...                    .$...           ",
"           ..$..                    ..%...                    .%...                    .%...                    .$...           ",
"           ..$..                    ..%...                    .%...                    .$...                    .$...           ",
"           ..$..                    ..%...                    .$...                    .%...                    .#...           ",
"           ..$..                    ..%...                    .%...                    .%...                    .$...           ",
"           ..$..                    ..%...                    .%...                    .$...                    .$...           ",
"           ..%..                    ..%...                    .$...                    .$...                    .#...           ",
"           ..$..                    ..%...                    .%...                    .%...                    .$...           ",
"           ..$..                    ..%...                    .%...                    .%...                    .$...           ",
"           ..%..                    ..*...                    .&...                    .*...                    .&...           ",
"           ..*..                    ..=...                    .=...                    .=...                    .*...           ",
"           ..*..                    ..=...                    .=...                    .=...                    .-...           ",
"           ..*..                    .$-...                    +=...                    +=...                    @=...           ",
"           ..%&..                   .**...                   .%-...                   .%-...                   .*$...           ",
"           ...&....................$*-&.....................#*=*.....................#*=*.....................@*=....           ",
"           .........@$$#$$#$$$$$&==*@........@#$$#$$$#$$%%===#........@#$$#$$$#$$$&===#........@##$$$#$$$$$&*==$.....           ",
"           ..........................................................................................................           ",
"           ..........................................................................................................           ",
"            ........................................................................................................            ",
"                                                                                                                                ",
"                                                                                                                                ",
"                                                                                                                                ",
"                                                                                                                                ",
"                                                                                                                                ",
"                                                                                                                                ",
"                                                                                                                                ",
"                                                                                                                                ",
"                                                                                                                                ",
"                                                                                                                                ",
"                                                                                                                                "};
