/* XPM */
char * hatch_xpm[] = {
"128 128 17 1",
" 	c None",
".	c #000000",
"+	c #280100",
"@	c #480000",
"#	c #720201",
"$	c #7E0000",
"%	c #731B1C",
"&	c #2E302E",
"*	c #862F2F",
"=	c #4A4C49",
"-	c #7B4E4E",
";	c #A34747",
">	c #B57473",
",	c #9E9493",
"'	c #D1CECB",
")	c #EBE5E4",
"!	c #FDFFFC",
"                                                                                                                                ",
"                                                                                                                                ",
"                                                                                                                                ",
"                                                                                                                                ",
"                                                                                                                                ",
"                                                                                                                                ",
"                                                                                                                                ",
"                                                                                                                                ",
"                                                                                                                                ",
"                       ....                                                                     ....                            ",
"                      .....                                                                    .....                            ",
"                      ..=..                                                                    ..=..                            ",
"                      ..,..                                                                    ..,..                            ",
"                      ..=..                                                                    ..=..                            ",
"                      ..=..                                                                    ..=..                            ",
"                      ..=...                                                                   ..=...                           ",
"                      ..=...                                                                   ..=...                           ",
"                      ..=...                                                                   ..=...                           ",
"                      ..,...                                                                   ..,...                           ",
"                      ..,...                                                                   ..,...                           ",
"                      .&,...                                                                   .&,...                           ",
"                      .--@+@@@@@@@@@@@@@@@@@@@@@@@@@@@@@@@@@@@@@@@@@@@@@@@@@@@@@@@@@@@@@@@@@@@@+--++....                        ",
"         .............@###$####$##$##$#$$$$$$$$$$$$$#$$$#$#$$##$#$$$$$$$$$$$$$#$$$#$$##$$##$$$$$####+.................          ",
"         .&=,=&====,,,*#$$$$$#$$$$$$$$$$$$$*;;;;;;;;;;;;;#$$$$$$$$$$*;;;;;;;;;;;;;$$$$$$$$$$$*#$#$##+....&&==&==&&....          ",
"         .............@#$>;$$$;;>,;*$$$$$$$$$#$$$$$$$$$$$>,>;*$$$$$$$$$$$$$$$$$$$%;>>>*$$$$$$;>>$###+.................          ",
"         .............@$$>#$###$$$;;$$$###############%##$$$;;$$$############%####$$$*;$$$#$#$$$$$#%+.................          ",
"         .............@$$$#%@*@%##$$$$%*@-@@-@@+@-@@@@-@-%##$$$#%@*@@@+@@@@-@@-@-@%##$$$$%@*@*@#####+.................          ",
"                      @#$$%-,'',%###$#%,''''''''''''''''',###$$#*'''')'''''''''''''%####$%,''''%$###+                           ",
"                      @$$$#-','',%##$$#%,''''''''''''',''',####$#%'''''''','',''''',%##$$##,'''@$$##+                           ",
"                      @$%#@-,','',%##$$$%,'''''','''''',''',%##$$#*,''''''''''','''''%##$$#$,''-;###@                           ",
"                      @$;$#-'',''''%##$$#%,''''''''''')''''',#%##$#*''''''''''')''''''%##$$$#''->$#%+                           ",
"                      @$*$@-''''''''%#$$$$%')))!))))))))))))),##$$##*'))))))))))))))))'*##$$$$'>>$##@                           ",
"                      @$;$#-,'''))))'%#$$$#%')!)!)!!!!!)!)!!)!'##$$##*'!!!)!!!)!)!)!))))*#$*>;>-;$#@+                           ",
"                      @$*$@-''''))!!))%#$$$#%')!!!))!)!!!!)!!))'##$$$#*))!!!)!!)!!!!!!!))*#$$>>>$###@                           ",
"                      @$;$#-,''')!)!!!)%#$$$#%)!!!!!!!!!!!!!!!!!'##$#$#*)!!!!!!!!)!!!!!!!)*##$$;$$#@+                           ",
"                      @$;##-'''')!!!!!!)%#$$$#%'!!!!!!!!!!!!!!!)!'##$$##*)!!!!!!!!!!!!!!!!)*#%$$$###@                           ",
"                      @$;##-''''))!!!!!))%#$$$#%)!!!!!!!!!!!!!!!!!'##$$$#*)!!!!!!!!!!!!!!!!)%###$##@+                           ",
"                      @#;$@-'''')!!!!!!!!)%#$$$$%'!!!!!!!!!!!!!!!!!'##$$##*)!!!!!!!!!!!!!!!!)*######@                           ",
"                      @$>$#-,'''))!!!!!!!!)%#$$$#%)!!!!!!!!!!!!!!!!!'##$$$#*)!!!!!!!!!!!!!!!!)%#$##@+                           ",
"                      %#;$#-'''))!!!!!!!!!!)%#$$$$%)!!!!!!!!!!!!!!!!!'%#$$$#*)!!!!!!!!!!!!!!!!)##$##@                           ",
"                      @$;*##,'''))!!!!!!!!!!)%#$$$#%)!!!!!!!!!!!!!!!!)'###$##*)!!!!!!!!!!!!!!!!*#$#%+                           ",
"                      @##>##%,'')!!!!!!!!!!!!)%#$$$##)!!!!!!!!!!!!!!!!!'##$$$#*)!!!!!!!!!!!!!!!%$###@                           ",
"                      @$$>###%''))!!!!!!!!!!!!)%#$$$#%'!!!!!!!!!!!!!!!!!'##$$$#*)!!!!!!!!!!!!!!*#$#%+                           ",
"                      @$$>$###%')!!!!!!!!!!!!!!)%#$$$$%)!!!!!!!!!!!!!!!!!'%#$$$#*)!!!!!!!!!!!!!*$*##@                           ",
"                      @$$;*$###%')!!!!!!!!!!!!!!)%#$$$#%)!!!!!!!!!!!!!!!!!'##$$$#*)!!!!!!!!!!!!@$;$@+                           ",
"                      @#$$$$$###%'!!!!!!!!!!!!!!!)%#$$$$%'!!!!!!!!!!!!!!!!!'%#$$$#*)!!!!!!!!!!!*$;$#@                           ",
"                      @$$$$##$$##%)!!!!!!!!!!!!!!!)%#$$$$%)!!!!!!!!!!!!!!!!!'##$$$#*)!!!!!!!!!!*#;##+                           ",
"                      @$$$$-%$$$$$%)!!!!!!!!!!!!!!!)%#$$$$%)!!!!!!!!!!!!!!!!!'%#$$$#*)!!!!!!!!!%$;$#+            ...            ",
"                      @$$$#-,#$#$$#%)!!!!!!!!!!!!!!!)%#$$$#%)!!!!!!!!!!!!!!!!!'###$$#*)!!!!!!!!*#*$#+           .....           ",
"                      @$##$-',%#$$$$%)!!!!!!!!!!!!!!!)%##$$##)!!!!!!!!!!!!!!!!!'##$$$#*)!!!!!!!*$;#%@          .......          ",
"                      @$$##-'',%#$$$#%)!!!!!!!!!!!!!!!)%#$$$#%)!!!!!!!!!!!!!!!!!'##$$$#*)!!!!!!%#;##+         ..&=....          ",
"                      @$*##-''''%#$$$$%)!!!!!!!!!!!!!!!)%#$$$##)!!!!!!!!!!!!!!!!!'%#$$$#*)!!!!!*$;$#+        ..&,....           ",
"                      @$;$#-,''''##$$$$%)!!!!!!!!!!!!!!!)%#$$$#%)!!!!!!!!!!!!!!!!!'##$$$#*)!!!!%#;$#@       ..&,....            ",
"                      @$*##-'''')'%#$$$$%)!!!!!!!!!!!!!!!)%#$$$$%)!!!!!!!!!!!!!!!!!'%#$$$#*)!!!*$;#%+      ..&,....             ",
"                      @$;$@-'''')))%#$$$#%)!!!!!!!!!!!!!!!)%#$$$#%'!!!!!!!!!!!!!!!!!'##$$$#*)!!-;;$#+     ..&,....              ",
"                      @$*##-'''))!)'%#$$$$%)!!!!!!!!!!!!!!!)%##$$$%)!!!!!!!!!!!!!!!!!'%#$$$$*)!->%#%@    ..&,....               ",
"                      @$;$@-,'''))!!'%#$$$$%)!!!!!!!!!!!!!!!)%#$$$#%)!!!!!!!!!!!!!!!!!'###$$$*)->$$#+   ..&,....                ",
"                      @$;$#-''''!)!!!)%#$$$$%)!!!!!!!!!!!!!!!)%#$$$$%)!!!!!!!!!!!!!!!!!'%#$;;;>>;##@@  ..&,....                 ",
"                      @$;##-,'''!)!!!!'%#$$$#%)!!!!!!!!!!!!!!!)%#$$$#%'!!!!!!!!!!!!!!!!!'%$$$>>>$$##+ ..=,....                  ",
"                      @$;##-'''')!)!!!!)%#$$$$%)!!!!!!!!!!!!!!!)%#$$$$#)!!!!!!!!!!!!!!!!!'%#$$;>$#%#+..=&....                   ",
"                      @$;##-'''')!!!!!!))%#$$$$%)!!!!!!!!!!!!!!!)%#$$$#%)!!!!!!!!!!!!!!!!!'###$$$###+.......                    ",
"                      @$>$@-''''))!!!!!!!'%#$$$$%)!!!!!!!!!!!!!!!)%#$$$$%)!!!!!!!!!!!!!!!!!'%##$$##%+......                     ",
"                      @$;$#-,''))!!!!!!!!!'%#$$$#%)!!!!!!!!!!!!!!!)%#$$$#%'!!!!!!!!!!!!!!!!!'######@+.....                      ",
"                      @$;##%''''))!!!!!!!!!)%#$$$$%)!!!!!!!!!!!!!!!)%#$$$$%)!!!!!!!!!!!!!!!!!'%$$$##+....                       ",
"                      @#;;#%-''')!)!!!!!!!!))%#$$$$%)!!!!!!!!!!!!!!!)%#$$$#%)!!!!!!!!!!!!!!!!!'$$##@+...                        ",
"                      @$$>###-')))!!!!!!!!!!!'%#$$$$%)!!!!!!!!!!!!!!!)%#$$$##)!!!!!!!!!!!!!!!)!##$##+..                         ",
"                      @$$>$###-))!!!!!!!!!!!!!)%#$$$#%)!!!!!!!!!!!!!!!)%#$$$#%)!!!!!!!!!!!!!!!-$%#%@+.                          ",
"                      @#$;*####-))!!!!!!!!!!!!!'%#$$$$%)!!!!!!!!!!!!!!!)%#$$$$%)!!!!!!!!!!!!!*$;$###+                           ",
"                      @$$$$$####>!)!!!!!!!!!!!!!)%#$$$$%)!!!!!!!!!!!!!!!)%#$$$#%'!!!!!!!!!!!-$;;##@+.                           ",
"                      @$$$$$$$###>!!!!!!!!!!!!!!!'%#$$$$%)!!!!!!!!!!!!!!!)%##$$$%)!!!!!!!!!-$;>###+..                           ",
"                      @$$$$*#$#$##>!!!!!!!!!!!!!!!)%#$$$#%)!!!!!!!!!!!!!!!)%#$$$#%)!!!!!!!*$;>$#@+...                           ",
"                      @$$$$--#$$###>!!!!!!!!!!!!!)!'%#$$$$%)!!!!!!!!!!!!!!!)%#$$$$%)!!!!!-$*>$#@@....                           ",
"                      @$$##-'>##$$##>!!!!!!!!!!!!!!!)%#$$$$%)!!!!!!!!!!!!!!!)%#$#$#%)!!!*$;>$##+.....                           ",
"                      @$$$#-,'>#$$$##>!!!!!!!!!!!!!!!'%#$$$$%)!!!!!!!!!!!!!)!)%#$$$$#)!*$;>$#@+......                           ",
"                      @$*$#-'''-#$#$##>!!!!!!!!!!!!!!!)%#$$$#%)!!!!!!!!!!!!!!!)%#$;$$$*#;;$##+ ......                           ",
"                      @$;##-''''>##$$##>!!!!!!!!!!!!!!!'%#$$$$%)!!!!!!!!!!!!!!!)%#$>;$#$###@@  ......                           ",
"                      @$;$#-,''')>##$$##>!!!!!!!!!!!!!!!)%#$$$$%)!!!!!!!!!!!!!!!)%$;>;$$##@@   ......                           ",
"                      @$*#@-''''))>##$$##>!!!!!!!!!!!!!!!'%#$$$$%)!!!!!!!!!!!!!!!)#$;$##%#@    ......                           ",
"                      @$;$#-''''!)!>###$##>!!!!!!!!!!!!!!!)%#$$$#%)!!!!!!!!!!!!!!!*$$$#@#+     ..&...                           ",
"                      @$;$@-'''')!!!>##$$##>!!!!!!!!!!!!!!!'%#$$$$%)!!!!!!!!!!!!!-#$###@@      ..=...                           ",
"                      @$;$#-,'''))!!!>#$#$##>!!!!!!!!!!!!!!!)%#$$$$%)!!!!!!!!!!!-$;$##@@       ..=...                           ",
"                      @$*##-''''!)!!!!>#$$$##>!!!!!!!!!!!!!!!'%#$$$$%)!!!!!!!!!*$;;##@@        ..=...                           ",
"                      @$;#@-'''')!!!!!!>##$$##>!!!!!!!!!!!!!!!'%#$$$#%)!!!!!!!-$;>$#%@         ..=...                           ",
"                      @$;$#-''''))!!!!!!>#$$$##>!!!!!!!!!!!!!!!)%#$$$$%)!!!!!-$*>##@@          ..=...                           ",
"                      @$>$#-,'''!)!!!!!!!>##$$##>!!!!!!!!!!!!!!!'%#$$$$%)!!!*$;>$##@           ..=...                           ",
"                      @$;##-''''))!!!!!!!!>##$$##>!!!!!!!!!!!!!!!)%#$$$$%)!-$;>###+            ..=...                           ",
"                      @$;##@''''!)!!!!!!!!!>###$##>!!!!!!!!!!!!!!))%#$;$$$*$;;$#@@             ..=...                           ",
"                      @$*>##-''')!!!!!!!!!!!>##$$##>!!!!!!!!!!!!!!!)%$$>;$$#$###@              ..=...                           ",
"                      @$$>$##-''))!!!!!!!!!!!>#$$###>!!!!!!!!!!!!!!!)%$;>;$$#%@@               ..=...                           ",
"                      @#$>$###-))!!!!!!!!!!!!!>##$$##>!!!!!!!!!!!!!!!)$$;$$#@#@                ..=...                           ",
"                      %$$;*$###-))!!!!!!!!!!!!!>#$$$##>!!!!!!!!!!!!!!!*$$###@@                 ..=...                           ",
"                      @#$$*#$###;)!!!!!!!!!!!!!!>#$-$##>!!!!!!!!!!!!!-$####@@                  ..=...                           ",
"                      @$$$$$$$$#%;!!!!!!!!!!!!!!!>$$>$##>!!!!!!!!!!!*#;$#@#+                   ..,...                           ",
"                      @#$$$*$$###%;!!!!!!!!!!!!!!!>$>*###>!!!!!!!!!-$;;###@                    ..,...                           ",
"                      @$$;*->%$$$##-!!!!!!!!!!!!!!!>>>$###>!!!!!!!*$;>$%@+                     .&,...                           ",
"                      @$$$*%-;*$####*------------->>>>*$###*-----%#;>$##@ ......               .==......                        ",
"         .............*#$$$$$$$$$$$##$$$$$$$$$$$$>>>;*$$#$$$$$$$$;>*$#@@......................&=,,....................          ",
"         .&=,=&====,,,-##$$##$#$$#$$$$$$;;;;>;;>>;;$$$#$$#$$$$;>>*$###+......&&&=&===&=&====,=,,==.......&==&===&&....          ",
"         .............@###############$$$$$$$$$$$$############$$$$##@@................................................          ",
"         .............@###%###@#@#%#%###########%###%#@#@#%%#####@#@+.................................................          ",
"         ..............@+@+@+@@@+@+@@@@@@@@@@@@@@@@@@@@@@@@@@++@@+@+..................................................          ",
"                      ......                               ........                            ......                           ",
"                      ......                              ........                             ......                           ",
"                      ......                             ..=.....                              ......                           ",
"                      ......                            ..=&....                               ......                           ",
"                      ..&...                           ..==....                                ..&...                           ",
"                      ..=...                          ..&,....                                 ..=...                           ",
"                      ..=...                         ..&,....                                  ..=...                           ",
"                      ..=...                        ..&,....                                   ..=...                           ",
"                      ..=...                       ..&,....                                    ..=...                           ",
"                      ..=...                      ..&,....                                     ..=...                           ",
"                      ..=...                     ..&,....                                      ..=...                           ",
"                      ..=...                    ..&,....                                       ..=...                           ",
"                      ......                   ..&,....                                        ......                           ",
"                      ......                  ...=....                                         ......                           ",
"                      ......                 ........                                          ......                           ",
"                      ......                  ......                                           ......                           ",
"                      ......                   ....                                            ......                           ",
"                                                ..                                                                              ",
"                                                                                                                                ",
"                                                                                                                                ",
"                                                                                                                                ",
"                                                                                                                                ",
"                                                                                                                                ",
"                                                                                                                                ",
"                                                                                                                                ",
"                                                                                                                                ",
"                                                                                                                                "};
