/* XPM */
char * heart_xpm[] = {
"128 128 17 1",
" 	c None",
".	c #000000",
"+	c #181917",
"@	c #282A27",
"#	c #353735",
"$	c #484A47",
"%	c #5A5C59",
"&	c #6C6E6B",
"*	c #7B7D7A",
"=	c #8E908D",
"-	c #A0A3A0",
";	c #ACAFAB",
">	c #C2C4C1",
",	c #CCCFCB",
"'	c #DCDEDB",
")	c #EBEDEA",
"!	c #FAFCF9",
"                                                                                                                                ",
"                                                                                                                                ",
"                                                                                                                                ",
"                                                                                                                                ",
"                                                                                                                                ",
"                                                                                                                                ",
"                                                                                                                                ",
"                                                                                                                                ",
"                                                                                                                                ",
"                                                                                                                                ",
"                                                                                                                                ",
"                                                                                                                                ",
"                                                                                                                                ",
"                                                                                                                                ",
"                                                                                                                                ",
"                                                                                                                                ",
"                                                                                                                                ",
"                                                                                                                                ",
"                                                                                                                                ",
"                                                                                                                                ",
"                                   ......                                                                                       ",
"                              ##$$%%%$$#@....                                         @@@@@@......                              ",
"                           #$%&*&%$##@@#$$##....                                   #$%&&&&%&%%$#+....                           ",
"                         $%**&$.............#@+...                              $$&**%$+......++###+...                         ",
"                        $&*&+......+.+++@.....+@...                            %&*&#...............+@+...                       ",
"                      $%**+...@$%=>>>;>>-%$@@...++...                        $&*&+....##$%$#@+++......+....                     ",
"                     $&*$...#&-,,>>>,>>>>>>>-%@...+...                      %**@...#$&->>,>>;-==*%@+........                    ",
"                    $**+..#&;>,>>,>,>,>,>,>>>>-%@......                   $&*%...#&->,,,>>>>>>>>>>;=%@.......                   ",
"                   $*&...$-',,>,,,,,,',',''>,,,>-$......                 $&*#..#&;,,>,>,>,,,,>,>>>>>>;%+......                  ",
"                  $&&..#&>,,>,>,>,,',''''''''''>>>%@.....               $&*...$-,,,>,>,,,,,',',',',,,>>-#......                 ",
"                 #&&..$;',,>,,,'''')')))))))'''',,>-$.....             #&*...&,'>>,,,>,'''''')''''''',,,;&+.....                ",
"                 $*+.#;'>,>,>,,''))))))!)!))))))'''>>%.....           #%&...&>>,,,>,,'''))))))))))')''','>-+.....               ",
"                #&$..&,,,,,''''))!!!!!!!!!!!!!)!)))',>%.....          %&+..&>,,,>,,'')')))!!!)!!))!)!))'''>-@....               ",
"               +%&..$>,>,>,''))!)!!!!!!!!!!!!!!!!)))''>$.....        $&@..&>,,>>,'''))!!!!!!!!!!!!!!)!)))'',%.....              ",
"               #%+.@;'>,,,''))!!!!!!!!!!!!!!!!!!!!)!)'';#....       #&$..&>,,>,,,'))))!!!!!!!!!!!!!!!!!)!))'>$.....             ",
"              +$$..&,>,>,'))!!!!!!!!!!!!!!!!!!!!!!!)!))'*.....      $&..$>,>>,,''))!!!!!!!!!!!!!!!!!!!!!!)))';@....             ",
"              @%..@;,>,','))!!!!!!!!!!!!!!!!!!!!!!!!!)!),%.....    %&+.#;'>,,','))!!!!!!!!!!!!!!!!!!!!!!!!!!)'&.....            ",
"             .$$..&>>,>'')!!!!!!!!!!!!!!!!!!!!!!!!!!!!!))>#....   &*$..&,,,>,''))!!!!!!!!!!!!!!!!!!!!!!!!!!!))>@....            ",
"             +$..@;,>,,'))!!!!!!!!!!!!!!!!!!!!!!!!!!!!!!))-..++.  *&..#>>,,,,')!!!!!!!!!!!!!!!!!!!!!!!!!!!!!)))&.....           ",
"             @$..&,>,,'')!!!!!!!!!!!!!!!!!!!!!!!!!!!!!!!!)'&..$% &%...=',,>'')))!!!!!!!!!!!!!!!!!!!!!!!!!!!!!!);@....           ",
"            .$@.@-,>>''))!!!!!!!!!!!!!!!!!!!!!!!!!!!!!!!!!),@.+%%$...&,>>,,'))!!!!!!!!!!!!!!!!!!!!!!!!!!!!!!!!!)$....           ",
"            .$..$>>>,,))!!!!!!!!!!!!!!!!!!!!!!!!!!!!!!!!!!));+..+...@;,,,,'))!!!!!!!!!!!!!!!!!!!!!!!!!!!!!!!!!!)&.....          ",
"            +$..&>,>''))!!!!!!!!!!!!!!!!!!!!!!!!!!!!!!!!!!!)'*......*,,>,'''!!!!!!!!!!!!!!!!!!!!!!!!!!!!!!!!!!!!>#....          ",
"           .@@.@-,>,'')!!!!!!!!!!!!!!!!!!!!!!!!!!!!!!!!!!!!!!,$..+.#>>>,,'))!!!!!!!!!!!!!!!!!!!!!!!!!!!!!!!!!!!!)$....          ",
"           .#..#>>,,'))!!!!!!!!!!!!!!!!!!!!!!!!!!!!!!!!!!!!!!';+..+=>,>,'')!!!!!!!!!!!!!!!!!!!!!!!!!!!!!!!!!!!!!)&....          ",
"           .#..$>,>'')!!!!!!!!!!!!!!!!!!!!!!!!!!!!!!!!!!!!!!!)'%..$>>>,'')!)!!!!!!!!!!!!!!!!!!!!!!!!!!!!!!!!!!!!!>#....         ",
"           .#..%>,,'')!!!!!!!!!!!!!!!!!!!!!!!!!!!!!!!!!!!!!!!!);++;>>>,'')!!!!!!!!!!!!!!!!!!!!!!!!!!!!!!!!!!!!!!!)#+...         ",
"           .@.#;,>,')!!!!!!!!!!!!!!!!!!!!!!!!!!!!!!!!!!!!!!!!)!'$&,>,,'')!!!!!!!!!!!!!!!!!!!!!!!!!!!!!!!!!!!!!!!!)$+...         ",
"           .@.@>>,''))!!!!!!!!!!!!!!!!!!!!!!!!!!!!!!!!!!!!!!!!!)>,'>,,'))!!!!!!!!!!!!!!!!!!!!!!!!!!!!!!!!!!!!!!!!)$++..         ",
"          .++.$>,>'')!!!!!!!!!!!!!!!!!!!!!!!!!!!!!!!!!!!!!!!!!!!)'''''))!!!!!!!!!!!!!!!!!!!!!!!!!!!!!!!!!!!!!!!!!!$.+..         ",
"          .++.$>,,''!!!!!!!!!!!!!!!!!!!!!!!!!!!!!!!!!!!!!!!!!!!!!))'')))!!!!!!!!!!!!!!!!!!!!!!!!!!!!!!!!!!!!!!!!!)$.+..         ",
"          .@+.$,>,'))!!!!!!!!!!!!!!!!!!!!!!!!!!!!!!!!!!!!!!!!!!!))))))!!!!!!!!!!!!!!!!!!!!!!!!!!!!!!!!!!!!!!!!!!!)$++..         ",
"          .+..$>,'')!!!!!!!!!!!!!!!!!!!!!!!!!!!!!!!!!!!!!!!!!!!!!!)!))!!!!!!!!!!!!!!!!!!!!!!!!!!!!!!!!!!!!!!!!!!!!&.@..         ",
"          .+..$>>''))!!!!!!!!!!!!!!!!!!!!!!!!!!!!!!!!!!!!!!!!!!!!!!!!!!!!!!!!!!!!!!!!!!!!!!!!!!!!!!!!!!!!!!!!!!!!!*.+..         ",
"          .+..$>,'')!!!!!!!!!!!!!!!!!!!!!!!!!!!!!!!!!!!!!!!!!!!!!!!!!!!!!!!!!!!!!!!!!!!!!!!!!!!!!!!!!!!!!!!!!!!!!)&.+..         ",
"          ..+.$>>,)!)!!!!!!!!!!!!!!!!!!!!!!!!!!!!!!!!!!!!!!!!!!!!!!!!!!!!!!!!!!!!!!!!!!!!!!!!!!!!!!!!!!!!!!!!!!!!!$++..         ",
"          ..+.$>,'')!!!!!!!!!!!!!!!!!!!!!!!!!!!!!!!!!!!!!!!!!!!!!!!!!!!!!!!!!!!!!!!!!!!!!!!!!!!!!!!!!!!!!!!!!!!!!!$+...         ",
"          ..+.@>>'))!!!!!!!!!!!!!!!!!!!!!!!!!!!!!!!!!!!!!!!!!!!!!!!!!!!!!!!!!!!!!!!!!!!!!!!!!!!!!!!!!!!!!!!!!!!!!!$@...         ",
"           .@.#-,,')!!!!!!!!!!!!!!!!!!!!!!!!!!!!!!!!!!!!!!!!!!!!!!!!!!!!!!!!!!!!!!!!!!!!!!!!!!!!!!!!!!!!!!!!!!!!!)##...         ",
"           .+..%>'))!!!!!!!!!!!!!!!!!!!!!!!!!!!!!!!!!!!!!!!!!!!!!!!!!!!!!!!!!!!!!!!!!!!!!!!!!!!!!!!!!!!!!!!!!!!!!'#$...         ",
"           ....$>,'))!!!!!!!!!!!!!!!!!!!!!!!!!!!!!!!!!!!!!!!!!!!!!!!!!!!!!!!!!!!!!!!!!!!!!!!!!!!!!!!!!!!!!!!!!!!!*@$...         ",
"           ..+.@>'')!!!!!!!!!!!!!!!!!!!!!!!!!!!!!!!!!!!!!!!!!!!!!!!!!!!!!!!!!!!!!!!!!!!!!!!!!!!!!!!!!!!!!!!!!!!!!$$+..          ",
"           ....@=,'))!!!!!!!!!!!!!!!!!!!!!!!!!!!!!!!!!!!!!!!!!!!!!!!!!!!!!!!!!!!!!!!!!!!!!!!!!!!!!!!!!!!!!!!!!!!>$%...          ",
"            ....%>'))!!!!!!!!!!!!!!!!!!!!!!!!!!!!!!!!!!!!!!!!!!!!!!!!!!!!!!!!!!!!!!!!!!!!!!!!!!!!!!!!!!!!!!!!!!!*$$...          ",
"            ....@;,')!!!!!!!!!!!!!!!!!!!!!!!!!!!!!!!!!!!!!!!!!!!!!!!!!!!!!!!!!!!!!!!!!!!!!!!!!!!!!!!!!!!!!!!!!!,$%...           ",
"            .....%''))!!!!!!!!!!!!!!!!!!!!!!!!!!!!!!!!!!!!!!!!!!!!!!!!!!!!!!!!!!!!!!!!!!!!!!!!!!!!!!!!!!!!!!!!!*$$...           ",
"             ....@-'))!!!!!!!!!!!!!!!!!!!!!!!!!!!!!!!!!!!!!!!!!!!!!!!!!!!!!!!!!!!!!!!!!!!!!!!!!!!!!!!!!!!!!!!!'$%...            ",
"             .....%'')!!!!!!!!!!!!!!!!!!!!!!!!!!!!!!!!!!!!!!!!!!!!!!!!!!!!!!!!!!!!!!!!!!!!!!!!!!!!!!!!!!!!!!!!=%$...            ",
"              ....@-'))!!!!!!!!!!!!!!!!!!!!!!!!!!!!!!!!!!!!!!!!!!!!!!!!!!!!!!!!!!!!!!!!!!!!!!!!!!!!!!!!!!!!!!>&&...             ",
"               ....$>')!!!!!!!!!!!!!!!!!!!!!!!!!!!!!!!!!!!!!!!!!!!!!!!!!!!!!!!!!!!!!!!!!!!!!!!!!!!!!!!!!!!!!)*%@...             ",
"               .....&>))!!!!!!!!!!!!!!!!!!!!!!!!!!!!!!!!!!!!!!!!!!!!!!!!!!!!!!!!!!!!!!!!!!!!!!!!!!!!!!!!!!!)-&%...              ",
"                .....&,)!!!!!!!!!!!!!!!!!!!!!!!!!!!!!!!!!!!!!!!!!!!!!!!!!!!!!!!!!!!!!!!!!!!!!!!!!!!!!!!!!!)-&&...               ",
"                 .....&,)!!!!!!!!!!!!!!!!!!!!!!!!!!!!!!!!!!!!!!!!!!!!!!!!!!!!!!!!!!!!!!!!!!!!!!!!!!!!!!!!)-&&...                ",
"                  .....&,)!!!!!!!!!!!!!!!!!!!!!!!!!!!!!!!!!!!!!!!!!!!!!!!!!!!!!!!!!!!!!!!!!!!!!!!!!!!!!!)-*&...                 ",
"                  ......&,))!!!!!!!!!!!!!!!!!!!!!!!!!!!!!!!!!!!!!!!!!!!!!!!!!!!!!!!!!!!!!!!!!!!!!!!!!!!'=*&....                 ",
"                   ......$;)!!!!!!!!!!!!!!!!!!!!!!!!!!!!!!!!!!!!!!!!!!!!!!!!!!!!!!!!!!!!!!!!!!!!!!!!!)-=*%...                   ",
"                    ....+.#&'!!!!!!!!!!!!!!!!!!!!!!!!!!!!!!!!!!!!!!!!!!!!!!!!!!!!!!!!!!!!!!!!!!!!!!!,=&*#...                    ",
"                      ...+..$;)!!!!!!!!!!!!!!!!!!!!!!!!!!!!!!!!!!!!!!!!!!!!!!!!!!!!!!!!!!!!!!!!!!!)-**&....                     ",
"                       ...++.#&')!!!!!!!!!!!!!!!!!!!!!!!!!!!!!!!!!!!!!!!!!!!!!!!!!!!!!!!!!!!!!!!!,=&*%....                      ",
"                        ....+..$>)!!!!!!!!!!!!!!!!!!!!!!!!!!!!!!!!!!!!!!!!!!!!!!!!!!!!!!!!!!!!!)-***+....                       ",
"                         .....+.#&')!!!!!!!!!!!!!!!!!!!!!!!!!!!!!!!!!!!!!!!!!!!!!!!!!!!!!!!!!!,=&*%....                         ",
"                           ....+..$>))!!!!!!!!!!!!!!!!!!!!!!!!!!!!!!!!!!!!!!!!!!!!!!!!!!!!!!)-***+....                          ",
"                            .....+.#&>!!!!!!!!!!!!!!!!!!!!!!!!!!!!!!!!!!!!!!!!!!!!!!!!!!!!!,=&*%....                            ",
"                              ....+..#&'!!!!!!!!!!!!!!!!!!!!!!!!!!!!!!!!!!!!!!!!!!!!!!!!!)-***+....                             ",
"                               .....+..$>)!!!!!!!!!!!!!!!!!!!!!!!!!!!!!!!!!!!!!!!!!!!!!!,=&*%....                               ",
"                                 ....++.#&>)!!!!!!!!!!!!!!!!!!!!!!!!!!!!!!!!!!!!!!!!!!'-***.....                                ",
"                                  .....+..#&))!!!!!!!!!!!!!!!!!!!!!!!!!!!!!!!!!!!!!!)-***$....                                  ",
"                                    .....+..&'!!!!!!!!!!!!!!!!!!!!!!!!!!!!!!!!!!!!!)-%*&.....                                   ",
"                                      ....+..$>))!!!!!!!!!!!!!!!!!!!!!!!!!!!!!!!!!);&*$....                                     ",
"                                       .......#&')!!!!!!!!!!!!!!!!!!!!!!!!!!!!!!!,=**.....                                      ",
"                                         .......&'!!!!!!!!!!!!!!!!!!!!!!!!!!!!!)-**&....                                        ",
"                                          .......$;)!!!!!!!!!!!!!!!!!!!!!!!!!!)-&*$....                                         ",
"                                            ....+.@&')!!!!!!!!!!!!!!!!!!!!!!!)-&*@...                                           ",
"                                             ....+..&')!!!!!!!!!!!!!!!!!!!!!);&&....                                            ",
"                                               ......&')!!!!!!!!!!!!!!!!!!!)-&&....                                             ",
"                                                ......&')!!!!!!!!!!!!!!!!!);&&...                                               ",
"                                                 ......&'))!!!!!!!!!!!!!!);*&...                                                ",
"                                                  ......&')!!!!!!!!!!!!!);&%...                                                 ",
"                                                    .....&,)!!!!!!!!!!!)-*%...                                                  ",
"                                                     .....&')!!!!!!!!!);*&...                                                   ",
"                                                      .....&')!!!!!!!);*%...                                                    ",
"                                                       .....%')!!!!!)-&&...                                                     ",
"                                                        .....&'))!!);*&...                                                      ",
"                                                         ..+..$>)!)-*&...                                                       ",
"                                                          ..+..*')>=&...                                                        ",
"                                                          ...##@;;*&...                                                         ",
"                                                           ...$%%*@...                                                          ",
"                                                            ...#$.....                                                          ",
"                                                             ........                                                           ",
"                                                              ......                                                            ",
"                                                              .....                                                             ",
"                                                               ....                                                             ",
"                                                               ...                                                              ",
"                                                                ..                                                              ",
"                                                                .                                                               ",
"                                                                                                                                ",
"                                                                                                                                ",
"                                                                                                                                ",
"                                                                                                                                ",
"                                                                                                                                ",
"                                                                                                                                ",
"                                                                                                                                ",
"                                                                                                                                ",
"                                                                                                                                ",
"                                                                                                                                ",
"                                                                                                                                ",
"                                                                                                                                ",
"                                                                                                                                "};
