/* XPM */
char * heart_2_xpm[] = {
"128 128 17 1",
" 	c None",
".	c #000000",
"+	c #1F0402",
"@	c #2D0604",
"#	c #500304",
"$	c #600004",
"%	c #750000",
"&	c #6B0402",
"*	c #800000",
"=	c #1D1E1C",
"-	c #532C2C",
";	c #3F3D3A",
">	c #813230",
",	c #656663",
"'	c #986766",
")	c #7B7D7A",
"!	c #AA8B8B",
"                                                                                                                                ",
"                                                                                                                                ",
"                                                                                                                                ",
"                                                                                                                                ",
"                                                                                                                                ",
"                                                                                                                                ",
"                                                                                                                                ",
"                                                                                                                                ",
"                                                                                                                                ",
"                                                                                                                                ",
"                                                                                                                                ",
"                                                                                                                                ",
"                                                                                                                                ",
"                                                                                                                                ",
"                                                                                                                                ",
"                                                                                                                                ",
"                                                                                                                                ",
"                                                                                                                                ",
"                                                                                                                                ",
"                                                                                                                                ",
"                                   ......                                                                                       ",
"                              ;;;;,,;,;;==...                                         =;=;===.....                              ",
"                           ;;,,)),;;;=;;;;;==...                                   ;;,,,),,,,;;;=....                           ",
"                         ;,)),;.............;==...                              ;,,)),;=......==;=;=...                         ",
"                        ,,),=...........+......=...                            ,,),;................==...                       ",
"                      ;,!)=...++@>>>>$$&#@++....==...                        ;,!,=....+.@@@++.........=....                     ",
"                     ;));...+->'''''''>>$&$$#@....=...                      ,))=...+@->>>>>#>###@@+.........                    ",
"                    ;))...+--'''!!!'''''>>>$$&#@.......                   ;,),...+--'''''''''>'>&$##@........                   ",
"                   ;))...+>'!!!!!'''>>>>'>>>&$$$#+......                 ;)!=..+->''!!!!'''''''>'>$$$#@.......                  ",
"                  ;,)..+@'!!!!!'>>$&$&&%&>>>>&&$&#@......               ;,)...+>'!!!!'''>'>>>>>>>>>>$&$#+......                 ",
"                 ;,)..@>'!!!!'>>&&%%%%%&%*%%%>&%&$$#+.....             ;,)...@>'!!!''>>>$%$&&&&&>&>$&&$$#@......                ",
"                 ;)=..>'!!!'>>$%%%%&%%%**%*%%*%&%%&$#@.....           ;,)...->!!!!'>>&&%%&%*%%%%%%%%&&%&&$#......               ",
"                ;,;..@''!!'>$&%%%%***%*%*%**%*%>%%%%&#@.....          ;)...@>'!!!>>$%%%%*%%%**%**%*%%>%&%$$#.....               ",
"               =,,..@>'!!>>&%%%%*%**************%%&%%&$+.....        ;,;..->!!!'>>%&%%%*%****%***%****%%%%$#@.....              ",
"               ;,=.+#''!>>&%%%%%******************>%%&&#+....       ;,;..@>!!!'>>%%%*%*%****************&%%&#+.....             ",
"              .,;..@>'!'>&%%%**********************%*%%&@.....      ,)..@'!!!!>>&%%%*%****************%**%%%$#.....             ",
"              =,..+$'''>>%%**************************%*%&@.....    ,,..@>!!!'>>%%%*%**********************%%&$@.....            ",
"             .;;..@>'''>%%%%*************************%*%&$+....   ,);..;!!!'>>&&%*%************************%%&#.....            ",
"             =,..+#'''>&&%****************************%%%%#..=..  ),..+!!!'>>%%%%**************************%%&$@.....           ",
"             =;.+@>''>>%%%******************************%&&@..;, ,,...'!!'>%&%*******************************%$#.....           ",
"            .;;.+$>''>>*%*%******************************%%$+.=,,;...;!!>>&&%&%%*****************************%&$+....           ",
"            .;..+$>''&%%%*********************************&&#...=...+'!>>$&%%********************************%%$@.....          ",
"            =;..@>''>%%**%*********************************%&@.....=,!'>$&%%%*********************************%&#.....          ",
"           .=;.+#$''>%%%************************************%&@....=!'>>&%%%*%********************************%&$+....          ",
"           .;..+$>'>&%%%*********************************%***&$=...)''>$&%%%**********************************%%$@....          ",
"           .;..+$>'>%&**************************************%%>@..-''>>&%&%************************************%&#.....         ",
"           .;..@&>'>%%%*************************************%*>>=+->$$$%%*%************************************%&$+=...         ",
"           .=.+#$'>>&*****************************************%&@@>$&&&%&%%***********************************%%&$+....         ",
"           .=.+$>>>>*%%****************************************%$&&%&&&%***************************************%&$+.=..         ",
"          .==.+$$'>%%************************************%****%*%%&&&%%%%*************************************%%%#+.=..         ",
"          .==.+&&>>%&******************************************%*%%%&%%%*%*************************************&%$..=..         ",
"          .=..@$$>>%*%******************************************%%%%%&*%%**************************************%&$+.=..         ",
"          .==.+$&>>**%*******************************************%*%***%***************************************%&&@.=..         ",
"          .=..@$%>>&******************************************%***%*%%****************************************%%&$@.=..         ",
"          .=..+$$>>*%*********************************************%**%*****************************************%&$@.=..         ",
"          ....+$%>%&*******************************************************************************************%$$+=...         ",
"          ..=.+$$&>%*%****************************************************************************************%%&$+=...         ",
"          ..=.+$&%>%******************************************************************************************%%$$+=...         ",
"           .=.+#$%&%******************************************************************************************%%$#.;...         ",
"           .=..@$&%%%******************************************************************************************&&#+;...         ",
"           ....+$&%%%********************************************************************************%*******%%&$@;;...         ",
"           ....+#&&%%***************************************************************************************%%%$#+;=..          ",
"           ....+#$&%%%***************************************************************************************%%$#=,...          ",
"            ....@$$%%***************************************************************************************%%$#@;;...          ",
"            .....#&&%**************************************************************************************%&&$#+,...           ",
"            .....@$&%%************************************************************************************%*%$#@;;...           ",
"             .....#$%&************************************************************************************%%&$#+)...            ",
"             .....@$$%%***********************************************************************************%&&#@,;...            ",
"              .....#$&%%%******************************************************************************%*&%$$#;,...             ",
"               ....+#$&%******************************************************************************%*%%&$@-,=...             ",
"               .....@#$&%%****************************************************************************%%%$$$-,,...              ",
"                .....@#&%%%**************************************************************************%%%$##-,,...               ",
"                 .....@#&&%*%*********************************************************************%*%%&&$#-),...                ",
"                  .....@#$&%%********************************************************************%*%&&$##-),...                 ",
"                  ......@#$&%%%******************************************************************%%%&$##;),....                 ",
"                   ......+#$&%%%%************************************************************%**%%&&$#-,!,...                   ",
"                    ....=..@#&&%***%*********************************************************%%%&$$##;,)=...                    ",
"                      ...=..+#$&%%%*%********************************************************%%&&$#--))....                     ",
"                       ....=..@#$&%%******************************************************%%%&$$##;,!,....                      ",
"                        ....=..+#$&%%&*%**************************************************%%&$$#-;)).....                       ",
"                         .....=..@#$&%%%***********************************************%%%&&&##-,!,....                         ",
"                           ....=..+#$&&%%*%********************************************%%$$$#-;))=....                          ",
"                            .....=.+@#$&&%%*%***************************************%%&%&&$#;,),....                            ",
"                              ....=...@#&&%%*%***********************************%*%%&&&##-;))=....                             ",
"                               .....=..+#$$&%%************************************%%&&###;)),+...                               ",
"                                 .....=..@#&&%%%*******************************%*%%&&$#--)).....                                ",
"                                  .....=..+@$$%%********************************&%$$#=;));+...                                  ",
"                                    .....=..@#$&%%%**************************%%%&&##-,!).....                                   ",
"                                      .......+#$&%%*************************%*&&&#$-));....                                     ",
"                                       ........@$$&%%**********************%%%%$##-)).....                                      ",
"                                         .......@#$&%%*******************%*%&&$#-;),....                                        ",
"                                          .......+#$&%&*******************%&&##-,!;....                                         ",
"                                            .......@$$%%****************%%%$$#-,)=...                                           ",
"                                             ....=..@$$&&*************%*%%&##-))....                                            ",
"                                               ......@#&%%***********%*%&$$#-,)....                                             ",
"                                                ......@$$%&***********&%&$#-),...                                               ",
"                                                 ......@#&&%*%*******%%$$#-),...                                                ",
"                                                  ......@#&&%*****%*%&$$#-),...                                                 ",
"                                                    .....@$$%%*****&%&$#-),...                                                  ",
"                                                     .....@#$%%*%*%%$$#-,,...                                                   ",
"                                                      .....@#&%%%*%&$#;),...                                                    ",
"                                                       .....@$&%%%&&#-),...                                                     ",
"                                                        ..=..@$&&&&#-),...                                                      ",
"                                                         ..=..+$&&#-),...                                                       ",
"                                                          ..=..@$$-))...                                                        ",
"                                                          ...=;+##,,...                                                         ",
"                                                           ...;,;-;...                                                          ",
"                                                            ...;;.....                                                          ",
"                                                             ........                                                           ",
"                                                              ......                                                            ",
"                                                              .....                                                             ",
"                                                               ....                                                             ",
"                                                               ...                                                              ",
"                                                                ..                                                              ",
"                                                                .                                                               ",
"                                                                                                                                ",
"                                                                                                                                ",
"                                                                                                                                ",
"                                                                                                                                ",
"                                                                                                                                ",
"                                                                                                                                ",
"                                                                                                                                ",
"                                                                                                                                ",
"                                                                                                                                ",
"                                                                                                                                ",
"                                                                                                                                ",
"                                                                                                                                ",
"                                                                                                                                "};
