/* XPM */
char * help_2_xpm[] = {
"128 128 17 1",
" 	c None",
".	c #410100",
"+	c #560000",
"@	c #5D0000",
"#	c #600000",
"$	c #680002",
"%	c #6B0000",
"&	c #750000",
"*	c #7A0001",
"=	c #800000",
"-	c #830502",
";	c #880E0E",
">	c #8F1B1C",
",	c #993232",
"'	c #A5494A",
")	c #B16060",
"!	c #BC7879",
"                                                                                                                                ",
"                                                                                                                                ",
"                                                                                                                                ",
"                                                                                                                                ",
"                                                                                                                                ",
"                                                                                                                                ",
"                                                        &&&&&&&&&&&&&&%%                                                        ",
"                                                    &&&&&&&&&&&&&&&&&&&&%&&%                                                    ",
"                                                  &&==&=&=&====&&=&&&=&*&&&&%%%                                                 ",
"                                               &**==&&=&==-*&*&=-&==&*=*&&&&&&%&%%                                              ",
"                                              =**&&=====*;>>>>;;-*=-=*====&=&*&&%%%%                                            ",
"                                            **&====*;,'')'''''''',,,,>;=&==*=*&&&&%%%                                           ",
"                                          *&****=*,'))!)))'',,,,,,,>,,,>,>=**=***&&%%%$                                         ",
"                                         **=*==;')!!!)',,>>;;-=====;=;;>>>>>;===*=&&%%%$                                        ",
"                                        **&=*=')!!!'',>;;===-============;;;;;*=*=**&&%%$                                       ",
"                                       ***=*,)!!!),,;;;-====================*;;-==**&%&%%$                                      ",
"                                     ***=*='!!!)',;;=======================-==;*;====&&&%%$                                     ",
"                                    &**=*>)!!!',>;;============================-=======&&%#$                                    ",
"                                    ***=,!!!)',;=====================================&&&&&%$#                                   ",
"                                   **=*,!!!),>;;-=================*=====*===============*%%%$@                                  ",
"                                  ****>)!!',>;=====================&**=**================*&%%#                                  ",
"                                 &***;!!!),>;================*=&**&***&=**==============**&%%$#                                 ",
"                                 *=*='!!),>-================****&&&%%&&**&*==*===========*&&%$$+                                ",
"                                ***=,!!),>-=============&==**&&$%%%%%%%&&&*=*==============&%%#+                                ",
"                                ***=)!!,>;=============-***&&&%%%#%$$$$%%&&&=*==-========&&*&%%$+                               ",
"                               &**=,!!'>;===============**&&%#$@@#@++@#%%$&&&===;*=========*&&%#+                               ",
"                               &*=='!),>==============**&&&%%#@+++.    .@#&&&===-;=========*&%%%#.                              ",
"                               &**=))'>============*=***&%##+@+.         +$%&&**;;;=========&&%#$@                              ",
"                              *&*=;)),;-==============*&%%##++            +%&&*=;>;==========&%%@#                              ",
"                              &&*=>)'>;============*&*&%%@@+.              %&&***>;=========*&&%$#.                             ",
"                              &&*=;)'>==============*&%%#+#.                %**==>>===========&%$$+                             ",
"                              &&=*;',;=============*&%%$@@.                 %&&**>>;=========&&%%@+                             ",
"                              &&*&;',;==========&&=&%%@+++                  %&**->,*=========*&&$#@                             ",
"                              &&*==,,==========*==&&%$@++                   %&&*&>,;=========*&%%#@                             ",
"                              &&*==>,*-========*&*%%#@@+                    $&**=>,;==========&&%#@.                            ",
"                              %%**=;>-======*=*=&%%$#++.                     &&**>'>=========*&%%#@.                            ",
"                              &&&&*=;-=======**&%%$+++.                      &*==>,>==========&&%##+                            ",
"                              %&&&**-=====*=**&&%%+@+.                       &&&*,'>===========&%$@+                            ",
"                               %%&&***=*&=&*&%%$##++.                        &**=,'>=========*&&%#@+                            ",
"                               %%&&&***==*&&&%%#@++.                         &*==,'>=========*&&%%@+                            ",
"                                %%$%&&&&&&%$%#@+++                           &*==''>==========&&%#@+                            ",
"                                %%%%%&&%%%%%$#+++                            **=>''>=========*&&%%++                            ",
"                                 $%$#$%%%$$++@+.                            &*&=,)'>=========*&&%#@+                            ",
"                                  @$%@#%#@@@++.                             **==')'>==========*&%$++                            ",
"                                    ##+@@+++.                               **&')),**=========&&%#+.                            ",
"                                      ++++.                                ***>)!),>-=======**&%%#@+                            ",
"                                                                          **=='!!'>-=========*&%$@+.                            ",
"                                                                         **=*,!!),>;========**&%#@+                             ",
"                                                                        *=*=,!!!',;**=========&%$@@                             ",
"                                                                      ****=,!!!)'>--========&&&%@++                             ",
"                                                                    ***=*=,!!!),>>==========&&%%#++                             ",
"                                                                 &&&**=*='!!!)',;-===========&%$@+.                             ",
"                                                              &&=&=*===>)!!!),>;;==========&&&%@++                              ",
"                                                          &&&&==&=&=*>'!!!!',>;*============&%##@+                              ",
"                                                        *====&&====>')!!!''>>>-*==========*=&%#@+.                              ",
"                                                      ***&&&===*>,')!!))',>>;=-==========*=&%%#++                               ",
"                                                     ***=====>,')!)!)''>>;-==============&&%%$@+.                               ",
"                                                    ***=**>')))!))',,,;>;--=============***%%@@+                                ",
"                                                    ****='!!)))',,>>====-================*&%@++.                                ",
"                                                    ***=,!!)),,>;*;===================***&%#@@+                                 ",
"                                                    &**='!),>;**=====================***&%%@++                                  ",
"                                                   &&*==))'>*=========================*&%%@@+.                                  ",
"                                                   *&&&='),=========================**&%%#+@+                                   ",
"                                                   &&*==,'>========================&**%%#@@+                                    ",
"                                                   &&&&&,'>====================**&**%%$#+++                                     ",
"                                                   &&*=-,,>==============*==*=***&*%%$@@@+.                                     ",
"                                                   &&*==,'>===============*=&**&&&%%$@+++.                                      ",
"                                                   &&*&-,'>============*=&=*&%&%%%$#@+++                                        ",
"                                                   &&=&*,,>============&=&&&&%%%#@#+@++                                         ",
"                                                   &&&=-,'>==========*==&&%%%$#@@@@++.                                          ",
"                                                   &&&*=,,>===========**&&%%@#+#+++.                                            ",
"                                                   &&&==,'>==========&**&%$#@@+..                                               ",
"                                                   &&&&=,'>==========*&&%$@                                                     ",
"                                                   %&&==,,;*=========**%%#+                                                     ",
"                                                   &&*==>'>===========*&%@+                                                     ",
"                                                   &&***>,>=========*&&%$#+                                                     ",
"                                                   &%&**->>==========**%$@+                                                     ",
"                                                    &&**=>;=========*=%%#++                                                     ",
"                                                    %&*&*===========**%%#++                                                     ",
"                                                    &%&*=&*=========**&%%@+                                                     ",
"                                                    %%&%***=*===*===*&%#@++                                                     ",
"                                                     %%&%&*&*&*&***&&&%#@@.                                                     ",
"                                                     %$%%%&&&&&&*&&*%%#@++                                                      ",
"                                                      #%%%%%&&&&&&%%%##@@+                                                      ",
"                                                       #$##%%%%%%%%%#@@@+                                                       ",
"                                                        @#%#$%%$#%#@#+++.                                                       ",
"                                                          +$#%%%%####@+                                                         ",
"                                                             ++##+++.                                                           ",
"                                                                                                                                ",
"                                                                                                                                ",
"                                                                                                                                ",
"                                                                                                                                ",
"                                                          **=*===*&%                                                            ",
"                                                        *****=*&&&&%%%                                                          ",
"                                                      *********==&&&&%%                                                         ",
"                                                     ***=*==*==*&==&&%%$                                                        ",
"                                                    *****=;>,>;==*=&&%%%$                                                       ",
"                                                   *&*==*)))))',>====&%%##                                                      ",
"                                                   =***>)!!)'',,,;*&*&%&$#                                                      ",
"                                                  &&**=)!!),>;*==*==**&%#$@                                                     ",
"                                                  &*==,!!',>;-==-=====&&%@#                                                     ",
"                                                  &**='!),;===========&%%$@+                                                    ",
"                                                 *&**='!';;===========&&%#@+                                                    ",
"                                                 &&**-'',;=============&%%@@                                                    ",
"                                                 &***-''>*============&&%$@@                                                    ",
"                                                 &&***,'>-===========*=&%$#@                                                    ",
"                                                 &&&*=>,>============&*&%$+@                                                    ",
"                                                 &&&=*=,;=============&&%##+                                                    ",
"                                                 $&&&==>;;============&%%#@+                                                    ",
"                                                  %%*&==*============*&%%#@+                                                    ",
"                                                  &&&&&*============*&&%%++.                                                    ",
"                                                  %%%&*============***%#@@+                                                     ",
"                                                   &$%&&**=*===*****&%%@@@+                                                     ",
"                                                   #%%$&&&&&**&***&&%%@@++                                                      ",
"                                                    %%$%%&&&&&&&%&%%%#@++.                                                      ",
"                                                     $#%%%%%&%&%%%%%#++@.                                                       ",
"                                                      #%@$%%%#$%$$#+@@++                                                        ",
"                                                       +##@@%##$#++@++.                                                         ",
"                                                         +++@@++@@++.                                                           ",
"                                                                                                                                ",
"                                                                                                                                ",
"                                                                                                                                ",
"                                                                                                                                ",
"                                                                                                                                ",
"                                                                                                                                ",
"                                                                                                                                ",
"                                                                                                                                ",
"                                                                                                                                "};
