/* XPM */
char * help_xpm[] = {
"128 128 17 1",
" 	c None",
".	c #0D1927",
"+	c #0F1E31",
"@	c #132A45",
"#	c #1A2E4C",
"$	c #143254",
"%	c #203357",
"&	c #193659",
"*	c #1E3A5C",
"=	c #203962",
"-	c #1A3C64",
";	c #2D476B",
">	c #3A5275",
",	c #506484",
"'	c #697A95",
")	c #7E8CA5",
"!	c #8E9AAD",
"                                                                                                                                ",
"                                                                                                                                ",
"                                                                                                                                ",
"                                                                                                                                ",
"                                                                                                                                ",
"                                                                                                                                ",
"                                                        *&&**&*&&&&&&%&%                                                        ",
"                                                    ****%%%%%%%%%%%%%&%&&&%%                                                    ",
"                                                  *%=%%***--*-*;-******%%&&%%%$                                                 ",
"                                               &**%*%--=-=--=*--*---=%=-***&&&%&%$                                              ",
"                                              %=%-=-;%-=;>>>>>;;;;=---**==--**%&#&%#                                            ",
"                                            *=-*-*--;,''''''''',',,,,>>=-**%=%**%#&%$                                           ",
"                                          *%**=*=;,'))))''',,,,,,,,,,,,,>>;-*==-%*&%&$#                                         ",
"                                         *%-;==;')!!)'',,>>;;;*=-*--;=;;>>>>;**;-%**##$#                                        ",
"                                        %**=*;')!!)'',>>;--=-=-%=*==--;-;=;;>;;**=%*%*%$$                                       ",
"                                       *-==-,)!!!',,;;;===;-%----=***=-==-=;=;=;--;=%*#%#$                                      ",
"                                     *%*--;')!!),,>;--**;=--=;---=;=;=--;-====;;;=--***%#$#                                     ",
"                                    *=-=*>)!!)',>;;-*===--=--=-;=-==--*==;--;*===-;===%*%%%#                                    ",
"                                    ***=,)!!),,>;-==;--==;-*-;=-=;-=*=;-==-==---;=;--;=**$$$#                                   ",
"                                   *===,!!!),>;**;---==-*-;===-*-=-;=-----;--;=*=-=*=--=%%%##@                                  ",
"                                  %*%-,)!!',>;;==*==-;*===-*;==--*=-==%=*=--=*=-=-=;==-;**%&##                                  ",
"                                 *-;-;)!!',>;-=--=;-*-=---===-=*-=*%****==*=;=--;*--;*=--%*#%$#                                 ",
"                                 %=*='!!',;;--==;-*=;--;=-;-*-**%%*%%*%**=-=-==-===-=*==;=*%###@                                ",
"                                **%=,!!',>;-;=--===-====*--*=*%%&*%#&=*%%**--;*=;--=;=---*=*%$%#                                ",
"                                *--;)!),>;-=-;*---;--;-=;=%*%%*#%#$##$$#%%*%-=-=;;----;-=--*%###@                               ",
"                               *%*=>!!'>;==-*==--===----=**%%$##@@@####&#*%*%---=;-==*==;==%*&%#@                               ",
"                               *%--'!',;;*==-;=;---;=*%;%=*####@@@.    +@#%***=*;;--=;-=-;-%%*%##+                              ",
"                               =**-')'>;-=;--=-=-=-=-=*%**#$###+         @*#*%;=;;;-----*-;-*%#%#@                              ",
"                              *%=;;)),;=--==-;-*-;-*---*#%@@#+            #%**-=;>;===-==---**#%##                              ",
"                              %**=>''>-;-=;*-===*===;%*%#@#@+              $%=%-=>>--;=--=-=-%*#%#+                             ",
"                              -%%->'';-=--==-;==;--%*%*%##@+                %*%-=>>;-*=;-;*=-%*###@                             ",
"                              %*--;',;=;-=-;----=;=***#@@@+                 $-***>>;==-=*==;-*%%$#@                             ",
"                              %%%*;,,;-%-;-%=-=-=*=%*%##@@                  #%%=;>>;-;-=---*=-*%###                             ",
"                              ***--,,;=--==--;---=*&##@#@                   %**%=>,;-=-;=-==-**%%##                             ",
"                              =*%;*>,*-;---;=***-%*%#@@@                    %%*-;>,;-==-=;--==*$##@+                            ",
"                              #%*==;>;-=---=-===%*####@.                     *-%=>,>-*-;*-;=--*%%##+                            ",
"                              *%%*%=;;-=;*-*=-;*&%#@@@.                      %**;>'>=-====*;*=*%%##+                            ",
"                              %&*%**===*==;=*%%%####@.                       *%==>'>-=----===*%&$%##                            ",
"                               &&-%*;*=--=-=*&&###@@.                        ****>'>*;--=-;==;*%###@                            ",
"                               #%%&=%=-;=*%*%%###+@.                         -===,'>===;------%*&#@@                            ",
"                                &$%&**%&=&%&$####@                           **--,'>-;=*==-==-%%%#@@                            ",
"                                ###$%%*%%#####@@@                            %*->''>---=-;=;--*&###+                            ",
"                                 #%##%##*####@@+                            *%=;,''>==-;-*--==*%%##@                            ",
"                                  @$%##%@##@@@.                             %*;=')';-;=====*;*%*###+                            ",
"                                    ##@##@@#+                               %=*,)),>------;==*=&%##+                            ",
"                                      @+@++                                *-*>)!',;=*---==--=*%###+                            ",
"                                                                          =*=='!!'>;=*;=-;-*;%*&###.                            ",
"                                                                         =*=-,!!),>;-==;-===-*%*%#@                             ",
"                                                                        *===,!!!',;---=*---=-*%####                             ",
"                                                                      *=*-*,!!!',>=;==-==;=-=*%%##+                             ",
"                                                                    *%*=;=,)!!),>;=-;--;=--;=&&%##+                             ",
"                                                                 =&=%-==='!!!),,;;-*-;=--**-*&$@##+                             ",
"                                                              ***%*-***,'!!!''>>*;===-=====%%%%#@@                              ",
"                                                          ****%%%-=;=>'!!!)',>;*==---*-;-;--**##@+                              ",
"                                                        *=%%%-*-;-=>'))!!)'>>;=--=;==--==-**%&#@#+                              ",
"                                                      **%*---;=*;,'))))),,>>;=;==-=;-;=--*=%%#@#@                               ",
"                                                     %=-=*--=>,')))))',,>;;-*=*;*--==--==;**%#@@+                               ",
"                                                    -****=>'')))))',,>>;;-=*=-=-=-=--*;--%%###@@                                ",
"                                                    ====-')!))'',>>>;**-**=;--=-;-*===*****&##@+                                ",
"                                                    **-;,!!)',,;;;*-;==;==--=--==;=;-;==%-%#@@@                                 ",
"                                                    %%=*'!),>;;*-===--=--==;=;--=--==--*%%##@+                                  ",
"                                                   ***;='!,>;*-=;---=--=;---*=;=-==--=%**##@#+                                  ",
"                                                   %*---'',*;=-=-*--;=-=--==-=*---;-**=%$#@#@                                   ",
"                                                   *=%%-,'>==*--;=;*=;-=*;----=;**=*%*%###@@                                    ",
"                                                   &**%-,'>-=;*=-==--*-==--;--===-%*=&##@@@                                     ",
"                                                   %*--*,,>=-====--===;--;%=*---*%*-####@@.                                     ",
"                                                   %%*=*,,>---;-==;--==;=-*=***=*%#&##@@++                                      ",
"                                                   *&;-=,'>;==-*;--;=--=**=*%=%%*&###@#@                                        ",
"                                                   &%%--,,;--==-*==-=;*==*=%%%######@@+                                         ",
"                                                   &****,'>;-;-==--*-===**%*#$####@@+.                                          ",
"                                                   =*==-,,;*==-;--=;--*=%*#&###@@@++                                            ",
"                                                   #%*--,'>=---=;*-=*;=**#%@#@@+.                                               ",
"                                                   *%*=-,,>-;*====-==*==%#@                                                     ",
"                                                   %%=%-,,>===--;----=*#%#@                                                     ",
"                                                   *%**=,,>---==-;=;*%**%#@                                                     ",
"                                                   &*==->,>-=;--%=-==*%%#@@                                                     ",
"                                                   #%*%==,>-=*-;-*--=--%#@@                                                     ",
"                                                    *=*%*>;;-==-;===-*&###+                                                     ",
"                                                    %**%=%==-;-=-;*;=%%%##@                                                     ",
"                                                    *%-*;--*=-=-=-==***###+                                                     ",
"                                                    #%&&*%=;=-=-=--=*&%###@                                                     ",
"                                                     *#%%******;*--*%%$#@@+                                                     ",
"                                                     %#*%%=%%=%=%**%*####@                                                      ",
"                                                      $#$$#&&&**&%=*###@@@                                                      ",
"                                                       ###&%#$#*###&##@@#                                                       ",
"                                                        @%####%#&#%@#@#@.                                                       ",
"                                                          @%%#%#%####@+                                                         ",
"                                                             #@##@#@.                                                           ",
"                                                                                                                                ",
"                                                                                                                                ",
"                                                                                                                                ",
"                                                                                                                                ",
"                                                          *-==*-**&$                                                            ",
"                                                        **=%**=%%%%#&$                                                          ",
"                                                      *%%**%=**--*%*%$$                                                         ",
"                                                     *=*-=--;==;*-*%%%#$                                                        ",
"                                                    %*=**=>>,>>===-**%#$#                                                       ",
"                                                   **=*=;')))'',,-**%*%#$#                                                      ",
"                                                   =-=->)!!)',,,>>=;%*%###                                                      ",
"                                                  *&;*=)!!',>;-;;==--=*%#%#                                                     ",
"                                                  *%=*,!!',;;;----=--=*&###                                                     ",
"                                                  %*-='!',>*===*=-;%;*%%$#@@                                                    ",
"                                                 *%*--'),>=;--=;*=-==***%##@                                                    ",
"                                                 **%*-'),;-=;*--=-;---%%#%#@                                                    ",
"                                                 -*==-,'>;-====---=-=;**%###                                                    ",
"                                                 %=**-,,>=%---;===;=--=-###@                                                    ",
"                                                 *%**;>,>-=;------*--*%*%##@                                                    ",
"                                                 %*===*,;;*=;=*;-==;==*%%#@#                                                    ",
"                                                 %#%*=->;=-=-==*--=*-*-&%#@#                                                    ",
"                                                  %*%*-=;;=--;-==;-=*=&&##@+                                                    ",
"                                                  &&%%*=-*===--;==-;=%%$###+                                                    ",
"                                                  %%**%-==*;-==--*-=*&%##@#                                                     ",
"                                                   $%&%**=-=*;=-==-*%*##@@+                                                     ",
"                                                   #*#*%%*%*==****%=####@@                                                      ",
"                                                    $##*%*%**=%%%*%&###@@+                                                      ",
"                                                     #$$&#$%%***&%####@@+                                                       ",
"                                                      ####&###$#####@@#+                                                        ",
"                                                       #%#@#########@@.                                                         ",
"                                                         @@##@@#@@@+.                                                           ",
"                                                                                                                                ",
"                                                                                                                                ",
"                                                                                                                                ",
"                                                                                                                                ",
"                                                                                                                                ",
"                                                                                                                                ",
"                                                                                                                                ",
"                                                                                                                                ",
"                                                                                                                                "};
