/* XPM */
char * histogram_xpm[] = {
"128 128 17 1",
" 	c None",
".	c #000000",
"+	c #1E1E13",
"@	c #232408",
"#	c #3F413F",
"$	c #4F4D0F",
"%	c #666515",
"&	c #6A6C69",
"*	c #7D7A1B",
"=	c #7F7E49",
"-	c #8B881D",
";	c #96944A",
">	c #99981F",
",	c #989861",
"'	c #999B7E",
")	c #A5A256",
"!	c #ABA925",
"                                                                                                                                ",
"                                                                                                                                ",
"                                                                                                                                ",
"                                                                                                                                ",
"                                                                                                                                ",
"                                                                                                                                ",
"                                                                                                                                ",
"                                                                                                                                ",
"                                                                                                                                ",
"                                                                                                                                ",
"                                                                                                                                ",
"                                                                                                                                ",
"                                                              ......................                                            ",
"                                                              .......+######&&#.....                                            ",
"                                                              ..&&............#&+...                                            ",
"                                                              ..&...................                                            ",
"                                                              ....+@$@$@@$@@$@$.....                                            ",
"                                                              ....+$$$$$$$$$$$$+....                                            ",
"                                                              ....+$$$$$$$$$$@$.....                                            ",
"                                                              .#...$$'&$==$$$$$+....                                            ",
"                                                              .&..+$$&''==&$$$@@.+..                                            ",
"                                                              .&...$$==$$%$$$$$+.#..                                            ",
"                                                              +&..+$$$&$$%%$%$$..#..                                            ",
"                                                             .&#...$$==$%$%%%$$+.#..                                            ",
"                                            ................+#&...+$$==$%%%%$$$+.#..                                            ",
"                                            .......+#####&&'&&&....$$==%%$%%%$$+.#..                                            ",
"                                            ..&&..............+...+$$==$%%%%%$$+.#..                                            ",
"                                            ..&....................$$==%%%%%%%$+.#..                                            ",
"                                            ....+$@$@$@$@$@$@+.....$$$'$%%%%$%$+.#..                                            ",
"                                            ....+$$$$$$$$$$$$+.....$$==%%%%%$%$+.#..                                            ",
"                                            ....@$$$$$$$$$$$$+....+$$==$%%%%%$$+.#..                                            ",
"                                            ....+$$''====$$$$+.+...$$==%%%%%%%$@.#..                                            ",
"                                            .#..+$$''===,%$$$..#..+$$==%%*%*%%$+.#..                                            ",
"                                            .#..+$$==$$%%%%$$+.#...$$==$%%%%%$$+.#..                                            ",
"                                            .#..+$$==%%%%%%$$+.#..+$$==%%*%*%%%+.#..                                            ",
"                                            .#..+$$==%%%%%%%$@.#..+$$==%%%*%%%$+.#..                                            ",
"                                            .#..+$$==%%**%%%$+.#..+$$==%%*%*%%$+.#..                                            ",
"                                            .#..@$$=,%%%**%%%+.#..+$$==%%%*%%%$+.#..                                            ",
"                                            .#..+$%==%%*%*%%$@.#..@$$=,%%***%%%+.#..                                            ",
"                                            .#..@$$==%%**%%%%+.#..+%$==*%*%*%%$+.#..                                            ",
"                                            .#..+$%==*%***%%$@.#..+$%==%%****%%+.#..                                            ",
"                                            .#..+%$=,%*%***%%+.#..+%$=,%*%*%%%%+.#..                                            ",
"                                            .#..+%$==%**%*%%%+.#..+$%==*%****%$+.#..                                            ",
"                                            .#..+$%=,%%****%$@.#..@$%==%*%***%%+.#..                                            ",
"                                            .#..@$%=;%***%*%%+.#..@$$=;****%*%%+.#..                                            ",
"                                            .#..+%%==*%****%%@.#..+%%==*%***%%%@.#..                                            ",
"                                            .#..+$%=,******%%+.#..@$%==******%%+.#..                                            ",
"                                            .#..+%%==%******$@.#..@$%==%******$@.#..                                            ",
"                                            .#..@$%=,*%*-*%*%+.#..+$%=,******%%+.#..                                            ",
"                                            .#..+%%==**-***%%@.#..@%%=,%*****%%@.#..                                            ",
"                                            .#..+%%;=***-***%+.#..+%%=;**--***%+.#..                                            ",
"                                            .#..+%%=,***-***%@.#..+%%==*******%@.#..                                            ",
"                                            .#..+%%==**-*-*%%+.#..@%%;=***-***%+.#..                                            ",
"                                            .#..+%%;,**-*-**%@.#..+%%=,*-*--*%%@.&..                                            ",
"                                            .#..@%%=;**---**%+.#..+%%=;**----*%@.&..                                            ",
"                                            .#..+%%;,**---***@.#..+%%=,*-*-***%+.&..                                            ",
"                                            .#..+%%=,*----**%@.#..@%%;,**---**%@.&#.....                                        ",
"                                            .#..@*%;,**---**%+.#..+%%=,*----**%@.#&...................                          ",
"                                            .#..+%%;=------**@.#..@%%;,**-->-*%@..&......####&&&#.....                          ",
"                                            .#..@%%;,*-----*%@.#..@%*=,-----***@..#.............&&+...                          ",
"                                            .#..@%*;,*-->--**+.#..@%*=;*-->>-*%@......................                          ",
"                                            .#..@%%=)------**@.#..+*%;,-->---**@....@$$$$$$$$$$$$+....                          ",
"                                            .&..@%*=,*->->-**@.#..@%%;,--->--**@....@%%%%%%%%%%%%+....                          ",
"                                            .&..+**;)--->--**@.#..@*%;,-->->-*%@.+..@%*%%%****%%%@....                          ",
"                                            #&..@%*=)--->>--%@.#..@%*;,-->----*+.#..@%%'';,=;**%%+....                          ",
"                                           .&#..+*%;,-->>---*@.#..@%%=;-->>>>**@.#..+**,',;),***%@.+..                          ",
"        ..................................+#&...@**;,-->>---*@.#..@**;,-->->--*@.#..@%*,;-----**%+.#..                          ",
"        .......+######&&#+.......+#####&'&&&&...@%%;)-->>>-**@.#..@%*;)-->>--**@.#..+%*;,*-->--*%@.#..                          ",
"        ..&&............#&'#+.............+.+...@**=)->>>>>-*+.#..@*%;,->-!->-%@.#..@*%;,-->>>--*+.#..                          ",
"        ..&................#....................+%*;)-->>---*@.#..+**,)-->>>--*@.#..@%*;)->->>--*@.#..                          ",
"        ....@%$$$$$%$$%$$@....@$$%$$$$$%$$$@....+*%),->->>>-*@.#..@%*;;->>!>--*@.#..@*%;,>>>>>--*@.#..                          ",
"        ....@*-***%***%*%+....@**%*****%**%@....@%*;)->>!>>-*@.#..@**,)->>>>>-*@.#..+**;)-->>>>-*@.#..                          ",
"        ....@***********%+....@**********%%+....@%*,)->>>>---@.#..@%*;,->>>!--*@.#..@**;)--!>>>-*@.#..                          ",
"        ....@**'';,;,-**%+....@%*'',;;)***%@....+**;)>)>>>>-*@.#..@**))-)>>>>-*@.#..@%*,)>>-!>--*@.#..                          ",
"        .#..@**,'))))--**+.+..@**',),,)-***+.#..@%*;,>>!>>>-*@.#..@**;)>>>!>>--+.#..@**;)->!>!>-*@.#..                          ",
"        .#..+**),--->--**@.#..@**,,->>>>--%@.#..@**;)>>>!!>-*@.#..@**;,->!>!>--@.#..@**,)>-!>>>--@.#..                          ",
"        .#..@**;)->>>>>**@.#..@%*;)->>>>--*@.#..@**;,>-!>>>--@.#..@**;)>>>!>---@.#..@**;)->>!>>-*@.#..                          ",
"        .#..@**;)>>>!>>-*@.#..@**;,>->>!>-*@.#..@**))>>)!!>>*@.#..@**;))>>!!!--@.#..@**)))>!!>>--@.#..                          ",
"        .#..@**))->>!!>--@.#..@**))>>!!>>--@.#..@**;)>>!!>>--@.#..@**))-!>!>>--@.#..@**;)>>!!!>-*@.&..                          ",
"        .#..@**;))>>!!>--@.#..@**;)>>>!!>--@.#..@**,)>>!!!>--@.#..@**;)>>!!!>--@.#..+**))>)>!>!--+.&..                          ",
"        .#..@*-;)>!!!>>>-@.#..@**;)->!!!->-@.#..@**))->!!!>--@.#..@**;)-!>!!>-*@.#..@**;)>>!!!>--@.&..                          ",
"        .#..@*-,)>-!!!>--@.#..@**))>>>!!>--@.#..@**))>>>!!!--@.#..@*-,)>>!!!>>-@.#..@**;)>>!!!>>-@.&#.....                      ",
"        .#..@*-;)>!!!!>>-@.#..@*-))>>!!!!--@.#..@**))>>!!!>--@.#..@*-))>>!!!>>-@.#..@**))>>!!!>--@.+&...................        ",
"        .#..@*-,)>>>!!>>-@.#..@**),>>!!!!--@.#..@**,)>>!!!!>-@.#..@**)))>!!!>>-@.#..@-*,)>>!!!!--@..&......#####&&#.....        ",
"        .#..@*-))>>!!!>--@.#..@*-))!!!!!>>-@.#..@--))>!!!!>--@.#..@**))>!!!!>--@.#..@*-))>>!!!>--@..#.............#&+...        ",
"        .#..@*-)))!!!!!>-@.#..@*-)))>!!!!>-@.#..@*-)))>!!!!>-@.#..@**))>>!!!!>-@.#..@**))>>!!!!>-@......................        ",
"        .#..@*-))>>!!!!--@.#..@**))>!!!!>--@.#..@**))>!!!!>)-@.#..@-*))>!!!!>>;@.#..@-*))>!!!!>>-@....@$%$%$%%$%$%$@....        ",
"        .#..@-*))>!!!!!>-@.#..@-*))>>!!!!>>@.#..@*-,)>!!!!!>>@.#..@*-))>>!!!>>>@.#..@**))>!!!!>>-@....@-******-*-**@....        ",
"        .#..@*-))!!!!!>>-@.#..@*-))!!!!!!-;@.#..@--))>>!!!!--@.#..@-*))>!!!!!--@.#..@-*))>!!!!!>-@.+..@-**-------**+....        ",
"        .#..@--))>!!!!!>>@.#..@*-,)>!!!!!>>@.#..@**))>!!!!!>>@.#..@*-))>!!!!!>-@.#..@*-)))!!!!!>-@.#..@--'';;))--*%@....        ",
"        .#..@--))>!!!!!)-@.#..@*-))>!!!!!--@.#..@--))!!!!!!>-@.&..@--))!!!!!!>-@.#..@*-))!!!!!!--@.#..@*-,'))))>--*@.+..        ",
"        .#..@*-))!!!!!!>>@.#..@--))!!!!!!>>@.#..@*-))>!!!!!>-@.#..+*-),>!!!!!>>@.#..@*-))>!!!!!>-@.#..@-;))>>!>!>-*@.#..        ",
"        .#..@--))>!!!!!>-@.#..@*-))>!!!!!>-@.#..@--))>!!!!!>-@.#..@-*))!!!!!!>-@.#..@--))!!!!!!>-@.#..@--))>!>!!>>-+.#..        ",
"        .#..@**))!!!!!!>>@.#..@-*))!!!!!!>>@.#..@*-))!!!!!!>-@.#..@*-),!!!!!!>>@.#..@*-))>!!!!!>-@.#..@**))-!!!!>>-@.#..        ",
"        .#..@--))>!!!!!>;@.#..@*-))>!!!!!>-@.#..@--))>!!!!!>-@.#..@--))!!!!!!>-@.&..@*-))!!!!!!>-@.#..@--))!!!!!!--@.#..        ",
"        .#..@-;))!!!!!>>>@.#..@*-))!!!!!!->@.#..+*-,)!!!!!!>>@.#..@--),!!!!!!>-@.#..@*-,)>!!!!!>>@.#..@*-,)>!!!!!>-@.#..        ",
"        .#..@--))!!!!!!>-@.#..@--,)>!!!!!>-@.&..@--))>!!!!!>-@.#..@*-))!!!!!!>-@.#..@--))!!!!!!>-@.#..@--))!!!!!!>-@.#..        ",
"        .#..@--),!!!!!!>>@.#..@--))!!!!!!>-@.#..@*-))!!!!!!>>@.#..@*-))!!!!!>!-@.#..@-*))!!!!!!>>@.#..@--))>!!!!!>-@.#..        ",
"        .#..@*-))!!!!!!>-@.&..@--))!!!!!!>-@.#..@--))!!!!!!>-@.#..@-*))>!!!!!>-@.#..@-*))!!!!!!)-@.#..@--))!!!!!!>-@.#..        ",
"        .#..@--))!!!!!!>-@.#..@*-))!!!!!!>-@.#..+-*))!!!!!!>>@.#..+--))!!!!!!>>@.#..@*-),!!!!!!>>@.#..@*-,)!!!!!!>-@.#..        ",
"        .#..@--))>!!!!!>-@.#..@-*))>!!!!!>-@.#..@*-))>!!!!!)-@.#+.@-*))!!!!!!)>@.#..@--))!!!!!!>-@.#..@--))>!!!!!>-@.#..        ",
"        .#..@*-))!!!!!!>-@.#..@-;))!!!!!!>>@.#..@*;))!!!!!!>>@.#..@--),!!!!!!>-@.#..@*-))!!!!!!>>@.#..@*-))!!!!!!>-@.#..        ",
"        .#..@--))!!!!!!>-@.#..@--))!!!!!!>;@.#+.@--))!!!!!!>-@.#..@--))!!!!!!>-@.&..@--,)>!!!!!>-@.#..@--))>!!!!!>-@.#..        ",
"        .#..@*-))!!!!!!>>@.#..@*-))!!!!!!>>@.#..@--))!!!!!!>>@.#..@*-))!!!!!!>-@.#..@*-))!!!!!!>>@.#..@*-,)!!!!!!>-@.#..        ",
"        .#..@--,)>!!!!!>-@.#..@--))>!!!!!--@.#..@*-))>!!!!!>-@.#..@*-))!!!!!!>-@.#..@--,)!!!!!!)-@.#..@--))!!!!!!>-@.#..        ",
"        .#..@--))!!!!!!>>@.#..@-*))!!!!!!!-@.#..@*-))!!!!!!>>@.#..@*;),!!!!!!>-@.#..@--))!!!!!!>>@.#..@--,)!!!!!!>-@.#..        ",
"        .#..@--))!!!!!!>;@.#..@--))!!!!!!>-@.#..@--,)!!!!!!)-@.#..@--))!!!!!!>-@.#..@*-))>!!!!!>-@.#..@--))>!!!!!>-@.#..        ",
"        .#..@--))!!!!!!>>@.#..@*-))!!!!!!>>@.#..@*-))!!!!!!>>@.#..@*-))!!!!!!>>@.#..+-*))!!!!!!>>@.#..@*-))!!!!!!>-@.#..        ",
"        .#..@--))>!!!!!->@.#..@--,)!!!!!!>-@.#..@--))>!!!!!>-@.#+.@--))>!!!!!>;@.#+.@*-))!!!!!!>-@.#..@-*))!!!!!!>-@.#..        ",
"        .#..@*-))!!!!!!>-@.#..@*-))!!!!!!>-@.#..@*-))!!!!!!>-@.#..@**))!!!!!!>>@.#..@*-))>!!!!!>>@.#..+--))!!!!!!>-@.#..        ",
"        .#..@--))!!!!!!>-@.&..@*-,)!!!!!!>-@.&..@--))!!!!!!>-@.#..@--))!!!!!!>-@.#..@;-))!!!!!!)-@.&..@*-,)>!!!!!>-@.#..        ",
"        .#..@*--)>!!!!!>-@.&..@*->)>!!!!!!-@.&..+*--)>!!!!!>>@.&..@*--)!!!!!>>-@.&..@*--)>!!!!!>-@.&..@-->)>!!!!!>-@.#..        ",
"        .#..@*--->>!!!>--@.&..@**-->>!!>>--@.&..@**-->>!!!>--@.&..@**---!!!!>>-@.&..@**-->>!!!>>-@.&..@**-->>!!!>--@.&..        ",
"        .#+.@***---)>>>--@.&..@***-*>)>>>--@.&..@***-;->)>>--@.'..@***---)>>---@.'..@***---->>---@.&..@***--)->>>--@##..        ",
"        .+&.@*****-------@#&..@*****---;---@#&+.@*****-------@#&..@*****-------@#&..@**%**-------@#'..@*%***-----*-@&...        ",
"        ..&.+$$$$$$%$$$%$@&&..+$$$$$$%$%$%$@&&..+$$$$$$$$$%$$@&&..+$$$$$$$%$%$%@&&..+$$$$$$$$$%$$@&&..#$$$$$$$$%$%$@'...        ",
"        ..+............##&&#.............+&&&+.............+&&&#.............+&&&#.............+&&&#.............+&&#...        ",
"        ........+####&&&#.........+####&&&#.........+###&&&&#.........+####&&&#.........+##&#&&&#.........+###&&&&#.....        ",
"        ................................................................................................................        ",
"        ................................................................................................................        ",
"            ............................................................................................................        ",
"                                                                                                                                ",
"                                                                                                                                ",
"                                                                                                                                ",
"                                                                                                                                ",
"                                                                                                                                ",
"                                                                                                                                ",
"                                                                                                                                "};
