/* XPM */
char * icon16_xpm[] = {
"128 128 17 1",
" 	c None",
".	c #000000",
"+	c #101310",
"@	c #171816",
"#	c #20221F",
"$	c #2A2C29",
"%	c #323431",
"&	c #383937",
"*	c #3F413E",
"=	c #434542",
"-	c #4A4C49",
";	c #525451",
">	c #5E605D",
",	c #656764",
"'	c #6B6D6A",
")	c #737572",
"!	c #7E807D",
"                                                                                                                                ",
"                                                                                                                                ",
"                                                                                                                                ",
"                                                                                                                                ",
"                                                                                                                                ",
"                                                                                                                                ",
"                                                                                                                                ",
"                                                                                                                                ",
"                                                                                                                                ",
"       ................................................................................................................         ",
"       ................................................................................................................         ",
"       ..,!,======================================================================================================#....         ",
"       .................................................................................................................        ",
"       .................................................................................................................        ",
"             ..........................................................................................................         ",
"                                                                                                                                ",
"                                                                                                                                ",
"                                                                                                                                ",
"                                                                                                                                ",
"                                                                                                                                ",
"                                                                                                                                ",
"                                                                                                                                ",
"                                                                                                                                ",
"                                                                                                                                ",
"                                                                                                                                ",
"                                                                                                                                ",
"                                                                                                                                ",
"                                                                                                                                ",
"                                                                                                                                ",
"                                                                                                                                ",
"                                                                                                                                ",
"                                                                                                                                ",
"                                                                                                                                ",
"                                                                                                                                ",
"                                        .....                                              .........                            ",
"                                      .......                                          .............                            ",
"                                    .........                                        ....+..........                            ",
"                                  ...........                                      ....%.......                                 ",
"                                .....%>'+....                                    ....=#.....                                    ",
"                              +#*-->)!!>.....                                   ...%>.....                                      ",
"                            .........&=$.....                                  ...>-.....                                       ",
"                            ...........+.....                                ....!#....                                         ",
"                                   ....+.....                               ...+!.....                                          ",
"                                   ....#.....                              ...#!.....                                           ",
"                                    ...$.....                             ...@!@....                                            ",
"                                    ...$.....                             ...!&....                                             ",
"                                    ...%.....                            ...!;.....                                             ",
"                                    ...%.....                           ...').....                                              ",
"                                    ...%.....                          ...=!.....                                               ",
"                                    ...&.....                          ..@!*.....                                               ",
"                                    ...&.....                         ...').....                                                ",
"                                    ...&.....                        ...&!$.....                                                ",
"                                    ...%.....                        ...,'.....                                                 ",
"                                    ...&.....                       ...%!=.....                                                 ",
"                                    ...&.....                       ...,'@....      ..                                          ",
"                                    ...&.....                       ..#);..... ..............                                   ",
"                                    ...&.....                      ...=)%........+;',;#.......                                  ",
"                                    ...&.....                      ...>>@............$,!,+......                                ",
"                                    ...&.....                      ..+'=................@,=......                               ",
"                                    ...%.....                     ...&,#..........  ......#*......                              ",
"                                    ...&.....                     ...&>........       ......#......                             ",
"                                    ...&.....                     ...;-.......         ......+.....                             ",
"                                    ...%.....                     ...;*.....            .....@......                            ",
"                                    ...&.....                     ...-$.....             .....+.....                            ",
"                                    ...&.....                     ...-@.....              ....@......                           ",
"                                    ...&.....                     ...-+.....              ....@......                           ",
"                                    ...&.....                     ...=......              ....++.....                           ",
"                                    ...&.....                     ...=......               ....#.....                           ",
"                                    ...&.....                     ...=.....                ....#.....                           ",
"                                    ...&.....                     ...&.....                ....$.....                           ",
"                                    ...%.....                     ...&.....                 ...$.....                           ",
"                                    ...&.....                     ...$.....                 ...$.....                           ",
"                                    ...&.....                     ...+@.....                ...$.....                           ",
"                                    ...&.....                     ....@.....                ...$.....                           ",
"                                    ...&.....                     ....#.....                ...&.....                           ",
"                                    ...&.....                     ....+.....                ...&.....                           ",
"                                    ...&.....                      .........                ...*.....                           ",
"                                    ...&.....                      ..........               ..+#.....                           ",
"                                    ...&.....                      ..........               ..&.....                            ",
"                                    ...&.....                       .........              ...;.....                            ",
"                                    ...=.....                       ..........             ..%@....                             ",
"                                    ...-.....                        .........             ..;.....                             ",
"                                    ...>.....                         .........           ..;.....                              ",
"                                    ..%>.....                         ..........         ..*&....                               ",
"                                    ..$+.....                          ..........       ..&-....                                ",
"                                   ...........                          ..........     ..,&.....                                ",
"                                 %+..............                        ........... .&))......                                 ",
"                             $*&#...................                      ..........&'>......                                   ",
"                             .......................                        ...............                                     ",
"                                                                              ...........                                       ",
"                                                                                                                                ",
"                                                                                                                                ",
"                                                                                                                                ",
"                                                                                                                                ",
"                                                                                                                                ",
"                                                                                                                                ",
"                                                                                                                                ",
"                                                                                                                                ",
"                                                                                                                                ",
"                                                                                                                                ",
"                                                                                                                                ",
"                                                                                                                                ",
"                                                                                                                                ",
"                                                                                                                                ",
"                                                                                                                                ",
"                                                                                                                                ",
"                                                                                                                                ",
"                                                                                                                                ",
"                                                                                                                                ",
"                                                                                                                                ",
"                                                                                                                                ",
"       ................................................................................................................         ",
"       ................................................................................................................         ",
"       ..,!,======================================================================================================#....         ",
"       .................................................................................................................        ",
"       .................................................................................................................        ",
"             ..........................................................................................................         ",
"                                                                                                                                ",
"                                                                                                                                ",
"                                                                                                                                ",
"                                                                                                                                ",
"                                                                                                                                ",
"                                                                                                                                ",
"                                                                                                                                ",
"                                                                                                                                ",
"                                                                                                                                ",
"                                                                                                                                ",
"                                                                                                                                "};
