/* XPM */
char * icon48_xpm[] = {
"128 128 17 1",
" 	c None",
".	c #000000",
"+	c #090C08",
"@	c #0F120E",
"#	c #181A17",
"$	c #212220",
"%	c #2A2C2A",
"&	c #343634",
"*	c #414340",
"=	c #444643",
"-	c #4E504D",
";	c #585A57",
">	c #616360",
",	c #696B68",
"'	c #737572",
")	c #787A77",
"!	c #7E807D",
"                                                                                                                                ",
"                                                                                                                                ",
"                                                                                                                                ",
"                                                                                                                                ",
"                                                                                                                                ",
"                                                                                                                                ",
"                                                                                                                                ",
"                                                                                                                                ",
"                                                                                                                                ",
"       ................................................................................................................         ",
"       ................................................................................................................         ",
"       ..>!>=*==*=*=*=*==*=*==*==*===*=**==*======*==*====*==*==*=*=*=*==*=*==*==*===*=**=*=*=*===*==*====*==*==*=$....         ",
"       .................................................................................................................        ",
"       .................................................................................................................        ",
"             ..........................................................................................................         ",
"                                                                                                                                ",
"                                                                                                                                ",
"                                                                                                                                ",
"                                                                                                                                ",
"                                                                                                                                ",
"                                                                                                                                ",
"                                                                                                                                ",
"                                                                                                                                ",
"                                                                                                                                ",
"                                                                                                                                ",
"                                                                                                                                ",
"                                                                                                                                ",
"                                                                                                                                ",
"                                                                                                                                ",
"                                                                                                                                ",
"                                                                                                                                ",
"                                                                                                                                ",
"                                                                                                                                ",
"                                                                                                                                ",
"                                             ......                           ...........                                       ",
"                                            .......                        ......@%=>>&.....                                    ",
"                                           .........                     ....+........$)>....                                   ",
"                                          ....=.....                    ...&....... .....!#....                                 ",
"                                          ...').....                   ...>.....       ...>&....                                ",
"                                         ...>!=.....                  ...)....          ...-@....                               ",
"                                        ...&!,@.....                 ...)@...            ...;....                               ",
"                                        ..#))=......                 ..&'....             ...&....                              ",
"                                       ...,!-$......                ...'....              ...-....                              ",
"                                      ...;)-$.......                ...!....              ...&....                              ",
"                                      ..*,&.........                ...,....               ..$.....                             ",
"                                     ..*;...........                ..+;....               ..$.....                             ",
"                                    ..=;............                ...-....               ..&.....                             ",
"                                   ..*,... ...@.....                ...-.....              ..-.....                             ",
"                                   .@!...  ...$.....                ...*.....             ...-....                              ",
"                                  ..!....  ...%.....                ...#+.....            ..&$....                              ",
"                                 ..>#...   ...&.....                ....#.....            ..>.....                              ",
"                                 .%,...    ...=.....                ...........          ..;.....                               ",
"                                ..)....    ...=.....                 ...........        ..=*.....                               ",
"                               ..'....     ...=.....                 ............      ..&;.....                                ",
"                               .*-...      ...=.....                  .............   ..=,.....                                 ",
"                              ..!...       ...=.....                  .............. ..-!.....                                  ",
"                             ..!....       ...=.....                   ...............$-....                                    ",
"                            ..;%...        ...=.....                    ......@.......@....                                     ",
"                            .$'...         ...=.....                     ......#@.@#$.....                                      ",
"                           ..)....         ...=.....                      .....$@#$$#....                                       ",
"                          ..,....          ...=.....                       ....@..........                                      ",
"                          .&;...           ...=.....                        ...............                                     ",
"                         ..!...            ...=.....                        .................                                   ",
"                        ..)....            ...=.....                      ..&.................                                  ",
"                       ..&,...             ...-.....                     ..->.................                                  ",
"                       ..!...              ..@-.....                    ..#!.... ..............                                 ",
"                      ..&'...              ..&;.....                   ...)....   ..............                                ",
"                     ...'&..               .$>;.....                  ...'....     ..............                               ",
"                     ..@!...........      ..>)-..........            ...;-...        .............                              ",
"                    ...&!.................@>!)=...........           ..#!....         ............                              ",
"                    ...#*...............$;)!);%............         ...)#...           ............                             ",
"                    ...........$&&&&&&=;>>,;=&#............         ..@!....            ...........                             ",
"                    .........................@+............        ...-=....             ...........                            ",
"                    .......................................        ...>.....              ..........                            ",
"                    ..........................+............        ...>....               ..........                            ",
"                                           ...#.....               ...;....                .........                            ",
"                                           ...$.....               ...=....                .........                            ",
"                                           ...&.....               ...&....                 ........                            ",
"                                           ...&.....               ...#....                 ........                            ",
"                                           ...=.....               .........                ..#.....                            ",
"                                           ...=.....               .........                ..&....                             ",
"                                           ...=.....                ........               ..@@....                             ",
"                                           ...=.....                .........              ..-....                              ",
"                                           ...=.....                 .........            ..;.....                              ",
"                                           .........                  .........          ..;+....                               ",
"                                           .........                  ..........        .%'.....                                ",
"                                           .........                   ............  .@-!;.....                                 ",
"                                           .........                     ..........#-))&......                                  ",
"                                           .........                      ..................                                    ",
"                                                                             ............                                       ",
"                                                                                                                                ",
"                                                                                                                                ",
"                                                                                                                                ",
"                                                                                                                                ",
"                                                                                                                                ",
"                                                                                                                                ",
"                                                                                                                                ",
"                                                                                                                                ",
"                                                                                                                                ",
"                                                                                                                                ",
"                                                                                                                                ",
"                                                                                                                                ",
"                                                                                                                                ",
"                                                                                                                                ",
"                                                                                                                                ",
"                                                                                                                                ",
"                                                                                                                                ",
"                                                                                                                                ",
"                                                                                                                                ",
"                                                                                                                                ",
"                                                                                                                                ",
"       ................................................................................................................         ",
"       ................................................................................................................         ",
"       ..>!>=*===**=*==**=*==**=*==**=*==**=*==*=*===*===*===*===**=*==**=*==**=*==**=*==**=*==*=*===*===*===*====$....         ",
"       .................................................................................................................        ",
"       .................................................................................................................        ",
"             ..........................................................................................................         ",
"                                                                                                                                ",
"                                                                                                                                ",
"                                                                                                                                ",
"                                                                                                                                ",
"                                                                                                                                ",
"                                                                                                                                ",
"                                                                                                                                ",
"                                                                                                                                ",
"                                                                                                                                ",
"                                                                                                                                ",
"                                                                                                                                "};
