/* XPM */
char * icon24_xpm[] = {
"128 128 17 1",
" 	c None",
".	c #000000",
"+	c #080B07",
"@	c #0C0F0B",
"#	c #131512",
"$	c #191B18",
"%	c #222421",
"&	c #2B2D2A",
"*	c #343634",
"=	c #414340",
"-	c #444643",
";	c #4A4C49",
">	c #555754",
",	c #5F615F",
"'	c #6B6D6A",
")	c #787A77",
"!	c #7E807D",
"                                                                                                                                ",
"                                                                                                                                ",
"                                                                                                                                ",
"                                                                                                                                ",
"                                                                                                                                ",
"                                                                                                                                ",
"                                                                                                                                ",
"                                                                                                                                ",
"                                                                                                                                ",
"       ................................................................................................................         ",
"       ................................................................................................................         ",
"       .+,!,-=--=-=-=-=--=-=--=--=---=-==-=-=-----=--=----=--=--=-=-=-=--=-=--=--=---=-==-=-=-=---=--=----=--=--=-%....         ",
"       .................................................................................................................        ",
"       .................................................................................................................        ",
"             ..........................................................................................................         ",
"                                                                                                                                ",
"                                                                                                                                ",
"                                                                                                                                ",
"                                                                                                                                ",
"                                                                                                                                ",
"                                                                                                                                ",
"                                                                                                                                ",
"                                                                                                                                ",
"                                                                                                                                ",
"                                                                                                                                ",
"                                                                                                                                ",
"                                                                                                                                ",
"                                                                                                                                ",
"                                                                                                                                ",
"                                                                                                                                ",
"                                                                                                                                ",
"                                                                                                                                ",
"                                                                                                                                ",
"                                                                                                                                ",
"                                   ...........                                            ......                                ",
"                                 ...............                                         .......                                ",
"                               ...................                                      .........                               ",
"                              ....;'',>>>>=$........                                   ....;.....                               ",
"                             ...'!%........%*$.......                                  ...').....                               ",
"                            ..$!&............+$.......                                ...,!-.....                               ",
"                           ..$!................+......                               ...*!'#.....                               ",
"                           ..'.......   ........+......                              ..#!)-......                               ",
"                          ..>.....        .......+......                            ...'!;%......                               ",
"                          .$....           .............                           ...>)>$.......                               ",
"                         ..*...             ......+.....                           ..='*.........                               ",
"                         .....               .....#.....                          ..=>...........                               ",
"                         .....                ....#......                        ..;>............                               ",
"                         ....                  ...+......                       ..='... ...@.....                               ",
"                        .....                  ...+......                       .+!...  ...%.....                               ",
"                        ....                   ....@.....                      ..!....  ...&.....                               ",
"                                               ....#.....                     ..,$...   ...*.....                               ",
"                                                ..+#....                      .&'...    ...-.....                               ",
"                                                ..$.....                     ..!....    ...-.....                               ",
"                                               ...*.....                    ..'....     ...-.....                               ",
"                                               ...-.....                    .->...      ...-.....                               ",
"                                               ...=....                    ..!...       ...-.....                               ",
"                                               ..*@....                   ..!....       ...-.....                               ",
"                                              ...,.....                  ..>&...        ...-.....                               ",
"                                              ..%*....                   .$'...         ...-.....                               ",
"                                              ..,.....                  ..!....         ...-.....                               ",
"                                             ..&*+...                  ..'....          ...-.....                               ",
"                                             ..'....                   .*,...           ...-.....                               ",
"                                            ..;$....                  ..!...            ...-.....                               ",
"                                            ..'....                  ..!....            ...-.....                               ",
"                                           ..'....                  ..*'...             ...;.....                               ",
"                                          ..>%....                  ..!...              ..+>.....                               ",
"                                          .%,....                  ..*'...              ..*>.....                               ",
"                                         ..!....                  ...)*..               .%,,.....                               ",
"                                        ..)....                   ...!+..........      ..,);..........                          ",
"                                       ..'+...                   ..+*!.................#,!)-...........                         ",
"                                      ..>=...                    ...#=...............$>)!!>&............                        ",
"                                      .=,...                     ...........%*****=;>,',,=*$............                        ",
"                                     .&!...                      .........................+@............                        ",
"                                    .$!...                       .......................................                        ",
"                                   ..!....                       ..........................+............                        ",
"                                  ..!....                                               ...#.....                               ",
"                                 ..!....                                                ...%.....                               ",
"                                ..)$...                                                 ...*.....                               ",
"                               ..=,...                  ....                            ...*.....                               ",
"                              ...'...                  ....                             ...-.....                               ",
"                             ...,&..                  .....                             ...-.....                               ",
"                            ...='..                ........                             ...-.....                               ",
"                           ...&!;.....................*...                              ...-.....                               ",
"                          ...&!)*...................$-....                              ...-.....                               ",
"                         ...>!,#..............+#%=>',.....                              .........                               ",
"                        ...*+............................                               .........                               ",
"                       ..................................                               .........                               ",
"                       ..................................                               .........                               ",
"                       .................................                                .........                               ",
"                                                                                                                                ",
"                                                                                                                                ",
"                                                                                                                                ",
"                                                                                                                                ",
"                                                                                                                                ",
"                                                                                                                                ",
"                                                                                                                                ",
"                                                                                                                                ",
"                                                                                                                                ",
"                                                                                                                                ",
"                                                                                                                                ",
"                                                                                                                                ",
"                                                                                                                                ",
"                                                                                                                                ",
"                                                                                                                                ",
"                                                                                                                                ",
"                                                                                                                                ",
"                                                                                                                                ",
"                                                                                                                                ",
"                                                                                                                                ",
"                                                                                                                                ",
"                                                                                                                                ",
"       ................................................................................................................         ",
"       ................................................................................................................         ",
"       .+,!,-=---==-=--==-=--==-=--==-=--==-=--=-=---=---=---=---==-=--==-=--==-=--==-=--==-=--=-=---=---=---=---=%....         ",
"       .................................................................................................................        ",
"       .................................................................................................................        ",
"             ..........................................................................................................         ",
"                                                                                                                                ",
"                                                                                                                                ",
"                                                                                                                                ",
"                                                                                                                                ",
"                                                                                                                                ",
"                                                                                                                                ",
"                                                                                                                                ",
"                                                                                                                                ",
"                                                                                                                                ",
"                                                                                                                                ",
"                                                                                                                                "};
