/* XPM */
char * insertblock_xpm[] = {
"128 128 17 1",
" 	c None",
".	c #000000",
"+	c #2D2E25",
"@	c #555601",
"#	c #53554E",
"$	c #8A8E8C",
"%	c #93934C",
"&	c #9A9A13",
"*	c #C7C700",
"=	c #C0C8C6",
"-	c #CECE50",
";	c #D1D37E",
">	c #FBFB00",
",	c #FCFB61",
"'	c #CDFDFC",
")	c #FFFE96",
"!	c #F7FBF9",
"                                                                                                                                ",
"                                                                                                                                ",
"                               ..............................................................                                   ",
"                               ................................................................                                 ",
"                               ...+...+++#+#+#+#+#+#+#+#+#+#+#+#+#+#+#+#+#+#+#+#+#+#++..........                                ",
"                               ..#$..................................................#$$##.......                               ",
"                               ..+......................................................##+.......                              ",
"                               ....................................................................                             ",
"                               ....+==================================================#.............                            ",
"                               ....+====$=============================================#..............                           ",
"                               ....+==$============================$==================#.....$+........                          ",
"                               ....+==================================================#.....=$.........                         ",
"                               .+..+=======!=!=!=!=!=!==!=!=!=!=!!!=!=!=!=!=!=!=!=!=!=#.....==$+........                        ",
"                               .+..+=====!=!!=!!!!=!!!!!!=!!!!!!!=!!!!!!!=!!!!!!=!!!!!#.+...===$.........                       ",
"                               .+..+====!=!!!!!=!!!!!!=!!!!=!!=!!!!!!=!!!!!=!!=!!!!!!!#.+...=====.........                      ",
"                               .+..+=====!!!!!!!!!!!!!!!!!!!!!!!!!!!!!!!!!!!!!!!!!!!!!#.+...=$====.........                     ",
"                               .+..+===!!=!!!!!!!!!!!!!!!!!!!!!!!!!!!!!!!!!!!!!!!!!!!!$.+...=======.........                    ",
"                               .+..+====!!!!!!!!!!!!!!!!!!!!!!!!!!!!!!!!!!!!!!!!!!!!!!#.+...====!=!=.........                   ",
"                               .+..+=====!!!!!!!!!!!!!!!!!!!!!!!!!!!!!!!!!!!!!!!!!!!!!#.+...=====!=!=.........                  ",
"                               .+..+===!=!!!!!!!!!!!!!!!!!!!!!!!!!!!!!!!!!!!!!!!!!!!!!$.+...=====!!!!=.........                 ",
"                               .+..+====!!!!!!!!!!!!!!!!!!!!!!!!!!!!!!!!!!!!!!!!!!!!!!#.+...====!!=!!!=.........                ",
"                               .+..+=====!!!!!!!!!!!!!!!!!!!!!!!!!!!!!!!!!!!!!!!!!!!!!$.+...=====!!=!!!=.........               ",
"                               .+..+====!=!!!!!!!!!!!!!!!!!!!!!!!!!!!!!!!!!!!!!!!!!!!!#.#...====!!!!!!!==.........              ",
"                               .+..+====!!!!!!!!!!!!!!!!!!!!!!!!!!!!!!!!!!!!!!!!!!!!!!#.+...=====!!!!!!!!=...#.....             ",
"                               .+..+====!=!!!!!!!!!!!!!!!!!!!!!!!!!!!!!!!!!!!!!!!!!!!!$.+...====!=!!!!!!!!=..+#.....            ",
"                               .+..+====!!!!!!!!!!!!!!!!!!!!!!!!!!!!!!!!!!!!!!!!!!!!!!#..#..=====!!!!!!!!!!=.##+.....           ",
"                               .+..#====!=!!!!!!!!!!!!!!!!!!!!!!!!!!!!!!!!!!!!!!!!!!!!$..#..$$=$============$$##......          ",
"                               .+..+====!!!!!!!!!!!!!!!!!!!!!!!!!!!!!!!!!!!!!!!!!!!!!!#...................#$##+........         ",
"                               .+..+=====!!!!!!!!!!!!!!!!!!!!!!!!!!!!!!!!!!!!!!!!!!!!!=..........++++.+##$$+...........         ",
"                               .+..+===!=!!!!!!!!!!!!!!!!!!!!!!!!!!!!!!!!!!!!!!!!!!!!!!................................         ",
"                               .+..+===='''''''''''''''''''''''''''''''''''''''''''''''#...............................         ",
"                               .+..+=====!!!!!!!!!!!!!!!!!!!!!!!!!!!!!!!!!!!!!!!!!!!!!!$+++++++++++++++++++++++++......         ",
"                               .+..+====!=!!!!!!!!!!!!!!!!!!!!!!!!!!!!!!!!!!!!!!!!!!!!!!!!========================.....         ",
"                               .+..+====!!!!!!!!!!!!!!!!!!!!!!!!!!!!!!!!!!!!!!!!!!!!!!!!!!!=======================.....         ",
"                               .+..+==='=''''''''''''''''''''''''''''''''''''''''''''''''''======================$.....         ",
"                               .+..+======!!!!!!!!!!!!!!!!!!!!!!!!!!!!!!!!!!!!!!!!!!!!!!!!!='=====================.....         ",
"                               .+..+====!!!!!!!!!!!!!!!!!!!!!!!!!!!!!!!!!!!!!!!!!!!!!!!!!!!!!=!=!'=!!=!!'!=!!=!!!=.....         ",
"                               .+..+=====!!!!!!!!!!!!!!!!!!!!!!!!!!!!!!!!!!!!!!!!!!!!!!!!!!!!'!=!!!'!'!=!!=!'!'=!!.....         ",
"                               .+..+=='='''''''''''''''''''''''''''''''''''''''''''''''''''''''''''=''''''''''''''.....         ",
"                               .+..+=====!!!!!!!!!!!!!!!!!!!!!!!!!!!!!!!!!!!!!!!!!!!!!!!!!!!!!!!!!!!!!!!!!!!!!!!!!.....         ",
"                               .+..+====!!!!!!!!!!!!!!!!!!!!!!!!!!!!!!!!!!!!!!!!!!!!!!!!!!!!!!!!!!!!!!!!!!!!!!!!!!.....         ",
"                               .+..+$$=$$========================================!!!!!!!!!!!!!!!!!!!!!!!!!!!!!!!!!.....         ",
"           ......................................................................+$'''''''''''''''''''''''''''''''.....         ",
"           .......................................................................#!!!!!!!!!!!!!!!!!!!!!!!!!!!!!!!.....         ",
"           ...#+..+++++++++++++++++++++++++++++++++++++++++++++++++++++++###$#....$!!!!!!!!!!!!!!!!!!!!!!!!!!!!!!!.....         ",
"           ..#$...................................................................#===!!!!!!!!!!!!!!!!!!!!!!!!!!!!.....         ",
"           ..+....................................................................#'='''''''''''''''''''''''''''''.....         ",
"           .....+@@@@@@@@@@@@@@@@@@@@@@@@@@@@@@@@@@@@@@@@@@@@@@@@@@@@@@@@@@@@+....#=====!!!!!!!!!!!!!!!!!!!!!!!!!!.....         ",
"           .....&**&**&**-*&**&*-*&*-*&*-*&*-***-*&***-***-****&*-***&***&***&....#===!!!!!!!!!!!!!!!!!!!!!!!!!!!!.....         ",
"           .....&**&***************************&*******&***&*****************@....#=====!!!!!!!!!!!!!!!!!!!!!!!!!!.....         ",
"           .....@%;;%;%;;%;;;;;;;;;;;;;;%;;;%;;;;;;%;;;;;%;;;;;;%;;;;;%;;;;;;%....#$==''''''''''''''''''''''''''''.....         ",
"           .....%;&----------------------------------------------------------%....#=====!!!!!!!!!!!!!!!!!!!!!!!!!!.....         ",
"           ..+..&**-***>,>*>**>*>**>*>*>,>*>>*>*>*>,*>*>,>*>*,>*>*,>*>*>*>**>&.#..#====!!!!!!!!!!!!!!!!!!!!!!!!!!!.....         ",
"           .....@*****>*>>>>>>>>>>>>>>>>>>>>>>>>>>>>>>>>>>>>>>>>>>>>>>>>>>>>>&.#..#=====!!!!!!!!!!!!!!!!!!!!!!!!!!.....         ",
"           ..+..%;%;;))));))););)));));););));));))));));)););)););)));))););%.+..#===''''''''''''''''''''''''''''.....         ",
"           .....%-----,,,,,,,,,,,,,,,,,,,,,,,,,,,-,,,,,,,,,,,,,,,,,,,,,,,,,,,%.#..#=====!!!!!!!!!!!!!!!!!!!!!!!!!!.....         ",
"           ..+..@***>*>>>>>>>>>>>>>>>>>>>>>>>>>>>>>>>>>>>>>>>>>>>>>>>>>>>>>>>&.#..#====!!!!!!!!!!!!!!!!!!!!!!!!!!!.....         ",
"           .....&****>>>>>>>>>>>>>>>>>>>>>>>>>>>>>>>>>>>>>>>>>>>>>>>>>>>>>>>>&.#..#=====!!!!!!!!!!!!!!!!!!!!!!!!!!.....         ",
"           ..+..%%;;;;)))))))))))))))))))))))))))))))))))))))))))))))))))))))%.+..#===''''''''''''''''''''''''''''.....         ",
"           .....%;----,,,,,,,,,,,,,,,,,,,,,,,,,,,,,,,,,,,,,,,,,,,,,,,,,,,,,,,%.#..#=====!!!!!!!!!!!!!!!!!!!!!!!!!!.....         ",
"           ..+..&***,>>>>>>>>>>>>>>>>>>>>>>>>>>>>>>>>>>>>>>>>>>>>>>>>>>>>>>>>&.#..#====!!!!!!!!!!!!!!!!!!!!!!!!!!!.....         ",
"           .....@*****>>>>>>>>>>>>>>>>>>>>>>>>>>>>>>>>>>>>>>>>>>>>>>>>>>>>>>>&.#..#=====!!!!!!!!!!!!!!!!!!!!!!!!!!.....         ",
"           .....%;;;;))))))))))))))))))))))))))))))))))))))))))))))))))))))))%.+..#===''='''''''''''''''''''''''''.....         ",
"           ..+..%&----,,,,,,,,,,,,,,,,,,,,,,,,,,,,,,,,,,,,,,,,,,,,,,,,,,,,,,,%.#..#=====!!!!!!!!!!!!!!!!!!!!!!!!!!.....         ",
"           .....&***>>>>>>>>>>>>>>>>>>>>>>>>>>>>>>>>>>>>>>>>>>>>>>>>>>>>>>>>>&.#..#====!!!!!!!!!!!!!!!!!!!!!!!!!!!.....         ",
"           .....@*****>>>>>>>>>>>>>>>>>>>>>>>>>>>>>>>>>>>>>>>>>>>>>>>>>>>>>>>&.#..#=====!!!!!!!!!!!!!!!!!!!!!!!!!!.....         ",
"           ..+..%;;;;))))))))))))))))))))))))))))))))))))))))))))))))))))))))%.+..#===''''''''''''''''''''''''''''.....         ",
"           .....@;----,,,,,,,,,,,,,,,,,,,,,,,,,,,,,,,,,,,,,,,,,,,,,,,,,,,,,,,%.#..#=====!!!!!!!!!!!!!!!!!!!!!!!!!!.....         ",
"           ..+..&****>>>>>>>>>>>>>>>>>>>>>>>>>>>>>>>>>>>>>>>>>>>>>>>>>>>>>>>>&.#..#====!!!!!!!!!!!!!!!!!!!!!!!!!!!.....         ",
"           .....@*****>>>>>>>>>>>>>>>>>>>>>>>>>>>>>>>>>>>>>>>>>>>>>>>>>>>>>>>&.$..#=====!!!!!!!!!!!!!!!!!!!!!!!!!!.....         ",
"           ..+..%;;;;))))))))))))))))))))))))))))))))))))))))))))))))))))))))%.$..#==='=''''''''''''''''''''''''''.....         ",
"           .....@;----,,,,,,,,,,,,,,,,,,,,,,,,,,,,,,,,,,,,,,,,,,,,,,,,,,,,,,,%##..#===!=!!!!!!!!!!!!!!!!!!!!!!!!!!.....         ",
"           ..+..&****>>>>>>>>>>>>>>>>>>>>>>>>>>>>>>>>>>>>>>>>>>>>>>>>*&@@+@+@+##..#====!!!!!!!!!!!!!!!!!!!!!!!!!!!.....         ",
"           .....@****,>>>>>>>>>>>>>>>>>>>>>>>>>>>>>>>>>>>>>>>>>>>>*@......+##$$#..+=====!!!!!!!!!!!!!!!!!!!!!!!!!!.....         ",
"           ..+..%;;;;);)))))))))))))))))))))))))))))))))))))))))%+...++#+#######....#='=''''''''''''''''''''''''''.....         ",
"           .....%&---,,,,,,,,,,,,,,,,,,,,,,,,,,,,,,,,,,,,,,,,,&+..+##.................#==!!!!!!!!!!!!!!!!!!!!!!!!!.....         ",
"           .....&****>>>>>>>>>>>>>>>>>>>>>>>>>>>>>>>>>>>>>>>>@..#$+.....++@@+..........+=!!!!!!!!!!!!!!!!!!!!!!!!!.....         ",
"           ..+..@*****>>>>>>>>>>>>>>>>>>>>>>>>>>>>>>>>>>>>>*@..$+....+@@&****@...........$!!!!!!!!!!!!!!!!!!!!!!!!.....         ",
"           .....%;;;;)))))))))))))))))))))))))))))))))))));+.#$...++@%%;%;%;;@............$'''''''''''''''''''''''.....         ",
"           .....@-----,,,,,,,,,,,,,,,,,,,,,,,,,,,,,,,,,,,-..##...@%;---------%....@@+......$=!!!!!!!!!!!!!!!!!!!!!.....         ",
"           ..+..%***>*>>>>>>>>>>>>>>>>>>>>>>>>>>>>>>>>>>*+.$+..+@************&....@&&+......$=!!!!!!!!!!!!!!!!!!!!.....         ",
"           .....@&***>>>>>>>>>>>>>>>>>>>>>>>>>>>>>>>>>>>@.#+..@&****&********&....@**&@......==!!!!!!!!!!!!!!!!!!!.....         ",
"         ........#%;;;)))))))))))))))))))))))))))))))))%.##..+;;;;;;;;;;;;;);%....#%%%%+.....+='''''''''''''''''''.....         ",
"       ............@---,,,,,,,,,,,,,,,,,,,,,,,,,,,,,,,-..$..@---&-&-----,-,-,%.+..@----&+.....#==!!!!!!!!!!!!!!!!!.....         ",
"      ..............@*>,>>>>>>>>>>>>>>>>>>>>>>>>>>>>>>@.$..+&****-****>>>>>>>&.#..@**-***@.....==!!!!!!!!!!!!!!!!!.....         ",
"     ....#$$$#+......@*>>>>>>>>>>>>>>>>>>>>>>>>>>>>>>*..$..@********>>*>>>>>>&.#..@******&+....#===!!!!!!!!!!!!!!!.....         ",
"     ...$=$$##++......%;;))))))))))))))))))))))))))))#.#+.+%;;;;;;;);))))))))%.$..#;;;;;;;@.....='''''''''''''''''.....         ",
"    ...#==##..........+-,-,,,,,,,,,,,,,,,,,,,,,,,,,,,..$..@--;&--,-,,,,,,,,,,%.$..@&----,-&+....$===!!!!!!!!!!!!!!.....         ",
"    ...$=#............+&*>>>>>>>>>>>>>>>>>>>>>>>>>>>&.##.+&******>>>>>>>>>>>>&##..@****>>>,@....+==!!!!!!!!!!!!!!!.....         ",
"    ...$$+.............+@@@@@@@&@@@@@@@@@%@@@@@@@@@@+.$#.+@@@@@@@@@@@%@@@@@@@@$...@*****>>>&+....====!!!!!!!!!!!!!.....         ",
"   ....$#.........................+.+.+....+.+..+..++$$+................+..##$+...#;;;;);));+....$='='''''''''''''.....         ",
"   ....$#...............++#+##+##+##+#+#+#+#+####$$$$#+.......++###+##+#####+.....@-----,,,,@....#====!!!!!!!!!!!!.....         ",
"   ....++...........................................+.............................@****>>>>>*+...#==!!!!!!!!!!!!!!.....         ",
"    ....+.......................................................................+@@*****>>>>>+...#=====!!!!!!!!!!!.....         ",
"    ................................####$#$#$$#$$#$#....#@%#%#%%#%%#%%#%%#%%#%%%%%;;;;;);)));@...+==='''''''''''''.....         ",
"    ....................       .+..+$=$$===========$...+%;&-&-&---------------%---;&---,,,,,,+#..+=====!!!!!!!!!!!.....         ",
"     ..................        .+..+$$=$===========#....@**&*-************************>*>>>>>+#..#===!!!!!!!!!!!!!.....         ",
"     ..................        .+..+=$$$$==========$....@&**************************,*>>>>>>*+$..#=====!!!!!!!!!!!.....         ",
"      ................         .+..+$======'='='='==....+%;;%;;;;;;;;;;;;;;;;;;;;;;););)))))@.#..#==='''''''''''''.+...         ",
"       ..............          .+..+=$======!==!=!=!..+.+%;-----,-,-,-,-,-,-,-,-,,,-,,,,,,,-@.#..$=====!!!!!!!!!!!.#...         ",
"         ..........            ..#.+=====!!!!!!!!!!!+.+..@***>*>>>>>>>>>>>>>>>>>>*>>>>>>>>>-+#...=====!=!!!!!!!!!!.$...         ",
"           ......              ..$.+====!=!!!!!!!!!!$....@&**>>>>>>>>>>>>>>>>>>>>>>>>>>>>>>@.$...=====!!!!!!!!!!!!.$...         ",
"                               ..$..#+###############....+%;;;;;)))))))))))))))))))))))))))#.#..###########$########...         ",
"                               ...........................+;--,,),,,),,,,,,,,,,,,,,,,,,,,,&+#...................#$$....         ",
"                               .........#############+....+&***>>>>>>>>>>>>>>>>>>>>>>>>>>*@.$...++#+##+###+###$##......         ",
"                               ............................@&>*>>>>>>>>>>>>>>>>>>>>>>>>>>@.$...........................         ",
"                               ..........................+..+;;;))))))))))))))))))))))))%+#+...........................         ",
"                                 ............................+---,,,,,,,,,,,,,,,,,,,,,,-@.$..........................           ",
"                                                        ......@**>>>>>>>>>>>>>>>>>>>>>&@.$....                                  ",
"                                                        .......@&*>>>>>>>>>>>>>>>>>>>@+.$....                                   ",
"                                                         .......+#;;)))))))))))))))%#.+$....                                    ",
"                                                          ........@%-,,,,,,,,,,,-;@+.$#....                                     ",
"                                                           ........+@@&*>>>>>**@@+.#$.....                                      ",
"                                                            ..........+++@@@@++..#$......                                       ",
"                                                              ...............+#$#.......                                        ",
"                                                                .........+++..........                                          ",
"                                                                 ...................                                            ",
"                                                                    .............                                               ",
"                                                                                                                                ",
"                                                                                                                                ",
"                                                                                                                                ",
"                                                                                                                                ",
"                                                                                                                                ",
"                                                                                                                                ",
"                                                                                                                                ",
"                                                                                                                                ",
"                                                                                                                                ",
"                                                                                                                                "};
