/* XPM */
char * layertranslate_xpm[] = {
"128 128 17 1",
" 	c None",
".	c #000000",
"+	c #303000",
"@	c #1A3921",
"#	c #424442",
"$	c #535700",
"%	c #256A37",
"&	c #747673",
"*	c #379A4E",
"=	c #9FA200",
"-	c #44BF60",
";	c #7ACB3E",
">	c #D0CF00",
",	c #9FDD2B",
"'	c #B9E61F",
")	c #DFEA00",
"!	c #FBFC00",
"                                                                                                                                ",
"                                                                                                                                ",
"                                                                                                                                ",
"                                                                                                                                ",
"                                                                                                                                ",
"                                                                                                                                ",
"                                                                                                                                ",
"                                                                                                                                ",
"                                                                                                                                ",
"                                                                                                                                ",
"                                                                                                                                ",
"                                                                                                                                ",
"                          ..................................................................                                    ",
"                          ............#################################################.....                                    ",
"                          ...#&#......................................................###....                                   ",
"                           ...#&..............................................................                                  ",
"                           .......+$$$$$$$$$$$$$$$$$$$$$$$$$$$+%+@@@@@@@@@@@@@@@@@@@@@@.......                                  ",
"                            ......+=>>>>=>>>>>>>>>>>>>>>>>=>=;=;;-**********************.......                                 ",
"                             ......$==>>>>=>=>=>=>=>=>=>=>>>=,=;$;**********************@......                                 ",
"                             .......==>=>>>>>>>>>>>>>>>>>>>>>=;=;;-**********************@......                                ",
"                              ......+=>>>>>>>>>>>>>>>>>>>>>>>>,=;;;**********************%.......                               ",
"                              .......$=>>>>))))))))))))))))))))=,=;----*-*--*-*--*-*-*-*-*@......                               ",
"                               ......+=>>>!!>!!!>!!!!!!!)!!))!)'',;;*----*-*---*---*---*--*@......                              ",
"                                ......+>>!>!!!!!!!!>!)!!)!!!)!))>,,,;---------------------*%.......                             ",
"                                .......=>>!!>!!!!!!!!!!!!!!!!!!!)',;;;------*--*----*----*-*@......                             ",
"                                 .......>>>!!!!!!!!!!!!!!!!!!!!!!'',;;----------*-----------*.......                            ",
"                                  ......$>>!!!!!!!!!!!!!!!!!!!!!!)',,;----------------------*%......                            ",
"                                  .......=>>!!!!!!!!!!!!!!!!!!!!!!'',;;----------------------*@......                           ",
"                                   ......+>>>!!!!!!!!!!!!!!!!!!!!!!'',;;----------------------%.......                          ",
"                                    ......$>!>!!!!!!!!!!!!!!!!!!!!!!'';;-----------------------@......                          ",
"                                    ......+=>>!!!!!!!!!!!!!!!!!!!!!)'',;;--------------------*-*.......                         ",
"                                     ......$)>)!!!!!!!!!!!!!!!!!!!!!!',,;-----------------------%.......                        ",
"                                     .......=>>!!!!!!!!!!!!!!!!!!!!!!'',;-----------------------*@......                        ",
"                                      ......+=>>!!!!!!!!!!!!!!!!!!!!!!'',;-----------------------*.......                       ",
"                                       ......$)>)!!!!!!!!!!!!!!!!!!!!)'',,;----------------------*%......                       ",
"                                       .......=>))!!!!!!!!!!!!!!!!!!!!!'',;--------*--------------*@......                      ",
"                                        ......+>>!)!!!!!!!!!!!!!!!!!!!!)',,;--------------------*--%.......                     ",
"                                         ......$>>)!!!!!!!!!!!!!!!!!!!!!'',;-----------------------*@......                     ",
"                                         ......+=>>!!!!!!!!!!!!!!!!!!!!!)'',;-----------------------*.......                    ",
"                ................................$>>)!!!!!!!!!!!!!!!!!!!!)'',,------------------------%.......                   ",
"                ............##############.......=>>!)!!!!!!!!!!!!!!!!!!!)'',;-----------*-----------*@......                   ",
"                ...###...........................+>>>!!!!!!!!!!!!!!!!!!!!!)',,------------------------*.......                  ",
"                 ...&#............................$>>!!)!!!!!!!!!!!!!!!!!!)'',,-----------------------*%......                  ",
"                 .......+$$$$$$$$$$$$$$$$$$$+......=>>)!!!!!!!!!!!!!!!!!!!!)',;;-----------------------*@......                 ",
"                  ......+>>=>>>=>>>>>>>>>>>==......$>>!>!!!!!!!!!!!!!!!!!!!)'',;-----------------------*%.......                ",
"                  .......$>=>=>>=>=>=>>>=>>>>$......$>>!!!!!!!!!!!!!!!!!!!!!!'',;------------------------@......                ",
"                   ......+==>>>>>>>>>>=>>>>>>>+.....+=>))!!!!!!!!!!!!!!!!!!!)'',;;-----------------------*.......               ",
"                    ......$>=>>>>>>>>>>>>>>>>>=......$>>)!!!!!!!!!!!!!!!!!!!!!'',;------------------------%.......              ",
"                    .......==>>>)))))!))))>))>)$......=>>!)!!!!!!!!!!!!!!!!!!!)',;;-----------*-----------*@......              ",
"                     ......+>>>>!)!!!!!!!!!!!!!)+.....+>>>!!!!!!!!!!!!!!!!!!!!!'',;-------------------*----*.......             ",
"                      ......$>>!)!!>!>!>!!!!)!!)=......$>)!!!!!!!!!!!!!!!!!!!!!)',,;--------------------*-*-%.......            ",
"                      .......=>>>!!!!!!!!!!!!!!!!$......=>>)!!!!!!!!!!!!!!!!!!!!),,;-----------------------**@......            ",
"                       ......+>!!!!!!!!!!!!!!!!!!>......+>>)!!!!!!!!!!!!!!!!!!!!)'',;-----------------------*%.......           ",
"                       .......$>>>!!!!!!!!!!!!!!!!=......$>>)!!!!!!!!!!!!!!!!!!!!'',,-------------------------@..#....          ",
"                        ......+=>!>!!!!!!!!!!!!!!!)$.....+>>))!!!!!!!!!!!!!!!!!!!!'',;------------------------*..&....          ",
"                         ......$>>!!!!!!!!!!!!!!!!!>......$>>)!!!!!!!!!!!!!!!!!!!!''',-------------------------%#&.....         ",
"                         .......=>>!!!!!!!!!!!!!!!)!$......$==$=====================*=**%%%%%%%%%%%%%%%%%%%%%%%%&&#....         ",
"                          ......+>>>!!!!!!!!!!!!!!!!)+...................................#..#....#...........#&&##......        ",
"                           ......$>)>!!!!!!!!!!!!!!!!=.........############################################&&&#.........        ",
"                           .......=>>!!!!!!!!!!!!!!!!)$.................................................................        ",
"                            ......$>>)!!!!!!!!!!!!!!!!>.................................................................        ",
"                             ......$>)>!!!!!!!!!!!!!!)!=$$$$$+$+@@@@@@@@@@@@@@@@@@@@@@@@...............................         ",
"                             ......+=>!)!!!!!!!!!!!!!!!!>>>>=;;;;*-*********************%.......                                ",
"                              ......$>>)!!!!!!!!!!!!!!!!!))>>====;***********************%.......                               ",
"                              .......=>>!!!!!!!!!!!!!!!!))>>)>;=;*;*********************%%@......                               ",
"                               ......+>>>!!!!!!!!!!!!!!!!!))>'=,==;*-*********************%.......                              ",
"      ................................$>))!!!!!!!!!!!!!!!!!)!))',;;;-*-*-*-*-*-*-*-*-**-***@.......                             ",
"     .............##############.......=>>)!!!!!!!!!!!!!!!!)!)>)'=;;-------*--*------------*@......                             ",
"      ...#&............................$>>)!!!!!!!!!!!!!!!!!)!!))',;;---*-------*-*--*---*-*%.......                            ",
"      ....&#............................=>>)!!!!!!!!!!!!!!!!!!!))'',;;-------*--------------*@......                            ",
"       .......$$$$$$$$$$$$$$$$$$$$.......>>)!)!!!!!!!!!!!!!!!!!!!)',;;-----------------------*.......                           ",
"        ......+>>>>>>>>>>>>>>>>>>>=......$>>)!!!!!!!!!!!!!!!!!!!!!'',;;----------------------*%.......                          ",
"        .......===>=>=>=>=>=>>=>>>=$......=>>!!!!!!!!!!!!!!!!!!!!!)',,;-----------------------*@......                          ",
"         ......+=>=>>>>>>>>>>>>=>>>=+.....+>>>!!!!!!!!!!!!!!!!!!!!!'',;;-----------------------*.......                         ",
"          ......$>>>>>>>>>>>>>>)>>>>=......$)>!!!!!!!!!!!!!!!!!!!!!)'',;----------------------**@.......                        ",
"          .......==>>>)>!)))))!>)))>>$......=>>)!!!!!!!!!!!!!!!!!!!!'',,;-----------------------*@......                        ",
"           ......+>>>!!)!!!!!!!!!!!))>......$>>)!!!!!!!!!!!!!!!!!!!!)'',;------------------------%.......                       ",
"           .......$>>)>)!>!)!>!!)!!!!>=......$>>)!!!!!!!!!!!!!!!!!!!!)',,;-----------------------*@.......                      ",
"            ......+=>!!!!!!!!!!!!!!!!!)+.....+=)>!!!!!!!!!!!!!!!!!!!!)'',;------------------------*.......                      ",
"             ......$>>>!!!!!!!!!!!!!!!!>......$>>))!!!!!!!!!!!!!!!!!!!)'',;------------------------%..#....                     ",
"             .......=>!>!!!!!!!!!!!!!!)!$......=>!>!!!!!!!!!!!!!!!!!!!)'',;;---------*-------------*@..#...                     ",
"              ......+>)>!!!!!!!!!!!!!!!!)+.....+>>)!!!!!!!!!!!!!!!!!!!!!'',;------------------------%..&....                    ",
"               ......$>>!!!!!!!!!!!!!!!!!=......$>>!!!!!!!!!!!!!!!!!!!!!'',,--------------------*---*%#&.....                   ",
"               ......+=>>)!!!!!!!!!!!!!!!!$......$=$======================*=**%%%%%%%%%%%%%%%%%%%%%%%%&&.....                   ",
"                ......$>>!)!!!!!!!!!!!!!!!=....................................#..#................#&&#.......                  ",
"                .......=>>)!!!!!!!!!!!!!!!!$.........################################&###########&&&#.........                  ",
"                 .......>>!>!!!!!!!!!!!!!!!!+.................................................................                  ",
"                  ......$>>)!!!!!!!!!!!!!!!!=................................................................                   ",
"                  .......=>)!!!!!!!!!!!!!!!!!=$$$$+$++@@@@@@@@@@@@@@@@@@@@@@@@..............................                    ",
"                   ......+>>>!!!!!!!!!!!!!!!)!>)>>,=;;;*-*********************%.......                                          ",
"                    ......$)>!)!!!!!!!!!!!!!!!))>>=>==;*;********************%*@.......                                         ",
"                    .......=>>)!!!!!!!!!!!!!!!!))>'=;==;************************.......                                         ",
"                     ......$>!>!!!!!!!!!!!!!!!!!))>)',;=;***********************%.......                                        ",
"                     .......=>))!!!!!!!!!!!!!>!!!!)>>'=;;;---*-*-*-*-*-*-*-*-****@......                                        ",
"                      ......+=>>!!!!!!!!!!!!!!!!!!!)))',;;--*------*--*---*----*-*.......                                       ",
"                       ......$)>!)!!!!!!!!!!!!!!!!!!)))',,;----*----------------**%.......                                      ",
"                       .......=>>!!!!!!!!!!!!!!!!!!!!!)'',;;--------*--*-*--------*@......                                      ",
"                        ......+>>>!!!!!!!!!!!!!!!!!!!!))',;;-----------------------%.......                                     ",
"                         ......$!>!)!!!!!!!!!!!!!!!!!!!)'',;;--------------------*-*%......                                     ",
"                         ......+=>>)!!!!!!!!!!!!!!!!!!!!!',,;----------------------**.......                                    ",
"                          ......$>>!!!!!!!!!!!!!!!!!!!!!)'',;;-----------------------%.......                                   ",
"                          .......=>>)!!!!!!!!!!!!!!!!!!!!!'',;-----------------------*@......                                   ",
"                           ......+=)>!!!!!!!!!!!!!!!!!!!!!)',,;-----------------------*.......                                  ",
"                            ......$>>)!!!!!!!!!!!!!!!!!!!!!',,;-----------------------*%.......                                 ",
"                            .......=>)!!!!!!!!!!!!!!!!!!!!))',,;-----------------------*@......                                 ",
"                             ......+>>>)!!!!!!!!!!!!!!!!!!!!'',;------------------------%.......                                ",
"                              ......$)!>!!!!!!!!!!!!!!!!!!!!)',,;--------------*--------*@..#....                               ",
"                              ......+=>)!!!!!!!!!!!!!!!!!!!!!)',,------------------------*@.#....                               ",
"                               ......$>>)!!!!!!!!!!!!!!!!!!!!)'',;-----------------------*%.##....                              ",
"                               .......=>>)!!!!!!!!!!!!!!!!!!!!!',,------------------------*@#&....                              ",
"                                ...#...$========================*=**%%%%%&%%%%%%%%%%%%%%%%%%&&.....                             ",
"                                 .....................................#.....#............#&&#.......                            ",
"                                 ..........###########################################&&&&#.........                            ",
"                                  ..................................................................                            ",
"                                   ................................................................                             ",
"                                   ...............................................................                              ",
"                                                                                                                                ",
"                                                                                                                                ",
"                                                                                                                                ",
"                                                                                                                                ",
"                                                                                                                                ",
"                                                                                                                                ",
"                                                                                                                                ",
"                                                                                                                                ",
"                                                                                                                                ",
"                                                                                                                                ",
"                                                                                                                                ",
"                                                                                                                                "};
