/* XPM */
char * layers_xpm[] = {
"128 128 17 1",
" 	c None",
".	c #000000",
"+	c #1B1C1A",
"@	c #2B2D2B",
"#	c #3D3F3D",
"$	c #4F514E",
"%	c #585A57",
"&	c #6D6F6C",
"*	c #818380",
"=	c #8F918E",
"-	c #999B98",
";	c #AEB1AD",
">	c #C1C3C0",
",	c #CDCFCC",
"'	c #DDDFDC",
")	c #EFF1EE",
"!	c #F9FCF9",
"                                                                                                                                ",
"                                                                                                                                ",
"                                                                                                                                ",
"                                                                                                                                ",
"                                                                                                                                ",
"                                                                                                                                ",
"                                                                                                                                ",
"                                                                                                                                ",
"                                                                                                                                ",
"                                                                                                                                ",
"                                                                                                                                ",
"                                                                                                                                ",
"                          ..................................................................                                    ",
"                          ...........+@############################################$$##.....                                    ",
"                          ...#&@......................................................@&#....                                   ",
"                           ...$&.........................................................+....                                  ",
"                           .......#$$$$%$%$%$%$%$%$%$%$%$%$%$%$%$%$%$%$%$%$%$%$%$$$$$%#+......                                  ",
"                            ......+;>>>>>>>>>,>,>>>,>,>>>>>,>,>>,>,,>>,>,>>,>>>,,>,,,>,-+......                                 ",
"                             ......%>>>>>,>,>,>>,>>>>,>,,>>,>,>>>>>>>>>>>,>>>>,>>>>>>>>>%......                                 ",
"                             .......*;>>>>,,,>,,,,,,>,,,>,,>,>,,,,,,,,,,,>,,,,,>,,,,,,,,;@......                                ",
"                              ......@;>>,,,,',',','',,'','',','',',',',',''','',',',',,''=.......                               ",
"                              .......&>,,''''''''''')'''''')'''''''''')'''''''''''''')''',%......                               ",
"                               ......+-,,')))!)!)!))))!))!)))!)!!)!)))))!))!!)!!)!)))))!))>@......                              ",
"                                ......#,'')))!)!!)!!!!)!))!!)!!)!)!!)!!!)!)!)!)!!)!!)!!))))*.......                             ",
"                                .......*''))!!!!!!!!!!!!!!!!!!!!!!!!!!!!!!!!!!!!!!!!!!!!!!!'#......                             ",
"                                 ......+;,')!!!!!!!!!!!!!!!!!!!!!!!!!!!!!!!!!!!!!!!!!!!!!!!)>+......                            ",
"                                  ......%''))!!!!!!!!!!!!!!!!!!!!!!!!!!!!!!!!!!!!!!!!!!!!!!))&......                            ",
"                                  ......+=,'))!!!!!!!!!!!!!!!!!!!!!!!!!!!!!!!!!!!!!!!!!!!!!!),#......                           ",
"                                   ......#>')))!!!!!!!!!!!!!!!!!!!!!!!!!!!!!!!!!!!!!!!!!!!!!!)-.......                          ",
"                                    ......&,'))!!!!!!!!!!!!!!!!!!!!!!!!!!!!!!!!!!!!!!!!!!!!!!!'%......                          ",
"                                    ......+;,)))!!!!!!!!!!!!!!!!!!!!!!!!!!!!!!!!!!!!!!!!!!!!!!)>+......                         ",
"                                     ......#,'))!!!!!!!!!!!!!!!!!!!!!!!!!!!!!!!!!!!!!!!!!!!!!!!)=.......                        ",
"                                     ......+*,'))!!!!!!!!!!!!!!!!!!!!!!!!!!!!!!!!!!!!!!!!!!!!!!!,$......                        ",
"                                      ......+>''))!!!!!!!!!!!!!!!!!!!!!!!!!!!!!!!!!!!!!!!!!!!!!!);+......                       ",
"                                       ......%,'))!!!!!!!!!!!!!!!!!!!!!!!!!!!!!!!!!!!!!!!!!!!!!!!'&......                       ",
"                                       .......-''))!!!!!!!!!!!!!!!!!!!!!!!!!!!!!!!!!!!!!!!!!!!!!!!,@......                      ",
"                                        ......#,''!)!!!!!!!!!!!!!!!!!!!!!!!!!!!!!!!!!!!!!!!!!!!!!!!-.......                     ",
"                                         ......&''))!!!!!!!!!!!!!!!!!!!!!!!!!!!!!!!!!!!!!!!!!!!!!!)'%......                     ",
"                                         ......+;,')!!!!!!!!!!!!!!!!!!!!!!!!!!!!!!!!!!!!!!!!!!!!!!!)>@......                    ",
"                ................................#'')))!!!!!!!!!!!!!!!!!!!!!!!!!!!!!!!!!!!!!!!!!!!!!))*.......                   ",
"                ...........+@#############+......*,'))!!!!!!!!!!!!!!!!!!!!!!!!!!!!!!!!!!!!!!!!!!!!!!!'#......                   ",
"                ...#&@...........................+>''))!!!!!!!!!!!!!!!!!!!!!!!!!!!!!!!!!!!!!!!!!!!!!!);+......                  ",
"                 ...&$............................%''))!!!!!!!!!!!!!!!!!!!!!!!!!!!!!!!!!!!!!!!!!!!!!!!'&......                  ",
"                 .......#$$$$$$%$%$%$%$%$%$$+.....+=''))!!!!!!!!!!!!!!!!!!!!!!!!!!!!!!!!!!!!!!!!!!!!!!!,#......                 ",
"                  ......#>>>,>>>>,>>>,>,>,>>;......#,'')!!!!!!!!!!!!!!!!!!!!!!!!!!!!!!!!!!!!!!!!!!!!!!!)-.......                ",
"                  .......&>>>>>,>>,>,>,>,>,>>&......&,'))!!!!!!!!!!!!!!!!!!!!!!!!!!!!!!!!!!!!!!!!!!!!!!!'$......                ",
"                   ......+=>>>>,,>,,,>>,>,,>,>@.....+;'')!!!!!!!!!!!!!!!!!!!!!!!!!!!!!!!!!!!!!!!!!!!!!!!!>+......               ",
"                    ......$;>>,,,'',,'',',,',,;......$,'))!!!!!!!!!!!!!!!!!!!!!!!!!!!!!!!!!!!!!!!!!!!!!!!)*.......              ",
"                    .......*,,''''')'''')'')'''&......*,'))!!!!!!!!!!!!!!!!!!!!!!!!!!!!!!!!!!!!!!!!!!!!!!!'#..+...              ",
"                     ......@;,'')))))!))))))))''+.....@>''))!!!!!!!!!!!!!!!!!!!!!!!!!!!!!!!!!!!!!!!!!!!!!!)>.......             ",
"                      ......%,,')))!!!!!!!!!)!!);......%''))!!!!!!!!!!!!!!!!!!!!!!!!!!!!!!!!!!!!!!!!!!!!!!)'&.......            ",
"                      ......+-''))!!!!!!!!!!!!)!)$.....+-,'))!!!!!!!!!!!!!!!!!!!!!!!!!!!!!!!!!!!!!!!!!!!!!!!,@..+...            ",
"                       ......#,'')!!!!!!!!!!!!!!!'+.....#,'))!!!!!!!!!!!!!!!!!!!!!!!!!!!!!!!!!!!!!!!!!!!!!!!)-..+....           ",
"                       .......&,')))!!!!!!!!!!!!!)=......&,'))!!!!!!!!!!!!!!!!!!!!!!!!!!!!!!!!!!!!!!!!!!!!!!!'%..$....          ",
"                        ......+;'')!!!!!!!!!!!!!!))#..+..+;,')!!!!!!!!!!!!!!!!!!!!!!!!!!!!!!!!!!!!!!!!!!!!!!!)>+.&....          ",
"                         ......$,')))!!!!!!!!!!!!!!>......#'')))!!!!!!!!!!!!!!!!!!!!!!!!!!!!!!!!!!!!!!!!!!!!!!)*+&@....         ",
"                         .......=,')!!!!!!!!!!!!!!!!&......%*===--=---=-----=--=-=--=--==---=-------=--=----=--=&&#....         ",
"                          ......@>''))!!!!!!!!!!!!!)'+.......................................................@&&%@......        ",
"                           ......%''))!!!!!!!!!!!!!!)-........+###########################################$%&&$.........        ",
"                           .......-''))!!!!!!!!!!!!!!)$.................................................................        ",
"                            ......#,'')!!!!!!!!!!!!!!!>+................................................................        ",
"                             ......&''))!!!!!!!!!!!!!!)-$%$$#$$$$$%%$%%$%%$%%%$%%$%%$%$$+..............................         ",
"                             ......+;,))!!!!!!!!!!!!!!!)'',,>>>>>>>,>>,>>,>>,>>>,>>,>>>>=+......                                ",
"                              ......%,')))!!!!!!!!!!!!!!)'',,>>>>>>>>,>,>>>,>,>>>,>>,,>>;%.......                               ",
"                              .......=,'))!!!!!!!!!!!!!!))',,,,,,,,,,>>,,,,,>,,,,,>,>,,,>;@......                               ",
"                               ......@>'')!!!!!!!!!!!!!!)))''',''',','',,',,'',,','',',,',=.......                              ",
"      ................................%''))!!!!!!!!!!!!!!!)))'''''''''')'')''')''''''')''',%.......                             ",
"     ............+@#############+.....+-''))!!!!!!!!!!!!!!!!!)!))!)!)!)))))))))!!)!)!)))!)'>@......                             ",
"      ...%&+...........................#,'))!!!!!!!!!!!!!!!!!!!!)!!!!!!!!!!!!!)!!!!!!!!)!!))=.......                            ",
"      ....&#............................&,')))!!!!!!!!!!!!!!!!!!!!!!!!!!!!!!!!!!!!!!!!!!!!!)'$......                            ",
"       .......$$$$$%$%$%$%$%$$$%$$+.....+;,)))!!!!!!!!!!!!!!!!!!!!!!!!!!!!!!!!!!!!!!!!!!!!!!)>+......                           ",
"        ......$>>,>>,>>,>>,>,,>>>>=......%,'))!!!!!!!!!!!!!!!!!!!!!!!!!!!!!!!!!!!!!!!!!!!!!!!)*.......                          ",
"        .......*>>>>>>,>>>>>>,>>>>>$......=,')))!!!!!!!!!!!!!!!!!!!!!!!!!!!!!!!!!!!!!!!!!!!!!),#......                          ",
"         ......@;;>>>,>,,,,>,,,,,>>>+.....@>''!)!!!!!!!!!!!!!!!!!!!!!!!!!!!!!!!!!!!!!!!!!!!!!!!;.......                         ",
"          ......%>>>,',,''',,'',',,,=......%''))!!!!!!!!!!!!!!!!!!!!!!!!!!!!!!!!!!!!!!!!!!!!!!!'&.......                        ",
"          ......+=>,,')'''''''''')'',$.....+-'')!)!!!!!!!!!!!!!!!!!!!!!!!!!!!!!!!!!!!!!!!!!!!!!!,@......                        ",
"           ......#>,'')))))!))!!))!))>......#,'')!!!!!!!!!!!!!!!!!!!!!!!!!!!!!!!!!!!!!!!!!!!!!!!)=.......                       ",
"           ......+&,''))!!!)!!)!)!)!))=......&''))!!!!!!!!!!!!!!!!!!!!!!!!!!!!!!!!!!!!!!!!!!!!!!!'%.......                      ",
"            ......+;''))!!!!!!!!!!!!!))#.....+;'')!!!!!!!!!!!!!!!!!!!!!!!!!!!!!!!!!!!!!!!!!!!!!!!)>+......                      ",
"             ......$,'))!!!!!!!!!!!!!!)>......$,'))!!!!!!!!!!!!!!!!!!!!!!!!!!!!!!!!!!!!!!!!!!!!!!!)*..@....                     ",
"             ......+=,'))!!!!!!!!!!!!!!)&......=,))))!!!!!!!!!!!!!!!!!!!!!!!!!!!!!!!!!!!!!!!!!!!!!!,#.@@...                     ",
"              ......@,')))!!!!!!!!!!!!!!'+.....@>'')!!!!!!!!!!!!!!!!!!!!!!!!!!!!!!!!!!!!!!!!!!!!!!!!-..&....                    ",
"               ......&,'))!!!!!!!!!!!!!!!-......&,'))!!!!!!!!!!!!!!!!!!!!!!!!!!!!!!!!!!!!!!!!!!!!!!!'&#&.....                   ",
"               ......+-'')!!!!!!!!!!!!!!!)$..+...%=*===-------------------------------------------=-==&&+....                   ",
"                ......#,')))!!!!!!!!!!!!!)>........................................................#&&$+......                  ",
"                .......*,'))!!!!!!!!!!!!!!)&........+###########################################$&&&#.........                  ",
"                 ......+>,))!!!!!!!!!!!!!!!'@.................................................................                  ",
"                  ......$,'))!!!!!!!!!!!!!!);................................................................                   ",
"                  .......=,'))!!!!!!!!!!!!!!)=$%$$$$$$$$$%$%$%$%$%$%$%$%$%$%$#+.............................                    ",
"                   ......@,'')!)!!!!!!!!!!!!))),,>>>>>>,>>>,>,>>,>,>>,>,>,>>>>*.......                                          ",
"                    ......&,'))!!!!!!!!!!!!!!))'',>>>>>>>,>,>,>>>>>>>,>>>>>>>>;$.......                                         ",
"                    ......+;''))!!!!!!!!!!!!!)))'',,,,,,,,,>,>,,,,,,,>,,,,,,,>>-+......                                         ",
"                     ......#,'))!!!!!!!!!!!!!!!))''','',,',',''',','',',',',','>&.......                                        ",
"                     .......*,'))!!!!!!!!!!!!!)))))''''''')'''''''''')''''')''''>$......                                        ",
"                      ......+>''))!!!!!!!!!!!!!!)))!))!)!)))!)))!))!)))!)!)))!)));.......                                       ",
"                       ......$,'))!!!!!!!!!!!!!!!!!!!!)!)!!!)!!!!!!)!!)!!))!!!)))'&.......                                      ",
"                       .......-,'))!!!!!!!!!!!!!!!!!!!!!!!!!!!!!!!!!!!!!!!!!!!!!!!'#......                                      ",
"                        ......@,')))!!!!!!!!!!!!!!!!!!!!!!!!!!!!!!!!!!!!!!!!!!!!!))-.......                                     ",
"                         ......&,'))!!!!!!!!!!!!!!!!!!!!!!!!!!!!!!!!!!!!!!!!!!!!!!!'%......                                     ",
"                         ......+;'')!!!!!!!!!!!!!!!!!!!!!!!!!!!!!!!!!!!!!!!!!!!!!!!!>@......                                    ",
"                          ......#,'))!!!!!!!!!!!!!!!!!!!!!!!!!!!!!!!!!!!!!!!!!!!!!!!)*.......                                   ",
"                          .......*,'))!!!!!!!!!!!!!!!!!!!!!!!!!!!!!!!!!!!!!!!!!!!!!!)'$..+...                                   ",
"                           ......@>,)))!!!!!!!!!!!!!!!!!!!!!!!!!!!!!!!!!!!!!!!!!!!!!!);+......                                  ",
"                            ......%,'))!!!!!!!!!!!!!!!!!!!!!!!!!!!!!!!!!!!!!!!!!!!!!!!'&.......                                 ",
"                            .......=''))!!!!!!!!!!!!!!!!!!!!!!!!!!!!!!!!!!!!!!!!!!!!!!!,#......                                 ",
"                             ......@,'')!!!!!!!!!!!!!!!!!!!!!!!!!!!!!!!!!!!!!!!!!!!!!!!)-.......                                ",
"                              ......&,'))!!!!!!!!!!!!!!!!!!!!!!!!!!!!!!!!!!!!!!!!!!!!!!!'%..#....                               ",
"                              ...+..+;'')!!!!!!!!!!!!!!!!!!!!!!!!!!!!!!!!!!!!!!!!!!!!!!!!>@.#....                               ",
"                               ......#'')))!!!!!!!!!!!!!!!!!!!!!!!!!!!!!!!!!!!!!!!!!!!!!!)*.@%....                              ",
"                               .......*,'))!!!!!!!!!!!!!!!!!!!!!!!!!!!!!!!!!!!!!!!!!!!!!!)'$$&....                              ",
"                                ...@..+&*===-=---------------------=-----=---------=-----=-*&&.....                             ",
"                                 ........................................................$&&$.......                            ",
"                                 .........@###########################################$&&&@.........                            ",
"                                  ..................................................................                            ",
"                                   ................................................................                             ",
"                                   ...............................................................                              ",
"                                                                                                                                ",
"                                                                                                                                ",
"                                                                                                                                ",
"                                                                                                                                ",
"                                                                                                                                ",
"                                                                                                                                ",
"                                                                                                                                ",
"                                                                                                                                ",
"                                                                                                                                ",
"                                                                                                                                ",
"                                                                                                                                ",
"                                                                                                                                "};
