/* XPM */
char * layerprevious_xpm[] = {
"128 128 17 1",
" 	c None",
".	c #000000",
"+	c #1A1C1A",
"@	c #2B2D2A",
"#	c #3C3E3B",
"$	c #4D4F4D",
"%	c #585A57",
"&	c #6C6E6B",
"*	c #80827F",
"=	c #8D8F8C",
"-	c #9B9E9B",
";	c #B0B3B0",
">	c #C0C2BF",
",	c #CED0CD",
"'	c #DDDFDC",
")	c #EEF0ED",
"!	c #F9FCF8",
"                                                                                                                                ",
"                                                                                                                                ",
"                                                                                                                                ",
"                                                                                    ..                                          ",
"                                                                                    .....                                       ",
"                                                                                   ..........                                   ",
"                                                                                   .............                                ",
"                                                                                   ..#;#..........                              ",
"                                                                                  ...&>*@.........                              ",
"                                                                                  ...*-#+@+.......                              ",
"                                                                                  ...-*+.........                               ",
"                                                                                 ...#-%+........                                ",
"                          ..........................................................&-#.........                                ",
"                          ...........+@##########################################...-*@........                                 ",
"                          ...#&#...................................................@-&+........                                 ",
"                           ...$%...................................................&-#........                                  ",
"                           .......#$%$%$%$%%%$%%$%%$%%$%%%$%%$%%$%%$%%$%%$%%$%%$...==@.........                                 ",
"                            ......+;>>>>>>>>>,>,>>>,>,>>>>>,>,>,,>>,>>,>>,>,>>>=..+-&..........                                 ",
"                             ......$>>>>,>>,>>>>,>>>>,>,,>>,>>>>>,>>>>>,>>>>,>>%..%-$...........                                ",
"                             .......*;>>>>,,,,,,,,,,,,,,>,,>,,,,,>,,,,,,,,,,,,,+..==@...........                                ",
"                              ......@;>>,,,,,',,,',,,,'',,',,,''',',,',,',',',-...-&.............                               ",
"                              .......&>,',)')'))''))'''')')')'''''')''')''')')&..$;$......@......                               ",
"                               ......+-,,')))))))))))!))))))))!)!))))!))))))))@..*=+.....+*+......                              ",
"                                ......#>''))))!)!)!!!))!!)!!!!)!!)!!!)!)!!!)!'...-&......*;%.......                             ",
"                                .......*,'))!!!!!!!!!!!!!!!!!!!!!!!!!!!!!!!!!=..#-#.....#;;-#......                             ",
"                                 ......@;'')!!!!!!!!!!!!!!!!!!!!!!!!!!!!!!!!!#..&=......-;;;*+......                            ",
"                                  ......$''))!!!!!!!!!!!!!!!!!!!!!!!!!!!!!!!)...-&.....$;;;>;%......                            ",
"                                  ......+=,'))!!!!!!!!!!!!!!!!!!!!!!!!!!!!!);..@-+.....;;;>>,;@......                           ",
"                                   ......#,'))!!!!!!!!!!!!!!!!!!!!!!!!!!!!!!$..&=.....%;;>>>,'=.......                          ",
"                                    ......&,'))!!!!!!!!!!!!!!!!!!!!!!!!!!!!)...-$.....;>;>>''',%......                          ",
"                                    ......+;,)))!!!!!!!!!!!!!!!!!!!!!!!!!!!;..#-.....&;;>>,''))>@......                         ",
"                                     ......$,'))!!!!!!!!!!!!!!!!!!!!!!!!!!!#..**.....;;;>>,'))))*.......                        ",
"                                     .......*,'))!!!!!!)'!!!!!!!!!!!!!!!!!!...-@....@;;>>,,')!)!,$......                        ",
"                                      ......@>''))!!!!!'.;!!!!!!!!!!!!!!!!*..&-.....;>;>,,'))!!!);+......                       ",
"                                       ......%,'))!!!!!,..*!!!!!!!!!!!!!!!...-$....@;;;>,'')!!!!)'&......                       ",
"                                       .......-''))!!!!'...#)!)!!!!!!!!!!>..#;.....;;;>>,'))!!!!!!,@......                      ",
"                                        ......#,')))!!!'.@..+,)!!!!!!!!!!+..=&....$;;>>,,)))!!!!!!)-.......                     ",
"                                         ......&,'))!!!'.+%...-))!!!!!!!>..@;.....;;;>>,')!!!!!!!!!'%......                     ",
"                                         ......+;'')!!!)..;....*')!!!!!!$..=*....#;>;>,,')!!!!!!!!!)>@......                    ",
"                ................................#,')))!)..&;....$'))!!!'..+;.....;;;>,,')))!!!!!!!!!)*.......                   ",
"                ...........+@#############+......=,'))!)...>.....@>))!!&..*=....#;;>>>'')!!!!!!!!!!!!'#......                   ",
"                ...$&@...........................+>')))!...=%.....+;)))+.@;#....;;;;,,')!)!!!!!!!!!)!);+......                  ",
"                 ...%%............................%,'))!...%&.......=)$.@->....#;>>>,,')!!!!!!!!!!!!!!'&......                  ",
"                 .......#%$%$%$%$%%$%%$%%$%$+.....+='')!...#$........$.$;>*....;;;>>,'))!!!!!!!!!!!!!!!,#......                 ",
"                  ......@,>>>>,>>,,>>,>>,>,>;......@',')+..#$.........&->;#....;;;>,''))',,,----!!!!!!!)-.......                ",
"                  .......&;>>>>>>>,>,>,>,>>>>&......&'')...@%.......@%-;-&+...+$$@@@+..........>!!!!!!!)'%......                ",
"                   ......+->>>,,>,,>,>,,,,,,>>@.....+;,)+..@$.....+#$%*&%#....................&!)!)!!!!!)>+......               ",
"                    ......$;>>,,',,',',,,,,,',;......$,'+..+$+.....++@@@++...................@')))))!!!!!)*.......              ",
"                    .......*,,,'')''')')')'''''&......*,@..+$+.......+........+.@@@#$$#+.....>''')))!!!!!!'#..+...              ",
"                     ......@;,''))))))))))))))''@.....@>@..+%................+@#$%&&&$......&,,,'''))!!!!!)>.......             ",
"                      ......%,,'))!!!!!!!!!!!)))-......%#...%+................+++++........@,>,,,''))!!!!!))&.......            ",
"                      ......+-'')))!!!!!!!!!!!!!)%.....+@...%+.............................;>>>>,')!)!!!!!!),@..+...            ",
"                       ......@,''!!!!!!!!!!!!!!!)'+.....+...%@............................&;;;>,,'))!!!!!!!!)-..+....           ",
"                       .......&''))!!!!!!!!!!!!!!)=.........$@...........................$;;>>>,''))!!!!!!!!!'%..$....          ",
"                        ......+;,)))!!!!!!!!!!!!!)!#..+.....$@...........................;;;>>,,'))!!!!!!!!!!)>+.&....          ",
"                         ......$,'))!!!!!!!!!!!!!!)>........$@..........................=;>;>>,'))!!!!!!!!!!!!)=+&@....         ",
"                         .......=,')!!!!!!!!!!!!!!!!&.......$#.........................#&&&&&**====-=--=----=-==&&#....         ",
"                          ......@>,)))!!!!!!!!!!!!!),+......##...............................................@&&%@......        ",
"                           ......%''))!!!!!!!!!!!!!!)-......##........................@@@@@#@#############$%&*$.........        ",
"                           ......+=''))!!!!!!!!!!!!!!)$.....#$..........................................................        ",
"                            ......#,')))!!!!!!!!!!!!!!>+....#$..........................................................        ",
"                             ......&,'))!!!!!!!!!!!!!!)-$...#%.....................+@###+..............................         ",
"                             ......+;'')!!!!!!!!!!!!!!!)'+..#%+....................&===*&+......                                ",
"                              ......$,')))!!!!!!!!!!!!!!'@..#$....................$======$.......                               ",
"                              ......+*'')!!!!!!!!!!!!!!!)+..#%+..................+*===--;=@......                               ",
"                               ......@>'')!!!!!!!!!!!!!!'+..#%..................+*----;;;>=.......                              ",
"      ................................&,'))!!!!!!!!!!!!!)+..#%..................&=--;;>>,,,%.......                             ",
"     ............+@#############+.....+-''))!!!!!!!!!!!!'+..#%.................#-;;;;>,''''>@......                             ",
"      ...%&+...........................#,'))!!!!!!!!!!!!)+..#%+...............+-;;;>>,,)))))=.......                            ",
"      ....&#............................*,')!)!!!!!!!!!!)+..#%................=;;;>>,')))!!)'$......                            ",
"       .......$$%$%$%$%%$%%$%$%$$$+.....+;,'))!!!!!!!!!!)+..@%...............$;;>>>,'')!!!!!)>+......                           ",
"        ......$>>>>>,>>,>>,>>,>,>>=......$,'))!!!!!!!!!!)@..$$+..............;;;;>,''))!!!!!!)*.......                          ",
"        .......=>>>>>>>,>,>>>,>>>>>$......=''))!!!!!!!!!!@..#%..............*;;>>>,'))!!!!!!!),#......                          ",
"         ......@;;>>>,,,,,,,,,,,,,>>+.....@>,)))!!!!!!!!)+..#%.............%;;;>>,')))!!!!!!!!);.......                         ",
"          ......%>>,,,,,,',,,,',,',,=......&,'))!!!!!!!!)+..#%+...........@;;>>>,,'))!!!!!!!!!!)&.......                        ",
"          ......+=>,,'')'')'')'')''',$.....+-'')!)!!!!!!'+..@%............=>;;>>'')!!!!!!!!!!!!),@......                        ",
"           ......#>,''))))))))))))!))>......#,'')!!!!!!!'@..@%+..........$;;;>>,')))!!!!!!!!!!!!)=.......                       ",
"           .......*,''))!!!!!!!!!!)!))=......*''))!!!!!!'#..@$+.........@-;;>>,''))!!!!!!!!!!!!!!'%.......                      ",
"            ......+;''))!!!!!!!!!!!!!))#.....+;,))!!!!!!)%..@%+.........=>;>>,,'))!!!!!!!!!!!!!!!)>+......                      ",
"             ......$,'))!!!!!!!!!!!!!!)>......$,'))!!!!!)$..@%+........$;;;>>,'))!!!!!!!!!!!!!!!!!)*..@....                     ",
"             .......=''))!!!!!!!!!!!!!!)&......=,'))!!!!)#..@&+........;;>;>,,'))!!!!!!!!!!!!!!!!!)'#.@@...                     ",
"              ......@>')))!!!!!!!!!!!!!!'+.....@>'))!!!!'#..#%........*;;;>,,'))!!!!!!!!!!!!!!!!!!!)-..&....                    ",
"               .....+&,'))!!!!!!!!!!!!!!)-......&,')))!!)@..#&.......$;>>>>,'))!!!!!!!!!!!!!!!!!!!!!'&#&.....                   ",
"               ......+-,')!!!!!!!!!!!!!!!)$..+...&*==-=-*@..#$.......&&&&&**====-------------------=-=&*+....                   ",
"                ......$,')))!!!!!!!!!!!!!)>.................##.....................................#&&$+......                  ",
"                .......*,'))!!!!!!!!!!!!!!)&........+####...@+.....+@@@@@@######################$&&&#.........                  ",
"                 ......+>'')!!!!!!!!!!!!!!!'@...............@.................................................                  ",
"                  ......$,'))!!!!!!!!!!!!!!!-...............+................................................                   ",
"                  ......+=,'))!!!!!!!!!!!!!!!=$%$$$$$$$%$+.......@######$$$$$$+.............................                    ",
"                   ......@,'))!!!!!!!!!!!!!!))'',>>>>>>>>@......+*===--;;>>>>;*.......                                          ",
"                    ......&,'))!!!!!!!!!!!!!!))'',>>>,>>>+......=*===--;;>>>,>;$.......                                         ",
"                    ......+-,'))!!!!!!!!!!!!!)))',,,,,>,>+.....%===--;;>>>,>,>>-+......                                         ",
"                     ......$,'))!!!!!!!!!!!!!!!))''','',,+....#-----;;>,,,,',',,&.......                                        ",
"                     .......*,'))!!!!!!!!!!!!!!))))')'')'+...+-;;-;>>>,'''')'''',$......                                        ",
"                      ......+>''))!!!!!!!!!!!!!!!)))))))'+...=;;;;;,,''))))))!))';+......                                       ",
"                       ......$,'))!!!!!!!!!!!!!!!!!!!!)!)+..%,>>>>>,')))!!)!!!)))'&.......                                      ",
"                       ......+=,')!!!!!!!!!!!!!!!!!!!!!!)+.+,,,>>,,'))!!!!!!!!!!)!,#......                                      ",
"                        ......@,')))!!!!!!!!!!!!!!!!!!!!)@.;),>,,,'))!!!!!!!!!!!!!)-.......                                     ",
"                         ......&,'))!!!!!!!!!!!!!!!!!!!!)+*)'',,'''))!!!!!!!!!!!!!)'%......                                     ",
"                         ......+;'')!!!!!!!!!!!!!!!!!!!!)%))'',','))!!!!!!!!!!!!!!!)>@......                                    ",
"                          ......#,'))!!!!!!!!!!!!!!!!!!!)))))''')))!!!!!!!!!!!!!!!!!)*.......                                   ",
"                          .......*,'))!!!!!!!!!!!!!!!!!!!!!))'''))!!!!!!!!!!!!!!!!!!)'$..+...                                   ",
"                           ......@>,)))!!!!!!!!!!!!!!!!!!!!))))))!!!!!!!!!!!!!!!!!!!!);+......                                  ",
"                            ......%,'))!!!!!!!!!!!!!!!!!!!!!)))))!!!!!!!!!!!!!!!!!!!!!'&.......                                 ",
"                            .......=''))!!!!!!!!!!!!!!!!!!!!!!!!!!!!!!!!!!!!!!!!!!!!!!!,@......                                 ",
"                             ......#,,))!!!!!!!!!!!!!!!!!!!!!!!!!!!!!!!!!!!!!!!!!!!!!!!!-.......                                ",
"                              ......&,'))!!!!!!!!!!!!!!!!!!!!!!!!!!!!!!!!!!!!!!!!!!!!!!!'&..#....                               ",
"                              ......+;'')!!!!!!!!!!!!!!!!!!!!!!!!!!!!!!!!!!!!!!!!!!!!!!!)>+.#....                               ",
"                               ......#'')))!!!!!!!!!!!!!!!!!!!!!!!!!!!!!!!!!!!!!!!!!!!!!!)=.@%....                              ",
"                               .......*,'))!!!!!!!!!!!!!!!!!!!!!!!!!!!!!!!!!!!!!!!!!!!!!!!,$$&....                              ",
"                                ...@..+&====-=---------------------=-----=---------=-----=-=&&.....                             ",
"                                 ........................................................$&&$.......                            ",
"                                 .........@###########################################$&&&@.........                            ",
"                                  ..................................................................                            ",
"                                   ................................................................                             ",
"                                   ...............................................................                              ",
"                                                                                                                                ",
"                                                                                                                                ",
"                                                                                                                                ",
"                                                                                                                                ",
"                                                                                                                                ",
"                                                                                                                                ",
"                                                                                                                                ",
"                                                                                                                                ",
"                                                                                                                                ",
"                                                                                                                                ",
"                                                                                                                                ",
"                                                                                                                                "};
