/* XPM */
char * lengthen_xpm[] = {
"128 128 17 1",
" 	c None",
".	c #000100",
"+	c #260000",
"@	c #3B0000",
"#	c #4B0000",
"$	c #5B0000",
"%	c #670000",
"&	c #720003",
"*	c #760100",
"=	c #7F0000",
"-	c #8A1214",
";	c #962F2F",
">	c #A95250",
",	c #7D7F7C",
"'	c #BD7A79",
")	c #CD999A",
"!	c #DBB8B9",
"                                                                                                                                ",
"                                                                                                                                ",
"                                                                                                                                ",
"                                                                                                                                ",
"                                                                                                                                ",
"                                                                                                              *                 ",
"                                                                                                          =****&&&&             ",
"                                                                                                        =**=====***&%           ",
"                                                                                                       *========***&&%          ",
"                                                                                                      =***>))'>;=****%$         ",
"                                                                                                      ==='!!'>>;-=**%&%         ",
"                                                                                                     =*=>!)';-=--==*=%%$        ",
"                                                                                                     =*=)!>;*======**&%$        ",
"                                                                                                     *=-)';=========**%%#       ",
"                                                                                                    **=*)>-=========*&%$#       ",
"                                                                                                    &*==>>===========&%%#       ",
"                                                                                                    &***;;==========*&%$#       ",
"                                                                                                     &=-=;-=========*&$$@       ",
"                                                                                                     &*===========*=*%%$        ",
"                                                                                                     *&*===========*&%$#        ",
"                                                                                                      &&*======**=*&%$$@        ",
"                                                                                                      %%&&**=-===*%%$$#         ",
"                                                                                                       %%%%&**&&&%%$$#          ",
"                                                                                                        $%%%%%%%$%$$#           ",
"                                                                                                          $$$$%$$$#@            ",
"                                                                                                            ####@@              ",
"                                                                                                                                ",
"                                                                                                                                ",
"                                                                                                                                ",
"                                                                                                                                ",
"                                                                                             =*                                 ",
"                                                                                            =**&                                ",
"                                                                                           *==*%%                               ",
"                                                                                          ==>**%                                ",
"                                                                                         =='=%%$                                ",
"                                                                                        =='=&%$                                 ",
"                                                                                       =*'=*$$                                  ",
"                                                                                      =*==&%$                                   ",
"                                                                                      *=*&$$                                    ",
"                                                                                      *%*%$                                     ",
"                                                                                       &%$                                      ",
"                                                                                                                                ",
"                                                                                                                                ",
"                                                                                                                                ",
"                                                                                                                                ",
"                                                                                                                                ",
"                                                                                                                                ",
"                                                                                                                                ",
"                                                                           =*                                                   ",
"                                                                          =**&                                                  ",
"                                                                         *==*%%                                                 ",
"                                                                        ==;**%                                                  ",
"                                                                       *='=&%$                                                  ",
"                                                                      =='=&%$                                                   ",
"                                                                     =='=&$$                                                    ",
"                                                                    =*==&%$                                                     ",
"                                                                    ***&%$                                                      ",
"                                                                    &*&%$                                                       ",
"                                                                     *%$                                                        ",
"                                                                                                                                ",
"                                                                                                                                ",
"                                                                                                                                ",
"                                                                                                                                ",
"                                                                                                                                ",
"                                                                                                                                ",
"                                                                                                                                ",
"                                                                                                                                ",
"                                                                                                                                ",
"                                                       ....                                                                     ",
"                                                      .....                                                                     ",
"                                                     ......                                                                     ",
"                                                    ..,....                                                                     ",
"                                                   ..,....                                                                      ",
"                                                  ..,....                                                                       ",
"                                                 ..,....                                                                        ",
"                                                ..,....                                                                         ",
"                                               ..,....                                                                          ",
"                                              ..,....                                                                           ",
"                                             ..,....                                                                            ",
"                                            ..,....                                                                             ",
"                                           ..,....                                                                              ",
"                                          ..,....                                                                               ",
"                                         ..,....                                                                                ",
"                                        ..,....                                                                                 ",
"                                       ..,....                                                                                  ",
"                                      ..,....                                                                                   ",
"                                     ..,....                                                                                    ",
"                                    ..,....                                                                                     ",
"                                   ..,....                                                                                      ",
"                                  ..,....                                                                                       ",
"                                 ..,....                                                                                        ",
"                                ..,....                                                                                         ",
"                               ..,....                                                                                          ",
"                              ..,....                                                                                           ",
"                             ..,....                                                                                            ",
"                            ..,....                                                                                             ",
"                           ..,....                                                                                              ",
"                          ..,....                                                                                               ",
"                         ..,....                                                                                                ",
"                *       ..'....                                                                                                 ",
"            *=***&&&&  ..,....                                                                                                  ",
"          ===*====***%@.,....                                                                                                   ",
"         **=====*=***&%#....                                                                                                    ",
"        ====>))'>;===&-%@..                                                                                                     ",
"        ***'!!''>;-***&%$+                                                                                                      ",
"       ===>!!>;==--==**%%$                                                                                                      ",
"       *==)!>;=-======*&$$                                                                                                      ",
"       ***)';========**&&%@                                                                                                     ",
"      *==-'>-==========&%$@                                                                                                     ",
"      &*=='>-=======-=*&%%#                                                                                                     ",
"      &**=;;==========*&%$@                                                                                                     ",
"       *===--==========%%$@                                                                                                     ",
"       &&**=========***%$$+                                                                                                     ",
"       *&*===========*&%$#                                                                                                      ",
"        *&&=======*=*&%$$@                                                                                                      ",
"        %%&&**=-****&%$$#                                                                                                       ",
"         %%%*&&=**&%$$$#                                                                                                        ",
"          $%$%%%%%%$$$#                                                                                                         ",
"            $$$$$%$$#@                                                                                                          ",
"              #####@                                                                                                            ",
"                                                                                                                                ",
"                                                                                                                                ",
"                                                                                                                                ",
"                                                                                                                                ",
"                                                                                                                                ",
"                                                                                                                                ",
"                                                                                                                                ",
"                                                                                                                                "};
