/* XPM */
char * lineweightdefault_xpm[] = {
"256 64 2 1",
" 	c None",
".	c #000000",
"                                                                                                                                                                                                                                                                ",
"                                                                                                                                                                                                                                                                ",
"                                                                                                                                                                                                                                                                ",
"                                                                                                                                                                                                                                                                ",
"                                                                                                                                                                                                                                                                ",
"                                                                                                                                                                                                                                                                ",
"                                                                                                                                                                                                                                                                ",
"                                                                                                                                                                                                                                                                ",
"                                                                                                                                                                                                                                                                ",
"                                                                                                                                                                                                                                                                ",
"                                                                                                                                                                                                                                                                ",
"                                                                                                                                                                                                                                                                ",
"                                                                                                                                                                                                                                                                ",
"                                                                                                                                                                                                                                                                ",
"                                                                                                                                                                                                                                                                ",
"                                                                                                                                                                                                                                                                ",
"                                                                                                                                                                                                                                                                ",
"                                                                                                                                                                                                                                                                ",
"                                                                                                                                                                                                                                                                ",
"                                                                                                                                                                                                                                                                ",
"                                                                                                                                                                                                                                                                ",
"                                                                                                                                                                                                                                                                ",
"                                                                                                                                                                                                                                                                ",
"                                                                                                                                                                                                                                                                ",
"                                                                                                                                                                                                                                                                ",
"                                                                                                                                                                                                                                                                ",
"                                                                                                                                                                                                                                                                ",
"                                                                                                                                                                                                                                                                ",
"                                                                                                                                                                                                                                                                ",
"................................................................................................................................................................................................................................................................",
"................................................................................................................................................................................................................................................................",
"................................................................................................................................................................................................................................................................",
"................................................................................................................................................................................................................................................................",
"................................................................................................................................................................................................................................................................",
"................................................................................................................................................................................................................................................................",
"                                                                                                                                                                                                                                                                ",
"                                                                                                                                                                                                                                                                ",
"                                                                                                                                                                                                                                                                ",
"                                                                                                                                                                                                                                                                ",
"                                                                                                                                                                                                                                                                ",
"                                                                                                                                                                                                                                                                ",
"                                                                                                                                                                                                                                                                ",
"                                                                                                                                                                                                                                                                ",
"                                                                                                                                                                                                                                                                ",
"                                                                                                                                                                                                                                                                ",
"                                                                                                                                                                                                                                                                ",
"                                                                                                                                                                                                                                                                ",
"                                                                                                                                                                                                                                                                ",
"                                                                                                                                                                                                                                                                ",
"                                                                                                                                                                                                                                                                ",
"                                                                                                                                                                                                                                                                ",
"                                                                                                                                                                                                                                                                ",
"                                                                                                                                                                                                                                                                ",
"                                                                                                                                                                                                                                                                ",
"                                                                                                                                                                                                                                                                ",
"                                                                                                                                                                                                                                                                ",
"                                                                                                                                                                                                                                                                ",
"                                                                                                                                                                                                                                                                ",
"                                                                                                                                                                                                                                                                ",
"                                                                                                                                                                                                                                                                ",
"                                                                                                                                                                                                                                                                ",
"                                                                                                                                                                                                                                                                ",
"                                                                                                                                                                                                                                                                ",
"                                                                                                                                                                                                                                                                "};
