/* XPM */
char * lineardimension_xpm[] = {
"128 128 17 1",
" 	c None",
".	c #000000",
"+	c #060A05",
"@	c #10120F",
"#	c #161816",
"$	c #1D1F1C",
"%	c #252624",
"&	c #2E302D",
"*	c #323432",
"=	c #383A38",
"-	c #3E403D",
";	c #404240",
">	c #515350",
",	c #5D5F5C",
"'	c #686A67",
")	c #737572",
"!	c #7D7F7C",
"                                                                                                                                ",
"                                                                                                                                ",
"                                                                                                                                ",
"                                                                                                                                ",
"                                                                                                                                ",
"                                                                                                                                ",
"                                                                                                                                ",
"                                                                                                                                ",
"                                                                                                                                ",
"        .....                                                                                                      .....        ",
"        .$...                                                                                                      ..+..        ",
"        .'...                                                                                                      ..,..        ",
"        .!...                                                                                                      ..!..        ",
"        .>...                                                                                                      ..>..        ",
"        .*...                                                                                                      ..-..        ",
"        .*...                                                                                                      ..;..        ",
"        .*...                                                                                                      ..-..        ",
"        .*...                                                                                                      ..=..        ",
"        .*...                                                                                                      ..-..        ",
"        .*...                                                                                                      ..;..        ",
"        .*...                                                                                                      ..-..        ",
"        .*...                                                                                                      ..=..        ",
"        .*...                                                                                                      ..=..        ",
"        .*...                                                                                                      ..;..        ",
"        .*...                                                                                                      ..=..        ",
"        .*...                                                                                                      ..;..        ",
"        .*...                                                                                                      ..-..        ",
"        .*...                        ..                                                  ..                        ..=..        ",
"        .*...                      .....                                                .....                      ..-..        ",
"        .*...                     ......                                                ......                     ..=..        ",
"        .*...                   ........                                                ..$.....                   ..-..        ",
"        .*...                ......#....                                                ..%'.......                ..;..        ",
"        .*...             .......&,*....                                                ..#!>.........             ..-..        ",
"        .*...            ......*,)'.....                                                .+%)'@.........            ..=..        ",
"        .*...       ........@;,)),*.....                                                ..,)>%@.............       ..-..        ",
"        .*...+...........+=,!)'>=%.....................................................+#>'';#.@@@...................;..        ",
"        .*...@-,'))!!!!!!!!),;%#..+.........&-------------------------------------->)!!'>,,>&@...+...................-..        ",
"        .*................................................................................%*%........................=..        ",
"        .*.................................................................................#$........................=..        ",
"        .*...       ....................                                                ..+.................       ..;..        ",
"        .*...        ...................                                                .......+...........        ..=..        ",
"        .*...             ..............                                                ...............            ..;..        ",
"        .*...               ............                                                ............               ..-..        ",
"        .*...                   ........                                                ........                   ..=..        ",
"        .*...                    .......                                                .......                    ..-..        ",
"        .*...                      .....                                                .....                      ..=..        ",
"        .*...                        ...                                                 ..                        ..-..        ",
"        .*...                                                                                                      ..;..        ",
"        .*...                                                                                                      ..-..        ",
"        .*...                                                                                                      ..=..        ",
"        .*...                                                                                                      ..-..        ",
"        .*...                                                                                                      ..;..        ",
"        .*...                                                                                                      ..-..        ",
"        .*...                                                                                                      ..=..        ",
"        .*...                                                                                                      ..=..        ",
"        .*...                                                                                                      ..;..        ",
"        .*...                                                                                                      ..=..        ",
"        .*...                                                                                                      ..;..        ",
"        .*...                                                                                                      ..-..        ",
"        .*...                                                                                                      ..=..        ",
"        .*...                                                                                                      ..-..        ",
"        .*...                                                                                                      ..=..        ",
"        .*...                                                                                                      ..-..        ",
"        .*...                                                                                                      ..;..        ",
"        .*...                                                                                                      ..-..        ",
"        .*...                                                                                                      ..=..        ",
"        .*...                                                                                                      ..-..        ",
"        .*...                                                                                                      ..;..        ",
"        .*...                                                                                                      ..-..        ",
"        .*...                                                                                                      ..=..        ",
"        .*...                                                                                                      ..=..        ",
"        .*...                                                                                                      ..;..        ",
"        .*...                                                                                                      ..=..        ",
"        .*...                                                                                                      ..;..        ",
"        .*...                                                                                                      ..-..        ",
"        .*...                                                                                                      ..=..        ",
"        .*...                                                                                                      ..-..        ",
"        .*...                                                                                                      ..=..        ",
"        .*...                                                                                                      ..-..        ",
"        .*...                                                                                                      ..;..        ",
"        .*...                                                                                                      ..-..        ",
"        .*...                                                                                                      ..=..        ",
"        .*...                                                                                                      ..-..        ",
"        .*...                                                                                                      ..;..        ",
"        .*...                                                                                                      ..-..        ",
"        .*...                                                                                                      ..=..        ",
"        .*...                                                                                                      ..=..        ",
"        .*...                                                                                                      ..;..        ",
"        .*...                                                                                                      ..=..        ",
"        .*...                                                                                                      ..;..        ",
"        .*...                                                                                                      ..-..        ",
"        .*...                                                                                                      ..=..        ",
"        .*...                                                                                                      ..-..        ",
"        .*...                                                                                                      ..=..        ",
"        .*...                                                                                                      ..-..        ",
"        .*...                                                                                                      ..;..        ",
"        .*...                                                                                                      ..-..        ",
"        .*...                                                                                                      ..=..        ",
"        .*...                                                                                                      ..-..        ",
"        .*...                                                                                                      ..;..        ",
"        .*...                                                                                                      ..-..        ",
"        .*...                                                                                                      ..=..        ",
"        .*...                                                                                                      ..=..        ",
"        .*...                                                                                                      ..;..        ",
"        .*...                                                                                                      ..=..        ",
"        .*...                                                                                                      ..;..        ",
"        .*...                                                                                                      ..-..        ",
"        .*...                                                                                                      ..=..        ",
"        .*...                                                                                                      ..-..        ",
"        .*...                                                                                                      ..=..        ",
"        .*...                                                                                                      ..-..        ",
"        .*...                                                                                                      ..;..        ",
"        .*...                                                                                                      ..-..        ",
"        .....                                                                                                      .....        ",
"        .....                                                                                                      .....        ",
"        .....                                                                                                      .....        ",
"        .....                                                                                                      .....        ",
"        .....                                                                                                      .....        ",
"                                                                                                                                ",
"                                                                                                                                ",
"                                                                                                                                ",
"                                                                                                                                ",
"                                                                                                                                ",
"                                                                                                                                ",
"                                                                                                                                ",
"                                                                                                                                ",
"                                                                                                                                ",
"                                                                                                                                "};
