/* XPM */
char * line_xpm[] = {
"128 128 17 1",
" 	c None",
".	c #000100",
"+	c #180100",
"@	c #290102",
"#	c #3A0000",
"$	c #490000",
"%	c #560000",
"&	c #660000",
"*	c #760000",
"=	c #800000",
"-	c #8A1315",
";	c #962F2F",
">	c #A14545",
",	c #B05F5D",
"'	c #7E807D",
")	c #C48686",
"!	c #D6ADAD",
"                                                                                                                                ",
"                                                                                                                                ",
"                                                                                                                                ",
"                                                                                                                                ",
"                                                                                                                                ",
"                                                                                                              *                 ",
"                                                                                                          ********&             ",
"                                                                                                        =**=*******&&           ",
"                                                                                                       *==*====*****&&          ",
"                                                                                                      ****,))),;=****&&         ",
"                                                                                                      *==)!!),>;-=***&&         ",
"                                                                                                     *==,!!,;----==**&&%        ",
"                                                                                                     **=!!,;-======***&&        ",
"                                                                                                     **=!);=========**&%$       ",
"                                                                                                    ***=),-=========**&&$       ",
"                                                                                                    **=*,>=========****%$       ",
"                                                                                                    ***=>;==========*&*&$       ",
"                                                                                                     ***=-=========***%%#       ",
"                                                                                                     ***===========**&&%        ",
"                                                                                                     &&*&&======*==*&&&%        ",
"                                                                                                      %++.#*==*=*=**&%%#        ",
"                                                                                                      +...+%******&&%&$         ",
"                                                                                                     ......%&*&&&&&&%%          ",
"                                                                                                    ..'...+%&&&&&&%%$           ",
"                                                                                                   ..'....$%%%%%%%%#            ",
"                                                                                                  ..'....  @##$###              ",
"                                                                                                 ..'....                        ",
"                                                                                                ..'....                         ",
"                                                                                               ..'....                          ",
"                                                                                              ..'....                           ",
"                                                                                             ..'....                            ",
"                                                                                            ..'....                             ",
"                                                                                           ..'....                              ",
"                                                                                          ..'....                               ",
"                                                                                         ..'....                                ",
"                                                                                        ..'....                                 ",
"                                                                                       ..'....                                  ",
"                                                                                      ..'....                                   ",
"                                                                                     ..'....                                    ",
"                                                                                    ..'....                                     ",
"                                                                                   ..'....                                      ",
"                                                                                  ..'....                                       ",
"                                                                                 ..'....                                        ",
"                                                                                ..'....                                         ",
"                                                                               ..'....                                          ",
"                                                                              ..'....                                           ",
"                                                                             ..'....                                            ",
"                                                                            ..'....                                             ",
"                                                                           ..'....                                              ",
"                                                                          ..'....                                               ",
"                                                                         ..'....                                                ",
"                                                                        ..'....                                                 ",
"                                                                       ..'....                                                  ",
"                                                                      ..'....                                                   ",
"                                                                     ..'....                                                    ",
"                                                                    ..'....                                                     ",
"                                                                   ..'....                                                      ",
"                                                                  ..'....                                                       ",
"                                                                 ..'....                                                        ",
"                                                                ..'....                                                         ",
"                                                               ..'....                                                          ",
"                                                              ..'....                                                           ",
"                                                             ..'....                                                            ",
"                                                            ..'....                                                             ",
"                                                           ..'....                                                              ",
"                                                          ..'....                                                               ",
"                                                         ..'....                                                                ",
"                                                        ..'....                                                                 ",
"                                                       ..'....                                                                  ",
"                                                      ..'....                                                                   ",
"                                                     ..'....                                                                    ",
"                                                    ..'....                                                                     ",
"                                                   ..'....                                                                      ",
"                                                  ..'....                                                                       ",
"                                                 ..'....                                                                        ",
"                                                ..'....                                                                         ",
"                                               ..'....                                                                          ",
"                                              ..'....                                                                           ",
"                                             ..'....                                                                            ",
"                                            ..'....                                                                             ",
"                                           ..'....                                                                              ",
"                                          ..'....                                                                               ",
"                                         ..'....                                                                                ",
"                                        ..'....                                                                                 ",
"                                       ..'....                                                                                  ",
"                                      ..'....                                                                                   ",
"                                     ..'....                                                                                    ",
"                                    ..'....                                                                                     ",
"                                   ..'....                                                                                      ",
"                                  ..'....                                                                                       ",
"                                 ..'....                                                                                        ",
"                                ..'....                                                                                         ",
"                               ..'....                                                                                          ",
"                              ..'....                                                                                           ",
"                             ..'....                                                                                            ",
"                            ..'....                                                                                             ",
"                           ..'....                                                                                              ",
"                          ..'....                                                                                               ",
"                         ..'....                                                                                                ",
"                *       ..'....                                                                                                 ",
"            ********&  ..'....                                                                                                  ",
"          =*=*=******&#+'....                                                                                                   ",
"         ***====*****&&$+...                                                                                                    ",
"        **==,))),;==**-&#..                                                                                                     ",
"        **=)!!),>;;==*&&&+                                                                                                      ",
"       **=,!!,;-=-==*=*&&%                                                                                                      ",
"       *==!!,;-=======**&%                                                                                                      ",
"       **=!);=========**&&#                                                                                                     ",
"      ***=),-=========**&%$                                                                                                     ",
"      **=*,>==========**&&$                                                                                                     ",
"      *&==>;=========***&%$                                                                                                     ",
"       ***=;==========*&&%#                                                                                                     ",
"       ***=========****&&%@                                                                                                     ",
"       &***==========**&%$                                                                                                      ",
"        &***=*===*=**&&&%#                                                                                                      ",
"        *&&****=****&&&%$                                                                                                       ",
"         &&&&*&***&*&%&$                                                                                                        ",
"          &&&&&&&&&%&%$                                                                                                         ",
"            &&&%&%&%%#                                                                                                          ",
"              $%%$$#                                                                                                            ",
"                                                                                                                                ",
"                                                                                                                                ",
"                                                                                                                                ",
"                                                                                                                                ",
"                                                                                                                                ",
"                                                                                                                                ",
"                                                                                                                                ",
"                                                                                                                                "};
