/* XPM */
char * locator_snaptotangent_xpm[] = {
"128 128 17 1",
" 	c None",
".	c #606300",
"+	c #7C7E00",
"@	c #8C8C03",
"#	c #919500",
"$	c #9A9D00",
"%	c #A3A700",
"&	c #AAAD06",
"*	c #B1B300",
"=	c #B9BA00",
"-	c #C0C105",
";	c #C3C300",
">	c #C9C919",
",	c #CFD032",
"'	c #D5D750",
")	c #D7DB5E",
"!	c #DFDF75",
"                                                                                                                                ",
"                                                                                                                                ",
"                                                                                                                                ",
"                                                                                                                                ",
"                                                                                                                                ",
"                                                                                                                                ",
"                                                                                                                                ",
"                                                                                                                                ",
"                                                                                                                                ",
"                                                                                                                                ",
"          ====****************************************************************************************************&&&%          ",
"          =--====*=*=*=**=*===**=*==*=*=*=**===-==**=**==*=*=*===**=*=*=*=*==*=**=*==*=*=*=*=*==*=*==*===*=**=*==**&%%          ",
"          ==----;-;-;-;;-;---;;-;--;-;-;-;;------;;-;;--;-;-;---;;-;-;-;-;--;-;;-;--;-;-;-;-;--;-;--;---;-;;-;--;==*%$          ",
"          *=;!),,,,,,,,,,,,,,,,,,,,,,,,,,,,,,,,,,,,,,,,,,,,,,,,,,,,,,,,,,,,,,,,,,,,,,,,,,,,,,,,,,,,,,,,,,,,,,,,,,;=&$#          ",
"          *=;!),,,,,,,,,,,,,,,,,,,,,,,,,,,,,,,,,,,,,,,,,,,,,,,,,,,,,,,,,,,,,,,,,,,,,,,,,,,,,,,,,,,,,,,,,,,,,,,,,,-=*$@          ",
"          *=;,,----------------------------->------------------------------------------------>------------------>-*&$#          ",
"          *==,,->-;>;;-;-;-;;>;--;-;>;-;;-;->->-;>;;->->--;--->>->;;->-;--;->>-;-->->;;-;>->;->>-->---;-;;>;--;-;;*%$@          ",
"          *=;,,>;;;;;;;;;;;;;;;;;;;;;;;;;;;;->;;;;;;;-;;;;;;;;;;;;;;;;;;;;;>;;;;;>;;;;;;;;;;;;--;;;;;;;;;;;;;;;;;-=&$@          ",
"          *=-,,-;;;;;;;;;;;;;;;;;;;;;;;;;;;;;;;>;;;;;;;;;;;;;;;;;;;;;;;;;;;;;;;;;;;;;;;;;;;;;;;;;;;;;;;;;;;;;;;;;-=%$@          ",
"          &*=,,;;;;;;;;;;;;;;;;;;;;;;;;;;;;;;;;;;;;;;;;;;;;;;;;;;;;;;;;;;;;;;;;;;;;;;;;;;;;;;;;;;;;;;;;;;;;;;;;;;-*&$#          ",
"          *==---;-------;-;;;;;;;;;;;;;;;;;;;;;;;;;;;;;;;;;;;;;;;;;;;;;;;;;;;;;;;;;;;;;;;;;;;;;;;;;;;;--;--------;*%$@          ",
"          &&====*=***====-=;;;;;;;;;;;;;;;;;;;;;;;;;;;;;;;;;;------;;;;;;;;;;;;;;;;;;;;;;;;;;;;;;;;;--====*=*==***&%#@          ",
"          &&&&&&%%&&%%&&*==-;;>;;;;;;;;;;;;;;;;;;;;;;;;=-=============---;;;;;;;;;;;;;;;;;;;;;;;;;;-*=**&&&&%%%&%%$$#@          ",
"          &%%$$$$$#$$$$%&*=;;>;>;;;;;;;;;;;;;;;;;-;;===****%&%%&%&&&&***===--;;;;;;;;;;;;;;;;;;;;;;-=*&$$$$#$$$@$$$#@@          ",
"          &$$#@@@@@@@#$$%*=-;>>>;;;;;;;;;;;;;;;;====*&&%$$$$$$$$$$$$$%%%%&**==--;;;;;;;;;;;;;;;;;;-=*&%$###@@@@@@@@@@#          ",
"                           =>,>>;;;;;;;;;;;;;;==**&%$$#####@@@@@@@#####$$$&&&*==;;;;;;;;;;;;;;;;;;-=&+                          ",
"                          *>'',>;;;;;;;;;;;-==*&&$$##@@@+...         .++@##$$$&**=;;;;;;;;;;;;;;;--=*&+                         ",
"                         =>,)),-;;;;;;;;;--==&&$##@@+.                    ++$$$$&*===;;;;;;;;;;;;---*%%.                        ",
"                        *->!!'>>;;;;;;;;==*&%##@@+.                          +@#$%&*==-;;;;;;;;;->-==*&%                        ",
"                       *=-,!!'>-;;;;;;-==*%$#@@+.                              .@#$$&*==;;;;;;;;;;-;==*$$                       ",
"                      **->!!),>;;;;;;-=*&%$@@+.                                  .#$%%*=-;;;;;;;;;;;-*=&%#                      ",
"                      *>=!!),>;;;;;;-=**$#@+.                                      +#$%&==-;;;;;;;;;;;=*%%@                     ",
"                     ==-!!!,>;;;;;--**$$@@.                                          @#$&*=-;;;;;;;;;;;=*%$+                    ",
"                    ==-'!),>>;;;;--=*%$@@.                                            +$%&*=-;;;;;;;;;;;**%$                    ",
"                   *=-,!!'>;;;;;;=*&$#@+.                                               #%&*=-;;;;;;;;;;**&$#                   ",
"                   ==-!!'>>;;;;--=*%#@+                                                  @$&*=-;;;;;;;;;;=*%$@                  ",
"                  ==;'!),-;;;;;-*&$#@.                                                    #%&*=;;;>;;;;;;-=&$$                  ",
"                  *->!!,>>;;;;-=*%$@+                                                      @%&==;;;;;;;;;-=*&$@                 ",
"                 ==>)!'>;;;;;-=*%@@+                                                        #%&==;;;;;;;;;;=&%$                 ",
"                 =='!),>-;;;;==&$@+                                                          $&*=;;;;;;;;;;==%$@                ",
"                *-;)!'-;;;;;==&$@+.                                                           #&==;;>;;;;;--=*%$.               ",
"                -*,!)>>;;;;;-*$#@.                                                            @&&==;;;;;;;;;==%$$               ",
"               *--!!,>;;;;-*=&$@.                                                              #%*=;;;;;;;;;-=*$#               ",
"               =*,))>>;;;;;=&$@+                                                                $&==->>;;;;;;=*&$@              ",
"              ==;'!'-;;;;>==%#@.                                                                 &*=;;>;;;;;;-=&$#              ",
"              *=;!!>>;;;;-=&$@+                                                                  $&*=;;>;;;;;;=*%$+             ",
"             *=->),>;;;;;-*%#@.                                                                   &*=;;>;;;;;;-=%$@             ",
"             ==-)!,;;;;;-=&$@+                                                                    $&*>;;;;;;;;-=*$#             ",
"             *->))>;;;;;-=%#@.                                                                     **=;>>;;;;;-*=%#+            ",
"             =*,!,>;;;;;=*$@+                                                                      %*=;>;;;;;;;;*%$@            ",
"            *=;,!,>;;;;-*&$@.                                                                      $&==>>>;;;;;==&$#            ",
"            ==-''>;;;;;=*&#+                                                                        &*=;>;;;;;;-=&$#.           ",
"            *->),>;;;;>=*$#+                                                                        &&=;>>;;;;;>==%#+           ",
"            =--!,>;;;;;-&$@.                                                                        %**;>>;;;;;;=*&$@           ",
"           **->),;;;;;-=&$@                                                                          *=->>;;;;;;;*&$@           ",
"           *==,)>;;;;;**%#@                                                                          &*=;,>;;;;;;=&$#           ",
"           *=>''>;;;;;==$#+                                                                          **=;>>;;;;;-=&$#.          ",
"           **-',;;;;;;=*%#.                                                                          &*=;,>;;;;;;=*%#.          ",
"           *=;',>;;;;-*&$$.                                                                           *=-,>;;;;;-**%$+          ",
"           *=;',;;;;;>=&$@                                                                            **;,>;;;;;;=*%@+          ",
"           *=;',;;;;-;=&$@                                                                            *=>,,;;;;;;-*&#@          ",
"           *=;',;;;;;;*%$@                                                                            **=,,;;;;;;=*%#+          ",
"           *=;'>;;;;;;*%$@                                                                            *=;>,;;;;;--*&#@          ",
"           ==-,>;;;;;-=&$@                                                                            **;,,;;;;;;=*%$+          ",
"           *=>'>;;;;;;=&$@                                                                            *=-,,>;;;;--*&$@          ",
"           *=-,,;;;;;=*&$@                                                                            *=-,,;;;;;;=*%$+          ",
"           *=-,>;;;;;;=&$#                                                                            &=>',-;;;;;=*%#@          ",
"           *=>,,;;;;;>*&$#                                                                            *=-',;;;;;;=*$#+          ",
"           *=-,,;;;;;;=&$#                                                                            ==;',;;;;;;==%#+          ",
"           **>,>;;;;;;=*%#.                                                                           *=>',;;;;;;=%%#+          ",
"           *==>,;;;;;-=*&#+                                                                          *=-,'>>;;;;>=&$@.          ",
"           &*=>>>;;;;;-*%$+                                                                          **-,)>;;;;;-=&$@.          ",
"           *==>>>;;;;-;=&$@                                                                          ==>')>;;;;;-*&$@           ",
"           %**-,>;;;;-;=&$#                                                                          *=>!,>;;;;;=*%#@           ",
"           &*=->>;;;;;-==%$.                                                                         *-,!,>;;;;;;=$$@           ",
"            *==>>;;;;;;=*%$@                                                                        ==-'),;;;;;;=&$@+           ",
"            &==>>;;;;;;;=&$#                                                                        ==-)'>;;;;;-**$@.           ",
"            &*=;>>;;;;;;=*%$+                                                                       *>,!,>;;;;;-=%#@            ",
"            %&=->>;;;;;--=&#@                                                                      ==>)),>;;;;;-*%#@            ",
"             &*=;>>;;;;;-=*%$.                                                                     *=,!)>;;;;;;=&$@+            ",
"             *&=->>;;;;;;-*%$@                                                                    ==-)!,-;;;;;==%$@.            ",
"             %&*-;;;;;;;;-=*%$.                                                                   ==,!),>;;;;;=*%@@             ",
"              **=;>;;;;;-;-=%$@                                                                  *=;)!,>;;;;;-*&$@+             ",
"              &&=-;>;;;;;-==*%#+                                                                 =-,!!,-;;;;;-=%#+.             ",
"              %&*-;>>;;;;;--=*$#                                                                ==-!!,>>;;;;;=&%@+              ",
"               %**-;;;;;;;;;=*%$@                                                              ==>'!),>;;;;;==%$#.              ",
"               %&*=-;;;;;;;;-=*$$+                                                             *->!!'>;;;;;-**$@@               ",
"                %*=>;;;;;;;;--=*%#                                                            =;-!!'>;;;;;;-=%$@.               ",
"                $&*=->;;;;;>;--**%#                                                          *=-)!!,>;;;;;-=*$@@                ",
"                 %&=-;;;;;;;;--=*%%@                                                        ==;'!!,>-;;;;;-*%$@.                ",
"                 $&&=;;>;;;;;;;-=*%%@                                                      *--,!!',;;;;;;-=&$@@                 ",
"                  $&*=;;;;;;;;;--=*%%#                                                    ==-,!!),;;;;;;>**%@@.                 ",
"                   %&==;;;;;;;-;-;=*&%#                                                  *-->!!),>;;;;;;;=%$@+                  ",
"                   $&*=-;;;;;;;;;--=*&%$                                                ==-,!!),>;;;;;--=&$#+                   ",
"                    %&*=;;;;;;;;;;--=*&%$@                                             *--,!!!,,;;;;;;-=*%@@.                   ",
"                     $&*=;;;;;;;;;;;-;***%#                                          ==;-'!!),-;;;;;;-=*%#@+                    ",
"                     $%&==;;;;;;;;;;;;*=*&%%                                        *=-;'!!),>-;;;;-;-*&$@@                     ",
"                      $%%==;;;;;;;;;;;;-==*&%$                                    ==;->!!!',>-;;;;;-==&$@@.                     ",
"                       %%&=-;;;;;;;;;;;;--=**&&$                                =*=->'!!!'>->;;;;;--*&$@@.                      ",
"                        $%&==;;;;;;;;;>;-;-;=***&%$                           ===;-,!!!',;->;;;;;;-=*$#++                       ",
"                         $&&==;;;;;;;;;;;-;;--==**&&%%                     ====-;>)!!)'>>>-;;;;;--*&%#@+                        ",
"                          $&*==;;;;;;;;;;;;>>---===***&&&%            **===*---,)!!)'>>>;;-;;;;--=*$@@+                         ",
"                          +%$&==-;;;;;;;;;;;>->;;-==*===************===*==;->,)!!)',,--;;;;;;;-=*&%$@+                          ",
"                            $%&*=;;;;;;;;;;;;;;>>>>;;-==-===**=**===-=-;->,'!)!),,->;;;;;;;;;-=*&#@++                           ",
"                             $%&*==;;;;;;;;;;;;;;>>>>>>-;--;;-;;;-;-->,,')))',,,---;;;;;;;;--=*%$#@+                            ",
"                              $$%&==-;;;;;;;;;;;;;;>>>>>,,,,,,,,,,,'''')'',,>>-;;>;;;;;;;--==&$#@@.                             ",
"                               #$%%*==-;;;;;;;;;;;;--->;>>>>,>,,,,,,,,>,->----;;;;;;;;;;--=*%$#@@.                              ",
"                                +#$&&=-=;;;;;;;;;;;;;->;;;->;>->>-->---;>->--;;;;;;;;;--=*&$$#@+                                ",
"                                  #$$%**==;;;;;;;;;;;;;;;;;;->-->;->;>;;;-;;;;;;;;;-;===*%$#@@.                                 ",
"                                   +$$%&*===-;;;;;;;;;;;;;;;;;;>;;;;;;;;;;;;;;;;;;--==*%$#@@+                                   ",
"                                     @$$$&&===-;;;;;;;;;;;;;;;;;;;;;;;;;;;;;;;;--=-**%$##@+.                                    ",
"                                       #$$$%&**===;;;;;;;;;;;;;;;;;;;;;;;;;;--==**&%###@++                                      ",
"                                         #$$$%%&*===-==;;;;;;;;;;;;;;;;;-=-===*&&$$##@@.                                        ",
"                                           @$$$$%%&&**=======-===;========*&&%%$##@#+.                                          ",
"                                             +@##$$%%%%&&*&**********%&&%%$$$##@@++.                                            ",
"                                                +@###$$$$$%%%%%%%%%%$%$$$#$@@@++.                                               ",
"                                                   .+@@#######$####$#@@@@@@+.                                                   ",
"                                                         .++@+@+++++++..                                                        ",
"                                                                                                                                ",
"                                                                                                                                ",
"                                                                                                                                ",
"                                                                                                                                ",
"                                                                                                                                ",
"                                                                                                                                ",
"                                                                                                                                ",
"                                                                                                                                ",
"                                                                                                                                ",
"                                                                                                                                "};
