/* XPM */
char * locator_snaptoquadrant_xpm[] = {
"128 128 17 1",
" 	c None",
".	c #787A00",
"+	c #898900",
"@	c #939400",
"#	c #999A00",
"$	c #9EA200",
"%	c #A6AA00",
"&	c #ACAF00",
"*	c #B3B501",
"=	c #B9BA00",
"-	c #BFBF00",
";	c #C3C300",
">	c #C9C91A",
",	c #D1D239",
"'	c #D7DA5A",
")	c #D9DD68",
"!	c #E0DF77",
"                                                                                                                                ",
"                                                                                                                                ",
"                                                                                                                                ",
"                                                                                                                                ",
"                                                                                                                                ",
"                                                                                                                                ",
"                                                                                                                                ",
"                                                                                                                                ",
"                                                                                                                                ",
"                                                                                                                                ",
"                                                                =&                                                              ",
"                                                               =**%                                                             ",
"                                                              ===*%$                                                            ",
"                                                             =--;*&$#                                                           ",
"                                                            ==;'>-=&$#                                                          ",
"                                                           =-;'!';=*%%#                                                         ",
"                                                          ==;'!!,;-=&%$#                                                        ",
"                                                         =->'!!,>;;--*%$#                                                       ",
"                                                        ==;)!),>;>;;;=*%$#                                                      ",
"                                                       =-;'!!,>;;;;;;;=&%$#                                                     ",
"                                                      ==;'!),,;;;;;;;-;=&%$.                                                    ",
"                                                     =->'!!,>;;;;;;;;;;-=&%%.                                                   ",
"                                                    ==;)!),,;;;;;;;;;;;;-=%&$.                                                  ",
"                                                   ==;'!!,>;;;;;;;;;;;;;;==&%%.                                                 ",
"                                                  =-;'!!,>>;;;;;;;;;;;;;;-=*&&$.                                                ",
"                                                 =-;'!!,>>;;;;;;;;;;;;;;;;;-*&%%                                                ",
"                                                ==;'!),>>;;;;;;;=;;;;;;;;;;;-*%%$                                               ",
"                                               =-;)!!,>>;;;;;;==;;;;;;;;;;;;---%%$                                              ",
"                                              ==>'!),>;;;;;;=;-==*;=;;;;;;;;;--=&%$                                             ",
"                                             =-;'!!,>>;;;;=;=*&&&**-;;;;;;;;;>;-=%%$                                            ",
"                                            =;;'!),,;;;;;;==&%$$#%&&=;;;;;;;;;--;*&%$                                           ",
"                                           =-='!!,>;;;;;;==&%#@+ +$&*=;;;;;;;;>-;-=&%$                                          ",
"                                          =;>'!!,,;;;;;=;=&##+.   @#%*=;;;;;;;;;--=*&%$                                         ",
"                                         =-='!),>;;;;=;;*%#@+.     @$%*==;;;;;;;>;;-*&%$                                        ",
"                                        ==>'!!,>;;;;;;==&%@+.       @$%*=;;;;;;;;;;;-*&%$                                       ",
"                                       =-;'!!,>>;;;;;==%$@+.         @%%&==;;;;;;;;;--=%%$                                      ",
"                                      ==;'!),>;;;;;;;=&#@+.           #%%*=;;;;;;;;;-;-*&%$                                     ",
"                                     =-;'!!,>>;;;;;;*&##+.             @$%&==;;;;;;;;;--=&%$                                    ",
"                                    ==;'!),>;;;;;===&$@+.               #%%*=;;;;;;;;;--=*&%$                                   ",
"                                   =->'!!,>;;;;;;;=%##+.                 @$%&=;;;;;;;;>;;-=&%$                                  ",
"                                  ==;)!),>>;;;;=;*&$@+.                   #$%*=;;;;;;;;;--=*&%$                                 ",
"                                 =-;'!!,>>;;;;;;*%$@+.                     #$%*==;;;;;;;;;;-=%%$                                ",
"                                ==;)!),,;;;;;=;*&$@+.                       @$%*=;;;;;;;;;---*&%$                               ",
"                               ==>'!!,>;;;;;;;**$@+.                         @$%*-=;;;;;;;>;;-=%%$                              ",
"                              =-;)!),>>;;;;;==%$@+.                           #$%*=;;;;;;;;;-;-*&%$                             ",
"                             =-;'!),>>;;;;;==&#@+.                             #$%*=;;;;;;;;;;;-=&%$                            ",
"                            ==;)!!,,;;;;;=;=&%@+.                               #$%*=;;;;;;;;;--=*&%$                           ",
"                           ==;)!!,>;;;;=;;*%#@+.                                 @$%*=;;;;;;;;>;;-=&%$                          ",
"                          =-;'!!,>;;;;;;=*&%@+.                                   @$%*==;;;;;;;;--=*&%$                         ",
"                         =-;'!),>>;;;;;==&#@+.                                     @$%*-;;;;;;;;>;;-=%%$                        ",
"                        ==;)!!,>;;;;;;;=&%@+.                                       @$&*=;;;;;;;;;--;*&%$                       ",
"                       ==>)!!,>;;;;;=;*&#@+.                                         @$%*==;;;;;;;>;;-*%%$                      ",
"                      =-;'!),>;;;;;;==&$@+.                                           @$%==;;;;;;;;;-;-*&%$                     ",
"                    ==-;)!!,>>;;;;=;*%#@+.                                             @$%&=;;;;;;;;;;;-=&%$+                   ",
"                   *==;)!!,>;;;;;;=-&%@+.                                               @%%*=;;;;;;;;;---*&$$+                  ",
"                  ==-;)!),>>;;;;;;*%$@+.                                                 #$%&=;;;;;;;;>;;-=&%$+                 ",
"                 ===;!!),>;;;;;=*-&#@+.                                                   @%%&=;;;;;;;;;---*%%$+                ",
"                ==-;!!),>;;;;;;;*&##+.                                                     @$&*=;;;;;;;;;;;--%%$+               ",
"               ==;>!!',;>;;;;;=-&%@+.                                                       @$%*=;;;;;;;;;---*%%$+              ",
"              ===>!!),;;;;;;;==&$@+.                                                         #%%*;;;;;;;;;>>;--%%$+             ",
"             ==-;!!',;;;;;;;;;*$#+.                                                           #%*=;>>;;;;;;;---*%%#.            ",
"            ==-;!!),;;;;;;;;;=*#@.                                                             $&=;>>;;;;;;;>;;-*%%$.           ",
"           ===;)!',;;;;;;;;;==&%+                                                               %=;,>;;;;;;;;;--=%###           ",
"          =*=;>'',;;;;;;;;;;;*&#                                                                 >>,,;;;;;;;;;>-=&$#@.          ",
"          =&*=-;>;;;;;;;;;;;-=*%@                                                               =>'',;;;;;;;;;=*&##++           ",
"           &%%**->;;;;;;;;;;>;*&$@                                                             =;,!'>;;;;;;;===&##++            ",
"            %$%&=;;;;;;;;;;;;-=*&$@                                                           ==;!!'>;;;;;;;;**$@+.             ",
"             @$&&=;;;;;;;;;;;>-=*%$@                                                         =-;'!),>;;;;;;;=*##+.              ",
"              @$%%-;;;;;;;;;;;--=*%$#                                                       ==;'!!,>;;;;;==*%%@+.               ",
"               +$%%=;;;;;;;;;;;;;=*%$#                                                     ==;'!!,>;;;;;;;=&$@+.                ",
"                @$%%*;;;;;;;;;;;;-=*%%#                                                   ==;'!!,>;;;;;;=*&$@+.                 ",
"                 +$%&**=;;;;;;;;;;;=&%$#                                                 =-;'!!,>>;;;;===*$#+.                  ",
"                  @#%&*==;;;;;;;;;-;=&%%#                                               ==;'!!,,;;;;;;;=%$@+.                   ",
"                   +$$%*-=;;;;;;;;;;-=*%$#                                             =-;'!!,>;;;;;;=*&$#+.                    ",
"                     #$&===;;;;;;;;-;-=&%%#                                           ==;'!!,,;;;;;;;=&#@+.                     ",
"                      #$%*-;;;;;;;;;;;--&%$#                                         =-;'!!,>;;;;;;==&##+.                      ",
"                       #$&&==;;;;;;;;>;;=*%$#                                       ==;'!!,,;;;;;;;*&%@+.                       ",
"                        #$&*-;;;;;;;;;;;-=*%$#                                     ==;'!!,>;;;;;;;*&$@+.                        ",
"                         #$&&==;;;;;;;;;--=*%$#                                   ==;'!),>;;;;;;==&$@+.                         ",
"                          @$&*-;;;;;;;;;;;;=*%$#                                 =-;'!!,>>;;;;;=*%$#+.                          ",
"                           #$&&=;;;;;;;;;;--=*%%#                               ==;'!!,,;;;;;;;*&##+.                           ",
"                            #$&*=;;;;;;;;;;;;=*%$#                             ==;'!!,>;;;;;;=*&$#+.                            ",
"                             #$%*==;;;;;;;;;--=*%%#                           ==;'!!,>>;;;;;;*&##+.                             ",
"                              #%%*-=;;;;;;;;;;-=&%$#                         =-;'!!,>-;;;;;;*&##+.                              ",
"                               #$&*=;;;;;;;;;>;;=*%$#                       ==;'!!,,>;;;;==*&%@+.                               ",
"                                #$&**;;;;;;;;;;;-=*%$#                     =-;'!!,>;;;;;;;=*#@+.                                ",
"                                 #$&**;;;;;;;;;;--=*%$#                   =*;'!!,>>;;;;==*%%@+.                                 ",
"                                  #%%*==;;;;;;;;;;;=*%%#                 =-;'!!,>;;;;;;;-&#@+.                                  ",
"                                   #$%*==;;;;;;;;;--=*%$#               ==;'!!,>;;;;;==*&%@+.                                   ",
"                                    #%&*=;;;;;;;;;;;;**%$#             =-;'!!,>>;;;;;;*&#@+.                                    ",
"                                     #$&*==;;;;;;;;;>-=*%$#           =*;'!!,>;;;;;=;**#@+.                                     ",
"                                      #$%*-=;;;;;;;;;;;=*%%#         =-;'!!,>>;;;;;;**##+.                                      ",
"                                       #$&==;;;;;;;;;;--=*%$#       ==;'!!,>>;;;=;==%$@+.                                       ",
"                                        @$%&*;;;;;;;;;;;;*&&$$     =-;'!!,>;;;;;;=*&#@+.                                        ",
"                                         #%&**;;;;;;;;;;;;=*%%%   ==;'!!,>>;;;;;;=&%@+.                                         ",
"                                          #$%*==;;;;;;;;;;-==**& --;)!!,>>;;;;==*&#@+.                                          ",
"                                           #$%*==;;;;;;;;;;--*==;;,!!!,>>=;;;>;=%%@+.                                           ",
"                                            #%%*-=;;;;;;;;;;-;;;,'!!),>>;;;;===%$@+.                                            ",
"                                             #$&=*=;;;;;;;;>;>>>,''',>;;;;;;;*&$@+.                                             ",
"                                              @$%*-;;;;;;;;;;;>,,,,>>;;;;;;==&$#+.                                              ",
"                                               #$&*==;;;;;;;;;;;;;;;;;;;;;;*&#@+.                                               ",
"                                                #$%&-;;;;;;;;;;;;;;;;;;;==*&##+.                                                ",
"                                                 #%&*=;;;;;;;;;;;;;;;;;;;*&%@+.                                                 ",
"                                                  #$%*==;;;;;;;;;;;;;;;;=*$@+.                                                  ",
"                                                   #$%===;;;;;;;;;;;;;;=&%@+.                                                   ",
"                                                    #%%*-;;;;;;;;;;;;;=*%#+.                                                    ",
"                                                     #$&*-;;;;;;;;;;;;*%#@+                                                     ",
"                                                      @$%*=;;;;;;;;==*%#+..                                                     ",
"                                                       #$%*=;;;;;;;;*%#@+.                                                      ",
"                                                        @%%*=;;;=;-&&##..                                                       ",
"                                                         #$%*=;;;=*%$@+.                                                        ",
"                                                          #%%**==*&#+..                                                         ",
"                                                           #$%***%$@+.                                                          ",
"                                                            #%$%%#@..                                                           ",
"                                                             #$#$@+.                                                            ",
"                                                              @@@+.                                                             ",
"                                                               +@.                                                              ",
"                                                                                                                                ",
"                                                                                                                                ",
"                                                                                                                                ",
"                                                                                                                                ",
"                                                                                                                                ",
"                                                                                                                                ",
"                                                                                                                                ",
"                                                                                                                                ",
"                                                                                                                                ",
"                                                                                                                                ",
"                                                                                                                                "};
