/* XPM */
char * locator_snaptoparallel_xpm[] = {
"128 128 17 1",
" 	c None",
".	c #808100",
"+	c #8C8C00",
"@	c #949300",
"#	c #999A00",
"$	c #A0A300",
"%	c #A6AA00",
"&	c #B1B300",
"*	c #B8B900",
"=	c #BFC001",
"-	c #C3C300",
";	c #C5C500",
">	c #CCCC1E",
",	c #CECF30",
"'	c #D4D64D",
")	c #D9DE68",
"!	c #E0E179",
"                                                                                                                                ",
"                                                                                                                                ",
"                                                                                                                                ",
"                                                                                                                                ",
"                                                                                                                                ",
"                                                                                                                                ",
"                                                                                                                                ",
"                                                                                                                                ",
"                                                                                                                                ",
"                                                                                                                                ",
"                                                                                   &                                            ",
"                                                                                  **&                                           ",
"                                                                                 **&%$                                          ",
"                                                                                **=*&%$                                         ",
"                                                                               *-=;-&%$@                                        ",
"                                                                              *=-');=&%$@                                       ",
"                                                                             **-'!!,==&%$@                                      ",
"                                                                            **-'!!,;==*&%$@                                     ",
"                                                                           *=-'!!'>>;--*%%#@                                    ",
"                                                                          **-'!!'>-==-==*%$#+                                   ",
"                                                                         *=='!!,,-;;-===&%##@+                                  ",
"                                                                        **-'!!'>;-==--=*&%@@+                                   ",
"                                                                       *-='!!'>=-;;-==*&$#+.                                    ",
"                                                                      **='!!';=;--=-=*&#@+.                                     ",
"                                                                     *=='!!,,>=---==*&$@+.                                      ",
"                                                                    **-'!!'>;-;--==*&$#+.                                       ",
"                                                                   *=='!!'>=-=---=*&$@+.                                        ",
"                                                                  **-'!!';=;----=&&##..                                         ",
"                                                                 *=='!!,,>=---==*&$@+.                                          ",
"                                                                **-'!!'>;-;---=*&$#+.                                           ",
"                                                               *=='!!'>=-=;-=*=&$@+.                                            ",
"                                                              **-'!!';=;-;=>*=%$@+.                                             ",
"                                                             *=='!!,,>=-====*&$@+.                                              ",
"                                                            **-'!!'>;-;-;-=*&$@+.                                               ",
"                                                           *=='!!'>=;=-=-**&$@+.                           *&                   ",
"                                                          **-'!!';=;=;--=*&$#..                           **&%                  ",
"                                                         *=='!!,,>=;=;==*&$@+.                           **-*&%                 ",
"                                                        **-'!!'>;-;=;==*&$@+.                           **;==&$$                ",
"                                                       *=='!!'>=-=;===*&$@+.                           **->'==&%$               ",
"                                                      **-'!!';=;-;--=*&$@..                           **;>!!,=&%$$              ",
"                                                     *=='!!,,>=-=-==*&$#+.                           **=,!!',;;*%$$             ",
"                                                    **-'!!'>;-;---=*&$@+.                           **;,!!',;===*&#$            ",
"                                                   *=='!!'>=;=--==*&$@+.                           *==>!!)>-;=;=*&%$#           ",
"                                                  **-'!!';=;=;=-=*&$@+.                           **=,!!'>----=-=*%##@          ",
"                                                 *=='!!,,>=;=;==*&$@+.                           *==>!!),>----===&%#@@          ",
"                                                **-'!!'>;-;=;==*&$@..                           **-,!!'>;=>----=&%@@+           ",
"                                               *-='!!'>=-=;=-*=%$@+.                           **->!!),;;;---=*&%#+.            ",
"                                              **='!!';-;-;=>*=%%@+.                           **=,!!'>;--==-=*&$#@.             ",
"                                             *=='!!,,----;==*&$@+.                           **=>!!),;----===&&@@.              ",
"                                            **-'!!'>;----==*&$@+.                           **;>!!'>;-----==&%@+.               ",
"                                           *=='!!'>=-----=*%%@+.                           **-,!!),;-----==&$#@.                ",
"                                          **-'!!';=;-=;==&&$@..                           **-,!!'>;----===%%@@.                 ",
"                                         *=='!!,,>=-;=-*=&$@+.                           *==>!!),>-----==&%#++                  ",
"                                        **-'!!'>;-;---=*&$#+.                           **=>!!'>;-----==&%#@.                   ",
"                                       *-='!!'>=;=--==*%$@+.                           *==,!!),;----=-*%%@@.                    ",
"                                      **='!!';-;=;-==*&%@..                           **-,!!'>;-----==&%#@.                     ",
"                                     *=='!!,,--;---*=%$@+.                           **=>!!),;-----==&%#+.                      ",
"                                    **-'!!'>;--==>*=%%@+.                           **->!!'>;--=--==&%#++                       ",
"                                   *=='!!'>=--;;==*&$@+.                           **-,!!),;--;--=*&%@@.                        ",
"                                  **-'!!';=;--===*&%@+.                           *=-,!!'>;---====&%@@.                         ",
"                                 *=='!!,,>=--;-**%$@+.                           **=>!!',>=---===&%#@.                          ",
"                                **-'!!'>;-;--==*&%@+.                           **->!!),--;---=-%%@@.                           ",
"                               *=='!!'>=;=---*=&$@+.                           *==,!!'>>-=---==&%#+.                            ",
"                              **-'!!';=;=;->*=%$@+.                           **->!!',>=-;---*&%#++                             ",
"                             *=='!!,,>=;=-==*&$@+.                           **=,!!',=;-=--==%%#@.                              ",
"                            **-'!!'>;-;=-==*&$@+.                           **-,!!),-;--;-==&%#+.                               ",
"                           *=='!!'>---;--**&$@+.                           *==>!!'>>=--=-==&%@@.                                ",
"                          **-'!!';=---=-=*&$#..                           **=>!!',>=;---==&%#@.                                 ",
"                         *=='!!,,>=;--==*&$@+.                           **-,!!)>--=--===%%@@+                                  ",
"                        **-'!!'>;-;=--=*&$@+.                           **-,!!'>---;-;==&%#@.                                   ",
"                       *=='!!,,;-=;-==*&$@+.                           **->!!),>--=-===&%@@.                                    ",
"                      **-'!!'>;=-;===*&$@..                           **;>!!'>;=--;===%%#@.                                     ",
"                     *=='!!'>=;----*=%$#+.                           **=,!!),;;----==&%#+.                                      ",
"                    **-'!!';=-=;=>*=%%@+.                           **;,!!'>;-----==%%#++                                       ",
"                   *=='!!,,>-;=;==*&$@+.                           *==>!!),;----=-=&%#+.                                        ",
"                  **-'!!'>;--=;==*&$@+.                           **=,!!'>;--->===&%#++                                         ",
"                 *=='!!'>=--;=-=*&$@+.                           **;>!!),;---=-=*&$#+.                                          ",
"                **-'!!'>=;---==&&##+.                           **-,!!'>;==>--=*&%#++                                           ",
"               *=='!!,>------*=%%@+.                           **-,!!),;;-==--**$#@.                                            ",
"              **-'!!'>--=;--*=&$#..                           **->!!'>;------*&%#+.                                             ",
"             *=='!!'>---=--=*&$@+.                           **=,!!),-----===&$#@.                                              ",
"            **-'!!';=-----=*&##+.                           **;>!!'>;>----==&%#+.                                               ",
"           *-='!!,,>----==*&%@+.                           **=,!!),;;---=-=&$#@.                                                ",
"          **=='!'>;----==*&$@..                           **-,!!'>;==----*&%#+.                                                 ",
"          &&*=-;-=;----**&$#+.                           *==>!!),;;-->===&$#@.                                                  ",
"           &%&*=-;=---=*&#@+.                           **=>!!'>;=---=-*&%@@.                                                   ",
"            $$&&==---*=&%@+.                           *==,!!),;;---=-**$$+.                                                    ",
"             $$%*==>*=%##..                           **-,!!'>;-=----**$#+.                                                     ",
"              %$&**=*&%@+.                           **=>!!),;-;----*&%#++                                                      ",
"               $$%&&%$@+.                           **->!!'>;=-=---*&%@@.                                                       ",
"                $$%&$@+.                           **-,!!),;;----=*&%#++                                                        ",
"                 $##@+.                           *=-,!!'>;-=----*&%#+.                                                         ",
"                  ##+.                           **=>!!',>-;---=**$#@+                                                          ",
"                   @+                           **->!!),-;-=--==&%#+.                                                           ",
"                                               *==,!!'>>=-;-=-=&%#+.                                                            ",
"                                              **->!!',>=;---==%%#++                                                             ",
"                                             **=,!!)>-;=--===&%#+.                                                              ",
"                                            **-,!!'>---;--==&$#++                                                               ",
"                                           **->!!),---=-=-=&%#+.                                                                ",
"                                          **;>!!'>;------*&$#++                                                                 ",
"                                         **=,!!),------==&%#+.                                                                  ",
"                                        **-,!!'>;---->=**$#++                                                                   ",
"                                       **->!!),-----==*&%#@.                                                                    ",
"                                      *=->!!'>;-----==&$#+.                                                                     ",
"                                     **=,!!',;----=-=&%#+.                                                                      ",
"                                    **;>!!),-=----==&$#@.                                                                       ",
"                                   *=*=)!'>>;---=-**%#@.                                                                        ",
"                                  ****=-,>>==----=&$#+.                                                                         ",
"                                   &&&**==;----=*&%#+.                                                                          ",
"                                    $%%&===---==&$#@.                                                                           ",
"                                     #$%&==-==*&%#++                                                                            ",
"                                      @$%%*===&%#+.                                                                             ",
"                                       @%$&**&%#@.                                                                              ",
"                                        @$$%%%@+.                                                                               ",
"                                         @$%$@@+                                                                                ",
"                                          @@@@+                                                                                 ",
"                                           @@@                                                                                  ",
"                                            +                                                                                   ",
"                                                                                                                                ",
"                                                                                                                                ",
"                                                                                                                                ",
"                                                                                                                                ",
"                                                                                                                                ",
"                                                                                                                                ",
"                                                                                                                                ",
"                                                                                                                                ",
"                                                                                                                                ",
"                                                                                                                                "};
