/* XPM */
char * locator_snaptointersection_xpm[] = {
"128 128 17 1",
" 	c None",
".	c #737500",
"+	c #8A8A00",
"@	c #949300",
"#	c #9CA000",
"$	c #9DA102",
"%	c #A2A600",
"&	c #A9AC00",
"*	c #B1B300",
"=	c #B8B900",
"-	c #BFC000",
";	c #C4C300",
">	c #CACA1A",
",	c #D1D23B",
"'	c #D6D855",
")	c #D9DD68",
"!	c #E1E07A",
"                                                                                                                                ",
"                                                                                                                                ",
"                                                                                                                                ",
"                                                                                                                                ",
"                                                                                                                                ",
"                                                                                                                                ",
"                                                                                                                                ",
"                                                                                                                                ",
"                                                                                                                                ",
"                                                                                                                                ",
"                                                                                                                                ",
"                     =                                                                                    **                    ",
"                    =**                                                                                  ==*%                   ",
"                   ===&%                                                                                =-=*&#                  ",
"                  =---*%#                                                                              =-;-=&%@                 ",
"                 ==---**%#                                                                            =;-'>-*%%@                ",
"                ==->)>-*%%@                                                                          =--'!';=*&#@               ",
"               ==;>!!,;=*%%@                                                                        =;-)!),;;=*%%@              ",
"              =--,!!',;;=*%%@                                                                      =-;)!!,>;;-=*%#@             ",
"             ==;>!!',;;;;==&%@                                                                    =--)!),;;--;;**$#@            ",
"            =-=>)!'>>;>;;;=*%%@                                                                  =-;)!),>>>;-;-=*#@@@           ",
"           ===-;'',>>;----;==&%@                                                                =;-)!),>>--;;--=&#@@+           ",
"           =**==-;--;;>;-;;;=*%%@                                                              =-;)!!,>;>;;;--=&%@@.            ",
"            &&&*=->;;;-;;---;==%%@                                                            =;-)!),>;;-;;;-=%$@+.             ",
"             #$&*=-;;;;>;;;;;;=*&%@                                                          =-;)!),>;;;;;--=*$@+.              ",
"              @$%*=-;;;-;;;---;=*%%@                                                        =;-)!),;>;;;;--=&@@+.               ",
"               @%%*=;;;>;;>;;;;;=*%%@                                                      =-;'!!,>->;>;--=&%@+.                ",
"                +#%*=-;-;;-;;;--;=*%%@                                                    =;-)!),>;>-;-;-=&$@+.                 ",
"                 +%&*=-;;;>;;;;;;;=*%%@                                                  =--)!!,>>-;;;;-=*$@+.                  ",
"                  +#%*=-;;-;;;>;;-;=*%%@                                                =-;)!),;;-;;;;-=&@@+.                   ",
"                   +#%*=-;>;;-;;;;;-=*%%@                                              =-;'!!,>>;;;;;-**%@+.                    ",
"                    +%&*=;-;;;>;;;-;;==%%@                                            =;-)!),;>->;;;-**@@+.                     ",
"                     +#%*=-;;-;>;;;;;;=*%%@                                          =-;)!!,>;;-;;;-=&%@+.                      ",
"                      +$%*=-;;>-;;>;;-;==%%@                                        =;-)!),;>;;;;;-=&#@+.                       ",
"                       +%%*=--;;;-;;;;;;=*%%@                                      =-;)!!,>;;>;;;-**#@+.                        ",
"                        +%%*=;;;;;>;;;--;==%%@                                    =;-)!),>>;;----**#@+.                         ",
"                         +%%*=->;-;>-;;;;-=*%%@                                  =-;)!),>;;;;;;-=&#@+.                          ",
"                          +%%*=-;;>->;;---;==%%@                                =--)!),>;;;>---=&#@+.                           ",
"                           +#%*=;-;-;>;;;;;;=*%%@                              =-;)!!,>>;;-;->**#@+.                            ",
"                            +%%*=-;;>-;;;;--;=*%%@                            =;;)!),>;-;;;;-=&#@+.                             ",
"                             +%%*=--;;>;;;;;;;=*%%@                          =--)!),>;>-;;;-=&#@+.                              ",
"                              +%%*=-;>-;;;;;-;;=*%%@                        =--)!),;;>->---=&$@+.                               ",
"                               +%%*=-;;;;;;;-;;;=*%%@                      =-;'!!,>>-;-;--=&$@+.                                ",
"                                +%%*=-;;;;;;;-;;;=*%%@                    =;-)!),>>-;;;>-=*$++.                                 ",
"                                 +%&*=-;;;;;;;-;;;=*%%@                  =-;)!!,>;;;;;--=%$@+.                                  ",
"                                  +$%*=-;;;;;;;-;-;=*%%@                =--)!),>;;;;;;-=%%@+.                                   ",
"                                   +%%*=-;;;;;;;;;;-=*%%@              =-;)!!,>>;;;;--**#@+.                                    ",
"                                    +#%*=-;;;;;;;;--;==%%@            =;-)!),;;-;;>--**#@+.                                     ",
"                                     +%%*=-;;;;;>;>;;;=*%%@          =-;)!),>>;;;-->=&#@+.                                      ",
"                                      +%%*=-;;;>-;-;--;==&%@        =;-)!),>>->;;--=*@@+.                                       ",
"                                       +%%*=-;-;;;>;;;;-=*%%@      =--'!!,>-;-;;;-=%%@+.                                        ",
"                                        +%%*=-;;;;-;;;--;==&&#   *=;-)!),>;>;;;;-=%%@+.                                         ",
"                                         +%&*=-;>;>;;;;;;;=***% &---)!!,>;-;;;;-=*#@+.                                          ",
"                                          +#%*=--;-;;;;---;=**=*-;>!!),;;;;;;;-*%#@+.                                           ",
"                                           +#&*=-;>;;>;;;;;;;-;;>'!!),>>>;;;;-=*$@+.                                            ",
"                                            +#%*=--->-;;;--;;;>,')!',>>--;>--=*@@+.                                             ",
"                                             +$&*=;-;;;;;;;>>>>,',,,;;;>;-;-**%@+.                                              ",
"                                              +%%*=-;;;;;;;-->>>>>>;>->-;;-=&@@+.                                               ",
"                                               +$%*=-;;;;;;;-->--;;->-;;;-**%@+.                                                ",
"                                                +%%*=;;;>;;;>;-;>;;;-;;--=&#@+.                                                 ",
"                                                 +%&=-;;>;;-;>;-;;;;;;;--*$@+.                                                  ",
"                                                  @&*=;>;;>;>-;;;;>;;;>-*&#@.                                                   ",
"                                                   @*=->>;;-;;;>--;>;--;*%@+                                                    ",
"                                                    %-;,,>;;;;>->;>-;;>-*%+                                                     ",
"                                                    %>>',>;>;-;-;-;;;---*%+                                                     ",
"                                                   *;-)',;;-;;;;;;;;;;>-=*%+                                                    ",
"                                                  *=-,!'>>;;;;;>;>;;;-;;=*%%+                                                   ",
"                                                  =;>!!'>;;;>;>-;-;;;>-;;=*%%@                                                  ",
"                                                 =-;)!),>>;-;-;>;;;;->-;;;=*%%@                                                 ",
"                                                =;;)!),>;-;;;;;-;;>;;->;;-;=*%#@                                                ",
"                                               =-;)!!,>>;;;;;;;;;-;;;-;>;;;--*%%@                                               ",
"                                              =;-)!),;;-;;;;;---;;;;;;;-;;-;-=*%%@                                              ",
"                                             =-;)!),>>;;;;----===--;>;;;;;;;;-=*%%@                                             ",
"                                            =;-)!),;>-;;>--=*&&&**=;-;;;;;;;;;;==%#@                                            ",
"                                           =-;)!!,>;>;>-->=&%####&*=->;;;;;;;;;--*%%@                                           ",
"                                          =--)!),>>;-;-;-=&##@. .%%==-;;;;;;;--;-=*&%@                                          ",
"                                         =-;)!),>;;;;;;-=&%@@.   .%%*=-;;;;;;;--;;=*%%@                                         ",
"                                        =;-)!),;;;;;;;-*%#@+.     .%%*=-;;;;;;;;;;-=*%%@                                        ",
"                                       =-;)!!,>>;;;;--=*$@+.       +#%*=-;;;;;-;;;;;=*%%@                                       ",
"                                      =--)!),>>-;>;--**#@+.         +#%*=-;;;;;;;--;;==%%@                                      ",
"                                     =-;)!),>->;-;--=&#@+.           +%%*=-;;;;;;;;;;;=*%%@                                     ",
"                                    =;-)!),;;>-;;--=*@@+.             +%%*=-;;>;;;;;--;==%#@                                    ",
"                                   =-;)!!,>>->-;->=%%@+.               +$%*=;-;>;;;;;;;--*%%@                                   ",
"                                  =;-)!),>>-;-;;-=&#@+.                 +%%*=-;-;;;;;;-;-=*&%@                                  ",
"                                 =-;'!),>->;;;;-=&%@+.                   +%%*=-;;;;>;;;-;;=*%%@                                 ",
"                                =--)!!,;;>-;;;-*%$@+.                     +%%*=-;;>-;;;;;;-==%%@                                ",
"                               =-;)!),>>-;;;;-=*$@+.                       +%&*=;-;;>->;;;;-=*%%@                               ",
"                              =;-)!),>;-;;;--**@@+.                         +#%*=-;>->-;;---;==%%@                              ",
"                             =-;)!!,>>>;;;;-=*%@+.                           +%%*=---;;;;;;;;;=*%%@                             ",
"                            =;-)!),;>--;;;-=&@@+.                             +%%*=-;;;;;;;---;=*%%@                            ",
"                           =-;)!),>;;;;;;-**%@+.                               +$%*=-;;;;;;>;;;;=*%%@                           ",
"                          =;-)!),>>;;>---=&#@+.                                 +%%*=;;;>;>-;;-;;==%%@                          ",
"                         =-;)!!,>;;;-;;-*&#@+.                                   +%%*=--;-;;;;;;;-=*%%@                         ",
"                        =--)!),>;;;>;--=&#@+.                                     +%%*=-;;;;;;;;-;;==%%@                        ",
"                       =-;)!),>>;;-;--*&%@+.                                       +%%*=;;;>;;;;-;;;=*%%@                       ",
"                      =;;)!),;>-;;;;-=*#@+.                                         +%%*=-;-;;>;;---;=*%%@                      ",
"                     =--)!!,>->;;;--=&%@+.                                           +%%*=-;;->;;;;;;;=*%#@                     ",
"                    =;-)!),>>>-;;--=&#@+.                                             +%%*=-;;-;;;;;-;;==&#@                    ",
"                   =--'!),>-->-;->=&$@+.                                               +#&*=-;;;;;;;-;;-=*%%@                   ",
"                  =;-)!!,>;>;-;;-=%#@+.                                                 +%%*--;;;;;;;--;;=*%%@                  ",
"                 =-;'!),>>-;;;;-=*$@+.                                                   +#%*=-;;;;;;;-;;;=*%%@                 ",
"                =--)!!,>--;;;;-*&@@+.                                                     +#%*=-;;;;;;;-;;;=*%%@                ",
"               =-;)!),>>;;;;;-=*%@+.                                                       +%%*=-;;;;;;;;;;;=*%#@               ",
"              =;-)!),>;->;;--**@@+.                                                         +#%*=-;;;;;;;--;;==&%@              ",
"             =--)!!,>>;-;;;-=*%@+.                                                           +%%*=-;;;;>;;;;;;=*%#@             ",
"            =--,!),>;-;;;;-=&@@+.                                                             +%%*=-;;;-;;;---;=*%#@            ",
"           ===;>'>>>;>;;;-**%@+.                                                               +#%*=-;;;;;;;;;;-*%#@@           ",
"           ***=-;>;-;----=&#@+.                                                                 +%%*=;;;>;>;;--=*&@#@           ",
"            %%&*=-;;;;;-*&#@+.                                                                   +#%*=--;-;;;-=*&$@+.           ",
"             #$&*-->---=&#@+.                                                                     +%%*=-;;;;;==*@++.            ",
"              @%%*=---*&%@+.                                                                       +%%*=;;;;-=%#@+.             ",
"               @$%*=-=*#@+.                                                                         +%%*=---*%$+..              ",
"                @$%&*&%@+.                                                                           +%%&=**%#@+.               ",
"                 @#$%@@+.                                                                             +%%&*%$@..                ",
"                  @##@+.                                                                               +##%#++.                 ",
"                   @@@+                                                                                 @@@@+.                  ",
"                    @+                                                                                   +@@.                   ",
"                                                                                                          +.                    ",
"                                                                                                                                ",
"                                                                                                                                ",
"                                                                                                                                ",
"                                                                                                                                ",
"                                                                                                                                ",
"                                                                                                                                ",
"                                                                                                                                ",
"                                                                                                                                ",
"                                                                                                                                ",
"                                                                                                                                "};
