/* XPM */
char * locator_snaptocenter_xpm[] = {
"128 128 17 1",
" 	c None",
".	c #616300",
"+	c #7C7D00",
"@	c #8A8A00",
"#	c #919500",
"$	c #9A9E00",
"%	c #A3A600",
"&	c #AAAD06",
"*	c #B1B300",
"=	c #B9BA00",
"-	c #C0C105",
";	c #C3C300",
">	c #CACA1A",
",	c #CFD034",
"'	c #D4D74F",
")	c #D7DB5E",
"!	c #DFE076",
"                                                                                                                                ",
"                                                                                                                                ",
"                                                                                                                                ",
"                                                                                                                                ",
"                                                                                                                                ",
"                                                                                                                                ",
"                                                                                                                                ",
"                                                                                                                                ",
"                                                                                                                                ",
"                                                                                                                                ",
"                                                                                                                                ",
"                                                      ********=********&&&                                                      ",
"                                                  ==*=======-===-*-=**==***&&%%                                                 ",
"                                               ===**===----;-;-;-;--;;=-=-*==**&%%                                              ",
"                                            ==*==-;;;;>,,,'''',,',,,,>>;-;-=====*&&%%                                           ",
"                                          ==*=;;;>,'))!)'',,>>,,>,,>>,,,,,>;;--==***&%%                                         ",
"                                        =*=-;;,'!!!'',>>>>;->-;;;->-;;;;;>>>>>;;;-=***&%%                                       ",
"                                      ===;;>')!)',>>>;>>--;--;;;;;--;;;;;--->>>>>;;;-***%%$                                     ",
"                                    =*==;,)!!)',>>>;;--;;;;;;;;;;;;;;;;;-;>--;;;>>>;;-==**%%                                    ",
"                                  ===-;,)!!)',->>--;;;;;;;;;;;;;;;;;;;;;;;;;;;;;;;;;>;--=**&%%                                  ",
"                                 **=;>)!!!,>;-----;;;;;;;;;;;;;;;;;;;;;;;;;;;;;;;;;;;>-;;-**%%%                                 ",
"                                =-;;'!!!,>-;;;;;;;;;;;;;;;;;-;-;--;;;;;;;;;;;;;;;;;;;;;>;;;==*%%$                               ",
"                              =*=->!!!',>>;;;;;;;;;;;;----============-----;;;;;;;;;;;;;;>;;-=*%%$                              ",
"                             =*;;'!!!,>--;;;;;;;;;;-===***&&&%%%&%&&&***===--;;;;;;;;;;;;;;;;-==%%$                             ",
"                            *==;!!!',->;;;;;;;;;=-==&&%$$$$$$$$$$$$$$%%%&**===--;;;;;;;;;;;;;;;-=*%%                            ",
"                           =-;>!!!,>;-;;;;;;;;-==*&&$$$####@@@@@@@#####$$$%%&*=--;;;;;;;;;;;;;;;=**$$                           ",
"                          *=;>!!!,->;;;;;;;;-**&$$$##@#@+...         .++@##$%$%**=--;;;;;;;;;;;;;==*%%                          ",
"                         =--,!!)>>-;;;;;;--=**%$$#@@+.                    ++#$$$&**---;;;;;;;;;;;--*%$$                         ",
"                        *=-,!!),->;;;;;;-=**$$#@@+.                          +@$$$%*==-;;;;;;;;;;;;-=&%$                        ",
"                       =-=,!!),>--;;;;--**%$#@@+.                              .@$$%&*=-;;;;;;;;;;;;-=%%$                       ",
"                      *=--!!),--;;;;;-==&%$#@+.                                  .@$%%*=--;;;;;;;;;;--*%%$                      ",
"                      ==;!!),->;;;-;-=*%$#@+.                                      +#%%&==-;;;;;;;;;;;==%$#                     ",
"                     =-;!!!,>;;;;;--**%$@@.                                          +$$**=-;;;;;;;;;;;=*%$+                    ",
"                    ==;'!!,>;;;;;;-=*%$@@.                                            +$$&*=-;;;;;;;;;;;*%%%                    ",
"                   *==>!!,-;;;;;--*&$$@+.                                               #$%*---;;;;;;;;;-*%%#                   ",
"                   ==;!!',>;;;;--=*%#@+                                                  #%&*--;;;;;;;;;;=*$$@                  ",
"                  ==;'!)>-;;;;--*&$#@.                                                    @$%=-;;;;;;;;;;-=%$$                  ",
"                  *;,!!,>;;;;;-=*%#@+                                                      #%&*=;;;;;;;;;-==%$@                 ",
"                 ==;)!)->;;;;--*%$@+                                                        #%*=;;;;;;;;;;;=%%$                 ",
"                 =;,!),>-;;;;==%$@+                                                          $%*=-;;;;;;;;;-=%$#                ",
"                *=-!!'-;;;;;;**$@+.                                                           $%==;;;;;;;;-;-*%$.               ",
"                ==,!)>>;;;;;=*$#@.                                                            @&&==;>;;;;;;;=*%$$               ",
"               =--!!,;;;;;;-=%#@.                                                              #%*=;;;;;;;;;-=%$#               ",
"               *=-!'>;;;;;;=&$#+                                                                %**=;;;;;;;;;-=%$@              ",
"              =--'!';;;;;-==%#@.                                                                 %*=;;>;;;;;;;=&%#              ",
"              ==-!)>>;;;;-=%$@+                                                                  %&*-;;;;;;;;;=*$$+             ",
"             *=->!';;;;;;==%#@.                                                                   %*=;>;;;;;;;-=%$#             ",
"             *=-)!,;;;;;;-%$@+                                                                    %&=-;>;;;;;;;=%$#             ",
"             ==;)'>;;;;;==%$@.                                                                     &*=;>;;;;;;--*%$+            ",
"             *->!'>;;;;;=*%@+                                                                      %*=;;>;;;;;;==$$@            ",
"            *=-,),;;;;;-=%$@.                                                                      $&=-;>;;;;;;-=%$#            ",
"            =*;)';;;;;;-=%#@                                                                        %**;>>;;;;;-=*$#.           ",
"            ==;)'>;;;;-=*%#+                                                                        %*=;>>;;;;;;==%$+           ",
"            =-;!,;;;;;;=&$@.                                                                        %*=;>;;;;;;;=*%$@           ",
"           *==>'>-;;;;-=%$@                                                                          &=->>>;;;;;;*%$#           ",
"           **-,)>;;;;;=*%#@                                                                          &*=;,;;;;;;;=&$#           ",
"           *=-''>;;;;;=*%#+                                                                          %*=;,>;;;;;-=%$#.          ",
"           *-;',;;;;;;=&$@.                                                                          &*-->>;;;;;;=*%#.          ",
"           *=;',>;;;;;=&$$.                                                                           *=-,>;;;;;;=*%$+          ",
"           *=;',;;;;;;=&$@                                                                            *=-,>;;;;;;=*%@+          ",
"           *=;',;;;;;;=%$@                                                                            &=;,,;;;;;;-*%$+          ",
"           =-;'>;;;;;;**$@                                                                            **-,>;;;;;;=*%#@          ",
"           *=;'>;;;;;;*%%@                                                                            *=;,,;;;;;;-*$#@          ",
"           ==-,,;;;;;;=%$@                                                                            **;,,;;;;;;-=%$@          ",
"           ==-,>-;;;;-=%$@                                                                            *=;,,;;;;;-=*%#@          ",
"           *--',;;;;;;=%$#                                                                            *=;,,;;;;;-;*$#@          ",
"           *=;,>;;;;;-=&$#                                                                            *=-',;;;;;;-*%#@          ",
"           *=;,,;;;;;;=&$#                                                                            *=>,,;;;;;;-*$#+          ",
"           *=->>-;;;;;=%$#                                                                            ==-',;;;;;--*%#+          ",
"           **-,,;;;;;;=*%#.                                                                           *=>)>;;;;;;=*$#+          ",
"           *=->,;;;;;;=*%#+                                                                          *=->)>;;;;;;=&$@.          ",
"           &==;>>;;;;;;*%$+                                                                          *=;')>;;;;;-=&$#.          ",
"           &==>>>;;;;;;-%$@                                                                          *=;''>;;;;;-=%$@           ",
"           &*--,>;;;;;;=*$#                                                                          ==>)'>;;;;;-*%#@           ",
"           %*=;>>;;;;;;=*%#+                                                                         =-,),>;;;;--*$$@           ",
"            &*=>>;;;;;;=*%$+                                                                        *=-'!>;;;;;-=&%@+           ",
"            *==->;;;;;;;=%%#                                                                        ==;!'>;;;;;;=%$@.           ",
"            %*=->;;;;;;-==$$+                                                                       *;,!'-;;;;;-=%#@            ",
"            %*=->>;;;;;;-=%$@                                                                      ==;)),>;;;;;-=%#@            ",
"             &*-;>;;;;;;-=*$$.                                                                     =;,!'>;;;;;;=%$#+            ",
"             **==>>;;;;-;-*%%@                                                                    *=;'!,>;;;;--=%#@.            ",
"             $&*;;;;;;;;;-=*$$.                                                                   =;,!),;;;;;;-*%#@             ",
"              **=;>;;;;;;;;*%%@                                                                  ==;)!';;;;;;-=%$@+             ",
"              %&=-;>;>;;;;-=*$$+                                                                 *;,!!>;;;;;;-*&#+.             ",
"              %&*-;>;;;;;;;-=&$#                                                                ==-!!'>;;;;;-=&$#+              ",
"               &**-;;;;;;;;;=*%$@                                                              ==;'!)>;;;;;;==%$@.              ",
"               %**=;>;;;;;;;-=*$$+                                                             -=>!!';;;;;;;**%@@               ",
"                %&=;;>;;;;;;;-=*%#                                                            ==-!!'>>;;;;--=%$#.               ",
"                %%*=;;;;;;;;--=*&%#                                                          *=;)!!,;;;;;;-=&$@@                ",
"                 %&=-;>;;;;;;-;-*%%@                                                        =-;'!!,>;;;;;--=%##.                ",
"                 $&*=;;;;;;;;;;;=*%%@                                                      *=-,!!',;;;;;;-=&$@@                 ",
"                  $%*=;;;;;;;;;;;==%%#                                                    =-;,!!',;;;;;;;**%#@.                 ",
"                   %*==-;;;;;;;;--=*&%#                                                  *=->!!!,-;;;;;;-=%$@+                  ",
"                   %%*=-;;;;;;;;;-;=*%%$                                                ==;,!!),>;;;;;;;=%$@@                   ",
"                    $&*-;;;;;;;;;;;-=*&%$@                                             *;;,!!),-;;;;;;-==%#@.                   ",
"                     %&*-;;;;;;;;;;;;;=**%$                                          ==;;'!!),>;;;;;;-=*$$@+                    ",
"                     $$&=-;;;;;;;;;;;-==*&%$                                        *=-;'!!),->;;;;;--=%$@+                     ",
"                      $%&=-;;;;;;;;;;;;-=***%$                                    ==-;>!!!',>-;;;;;--=%%@@.                     ",
"                       $$&==;;;;;;;;;;;;;==**&%$                                =*=-;'!!!'---;;;;;;-**$@@.                      ",
"                        %%*==;;;;;;;;;;>;;-;=***%%%                           ===-;,!!!',;>-;;;;;;==*$#@+                       ",
"                         $%*=;;;;;;;;;;;;-;;;;==**&%%%                     ==*==;>)!!)'-;>;;;;;;-;*%$@@+                        ",
"                          $$&==-;;;;;;;;;;;>;;---*==*&&&&%            **===*-;>>)!!)',>;;;;;;;;;-=*$$@+                         ",
"                          @$$*=-;;;;;;;;;;;;;>;;;-=-*===************===*==;-;,)!!)',;;;;;;;;;;--*%$#@+                          ",
"                            $$%*=-;;;;;;;;;;;->>>>;;;-==-====*=**====--;;;,')!!),,--;;;;;;;;---*%$#@+                           ",
"                             $$%*==-;;;;;;;;;;;;->>>>>;;;--;;-;;;-;;->,,')!!',,>;>-;;;;;;;;--**%$@@+                            ",
"                              $$%&=--;;;;;;;;;;;;;;>>>>>,,,,,,,,,,,''''''',>>-;-;;;;;;;;;---=*$#@@.                             ",
"                               #$%%*=--;;;;;;;;;;;;----;>;>>>,,,,,,,,,,>;;;--;-;;;;;;;;;--**%$#@@.                              ",
"                                +$%%&*=-;;;;;;;;;;;;;;-;;;;>-;;;>-;-;;;-;;;;;;;;;;;;;;;-==*%##@+                                ",
"                                  #$%%*=---;;;;;;;;;;;;;;;;-;;;--;>;;;;;;;;;;;;;;;;;;--**$$#@@.                                 ",
"                                   +#$$%**-=-;;;;;;;;;;;;;;;;;;-;;;;;;;;;;;;;;;;;;-===*%$$@@+                                   ",
"                                     @$$%%**==-;;;;;;;;;;;;;;;;;;;;;;;;;;;;;;;;;-=-**%$#@@@.                                    ",
"                                       ##$%%&**==-;;;;;;;;;;;;;;;;;;;;;;;;;-;-==**&%$##@#.                                      ",
"                                         #$$%%%**===---;;;;;;;;;;;;;;;-;----==**%%$##@@.                                        ",
"                                           @##$$$%&&**===-===---;=-=--===**&&%$$$#@@@.                                          ",
"                                             +@##$$$%%%%&&**********&**%&$$$$$#@@@+.                                            ",
"                                                +@###$$$$%%%%$%%%%%%$$$$$###@@++.                                               ",
"                                                   .+@#################@@#++.                                                   ",
"                                                         .++@@@++@+@++..                                                        ",
"                                                                                                                                ",
"                                                                                                                                ",
"                                                                                                                                ",
"                                                                                                                                ",
"                                                                                                                                ",
"                                                                                                                                ",
"                                                                                                                                ",
"                                                                                                                                ",
"                                                                                                                                ",
"                                                                                                                                "};
