/* XPM */
char * locator_snaptoperpendicular_xpm[] = {
"128 128 17 1",
" 	c None",
".	c #8B8B02",
"+	c #909200",
"@	c #999800",
"#	c #979B00",
"$	c #9CA000",
"%	c #A6A900",
"&	c #ACAE00",
"*	c #B0B200",
"=	c #B4B604",
"-	c #B8B900",
";	c #C0C002",
">	c #C3C300",
",	c #CBCB1C",
"'	c #CFD030",
")	c #D7D958",
"!	c #DEDE71",
"                                                                                                                                ",
"                                                                                                                                ",
"                                                                                                                                ",
"                                                                                                                                ",
"                                                                                                                                ",
"                                                                                                                                ",
"                                                                                                                                ",
"                                                                                                                                ",
"                                                                                                                                ",
"                                                                                                                                ",
"          ;;-=*******&%%%                                                                                                       ",
"          --;;;----==**&@                                                                                                       ",
"          -->>>;;;>>;=&%@                                                                                                       ",
"          =>>!)'''''>-&$+                                                                                                       ",
"          *->!!'''''>=&#+                                                                                                       ",
"          *->,'>>>>>>=%#.                                                                                                       ",
"          *->''>>>>;>*%#.                                                                                                       ",
"          *--''>>>>>;-%++                                                                                                       ",
"          *;;')->>>>;=&#.                                                                                                       ",
"          *=-''>>>>>;=%++                                                                                                       ",
"          *;;''>>>>>>-&+.                                                                                                       ",
"          *--''>>>>>;*%#+                                                                                                       ",
"          *;;''>>>>>>=%#.                                                                                                       ",
"          &--''>>>>>;-&++                                                                                                       ",
"          *->'''>>>>>*%#.                                                                                                       ",
"          *--''>>>>>;-&++                                                                                                       ",
"          *-;'';>>>>>*%#.                                                                                                       ",
"          &;-''>>>>>;=&++                                                                                                       ",
"          *->''>>>>>;*%#.                                                                                                       ",
"          &;-''>>>>>>=&++                                                                                                       ",
"          *->''>>>>>;*&#.                                                                                                       ",
"          &--''>>>>>>=%++                                                                                                       ",
"          *-;''>>>>>>=%#.                                                                                                       ",
"          &;-''>>>>>;=%#.                                                                                                       ",
"          &->')>;>>>>=%#.                                                                                                       ",
"          &;-''>>>>>;-%#+                                                                                                       ",
"          &-;''>>>>>>*%++                                                                                                       ",
"          *-;''>>>>>;=&%+                                                                                                       ",
"          *=>''>>>>>>-%$@                                                                                                       ",
"          *--''>>>>>;-=%#                                                                                                       ",
"          *->')>>>>>>;-*%                                                                                                       ",
"          *--''>>>>>>;;;=*********************************************************&&&%%                                         ",
"          =->''>>>>>>>;;----==----------------------------------------------------=**%$                                         ",
"          *;-''>>>>>>>>>>>;;>>;>;;;;;;;;>;;;;;;;;;;;;;;;;;;;;;;>;;;;;;;;;;;>;;;;>>;-&%@                                         ",
"          *;>''>>>>>>>>>,,,,,'''''''''''''''''''''''''''''''''''''''''''''''''''''>-&$+                                         ",
"          *=-''>>>>>>>>,>,''''''''''''''''''''''''''''''''''''''''''''''''''''''''>*%@+                                         ",
"          ==>''>>>>>>>>>>>>>>>>>>>>>>>>>>>>>>>>>>>>>>>>>>>>>>>>>>>>>>>>>>>>>>>>>>;>=&#.                                         ",
"          *;-''>>>>>>>>>>>>>>>>>>>>>>>>>>>>>>>>>>>>>>>>>>>>>>>>>>>>>>>>>>>>>>>>>>>>=%++                                         ",
"          *->''>>>>>>>>>>>>>>>>>>>>>>>>>>>>>>>>>>>>>>>>>>>>>>>>>>>>>>>>>>>>>>>>>>>>*%#.                                         ",
"          *='''>>>>>>>>>>>>>>>>>>>>>>>>>>>>>>>>>>>>>>>>>>>>>>>>>>>>>>>>>>>>>>>>>>>>-%++                                         ",
"          *=;''>>>>>>>>>>>>>>>>>>>>>>>>>>>>>>>>>>>>>>>>>>>>>>>>>>>>>>>>>>>>>>>>>>>;-%#.                                         ",
"          =;-''>>>>>>>>>>>>>>>>->->->->->->>>->->->->>->>->>>->-->->->>>>>>>>>>>>>>*&#.                                         ",
"          *->''>>>>>>>>>>=================================*===========-->>>>>>>>>>>*%#.                                         ",
"          &;-''>>>>>>>>=***&%%%%%%%%%%%%%%%%%%%%%&%%$%%%%%%%%%%&&%%&&&==->>>>>>>>>>=%@+                                         ",
"          *-,''>>>>>>>-=*%$$###@@###$@###@@@@#######@@@##@@@@#######$$&==;>>;,>>>>>=%+.                                         ",
"          *--''>>>>>>;-*$@+..........................+....+.........+@$%=;>,,>>>>>;=%#+                                         ",
"          =;>')>>>>>>-*%+                                               %=>,,>>>>>>=%#.                                         ",
"          *=-''>>>>>>-&@+                                               *;>''>>>>>;-%++                                         ",
"          =;>''>>>>>>=&%+                                               %=;,'>>>>;>-%#.                                         ",
"          *=;''>>>>>>=%@.                                               *;-''>>>>>;*&++                                         ",
"          *=>''>>>>>>*%#.                                               &-;'';>>>>>*%#.                                         ",
"          *;-''>>>>>;-%#+                                               *-;''>>>>>;=&@+                                         ",
"          *->''->>>>>=%@.                                               *=;''>>>>>>=%#.                                         ",
"          *;;)',>>>>;=%#+                                               *;-''>>>>>;-%++                                         ",
"          *->''>>>>;>*%#.                                               *->''>>>>>>*%#.                                         ",
"          *-;''>>>>>;=%++                                               &;-''>>>>>;=&++                                         ",
"          *=>''>>>>;>=&+.                                               %->')>>>>>>*%#.                                         ",
"          *;-''>>>>>;=%#+                                               *;-''>>>>>;=&+.                                         ",
"          *=>''>>>>;;=%#.                                               %;;''>>>>>>=&#.                                         ",
"          *;-''>>>>>;=%++                                               *--''>>>>>;=%@+                                         ",
"          *->''>>>>>;-&#.                                               *;;''>>>>>>*%#.                                         ",
"          *=>)'>>>>>>*%++                                               &--''>>>>>;=%++                                         ",
"          =->''>>>>>>=%#.                                               *->''->>>>>-%#.                                         ",
"          *-;''>>>>>;=&++                                               *--''>>>>>;*&++                                         ",
"          *=;''>>>>>>*%#.                                               *->''>>>>>>*%#.                                         ",
"          *;-''>>>>>;=&++                                               &--''>>>>>;=&#.                                         ",
"          *=>''>>>>>>*%#.                                               *->''>>>>>>*%#.                                         ",
"          *;-''>>>>>;=&++                                               &--''>>>>>;=%@+                                         ",
"          *->''>>>>>>*%#.                                               *->')>>>>>>=%#.                                         ",
"          *='''>>>>>;=&++                                               &;;''>>>>>;=%++                                         ",
"          *->')>>>>>>*%#.                                               &=;''>>>>;;-%#.                                         ",
"          *-;''>>>>>;=&#.                                               *-;''>>>>>;*&@.                                         ",
"          *=>''>>>>>>*%@.                                               *=;''>>>>>>*%#.                                         ",
"          *->''>>>>>;=%#+                                               *;-''>>>>>;-%#+                                         ",
"          *=;''>>>>;>=%#.                                               *=>''>>>>>>=%+.                                         ",
"          =;-''>>>>>;=%++                                               &;-''>>>>>;=%#+                                         ",
"          *=>''>>>>;>-%#.                                               %->')>>>>>;=&#.                                         ",
"          *;-''>>>>>;*%@+                                               *;-''>>>>>>*%++                                         ",
"          *-,'''>>>;>-%#.                                               %;;''>>>>>>*%#.                                         ",
"          *--''>>>>>>*%++                                               *-;''>>>>>>=&+.                                         ",
"          =->'';>>>>;=%#.                                               *=;''>>>>>;=%#.                                         ",
"          *=>''>>>>>>*&++                                               &;-''>>>>>>=%@+                                         ",
"          ==>''>>>>>;*%#.                                               *->''>>>>>>-%#.                                         ",
"          *;-''>>>>>;=&++                                               &;-''>>>>>;=%++                                         ",
"          *=>''>>>>>;=&+.                                               %->''->>>>>=%#.                                         ",
"          *;-''>>>>>;=%#+                                               =--''>>>>>>-&#.                                         ",
"          *->''>>>>>>=%#.                                               =-,''>>>>>>*%#.                                         ",
"          =--''>>>>>>-%#.                                               %;-''>>>>>>=%@+                                         ",
"          =-,''>>>>>;*%#+                                               *=>''>>>>>;=%#+                                         ",
"          *--''>>>>>;;&@+                                               =;>)'>>>>>;-&#+                                         ",
"          =;>''>>>>>;-*$@                                               =->)'>>>>>>-&%@                                         ",
"          **'''>>>>>;-*&$                                               >>')'>>>>>>-*%$                                         ",
"          *=>''>>>>>>;**%                                               >'!!'>>>>>>;=*%                                         ",
"          *;-''>>>>>>>;-***&**********&*****************************==;;,!!)'>>>>>>>;-***&*************************%%%          ",
"          *=>''>>>>>>>>;;---==---------------------------------------;>'!!!''>>>>>>>>;;---==---------------------*-*%$          ",
"          &;-''>>>>>>>>>>>>;>>>;;>>;;>;>;>;>;>;>;;;;;;;;;;;;;;;>;>>>>>'!!!)';>>>>>>>>>>>>>>>;;;;;;;;;;>;;;;;;;;;;;*&%@          ",
"          *-,')>>>>>>>>;,,,,,''''''''''''''''''''''''''''''''''''''''))!)'',>>>>>>>>>;,,,,,''''''''''''''''''''''>-&$+          ",
"          ==>',>>>>>>>>,>,''''''''''''''''''''''''''''''''''''''''')''',',;>>>>>>>>>>,>,'''''''''''''''''''''''''>-%@+          ",
"          =->''>>>>>>>>>>>>>>>>>>>>->>>>->->>>>>>>>>>>>>>>>>>>>>>>>>>'>;>>>>>>>>>>>>>>;>>>>>>>>>>>>>>>>>>>>>>>>>;;=&#.          ",
"          *--''>>>>>>>>>>>>>>>>>>>>>>>>>,>>>>>>>>>>>>>>>>>>>>>>>>>>>;>>>>>>>>>>>>>>>>>>>>>>>>>>>>>>>>>>>>>>>>>>>>;*%++          ",
"          *->''>>>>>>>>>>>>>>>>>>>>>>>>>>>>>>>>>>>>>>>>>>>>>>>>>>>>>>>>>>>>>>>>>>>>>>>>>>>>>>>>>>>>>>>>>>>>>>>>>>>-%#.          ",
"          =-'''>>>>>>>>>>>>>>>>>>>>>>>>>>>>>>>>>>>>>>>>>>>>>>>>>>>>>>>>>>>>>>>>>>>>>>>>>>>>>>>>>>>>>>>>>>>>>>>>>>;*&++          ",
"          *-;)'>>>>>>>>>>>>>>>>>>>>>>>>>>>>>>>>>>>>>>>>>>>>>>>>>>>>>>>>>>>>>>>>>>>>>>>>>>>>>>>>>>>>>>>>>>>>>>>>>>;*%+.          ",
"          *-->>>;>>>;>>>;>->>>->->>>;>->>>->->>->->>>->>>->>>;>;>;;>->>>>>->>->>;>>>>>->>>->->>->->>>->>->->>>>>>;=%#+          ",
"          &-*=****=*=***==**======**=====================***=***==*===**=-=*-*=*===*===*====================*====*&$@.          ",
"          &&&*&&%%%%%%%&%%%%%%%%%%%%%%%%%%%%%%%%%%%%%%$%%%%%%%&%%%&%%%%&%%%%%%%%%%%%%%%%%%%%%%%%%%%%%%%%%%%%%%%%%%@@+.          ",
"          &%#$#@###@@##@@@@@@@@@@##@@@@@@@@@@#$@@@@@@$#@@@@@###@###@@##@@@@@@@@@@##@@@@@@@@@@#$@@@@@####@###@@#@@$@++.          ",
"          %#@+..........+.....+.....+.+................+................+++..+.++...+...+.........................+.++          ",
"                                                                                                                                ",
"                                                                                                                                ",
"                                                                                                                                ",
"                                                                                                                                ",
"                                                                                                                                ",
"                                                                                                                                ",
"                                                                                                                                ",
"                                                                                                                                ",
"                                                                                                                                ",
"                                                                                                                                "};
