/* XPM */
char * locator_snaptonearest_xpm[] = {
"128 128 17 1",
" 	c None",
".	c #757700",
"+	c #8A8B00",
"@	c #949700",
"#	c #9DA102",
"$	c #A6A900",
"%	c #B0B200",
"&	c #BABB00",
"*	c #C0C105",
"=	c #C3C300",
"-	c #C9CA1A",
";	c #CDCD1F",
">	c #D0D033",
",	c #D3D64E",
"'	c #D8DB5F",
")	c #D8DD68",
"!	c #E1E07A",
"                                                                                                                                ",
"                                                                                                                                ",
"                                                                                                                                ",
"                                                                                                                                ",
"                                                                                                                                ",
"                                                                                                                                ",
"                                                                                                                                ",
"                                                                                                                                ",
"                                                                                                                                ",
"                                                                                                                                ",
"          *&&%%%%%%%%%%%%%%%%%%%%%%%%%%%%%%%%%%%%%%%%%%%%%%%%%%%%%%%%%%%%%%%%%%%%%%%%%%%%%%%%%%%%%%%%%%%%%%%%%%%%%%%$$          ",
"          &*&*&&&&&&&&&&&&&&&&&&&&&&&&&&&&&&&&&&&&&&&&&&&&&&&&&&&&&&&&&&&&&&&&&&&%&&&%&&%&%&%&&%&&%&%&&%&&%&%&&&%%%$$#          ",
"          %*==******************************************************************=***=**=*=*=**=**=*=**=**=*=***==*%%$@          ",
"          &*=)'>>>>>>>>>>>>>>>>>>>>>>>>>>>>>>>>>>>>>>>>>>>>>>>>>>>>>>>>>>>>>>>>>>>>>>>>>>>>>>>>>>>>>>>>>>>>>>>>>>-&%#@          ",
"          %&=')>>>>>>>>>>>>>>>>>>>>>>>>>>>>>>>>>>>>>>>>>>>>>>>>>>>>>>>>>>>>>>>>>>>>>>>>>>>>>>>>>>>>>>>>>>>>>>>>>>*&$#@          ",
"          %&*>>***************************************************************************************************&$@+          ",
"          %&*>>***************************************************************=**-=**-*=-=*-=*-=*=*-=*-=*=****=***%%@+          ",
"          %%&=>*=================================================================================================*&#@+          ",
"          %%**;================================================================================================**&$#@+          ",
"          $%%**===============================================================================================***%$@++          ",
"          $$%&*=====================*=**************=*******=***********=****************=**=================*=*%$#@+           ",
"           $$%&*=================***&&&&%%%%&%%%%%&%%%%%%%&%%%%%%%%%%%%&%&%&%&%%%&%%%%&&&&***===============***&$#@..           ",
"           ##$%&*================*&&%%$%%$$$$$$$$$$$$%$$$$$$%$$$$$$$$$$$$$$$$$$$$$$$$$$$%%&&===-============**&$#++.            ",
"            @#$%&*===============*&%%$##@##@@###@##@#@##@##@@#########@@@#@#@@##@###@#@$$%&**=-============**&%#@+.             ",
"             @#$%&**============*&&$$#@@@+@+++++++++++++++++++++++++++@+++++@++++++++@@@$$%*==;-=========***%$#@+.              ",
"              +#$%&**===========**%#                                                       @=>>-=========**&$#@+.               ",
"               +#$%&*==========**&%%@                                                     @=>',;========**&%#@+.                ",
"                +#$%&*==========*=&%$@                                                   #*;))>;=======**&$#++.                 ",
"                 +#$%&*========*=*&%$$@                                                 #**,!)>-=====*=*%%#@+.                  ",
"                  +#$%&*==========*&&$#@                                               $&*-!!'>-====*=*&$#++.                   ",
"                   +#$%&*========*=*&%$#+                                             $%**'!)>--====**&%#@+.                    ",
"                    +#$%&*=========*=&%$$@                                           %&*=)!)>-*===***%$#++.                     ",
"                     +#$%&*=========*=&%$#@                                         %&*='!!>>*===***&%#@+.                      ",
"                      +#$%&*===========%%$#@                                        &**)!)>-=*===**&$#++.                       ",
"                       +#$%&*===========&%$#@                                      &*='!!>--====**%%#@+.                        ",
"                        +#$%&*===========&%$#@                                    &**)!)>-*====**&%#++.                         ",
"                         +#$%&*=========**&%$#@                                  &&*'!!>--====*&%$#@+.                          ",
"                          +#$%&*=========*=&%$#@                                &&=)!)>;**===**&%#++.                           ",
"                           +#$%&*=======*=*=&%$#@                              &*='!!>>*====**&$#@+.                            ",
"                            +#$%&*===========&%$#@                            &*=)!)>-======*&$#@+.                             ",
"                             +#$%&*=========*=&%$#@                          &&='!!>>=====*&&%#@+.                              ",
"                              +##%&*===========&%$#@                        &**)!)>-=====**%$#++.                               ",
"                               +#$%&*==========*&%$#@                      %*='!!>>=====**&$#@+.                                ",
"                                +#$%&*===========&%$#@                    &*=)!)>-======&&%#@+.                                 ",
"                                 +#$%&&=========*=&%$#@                  &*='!!>>======*&$#@+.                                  ",
"                                  +#$%&*===========&%$#@                &&=)!)>-=====**&$#++.                                   ",
"                                   +#$%&*=========*=&%$#@              &=='!!>-*====**&$#@+.                                    ",
"                                    +##%&*===========&%$#@            &&=)!)>-*===***%$#@+.                                     ",
"                                     +#$%&&=========**&%$#@          &*='!!>>*====*&&%#@+.                                      ",
"                                      +#$%&*===========&%$#@        &&*)!)>-=====**&$#++.                                       ",
"                                       +#$$&==========**&%$#@      &*='!!>>=====**&%#@+.                                        ",
"                                        +#%%&*=========**%%$$#   %&&=)!)>-======*&$#++.                                         ",
"                                         +#$%&&=======*==**&$%$ %*==)!!>-*=====&&%#@+.                                          ",
"                                          +##%&*==========*&&%%%&*>!!)>-*=====*%$#++.                                           ",
"                                           +#$%&=========****==*-,)!)>>*====**%%#@+.                                            ",
"                                            +##%&*============;>')!',-=====**&%#++.                                             ",
"                                             +#$%&==========--;>,>>;-=====**&$#@+.                                              ",
"                                              +#$%&*=========-------*====**&$#++.                                               ",
"                                               +#$%&*=======********====**%$#@+.                                                ",
"                                                +$$%&========-*=-*=====**&%#@+.                                                 ",
"                                                 +#$%*==-==============*%%$@+.                                                  ",
"                                                  +$%*=--==============*&$#+.                                                   ",
"                                                   @%&=-;-============**%$@.                                                    ",
"                                                    #*=>>=============*&&$+                                                     ",
"                                                    $=>,>============-**%$+                                                     ",
"                                                   %**,'>-============**&$#+                                                    ",
"                                                  &&*>!);*===========****%$#+                                                   ",
"                                                  &&;!!,;============-*-*&%$#+                                                  ",
"                                                 &**)!)>-=============*==*&%$#@                                                 ",
"                                                &&*)!)>-*================*=&%$#@                                                ",
"                                               &**)!),-=====================&%$#@                                               ",
"                                              &&*)!)>--=====******===========%%$#@                                              ",
"                                             &*='!!>-*====**&&&&&&===========*&%$#@                                             ",
"                                            &&=)!)>--*==***&%%$$%&&*===========&%$#@                                            ",
"                                           &*='!!>>*====**&%$##@#$%&*=========**&%$#@                                           ",
"                                          &&=)!)>-======*&$#@@. .#$%&*=========*=&%$#@                                          ",
"                                         &*='!!>-*====**&$#@+.   .#$%&*=========*=&%$#@                                         ",
"                                        &&=)!)>;*=====*&$#@+.     .##%&*===========&%$#@                                        ",
"                                       &*='!!>--===***&$#@+.       +#$%&*=========*=&%$#@                                       ",
"                                      &&=)!)>;**===**&$#@+.         +##%&*===========&%$#@                                      ",
"                                     &*='!!>>*====*&%%#@+.           +#$%&*=========*=&%$#@                                     ",
"                                    &&=)!)>-=====**&$#++.             +#$%&*===========&%$#@                                    ",
"                                   &*='!!>>=====**&%#@+.               +#$%&*=========*&&%$#@                                   ",
"                                  &&=)!)>-======*&$#++.                 +#$%&*===========&%$#@                                  ",
"                                 &*='!!>--=====&&%#@+.                   +#$%&&=========*=&%$#@                                 ",
"                                &&=)!)>-*=====*%$#++.                     +##%&*===========&%$#@                                ",
"                               &*='!!>>*====**%%#@+.                       +#$%&*=========*=&%$#@                               ",
"                              &&=)!)>-=====**&%#++.                         +##%&*===========&%$#@                              ",
"                             &*='!!>--====**&$#@+.                           +#$%&*=========**&%$#@                             ",
"                            &&=)!)>-*====**&$#++.                             +#$%&*=========*=&%$#@                            ",
"                           &*='!!>--===***%$#@+.                               +#$%&&=========*=&%$#@                           ",
"                          &&=)!)>-**==***&$#@+.                                 +#$%&*===========&%$#@                          ",
"                         &*='!!>--===*=*&$#@+.                                   +#$%&*=========**&%$#@                         ",
"                        &&=)!)>-**==***&%#@+.                                     +#$%&*===========&%$#@                        ",
"                       &*='!!>--====**%$#++.                                       +#$%&*=========*=&%$#@                       ",
"                      &&=)!)>;**====*&%#@+.                                         +#$%&*===========&%$#@                      ",
"                     &*='!!>>*====**%$#@+.                                           +#$%&*=========*=&%$#@                     ",
"                    &&=)!)>-=====**%%#++.                                             +#$%&**==========&%$#@                    ",
"                   &*='!!>>======*&%$@+.                                               +$$%&*=========**&%$#@                   ",
"                  &&=)!)>*======**&$#@+                                                 @%&&*=-=========*&%$#@                  ",
"                 &*='!!>>=======*&%$#+                                                   #&*=-;-========**&%$#@                 ",
"                &&=)!)>-========**&$@                                                     $*=>>-===========&%$#@                ",
"               &*='!!>>========***&#                                                       $',>;==========*=&%$#@               ",
"              &&=)!)>-==========**&%&%%%%%%%%%%%%%%%%%%%%%%%%%%%%%%%%%%%%%%%%%%%%%%%%%%&*->!!),;=============&%$#@              ",
"             &*='!!>>==========**==*&*&&&&&&&&&&&&&&%&&&&&&&&&&&&&&&&&&&&&&&&&&&&&%&&*&**>)!!)>;============**&%$#@             ",
"            &&=)!)>*===========*===*=*==************=*****************************=*=***=,!!),>-===============&%$#@            ",
"           &&=,!!>>==============--;;;>;>>>>>>>>>>>>>>>>>>>>>>>>>>>>>>>>>>>>>>>>>>>>>>>>,,'),>--==============**&%$#@           ",
"          &&*;!)>-=================-->;>>>>>>>>>>>>>>>>>>>>>>>>>>>>>>>>>>>>>>>>>>>>>>>>>>>>;--*================**%$#@           ",
"          %&*,!>>=================****************************************************-*******==================**%$@@          ",
"          %&*,'-===================*=*************=*****************************===*-***==*=-====================*%#@@          ",
"          %&=>,=================================================================================================**%%@@          ",
"          %&&>>=================================================================================================-=&$#+          ",
"          %&*>>*==================================================================================================%$#+          ",
"          $&&=**==*=*==**=*==**=*************************************************=***********=*****=***=***=***==*&$@+          ",
"          %%&&&%%%&%%&%%%%&%&%%%&%&%&%%%%%%%%&%%&%%%%%%%%%%%%%%%%%%&%%%%%%&%&%%&%%%&%&%%&%%%%%%%%%%%%%%%%%%%%%%%%%%#@+          ",
"          $%$$$%%$$$$#%%$%$$$%$$$$$$$$$$$$$$$$$$$$$$$$$$$$$$$$$$$$$$$$$$$$$$$$$$$$$$$$$$$$$$$$$$$$$$$$$$$$$$$$$%$$##@+          ",
"          $$#$@@#@##@@@@@@#@@#@@#@#@########@##@##################@######@#@##@##@@#@##@####@#####@###@##@##@#@@@@@@@+          ",
"          $#@@+++++++++@++++++@++++++++++++++++++++++++++++++++++++++++++++++++++@+++++++++++++++++++++++++++++++++++@          ",
"                                                                                                                                ",
"                                                                                                                                ",
"                                                                                                                                ",
"                                                                                                                                ",
"                                                                                                                                ",
"                                                                                                                                ",
"                                                                                                                                ",
"                                                                                                                                ",
"                                                                                                                                ",
"                                                                                                                                "};
