/* XPM */
char * makelayercurrent_xpm[] = {
"128 128 17 1",
" 	c None",
".	c #000000",
"+	c #2C2D23",
"@	c #4B4D4A",
"#	c #545400",
"$	c #7F817E",
"%	c #979700",
"&	c #919390",
"*	c #969895",
"=	c #A7AAA6",
"-	c #B1B4B0",
";	c #BBBDBA",
">	c #CDCC00",
",	c #C6C9C6",
"'	c #D6D9D5",
")	c #FAFB00",
"!	c #F9FCF8",
"                                                                                                                                ",
"                                                                                                                                ",
"                                                                                                                                ",
"                                                                                                                                ",
"                                                                                                                                ",
"                                                                                                                                ",
"                                                                                                                                ",
"                                                                                                                                ",
"                                                                                                                                ",
"                                                                                                                                ",
"                                                                                                                                ",
"                                                                                                                                ",
"                          ..................................................................                                    ",
"                          ............+@+@@+@@@@+@@@@+@@@@+@@@@+@@@@+@@@@+@@@@+@@@@@@@+.....                                    ",
"                          ...+$+......................................................+@@....                                   ",
"                           ...@@..............................................................                                  ",
"                           .......+@@@@@@@@@@@@@@@@@@@@@@@@@@@@@@@@@@@@@@@@@@@@@@@@@@@@+......                                  ",
"                            ......+;,,,,,,,,,,,',,,',,,',,,',,,',,,',',,',,,,,,',,,',',*.......                                 ",
"                             ......@;;;,,,,,,,,,,,,,,,,,,,,,,,,,,,,,,,,,,,,,,,,,,,,,,,,,$......                                 ",
"                             .......$;;,,,,,,,,,,,,,,,,,,,,,,,,,,,,,,,,,,,,,,,,,,,,,,,,;=+......                                ",
"                              ......+;;,,,'''''''''''''''''''''''''''''''''''''''''''''''&.......                               ",
"                              .......@,,''''!''!'!''!''!''!''!'''!''!''!''!'!''!''!''''!''@......                               ",
"                               .......=,''!!!'!!!'!!!!!'!!!!!!!!!!!!!!!!!!!!!!!!!!!!!!!!!!;+......                              ",
"                                ......@,''!'!!!!!!!!'!!!!!'!'!!'!!'!!'!!'!!'!'!!!'!!!!!!'!'&.......                             ",
"                                .......$'''!!!!!!!!!!!!!!!!!!!!!!!!!!!!!!!!!!!!!!!!!!!!!!!!'@......                             ",
"                                 .......;''!'!!!!!!!!!!!!!!!!!!!!!!!!!!!!!!!!!!!!!!!!!!!!!!!;.......                            ",
"                                  ......@''!!!!!!!!!!!!!!!!!!!!!!!!!!!!!!!!!!!!!!!!!!!!!!!!!'$......                            ",
"                                  .......*'''!!!!!!!!!!!!!!!!!!!!!!!!!!!!!!!!!!!!!!!!!!!!!!!!,+......                           ",
"                                   ......@,'!!!!!!!!!!!!!!!!!!!!!!!!!!!!!!!!!!!!!!!!!!!!!!!!!!*.......                          ",
"                                    ......$'''!!!!!!!!!!!!!!!!!!!!!!!!!!!!!!!!!!!!!!!!!!!!!!!!'@......                          ",
"                                    .......-''!!!!!!!!!!!!!!!!!!!!!!!!!!!!!!!!!!!!!!!!!!!!!!!!!,+......                         ",
"                                     ......@'''!!!!!!!!!!!!!!!!!!!!!!!!!!!!!!!!!!!!!!!!!!!!!!!!!$.......                        ",
"                                     .......$''!'!!!!!!!!!!!!!!!!!!!!!!!!!!!!!!!!!!!!!!!!!!!!!!!'@......                        ",
"                                      ......+;''!!!!!!!!!!!!!!!!!!!!!!!!!!!!!!!!!!!!!!!!!!!!!!!!!-.......                       ",
"                                       ......@''!!!!!!!!!!!!!!!!!!!!!!!!!!!!!!!!!!!!!!!!!!!!!!!!!'$......                       ",
"                                       .......*'''!!!!!!!!!!!!!!!!!!!!!!!!!!!!!!!!!!!!!!!!!!!!!!!!,+......                      ",
"                                        ......+,''!!!!!!!!!!!!!!!!!!!!!!!!!!!!!!!!!!!!!!!!!!!!!!!!!*.......                     ",
"                                         ......$'''!!!!!!!!!!!!!!!!!!!!!!!!!!!!!!!!!!!!!!!!!!!!!!!!'@......                     ",
"                                         .......='!'!!!!!!!!!!!!!!!!!!!!!!!!!!!!!!!!!!!!!!!!!!!!!!!!,+......                    ",
"                ................................@'''!!!!!!!!!!!!!!!!!!!!!!!!!!!!!!!!!!!!!!!!!!!!!!!!!$.......                   ",
"                ............+@+@@@@+@@@+@@.......&''!'!!!!!!!!!!!!!!!!!!!!!!!!!!!!!!!!!!!!!!!!!!!!!!!'@......                   ",
"                ...@$+...........................+;''!!!!!!!!!!!!!!!!!!!!!!!!!!!!!!!!!!!!!!!!!!!!!!!!!-.......                  ",
"                 ...@@............................@''!!!!!!!!!!!!!!!!!!!!!!!!!!!!!!!!!!!!!!!!!!!!!!!!!'$......                  ",
"                 .......@@@@@@@@@@@@@@@@@@@@+......*'''!!!!!!!!!!!!!!!!!!!!!!!!!!!!!!!!!!!!!!!!!!!!!!!!,+......                 ",
"                  ......@,;,',,,,,',,,''',';=......@,'!'!!!!!!!!!!!!!!!!!!!!!!!!!!!!!!!!!!!!!!!!!!!!!!!!*.......                ",
"                  .......$;-;,,,,,,,,,;,,,,,;$......$''!!!!!!!!!!!!!!!!!!!!!!!!!!!!!!!!!!!!!!!!!!!!!!!!!'@......                ",
"                   .......*;;,,,,,,,,,,,,,,,,;+......-'''!!!!!!!!!!!!!!!!!!!!!!!!!!!!!!!!!!!!!!!!!!!!!!!!,+......               ",
"                    ......@;;,,'''''''''''''''=......@'''!!!!!!!!!!!!!!!!!!!!!!!!!!!!!!!!!!!!!!!!!!!!!!!!'$.......              ",
"                    .......$,,''''!''!'''''!'''$......&'!'!!!!!!!!!!!!!!!!!!!!!!!!!!!!!!!!!!!!!!!!!!!!!!!!'@......              ",
"                     ......+-,''!'!!!!!!!'!!!!''+.....+;'!'!!!!!!!!!!!!!!!!!!!!!!!!!!!!!!!!!!!!!!!!!!!!!!!!-.......             ",
"                      ......@'''!!'!'!!!!!!!!!!!*......@''!!!!!!!!!!!!!!!!!!!!!!!!!!!!!!!!!!!!!!!!!!!!!!!!!'$.......            ",
"                      .......*'''!!!!!!!!!!!!!!!!@......*'''!!!!!!!!!!!!!!!!!!!!!!!!!!!!!!!!!!!!!!!!!!!!!!!!,+......            ",
"                       ......@,'!'!!!!!!!!!!!!!!!'......+,'!!!!!!!!!!!!!!!!!!!!!!!!!!!!!!!!!!!!!!!!!!!!!!!!!!*..+....           ",
"                       .......$,!'!!!!!!!!!!!!!!!!=......$'''!!!!!!!!!!!!!!!!!!!!!!!!!!!!!!!!!!!!!!!!!!!!!!!!!@..@....          ",
"                        .......;''!!!!!!!!!!!!!!!!'@......;''!!!!!!!!!!!!!!!!!!!!!!!!!!!!!!!!!!!!!!!!!!!!!!!!',+.$....          ",
"                         ......@'''!!!!!!!!!!!!!!!!,......@'''!!!!!!!!!!!!!!!!!!!!!!!!!!!!!!!!!!!!!!!!!!!!!!!!'$.$+....         ",
"                         .......&''!!!!!!!!!!!!!!!!!$......@$&&&&*****&***********************&*****&***********$$+....         ",
"                          ......+;''!!!!!!!!!!!!!!!!'+.......................................................@@$@+......        ",
"                           ......@'''!!!!!!!!!!!!!!!!&........++@@@@@@@@@+@@@@@@@+@@@@@@@+@@@@@@@@@@@@@@@+@@$$@.........        ",
"                           .......*'!'!!!!!!!!!!!!!!!!@.................................................................        ",
"                            ......@,''!!!!!!!!!!!!!!!!,.................................................................        ",
"                             ......$'''!!!!!!!!!!!!!!!!=@@@@@@@@@@@@@@@@@@@@@@@@@@@@@@@@+..............................         ",
"                             .......;''!!!!!!!!!!!!!!!!!''',,;;,,,,,',,,,,',,,,,',,,,,,-&.......                                ",
"                              ......@'''!!!!!!!!!!!!!!!!!!',,,,,,,,,,,,,,,,,,,,,,,,,,,,,;@.......                               ",
"                              .......*''!'!!!!!!!!!!!!!!'!''',,,,,,,,,,,,,,,,,,,,,,,,,,,,=+......                               ",
"                               ......+,''!!!!!!!!!!!!!!!!!!'''''''''''''''''''''''''''''',&.......                              ",
"      ................................$,'!'!!!!!!!!!!!!!!!'!!'!''!''!''!''!'!''!''!'''!'!',@.......                             ",
"     .............++@@@@+@@@@+@@.......*''!!!!!!!!!!!!!!!!!!!!!!'!!!!!!!!'!!'!!!!!!!!'!!!!!;+......                             ",
"      ...@$............................@'''!!!!!!!!!!!!!!!!!!'!!!!'!!!'!!!!!!!'!'!!!!!!!'!!'&.......                            ",
"      ....$@............................$'''!!!!!!!!!!!!!!!!!!!!!!!!!!!!!!!!!!!!!!!!!!!!!!!!'@......                            ",
"       .......####################+......;''!!!!!!!!!!!!!!!!!!!!!!!!!!!!!!!!!!!!!!!!!!!!!!!!!;+......                           ",
"        ......#>>>>>>>>>>>>>>>>>>>%......@'''!!!!!!!!!!!!!!!!!!!!!!!!!!!!!!!!!!!!!!!!!!!!!!!!'$.......                          ",
"        .......%%>%>>>>>>>>>>>>>%>>#......*'''!!!!!!!!!!!!!!!!!!!!!!!!!!!!!!!!!!!!!!!!!!!!!!!!,@......                          ",
"         ......+%>>>%>>>%>>>>>>>>%>>+.....+'''!!!!!!!!!!!!!!!!!!!!!!!!!!!!!!!!!!!!!!!!!!!!!!!!!=.......                         ",
"          ......#>>>>>>>>>>>>>>>>>>>%......$,'!!!!!!!!!!!!!!!!!!!!!!!!!!!!!!!!!!!!!!!!!!!!!!!!!'$.......                        ",
"          .......%>>>>>))>)>)>)))>)>>#......*'''!!!!!!!!!!!!!!!!!!!!!!!!!!!!!!!!!!!!!!!!!!!!!!!!,+......                        ",
"           ......#%>)))>)))))))>))))>>......@,''!!!!!!!!!!!!!!!!!!!!!!!!!!!!!!!!!!!!!!!!!!!!!!!!!&.......                       ",
"           .......%>>>)))>))))))))))))%......$'''!!!!!!!!!!!!!!!!!!!!!!!!!!!!!!!!!!!!!!!!!!!!!!!!'@.......                      ",
"            ......+%)>)))))))))))))))))+......;'!'!!!!!!!!!!!!!!!!!!!!!!!!!!!!!!!!!!!!!!!!!!!!!!!!,+......                      ",
"             ......#>>>))))))))))))))))>......@''!'!!!!!!!!!!!!!!!!!!!!!!!!!!!!!!!!!!!!!!!!!!!!!!!'$..+....                     ",
"             .......%>))))))))))))))))))#......*''!!!!!!!!!!!!!!!!!!!!!!!!!!!!!!!!!!!!!!!!!!!!!!!!!'@.++...                     ",
"              ......#>>>)))))))))))))))))+.....+,'''!!!!!!!!!!!!!!!!!!!!!!!!!!!!!!!!!!!!!!!!!!!!!!!'=..@....                    ",
"               ......#>)>))))))))))))))))%......$,'!!!!!!!!!!!!!!!!!!!!!!!!!!!!!!!!!!!!!!!!!!!!!!!!!'$+&.....                   ",
"               ......+%>>)))))))))))))))))#......$$$&&******************************************&***&$$$.....                   ",
"                ......#>)>))))))))))))))))>........................................................@$@@.......                  ",
"                .......%>>)))))))))))))))))#........++@+@@@@@@@@@@@+@@@@@@@@+@@@@@@@+@@@@@+@@@@@@@$@@.........                  ",
"                 ......+>>>)))))))))))))))))+.................................................................                  ",
"                  ......#>>)))))))))))))))))%................................................................                   ",
"                  .......%>)>))))))))))))))))%################################..............................                    ",
"                   ......#>>)))))))))))))))))))>>>>>%>>>>>>>>>>>>>>>>>>>>>>>>>%.......                                          ",
"                    ......#>>)))))))))))))))))>)>>>>>>>>>>>>>>>>>>>>>>>>>>>%>>%#.......                                         ",
"                    ......+%>>))))))))))))))))))>>>>>>%>>>>>>>>>>>>>%>>>>>>>>>>%+......                                         ",
"                     ......#>>)>))))))))))))))))>)>>>>>>>>>>>>>>>>>>>>>>>>>>>>>>#.......                                        ",
"                     .......%>>))))))))))))))))))))>)))>)>>)>>)>>)>)))>)>))>)>))>#......                                        ",
"                      ......+>>))))))))))))))))))>)))>)))))))))))))>)))))>))))>)>%+......                                       ",
"                       ......#>>>)))))))))))))))))))))))))))))))))))>)))))))))))))#.......                                      ",
"                       ......+%>))))))))))))))))))))))))))))))))))))))))))))))))))>#......                                      ",
"                        ......+>>>)))))))))))))))))))))))))))))))))))))))))))))))))%.......                                     ",
"                        .......%>>)))))))))))))))))))))))))))))))))))))))))))))))))>#......                                     ",
"                       ........+%>)>))))))))))))))))))))))))))))))))))))))))))))))))>+......                                    ",
"                     ...........#>>))))))))))))))))))))))))))))))))))))))))))))))))))%.......                                   ",
"                   ..............%>)>))))))))))))))))))))))))))))))))))))))))))))))))>#......                                   ",
"                 ......... ......+>>)>))))))))))))))))))))))))))))))))))))))))))))))))%+......                                  ",
"               .....++....  ......#>>))))))))))))))))))))))))))))))))))))))))))))))))))#.......                                 ",
"            ......+@$.....  ......+%>>)))))))))))))))))))))))))))))))))))))))))))))))))>#......                                 ",
"          ......@@$$.....    ......#>)>)))))))))))))))))))))))))))))))))))))))))))))))))%.......                                ",
"        ......+$$$@+.....    .......#>>)))))))))))))))))))))))))))))))))))))))))))))))))>#..@....                               ",
"      ......@@$$@@+......     .......>>>)))))))))))))))))))))))))))))))))))))))))))))))))>+.@....                               ",
"    ....+$$$&$@+.........      ......#>>))))))))))))))))))))))))))))))))))))))))))))))))))%.+@....                              ",
"   ......................      .......%>>>))))))))))))))))))))))))))))))))))))))))))))))))>#@$....                              ",
"    .....................       ...+...%%%%%%%%%%%%%%%%%%%%%%%%%%%%%%%%%%%%%%%%%%%%%%%%%%%%%@$.....                             ",
"       .................         ........................................................@$$@.......                            ",
"         ...............         .........+@+@@@@@@@@@@@@@@@@@@@@@@@@@@@@@@@@@@@@@@@@@@@$@+.........                            ",
"            ............          ..................................................................                            ",
"              ..........           ................................................................                             ",
"               .........           ...............................................................                              ",
"                .......                                                                                                         ",
"                 ......                                                                                                         ",
"                  .....                                                                                                         ",
"                  .....                                                                                                         ",
"                   ....                                                                                                         ",
"                    ..                                                                                                          ",
"                     .                                                                                                          ",
"                                                                                                                                ",
"                                                                                                                                ",
"                                                                                                                                ",
"                                                                                                                                ",
"                                                                                                                                "};
