/* XPM */
char * mass_xpm[] = {
"128 128 17 1",
" 	c None",
".	c #010200",
"+	c #2B0001",
"@	c #400000",
"#	c #7C0000",
"$	c #961515",
"%	c #5A2F30",
"&	c #3B3D02",
"*	c #3E403D",
"=	c #983030",
"-	c #DB2828",
";	c #E14B4A",
">	c #777600",
",	c #B85B5A",
"'	c #847170",
")	c #9B9E00",
"!	c #C0C100",
"                                                                                                                                ",
"                                                                                                                                ",
"                                                                                                                                ",
"                                                                                                                                ",
"                                                                                                                   @@@          ",
"                                                                                                               @@#@@@@          ",
"                                                                                                            @##$$##@@+          ",
"                                                                                                         @=#$$$$==@+@@          ",
"                                                                                                     @@##$$$;$-$#@@@+@          ",
"                                                                                                  @##$$$$-----$$@@%@@+          ",
"                                                                                               @##=$$-;-;---$=#@@%%+++          ",
"                                                                                           @@#$$$$--;;;;---;$#@@%'@@++          ",
"                                                                                        @##$$$;--;;;;;;---$$#@@'''@@@+          ",
"                                                                                     @#$$$;$-;;;;,;;;----$#=@+,''%@++++         ",
"                                                                                 @##$$$$--;;;;;;;;;-----$$#@@%'',+@+@+.         ",
"                                                                              @##$$$$-;;;;;;;;;--------$$=@@''''%@@++++         ",
"                                                                          @@##$=$;-;;;;;,;;;;---------$=#++''',%@@@+@+.         ",
"                                                                       @##$$;$--;;;;,;;;------------;$=#+@,''%@@+@+@+++         ",
"                                                                    @#=#=$$--;;;;;;;;-------------;-$$@@@''',%@@+@@+++.         ",
"                                                                @@#$$$$---;;;,;;;;-----------------$$#@@'''%%@@@@@@++++         ",
"                                                             @##$$$$--;;,;;;;;;-----------------;;$#@@%'''%%@+@+@+@@++.         ",
"                                                          @##$$$$;-;;;;;;;;----------------------$$@@%'',%@@@@@@@@@++++         ",
"                                                      @@#$$$$;-;;;;;;;;;-----------------------;$#@@%'''%%@@+@+@+@@+++.         ",
"                                                   @##$$$$;-;;;;;;;;-;---------------;--;-----$$$@@%','%@@@@@@@+@@@+@++         ",
"                                                @##$$$--;;;;;;;;;;----------------;-------;-;-$#@@%'''%@@@@+@@@@@+@+++.         ",
"                                            @@#$$$;$-;;;;;;;;;;----------------;------------$=#%@''',%@@@+@@@+@+@@@@+++         ",
"                                         @##$$$;--;;;,;;;;;--------------------------------;$#@+%'''%%@@@@+@@@@@+@++++.         ",
"                                      @=#$$$;-$;;;;;;;;;-----------------;-;--------------$##@+,'',%@@@+@+@@+@+@@@@@+++         ",
"                                    @$$$$--;;;;;;;;;----------------;--------------;-;;;###@@@%'''%@@@@@@@+@@@@+@+@+@+.         ",
"                                   #$$--;;;;;;;;-;---------------;---------------;--$#####$@@@''%%@@@@+@+@@@+@+@@@@++++         ",
"                                  #$;,;,;;;;;;----------------;-------------;-;-;$$########@@@%,%@@+@@@@@+@@@@@+@+@+++.         ",
"                                @=$;;,;;;;;------------------------------;----$$###########@++%%@@@@+@+@+@@@+@@@@@@++++         ",
"                               @#$;,,;;;-----------------------------;--;-;#=########==##@#@@+%%+@+@@@@@@+@@@@+@+@@+++.         ",
"                              @#;;,;;;----------------------------;--;-$##########=,,',####@++%%+@@@+@+@@@+@+@@@@@@@+++         ",
"                             @$$;,,;;------------;-------;-----;--;-$$#########,,,',,=$##@#@+@%%@+@@@@@+@@@@+@+@+@++@+.         ",
"                            #$;;,;;;----------;---------------;-$$#########=,,',,,===#####@@++%%+@+@+@@@@+@@@@@@@@@++++         ",
"                           @$$,,;;;;-------;----------;---;-;$$#########=,,',,,==#$#######@#++%%+@@@+@+@@@+@+@+@+@@+++.         ",
"                          #$;;,;;;---------------------;-;$##########,,,',,===############@@++%%+@+@@@@+@@@@@@@@@@@++++         ",
"                         @$$,,;;;---;------------;-;;-;##########=,,',,,==#$###$###$######@@++%%@+@@@+@@+@+@+@+@+@@@++.         ",
"                        #$;;,;;;;------------------$##########,,,',,,==#$#######$##########@+++%+@@+@@+@@@@@+@@@@+@++++         ",
"                       #$;,,;;;------------;-;-;$$########=,,,',,,=#$###############$#####@@++%%@+@@@+@@+@+@@+@+@@@@++.         ",
"                      =$;,,;;;---------;-;--$$#########=,,,',,==#$#######$###$##########@##@+++%+@++@@@@@@+@@@@@@+@++++         ",
"                    @#$;,;;;;-------;----$$#$######$,,,,',,$=#########$####$###$##########@@++%%+@@@@+@+@@@@+@+@@+@+++.         ",
"                   @$$;,,;;------;---;$=########=,,,,',=$=#$######$############$##$########@++%%@+@+@@@@@+@@+@@@@+@+++          ",
"                  @#$;,;;;-----;--;$########$=,,',,,=$#$######$#########$##$########$####@@@++%%+@@@@+@+@@@@@+@+@+++++          ",
"                 ##;,;;;-----;-;##########,,,',,,==########$######$##$########$############@+++%+@++@@@@+@+@@@@@++++.           ",
"                @$$-;-;--;-;$$########=,,',,,==##########$####$########$###$####$#########@@++%%+@@@@+@@@@@@+++@++++            ",
"               #$$------$$#########=,,',,,==#$#######$#########$###$####$#########$########@++%%+@+@@+@++@+@@@++++.             ",
"              @$$-;-$$$#$######=,,',,,==###########$#######$#####$###########-###########@@@++%%+@@@@@@@@+@@+@++++              ",
"             #$$$$#$########=,,',,,==$$###############$#$###########-####-########$########@+++%@+++@@+@@@+@++++.               ",
"            @#$$########$,,',,,===#########$##$#$###########$#############################@@++%%+@@@+@@@+@+++++                 ",
"           @#########=,,',,,===$########$###########$####$#####-################$##$#######@+++%@+@@@+@@@+@+++                  ",
"          ########=,,',,,==#########$######$#####$####$#######################-##########@#@++%%+@@+@@+@@++++                   ",
"          ####=,,,',,==$#########$######$####$#############-##############################@@++%%+@@@@@++++++                    ",
"          ###,',,,===#########$#####$###########$##$##-##########-####-####-#####$#######@#@.+%%+++@@+@++++                     ",
"          ###,,,=#$#######$####$#####$##$####$#############################################@+++%@@++@@++++                      ",
"          ####,=#####$##$##########$#######$###-###############################-##$######@#@++%%+@@@+++++                       ",
"          ###==##############$####################-########-###############################@++%+@++@++++                        ",
"          ####,##$####$#$######$#$###$##-##############-########-####-##############$####@#@++%++@@++++                         ",
"          ###$=$###$#######$##############################################################@@++@+++++++                          ",
"          ###==$########$####$###-######################################-#######-#########@@+++@++++.                           ",
"          ####,$####$####$##########-######-###############################################@++++++++                            ",
"          ####,###$#########-##################-##########-################-#######$#####@#@+++++++                             ",
"          ####=$#######-###############-#############-##########-##########################@+++++.                              ",
"          ####,###$###############################-######################################@@@++.+.                               ",
"          ##########################################################-######################@+++.                                ",
"          ###############################################################################@@@.++                                 ",
"          @###########################################################################@####@+.                                  ",
"          ##@##@##@###&###&##&####&###&###@##&##@##&#@####&###&##&#@#&##@##&###@##@@@##@@#@@+                                   ",
"          ###@#@@#@@@#@@@#@@#@@@@#@@@#@@@#@@#@@#@@@@#&@@@#@@@#@@#@#@#@&#@@#@@@#@@#@#@@@#@@#@                                    ",
"                                                                                                                                ",
"                                                                                                                                ",
"                                                                                                                                ",
"                                                                                                                                ",
"                                                                                                                                ",
"                                                                                                                                ",
"                                                                                                                                ",
"                                                                                                                                ",
"                                                                                                                                ",
"                                                                                                                                ",
"                                                                                                                                ",
"                                                                                                                                ",
"                                                                                                                                ",
"                                                                                                                                ",
"                                                                                                                                ",
"                                                                                                                                ",
"          ............................................................................................................          ",
"          ............................................................................................................          ",
"          ..**...*************%*'''*........**************'''*........**************'''*........**************'''*....          ",
"          ..'*.....................''**......................''**......................''**......................**...          ",
"          ..*.........................................................................................................          ",
"          ....>>>>>>>>>>>>>>>>>>>>>&....&>>>>>>>>>>>>>>>>>>>>&....&>>>>>>>>>>>>>>>>>>>>&....&>>>>>>>>>>>>>>>>>>>>>.....         ",
"          ....>))>)>))>))>)))>)))))&....&>)>)>)>))>))>)>)))))&....&>)>)>))>))>)))>)>)))&....&>)>)>))>)>))>))>))>)>.....         ",
"          ....>>))))))))))))))))>))&.'..&)>))))))))))))))>)))&.'..&>)))))))))))))))))))&.'..&))))))))))))))))))))>.....         ",
"          .*..>))>)))))))))))))))))>.'..&>))>))))))))))))))))&.'..&)>>)>)))))))))))))))&.'..&>>)>)>))))))))))))))>.....         ",
"          .*..>))))))))))))))))))))&.*..&)>)))))))))))))!))!)>.*..&))))))))))))))))))!)>.*..&))))))!)))))))))))))>.*...         ",
"          .*..>>)))))!!!!!)!!!!!!!!>....&))))))!!!!!!!!)!)!!)>....&>)))))!!!!!!!!!!!)!)>....&>)))))!!!!!!!!!!!!!!>.*...         ",
"          .*..>))))!!)!)!!!!!)!!)!)>....&)>)))!)!)!!)!!!!!)!)>....&)))))!))!)!)!!)!!!!)>....&)>))!)!)!!!)!!!)!)!!>.*...         ",
"          .*..>)))))!!!!!!!!!!!!!!!&....&)))))!!!!!!!!!!!!!!!&....&)>))!!!!!!!!!!!!!!!!&....&)))))!!!!!!!!!!!!!!!).*...         ",
"          .*..>)))!)!!!!!!!!!!!!!!!>....&>))!)!!!!!!!!!!!!!!!>....&)))))!!!!!!!!!!!!!!!>....&))))!)!!!!!!!!!!!!!!>.*...         ",
"          .*..>>)))!!!!!!!!!!!!!!!!!>)>>)))))!)!!!!!!!!!!!!!!!>)>>)))))!)!!!!!!!!!!!!!!!>>>>)))))!!!!!!!!!!!!!!!!).*...         ",
"          .*..>)))))!!!!!!!!!!!!!!!!!!!))))))!!!!!!!!!!!!!!!!!!)!))))))!!!!!!!!!!!!!!!!!!!!))))))!)!!!!!!!!!!!!!!>.*...         ",
"          .*..>)))!!)!!!!!!!!!!!!!!!!!)!)))))!!!!!!!!!!!!!!!!!!!!))))))!!!!!!!!!!!!!!!!!!!!))))))!!!!!!!!!!!!!!!!).*...         ",
"          .*..>))))!!!!!!!!!!!!!!!!!!!!)!)!)!)!!!!!!!!!!!!!!!!!!!)!))!)!!!!!!!!!!!!!!!!!!!!!))!)!)!!!!!!!!!!!!!!!>.*...         ",
"          .*..>))))!!!!!!!!!!!!!!!!!!!!!))!)!!!!!!!!!!!!!!!!!!!!!!!!)!!)!!!!!!!!!!!!!!!!!!)!!)!!)!!!!!!!!!!!!!!!!).*...         ",
"          .*..>)))))!!!!!!!!!!!!!!!!!!!!!!!!!!!!!!!!!!!!!!!!!!!!!!)!!!!!!!!!!!!!!!!!!!!!!!!!!)!!!!!!!!!!!!!!!!!!!>.*...         ",
"          .*..>>))!)!!!!!!!!!!!!!!!!!!!!!!!)!!!!!!!!!!!!!!!!!!!!!!!!!)!!!!!!!!!!!!!!!!!!!!!!!!!!!!!!!!!!!!!!!!!!!).*...         ",
"          .*..>))))!!!!!!!!!!!!!!!!!!!!!!!!!!!!!!!!!!!!!!!!!!!!!!!!!!!!!!!!!!!!!!!!!!!!!!!!!!!!!!!!!!!!!!!!!!!!!!>.*...         ",
"          .*..>))))!!!!!!!!!!!!!!!!!!!!!!!!!!!!!!!!!!!!!!!!!!!!!!!!!!!!!!!!!!!!!!!!!!!!!!!!!!!!!!!!!!!!!!!!!!!!!!).*...         ",
"          .*..>)))))!!!!!!!!!!!!!!!!!!!!!!!!!!!!!!!!!!!!!!!!!!!!!!!!!!!!!!!!!!!!!!!!!!!!!!!!!!!!!!!!!!!!!!!!!!!!!).*...         ",
"          .*..>)))!!!!!!!!!!!!!!!!!!!!!!!!!!!!!!!!!!!!!!!!!!!!!!!!!!!!!!!!!!!!!!!!!!!!!!!!!!!!!!!!!!!!!!!!!!!!!!!>.'...         ",
"          .'..>))))!!!!!!!!!!!!!!!!!!!!!!!!!!!!!!!!!!!!!!!!!!!!!!!!!!!!!!!!!!!!!!!!!!!!!!!!!!!!!!!!!!!!!!!!!!!!!!).'...         ",
"          .'..>))))!!!!!!!!!!!!!!!!!!!!!!!!!!!!!!!!!!!!!!!!!!!!!!!!!!!!!!!!!!!!!!!!!!!!!!!!!!!!!!!!!!!!!!!!!!!!!!).'...         ",
"          .**.>))))!!!!!!!!!!!!!!!!!!!!!!!!!!!!!!!!!!!!!!!!!!!!!!!!!!!!!!!!!!!!!!!!!!!!!!!!!!!!!!!!!!!!!!!!!!!!!!)**...         ",
"          ..'.&&&&&&&&&&&&&&&&&&&&&&&&&&&&&&&&&&&&&&&&&&&&&&&&&&&&&&&&&&&&&&&&&&&&&&&&&&&&&&&&&&&&&&&&&&&&&&&&&&&&'....         ",
"          .......................................*...*....................*...*........................*.......*''*....         ",
"          ........********************************************************************************************'*.......         ",
"          .............................................................................................................         ",
"          .............................................................................................................         ",
"                                                                                                                                ",
"                                                                                                                                ",
"                                                                                                                                ",
"                                                                                                                                ",
"                                                                                                                                ",
"                                                                                                                                ",
"                                                                                                                                ",
"                                                                                                                                ",
"                                                                                                                                "};
