/* XPM */
char * mirror_xpm[] = {
"128 128 17 1",
" 	c None",
".	c #000000",
"+	c #10120F",
"@	c #710000",
"#	c #191B18",
"$	c #252724",
"%	c #2F312F",
"&	c #3A3C39",
"*	c #9E4141",
"=	c #5E605D",
"-	c #818380",
";	c #AAACA9",
">	c #BBBDBA",
",	c #C8CAC7",
"'	c #D6D9D5",
")	c #E4E6E3",
"!	c #FBFEFA",
"                                                                                                                                ",
"                                                                                                                                ",
"                                                                                                                                ",
"                                                                                                                                ",
"                                                                                                                                ",
"                                                             @@@@                                                               ",
"                                                             @@@@@                                                              ",
"                                                             @*@@@                                                              ",
"                                                             @,@@@                                                              ",
"                                                             @;@@@                                                              ",
"                                                             @*@@@                                                              ",
"                                                             @*@@@                                                              ",
"                                                             @*@@@                                                              ",
"                                                             @*@@@                                                              ",
"                                                             @*@@@                                                              ",
"                                                             @*@@@                                                              ",
"                                                  $          @*@@@          $                                                   ",
"                                                  ..         @*@@@         ..                                                   ",
"                                                 #..         @*@@@         ..#                                                  ",
"                                                 ...         @*@@@         ...                                                  ",
"                                                #...         @*@@@         ...+                                                 ",
"                                                %...         @*@@@         ...%                                                 ",
"                                               .=...         @*@@@         ...=.                                                ",
"                                               .=...         @*@@@         ...=.                                                ",
"                                              .&&...         @*@@@         ...&&.                                               ",
"                                              .-....         @*@@@         ....-.                                               ",
"                                             ..-....         @*@@@         ....-..                                              ",
"                                            ..=.....         @*@@@         .....=..                                             ",
"                                            ..-.....         @*@@@         .....-..                                             ",
"                                           ..=......         @*@@@         ......=..                                            ",
"                                           ..-......         @*@@@         ......-..                                            ",
"                                          ..=...+...         @*@@@         ...+...=..                                           ",
"                                          ..=+..$...         @*@@@         ...$...=+.                                           ",
"                                         ..=....$...         @*@@@         ...$....=..                                          ",
"                                         ..=+.+.%...         @*@@@         ...%.+..=..                                          ",
"                                        ..=...=.%...         @*@@@         ...%.=...=..                                         ",
"                                        ..=..#-.%...         @*@@@         ...%.-#..=..                                         ",
"                                       .+=...;-.%...         @*@@@         ...%.-;...=..                                        ",
"                                       ..=..#>-.%...         @*@@@         ...%.-,#..=+.                                        ",
"                                      ..-...;>-.$...         @*@@@         ...$.->;...=..                                       ",
"                                      ..=..$,>-.$...         @*@@@         ...$.->,$..=+.                                       ",
"                                     ..-...;>;-.$...         @*@@@         ...$.->>;...-..                                      ",
"                                     .+=..$,>;-.%...         @*@@@         ...%.-;>,%..=..                                      ",
"                                    ..=...;>>>-.%...         @*@@@         ...$.->>>;...-..                                     ",
"                                    .#=..%,>>;-.%...         @*@@@         ...%.->;>,&..=+.                                     ",
"                                   ..-...;>>>>-.%...         @*@@@         ...%.->>>>;...-..                                    ",
"                                   .#&..&,>;>,-.%...         @*@@@         ...%.->>>>,&..&$.                                    ",
"                                  ..-...>>>>>,-.%...         @*@@@         ...%.-,>;>>>...-..                                   ",
"                                  .$&..&,>>>>,;.%...         @*@@@         ...%.;,>>>>,&..&$.                                   ",
"                                 ..-...>>>>>,'-.%...         @*@@@         ...%.;',>>>,>...-..                                  ",
"                                 .$&..=>>>>>,);.&...         @*@@@         ...%.-),>>>>,=..&$.                                  ",
"                                ..-...;,;>>,'';.%...         @*@@@         ...&.;)',>;>;>...-..                                 ",
"                                .%&..=>>>>>,));.&...         @*@@@         ...&.;)),>>>>,=..&%.                                 ",
"                               ..-...>,>>>,'));.%...         @*@@@         ...%.;))',>;>>>...-..                                ",
"                               .%&..=>>;>,,))!;.%...         @*@@@         ...%.;))),,>>>,=..%%.                                ",
"                              ..-...>>>>>,')!);.&...         @*@@@         ...&.;!!))>>>>>>...-..                               ",
"                              .%%..=,>>>>,))!!;.%...         @*@@@         ...&.;!))),>>;>,=..%&.                               ",
"                             ..-...,>>;>,)))!!;.&...         @*@@@         ...%.;!!))),>>>>,...-..                              ",
"                             .&$..=,>>>,,))!!!;.&...         @*@@@         ...%.;!!!)),,>>>,=..$&.                              ",
"                            ..-...,>>>>>))!)!!;.%...         @*@@@         ...&.;!!!))'>>>>>,...-..                             ",
"                            .&$..=,>>>,,)))!!!;.%...         @*@@@         ...&.;!!!!)),>>>>,=..$&.                             ",
"                           ..-...,>>;>>))!!!!!;.&...         @*@@@         ...%.;!!!!!)),>>>>,...-..                            ",
"                           .&#..-,>>>,,)))!!!!;.%...         @*@@@         ...%.;!!!!))),,>>>,-..#&.                            ",
"                          ..-...,>>;>,))!!!!!!;.&...         @*@@@         ...&.;!!!!!))'>>>>>,...-..                           ",
"                          .&+..->>>>>,)))!!!!!;.&...         @*@@@         ...&.;!!!!!!)),,>;>,-..+&.                           ",
"                         ..-...,>>>>,))!!!!!!!;.%...         @*@@@         ...%.;!!!!!!))',>>>>,...-..                          ",
"                         .&+..-,>;>>,)))!!!!!!;.%...         @*@@@         ...%.;!!!!!!!)),,>;>,-..+&.                          ",
"                        ..-...,>>>>,))!!!!!!!!;.&...         @*@@@         ...&.;!!!!!!!!)',>>>>,...-..                         ",
"                        .=...-,>>>>,))!!!!!!!!;.%...         @*@@@         ...&.;!!!!!!!!)),,>>>,-...=.                         ",
"                       ..-...,>>>>,)))!!!!!!!!;.&...         @*@@@         ...%.;!!!!!!!)!)),>>>>,+..-..                        ",
"                       .=...-,>;>,,))!!!!!!!!!;.&...         @*@@@         ...%.;!!!!!!!!!)),,>>>,-...=.                        ",
"                      ..-..#,>>>>,))!!!!!!!!!!;.%...         @*@@@         ...&.;!!!!!!!!!))',>>>>,+..-..                       ",
"                      .=...-,>>>,,)))!!!!!!!!!;.%...         @*@@@         ...&.;!!!!!!!!!!)),,>;>,-...=.                       ",
"                     ..-..#,>>>>,))!!!!!!!!!!!;.&...         @*@@@         ...%.;!!!!!!!!!!!)),>>>,,#..=..                      ",
"                     .=...;>>;>,,))!!!!!!!!!!!;.%...         @*@@@         ...%.;!!!!!!!!!!))),,>;>,;...=.                      ",
"                    ..=..$,>>>>,))!!!!!!!!!!!!;.&...         @*@@@         ...&.;!!!!!!!!!!!!)),>>>>,#.+=..                     ",
"                    .=.+.;>>>>,,)))!!!!!!!!!!!;.&...         @*@@@         ...&.;!!!!!!!!!!!!))',>;>,;...=.                     ",
"                   .+=..#,>>>>,))!!!!!!!!!!!!!;.%...         @*@@@         ...%.;!!!!!!!!!!!!!)',>>>>,$.+=..                    ",
"                  ..=...;,>;>,,))!!!!!!!!!!!!!;.%...         @*@@@         ...%.;!!!!!!!!!!!!!))',>;>,;...=..                   ",
"                  ..=..%,>>>>,))!!!!!!!!!!!!!!;.&...         @*@@@         ...&.;!!!!!!!!!!!!!!)',>>>>,%..=..                   ",
"                 ..=+..;>>>>,,))!!!!!!!!!!!!!!;.%...         @*@@@         ...%.;!!!!!!!!!!!!!!)))>>>>>;..+=..                  ",
"                 ..=..%,>>>,,)))!!!!!!!!!!!!!!;.&...         @*@@@         ...&.;!!!!!!!!!!!!!!))),>;>,,&..=..                  ",
"                ..-...;>>;>,)))!!!!!!!!!!!!!!!;.%...         @*@@@         ...&.;!!!!!!!!!!!!!!!))),>>>>;...-..                 ",
"                ..=..&,>>>>>))!!!!!!!!!!!!!!!!;.&...         @*@@@         ...%.;!!!!!!!!!!!!!!!))),>>>>,&..=+.                 ",
"               ..-...>,>>>,,))!!!!!!!!!!!!!!!!;.%...         @*@@@         ...&.;!!!!!!!!!!!!!!!!)),,>>>,>...=+.                ",
"               ..=..&>>>>,,)))!!!!!!!!!!!!!!!!;.&...         @*@@@         ...%.;!!!!!!!!!!!!!!!!!)),>>>>,&..=+.                ",
"              ..-...>>>>>,))!!!!!!!!!!!!!!!!!!;.%...         @*@@@         ...%.;!!!!!!!!!!!!!!!!!)))>>>>,>...-..               ",
"              .+=..=,>;>>,)))!!!!!!!!!!!!!!!!!;.&...         @*@@@         ...&.;!!!!!!!!!!!!!!!!!!)),>>>>>=..=+.               ",
"             ..-...;,>>>,,))!!!!!!!!!!!!!!!!!!;.%...         @*@@@         ...&.;!!!!!!!!!!!!!!!!!!))',>>>>;...-..              ",
"             .#&..=,>>>,,))!!!!!!!!!!!!!!!!!!!;.&...         @*@@@         ...%.;!!!!!!!!!!!!!!!!!!!)),>>>>,=..&#.              ",
"            ..-...>>>>>,)))!!!!!!!!!!!!!!!!!!!;.%...         @*@@@         ...&.;!!!!!!!!!!!!!!!!!!!)))>>>>>>...-..             ",
"            .%&..=,>;>>,))!!!!!!!!!!!!!!!!!!!!;.&...         @*@@@         ...%.;!!!!!!!!!!!!!!!!!!!!)),>>>>,=..&$.             ",
"           ..-...>,>>>,,))!!!!!!!!!!!!!!!!!!!!;.%...         @*@@@         ...%.;!!!!!!!!!!!!!!!!!!!!)))>>>>>>...-..            ",
"           .$&..=>>>>,,)!)!!!!!!!!!!!!!!!!!!!!;.&...         @*@@@         ...&.;!!!!!!!!!!!!!!!!!!!!!)),,>>>,=..&$.            ",
"          ..-...,>>>>,)))!!!!!!!!!!!!!!!!!!!!!;.%...         @*@@@         ...&.;!!!!!!!!!!!!!!!!!!!!!))',>>>,,...-..           ",
"          .$&..=,>>>>,))!!!!!!!!!!!!!!!!!!!!!!;.&...         @*@@@         ...%.;!!!!!!!!!!!!!!!!!!!!!!)),,>>>,=..&%.           ",
"         ..-...,,>>>,)))!!!!!!!!!!!!!!!!!!!!!!;.&...         @*@@@         ...&.;!!!!!!!!!!!!!!!!!!!!!!))',>>>>,...-..          ",
"         .%%..=,>>>>,))!!!!!!!!!!!!!!!!!!!!!!!;.%...         @*@@@         ...%.;!!!!!!!!!!!!!!!!!!!!!!!)),>>>>,=..%%.          ",
"        ..-...,>>;,,,))!!!!!!!!!!!!!!!!!!!!!!!;.%...         @*@@@         ...%.;!!!!!!!!!!!!!!!!!!!!!!!))),>>>,,...-..         ",
"        .&%..-,>>>,,))!!!!!!!!!!!!!!!!!!!!!!!!;.%...         @*@@@         ...&.;!!!!!!!!!!!!!!!!!!!!!!!!)),,>>>>-..%&.         ",
"       ..-...,>>>>,)))!!!!!!!!!!!!!!!!!!!!!!!!;.&...         @*@@@         ...&.;!!!!!!!!!!!!!!!!!!!!!!!!))',>>>>,...-..        ",
"       .&$..-,>;>>,))!!!!!!!!!!!!!!!!!!!!!!!!!;.&...         @*@@@         ...&.;!!!!!!!!!!!!!!!!!!!!!!!!!)),>>>>>-..$&.        ",
"      ..-...,>>>>,)))!!!!!!!!!!!!!!!!!!!!!!!!!;.=...         @*@@@         ...=.;!!!!!!!!!!!!!!!!!!!!!!!!!))),>>>>,...-..       ",
"      .&#..-,>>>,,))!!!!!!!!!!!!!!!!!!!!!!!!!!;.=...         @*@@@         ...=.;!!!!!!!!!!!!!!!!!!!!!!!!!!)),,>>>,-..#&.       ",
"     ..-...,,>>>,)))!!!!!!!!!!!!!!!!!!!!!!!!!!;.-...         @*@@@         ...-.;!!!!!!!!!!!!!!!!!!!!!!!!!!)))>>>>>,+..-..      ",
"     .&+..-,>>>,,))!!!!!!!!!!!!!!!!!!!!!!!!!!!;$-...         @*@@@         ...-$;!!!!!!!!!!!!!!!!!!!!!!!!!!!))',>>>,-..+&.      ",
"    ..=...&==*=-----------------;-------------==%...         @*@@@         ...$==------------------------------=====&...=..     ",
"    ....................+...........+..+.....&=-....         @*@@@         ....--&.+..+.+..+.+....+.+..+...................     ",
"   ......#.##$%%&&&&&&=&&&&=&&&&&&&&&&&&&==--=$.....         @*@@@         .....#=--=&&&&&&&&&&=&&&&&&&&&&&&&&&&&$##.#......    ",
"   .........................+.....+.................         @*@@@         ...........+............+..+.....................    ",
"  ..................................................         @*@@@         ................+.................................   ",
"   ................................................          @*@@@          ................................................    ",
"                                                             @*@@@                                                              ",
"                                                             @*@@@                                                              ",
"                                                             @*@@@                                                              ",
"                                                             @@@@@                                                              ",
"                                                             @@@@@                                                              ",
"                                                             @@@@@                                                              ",
"                                                             @@@@@                                                              ",
"                                                             @@@@@                                                              ",
"                                                             @@@.@                                                              ",
"                                                                                                                                ",
"                                                                                                                                ",
"                                                                                                                                ",
"                                                                                                                                ",
"                                                                                                                                ",
"                                                                                                                                ",
"                                                                                                                                "};
