/* XPM */
char * move_xpm[] = {
"128 128 17 1",
" 	c None",
".	c #000000",
"+	c #050804",
"@	c #0E100D",
"#	c #141614",
"$	c #1A1C19",
"%	c #212321",
"&	c #2C2E2C",
"*	c #363835",
"=	c #40423F",
"-	c #464845",
";	c #50524F",
">	c #595B58",
",	c #616361",
"'	c #6B6E6B",
")	c #747774",
"!	c #7E807D",
"                                                                                                                                ",
"                                                                                                                                ",
"                                                                                                                                ",
"                                                               ..                                                               ",
"                                                              $+..                                                              ",
"                                                              #-..                                                              ",
"                                                              .'..                                                              ",
"                                                              .!..                                                              ",
"                                                              .!..                                                              ",
"                                                              .!..                                                              ",
"                                                              .!..                                                              ",
"                                                             ..!...                                                             ",
"                                                             ..!...                                                             ",
"                                                            ...!...                                                             ",
"                                                            ...!...                                                             ",
"                                                             .+!...                                                             ",
"                                                            ..&)....                                                            ",
"                                                           ...-).....                                                           ",
"                                                           ...,,.....                                                           ",
"                                                          ...&);......                                                          ",
"                                                          ...;)*......                                                          ",
"                                                          ...'>%......                                                          ",
"                                                          ..=)-@......                                                          ",
"                                                         ...',&........                                                         ",
"                                                         ..=)>$........                                                         ",
"                                                        ...',&..........                                                        ",
"                                                       ...$&...+.........                                                       ",
"                                                       ..................                                                       ",
"                                                      ....................                                                      ",
"                                                      ....................                                                      ",
"                                                       ...................                                                      ",
"                                                              ....                                                              ",
"                                                              ....                                                              ",
"                                                              ....                                                              ",
"                                                              ....                                                              ",
"                                                              .&..                                                              ",
"                                                              .-..                                                              ",
"                                                              .;..                                                              ",
"                                                              .;..                                                              ",
"                                                              .;..                                                              ",
"                                                              .;..                                                              ",
"                                                              .;..                                                              ",
"                                                              .;..                                                              ",
"                                                              .-..                                                              ",
"                                                              .-..                                                              ",
"                                                              .-..                                                              ",
"                                                              .-..                                                              ",
"                                                              .=..                                                              ",
"                                                              .-..                                                              ",
"                                                              .=..                                                              ",
"                                                              .=..                                                              ",
"                                                              .-..                                                              ",
"                                                              .-..                                                              ",
"                              ..                              .=..                               ..                             ",
"                            .....                             .-..                              .....                           ",
"                           ......                             .-..                              ......                          ",
"                         ........                             .,..                              ..$.....                        ",
"                     .......$....                             .!..                              ..%'........                    ",
"                   .......='&....                             .!..                              ..#!>.........                  ",
"               .. .....+='),.....                             %)..                              ..&),#......... ...             ",
"             ........%;')';&.....                             =,..                              ..;);%@+............            ",
"      $#.........+&;')',-&$................................+%=)'...............................@%;',=#.@@#.................     ",
"     ..-'!!!!!!!!!)',;*$@............&----=---=---=---=--,!!),';......%--=-==--=-====****==;)!!;=;>;&@......................    ",
"     .............................................................................................%*%.......................    ",
"      ....................+........................................................................$$......................     ",
"             ....................                             ....                              ....................            ",
"                  ...............                             ....                              ............... ...             ",
"                   ..............                             ....                              ..............                  ",
"                     ............                             ....                              ............                    ",
"                         ........                             .%..                              ........                        ",
"                           ......                             .-..                              ......                          ",
"                            .....                             .=..                              .....                           ",
"                              ...                             .-..                               ..                             ",
"                                                              .=..                                                              ",
"                                                              .=..                                                              ",
"                                                              .-..                                                              ",
"                                                              .-..                                                              ",
"                                                              .=..                                                              ",
"                                                              .-..                                                              ",
"                                                              .=..                                                              ",
"                                                              .=..                                                              ",
"                                                              .-..                                                              ",
"                                                              .-..                                                              ",
"                                                              .=..                                                              ",
"                                                              .-..                                                              ",
"                                                              .=..                                                              ",
"                                                              .=..                                                              ",
"                                                              .-..                                                              ",
"                                                              .-..                                                              ",
"                                                              .;..                                                              ",
"                                                              .)..                                                              ",
"                                                              .!..                                                              ",
"                                                              #!..                                                              ",
"                                                              %,..                                                              ",
"                                                       .......&-.........                                                       ",
"                                                      .......#;;..........                                                      ",
"                                                      ...$%$&,);%.........                                                      ",
"                                                       ...'!)',;&$.......                                                       ",
"                                                       ....>,;=&%$.......                                                       ",
"                                                        ....$%@.@.......                                                        ",
"                                                         ....@@........                                                         ",
"                                                         ....@.........                                                         ",
"                                                          ....#.......                                                          ",
"                                                          ....@.......                                                          ",
"                                                          ............                                                          ",
"                                                          ............                                                          ",
"                                                           ..........                                                           ",
"                                                           ..........                                                           ",
"                                                            ........                                                            ",
"                                                             ......                                                             ",
"                                                            ........                                                            ",
"                                                            ........                                                            ",
"                                                            ........                                                            ",
"                                                             ......                                                             ",
"                                                              ....                                                              ",
"                                                              ....                                                              ",
"                                                              ....                                                              ",
"                                                              ....                                                              ",
"                                                              ....                                                              ",
"                                                              ....                                                              ",
"                                                              ....                                                              ",
"                                                               ..                                                               ",
"                                                                                                                                ",
"                                                                                                                                ",
"                                                                                                                                ",
"                                                                                                                                ",
"                                                                                                                                ",
"                                                                                                                                "};
