/* XPM */
char * multilinetext_xpm[] = {
"128 128 17 1",
" 	c None",
".	c #000000",
"+	c #020501",
"@	c #060A05",
"#	c #0F110E",
"$	c #1A1C1A",
"%	c #242523",
"&	c #2C2E2C",
"*	c #363835",
"=	c #3E403E",
"-	c #464845",
";	c #505250",
">	c #5C5E5B",
",	c #656765",
"'	c #6D6F6C",
")	c #747673",
"!	c #7C7E7B",
"                                                                                                                                ",
"                                                                                                                                ",
"                                                                                                                                ",
"                                                                                                                                ",
"                                                           ++++                                                                 ",
"                                                           ++++                                                                 ",
"                                                           +++++                                                                ",
"                                                          ++#+++                                                                ",
"                                                          +.>++++                                                               ",
"                                                         ++.!.+++                                                               ",
"                                                         +.#!.++++                                                              ",
"                                                        ++.;!.++++                                                              ",
"                                                        ++.,'.+++++                                                             ",
"                                                        ++&);++++++                                                             ",
"                                                       +..,)*.+++++                                                             ",
"                                                       ++$);%+++++++                                                            ",
"                                                      +..;)=#+++++++                                                            ",
"                                                      +++),&..+++++++                                                           ",
"                                                     +..-)=#+++++++++                                                           ",
"                                                     ++.,,&..++++++++                                                           ",
"                                                    +..*!;$.++++++++++                                                          ",
"                                                    ++.,,*#..+++++++++                                                          ",
"                                                    +.%)>$.++++++++++++                                                         ",
"                                                   ++.;)*#..+++++++++++                                                         ",
"                                                   ++#),%+++++++++++++++                                                        ",
"                                                  +++;)=#.++++++++++++++                                                        ",
"                                                  ++.,>#.+++++++++++++++                                                        ",
"                                                 +++-,$..++++++++++++++++                                                       ",
"                                                 ++.'*..+++++++++++++++++                                                       ",
"                                                 +.->...+++++.++++++++++++                                                      ",
"                                                ++.)...++++..#.+++++++++++                                                      ",
"                                                +.*>...+ +++..#.++++++++++                                                      ",
"                                               ++.'...++ ++...#++++++++++++                                                     ",
"                                               ++$'...+   +....#+++++++++++                                                     ",
"                                              +..,$..++   .....#++++++++++++                                                    ",
"                                              ++.)....     ....#.+++++++++++                                                    ",
"                                              +.;=..++     .....#@+++++++++++                                                   ",
"                                             ++.)...++      ....#.+++++++++++                                                   ",
"                                             +.*>..++       ....+#+++++++++++                                                   ",
"                                            ++.'...++       .....#++++++++++++                                                  ",
"                                            +.%,..++         ....#++++++++++++                                                  ",
"                                           ++.,#..++         .....#.+++++++++++                                                 ",
"                                           +..)..++           ..+.#.+++++++++++                                                 ",
"                                           +.;*..++           ..+..#.+++++++++++                                                ",
"                                          ...)..+++            ....#@+++++++++++                                                ",
"                                          +.=;...+             +...#.+++++++++++                                                ",
"                                         ...)..+++             .....#@+++++++++++                                               ",
"                                         +.&,..++               ..+.#.+++++++++++                                               ",
"                                        +..,..+++               .....#++++++++++++                                              ",
"                                        +.#)..++                 +...#@+++++++++++                                              ",
"                                       +..>&.+++                 .....#+++++++++++                                              ",
"                                       +..)..+++                 ...+.#++++++++++++                                             ",
"                                       ..--.+++                   ....#++++++++++++                                             ",
"                                      +..)..+++                   .+.+.#.+++++++++++                                            ",
"                                      ..&>.+++                     .++.#.+++++++++++                                            ",
"                                     +..'...++                     .++..#.+++++++++++                                           ",
"                                     ..$'.+++                       ....#.+++++++++++                                           ",
"                                    +..>%.+++                       +..+.#.++++++++++                                           ",
"                                    ...).+++                        .....#++++++++++++                                          ",
"                                    ..;=.+++                         ....#.+++++++++++                                          ",
"                                   ...).++++                         .....#++++++++++++                                         ",
"                                   ..=>.+++                           ....#++++++++++++                                         ",
"                                  .+.,.++++                           .....#+++++++++++                                         ",
"                                  .+%,.+++                            .....#.+++++++++++                                        ",
"                                 ...,#.+++                             ....#++++++++++++                                        ",
"                                 .+.)..++                              .....#.+++++++++++                                       ",
"                                 ..;=.+++                               ....#++++++++++++                                       ",
"                                ++.).++++                               .....#++++++++++++                                      ",
"                                ..=;++++                                 ....#.+++++++++++                                      ",
"                               ++.).++++                                 ....##.++++++++++                                      ",
"                               ..&'.+++                                  ..+..#++++++++++++                                     ",
"                              ++.,&++++                                   .+.#%.+++++++++++                                     ",
"                              +..!.+++                                    +..$&#++++++++++++                                    ",
"                             ++.=).+++                                     ..*=#.+++++++++++                                    ",
"                             +..,>.+++                                     .=>-$++++++++++++                                    ",
"                             +.%!=+++++++++++++++++++++++++++++++++++++++++='';$.++++++++++++                                   ",
"                            +..>'$+++++++++++++++++++++++++++++++++++++++.;!!,=#+++++++++++++                                   ",
"                            +.#'=..+++++++++++++++++++++++++++++++++++#&>)!)=$..++++++++++++++                                  ",
"                           ...;>.++++++++++++++++++++++++++++++++++++.........++++++++++++++++                                  ",
"                           +.#'...++++++++++++++++++++++++++++++++++++.+......+++++++++++++++++                                 ",
"                          ...;-.+++++++++++++++++++++++++++++++++++++.+......++++..@+++++++++++                                 ",
"                          +..)...++++++++++++++++++++++++++++++++++++.+......++++++.+++++++++++                                 ",
"                          ..;-.+++                                            +....#++++++++++++                                ",
"                         +..)..+++                                             ++..#.+++++++++++                                ",
"                         ..*>.+++                                              +...+#++++++++++++                               ",
"                        +..,..+++                                               ....#.+++++++++++                               ",
"                        ..%'.+++                                                ....+#+++++++++++                               ",
"                       +..>$..++                                                .....#++++++++++++                              ",
"                       ...).+++                                                  ....#++++++++++++                              ",
"                       ..;*.+++                                                  .....#.+++++++++++                             ",
"                      ...).++++                                                   ..+.#@+++++++++++                             ",
"                      ..=;.+++                                                    ..+...++++++++++++                            ",
"                     ...).++++                                                    .....#++++++++++++                            ",
"                     ..%,..++                                                      +...##+++++++++++                            ",
"                    ...,+++++                                                      .....#++++++++++++                           ",
"                    ..#'..++                                                        ....#@+++++++++++                           ",
"                    ..;*.+++                                                        .....#++++++++++++                          ",
"                   +..).++++                                                         ..+.#++++++++++++                          ",
"                   ..=;++++                                                          ....##.+++++++++++                         ",
"                  +..).++++                                                          .+...#++++++++++++                         ",
"                  ..&'.+++                                                            ....#++++++++++++                         ",
"                 +..,$++++                                                            ....$#.+++++++++++                        ",
"                 ..$!.+++                                                              ...##.+++++++++++                        ",
"                +..>;++++                                                              ..+.%+.+++++++++++                       ",
"                ..#!.++++                                                              .+..%#++++++++++++                       ",
"               +..;).++++                                                              .+..&#+++++++++++++                      ",
"               ..%)-.+++                                                                ...&$+++++++++++++                      ",
"              +..>!#++++                                                                ...*%.+++++++++++++                     ",
"             +..=!,+++++                                                                .+.=&+++++++++++++++                    ",
"             +.+))=+++++                                                                .++;&+++++++++++++++                    ",
"            +..,!;%+++++                                                                ..&>&++++++++++++++++                   ",
"           ++.-!,*#++++++                                                              ++.>>%+++++++++++++++++                  ",
"          ++.&!!;$++++++++                                                             ..-);$++++++++++++++++++                 ",
"         +++&!!;%..++++++++                                                           ++%!)=#++++++++++++++++++++               ",
"       +++#,!,%..++++++++++++                                                       ++.=),#.+++++++++++++++++++++++             ",
"   ++++*,!,$...+..++++++++++++++++                                              ++++*>,*....++++++++++++++++++++++++++          ",
" ++&>!)=....+++.+++++++++++++++++++++                                       @%;,!!!)=..++..++++++++++++++++++++++++++++++       ",
" ++......++.+++.+++++++++++++++++++++                                       .........++++..++++++++++++++++++++++++++++++       ",
" ....+..++.+++.++++++++++++++++++++++                                       ++....+.++++..+++++++++++++++++++++++++++++++       ",
"                                                                                                                                ",
"                                                                                                                                ",
"                                                                                                                                ",
"                                                                                                                                ",
"                                                                                                                                ",
"                                                                                                                                ",
"                                                                                                                                ",
"                                                                                                                                ",
"                                                                                                                                "};
