/* XPM */
char * multiline_xpm[] = {
"128 128 17 1",
" 	c None",
".	c #000000",
"+	c #2F0000",
"@	c #460000",
"#	c #5B0000",
"$	c #670000",
"%	c #760100",
"&	c #800000",
"*	c #8B1315",
"=	c #434542",
"-	c #9A2F2F",
";	c #A14545",
">	c #626562",
",	c #B05F5D",
"'	c #7E807D",
")	c #C48686",
"!	c #D6ADAD",
"                                                                                                                                ",
"                                                                                                                                ",
"                                                                                                                                ",
"                                                                                                                                ",
"                                                                                              ....                              ",
"                                                                                             .....            %                 ",
"                                                                                            ......        %%%%%%%%$             ",
"                                                                                           ..'....      %%&%&%&%%%%$$           ",
"                                                                                          ..'....      %%%&&&&&%%%&$$$          ",
"                                                                                         ..'....      %%&&;))),-&%%&%$$         ",
"                                                                                        ..'....       %&&)!!),;-*&%%$$$         ",
"                                                                                       ..'....       %%&,!!,;*&**&&%&$$#        ",
"                                                                                      ..'....        %%&!!,**&&&&&&%%$$$        ",
"                                                                                     ..'....         &%&!)-*&&&&&&&&&%$#@       ",
"                                                                                    ..'....         $%%&),&%&&&&&&&&%%$$@       ",
"                                                                                   ..'....          %%%&,;&&&&&&&&&%%%$##       ",
"                                                                                  ..'....           %%%%;-&&&&&&&&&&%%$#@       ",
"                                                                                 ..'....             %%&&**&&&&&&&&&%$##@       ",
"                                                                                ..'....              %%%&&&&&&&&&&%&%$##        ",
"                                                                               ..'....               $$%&%&&&&&&&&&%$$$@        ",
"                                                                              ..'....                 $$&%%&&&%%%%%%$#$@        ",
"                                                                             ..'....                  $$$%%%%%&%%%%###@         ",
"                                                                            ..'....                  ..+$$$%%%%%$$$##@          ",
"                                                                           ..'....                  ....+$#$$$$$$###@           ",
"                                                                          ..'....                  ......@######$##+            ",
"                                                                         ..'....                  ..=...    @@#@@+              ",
"                                                                        ..'....                  ..'....                        ",
"                                                                       ..'....                  ..'....                         ",
"                                                                      ..'....                  ..>....                ....      ",
"                                                                     ..'....                  .......                .....      ",
"                                                                    ..'....                   ......                ......      ",
"                                                                   ..'....                    .....                ..>....      ",
"                                                                  ..'....                      ...                ..'....       ",
"                                                                 ..'....                                         ..'....        ",
"                                                                ..'....                                         ..'....         ",
"                                                               ..'....                                         ..'....          ",
"                                                              ..'....                  ..                     ..'....           ",
"                                                             ..'....                  ....                   ..'....            ",
"                                                            ..'....                  ......                 ..'....             ",
"                                                           ..'....                  ..=...                 ..'....              ",
"                                                          ..'....                  ..'....                ..'....               ",
"                                                         ..'....                  ..'....                ..'....                ",
"                                                        ..'....                  ..>....                ..'....                 ",
"                                                       ..'....                  .......                ..'....                  ",
"                                                      ..'....                   ......                ..'....                   ",
"                                                     ..'....                    .....                ..'....                    ",
"                                                    ..'....                      ...                ..'....                     ",
"                                                   ..'....                                         ..'....                      ",
"                                                  ..'....                                         ..'....                       ",
"                                                 ..'....                                         ..'....                        ",
"                                                ..'....                  ..                     ..'....                         ",
"                                               ..'....                  ....                   ..'....                          ",
"                                              ..'....                  ......                 ..'....                           ",
"                                             ..'....                  ..=...                 ..'....                            ",
"                                            ..'....                  ..'....                ..'....                             ",
"                                           ..'....                  ..'....                ..'....                              ",
"                                          ..'....                  ..>....                ..'....                               ",
"                                         ..'....                  .......                ..'....                                ",
"                                        ..'....                   ......                ..'....                                 ",
"                                       ..'....                    .....                ..'....                                  ",
"                                      ..'....                      ...                ..'....                                   ",
"                                     ..'....                                         ..'....                                    ",
"                                    ..'....                                         ..'....                                     ",
"                                   ..'....                                         ..'....                                      ",
"                                  ..'....                  ..                     ..'....                                       ",
"                                 ..'....                  ....                   ..'....                                        ",
"                                ..'....                  ......                 ..'....                                         ",
"                               ..'....                  ..=...                 ..'....                                          ",
"                              ..'....                  ..'....                ..'....                                           ",
"                             ..'....                  ..'....                ..'....                                            ",
"                            ..'....                  ..>....                ..'....                                             ",
"                           ..'....                  .......                ..'....                                              ",
"                          ..'....                   ......                ..'....                                               ",
"                         ..'....                    .....                ..'....                                                ",
"                        ..'....                      ...                ..'....                                                 ",
"                       ..'....                                         ..'....                                                  ",
"                      ..'....                                         ..'....                                                   ",
"                     ..'....                                         ..'....                                                    ",
"                    ..'....                  ..                     ..'....                                                     ",
"                   ..'....                  ....                   ..'....                                                      ",
"                  ..'....                  ......                 ..'....                                                       ",
"                 ..'....                  ..=...                 ..'....                                                        ",
"                ..'....                  ..'....                ..'....                                                         ",
"               ..'....                  ..'....                ..'....                                                          ",
"              ..'....                  ..>....                ..'....                                                           ",
"             ..'....                  .......                ..'....                                                            ",
"            ..'....                   ......                ..'....                                                             ",
"           ..'....                    .....                ..'....                                                              ",
"          ..'....                      ...                ..'....                                                               ",
"         ..'....                                         ..'....                                                                ",
"        ..'....                                         ..'....                                                                 ",
"       ..'....                                         ..'....                                                                  ",
"      ..'....                  ..                     ..'....                                                                   ",
"     ..'....                  ....                   ..'....                                                                    ",
"    ..'....                  ......                 ..'....                                                                     ",
"   ..>....                  ..=...                 ..'....                                                                      ",
"  .......                  ..'....                ..'....                                                                       ",
"  ......                  ..'....                ..'....                                                                        ",
"  .....                  ..>....                ..'....                                                                         ",
"   ...         $%$      .......                ..'....                                                                          ",
"            %%%%&%%$$   ......                ..'....                                                                           ",
"          $%%&%%%%%&%$$ .....                ..'....                                                                            ",
"         %%%%&&&&%%%%$$$ ...                ..'....                                                                             ",
"        $%&&,))),-&&%%%$$                  ..'....                                                                              ",
"        &%&)!!),;--&&%$$$                 ..'....                                                                               ",
"       %%%,!!,-**&&&&%%$$#               ..'....                                                                                ",
"       %&&!!,-*&&&&&&&%$$$              ..'....                                                                                 ",
"       %%&!)-&&&&&&&&%&%$#@            ..'....                                                                                  ",
"      %%%&),*&&&&&&&&&%%$$@           ..'....                                                                                   ",
"      %%%&,;&&&&&&&&&%%%$#@          ..'....                                                                                    ",
"      %%%%;-&&&&&&&&&&%%$$@         ..'....                                                                                     ",
"       %%&&-&&&&&&&&&&%$$#@        ..'....                                                                                      ",
"       %%%&&&&&&&&&&&&%$##        ..'....                                                                                       ",
"       $$%%%%&&&&&&%%%$$$@       ..'....                                                                                        ",
"        %$%%%&&&&&&%%%$##@      ..'....                                                                                         ",
"        $$$%%%%%%%%%$$##@      ..'....                                                                                          ",
"         $$%$%%%%%%$$$#@      ..'....                                                                                           ",
"          $$$$$$$$####@      ..'....                                                                                            ",
"            ##$##$##@@      ..>....                                                                                             ",
"              @@@@@+       ..>....                                                                                              ",
"                          .......                                                                                               ",
"                          ......                                                                                                ",
"                          .....                                                                                                 ",
"                           ...                                                                                                  ",
"                                                                                                                                ",
"                                                                                                                                ",
"                                                                                                                                ",
"                                                                                                                                "};
