/* XPM */
char * new_xpm[] = {
"128 128 17 1",
" 	c None",
".	c #000000",
"+	c #212220",
"@	c #2D302E",
"#	c #424442",
"$	c #646664",
"%	c #929591",
"&	c #B9BCB9",
"*	c #A4CBCC",
"=	c #C1C5C2",
"-	c #CDD2CF",
";	c #DBDEDB",
">	c #C0E8E9",
",	c #EDF0EC",
"'	c #CFFFFF",
")	c #F2FFFF",
"!	c #FCFEFB",
"                                                                                                                                ",
"                                                                                                                                ",
"                                                                                                                                ",
"                                                                                                                                ",
"                                                                                                                                ",
"                                                                                                                                ",
"                                                                                                                                ",
"                                                                                                                                ",
"                                                                                                                                ",
"                                                                                                                                ",
"                                                                                                                                ",
"                                                                                                                                ",
"                     ..............................................................                                             ",
"                     ................................................................                                           ",
"                     ...@...+@#############################################@+.........                                          ",
"                     ..#%..................................................#$%$#.......                                         ",
"                     ..@......................................................##@.......                                        ",
"                     ....................................................................                                       ",
"                     ....@-=&&&&=&=&=&=&=&=&=&=&=&=&=&=&=&=&=&=&=&=&=&==&=&=#.............                                      ",
"                     ....@==&&&=&=&=&=&=&=&=&=&=&=&=&=&=&=&=&=&=&=&=&=&&=&=&$.....+........                                     ",
"                     ....@=&&&&&&=========&===&=============&===============#.....%.........                                    ",
"                     ....@==&&==-----;----;--;-;---;=--;----;--;---;--;-----$.....=%.........                                   ",
"                     .@..@====;;;;;;;;;;;;;;;;;;;;;;;;;;;;;;;;;;;;;;;;;;;;;;$.....&&%+........                                  ",
"                     .+..@===--;;,),,,),,,!;),,,,,,,),,,),,),,!;),,,),,),,,,$.+...&=&%+........                                 ",
"                     .@..@===-;;),,)!,,),)!,!),),))!,)),,)!,)),!,)),,),!))!,$.@...&&=&%+........                                ",
"                     .@..@===;;,,)!!))!)!!)!,)!)!,!!!,!)!!),!!!)!,!)!!)!,!!!$.@...=&==&&+........                               ",
"                     .@..@-==;;),!!!!!!!!!!)!!!!)!)!)!!!!!!)!)!!)!!!!!!)!!!!$.@...=&=-=-&.........                              ",
"                     .@..@===-;,!)!)!!)!!)!!!!!!!!!!!!!)!)!!!!!!!!!)!)!!)!!!$.@...&===;;;&+........                             ",
"                     .@..@-==;;,)!!!!!!)!!)!!)!!!)!)!)!!!!)!)!)!)!!!!!!!!!!!$.@...=&=-;;;;&+........                            ",
"                     .@..@==--;,,!!)!)!!!!!)!!!!!!!!!!!!)!!!!!!!!!)!)!)!)!!!$.@...===-;,,,;&+........                           ",
"                     .@..@-==;;))!!!!!)!)!!!)!)!)!)!)!)!!)!)!)!)!!!!!!!!!!)!$.#...&==;;,,!,;&.........                          ",
"                     .@..@===-;;!!)!)!!!!!)!!!!!!!!!!!!!!!!!!!!!!)!)!!)!!!!!$.@...=&=-;;,!!,,&+........                         ",
"                     .@..@-=-;;,)!!!!)!)!!!!!)!!!)!!)!)!)!)!)!)!!!!!)!!!!!!!$.#...===-;,),!,,,&+........                        ",
"                     .+..@===;;,,!!)!!!!!!)!!!!!!!!!!!!!!!!!!!!!)!)!!!)!!!!!$.@...=&=;;;!)!!!,;&+..#.....                       ",
"                     .@..@===;;))!!!)!)!)!!!)!!!)!!)!)!)!)!)!)!!!!!)!!!!!!!!$.@...=&=-;,),!!,!,;&+.#$.....                      ",
"                     .@..@===-;,,!)!!!!!!!!!!!!!!!!!!!!!!!!!!!!)!)!!!)!!!!!!$..#..===;;,!!)!)!!,;=.@$@.....                     ",
"                     .@..@-=--;),)!!!)!!!!!!!!!!!!!)!!)!!!!!!!!!!!!!!!!!!!!!$..$..%%%&&&&=======&=&$$#......                    ",
"                     .+..@===;;,!!!!!!!!!!!!!!!!!!!!!!!!!!!!!!!!)!!!)!!)!!!!$...................#$$#@........                   ",
"                     .@..@-==;;,)!!!)!!!!!!!!!!!)!!!!)!!!!!!!!!!!!!!!!!!!!!!&.........+++++@@#$%$#...........                   ",
"                     .@..@=&--;;))))))))))))))))))))))))))))))))))))))))))))!................................                   ",
"                     .@..@****>>>''''''''''''''''''''''''''''''''''''''''''''#...............................                   ",
"                     .@..@==--,,!!!!!!!!!!!!!!!!!!!!!!!!!!!!!!!!!!!!!!!!!!!!!$@@@@@+++@@@+@@+@@@@@@@@+++.....                   ",
"                     .@..@===;;,!!!!!!!!!!!!!!!!!!!!!!!!!!!!!!!!!!!!!!!!!!!!!!!,;===&&&&===============&.....                   ",
"                     .+..@===-;;))))))))))))))))))))))))))))))))))))))))))))))),;--==================&&&.....                   ",
"                     .@..@****>>>'''''''''''''''''''''''''''''''''''''''''''''>>>>**********************.....                   ",
"                     .@..@===;;)!!!!!!!!!!!!!!!!!!!!!!!!!!!!!!!!!!!!!!!!!!!!!!!!,;;;-----;-;-----;-----=.....                   ",
"                     .@..@-==;;,,!!!!!!!!!!!!!!!!!!!!!!!!!!!!!!!!!!!!!!!!!!!!!!!,!;;;;;,;;;;,;;;;;;;;;;;.....                   ",
"                     .@..@===-;,))))))))))))))))))))))))))))))))))))))))))))))))))))),);),),,);),),),,,;.....                   ",
"                     .@..@****>>>'''''''''''''''''''''''''''''''''''''''''''''''>'>>'>'>'>'>'>'>'>>''>'>.....                   ",
"                     .@..@===;;,!!!!!!!!!!!!!!!!!!!!!!!!!!!!!!!!!!!!!!!!!!!!!!!!!!!!!!!!!!!!!!!!!!!!!!!,.....                   ",
"                     .@..@-==;;,!!!!!!!!!!!!!!!!!!!!!!!!!!!!!!!!!!!!!!!!!!!!!!!!!!!!!!!!!!!!!!!!!!!!!!!,.....                   ",
"                     .+..@==--;,)))))))))))))))))))))))))))))))))))))))))))))))))))))))))))))))))))))))!.....                   ",
"                     .@..@****>>>''''''''''''''''''''''''''''''''''''''''''''''''''''''''''''''''''''''>.....                   ",
"                     .@..@===;;,!!!!!!!!!!!!!!!!!!!!!!!!!!!!!!!!!!!!!!!!!!!!!!!!!!!!!!!!!!!!!!!!!!!!!!!!.....                   ",
"                     .@..@===;;,!!!!!!!!!!!!!!!!!!!!!!!!!!!!!!!!!!!!!!!!!!!!!!!!!!!!!!!!!!!!!!!!!!!!!!!,.....                   ",
"                     .@..@==--;;)))))))))))))))))))))))))))))))))))))))))))))))))))))))))))))))))))))))!.....                   ",
"                     .@..@****>>'>'''''''''''''''''''''''''''''''''''''''''''''''''''''''''''''''''''''>.....                   ",
"                     .+..@===;;,!!!!!!!!!!!!!!!!!!!!!!!!!!!!!!!!!!!!!!!!!!!!!!!!!!!!!!!!!!!!!!!!!!!!!!!!.....                   ",
"                     .@..@===;;,,!!!!!!!!!!!!!!!!!!!!!!!!!!!!!!!!!!!!!!!!!!!!!!!!!!!!!!!!!!!!!!!!!!!!!!,.....                   ",
"                     .@..@===-;,!))))))))))))))))))))))))))))))))))))))))))))))))))))))))))))))))))))))!.....                   ",
"                     .@..@****>>'''''''''''''''''''''''''''''''''''''''''''''''''''''''''''''''''''''''>.....                   ",
"                     .@..@==--;,!!!!!!!!!!!!!!!!!!!!!!!!!!!!!!!!!!!!!!!!!!!!!!!!!!!!!!!!!!!!!!!!!!!!!!!!.....                   ",
"                     .@..@-==;;,,!!!!!!!!!!!!!!!!!!!!!!!!!!!!!!!!!!!!!!!!!!!!!!!!!!!!!!!!!!!!!!!!!!!!!!,.....                   ",
"                     .+..@==--;,)))))))))))))))))))))))))))))))))))))))))))))))))))))))))))))))))))))))!.....                   ",
"                     .@..@****>>>''''''''''''''''''''''''''''''''''''''''''''''''''''''''''''''''''''''>.....                   ",
"                     .@..@===;;,!!!!!!!!!!!!!!!!!!!!!!!!!!!!!!!!!!!!!!!!!!!!!!!!!!!!!!!!!!!!!!!!!!!!!!!!.....                   ",
"                     .@..@===;;),!!!!!!!!!!!!!!!!!!!!!!!!!!!!!!!!!!!!!!!!!!!!!!!!!!!!!!!!!!!!!!!!!!!!!!,.....                   ",
"                     .@..@===-;;)))))))))))))))))))))))))))))))))))))))))))))))))))))))))))))))))))))))!.....                   ",
"                     .@..@****>>'''''''''''''''''''''''''''''''''''''''''''''''''''''''''''''''''''''''>.....                   ",
"                     .@..@==-;;,,!!!!!!!!!!!!!!!!!!!!!!!!!!!!!!!!!!!!!!!!!!!!!!!!!!!!!!!!!!!!!!!!!!!!!!!.....                   ",
"                     .@..@===;;!,!!!!!!!!!!!!!!!!!!!!!!!!!!!!!!!!!!!!!!!!!!!!!!!!!!!!!!!!!!!!!!!!!!!!!!,.....                   ",
"                     .@..@===-;,)))))))))))))))))))))))))))))))))))))))))))))))))))))))))))))))))))))))!.....                   ",
"                     .@..@****>>>''''''''''''''''''''''''''''''''''''''''''''''''''''''''''''''''''''''>.....                   ",
"                     .@..@===;;,!!!!!!!!!!!!!!!!!!!!!!!!!!!!!!!!!!!!!!!!!!!!!!!!!!!!!!!!!!!!!!!!!!!!!!!!.....                   ",
"                     .@..@-==;;,!!!!!!!!!!!!!!!!!!!!!!!!!!!!!!!!!!!!!!!!!!!!!!!!!!!!!!!!!!!!!!!!!!!!!!!,.....                   ",
"                     .+..@==--;,)))))))))))))))))))))))))))))))))))))))))))))))))))))))))))))))))))))))!.....                   ",
"                     .@..@****>>>''''''''''''''''''''''''''''''''''''''''''''''''''''''''''''''''''''''>.....                   ",
"                     .@..@===;;,!!!!!!!!!!!!!!!!!!!!!!!!!!!!!!!!!!!!!!!!!!!!!!!!!!!!!!!!!!!!!!!!!!!!!!!!.....                   ",
"                     .@..@===;;,!!!!!!!!!!!!!!!!!!!!!!!!!!!!!!!!!!!!!!!!!!!!!!!!!!!!!!!!!!!!!!!!!!!!!!!,.....                   ",
"                     .@..@==--;;)))))))))))))))))))))))))))))))))))))))))))))))))))))))))))))))))))))))!.....                   ",
"                     .+..@****>>>''''''''''''''''''''''''''''''''''''''''''''''''''''''''''''''''''''''>.....                   ",
"                     .@..@===;;)!!!!!!!!!!!!!!!!!!!!!!!!!!!!!!!!!!!!!!!!!!!!!!!!!!!!!!!!!!!!!!!!!!!!!!!!.....                   ",
"                     .@..@===;;,,!!!!!!!!!!!!!!!!!!!!!!!!!!!!!!!!!!!!!!!!!!!!!!!!!!!!!!!!!!!!!!!!!!!!!!,.....                   ",
"                     .@..@===-;,)))))))))))))))))))))))))))))))))))))))))))))))))))))))))))))))))))))))!.....                   ",
"                     .@..@****>>>''''''''''''''''''''''''''''''''''''''''''''''''''''''''''''''''''''''>.....                   ",
"                     .@..@-==;;,!!!!!!!!!!!!!!!!!!!!!!!!!!!!!!!!!!!!!!!!!!!!!!!!!!!!!!!!!!!!!!!!!!!!!!!!.....                   ",
"                     .@..@===;;,!!!!!!!!!!!!!!!!!!!!!!!!!!!!!!!!!!!!!!!!!!!!!!!!!!!!!!!!!!!!!!!!!!!!!!!,.....                   ",
"                     .@..@==--;,)))))))))))))))))))))))))))))))))))))))))))))))))))))))))))))))))))))))!.....                   ",
"                     .@..@****>>>''''''''''''''''''''''''''''''''''''''''''''''''''''''''''''''''''''''>.....                   ",
"                     .+..@===;;,!!!!!!!!!!!!!!!!!!!!!!!!!!!!!!!!!!!!!!!!!!!!!!!!!!!!!!!!!!!!!!!!!!!!!!!!.....                   ",
"                     .@..@===;;,!!!!!!!!!!!!!!!!!!!!!!!!!!!!!!!!!!!!!!!!!!!!!!!!!!!!!!!!!!!!!!!!!!!!!!!,.....                   ",
"                     .@..@===;;;)))))))))))))))))))))))))))))))))))))))))))))))))))))))))))))))))))))))!.....                   ",
"                     .@..@****>>'>'''''''''''''''''''''''''''''''''''''''''''''''''''''''''''''''''''''>.....                   ",
"                     .+..@===;;,!!!!!!!!!!!!!!!!!!!!!!!!!!!!!!!!!!!!!!!!!!!!!!!!!!!!!!!!!!!!!!!!!!!!!!!!.....                   ",
"                     .@..@===;;,,!!!!!!!!!!!!!!!!!!!!!!!!!!!!!!!!!!!!!!!!!!!!!!!!!!!!!!!!!!!!!!!!!!!!!!,.....                   ",
"                     .@..@==--;,!))))))))))))))))))))))))))))))))))))))))))))))))))))))))))))))))))))))!.....                   ",
"                     .@..@****>>'>'''''''''''''''''''''''''''''''''''''''''''''''''''''''''''''''''''''>.....                   ",
"                     .+..@===;;,!!!!!!!!!!!!!!!!!!!!!!!!!!!!!!!!!!!!!!!!!!!!!!!!!!!!!!!!!!!!!!!!!!!!!!!!.....                   ",
"                     .@..@-==;;),!!!!!!!!!!!!!!!!!!!!!!!!!!!!!!!!!!!!!!!!!!!!!!!!!!!!!!!!!!!!!!!!!!!!!!,.....                   ",
"                     .@..@===-;,)))))))))))))))))))))))))))))))))))))))))))))))))))))))))))))))))))))))!.....                   ",
"                     .@..@****>>>''''''''''''''''''''''''''''''''''''''''''''''''''''''''''''''''''''''>.....                   ",
"                     .@..@===;;,!!!!!!!!!!!!!!!!!!!!!!!!!!!!!!!!!!!!!!!!!!!!!!!!!!!!!!!!!!!!!!!!!!!!!!!!.....                   ",
"                     .@..@===;;,!!!!!!!!!!!!!!!!!!!!!!!!!!!!!!!!!!!!!!!!!!!!!!!!!!!!!!!!!!!!!!!!!!!!!!!,.....                   ",
"                     .+..@===-;,)))))))))))))))))))))))))))))))))))))))))))))))))))))))))))))))))))))))!.....                   ",
"                     .@..@****>>>''''''''''''''''''''''''''''''''''''''''''''''''''''''''''''''''''''''>.....                   ",
"                     .@..@-==;;,!!!!!!!!!!!!!!!!!!!!!!!!!!!!!!!!!!!!!!!!!!!!!!!!!!!!!!!!!!!!!!!!!!!!!!!!.....                   ",
"                     .@..@===;;),!!!!!!!!!!!!!!!!!!!!!!!!!!!!!!!!!!!!!!!!!!!!!!!!!!!!!!!!!!!!!!!!!!!!!!,.....                   ",
"                     .@..@-==-;,))))))))))))))))))))))))))))))))))))))))))))))))))))))))))))))))))))))),.+...                   ",
"                     .@..@****>>>''''''''''''''''''''''''''''''''''''''''''''''''''''''''''''''''''''''>.@...                   ",
"                     .@..@===;;,!!!!!!!!!!!!!!!!!!!!!!!!!!!!!!!!!!!!!!!!!!!!!!!!!!!!!!!!!!!!!!!!!!!!!!!,.$...                   ",
"                     .+#.@===;;),!!!!!!!!!!!!!!!!!!!!!!!!!!!!!!!!!!!!!!!!!!!!!!!!!!!!!!!!!!!!!!!!!!!!!!,.%...                   ",
"                     ..$.@==--;,!!!!!!!!!!!!!!!!!!!!!!!!!!!!!!!!!!!!!!!!!!!!!!!!!!!!!!!!!!!!!!!!!!!!!!!,.$...                   ",
"                     ..%.+##$#$$$$$$$$$$$$$$$$$$$$$$$$$$$$$$$$$$$$$$$$$$$$$$$$$$$$$$$$$$$$$$$$$$$$$$$$$$$#...                   ",
"                     ...+.............................................................................$$%....                   ",
"                     ........+@#####################################################################$$#......                   ",
"                     ........................................................................................                   ",
"                     ........................................................................................                   ",
"                       ....................................................................................                     ",
"                                                                                                                                ",
"                                                                                                                                ",
"                                                                                                                                ",
"                                                                                                                                ",
"                                                                                                                                ",
"                                                                                                                                ",
"                                                                                                                                ",
"                                                                                                                                ",
"                                                                                                                                ",
"                                                                                                                                "};
