/* XPM */
char * offset_xpm[] = {
"128 128 17 1",
" 	c None",
".	c #000000",
"+	c #490001",
"@	c #10120F",
"#	c #5C0100",
"$	c #680002",
"%	c #740200",
"&	c #800000",
"*	c #1D1F1D",
"=	c #262825",
"-	c #911F1D",
";	c #383A37",
">	c #9F3D3C",
",	c #555755",
"'	c #B26363",
")	c #797B78",
"!	c #BE7F7E",
"                                                                                                                                ",
"                                                                                                                                ",
"                                                                                                                                ",
"                                                                                                                                ",
"                                                                                                                                ",
"                                                                                                                                ",
"                                                                                                                                ",
"                                                                                                                                ",
"                                                                                                                                ",
"                                                                                                                                ",
"                                                                                                                                ",
"                                                                                                                                ",
"                                                                                                                                ",
"                                                                                                                                ",
"                                                                                                                                ",
"                                                                                                                                ",
"                                                                                                                                ",
"                                                        ..............                                                          ",
"                                                     ....................                                                       ",
"                                                  ......=,,,;;====;;*.......                                                    ",
"                                                ....@,,=..............;=......                                                  ",
"                                              ....;);....................=......                                                ",
"                                             ...;)=........................*.....                                               ",
"                                           ...=);........            ........@.....                                             ",
"                                          ...)).......                  ............                                            ",
"                                         ..@)*......                      ...........                                           ",
"                                        ..;)......                          ..........                                          ",
"                                       ..;).....                              .........                                         ",
"                                      ..;).....                                .........                                        ",
"                                     ..@)....                                    ........                                       ",
"                                     ..)....                                      ...@...                                       ",
"                                    .@,=...                                        .......                                      ",
"                                   ..*)....                                        ........                                     ",
"                                   ..)....                                          ...@...                                     ",
"                                  ..;,...                                            .......                                    ",
"                                  ..)....                                            ...@...                                    ",
"                                 ..*,...                                              .......                                   ",
"                                 ..,....                                              ...@...                                   ",
"                                 ..,@..                    %%%%%%                      ......                                   ",
"                                ..;@...                 %%&&%&&%%%$$                   .......                                  ",
"                                ..,....               %&&&&&--&&&&&%$$                  ......                                  ",
"                                ..,...               &&%-'!>-&&&-&&%%%$                 ......                                  ",
"                                ..@...              %&&'!&%%%%%%%%&&%%$$                ......                                  ",
"                                .*....             %&&!>%%$$###$%%%&-&%$$                ......                                 ",
"                               ..;...              %%!>%$$##++++##$&%&&$$#               ......                                 ",
"                               ..,...             %&>'&$#+        +$&&%&$#               ..*...                                 ",
"                               ..,@..             %&'&$$#          #%%&%$$                .;...                                 ",
"                               .=,...            &%>>%$#            $%&&%$#               .;...                                 ",
"                               .,;...            %&'%%#+            #%%&%$#               .=,..                                 ",
"                               .)....            %&'%$#              $&&&$$+              ..)...                                ",
"                            ...,)....           %%--%#+              $%&&%$+              ..,......                             ",
"                         ....=)).....           %%>&%#                %&-%$#             ............                           ",
"                       ....=)).......           &%'&$#                %%-%$#             ..............                         ",
"                     ....;);........            %&'%$#                %&>%$#              ........@......                       ",
"                    ...,)=.........             %&>%$#                %&-&$#               .........@.....                      ",
"                  ...=);........                %%-&$#                %%-%$$                  ........@.....                    ",
"                 ...,).......                   &&-%$#                %%&&$#                     ............                   ",
"                ..*)*......                     %%&%$+                %%&%$#                       ...........                  ",
"               ..;)......                       %%&%$+                %%&&$#                         ..........                 ",
"              ..;).....                         %&&%$+                 %&&$#                           .........                ",
"             ..;).....                          %%-&$+                 &-%$#                            .........               ",
"            ..@)....                            %&-%$+                 %-&$+                              ........              ",
"            ..)....                             %%>%$+                 %>&%#                               ...@...              ",
"           .@,=...                              %&>%$+                 %>&$#                                .......             ",
"          ..*)....                              %&'%$+                 &>%$#                                ........            ",
"          ..)....                               %-'%$+                 %'&%#                                 ...@...            ",
"         ..;,...                                &'>%$+                 &>>%#                                  .......           ",
"         ..)....                                %!&%#+                 %&!&$                                  ...@...           ",
"        ..*,...               %%%%%%%%%%%%%%%&&-''%$$+                %%%>&%%%%%%%%%%%%%%%%%%%                 .......          ",
"        ..,....            %&%&&&&&&&------>>!!!-&%$#                  %%&&&&&&&------->--&&%%%$$              ...@...          ",
"        ..,@..            &&&>''-&&&&&&&-&&&&&&%%$$$#                  %%%%%%%&&&&-&-&&&&&---&&&%$              ......          ",
"       ..;@...           %&-!>&%%%%$%$$%%$%$$$$$$$###                  $$$$$%%$%$$%$%%$%%%%%&&-%%%$             .......         ",
"       ..,....          &%'!&%$$###################+                    $#################$$$%&&&&%$             ......         ",
"       ..,...          &&''%$$#                                                             +$$%&%%$$            ......         ",
"       ..@...         %&-!%%#+                                                                #$&&&%$#           ......         ",
"       .*....         %&!&$##                                                                  #%%&&$$            ......        ",
"      ..;...         &%>>%$#                                                                    $%&&%$#           ......        ",
"      ..;...         %&'&$#                                                                      %%&%$#           ..@...        ",
"      ..;...         %&'&$#                                                                      $%-%$#            .*...        ",
"      ..;...         %%>%$                                                                        &&&%#+           .=...        ",
"      ..;...         &%>%$                                                                        %-&%#+           .;...        ",
"      ..,...         %&-%#                                                                        %-&%#+           .,...        ",
"      ..;...         %&>&$+                                                                       &>&%#+           .,...        ",
"      ..;...         %&>%$#                                                                      %%'%%#+          .@,...        ",
"      ..=...         &%>%$#                                                                      %%!%$#+          ..,@..        ",
"       ..@...        %%&&%$+                                                                     &>>%$#           .;=...        ",
"       ..;...        %%%-%%$                                                                    %&!&$##          ..,...         ",
"       ..;...         %%&&%%$                                                                  &&'>%$#+          ..)...         ",
"       .......        $%%&&%%$$                                                              %&&!'&%##           .@,...         ",
"        ..*...         $%%&&%&%%%$%%%%%%%%%%%%%%%%%%%%%%%%%%%%%%%%%%%%%%%%%%%%%%%%%%%%%%%%%%%&-!>%$##+          ..,....         ",
"        ..@...         $%$%&&&&&&&&&%&&%&&&&%&&&&&&&&&&&%&&&%&&&%&&&&&%&%&&&&&%&%&&&&&&&&&&-'!'%&$$#+           ..)...          ",
"        .......          $$$%%%&&&%-->>>>>>>>>>>>>>>>>>>>>>>>>>>>>>>>>>>>>>>>>>>>>>>>'>''''>&&%$$##+            .;=...          ",
"         ..*...           $$%%$%%&%%%%&%%%%%%%%%%%%%%%%%%%%%%%%%%%-%%%%%%%-%%%%%%%%%%%%%&%%%%$$$##             ..)....          ",
"         .......           +###$$#$$$$$$$$$$$$$$$$$$$$$$$$$$$$$$$$$#$%$$$$$#$%$$$$$$$$$$$$$$###++             ..,;...           ",
"          ..@....             ++++++++++++++++++++++++++++++++++++++++++++++++++++++++++++++++                ..)....           ",
"          ...@...                                                                                            ..)....            ",
"           .......                                                                                          ..,,...             ",
"           ........                                                                                        ..*)....             ",
"            ........                                                                                      ...)....              ",
"             ........                                                                                    ...)....               ",
"             .........                                                                                  ..@).....               ",
"              ..........                                                                               ..=).....                ",
"               ..........                                                                            ...,).....                 ",
"                ...........                                                                         ...),.....                  ",
"                 ............                                                                    ....,)......                   ",
"                   .............                                                              .....;);.....                     ",
"                    ......................                                          ............@,)=......                      ",
"                      .......@...............................................................=,),.......                        ",
"                       ..........=;;;;=*@@.@@**=====*=======*===*======*==*=====;;;,,,;;;;,,;@.........                         ",
"                         ............................................................................                           ",
"                             ....................................................................                               ",
"                                ..............................................................                                  ",
"                                                                                                                                ",
"                                                                                                                                ",
"                                                                                                                                ",
"                                                                                                                                ",
"                                                                                                                                ",
"                                                                                                                                ",
"                                                                                                                                ",
"                                                                                                                                ",
"                                                                                                                                ",
"                                                                                                                                ",
"                                                                                                                                ",
"                                                                                                                                ",
"                                                                                                                                ",
"                                                                                                                                ",
"                                                                                                                                ",
"                                                                                                                                "};
