/* XPM */
char * open_xpm[] = {
"128 128 17 1",
" 	c None",
".	c #000000",
"+	c #1E210F",
"@	c #212220",
"#	c #282A13",
"$	c #343519",
"%	c #3D3F3C",
"&	c #45481F",
"*	c #525450",
"=	c #676B2F",
"-	c #696B67",
";	c #7D823B",
">	c #8D9140",
",	c #9DA548",
"'	c #A7AF4D",
")	c #B4BB51",
"!	c #C4C958",
"                                                                                                                                ",
"                                                                                                                                ",
"                                                                                                                                ",
"                                                                                                                                ",
"                                                                                                                                ",
"                                                                                                                                ",
"                                                                                                                                ",
"                                                                                                                                ",
"                                                                                                                                ",
"                                                                                                                                ",
"                                                                                                                                ",
"                                                                                                                                ",
"                                                                                                                                ",
"                                                                                                                                ",
"                                                                                                                                ",
"                                                                                                                                ",
"                                                                                                                                ",
"                  ...........................................                                                                   ",
"                  .......@@@@@@@@@@@@@@@@@@@@@@@@@@@@@@@.....                                                                   ",
"                 ..%-%.................................@**....                                                                  ",
"                 .@-...........................................                                                                 ",
"                ..-...#++++##++#+++++++++#+#+#++#++#+++++......                                                                 ",
"                .*...>',,,,>,,,,,,,,,,,,,>,,,,,,,,,,,,,,,>......                                                                ",
"               ..-..$,,,>,>,,>,>,>,,>,>,,,,>,>,>,>,>,,>,,,=......                                                               ",
"               .-...>',>,,,,,,,,,,,,,,,,>,,,,,,,,,,,,,,,,,,#.....                                                               ",
"              .@-..$,,,>,>,,,','',,',,'','','','',',',,',,,,......                                                              ",
"              .-...>,,,>,''')))')))'))))')'))')')'))))))))))=..@...                                                             ",
"             .-%..$,,,'-@.&),.........'))$#+###&!)>=;))';))))#..%...                                                            ",
"      .......-*...>,,>,---=!'-***.....'!!*@%...#!)&.$!!>@!)!!,...@................................                              ",
"      ....@*-....$,,,,)$*@&!'@@@*.....,))+.*@..#!!&.#!!>+)!!))=.......@%%%%%%%%%%%%%%%%%%*%*%......                             ",
"      ..-*.......;,>,,,#..&!,.........,')@.....#))&.$)!>@!!!!!)+............................%--....                             ",
"     ..%-.......&,,,,,'$..&),.........>',+.....#')&.#))>+)!)!)!>...................................                             ",
"     ..@..#+#+#+=,>,>,'))!)))'')''',',,,,>>>>>>>,,;&=)),&))!)!!)=&&&$$$&&&&&&&$&&&&&&&&&&&&$&$.....                             ",
"     .....>,,,,,>,>,,''!!)))')'')',,>,,',')))',,,,,'')'))))!)!)!!)',',,>,>,>,,,,,,>,>,>,>,,,,>.....                             ",
"     ..@..>,>>,>,,,,'')!)!)'')')''',,,>''')')'',,,'')')))))!)!!)!)),,,,>,,,,,,>,>,,,,,,,,,,>,>.....                             ",
"     .....>,,>,>,,,,)))!!!!)))'')''',','''))))''',)'))))))))!!!!!!))'',,,>,,,,,,,,,,,,,,,,,,,>.....                             ",
"     .....>>>,,,,'')'!!!!!!)!))!)))'))')))!)))))'))))!)))!)!)!!!)!!))')'''',''''',',',','''''>.....                             ",
"     ..@..>,,>,'')'!)!!!!!!)!!);==;=;===;=;=;==;===;==;=;=;=;;=;;;=;==========================.........                         ",
"     ..@..>,,,'')!!!)!!!!!!!!)=........................................................................................         ",
"     ..@..;,>,')))!!!!!!!!!!!>.......%%*%%%%%*%%*%*%%*%%%*%%%%%%%%%%%%%%%%%%%%%%%*%%%%%%%*%%%%%%%%%%%%%%%%%%%%%%%%.....         ",
"     ..@..>,,,')!!!!!!!!!!!!!&..-*......................................................................................        ",
"     ..@..>>,,')!!!!!!!!!!!!!#.-%......................................................................................         ",
"     ..@..>,,,))!!!!!!!!!!!!)..%..$$$$$$$$$$$$$$$$$$$$$$$$$$$$$$$$$$$$$$$$$$$$$$$$$$$$$$$$$$$$$$$$#####$$$$$$$$$$#.@...         ",
"     ..@..>,>'')!!!!!!!!!!!!;.%..+>;;;;;;;;;;;;;;;;;;;;;;;;;>;;;;;;;;;;;;;;;;;;;;;;;;;;;;;;;;;;;;==;====;;;;;;;;;&.-...         ",
"     ..@..>,,,'!!!!!!!!!!!!!&.*..&>;;;;;;;;;;;;;;;;;;;;;;;;;;;;;;;;;;;;;;;;;;;;;;;;;;;;;;;;;;;;;;;=;=;;=;;;;;;;;;#.*...         ",
"     ..@..;,,,'!!!!!!!!!!!!!..%..=;;;;;;;;;;;;;;;;;;;;;;;;;;;;;;;;;;;;;;;;;;;;;;;;;;;;;;;;;;;;;;;;;;;;;;;;;;;;;;;..@..          ",
"     ..@..>,,,)'!!!!!!!!!!!).*...;;;=;;;;;>;>;>;>;>>>;>>;>>>;>;>>>>;>>>;>;>>>>>;>>>;>;>>;>;>;;>;;;;;;;;>;;;>>;;>=.%...          ",
"     ..+..>>,,)!!!!!!!!!!!!=.-..#;;;;;>>>>>>>>>>>>>>>>>>>>>>>>>>>>>>>>>>>>>>>>>>>>>>>>>>>>>>>>>>>>>>>>>>>>>>>>,>&.*...          ",
"     ..@..>,,,'!!!!!!!!!!!!$.*..&;;;;;>>,,,,,,,>,>,>,>,>,>,>,>,>>,,,,,,,,>,>,,,>,,,>,,>,>,,,,>,,,,,,,,>,,,>,,>,,#.*...          ",
"     ..@..>>,''!!!!!!!!!!!!.@...;;;;;>>>,>,>,,,,,,,,,,,,,,,,,,,,,,>,>,>,,,,,>,,,,>,,,,,,,>,>,,>,,,,>,,,>,,,>,,,>.@...           ",
"     ..@..>,,,')!!!!!!!!!!>.-...;;;;;>,,,,',>,,,,,,,,,,,,,,,,,,,,,,,,,,,,,,',,,,,,,,,,,,',',,',,,,,,,,,,,,,,,,,=.-...           ",
"     ..@..>,,,)!!!!!!!!!!!&.-..$;;;;;>>,,,,,,,,,,,,,,,,,,,,,,,,,,,,,,,,,,,,,,,,,,,,,,,,,,,,,,,,,,,,,,,',,,,,,,,&.-...           ",
"     ..@..>,,,')!!!!!!!!!!#.%..=;;;;>>>,,,,,,,,,,,,,,,,,,,,,,,,,,,,,,,,,,,,,,,,,,,,,,,,,,,,,,,,,,,,,,,,,,,,,,,,@.%..            ",
"     ..@..>>,,)!!!!!!!!!!'.%...;;;;;>,,,,,,,,,,,,,,,,,,,,,,,,,,,,,,,,,,,,,,,,,,,,,,,,,,,,,,,,,,,,,,,,,,,,',,,,;.%...            ",
"     ..@..>,,,'!!!!!!!!!!;.-..+;;;;;>>,>,,',,,,,,,,,,,,,,,,,,,,,,,,,,,,,,,,,,,,,,,,,,,,,,,,,,,,,,,,,,,,,,,,,,,=.-...            ",
"     ..@.@;,,')!!!!!!!!!!$.-..&;;;;>>,,,,,,,,,,,,,,,,,,,,,,,,,,,,,,,,,,,,,,,,,,,,,,,,,,,,,,,,,,,,,,,,,,,,,,,',#.-...            ",
"     ..@..>>,,')!!!!!!!!!@.@..=;;;;>>,,,,,,,,,,,,,,,,,,,',,,,',,,',,,,,,,,,,,,,,,,,,,,,,,',,,,,,,,,,,,,,,,,,,,..@..             ",
"     ..@.@>>,')!!!!!!!!!,.*...;;;;;>,>,,,,,,,,,,,,,',,,,,,,,,,,,,,,,,,,,,,,,',,,,,,,,,,,,,,,,,,',,,,,,,,,,,,,;.*...             ",
"     ..@..>,,,'!!!!!!!!!=.-..$;;;;;>>,,,,,,,,,,,,,,,,,,,,,',,,,,,,,,,,,,,,,,,,,,,',,,,,,,,,,,,,,,,,,,,,,,,,,,&.-...             ",
"     ..@..>>,,'!!!!!!!!!#.*..&;;;;>>,>,,,,',,,,',,,,',,,,,,,,,,,,,,,,,,,,,,,,,,,,,,,,,,,,,,,,,,,,,,,,',,,,,',+.*..              ",
"     ..@..>,,'')!!!!!!!!.@...;;;;;>,,,,,,,,,,,,,,,,,,,,',,,,,,,,,,,,,,,,,,,,,',,,,,,,,,,,,,,,,,,,,,,,,,,,,,,>.@@..              ",
"     ..@..>>,''!!!!!!!!>.-..+;;;;;>>,,,,,,,,',,,,,,,,,,,,,,,,',,,,,,,,,,,,,,,,,,,,',,',,,,,,,,,,,,,,,,,,,,,'=.*...              ",
"     ..@..>,,,'!!!!!!!!=.-..$;;;;;,>,,,,,,,,,,,,,,,,,,,,,,,,,,,',,',,,,,,,,,,,,,,,,,,,,,,,,,',,',,,,,,,',,,,$.-...              ",
"     ..@.@>>,,'!!!!!!!!+.%..=;;;;>>,,,,',,,,,,,,,,,,,,,,,,,,,,,,,,,',,',,,,,,,,,,,,,,,,,',,,,,,,,,',,,,,,,,,+.%..               ",
"     ..@..>,,,')!!!!!!'.%...;;;;;>;,,,,,,,,,,,,,,,,,,,,,,,,,,,,,,,,,,,,,,,,,,,,,,,,,,,,,,,,,,,,,,,,,,,,,,,,;.%...               ",
"     ..@..>,,')!!!!!!!=.-..+;;;;>>>,,,,,,,,,,,',,,,,,',,,',,',,,',,,,,,,',,,',,',,,,,,,,,,,,,,,,,,,',,,,,,'&.-...               ",
"     ..@..>,>'')!!!!!!&.*..&;;;;;>,,,,,,,,,,,,,,',,',,,,,',,,,,,,,,',,',,,,,,,,,,,,',,,,,,,,,,,,,,,,,,,,,,'$.*...               ",
"     ..@..>,,,)!!!!!!!.+@..=;;;;>>>,,,,,,,,',,,,,,,,,,',,,,,,,,,,,,,,,,,,,,,',,,,,,,,,,,,),,,,,,,,,,,,,,,,,.@@..                ",
"     ..@..>>,,))!!!!!>.*...>;;;;>>,,,,,',,,,,,,,,,,,,,,,,,',,,,,,,,,,,',,',,,,,',,,,',,,,,,,,',,,,,,,,,,,,=.*...                ",
"     ..@.@>,,,)!!!!!!=.-..$;;;;>>,,,,,,,,,,,,',,,',,,,,,,,,,,,,,,,,,,,,,,,,,,,,,',,,,,',,,,,,,,,,',,,,,,',&.-...                ",
"     ..+..>>,,')!!!!!#.*..&;;;;>>>,,,,',,,,,,,,,,,,,,,,,,,,,,,,,,,',,,,,,,,',,,,,,,,,,,,,,',,,,',,,,,,,,,,+.*..                 ",
"     ..@..>>,''!!!!!).%...;;;;;>>,,,,,,,',,,,',,,,,,,,,,,,,,,,,,,,,,,,,,,,,,,,,,,,,,,,,,,,,,,,,,,,,,,,,,,>.%...                 ",
"     ..@..>,,,'!!!!!>.-..+;;;;>>>,,,,,,,,,,,,,,,,,,,,,,,,,,,',,,,,,,,,,,,,,,',,,,,',,,,',,,,,,,,',,,,,,,,=.-...                 ",
"     ..@.@>>,'')!!!!&.-..$;;;;>>,>,,,,,,,,,,,,',,',,,,',,,,,,',,,,,,,,,,,,,,,,,,,,,,,,,,,,,',,,,,,',,,',,$.-...                 ",
"     ..@..>,,,')!!!!@.%..=;;;;>>,,,,',,,,,,,,,,,,,,,',,,,',,,,,,,',,,',,,,,,,,,,,,,,,,,,,,,,,',,,,,,,,,,,..%..                  ",
"     ..@..>>,''!!!!,.%...;;;;;;,>,,,,,,,,,,,,,,,,,,,,,,,,,,,,',,,,,,,,,,,,,,,,,,,,,,,,,,,,,,,,,,,,',,,,,;.*...                  ",
"     ..@..>,,,')!!!=.-..#;;;;>>>,,,,,,,,',,,',,,',,,,,',,,,,,,,,,,',,,,,'',,,',,,,,',,,,,,,,,,,,,,,,,,,,=.-...                  ",
"     ..@.@;,,,')!!!$.*..&;;;;>>,,,,,',,,,,,,,,,,,,',,,,,,',,,,',,,,,,,,,,,,,,,,',,,,,,,,,,,,,,,,,,,,,,,,+.*...                  ",
"     ..@..>,,,'!!!!.@@..=;;;;>>,,,,,,,,,,,',,,,,,,,,,,,,,,,,,,,,',,,',,,,,,,,,,,,,,,,,',,,,,,,,,,,,,,,,,.@+..                   ",
"     ..@..;,,'')!!>.*..+;;;;;>>>,,,,,,',,,,,,,,',,,,,',,,',,,,,,,,,,,,,,,,',,,,,,',,,,',',,,,,,,,',,,,,;.*...                   ",
"     ..@..>,>'')!!&.-..$;;;;;>,,,,,,,,,,,,,,',,,,,,,,,,,,,,,',,,,,',,,,',,,,,,',,,,,,,,,,,,,',,,,,,,,,,&.-...                   ",
"     ..@..>,,,')!!+.*..&;;;>>>>,,,,,,,,,,,,,,,,,,,,,,,,,,,,,,,,,,,,',,,,,,,,,,,,,,,',,,,',,,,,,',,,,,,,+.*..                    ",
"     ..@..>,>''!!'.%...;;;;;>>',,,,',,',,,,,,,,,,',,,,,,,,,,,,,,,,,,,,,,,',',,,,,',,,,,,,,,,,',,,',,,,;.%...                    ",
"     ..@..>,,,')!;.*..#;;;;>>>,,,,,,,,,,,,,,,,,,,,,,,,,,,,,,,,,,,,,,,,,,,,,,,,,,,,,',,,,,,,,,,,,,,,,,,=.-...                    ",
"     ..@..>,,,'!)&.-..&;;;;;>,,,,,,,,,,,,,,,,,,,,,,,,,',,',,,',,,,,,,,,,,,,,,,,',,,,,,',,',,,,,,,,,,,,$.-...                    ",
"     ..@..;,,,')!..%..=;;;;>>>,,,,,,,,,',,,,,',,,',,,,,,,,,,,,,,,,,,,,,,,,,,,,,,,,,,,,,,,,,,,,,,,,,,,,..@..                     ",
"     ..@..>,,,')>.*...;;;;;>>,,,,,,,,,,,,,,',,,,,,,,,,,,,,',,,,,,,,,,,',,,,,,,,,,,,,,,,,,,,,',,,,,,,,;.*...                     ",
"     ..@..;,,,'!=.-..#;;;;>>,,>',,,,,,,,,,,,,,',,',,',,,,,,,,',,,',,,,,,,,,,,,,,,,,,,,,,,,,,,,,',,,,'&.-...                     ",
"     ..@..>,,,'!#.*..&;;;;;>>',,,,,,',,,',,,,,,,,,,,,,,',,,,,,,,,',,,,,,,,',,,,,,,,,,,,,,,',,,,,,,,,,#.*...                     ",
"     ..@..>>,,').@...;;;;;>>,>',',,,,,,,,,,,,,,,,,,,,,',,,,,,,,,,,,,',,,,,,,',,,',,,,,,,,,,,,,,,,,,,,.@...                      ",
"     ..@..>,,,';.-..+;;;;;>>,,,,,,,,,',,,,,',,,,,,',,,,,,,,',,,',,,,,,,',,,',',,,,,,',,',,,,,',,',,,=.-...                      ",
"     ..@..>,,,'&.-..$;;;;>>>,,,,,,,,,,,,,,,,,',,,,,,,,,,',,,,,,,,',,,,,,,,,,,,,,,,,,,,,,,,,,,,,,,,,,&.-...                      ",
"     ..@..>,,,)@.%..=;;;;>>,,,,,,,',,,,,,,,,,,,,,,,,,,,,,,,,',,,,,,,,,,,,,,,,,,',,,,,,,,,,,,,,,,,,,,@.%..                       ",
"     ..@..;,,,>.%...;;;;;,>,,,,,,,,,,',,,,,,,,,,,,,,,,,,,,,,,,,,,,',,,,',,,,,,,,',,',,,,,',,,,,,,,,;.%...                       ",
"     ..@..>,,,=.-..+;;;;;>>,,,,',,,,,,,,,,,,,,,,,,',,,,,,,,,,,,,,,,,,',,,,,',,,,,,,,,,,,,,,,,,,,,,,=.-...                       ",
"     ..+..;,,,$.-..&;;;;>>>,,,,,,,',,,,,',,,'',,,,,,,,,,',,,,,,,,,,,,,,,,,,,,,,,,,,,',,,,',,,',,,,,#.-...                       ",
"     ..@..>,,,..@..=;;;;>>,,,,,,,,,,,,,,,,,',>',,,,',,,,,,,,,,,,,,,,,,,,,,,,,,',,,,,,,,,,,,,,,,,,,,..@..                        ",
"     ..@..;,,;.*...;;;;;>,>,,,,,,,,,,,,,,,,,',,,,,,,,,,',,',,,,',,,,,,,,,,,,,,,,',,,,,,,,,,,,,,,,,;.*...                        ",
"     ..@..>,,&.-..$;;;;;>>',,,',,,,,',,',,,,,,,',,,,,,,,,,,,,,,,,,',,,',,,,,,,,,,,,,',,,,,,',,,,,'&.-...                        ",
"     ..@..;,,+.*..&;;;;>,>,,,,,,',,,,,,,,,,,,,,,,,',,,,,,,,',,,',,,,,,,,,',,,,,,,,,,,,,,,,,,,,,,,'+.*..                         ",
"     ..@..>>>.@...;;;;;>>,,,,,,,,,,,,,,,,,,,,,,,,,,,,,,,',,,,,,,,,,,,,,,,,,',,,,,,',,,',,,,,,',,,>.%...                         ",
"     ..@..>,=.-..+;;;;;>>>,,,,,,,,,,,,,,,,,,,,,,,,,,,,,,,,,,,,,,,',,,,',,,,,,,,,,,,,,,,,',,,,,,,'=.*...                         ",
"     ..@..>,$.-..$;;;;>>,,,,,,,,,',,,,,,,,,,',,,,,,,,,,,,,,,,,,,,,,,,,,,,,',,,,,,,,,,,,,,,,,,,,,,$.-...                         ",
"     ..@..>,@.%..=;;;;>>>,,,,',,,,,,,,,,',,,,,,,,,,,,,,',,,,,,,,,,,',,',,,,,,',,,,,,,,,,,,,,,,,,,@.%..                          ",
"     ..@..>;.%...;;;;;>>',,,,,,,,,,,',,,,,,,',,,',,,,,,,,,,,,,,,,,,,,,,,,,,,',,,,,,',',,,',,,,,,>.%...                          ",
"     ..@..>&.-..+;;;;>>>,,,,,,,,,,,,,,,,,',,,,,,,,,',,,,,,',,,,,,,,,,,,,,,,,,,',,,,,,,,,,,,',,,,&.-...                          ",
"     ..@..>$.*..&;;;;>>,,,,,,,,,,',,,',,,,,,,,,,,,,,,,',,,,,,',,,,,,,,,,,,,,,,,,,,,,,,,,,,,,,,,,$.*...                          ",
"     ..@..>.@@..=;;;;>>>,,',,,,,,,,,,,,,,,,,',,,',,,,,,,,,,,,',,,,,,,,,,,,,,,,,,,,,,,,,,,,,,,,,,.@@..                           ",
"     ..@..=.%...;;;;;>>,,,,,,,,,,,,,,,',,,,,,,,,,,,',,,',,',,,,,',,,,,,,,,,,,,',,,,,',,,,,,,,,,=.*...                           ",
"     ..%..&.%..#;;;;>>>,,,,,,',,,',,,,,,,,,,,',,,,,,,,,,,,,,,,,,,,,',,,',,,,,,,,,,,,,,,,,,',,,'&.-...                           ",
"     ..*..+....&;;;;>>,,,,',,,,,,,,,,,,,,,,,,,,,,,,,,,,,,,,,,',,,,,,,,,,,,',,,,',,,,,',,,,,,,,,+@*..                            ",
"     ..-.......;=;;;>>,,,,,,,,',,,,,,,,,,,,,,,,,,,,,,,,,,',,,,,',,,,',,,,,,,,,,,,,,,,,,',,,,,,>.-...                            ",
"     ..-......@;;;;>>>,>',,,,,,,,,,,,,,,,,,,,,,,,,,,,,',,,,,,,,,',,,,,,',,,,,,,',,,,,,,,,,,,,,=.-...                            ",
"     ..*%.....+&&&&&=-==-=-=-=-=-=-=-=-=-=-=-=-=-=-=-=-=-=-=-=-=-=-=-=-=-=-==-==-===-=========+-@...                            ",
"     ...%.....................@..@..@..@.@..@..@..@.......@.....@............................%--...                             ",
"     .........@%%%%%%%%%%*%*%%%%%%%%%%%%%%%%%%%%%%%*%*%*%%%*%*%%%%*%*%*%*%*%%*%%%*%%%%%%%*----.....                             ",
"     ..............................................................................................                             ",
"      .............................................................................................                             ",
"       ............................................................................................                             ",
"                                                                                                                                ",
"                                                                                                                                ",
"                                                                                                                                ",
"                                                                                                                                ",
"                                                                                                                                ",
"                                                                                                                                ",
"                                                                                                                                ",
"                                                                                                                                ",
"                                                                                                                                "};
