/* XPM */
char * orthosettings_xpm[] = {
"128 128 17 1",
" 	c None",
".	c #000000",
"+	c #090C08",
"@	c #151714",
"#	c #1E201E",
"$	c #232523",
"%	c #2C2E2B",
"&	c #363836",
"*	c #3E403E",
"=	c #454744",
"-	c #4C4E4B",
";	c #595B58",
">	c #616360",
",	c #676966",
"'	c #6C6E6B",
")	c #747673",
"!	c #7B7D7A",
"                                                                                                                                ",
"                                                                                                                                ",
"                                                                                                                                ",
"                                                                                                                                ",
"                                                                                                                                ",
"                                                                                                                                ",
"                                                                                                                                ",
"                                                       +++@+++............                                                      ",
"                                                  @#$&*-;>>>>;;=*&&&*&&%$@.....                                                 ",
"                                               $%*->''';;*--;')>-&#.+.@$&*=*%@....                                              ",
"                                            %%->'),-$.........#%............#&*%@....                                           ",
"                                          %*;)),*...............................$&%....                                         ",
"                                        *-'))-........... .. ......  .............+%%+...                                       ",
"                                      *;)!'%.........         .....         .........@#+...                                     ",
"                                    &-)!'........             .....             ........#....                                   ",
"                                  &-'!,@.......               .....               ........#....                                 ",
"                                 *;!!%......                  .@...                  ......+@...                                ",
"                               &-'!;.....                     .#...                    ......@....                              ",
"                              *;!)......                      .%...                      ......+...                             ",
"                             ='!;.....                        .%...                        .........                            ",
"                            -'!#....                          .$...                         .........                           ",
"                           -)).....                           .%...                           ........                          ",
"                          -!,....                             .%...                            .........                        ",
"                         -!>....                              .$...                              ....+...                       ",
"                        -)>....                               .%...                               ........                      ",
"                       =)>....                                .$...                                .......                      ",
"                      *)>....                                 .%...                                 .......                     ",
"                     &,'....                                  .%...                                  .......                    ",
"                    %>)....                                   .*...                                   .......                   ",
"                   #=)#...                                    .;...                                    ...+...                  ",
"                   &'=...                                     %,@..                                     ......                  ",
"                  #>,...                                      ;)$..                                      ......                 ",
"                 @='....                                     -)!&..                                      .......                ",
"                 %>*...                                 @$&;>!!,&.......                                  ......                ",
"                @->...                               %&=;,)!!)>=#..........                                ......               ",
"                %>+...                             &->)),;-&%##.......@%%@...                              .......              ",
"               @-;...                            &;,!'*..................#%@...                             ......              ",
"               &>....                          &-,!,@.......................%+...                            ......             ",
"              .-=...                         &->!)#.......    .....   .......+$....                          ......             ",
"              %>....                        *;)!&......       .....      ......++...                          ......            ",
"             .=-...                        =,!;......         .....         .........                         ......            ",
"             @>....                       -'!$.....           .....          .........                         ......           ",
"            .%;...                       =)).....             .@...            ........                        ......           ",
"            .-%...                      *')....               .$...              .......                       ......           ",
"            @;...                      %>!....                .$...               ...+...                       ......          ",
"           .$=...                     #-)@...                 .%...                ...@...                      ......          ",
"           .*#...                     &)=...                  .%...                 ...+...                      .....          ",
"           .=...                     $>>...                   .$...                  ......                      ......         ",
"          .@*...                    .*'....                   .%...                  ...+...                     ......         ",
"          .%#...                    #;=...                    .$...                   ......                      .....         ",
"          .*...                    .&>...                     .$...                    ......                     .....         ",
"          .*...                    @-&...                     .%...                    ......                     ..@...        ",
"         ..=...                   .$;...                      .%...                     ......                    ..+...        ",
"         .@%...                   .**...                      .$...                     ......                     .....        ",
"         .##...                   .;...                       .%...                      ......                    .....        ",
"         .%....                  .#=...                       .$...                      ......                    .....        ",
"         .%...                   .%&...                       .%...                       .....                    .....        ",
"         .%...                   .=$..                        .*...                       ..+..                    ..@...       ",
"         .&...                   @>#..                        .;...                       .@&...                    #&...       ",
"         .*+..                   *'@..                        &,@..                        *;...                    ==...       ",
"         .=&..                  *>)@..                        ;)%..                        >'@..                    '-...       ",
"        ..=;..                  ;!)$..                       ;))&..                       >))&..                   ,!&...       ",
"        ..&;#....@#########%*;,)!!>#.....@##############$&-,)!!'&.....+#$############%*;')!)>&.....+##$#######%&-,)!)....       ",
"        ..+-$...%*-;;;;;;;;;,)))>;&.....$*-;;;;;;;;;;;;;;,))!,;*@....@&-;;;;;;;;;;;;;;>'))>;*#....@&=;;;;;;;;;;>)!),=....       ",
"         ..$....................................................+..........................+......................@#.....       ",
"         ................................................................................................................       ",
"         ................................................................................................................       ",
"         .....                  ......                        .....                        .....                   ......       ",
"         .....                  ......                        .....                        .....                   ......       ",
"         .....                  ......                        .....                       ......                   .....        ",
"         ..+...                  .....                        .....                       .@....                   .$...        ",
"         ..@...                  .....                        .@...                       .=+..                    .*...        ",
"         ..@...                  ..@...                       .%...                       @;...                   .@=...        ",
"         .+....                  ......                       .$...                      .*=...                   .$&...        ",
"          .+...                   .....                       .$...                      @;@...                   .&@...        ",
"          ..+...                  ..+...                      .%...                     .&>...                    .=...         ",
"          ..@...                  ......                      .%...                     @;%...                   .@-...         ",
"          ......                   ......                     .$...                    +*>...                    .%&...         ",
"           .....                   ......                     .%...                    $;%...                    .=+..          ",
"           ..+...                   ......                    .$...                   @-;...                     #-...          ",
"           ......                   .......                   .$...                   &,+...                    .*=...          ",
"            ..+...                   ......                   .%...                  &>=...                     @;....          ",
"            ..+...                    ......                  .%...                 &;>....                    .%;...           ",
"            .......                   .......                 .$...                 ;'....                     .-$...           ",
"             ..+...                    .......                .%...                ,!+...                      $;...            ",
"             .......                    ...+....              .$...              -'!#...                      +=*...            ",
"              ......                     ...+@...             .&...             ;)!....                       %;...             ",
"              .......                     ....#....           .-...           =>!,....                       @;=...             ",
"               ......                      ....++...          %,@..         *;)!*....                       @*,...              ",
"               .......                      .....@+....       ;)$..      %*;'!;.....                        &,*...              ",
"                ......                       ......$%+....    ))&..    %=>));......                        #;,...               ",
"                .......                        ......#%%#%*>)!!'*....#-,!'*......                         @='....               ",
"                 ......                         ........@*;)))';%....%*&........                          %,-...                ",
"                  ......                          ..........@$%#..............                           $;>....                ",
"                  .......                            ......................                             #='....                 ",
"                   .......                              ................                                &,%...                  ",
"                    ......                                   ......                                    &>-...                   ",
"                    .......                                   .....                                   &>>....                   ",
"                     .......                                  .....                                  *>)....                    ",
"                      .......                                 .....                                 =,)@...                     ",
"                       .......                                .@...                                =,!@...                      ",
"                        ...+....                              .#...                               -)!@...                       ",
"                         ...+@...                             .%...                             *;)!....                        ",
"                          ....#...                            .%...                            =;!,....                         ",
"                           ....@....                          .$...                           -,!-....                          ",
"                            .....@...                         .%...                         *;!!#....                           ",
"                             .....#....                       .$...                       &-'!;.....                            ",
"                               ....+#....                     .%...                      =,!)#....                              ",
"                                .....@#....                   .%...                   %=>)!*.....                               ",
"                                 ......##....                 .*...                 &=>))-......                                ",
"                                   ......@@.....              @;...               &-,!!=......                                  ",
"                                     ......+#@.....           *'@..           #%*;'!)&......                                    ",
"                                      ........$%#+.....       >)%..       @#%*-,));........                                     ",
"                                         ........%&&%@....#- ,!)&.....@$&*->'''-@.......                                        ",
"                                           .........#%***=;)!!,*@...@&;')'>-$.........                                          ",
"                                             .............%&%........@$#............                                            ",
"                                                .................................                                               ",
"                                                    .........................                                                   ",
"                                                          .............                                                         ",
"                                                                                                                                ",
"                                                                                                                                ",
"                                                                                                                                ",
"                                                                                                                                ",
"                                                                                                                                ",
"                                                                                                                                ",
"                                                                                                                                ",
"                                                                                                                                ",
"                                                                                                                                "};
