/* XPM */
char * pandown_xpm[] = {
"128 128 17 1",
" 	c None",
".	c #000000",
"+	c #1A1B19",
"@	c #272926",
"#	c #373936",
"$	c #464845",
"%	c #585A57",
"&	c #696B68",
"*	c #7B7D7A",
"=	c #898B88",
"-	c #9C9E9B",
";	c #ACAEAB",
">	c #BBBDBA",
",	c #CACCC9",
"'	c #D7D9D6",
")	c #E7E9E6",
"!	c #F9FBF8",
"                                                                                                                                ",
"                                                                                                                                ",
"                                                                                                                                ",
"                                                                                                                                ",
"                                                                                                                                ",
"                                                                                                                                ",
"                                                                                                                                ",
"                                                                                                                                ",
"                                                                                                                                ",
"                                                                                                                                ",
"                                                                                                                                ",
"                                                      ............                                                              ",
"                                                  ........++...........                                                         ",
"                                                .....@$#+......+@#@.......                                                      ",
"                                            .....+%%................#$.....                                                     ",
"                                       .......+%&#......+#$###@+.............                                                   ",
"                             ...........+@$&&&#......#=;;>;>;;>;==%#...........                                                 ",
"                           ...+####$$$%%$#.........+#-,>,>,>,,>,>>>-=%@.........                                                ",
"                          ..$*+.................+$=;>,,>>,,,>,,,,,,>>;-=$+...@....                                              ",
"                        ..+*@......+.+..++++++$=;;,,>>>>,>,,',,',',,',,>;&@...#.....                                            ",
"                       ..%*...+&-;----;;-;;;;-;,>>>>>>,,,,''')')')')''',,>;&@........                                           ",
"                      ..&$...%;',,,,,,>,,,,>,,>,>,,,,,,,')'))!)))))))))'',,;=@........                                          ",
"                     ..*+..+=',,,>,>,,,,>,,,>,,,,>,,,''')))!!!!!!!!)!)!))'',,=@........                                         ",
"                    ..*...@=,,,,>,,,,,,,',,,',,,'',)'))))!!!!!!!!!!!!!!!!))),,=#........                                        ",
"                    .%#..&>,',,,,>,,'''''''''))')))))!)!!!!!!!!!!!!!!!!!!!!))),>=@.......                                       ",
"                   .@*..%,,,,>>,,''))))),-->))))))))!!!!!!!!!!!!!!!!!!!!!!!!!)),>=@......                                       ",
"                  ..*..+;,,,,,,,')))!!!,%+.%')!!!!!!!!!!!!!!!!!!!!!!!!!!!!!!!!!),,=@......                                      ",
"                  .%+..&,,,>>,'')))!!!'&...#,)!)!!!!!!!!!!!!!!!!!!!!!!!!!!!!!!!)),>=@.....                                      ",
"                 ..*..@>,,,,,,)))!!!!!-.%..%')!)!!!!!!!!!!!!!!!!!!!!!!!!!!!!!!!!)),>*......                                     ",
"                 .%..+=,,,>,''))!!!!!)%%$.#;)))))!!!!!!!!!!!!!!!!!!!!!!!!!!!!!!!!))';#......                                    ",
"                ..&..*,,,>,,')!!!!!!!>+=.+=')')))!!!!!!!!!!!!!!!!!!!!!!!!!!!!!!!!!)',=@......                                   ",
"                .$..@>,>,,,'))!!!!!!)&##.$,''''))!!!!!!!!!!!!!!!!!!!!!!!!!!!!!!!!!!)',=......                                   ",
"                .%..&,,,>,'')!!!!!!!,+&..-'',,'))!!!!!!!!!!!!!!!!!!!!!!!!!!!!!!!!!!!)';#......                                  ",
"               ..$..=,,,,,'))!!!!!!!=.%.$>',','')!!!!!!!!!!!!!!!!!!!!!!!!!!!!!!!!!!!!)'>&......                                 ",
"               .+..+;,>,,'))!!!!!!!)%@+.*,,,,''))!!!!!!!!!!!!!!!!!!!!!!!!!!!!!!!!!!!!)),;@.....                                 ",
"               .$..%,,,,'')!!!!!!!!,@$.+;',',,))!!!!!!!!!!!!!!!!!!!!!!!!!!!!!!!!!!!!!!)',*+.....                                ",
"               .%..*,>,,'))!!!!!!!!,@$.+;',,''))!!!!!!!!!!!!!!!!!!!!!!!!!!!!!!!!!!!!!!!)',*......                               ",
"               .%..;>,,,')!!!!!!!!!>+$.@;,,,,))!!!!!!!!!!!!!!!!!!!!!!!!!!!!!!!!!!!!!!!!!),>%......                              ",
"              .+@.+>,>,,')!!!!!!!!!>+$.#;',''')!!!!!!!!!!!!!!!!!!!!!!!!!!!!!!!!!!!!!!!!!))';+......                             ",
"              .%..@>,,,'))!!!!!!!!!,+$.@;,,,')!!!!!!!!!!!!!!!!!!!!!!!!!!!!!!!!!!!!!!!!!!!)',*+.....                             ",
"              .&..&,,,,'))!!!!!!!!!>+$.@;','')!!!!!!!!!!!!!!!!!!!!!!!!!!!!!!!!!!!!!!!!!!!!!',*+.....                            ",
"             ..&..->,,,')!!!!!!!!!!>+$.@;,,'')!!!!!!!!!!!!!!!!!!!!!!!!!!!!!!!!!!!!!!!!!!!!))'>&......                           ",
"             ..$..;,>,'))!!!!!!!!!!,+#.@;,,,')!!!!!!!!!!!!!!!!!!!!!!!!!!!!!!!!!!!!!!!!!!!!!))'>&......                          ",
"             ..+..>,,,,))!!!!!!!!!!,@+.+-,,'))!!!!!!!!!!!!!!!!!!!!!!!!!!!!!!!!!!!!!!!!!!!!!!)''>&......                         ",
"             .#..+>,,,'))!!!!!!!!!!'$..+-,,,')!!!!!!!!!!!!!!!!!!!!!!!!!!!!!!!!!!!!!!!!!!!!!!!)',>&..+...                        ",
"             .$..#>>,'')!!!!!!!!!!!)&...*,,'))!!!!!!!!!!!!!!!!!!!!!!!!!!!!!!!!!!!!!!!!!!!!!!!!)',;@..+...                       ",
"             .%..%,>>'')!!!!!!!!!!!!*.@.%,,,)))!!!!!!!!!!!!!!!!!!!!!!!!!!!!!!!!!!!!!!!!!!!!!!!))'>-.......                      ",
"             .&..&>,,,))!!!!!!!!!!!!-.%.#>,'')!!!!!!!!!!!!!!!!!!!!!!!!!!!!!!!!!!!!!!!!!!!!!!!!!)),,=.......                     ",
"            ..&..=>>,,))!!!!!!!!!!!!,@=.+;>'')!!!!!!!!!!!!!!!!!!!!!!!!!!!!!!!!;='!!!!!!!!!!!!!!!)',>*.......                    ",
"            ..*..=>,,,;>,,,,'!!!!!!!,%*..*,,'))!!!!!!!!!!!!!!!!!!!!!!!!!!!!!!'#.$,!!!!!!!!!!!!!!!)),,&.......                   ",
"            ..=.+=>;=$++$@+@$*->''')'==..$;,'))!!!!!!!!!!!!!!!!!!!!!!!!!!!!!!=...##,!!!!!!!!!!!!!))',>&.......                  ",
"            ..*@.=*$+.@$$%%@...+##$&--=...&>'))!!!!!!!!!!!!!!!!!!!!!!!!!!!!!,+.....+,))!!!!!!!!!!!!)',>&.......                 ",
"            ..&%.%+.....+..$*&+...@**$+...+=,')!!!!!!!!!!!!!!!!!!!!!!!!!!!!)&..&....+>)))!!!!!!!!!!!)',>%.......                ",
"            ..#*......+$&#@+.$*#...........@-,))!!!!!!!!!!!!!!!!!!!!!!!!!!!>+.%&#.....>')))!!!!!!!!!))',>%.......               ",
"            ..+&.....$*>,>;-=$...+..........#-')!!!!!!!!!!!!!!!!!!!!!!!!!!>#+#........+;''))!!!!!!!!!))',>$......               ",
"            ...#...+&;,',,',;%...%===&%%#....#-')!!!!!!!!!!!!!!!!!!!!!!!!>#%$..........+;,'))!!!!!!!!!!)''>$......              ",
"            .......*;>,,,,,,;@...=,,,>>>-$.@..@&>)!!!!!!!!!!!!!!!!!!!!!)-#*#..#%&@..$...+;,'))!!!!!!!!!))',>$.......            ",
"            ......@->>>,,','=...@->>>,,,,;$.*...#=,)!!!!!!!!!!!!!!!!!)>%#*..+%;'>=..#@...+;,'))!!!!!!!!!))',>#.......           ",
"            ......%;>>>,,,',&@..#>>>>,>,,,;#.*...+$;')!!!!!!!!!!!!)';%@&&...%>',;-#..#....+;,'))!!!!!!!!!!)',>#......           ",
"            .....+=;>>,,,)'>+%..*>,,,,'',',&.#+....+$=>)!!!!!!!)';&#+&&...@*,'>>;-$........@;,'))!!!!!!!!!))',;@......          ",
"            .....&;>>>,')))=+%.@;,,>,,'))),$..........@%*=====&%@+.%%....%>'',>;;=@.........@;,'))!!!!!!!!!!)',;@.....          ",
"            .....-;;>,,'))'%@..&,,,,,'))))>#...&$+.....+@+............+$-,'',,>;-$...........#>>'))!!!!!!!!!))'>-&@....         ",
"            .....;>>>,'))!'#%.+-',,,'')!!!,@..+-;*$+.....#&==%$.....@%=>,',,,>>;*.$... .......#;,'')!!!!!!!!!)',>;%....         ",
"            ..+..;;>,,')!!>+%.@;,,,''))!!!>@..+->>;=&#.......$%..@&=;,,,',,,,>;-@+&..   .......$;,'))!!!!!!!!!)'>;&....         ",
"            ..+..;>>,'))!);+$.#>',,'))!!!!>@@.@;>>>>,,,,,=&$....+=,,,',,,,,,,,>%.&...     ......$;,'))!!!!!!!!)',;&+...         ",
"            ..+..->>,')!!!;.#.%,,,,'))!!!!>+#.@;,,,,,,,',,,-$....%;,,,,',,',,,>@.=..       ......$>>'))!!!!!!)),>;%%...         ",
"            ..@..->>,'))!)=+..&,,','))!!!!>+#.@;,>,,,'',',',>%...+->,>,,'''',,>..%..        ......@;,'))!!)!))',>-#*..          ",
"            ..+..;>,'')!!)%$..=,,,'')!!!!!>+$.@;,,,,)'')'''''-@...*>>,,''')))';.+@..         ......$;,,')))))',,>*#%..          ",
"            ..+..->>,')!!,#$.+-,,,'))!!!!!>+#.#;,,''))))))')),%...*>,,'')!)))'>.+...          ...@..#-,,')'',,>>=$*...          ",
"            ..+..;>,'))!!,@%.+;,',,))!!!!!;.#.$>,,,'))!!!)))),%...=>,,'))!!!)'>.+...            ..#..+=>,,,,,>>-%%$...          ",
"            .....->>,')!!,+%.+;,,''))!!!!!;+#.$>,,')))!!!!!!!'%+..=>,,'!)!!!)'>.+...             ..#..+=;>>>>>-$$*...           ",
"            .....->,,)))!>+&..-,,,')!!!!!!;.$.$>,,,))!!!!!!!!)%#..=,,'')!!!!)'>.+...             ......+%-;--%#%&...            ",
"            .....-;,,')!!,@&..*,,,')!!!!!!-.$.%,,',))!!!!!!!!'$$..-,,''))!!!)'>.+...              .......+++.@*#...             ",
"            .....=;>,')))'@&..$,,'')!!!!!!-.%.&,,,'')!!!!!!!!'$%..-,,,)))!!!)'>.+...               .......#%%#....              ",
"             ....*;>>,,)''+&@.+;,,')!!!!!!*+%.$>','))!!!!!!!!'#&..-,,,')!!!!)'>.+...                .............               ",
"             ....%-;>>,,';.&#..&>,'')!!!!)&@%.@,,,'))!!!!!!!!'#&..-,',)))!!!)'>.+...                  ..........                ",
"             ....+&=-;>>;%.%@..@->,')))!))$#$.+;,,'))!!!!!!!!'+=..=,,,)))!!!)'>.+...                       .                    ",
"              .....+$%&&&%......%;,,')')),+%@..-,,,))!!!!!!!!>.*..&,,'')!!!!)'>.+...                                            ",
"              .......+%&$.......+%;>,,',,*.&...*,,'))!!!!!)!)*.=..$,,,'))!!!)'>.+...                                            ",
"               ...................$=>>;-$+@=...%>>,')))!)))'>@.&..#>,'')!!!!)'>.+...                                            ",
"                 .........   ......#%&$$%$+....@->,'')))''',*.%$..+>,,'))!!!)'>.+...                                            ",
"                     ..       ......+$&&........%-;,,',',,;%+.*...@>,,')!!!!)'>.+...                                            ",
"                                .................%=;>>,>-&#.+%&...#>,,,))!!!)'>.+...                                            ",
"                                 ........  .......+$%&&%+#&&$++...$;>,')!)!!)'>.+...                                            ",
"                                              .......+#&*%+.......$;>,,))!!!)'>.+...                                            ",
"                                              ....................#>>>'))!!!));.....                                            ",
"                                                ...........   ....#>>,,))!!))'>.+...                                            ",
"                                                   .....      ....#;>,'))!!!)'>.+...                                            ",
"                                                              ....$;>,,))!!!)'>.+...                                            ",
"                                                              .+..#>>,'))!!)!'>.+...                                            ",
"                                                              .#..#>>,'))!!!)'>.+...                                            ",
"                                                              .#..$>>,,)!!!)));.....                                            ",
"                                                              .$..$>>,'))!!))'>.+...                                            ",
"                                                              .#..$>>,,))!!!)'>.+...                                            ",
"                                                              .#..$>,,'))!!!))>.+...                                            ",
"                                                              .#..$>>,'))!!!)';.+...                                            ",
"                                                              .#..$>,,,))!!!)'>.+...                                            ",
"                                                              .#..$>>,'))!!!)'>.....                                            ",
"                                                              .$..#>,,,))!!!)'>.+...                                            ",
"                                                              .#..$>>,'))!!!)'>.+...                                            ",
"                                                              .#..$>,,'))!!!)'>.+...                                            ",
"                                                              .#..$>>,'))!!!)'>.+...                                            ",
"                                                              .#..$>,>'))!!!)'>.+...                                            ",
"                                                              .#..$>,,'))!!!));.....                                            ",
"                                                              .#..$>>,'))!!))'>.+...                                            ",
"                                                              .#..$>>,,)!!!!)'>.+...                                            ",
"                                                              .#..$>,,'))!!!)'>.+...                                            ",
"                                                              .@..$>,,,))!!))'>.+...                                            ",
"                                                              .+..#>>,'))!!!)'>.+...                                            ",
"                                                              ....@;>,'))!!!)'>.@...                                            ",
"                                                              ....+->,,)!!!!)';.$...                                            ",
"                                                              ..@..=>>')))!)''-.%...                                            ",
"                                                              ..@..=>>,)))!)',=.%...                                            ",
"                                                              .....&;>,,)))'';%@....                                            ",
"                                                              .....$-;>,''',>*+%....                                            ",
"                                                               ....+&-;>>,>;&$*....                                             ",
"                                                               .....@%====%@&*....                                              ",
"                                                                ......+++@&=@....                                               ",
"                                                                 .......@+......                                                ",
"                                                                  ............                                                  ",
"                                                                     ......                                                     ",
"                                                                                                                                ",
"                                                                                                                                ",
"                                                                                                                                ",
"                                                                                                                                ",
"                                                                                                                                ",
"                                                                                                                                ",
"                                                                                                                                "};
