/* XPM */
char * panpoint_xpm[] = {
"128 128 17 1",
" 	c None",
".	c #000000",
"+	c #151714",
"@	c #690201",
"#	c #7F0001",
"$	c #2A2C29",
"%	c #474946",
"&	c #9A4645",
"*	c #676663",
"=	c #848683",
"-	c #B77878",
";	c #ABAAA8",
">	c #C5C7C4",
",	c #D6D8D5",
"'	c #E6E8E5",
")	c #F2F3F0",
"!	c #FBFDFA",
"                                                                                                                                ",
"                                                                                                                                ",
"                                                                 ........                                                       ",
"                                                               ...+$$+......                                                    ",
"                                                             ...%%+.....%$....                                                  ",
"                                                            ..%*....+.....%....                                                 ",
"                                                           ..*%..$*=====%+.$....                                                ",
"                                                           .%*..%>,,>,>>;=$.+...                                                ",
"                                                          ..=..%>,>>>>>>>;=+.+...                                               ",
"                                                          .*$..;,>>,>>>>>>>%.....                                               ",
"                                                         .+=..%>>>>>>,,,,>>;+.$...                                              ",
"                                                 ....... .*+..*,>>>>,,'',,,;%.*...                                              ",
"                                              ...+%%*%*%%**..+;>>;,,,''''',,*.$%.. .........                                    ",
"                                            ...**$....%**=$...=>>>>,'')!)'',*..=......$%%$....                                  ",
"                                           ..%*....+$$........;>>>,,'!!!!)''=..*$.........+$...                                 ",
"                                          ..*$.+%*=;;;*$......=>>>,'))!!!)',;..%+....+$$$$+.$...                                ",
"                                         ..*%.$=>,,>;>;=+.....;>>,,')!!!!)''=..$....%=;;;;*%.$...                               ",
"                                         .$=.+=,,,,>>;>;*.....=;>>,'))!!!!))=......$;;>>>>;;%....                               ",
"                                        ..*..*,,,>,>>>>;=.....=>>>,'))!!))''=.....+=;>>>>>;;;.%...                              ",
"                                        ..*..;,,>>>,,,>,=.....-;>,,')!!!!)')*.....*>;>;>>>>>;.%...                              ",
"                                        ..*..;>>>>,,,,,,;+....=;>,,))!!!))''=.....=>;>>>,,>>>.+$..                              ",
"                                        ..$..;>>>,,,,'''>+....=>>>,')!!!!!''=....+;>>;>,,,,,>..=..                              ",
"                                        ..+..;>>>,,''')',$....=;>,,'))!!!')'*.+..$;;>>>,''',,..=..  ......                      ",
"                                        ..+..;>>>,'')')!'*.+..->>,,')!!!!'''=.+..*,;>>,,'''',..*%...........                    ",
"                                        ..+..;>>,,')))))'%.$..=>>>'')!!!)'''=.$..*>;>,,'))'''..%*......$%$...                   ",
"                                        ..$..;;>>,'))))))*.$..*>>>,')!!!!'''=.$..*>>>,,')))''..$%......+..$...                  ",
"                                        ..+..;>,,,'!)))))%.%..=>>,,')!!!))''=.%..*>>>,''))))'...+...+%===%.$...                 ",
"                                        ..+..;>>>,')!)')'*.%..->>,,''!!!!'',=.%..*>>>,'')!)))......$=;>>;=%....                 ",
"                                        ..$..;>>,''))))))%.%..=>>>,')!!!)))'=.%..*>>>,')!)!))......*;>;;;;=.$...                ",
"                                        ..$..;>>,,')))))!%.%..=>>,,')!!!)),'=.%..*>>>,'))!))).....$;;>>;;;=.%...                ",
"                                        ..+..;>>,,'))))))*.%..=>>>''))!!!'''=.%..*>>>,')!)!!).....=;>>;>;;=.$...                ",
"                                        ..+..;>>,,')!))')%.%..->>,,')!!!)!',=.%..*>>>,'')!))!.....;>;>>>>;;.$...                ",
"                                        ..$..;>>,,'!))')!%.%..=>>>,')!!!))''=.%..*>>>,'')))!!.....>>;>>>>;;.$...                ",
"                                        ..+..;>>,,')!)))!%.%..->>,,')!!!!'',=.%..*>>,,')!!!)).....>>>>>>>>;.+...                ",
"                                        ..+..;>>,,')))))!*.%..=>>,,'))!!))''=.%..*>>>,'))!)!!.....>>;,,>>>;.+...                ",
"                                        ..$..;>>,''))))')%.%..=>>,,')!!!))''=.%..*>>,,'))!!)!.....>>>>,,>>;.+...                ",
"                                        ..+..;>>>,'!)))))*.%..=>>>,''!!!!)''=.%..*;>>,'')!!)).....>>>,,,,>;.+...                ",
"                                        ..$..->>,,')))!')%.%..->>,,'!)!!)'',=.%..*>>>,')!))!!.....>>>>,,>>;.+...                ",
"                                        ..$..;>>,,'))))')*.%..=>>>,')!!!!')'=.%..*>>>,'))!!)!.....>>>,,,,>;.+...                ",
"                                        ..+..;>>,'')!)))'%.%..=>>,,''!!!!'',=.%..*>>,,''!!)!!.....>>>,,,,>;.+...                ",
"                                        ..$..;>>,,')))'!)*.%..=>>,,)))!!!'''=.%..*>>>,')!)!!).....>>>,,,,>;.+...                ",
"                                        ..+..;>>,,')))!')%.%..->>,,')!!!))),=.%..*>>,,'')!))!.....>>>,,'>>;.+...                ",
"                                        ..+..;>>,,))!)))!%.%..=>>>,'))!!!'''=.%..*>>>,''!)!)).....>>>,,,,>;.+...                ",
"                                        ..$..>->,,')))))!%.%..=>>,,')!!!!'''=.%..*>>>,'))!)!!.....>>>>,,,>;.+...                ",
"                                        ..+..;,>,,'))))))*.%..=>>>,')!!!)'''=.%..*>>,,''!!!)!.....>>>,,,,,;.+...                ",
"                                        ..$..;>>,,')!)!)'*.%..->>,''))!!!'''=.%..*>>>,'')!)!).....,>>,,,,>;.+...                ",
"                                        ..$..;>>,,')!)))!%.%..=>>,,'))!!)!''=.%..*>>,,'))!)!!.....>>>,,,,>;.+...                ",
"                                        ..+..;>>,''))!!)!*.%..=>>>,')!!!!)''=.%..*>>>,'')!!)!.....>>>>',>>;.+...                ",
"                                        ..+..;>>,,')!!)!!%.$..=>>,,')!!!!)))=.%..*>>,,')!!)!!.....>>>,,,,>;.+...                ",
"                                        ..$..;,-,'')!!!!!*.$..->>,,'))!!!))'=.%..*>>>,'')!)!!.....>>>,,,,>;.+...                ",
"                                        ..+..;>,,'')!!!!!*.+..=>>,,')!!!!)))=.$..*>>>,'))!!!!.....>>>,,,,>;.+...                ",
"                                        ..$..;>>>,'))!!!)*....=>>,,')!!!!!!!=....*>>>,')!)!!!.....>>>,,,,>;.+...                ",
"                                        ..+..;>>,,))!!!!!*....=>>,,')!!!!!!!=....*>>>,')!!!!!.....>>>,,,,>;.+...                ",
"                                        ..$..;>>,'')!!!!!=....;>>>,'))!!!!!!;....->>,,'))!!!!.....>>>,,,,>;.+...                ",
"                                        ..+..;>>,,')!!!!!;...$>>>>,')!!!!!!!,+...*,>>,'))!!!!.....>>>,,,>>;.+...                ",
"                                        ..$..;>>,,')!!!!!,$..*>>>,,')!!!!!!!'%..$;>>>,')!!!!!+....>>>,,,,>;.+...                ",
"            .........                   ..+..;>>,,')!!!!!)*.$;>,>,'')!!!!!!!'%..*,>>,,,)!!!!!$....>>>,,,,,;.+...                ",
"           ..$%%%$$.....                ..$..;>>>'')!!!!!);+%>,>>,'')!!!!!!!!=++;,>>,,')!!!!!*...$>>>>,,>>;.+...                ",
"          .$=%.....$%....               ..+..;>>,,))!!!!!!);;,,,,,''!!!!!!!!!,==>,,>,,))!!!!!=...*>>>>,,,>;.+...                ",
"         .%=....+$+..++...              ..+..;>>>'')!!!!!!!!'',,,,'))!!!!!!!!!!'',,,,'')!!!!!;+.$;>>>,,,,>;.+...                ",
"        .**..%=;>;;*+......             ..+..;>>,,')!!!!!!!))'',,'')!!!!!!!!!!!''',,'''!!!!!!,$$=,,>>,,,,>;.+...                ",
"       .$*..*;,>>>;;=+.....             ..+..->>>'')!!!!!!!!))'''')!!!!!!!!!!!!)''''''))!!!!!!,;,,,,,,,,,>;.+...                ",
"       .=.+*>,,>>>>;;=+.....            ..+..;,>,,))!!!!!!!!!)!')))!!!!!!!!!!!!))''')!!!!!!!!!!!'',,,,,,,,;.+...                ",
"      .$$.%>,,>>>>>>>;;$.....           ..+..;>>>,'))!!!!!!!!))!)!)!!!!!!!!!!!!!!!))!)!!!!!!!!!)'',,,'',,>;.+...                ",
"      .*.+;,>,>,,,>,>>>;$......         .+...;>>,,))!!!!!!!!!!)!!!!!!!!!!!!!!!!!)!)!)!!!!!!!!!!))'''''),,>;.+...                ",
"      .%.%;,>>>>,,,',,>>;$..$...        .%...;>>,'')!!!!!!!!!!!!!!!!!!!!!)))!!!!!!!!!!!!!!!!!!!!)))'))'',>;.....                ",
"      .%.*,>,>,,,'')'',>>>$..%...       .%..$>>>>,')!!!!!!!!!!!!!!!!!!'------,'!!!!!!!!!!!!!!!!!!)))!)'',,;.+...                ",
"      .%.=;>,>,,)')!!))',>>%..%...     .%...->'-,'')!!!!!''-;;-;-;-!!--&######&-'!!!!!!!!!!!!!!!!!!!!))',,;.....                ",
"      .*.=>;>>,'')!!!!)'',>;%..$...    $=..%;>>,','!))'>-*%++.......@@#####@@@&#-,'!!!!!!!!!!!!!!!!!!))',>;.+...                ",
"      .*.*;>;,,')!!!!!!)'',>;%..$...  .*...;>>>>,''),;*$.$*%%$+..+$@##########@@#&,))!!!!!!!!!!!!!!!!!)',,;.....                ",
"      .%.$*;;>,''!!!!!!!!'',>;$..$*.......*>>>,>,',-%.%**.........@@@#&->--&###@@@-,'))!!!!!!!!!!!!!!!)',>>.....                ",
"      ..*..$;>>,')!!!!!!!!)''>>$...=*%...$>,>>>,,>*.*=$....$%*===*@##-,>-&&#&###@@@-'')!!!!!!!!!!!!!!!)',>;.....                ",
"      ...%..$;>,')!!!!!!!!!)',>;$...%%...*>,>>>;-+%=...+$*;;>,>>;&##->-&&#######@@@&,,'!)!!!!!!!!!!!!!)',,;.....                ",
"       ...+..$;>,'))!!!!!!!))',,;$.......%>>>>>%+*%..+*;>,,,,,,,-###-)&&#########@@@-,'')!!!!!!!!!!!!))',>>.....                ",
"       .......$;>,'')!!!!!!!)'',,>+.......=>>;%$*..+*;>,>,>>>>>>-@##--&#########@#@@-,,,'!!!!!!!!!!!!!)''>>+....                ",
"         ......%>>,'')!!!!!!!!)',,>+......$*%$.*..$=>,,,,>>,>,,,-###--###########@@@&>-,''!!!!!!!!!!!!)',>>+....                ",
"          ......%;>,'')!!!!!!!!)'',>+............%;,,,,>>,,,,,,,-@##-&##########@@@@$%*-;-;>>,)!!!!!!!)',>>+.+..                ",
"           ......*;>,'))!!!!!!!!)!''>+...$$.....$;,,,>,>>,,,,',,-###&&###########@@@@....+..$%=-;>,)!!'',,;+.+..                ",
"           .......*;>,')!!!!!!!!!!)''>+........+=,,,>>,,,,'''')'-@##############@@@@......$$+..+$$%;)!'',>;+.+..                ",
"            .......*>>,')!!!!!!!!!!!),>+.......*>,>>,>,,'''))!!!>@##############@@@@+.+............*')'',,;.+...                ",
"             .......*;,,')!!!!!!!!!!)''>.......;;>,>>,,''))!!!!!'&@############@@@@...%%%$$$+......%''',,>=.+...                ",
"              .......*;>,')!!!!!!!!!!)),>$$...*>>;>>,,'')!!!!!!!!-@@@#########@@@@#...%=;;;;;=*%$+$;,',,,>;.$...                ",
"               .......-;,,')!!!!!!!!!!))',;$.$;;>>>,,''!)!!!!!!!!)-@@@#####@#@@@@@&...$=;;>>>>>;;;;>,,,,,>=.%...                ",
"                .......=>>''!!!!!!!!!!!)))';*=;>;>>,,')!!!!!!!!!!),&@@@@@@#@@@@@@&*+...*;;;>,>>>>>>>,,>,>>=.%...                ",
"                 .......=>,''!!!!!!!!!!!))''>,>>,>,,')!!!!!!!!!!!!)>-@@@@@@@@@@@$-=$..+*;>>>,,,,,,,>,,,,>>*.%...                ",
"                  .......->,''!!!!!!!!!!!))'',,,>,,'))!!!!!!!!!!!!!',-&@@@@@@.&-;;;*...*;;>,,,,,,,,,,,,,>>%.%..                 ",
"                   ......$;,,')!!!!!!!!!!!))'',,,'''!!!!!!!!!!!!!!!)',>;-*&&-==;;;;*.+.%;;,>,'')'','',,,,>%.%..                 ",
"                    ......=-,,')!!!!!!!!!!!!)''''')))!!!!!!!!!!!!!!!)',>>;;;;;;;>>>=.$.$;>,,')'))))')'',,>+.+..                 ",
"                     ......*>>'')!!!!!!!!!!!!)!)!'))!!!!!!!!!!!!!!!!))',,,>>>>>>>>>;+%.$;>,,''!!!)!)))',,;.$...                 ",
"                      ......*>,')!!!!!!!!!!!!!!))!!!!!!!!!!!!!!!!!!!!))'',,>>,>>>,,;+%..;>,,'))!!!!!!)'',;.%...                 ",
"                       ......-;'')!!!!!!!!!!!!!!!!!!!!!!!!!!!!!!!!!!!!))''',,,,,,'';$%.+;>>,'')!!!!!!!'',;.%...                 ",
"                        ......->,')!!!!!!!!!!!!!!!!!!!!!!!!!!!!!!!!!!!!!))')'''''''>$%.+->,,''!!!!!!!)',>*.%...                 ",
"                         ......=>,')!!!!!!!!!!!!!!!!!!!!!!!!!!!!!!!!!!!!!!))))'))!)>$%.+;,,,,')!!!!!!)',>$.$..                  ",
"                          .....$-,,'!!!!!!!!!!!!!!!!!!!!!!!!!!!!!!!!!!!!!!!!!!!)!!!,$%..;>>,'')!!!!!))',;+$...                  ",
"                          ......*;,'')!!!!!!!!!!!!!!!!!!!!!!!!!!!!!!!!!!!!!!!!!!!!!,$*.+;>,,,')!!!!!)',,;.*...                  ",
"                           ......=-,')!!!!!!!!!!!!!!!!!!!!!!!!!!!!!!!!!!!!!!!!!!!!!>$%.+;>>,,')!!!!!!',>=.*..                   ",
"                            .....+=,,')!!!!!!!!!!!!!!!!!!!!!!!!!!!!!!!!!!!!!!!!!!!!;+%.$;>>,,))!!!!))',;%.*..                   ",
"                             .....$->,'!!!!!!!!!!!!!!!!!!!!!!!!!!!!!!!!!!!!!!!!!!!)=%..*-,,,''))!!!)',,;.%...                   ",
"                              ..+..*;,,')!!!!!!!!!!!!!!!!!!!!!!!!!!!!!!!!!!!!!!!!!,%*..*,,>,,')!!!!)',>=.*...                   ",
"                              ......%-,')!!!!!!!!!!!!!!!!!!!!!!!!!!!!!!!!!!!!!!!!!;+*.+;,>,,'')!!!)',,;*.*..                    ",
"                               ......=>,')!!!!!!!!!!!!!!!!!!!!!!!!!!!!!!!!!!!!!!!,**..*,,>,,'')!!))',>;+*...                    ",
"                                ..+..$;-,')!!!!!!!!!!!!!!!!!!!!!!!!!!!!!!!!!!!!!';+*..;,>>,,''!!!!',,;*.=...                    ",
"                                ...+..$>,,))!!!!!!!!!!!!!!!!!!!!!!!!!!!!!!!!!!!!>$+..*>,>>,,'!)!)'',>=.*....                    ",
"                                 ......;-!-))!!!!!!!!!!!!!!!!!!!!!!!!!!!!!!!!!!,*....=,,>,,,'))))',>;$.=...                     ",
"                                  .....$=,!!'!!!!!!!!!!!!!!!!!!!!!!!!!!!!!!!!!!,$...*>,,>,,'')))',,;*.*...                      ",
"                                  ...+..$-'-'))!!!!!!!!!!!!!!!!!!!!!!!!!!!!!!!!'*+.*>,,>>,,')))',,;;.%*...                      ",
"                                   ......$;,''))!!!!!!!!!!!!!!!!!!!!!!!!!!!!!!!!,;;>,,,>,,,'')'',>;%.=...                       ",
"                                    ......$=-,!-!!!!!!!!!!!!!!!!!!!!!!!!!!!!!!!))''',,,'-,')'',,>;%.=...                        ",
"                                    ....+..+%;,!!)!!!!!!!!!!!!!!!!!!!!!!!!!!!!!!))'',,>,'',,,'-'-+.=....                        ",
"                                     ....+...$=!-')))!!!!!!!!!!!!!!!!!!!!!)!))''''',,,>,!-',',>*..=....                         ",
"                                      ........$;'''')!!!!!!!!!!!!!!!!!!!)))'''''',,,>,>>,''>>=%.%=....                          ",
"                                       ........+--,!-'))!!!!!!!!!!!!)!)'''',,>;>;>;;-;-=;-;-*+.**....                           ",
"                                        .........$=,'!,!'))!!!)!!!))'')',,>;-%.+.++++++.....+*=.....                            ",
"                                          .........*;-)-''''''))''''',,>;-%++........$$%%%**%.....                              ",
"                                           ..........$*;,-!''''''-!,,,-%.+..+%*$.................                               ",
"                                             .....+....+%*-;-,-,,>,-;=$..$**$...................                                ",
"                                               ............++%%$$%%...+*=%..................                                    ",
"                                                 ........++.......+%*=*..........                                               ",
"                                                  ............++++...........                                                   ",
"                                                     .....................                                                      ",
"                                                          .............                                                         ",
"                                                                                                                                ",
"                                                                                                                                ",
"                                                                                                                                ",
"                                                                                                                                ",
"                                                                                                                                ",
"                                                                                                                                ",
"                                                                                                                                "};
