/* XPM */
char * panrealtime_xpm[] = {
"128 128 17 1",
" 	c None",
".	c #000000",
"+	c #171917",
"@	c #262825",
"#	c #353735",
"$	c #424442",
"%	c #545653",
"&	c #646663",
"*	c #7B7D7A",
"=	c #8B8D8A",
"-	c #9EA09D",
";	c #ACAEAB",
">	c #C1C3C0",
",	c #CCCECB",
"'	c #DADDDA",
")	c #EBEEEB",
"!	c #FBFEFA",
"                                                                                                                                ",
"                                                                                                                                ",
"                                                                        ........                                                ",
"                                                                      ...+##+......                                             ",
"                                                                    ...%%+.....$@....                                           ",
"                                                                   ..%%..........%....                                          ",
"                                                                  ..&$..@&=====$+.@....                                         ",
"                     .....                                        .%&..%,,,,>>,;*@.@...                                         ",
"                    ......                                       ..*..$>,,,,,>,;>*+.+...                                        ",
"                    ......                                       .&@.+-,,,>,>,,,>;%.....                                        ",
"                    ..+...                                      .+*..$,,>>>,,,',,>-+.#...                                       ",
"                $#...+$.......                          ....... .&+..*,,>,,,')''',;$.%...                                       ",
"              &&%@..............                     ...+$%%&%%$&&...->,>>,''))))',&.#%.. .........                             ",
"             &#.... .............                  ...%&#....$%&=#...->>>,')))!))',*..*......@$$@....                           ",
"            &...    ......   ......               ..%&....+@+........->,,,'))!!!))'=..&#.........+@...                          ",
"          *%..      ......     .....             ..&#..$&----*@......=>>,'))!!!!!))=..$+....+###@+.@...                         ",
"          %..       ......       ....           ..&$.@=>,,,>>;=+.....=>>,')))!!!)))=..@....#=--;-*$.@...                        ",
"         &..        ......        ....          .@*.+=''',,>>;;%.....=>>,'))!!!!)))=......$=;>,>>;-%....                        ",
"        &..         ......         ...         ..&..&,',,,,>>>>*.....=;>,'))!!!!)))*.....+=>>>>>>>;-.$...                       ",
"        $.          ......          ...        ..*..-',,,,,,,,,-.....*>>,'))!!!!)))*.....&;>;>>,>>>;.$...                       ",
"       &..          ......          ...        ..%..;,,,>,'','';+....*>>,'))!!!!)))*.....=>;>>>,'>>>.@#..                       ",
"       &.           ......           @..       ..@..;,>,,'''')'>+....*>>,'))!!!!)')*....+->>>,,''',>..&..                       ",
"      .+.           ..+...           &..       ..+..;>>,,')))))'#....*>,,'))!!!!)))*....#;>;>,''))',..*..  ......               ",
"      ...           ..$...            ..       ..+..;>>,''))))))%.+..*>>,'))!!!!)))*.@..%>>>,,'))))'..*$...........             ",
"      ..            .@&...            ...      ..+..;>>,'))!))))%.@..*>>,'))!!!!)))*.@..%>>>,'))))))..$&......@$#...            ",
"  ...................&=.....................   ..+..;>,,'))))!))%.#..*>,,'))!!!)))'*.#..&>>>,'))!)')..@%......+..#...           ",
"  ....$............$*-*.............$%+.....   ..+..;>>,')!!)!))%.#..=>,,'))!!!))))*.$..&>,>,'))!))).......+%*=*$.@...          ",
"  ....+...........+$%&$.............@@......   ..@..;>,,'))!))!)%.$..*>>,,))!!!!))'*.$..&>>,'))!!!))......@*;>>;-$....          ",
"  ..........................................   ..+..;>,,'))!))!)%.$..=,>,'))!!!!)))*.$..%,>,')))!!!)......&;>;;;-*.@...         ",
"  ..........................................   ..+..->,,')!)!)))%.$..*>,,'))!!!!)))*.$..&>>,,')!!))!.....#->;>>;;=.$...         ",
"   ........................................    ..@..;>,,'))!)!))%.$..*>,,'))!!!)))'*.$..&,>,'))!!!!).....*;>>;>;--.@...         ",
"      ...           ......            ...      ..+..;>>'')))!)!)%.$..=>,,''!)!!!)')*.$..%,>,'))))!)!.....;>;>>>>;=.@...         ",
"      ...           ......           ....      ..+..;>>,')!)))))%.$..=>>,'))!!!))))*.$..&>,>,))!!)!!.....>>>>>>>>-.@...         ",
"      ...           ......           ...       ..@..;>>''))!!)!)%.$..*,,,''!)!!!)))*.$..%,>,'))!!!!!.....>>>>,,>>-.+...         ",
"      ....          ......           ...       ..+..;>,,'))!))!)&.$..*>,,'))!!!!)')*.$..&,>,')))!!)!.....>>>,,,,>-.+...         ",
"       ...          ......          #..        ..+..->>'')!)!)))%.$..=,>,'))!!!!)))*.$..&>,,,))!)!!!.....,>>>'',,;.+...         ",
"       ....         ......          ...        ..@..;>>,'))!)!))%.$..=>,>'))!!!))))*.$..&>>,'))!!!!).....,>,,',,,;.+...         ",
"        ...         ......         $..         ..+..;>,''))!))!)%.$..*,>,'))!!!)))'*.$..&>,,,'!)))!!.....>,>,'',,-.+...         ",
"         ...        ......         ...         ..@..;>>,'))!!)))%.$..=>,,'))!!!!)))*.$..&>,,'))!!!)!.....,>>,'',,;.+...         ",
"         ....       ......        ...          ..@..;>,'')!)))!)%.$..*>>,'))!!!!)))*.$..&>>,,))!!)!!.....>,,,'',,-.+...         ",
"          ....      ..#...      $...           ..+..->>,'))!!)))%.$..*,>,'))!!!))')*.$..&>>,')))!!)!.....,>,,'',,;.+...         ",
"           .....    ..%...    @....            ..+..;>,,')!)))!)%.$..=>,,'))!!!!)))*.$..&>,,,'!!)!!!.....>>,,'',,-.+...         ",
"             ...+%% .#&... .......             ..@..;>,,'))!!))!%.$..*>,,'))!!!!)))*.$..&>,,'))!!)!!.....,>,,'',,;.+...         ",
"              ..................               ..+..;>,,')!)!)!)%.$..=,>,''!)!!)))'*.$..%,>,,)))!!!).....>>,''',,-.+...         ",
"                ..............                 ..@..;>>'')))!)!)&.$..*>,,'))!!!!)))*.$..&>,,,))!)!!).....,>>,'',,;.+...         ",
"                   .........                   ..+..->,,')!!)!))%.$..=,>,'))!!!))))*.$..%,>,'))!)!!!.....,>,''',,-.+...         ",
"                    ......                     ..@..;>,,'))!)!!)%.$..*,>,')))!!!)))*.$..%,>,,))!!!!!.....,>,,'',,;.+...         ",
"                    ......                     ..@..;>>,'))!!!!!%.$..=>,,''!!!!!)))=.$..&>,,'))!!))!.....>>>''',,-.+...         ",
"                     .....                     ..+..;>,,'))!)!!!%.$..*>,,'))!!!)!))*.$..&>,,,)))!!!!.....,,>,'',,;.+...         ",
"                                               ..@..-,>''))!!!!!%.#..=,>,'))!!!!))!*.$..&>>,,))!!!)!.....>>,,'',,-.+...         ",
"                                               ..+..;>,,'))!!!!!%.+..*,>,'))!!!!!)!*.@..&>>,'))!!!!!.....,,,,'',,;.+...         ",
"                                               ..@..->,,')!!!!!!%....=>,,'')!!!!!!!=....&,,,,)))!!!!.....>>,,'',,-.+...         ",
"                                               ..+..;>>''))!!!!!&....=,>,'))!!!!!!!=....%>,,'))!)!!!.....>>,,'',,;.+...         ",
"                                               ..@..;>,,'))!!!!!=....;>,,'))!!!!!!!-....&,>,,))!!!!!.....,,,,'',,-.+...         ",
"                                               ..+..;>,,'))!!!!!;+..#>>,,'))!!!!!!!,+...*,,,,))!!!!!.....,>,,'',,;.+...         ",
"                                               ..@..;>>''))!!!!!,@..&>,>,'))!!!!!!!)#..@;>,,'))!!!!!+....,>,,'',,-.+...         ",
"                   .........                   ..+..;>,,'))!!!!!)%.@-,,,,'))!!!!!!!!%..&,,>,'))!!!!!#....,>,,'',,;.+...         ",
"                  ..@%$##@.....                ..+..->>'')!!!!!!!-+$,,,,,)))!!!!!!!)*+@;,,,,,))!!!!!%...+,>,,,',,-.+...         ",
"                 .@*%.....@%....               ..@..;>>,'))!!!!!!);;'',,'))!!!!!!!!!,**,,,,''))!!!!!*...&,>,,'',,;.+...         ",
"                .%*...++@+..++...              ..+..;>,,'))!!!!!!!!)''''')))!!!!!!!!!!))'',')))!!!!!;+.@>,>,,,',,-.+...         ",
"               .%&..$*;;>-&.......             ..+..;>,,)))!!!!!!!)!)'''))!!!!!!!!!!!!))'''')!)!!!!!'#+=,,>,','',;.+...         ",
"              .#*.+%>,,>>>;=+.....             ..@..;>>,')!!!!!!!!!))))))))!!!!!!!!!!!))))')))!!!!!!!,>'',,','',,-.+...         ",
"              .*..&>,,,>>>;;=+.....            ..+..;>,,'))!!!!!!!!!)))))!!!!!!!!!!!!!))))))!)!!!!!!!!))'',''''',;.+...         ",
"             .#@.%>',,,,>>>>;-#.....           .....;>,,'))!!!!!!!!!!!!)!!!!!!!!!!!!!!!!)!)!)!!!!!!!!!)))'''')',,-.....         ",
"             .%.+-,,,,>,,,,,>;;#......         .+...;>,,'))!!!!!!!!!!)!!!!!!!!!!!!!!!!!!!)!!!!!!!!!!!!!)))))))'',;.+...         ",
"             .$.$>',,,,''')'',>;@..@...        .$...;>,,'))!!!!!!!!!!!!!!!!!!!!!!!!!!!!!!!!!!!!!!!!!!!!!))))))'',;.....         ",
"             .#.&,,,,,''))))'',,;$..#...       .%..@>>,,)))!!!!!!!!!!!!!!!!!!!!!!!!!!!!!!!!!!!!!!!!!!!!!)!))!)'',;.+...         ",
"             .$.*>>>,,')))!!))',>>$..$...     .%...&,>,,'))!!!!!),>;--=---!!!!!!!!!!!!!!!!!!!!!!!!!!!!!!!!!!!))',;.....         ",
"             .&.*>>>,'')!!!!!))),,>$..#...    #*..$>,>,,)))!!',-&#..........+#=>'!!!!!!!!!!!!!!!!!!!!!!!!!!!!)'',;.+...         ",
"             .&.&;;>,,))!!!!!!!)',>>#..#...  .%..+->,>,'')),-&@.#%%$@+..+@#$@..+%-')!!!!!!!!!!!!!!!!!!!!!!!!!))',;.....         ",
"             .#+#*-;,,))!!!!!!!!))',;#..@%.......&>,,>,')'-$.$&&.............+#..+%;'!!!!!!!!!!!!!!!!!!!!!!!!)'',;.....         ",
"             ..&..@->,'))!!!!!!!))),,>@...*&$...#>,,>,,,>%+%*@...+@%&*=****%@...+..+&;)!!!!!!!!!!!!!!!!!!!!!!))',;.....         ",
"             ...$..@;>,))!!!!!!!!))),,>@...$&...&,,,>,>*@#*+..+#&=;>,,,,,,,>-=$+..+..#*,)!!!!!!!!!!!!!!!!!!!!))',>.....         ",
"              ...+..#;,,)))!!!!!!!!)),>>@.......$;,>,;%.&&..@%=;,'',,,',,,,,,,>*%......%>))!!!!!!!!!!!!!!!!!!)'',;.....         ",
"              .......#;,'))!!!!!!!!)))',>+......+*>>-$@*..+$;,''',,,,,,,,,,,,,,,;*#..+..%>))!!!!!!!!!!!!!!!!!!'',>+....         ",
"                ......$;>,)))!!!!!!!!))''>+......#%%#+$..#=,'',,,,,,,,,''''''''',,;&@.+..%>,')!!!!!!!!!!!!!!!))',>+....         ",
"                 ......$>,,))!!!!!!!!)!))'>+............#;''',',,,'''''')))'))')'',,=#.@#.#%&*=-;;>,')!!!!!!!))'>>@.+..         ",
"                  ......$>,,)))!!!!!!!!)))'>+...@#.....#-'',,,,,,'''')))))!)))))))'''-#.@&.......++@$*->,')!!)'',;+.+..         ",
"                  .......%>>'))!!!!!!!!!!!)'>+........+-,',,,,,'''))))!))!!!!))!)))'),-#.+*+.....+@+...+@$;)!))',;.....         ",
"                   .......%;,,)))!!!!!!!!!!))>+.......%>,,,,,,''))))!!!!!!!!!!!!!!!)))'=+..@..+...........%)))',,-++...         ",
"                    .......&>,')!!!!!!!!!!!))'>......+=>,>,,,')))!)!!!!!!!!!!!!!!!!)))),*...+$&%$##+......%)))''>-.+...         ",
"                     .......%>>'))!!!!!!!!!!!));#@...&>>>>,'''))!!!!!!!!!!!!!!!!!!!!!!))>$...%;;;;--=&$@+#='''',,=.@...         ",
"                      .......&>,'))!!!!!!!!!!)))';#.@-;>>>,'))!)!!!!!!!!!!!!!!!!!!!!!!!!)=...#->>,>,,>;;--,'',,,,=+#...         ",
"                       .......*>,)))!!!!!!!!!!!))';&=>>>>,''))!!!!!!!!!!!!!!!!!!!!!!!!)!)>@..+=>>>,>,,,>,,,,,',,>*.$...         ",
"                        .......=>,))!!!!!!!!!!!)))',,>>>,,')))!!!!!!!!!!!!!!!!!!!!!!!!!!!,$...*>>>,,,',,,,,',,',>&.%...         ",
"                         .......-,,))!!!!!!!!!!!!))'',,,''))!!!!!!!!!!!!!!!!!!!!!!!!!!!!!)*...&>>,,'''')'''''',,,%.$..          ",
"                          ......+;,'))!!!!!!!!!!!))))'''')))!!!!!!!!!!!!!!!!!!!!!!!!!!!!!)=++.$>>,,')))))')'''',,#.$..          ",
"                           ......&>,'))!!!!!!!!!!!)))))')))!!!!!!!!!!!!!!!!!!!!!!!!!!!!!!!;.#.#;>'''))))))))))',>+.+..          ",
"                            ......&;,))!!!!!!!!!!!!!))!))!!!!!!!!!!!!!!!!!!!!!!!!!!!!!!!!!>+$.@-,,'))!!!!!!)))),;.@...          ",
"                             ......&>,))!!!!!!!!!!!!!!!!!!)!!!!!!!!!!!!!!!!!!!!!!!!!!!!!!!,@#.+-,,''!)!!!!!!))',;+$...          ",
"                              .....+&>'')!!!!!!!!!!!!!!!!!!!!!!!!!!!!!!!!!!!!!!!!!!!!!!!!!,#$.+-,''')!!!!!!!!)',=.%...          ",
"                               ......*>'))!!!!!!!!!!!!!!!!!!!!!!!!!!!!!!!!!!!!!!!!!!!!!!!!,#$.+-,,,)))!!!!!!))''&.$...          ",
"                                .....+*,'))!!!!!!!!!!!!!!!!!!!!!!!!!!!!!!!!!!!!!!!!!!!!!!!,#$.+-,,''))!!!!!!))'>#.@..           ",
"                                 .....+-,')!!!!!!!!!!!!!!!!!!!!!!!!!!!!!!!!!!!!!!!!!!!!!!!,@%.+-,,,)))!!!!!!)'';.#...           ",
"                                 ......%>,'))!!!!!!!!!!!!!!!!!!!!!!!!!!!!!!!!!!!!!!!!!!!!!,#%.+-,,,')!!!!!!!)',-.&...           ",
"                                  ......*>,))!!!!!!!!!!!!!!!!!!!!!!!!!!!!!!!!!!!!!!!!!!!!!,+%.+;,,''))!!!!!))',*.&..            ",
"                                   ......*,,))!!!!!!!!!!!!!!!!!!!!!!!!!!!!!!!!!!!!!!!!!!!!>+#.@;,,''))!!!!))),>$.%..            ",
"                                    .....@-,'))!!!!!!!!!!!!!!!!!!!!!!!!!!!!!!!!!!!!!!!!!!)*$..$>,,,'))!!!!))',;+$...            ",
"                                     ..+..%;,')!!!!!!!!!!!!!!!!!!!!!!!!!!!!!!!!!!!!!!!!!!'$*..*,>,,'))!!!!!)'>*.*...            ",
"                                     ......$;,))!!!!!!!!!!!!!!!!!!!!!!!!!!!!!!!!!!!!!!!!!=@%.@;,,,')))!!!))',>%.&..             ",
"                                      ......*>'))!!!!!!!!!!!!!!!!!!!!!!!!!!!!!!!!!!!!!!!)$&..&>,',,))!!!!)''>-+%...             ",
"                                       ..+..@=>'))!!!!!!!!!!!!!!!!!!!!!!!!!!!!!!!!!!!!!!-@%.+-',,,,)))!!))'>>&.*...             ",
"                                       ...+..#;,')!!!!!!!!!!!!!!!!!!!!!!!!!!!!!!!!!!!!)>#+..%>',,''))!)!)),>*+%+...             ",
"                                        ......*,,)))!!!!!!!!!!!!!!!!!!!!!!!!!!!!!!!!!!)%...+=,,,,,'))!!))',-@.*...              ",
"                                         .....@=>'))!!!!!!!!!!!!!!!!!!!!!!!!!!!!!!!!!!,#...%,',,,')))!))',>%.*...               ",
"                                         ...+..@=,'))!!!!!!!!!!!!!!!!!!!!!!!!!!!!!!!!!'&.+&>'',,,')))))',>=.$%...               ",
"                                          ......@=>'))!!!!!!!!!!!!!!!!!!!!!!!!!!!!!!!!)'--,',,,'''))))),,;$.*...                ",
"                                           ......#*;'))!!!!!!!!!!!!!!!!!!!!!!!!!!!!!!!!!)))'',,,'')))',>-%.=...                 ",
"                                           ....+...$=,)))!!!!!!!!!!!!!!!!!!!!!!!!!!!!!)))))',,','')'',>*@.*....                 ",
"                                            ....+...#=,'))!!!!!!!!!!!!!!!!!!!!!!!!!))))))'''',,,,'',>>*..*....                  ",
"                                             ........@-,''))!!!!!!!!!!!!!!!!!!!))))))))''',,,,,,,,,>-$.$=....                   ",
"                                              ........+*;''))))!!!!!!!!!!!!!))))))''>;>;>;;---=---=%+.&%....                    ",
"                                               .........@*>''))))!!!!!))!))!))'''>;=$++++++........@&*.....                     ",
"                                                 .........%=;,')))))))!))))'''>;=$+........+@#$$&&&$.....                       ",
"                                                  .........+@&=>,''))')'''',,-#+...+%%#.................                        ",
"                                                    .....+.....#&=-;>,>>>>;-*@..@&&@...................                         ",
"                                                      .............+#@###$+..+&*$..................                             ",
"                                                        ........+++......+$**%..........                                        ",
"                                                         ............+++............                                            ",
"                                                            .....................                                               ",
"                                                                 .............                                                  ",
"                                                                                                                                ",
"                                                                                                                                ",
"                                                                                                                                ",
"                                                                                                                                ",
"                                                                                                                                ",
"                                                                                                                                ",
"                                                                                                                                "};
