/* XPM */
char * panup_xpm[] = {
"128 128 17 1",
" 	c None",
".	c #000000",
"+	c #171917",
"@	c #262825",
"#	c #363836",
"$	c #454744",
"%	c #565855",
"&	c #696B68",
"*	c #7C7E7B",
"=	c #8D8F8C",
"-	c #A0A29F",
";	c #AEB0AD",
">	c #C0C3BF",
",	c #CDD0CC",
"'	c #DBDEDA",
")	c #EAECE9",
"!	c #FAFCF9",
"                                                                                                                                ",
"                                                                                                                                ",
"                                                                                                                                ",
"                                                                                                                                ",
"                                                                                                                                ",
"                                                                                                                                ",
"                                                                                                                                ",
"                                                   ......                                                                       ",
"                                                ....++......                                                                    ",
"                                              ...%%@...#%@...                                                                   ",
"                                             ..%%....+@@.@$...                                                                  ",
"                                            ..&#.+#&=--=&@.#...                                                                 ",
"                                           ..%$.@=>,,,>>;*++...                                                                 ",
"                                           .@=.+=,'',,>;;-$.+...                                                                ",
"                                          ..&..&,',,,,,>;;&.@...                                                                ",
"                                          ..&..-,,,>,>,,>;*.....                                                                ",
"                                          ..%..;,>,>,,',,,=+....                                                                ",
"                                          ..@..;,>,,''')',;.....                                                                ",
"                                          ..+..;>>,,')))''>@.+..                                                                ",
"                                          ..+..;>>,,')))''>$.@..                                                                ",
"                                          ..+..;>>,'))!))',$.#..                                                                ",
"                                          ..+..;>>,'))!))''#.#..                                                                ",
"                                          ..+..;>>,'))!))',$.$..                                                                ",
"                                          ..+..->,,')!!))',$.$..                                                                ",
"                                          ..@..;>>,'))!))',$.$..                                                                ",
"                                          ..@..;>,,')!)!)',$.$..                                                                ",
"                                          ..+..;>>''))!))',$.$..                                                                ",
"                                          ..@..->>,'))!))',#.$..                                                                ",
"                                          ..@..;>>,'))!))',$.$..                                                                ",
"                                          ..+..;>,,')!!))',#.$..                                                                ",
"                                          ..@..;>>,'))!))',$.$..                                                                ",
"                                          ..+..->,,')!)!'',#.$..                                                                ",
"                                          ..+..;>>'')!)!),,$.$..                                                                ",
"                                          ..@..;>>,'))!))',$.$..                                                                ",
"                                          ..+..;>>,')!))),,$.$..                                                                ",
"                                          ..@..;>>,'))!!)',#.$..                                                                ",
"                                          ..+..;>,,'))))),,$.$..                                                                ",
"                                          ..@..;>>,))!!))',#.$..                                                                ",
"                                          ..+..;>>,'))!))',$.%..                                                                ",
"                                          ..@..;>,,')!!))',$.%..                                                                ",
"                                          ..+..;>>''))!))),$.&..       ..                                                       ",
"                                          ..@..->>,'))!!)''$.%$.   ...........                                                  ",
"                                          ..+..;>>,')!)!))'$.$&.....@$$@@#$+...                                                 ",
"                                          ..@..;>>,'))!!)))%.+*.............#...                                                ",
"                                          ..+..;>,,')!!!)))%..&......@&*=&%@.+%....  ........                                   ",
"                                          ..@..;>>,'))!!!!)$..@....#&->,,,;-%.+*.......#%$+...                                  ",
"                                          ..+..;>,,')!!!!!)#.....+%->>,,,,>>;%.+*@.........#....                                ",
"                                          ..@..;>>,'))!!!!)#.....&;;>>>>,,,,,;@.#$....+%*&$..$...   ........                    ",
"                                          ..@..;>,,)))!!!!!#....@->>>>,,,,,,',%.....+%=;,>;%+.&......@%%%$+....                 ",
"                                          ..+..;>>,')!!!!!!%....%;;;>>,,')'))'=.....&;,,,,>;*+.*$..........$....                ",
"                                          ..@..;>,,'))!!!!!*....->>>>>,'')))));....+->>>>,,>;&..&+...$**&%@.#...                ",
"                                          ..+..->>,')!!!!!!-...+;>;>>''))!)!!!'+...#;>;>,>,',-#.....%;>,,;-&+@...               ",
"              .........                   ..+..;>>,'))!!!!!;...@;>>>,')))!!!!!)#...%;>>>,,''),*.....->,>,;;-%....               ",
"             ..@%$##@.....                ..@..;>,,')!!!!!!;+..#;>,,,'))!!!!!!!$...&>;>>,''))),+....>,>>>>;;&.#..               ",
"            .@*%.....@%....               ..+..;>>,'))!!!!!;++.#;>>,'))!!!!!!!)&...*>>,,'))))!)%...@;>>,>>>;*.$...              ",
"           .%*....+@+..++...              ..+..->,,')!!!!!!;.@.$;>,,')!!!!!!!!)&+..*,>>,'))!!)!*...@-;>>,>>>=.$...              ",
"          .%&..$*;;;-&.......             ..@..;>>'')!!!!!!;.#.%;,,,'))!!!!!!!)%@..=,,,,))!!!!!;+..+=>>>,>>>-.#...              ",
"         .#*..%>,,,>>;=+.....             ..+..;>>,'))!!!!!;.$.%>,,'')!!!!!!!!'$$.+=>,,'))!!!!!>+..+->>,,,,>-.@...              ",
"         .*..&>,,>>>;;;=+.....            ..+..;>>,')!!!!!!-.%.%>,>'))!!!!!!!!'$$..->,,,))!!!!!>+@.+-,>,,,,>;.+...              ",
"        .@#.%>',,,>,>>;;-#.....           .....;>,,'))!!!!!;.&.%>,,,'))!!!!!!!,$$.+=,,,'))!!!!!;+@.#;>,,,',>-.+...              ",
"        .%.+=,,,,,,,',,>;;#......         .+...;>>,')!!!!!!;.*.@-,,,))!!!!!!!!,#%.+-,,,'))!!!!!-.+.$>,>',',,;.+...              ",
"        .$.$>',,,,,''''',;;@..@...        .#...>>,,'))!!!!!>+&#.%;,''))!!!!!!!,@%.+->,,')!!!!!)*@..*>>,,',,,-.....              ",
"        .#.&>,>>,'')))))',>;$..#...       .%..@>>>'')!!!!!!)%$&..$-,')!!!!!!!!,#&.+-,,,'))!!!!)%$..=,,,,,',,-.+...              ",
"        .$.*>>,,,'))!!)))),,;$..$...     .%...&,>>,'))!!!!!)-**...#*=))!!!!!!!,$&.+-,,,')!!!!!'#&..-,,,,','>;.@...              ",
"        .%.*>;>,,))!!!!!))',>>#..#...    #*..#;>,,,))!!!)>-&%%+.........$=;'!!>*%.+-,,,'))!!!!,@&.+-,,,,'',,;.#...              ",
"        .&.&>;>>'))!!!!!!!)),,>#..#...  .%..+-,,>,,')),-%@&*@.........#@..+%-,>*..@;,,,')!!!!!-+$.@>>,',','>;.%...              ",
"        .#+@&;;>,))!!!!!!!!)),,;#..@%.......&>,>>,')'-$+%*%.............+$%$$*-&..#;,,,'))!!!)*$..%>,,,,'',>;.&...              ",
"        ..&..@->,')!!!!!!!!!))',;@...*&$...#>,,>,,';%.%&@....@$&&*&&&&$@...#**=$..$;,>'')!!!!,#&..=,,>'''''>&.*...              ",
"        ...$..@->,')!!!!!!!!!))',>@...$%...&,,>,,;&#$*+..+#&-;>>>>>>>>>-*$........&;,,,')!!!!=+&.@;,,,,''',-+.*...              ",
"         ...+..#;>'))!!!!!!!!!))'>>@.......$;,>,;%.*%..+%=;,,,,,>>>>>>>,>>=$......$->>''))!!'$%@.&>,,,'''',&.+&...              ",
"         .......#;>'))!!!!!!!!!))',>+.......*>>-$@*..+%;''',,,,,,>,,,,,,,,,>*#.....$;>,))!!!,@*.+=',,,'')';#.%$...              ",
"           ......#>>,))!!!!!!!!!))',>+......#%%#.$..#=,,',,,,,>,,',,,''''',,,;&@....$->,')!!;@&.#>,>,,,)),*..*....              ",
"            ......$>>,))!!!!!!!!!)))'>+............#;,',,,,,,,,''''))'))')''',>=#..@.#$%*=-;&&%.%>,,,'')>=@.#&....              ",
"             ......$>>,))!!!!!!!!!!)))>+...@#.....@-''',,,,,,''))))))))))))))')'-#.+&.....@*==@.$=--;>>=$+##@+....              ",
"             .......%>>,))!!!!!!!!!!!))>+........+-,,,,,,,'')))))!!!!!!!!!)))))',-#.+*+...##......++#&$%*&+.......              ",
"              .......%>,,)!!!!!!!!!!!!));+.......%>,,,>,,'')))!)!!!!!!!!!!!!!!))),=+..+.............+%&#...+$.....              ",
"               .......%>>'))!!!!!!!!!!)));+.....+=>>>,,,''))!)!!!!!!!!!!!!!!!!!!)),&+..+%%%##@+..........+$**+....              ",
"                .......&;,')!!!!!!!!!!!!));@#...&>>>>>,')))!!!!!!!!!!!!!!!!!!!!!!!)>$...%;;;;--*&#++@#++%=-;*.....              ",
"                 .......&>>')!!!!!!!!!!!!))';#.@-;;>,,')))!!!!!!!!!!!!!!!!!!!!!!!!))=...@->>,>,>>;-=-;--;>;;&.....              ",
"                  .......*>,')!!!!!!!!!!!!))';%=>>>>,'')!!!!!!!!!!!!!!!!!!!!!!!!!!!!;@..+=>>>,>>>>>,>>>>,;;-&.+...              ",
"                   .......=,,))!!!!!!!!!!!!))',,>>>,,'))!!!!!!!!!!!!!!!!!!!!!!!!!!!!'$...=;>>,,',,,,,,,,>>;-%.#...              ",
"                    .......=>,))!!!!!!!!!!!!))'',,,,'))!!!!!!!!!!!!!!!!!!!!!!!!!!!!!)&...&>>,,,'')''''',,>>;$.$..               ",
"                     ......@;>')!!!!!!!!!!!!!)))')'')))!!!!!!!!!!!!!!!!!!!!!!!!!!!!!!=++.$>>,'')))))')'',>>;#.#..               ",
"                      ......&>>')!!!!!!!!!!!!!)))))))!!!!!!!!!!!!!!!!!!!!!!!!!!!!!!!!;.#.#;,,,))))))))))'',;+.+..               ",
"                       ......&;,')!!!!!!!!!!!!!)))))!)!!!!!!!!!!!!!!!!!!!!!!!!!!!!!!!>+#.@-,,'))!!!!!!)))',;.@...               ",
"                        ......&>,))!!!!!!!!!!!!!!!!!!!!!!!!!!!!!!!!!!!!!!!!!!!!!!!!!!,@$.+-,,,))!!!!!!!))',-+$...               ",
"                         ......*>'))!!!!!!!!!!!!!!!!!!!!!!!!!!!!!!!!!!!!!!!!!!!!!!!!!,##.+->,'))!!!!!!!!)),=.%...               ",
"                          ......*>')!!!!!!!!!!!!!!!!!!!!!!!!!!!!!!!!!!!!!!!!!!!!!!!!!>#$.+-,,,')!!!!!!!))',&.$...               ",
"                           ......*>'))!!!!!!!!!!!!!!!!!!!!!!!!!!!!!!!!!!!!!!!!!!!!!!!,#$.+-,,,')!!!!!!!))'>#.@..                ",
"                            ..+..+-,')!!!!!!!!!!!!!!!!!!!!!!!!!!!!!!!!!!!!!!!!!!!!!!!>#$.+-,,''))!!!!!!)',;.#...                ",
"                            ......%;'')!!!!!!!!!!!!!!!!!!!!!!!!!!!!!!!!!!!!!!!!!!!!!!,#%.+-,>'')!!!!!!!)),-.%...                ",
"                             ......&>,))!!!!!!!!!!!!!!!!!!!!!!!!!!!!!!!!!!!!!!!!!!!!!>@%.+-,,,'))!!!!!)),,*.&..                 ",
"                              .....+*>')!!!!!!!!!!!!!!!!!!!!!!!!!!!!!!!!!!!!!!!!!!!!!;+#.@;,,'')!!!!!!)),>$.%..                 ",
"                               .....@;>,))!!!!!!!!!!!!!!!!!!!!!!!!!!!!!!!!!!!!!!!!!!!=$..$;>,,'))!!!!!)',-+$...                 ",
"                                ..+..%;,')!!!!!!!!!!!!!!!!!!!!!!!!!!!!!!!!!!!!!!!!!!,#&..*,,,'')!!!!!)),,*.&...                 ",
"                                ...+..#-,))!!!!!!!!!!!!!!!!!!!!!!!!!!!!!!!!!!!!!!!!!-@%.@;,>,,'))!!!))',>%.&..                  ",
"                                 ......*,')!!!!!!!!!!!!!!!!!!!!!!!!!!!!!!!!!!!!!!!!'%&..%,,,,'')!!!!)),>-+%...                  ",
"                                  ..+..@=>'))!!!!!!!!!!!!!!!!!!!!!!!!!!!!!!!!!!!!!!-+%.+-',,,,)!)!!!)',>&.*...                  ",
"                                  ...+..#;>))!!!!!!!!!!!!!!!!!!!!!!!!!!!!!!!!!!!!!;#+..%>,,,,'))!!!)',>*+$+...                  ",
"                                   ......*>,))!!!!!!!!!!!!!!!!!!!!!!!!!!!!!!!!!!!)&....=,,,,'')!)!))',-@.*...                   ",
"                                    .....@=>'))!!!!!!!!!!!!!!!!!!!!!!!!!!!!!!!!!!,#...&,',,,,))!)!)',;%.&...                    ",
"                                    ...+..@=>'))!!!!!!!!!!!!!!!!!!!!!!!!!!!!!!!!!'%++%>,,,,,')))))',>=+$%...                    ",
"                                     ......@=>')!!!!!!!!!!!!!!!!!!!!!!!!!!!!!!!!!!,--,),,,,''))))',,;$.*...                     ",
"                                      ......@=;,))!!!!!!!!!!!!!!!!!!!!!!!!!!!!!!!!!)))'',,',))))),>-%.*...                      ",
"                                      ....+...#='))!!!!!!!!!!!!!!!!!!!!!!!!!!!!!!!)!)),,,,,'''',,>*@.*....                      ",
"                                       ....+...#=,'))!!!!!!!!!!!!!!!!!!!!!!!!!!)))))''',,,,,,',,>&.+*....                       ",
"                                        ........@=,')))!!!!!!!!!!!!!!!!!!!!)))))))'',,,,>,,,,,>-$.$*....                        ",
"                                         ........@&;,'))!!!!!!!!!!!!!!!!)))))''>;;;;;;;--=-=-=%+.&%....                         ",
"                                          .........@=>,')))!!!!!!!!!!))))'''>;=$+++++.........+&*.....                          ",
"                                            .........%=;>')))))))))))))''>;=$+........+@##%%&&$.....                            ",
"                                             .........+#%-;,'))))')''',,=#+...+%$#.................                             ",
"                                               .....+.....#&=-;>>,;>;;-*#..@%&@...................                              ",
"                                                 .............+#@####+..+%*$..................                                  ",
"                                                   ........++.......+$&*%..........                                             ",
"                                                    ............++++...........                                                 ",
"                                                       .....................                                                    ",
"                                                            .............                                                       ",
"                                                                                                                                ",
"                                                                                                                                ",
"                                                                                                                                ",
"                                                                                                                                ",
"                                                                                                                                ",
"                                                                                                                                ",
"                                                                                                                                ",
"                                                                                                                                ",
"                                                                                                                                ",
"                                                                                                                                ",
"                                                                                                                                "};
