/* XPM */
char * paste_xpm[] = {
"128 128 17 1",
" 	c None",
".	c #000000",
"+	c #1B150F",
"@	c #3C2201",
"#	c #2C2E2C",
"$	c #4E2E01",
"%	c #633900",
"&	c #414340",
"*	c #7E4800",
"=	c #616360",
"-	c #787A77",
";	c #919490",
">	c #B1BAB7",
",	c #C5CAC8",
"'	c #E3E8E5",
")	c #CEFEFE",
"!	c #FFFFFF",
"                                                                                                                                ",
"                                                                                                                                ",
"                                         ......                                                                                 ",
"                                     ..............                                                                             ",
"                                   ..................                                                                           ",
"                                  .....+-;,,,,;-#.....                                                                          ",
"                                 ....&,!'!!!!!!''>&....                                                                         ",
"                                ...+>'!!!'!'!!!!!!'>#....                                                                       ",
"                               ...&,'!'!'',,','''!',,&...                                                                       ",
"                              ...#''!!',;=&.+#=;''!!,,&...                                                                      ",
"                             ...#,'!',,=+......#-,!!',,#...                                                                     ",
"                      ..........>'!!,,=..........-,''',;..........                                                              ",
"                   ............=,,!,,-+...    ...+;'!,,,-............                                                           ",
"                 ..............,,!',>=...      ...=,'!,>>+.............                                                         ",
"                ....+&--------;,'!,,;#............#,,!,,>;=----=-=&+....                                                        ",
"               ....=,,>>>>>,,,,,!,,,>.............+,,!',,,,>>>>,>>>>&....                                                       ",
"          ........;,>,,,,,,,,,'!!,,;>..............,'!',,,>,,,,>,>>;>-........                                                  ",
"         ........->>>,>,>,,,,!,!,,,>>>>>;>>>;>>>>>,,''',,>,>>,>,>,>>;;=........                                                 ",
"        ...+#+..+>>,''',,,,,,,,,>;,;,;>>>>>>>>>>>,!'',,;,>,,,,,,,>;,;;;...+.....                                                ",
"       ...=-....&>;;,;,;,;;,;;;,;,;,;,;>,,,,,,','',,;,;>;;;;;,;;;,;>;;;&...&.....                                               ",
"       ..&=.....-;>;;;;;;;;;;;;;;;;;;>;;>;,;,;>;;;;;;;;;;;;;;;;;;;;;;;-&.........                                               ",
"       ..#......=;;;;;;;;;;;;;-;;;;;;;;;;;;;;;;;;;;;;;;;;;;;;;;;;;;-;-;&.........                                               ",
"       ....+*@..&;;;---------------------------------------------------#..@%+....                                               ",
"       ....+%%............................................................$*+....                                               ",
"       ....+*%+..........................................................@%*+....                                               ",
"       .+..+*%*@+......................................................+$%*%+....                                               ",
"       .#..+%%%**%**********************************************************+.#..                                               ",
"       .#..+%%%%*************************************************%***%******+.#..                                               ",
"       .#..+*%%%************************************************************++#..                                               ",
"       .#..+%*%*%***********************************************************+.#..                                               ",
"       .#..+%%%****************************@@.+++++++++++++++++++++++++++++++.+...............                                  ",
"       .#..+%*%%**************************%......+.+..+.+.+.+.+.+++.+.+.........................                                ",
"       .#..+%%*%***************************...#...##&#&&#&&#&&&&&#&&&&#&&&&&&&&&&&&&&&#+.........                               ",
"       .#..+%%%%**************************%..=;.......................................&--=&.......                              ",
"       .#..+*%%****************************..#...........................................&=#.......                             ",
"       .#..+%%%%**************************%.........................................................                            ",
"       .#..+%%%***************************%....#,,,>,>,,,>>,>,>,,>,>,,,,,>,>,>,>,,,,>,,&.............                           ",
"       .#..+*%%***************************%....#,,>>,>,>>,,,,>,,,,>,,>,>>,>,,,>,>,>,,>,&.....+........                          ",
"       .#..+%%%%***************************....#,>,>>,,,,,,>,,,>,,,,,,,,,,,,>,,,,>,,,,,=.....;+........                         ",
"       .#..+%%%***************************%.+..#,>>,,,,,,,,,,,,,,,,,,,,,,,,,,,,,,,,,,,,&.....,;+........                        ",
"       .#..+%%%%**************************%.#..#,,,,,,''''!,!',!,!'''''''''!,!''!,!''!'=.....>>;+........                       ",
"       .#..+%%%%**************************%.#.++,,,,,''!'!'!'!'!'!''!'!'!!'!'!''!'!''''=.+...,,>;+........                      ",
"       .#..+%%%%**************************%.#..#,,,,''!'!'!!!'!!'!!'!!'!'!'!!'!!'!!!!!!=.#...>>,,;+........                     ",
"       .#..+%%%%**************************%.#.++,,,,',!!!!!'!!!!'!!!!!!!!!!!!!!!!'!!!!!=.#...,>,,,>+........                    ",
"       .#..+%$%%**************************%.#..#,,,,!!'!!!!!!!!!!!!!!!!!!!!!!!!!!!!!!!!=.#...,,,,,,,.........                   ",
"       .#..#%%%*-*******,*****************$.#..#,,,,,!'!!!!!!!!!!!!!!!!!!!!!!!!!!!!!!!!=.#...,>,,''',+........                  ",
"       .#..+%%%%**************************%.#..#,,,''!!!!!!!!!!!!!!!!!!!!!!!!!!!!!!!!!!-.#...,>,,,''',.........                 ",
"       .#..+$%$%***********************%**$.#..#,,,,,''!!!!!!!!!!!!!!!!!!!!!!!!!!!!!!!!=.#...,,,,''''',+........                ",
"       .#..+%%%%%************;*******%****%.#..#,,,,!'!!!!!!!!!!!!!!!!!!!!!!!!!!!!!!!!!=.&...,,,,'!!!'',.........               ",
"       .#..+$%$%%*-***************%**%*%**$.#..#,,,,''!!!!!!!!!!!!!!!!!!!!!!!!!!!!!!!!!=.#...,,,,,''!!!',+........              ",
"       .#..+%%$%%*******************%**%**$.#..#,,,,!'!!!!!!!!!!!!!!!!!!!!!!!!!!!!!!!!!=.#...,>,,!'!'!'!',+........             ",
"       .#..#$%%$*%*%**%*%****%**%%***%****%.#..#,,,,,!'!!!!!!!!!!!!!!!!!!!!!!!!!!!!!!!!=.&...,,,,,'!!!!!!'>+..=.....            ",
"       .#..+%$%%%%%***%**%*%**%*%**%**%*%*$.#..#,,,,!'!!!!!!!!!!!!!!!!!!!!!!!!!!!!!!!!!=.#...,,,,!'!'!!''!',..#=.....           ",
"       .#..+%%$%%*%*%**%*%**%*%**%%*%**%*%%.#..#,,,,,'!!!!!!!!!!!!!!!!!!!!!!!!!!!!!!!!!=..&..,,,,,'!!!!!!'!',+#=#.....          ",
"       .#..+$%%%%%%*%%****%**%**%***%*%***$.#..#,,,'!!'!!!!!!!!!!!!!!!!!!!!!!!!!!!!!!!!=..-..;;;>,>,,,,,,,>,,>==&......         ",
"       .#..+%$%$%*%%**%%%*%*-*%**%%*%*%*%*$.#..#,,,,,'!!!!!!!!!!!!!!!!!!!!!!!!!!!!!!!!!=...................&===#........        ",
"       .#..+$$$%%%**%***%*%***%*%*%*%*%*%*$.#..#,,,,!'!!!!!!!!!!!!!!!!!!!!!!!!!!!!!!!!!>.........+##+###&=--&...........        ",
"       .#..+$%$%$%*-*%%%*%*%%*%*%*%%%**%%*$.#..#,,,,,'!!!!!!!!!!!!!!!!!!!!!!!!!!!!!!!!!!................................        ",
"       .#..+$$%%%%%*%*%*%%%*%*%%*%*%%%%*%*$.#..#,,,'!!'!!!!!!!!!!!!!!!!!!!!!!!!!!!!!!!!!&...............................        ",
"       .#..+%$$%%*%%%*%%%*%*%%%*%%***%%%*%$.#..#,,,,,!'!!!!!!!!!!!!!!!!!!!!!!!!!!!!!!!!!-######+##################+.....        ",
"       .#..+$$$%$%%*%%**%*%%%*%%*%%%%*%*%*$.#..#,,,,!!!!!!!!!!!!!!!!!!!!!!!!!!!!!!!!!!!!!!'',,,>>>,>,,,,,,,,,,,,>>>.....        ",
"       .#..+$$$%%%%%*%%%%%*%%*%%%*%*%%%%%%$.#..#,,,,,''!!!!!!!!'!!!!'!!!!!!!!!!!!!!!!!!'!!'',,,,,,>,,>,,,,,,,>,,,>>.....        ",
"       .#..+$%$$%%%%%%*%*%%%%%%%%%%%%*%*%*$.#..#,>,,''')')')')')')')')')')))))))))))))))))'),,>>>>,>>,>>>>>>>>,>>>>.....        ",
"       .#..+$%$$%%%%%%%%%%%*%%*%*%%*%%%%%%$.#..#,,,,'''!!!!!!!!!!!!!!!!!!!!!!!!!!!!!!!!!!!''''''',,',,',,',',',,',,.....        ",
"       .#..+$$$$%%%%%*%%%*%%%%%%%*%%%%%*%*$.#..#,,,,'!!!!!!!!!!!!!!!!!!!!!!!!!!!!!!!!!!!!'!!''','''''''''''''''''',.....        ",
"       .#..+$%$$$%%%%%%%%%%%%*%%%%%%%%%%%%$.#..#,,,,'''!!!!!!!!!!!!!!)!!!!!'!!!!!'!!!!!!!!!)!''!'''''''!'''''''''''.....        ",
"       .#..+$$$%$%%%%%%%%%*%=*$%%%%%%%%%%%$.#..#>>,,))))))))))))))))))))))))))))))))))))))))))))))))))))))))))))))).....        ",
"       .#..+$$$%$%%%%%%%%%%*%%%%%%%%*%%%%%$.#..#,,,,,''!!!!!!!!!!!!!!!!!!!!!!!!!!!!!!!!!!!!!!!!!!!!!'!!!!'!!!!!!!!'.....        ",
"       .#..+$$$$%%%-*%*%=*%%%%%%%%%%%%%%%%$.#..#,,,,'!'!!!!!!!!!!!!!!!!!!!!!!!!!!!!!!!!!!!!!!!!!!!!!!!!!!!!!!!!!!!!.+...        ",
"       .#..+$$$$$%%%%%%%%%%%%%%%%%%%%%%%%%$.#..#,,,,''!!!'!!!'!!!!!!!!!!!!!!!!!!!!!!!!!!!!!!!'!!!!!!!!!!!!!!'!!!!!'.....        ",
"       .#...$$$$$%$%%%%%%%%%%%$%%%%%$%%%%%$.#..#>>)>))))))))))))))))))))))))))))))))))))))))))))))))))))))))))))))).....        ",
"       .#..+$$$%$%$%%$%%%$%%%%%$%%%%%%$%$%$.#..#>,,,,''!!!!!!!!!!!!!!!!!!!!!!!!!!!!!!!!!!!!!!!!!!!!!!!!!!!!!!!!!!!'.....        ",
"       .#...$@$$$%%%$%%%$%%%$%%%%$%%%%%%%%$.#..#,,,''!!!!!!!!!!!!!!!!!!!!!!!!!!!!!!!!!!!!!!!!!!!!!!!!!!!!!!!!!!!!!!.....        ",
"       .#..+$$$$$%$%%%%$%%%%$%%%%%%%%$%%%%@.#..#,,,,'''!!!!!!!!!!!!'!!!'!!!!'!!!!!!!!'!!!!!!!!!!!'!!'!!!!!!!!!!!!!'.....        ",
"       .#..+@$$$$%$%$%%%%%$%%%$%$%%$%%$%$%$.#..#>>>),)))))))))))))))))))))))))))))))))))))))))))))))))))))))))))))).....        ",
"       .#..+$@$$$%$%%$%$%%$$%%$%$%$%$%$%%$@.#..#,>,,''!!!!!!!!!!!!!!!!!!!!!!!!!!!!!!!!!!!!!!!!!!!!!!!!!!!!!!!!!!!!!.....        ",
"       .#..+@$$$$$%$%$%$%$%%$%%$%%%$%%%$%%$.#..#,,,,''!!!!!!!!!!!!!!!!!!!!!!!!!!!!!!!!!!!!!!!!!!!!!!!!!!!!!!!!!!!!'.+...        ",
"       .#..+@$@$%$%$%$%%%$%$%$%$%$%%$%$%$%@.#..#,,,,''!'!!!!!!!!!!!!!!!!!!!!!!'!!!!!!!!'!!!!!!!!!!!!!!!!!!!!'!!!!!'.....        ",
"       .#..+@$$$$$$%%%$$$%%%=%%%$%$$%%$%$%@.#..#>>,)))))))))))))))))))))))))))))))))))))))))))))))))))))))))))))))).....        ",
"       .#..+@$@$$$$$%$%$%$$%$%$%$%$%$$$%$%@.#..&,>>,,''!!!!!!!!!!!!!!!!!!!!!!!!!!!!!!!!!!!!!!!!!!!!!!!!!!!!!!!!!!!!.....        ",
"       .#..+@@$$$$%$$%$%$%%$%$%$$%$$%%$%$%@.#..#,,,,'!'!!!!!!!!!!!!!!!!!!!!!!!!!!!!!!!!!!!!!!!!!!!!!!!!!!!!!!!!!!!'.....        ",
"       .#..+@$@$$%$$%$%$$$%%$$%$%$%$%$$%$%@.#..#,,,,''!!!'!!!'!!!!!!!!!!!!!!!!!!!!!!!!!!!!'!!!!!!!!!!'!!!!!!!!!!!!!.....        ",
"       .#...$@$@$$$%$%=%$%$$%$%$%$%%$%$%$$@.#..#>>>,))))))))))))))))))))))))))))))))))))))))))))))))))))))))))))))).+...        ",
"       .#..+@$@$$$$$$%$%%$%$$%$%$$$$$$$%$%@.#..#,,,,,''!!!!!!!!!!!!!!!!!!!!!!!!!!!!!!!!!!!!!!!!!!!!!!!!!!!!!!!!!!!!.....        ",
"       .#..+@@$@$$$%$$$$$$$$%$$$%$%$%$$$$$@.#..#,,,''!'!!!!!!!!!!!!!!!!!!!!!!!!!!!!!!!!!!!!!!!!!!!!!!!!!!!!!!!!!!!'.....        ",
"       .#..+@@@$$$%$%$%$%$$$%$$%$$$$$%$%$%@.#..#,,,,''!!!!!!!!!!'!!!!'!!!!!!!!!!!!!!!!!!!!!!!'!!!!!!!!!'!!!!!!!'!!!.....        ",
"       .#..+@$@$$$$$%$$$%$$%$$$$$%$%$$$$%$@.#..#>>>),)))))))))))))))))))))))))))))))))))))))))))))))))))))))))))))).....        ",
"       .#..+@@@@$$$$$%$$%$$$$$%$$$$$$%$$$$@.#..&,>,,'''!!!!!!!!!!!!!!!!!!!!!!!!!!!!!!!!!!!!!!!!!!!!!!!!!!!!!!!!!!!'.....        ",
"       .#..+@@$@$$$$$$$$$$%$%$$%$$%$%$$%$$@.#..#,,,,'!'!!!!!!!!!!!!!!!!!!!!!!!!!!!!!!!!!!!!!!!!!!!!!!!!!!!!!!!!!!!!.+...        ",
"       .#..+@@@$@$$%$$$$$$$$$$$$%$$$$$$$$$@.#..#,,,,''!!!!!!!!!!!!!!!!!!!!'!!!'!!!'!!!!!!!!!!!!!!!!!!!!!!'!!!!!!!!'.....        ",
"       .#...@@@@$$$$$$%$$%$$$$$$$$$$$$$$%$@.#..#>>)>))))))))))))))))))))))))))))))))))))))))))))))))))))))))))))))).....        ",
"       .#..+@@@@@$$$$$$$$$%$$$$$$$$%$$%$$$@.#..#,>,,,''!!!!!!!!!!!!!!!!!!!!!!!!!!!!!!!!!!!!!!!!!!!!!!!!!!!!!!!!!!!'.....        ",
"       .#...$@@$$$$$$$$$$$$$$$$$$$$$$$$$$$@.#..#,,,,'!'!!!!!!!!!!!!!!!!!!!!!!!!!!!!!!!!!!!!!!!!!!!!!!!!!!!!!!!!!!!'.....        ",
"       .#...@@@@@$$$$$$$$$$$%$$$$%$$$$$$$$@.#..#,,,,''!'!!!!!!!!!!!!!!!!!!!!!!!!!!!!'!!!!!!!!!!!!!!!!!!!!!!!!!!!!!!.....        ",
"       .#..+@@@@$@$$$$$$$$$$$$$$$$$$$$$@$$@.#..#>>>),)))))))))))))))))))))))))))))))))))))))))))))))))))))))))))))).+...        ",
"       .#..+@@@@$@$$$$$$$$$@$$$$@$$$$$$%$$@.#..#,,,,''!!!!!!!!!!!!!!!!!!!!!!!!!!!!!!!!!!!!!!!!!!!!!!!!!!!!!!!!!!!!!.....        ",
"       .#...@@@@$$$$$$$$$$$$$$$$$$$$$$@$$$@.#..#,,,,'!'!!!!!!!!!!!!!!!!!!!!!!!!!!!!!!!!!!!!!!!!!!!!!!!!!!!!!!!!!!!'.....        ",
"       .#..+@@@@@@$@$$@$$$$$@$$$$@$@$$$@$$@.#..#,,,,''!!!!'!!!!'!!!'!!!!!!!!!!!!!!!!!!'!!!'!!!'!!!'!!!!!!!!!!!'!!!'.....        ",
"       ..&..@@@@@$$$$@$$$$$@$$$@$$$$$$$$$$@.#..#>>>)))))))))))))))))))))))))))))))))))))))))))))))))))))))))))))))).+...        ",
"       ..=..@@@@@@$$$$$$@$$$@$$$$$@$$@@$$@@.#..&,,>,,''!!!!!!!!!!!!!!!!!!!!!!!!!!!!!!!!!!!!!!!!!!!!!!!!!!!!!!!!!!!!.....        ",
"       ...#.++++++++++++++++++++++++++++@.+.#..#,,,,'!'!!!!!!!!!!!!!!!!!!!!!!!!!!!!!!!!!!!!!!!!!!!!!!!!!!!!!!!!!!!!.....        ",
"       ..........+.....+..+.+........+......#..#,,,,''!!!!!!!!!!!!!!!'!!!!!!!!!!!!!!!!!!!!!!!!!!!!!!!!!'!!!!!!!!!!'.+...        ",
"       ........##&&&&&&&&&&&&&&&&&&&&&&&&&#.#..#>>>),)))))))))))))))))))))))))))))))))))))))))))))))))))))))))))))).....        ",
"        ....................................#..&,,,,'''!!!!!!!!!!!!!!!!!!!!!!!!!!!!!!!!!!!!!!!!!!!!!!!!!!!!!!!!!!!'.....        ",
"         ...................................#..#,>,,''!!!!!!!!!!!!!!!!!!!!!!!!!!!!!!!!!!!!!!!!!!!!!!!!!!!!!!!!!!!!!.....        ",
"           .................................#..#,,,,'''!!!!!!!!!!!!!!!!!'!!!'!!!!!!!!!!!!!!!!!!!!!!!!!!!!!!!!!'!!!'.....        ",
"                                           .#..#>>,)))))))))))))))))))))))))))))))))))))))))))))))))))))))))))))))).....        ",
"                                           .#..#,>,,,''!!!!!!!!!!!!!!!!!!!!!!!!!!!!!!!!!!!!!!!!!!!!!!!!!!!!!!!!!!!'.....        ",
"                                           .#..#,,,,'!!!!!!!!!!!!!!!!!!!!!!!!!!!!!!!!!!!!!!!!!!!!!!!!!!!!!!!!!!!!!!.+...        ",
"                                           .#..#,,,,'''!!!!'!!!!!!!!!!!!!!!!!!!!'!!!!'!!!!!!!!!!'!!!!!!'!!!!!!!!!!'.....        ",
"                                           .#..#>>,),)))))))))))))))))))))))))))))))))))))))))))))))))))))))))))))).#...        ",
"                                           .#..#,>,,'''!!!!!!!!!!!!!!!!!!!!!!!!!!!!!!!!!!!!!!!!!!!!!!!!!!!!!!!!!!!!.=...        ",
"                                           .#&.&,,,,'!!!!!!!!!!!!!!!!!!!!!!!!!!!!!!!!!!!!!!!!!!!!!!!!!!!!!!!!!!!!!'.;...        ",
"                                           ..-.#,,,,'''!!!!!!!!!!!!!!!!!!!!!!!!!!!!!!!!!!!!!!!!!!!!!!!!!!!!!!!!!!!!.-...        ",
"                                           ..-..=&=&===============================================================&=...        ",
"                                           ...+..................................................................=--....        ",
"                                           ........+&&&&&&&&&&&&&&&&&&&&&&&&&&&&&&&&&&&&&&&&&&&&&&&&&&&&&&&&&&===&......        ",
"                                           .............................................................................        ",
"                                           .............................................................................        ",
"                                             .........................................................................          ",
"                                                                                                                                ",
"                                                                                                                                ",
"                                                                                                                                ",
"                                                                                                                                ",
"                                                                                                                                ",
"                                                                                                                                ",
"                                                                                                                                ",
"                                                                                                                                "};
