/* XPM */
char * path_xpm[] = {
"128 128 17 1",
" 	c None",
".	c #060000",
"+	c #2F0202",
"@	c #440001",
"#	c #550200",
"$	c #670000",
"%	c #720002",
"&	c #770200",
"*	c #800000",
"=	c #242624",
"-	c #8A1314",
";	c #3F413E",
">	c #992F2F",
",	c #AB5352",
"'	c #717370",
")	c #C07E7D",
"!	c #D3A7A7",
"                                                                                                                                ",
"                                                                                                                                ",
"                                                                                                                                ",
"                                                                                                                                ",
"                                                                                                                                ",
"                                                                                                                                ",
"                                                                                                                                ",
"                                                                                                                                ",
"                                                                                                                                ",
"                                                                                                                                ",
"                                                                                                                                ",
"                                                                                                                                ",
"                                                                                                                                ",
"                                                                                                                                ",
"                                                                                                                                ",
"                                                                                                                                ",
"                                                                                                                                ",
"                                                                                                                                ",
"                                                                                                                                ",
"                                                                                                                                ",
"                                                                                                                                ",
"                                                                                                                                ",
"                                                                                                                                ",
"                                                                            &                                                   ",
"                                                                        &&&&&&%%%                                               ",
"                                                                      &&***&*&&%%%$                                             ",
"                                                                     &*&&&****&&&%$$                                            ",
"                                                                    &&&*,!)),>*&&$&$$                                           ",
"                                                                    &**)!!)),>-**&$$$                                           ",
"                                                                   &&-,!!,>-**-**&&%$#                                          ",
"                                                                   &*&!!)>-&******&%$#.....                                     ",
"                                                                   &&*!)>&********&$%$+..........                               ",
"                                                                  %&**),-**********%$#+.==;;=.......                            ",
"                                                                  &&%-,,**********&%$%+.......=;......                          ",
"                                                                  &&&&>>**********&%$$+...........=.....                        ",
"                                                                   %*&*>*********&&%##+.   .........=.....                      ",
"                                                                   %&&***********&&%$#+        .......=.....                    ",
"                                                                   %%&&&*******&&&%###.           ...........                   ",
"                                                                    %%&&&****&*&&$$$#+              ..........                  ",
"                                                                    $$%%&&&&&&&%%$$#@                 .........                 ",
"                                                                     $%%$%%%%%%$$###                   .........                ",
"                                                                      #$$$$$$$$$###                      ........               ",
"                                                                        #$$$$##$#@                         .......              ",
"                                                                          @#@#@+                            .......             ",
"                                                                                                             .......            ",
"                                                                                                              ......            ",
"                                                                                                              .......           ",
"                                                                                                               .......          ",
"                                                                                                                ......          ",
"                                                                                                                .......         ",
"                                                                                                                 ......         ",
"                                                                                                                  ......        ",
"                                                                                                                  ......        ",
"                                                                                                                  ......        ",
"                                                                                                                   ......       ",
"                                                                                                                   ......       ",
"                                                                                                                    .....       ",
"                                                                                                                    .....       ",
"                                                                                                                    .....       ",
"                                                                                                                     .....      ",
"                                                                                                                     .....      ",
"                                                                                                                     .....      ",
"                                                                                                                     .....      ",
"                                                                                                                     .=...      ",
"                                                                                                                     .;...      ",
"                                                                                                                     .;...      ",
"                                                                                                                     .'...      ",
"                                                                                                                     .'...      ",
"                                                                                                                    ..'...      ",
"                                                                                                                    ..;..       ",
"                                                                                                                    .;...       ",
"                                                                                                                    .'...       ",
"                                                                                                                   ..'...       ",
"                                                                                                                   .;...        ",
"                                                                                                                  ..'...        ",
"                                                                                                                  .=;...        ",
"                                                                                                                  .'...         ",
"                                                                                                                 ..'...         ",
"                                                                                                                ..'...          ",
"                                                                                                                .;;...          ",
"                                                                                                               ..'...           ",
"                                                                                                              ..'....           ",
"                                                                                                              .'=...            ",
"                                                                                                             .;'...             ",
"                %                                                                      &                    .='....             ",
"            &&&&&&%%%                                                              &&&&&&%%%              ..;'....              ",
"          &&*&&**&&%%%$                                                          &&&&*&&&&%%%$           ..;'....               ",
"         &&*&***&**&&%$$                                                        &*********&&$$$        ...';....                ",
"        &*&*,)!),>&&&&%$$                                                      &&&&,)!),>&&*%$$$     ...;'.....                 ",
"        &&*)!!),,>-*&*$$$                                                      &*-)!!),,>-*&&%%$   ....''.....                  ",
"       &&*,!!)>----*&*&$$#                                                    &&*,!!)>----**&&$$#....''.....                    ",
"       &*-!!,>********&%$#+                                                  @&&-!!,-&*******&%$#.=;'......                     ",
"       &*&!)>-&*******&&$#+..................................................+&*&!)>--*******&%$$+;.......                      ",
"      &&&-),-*********&%$$+;=;;;;;;;;;;;;;;;;;;;;;;;;;;;;;;;;;;;;;;;;;;;;;;;;@&**!,-*********&%$$+......                        ",
"      &&&*)>&*********&&$$+..................................................@&&*,,&*********&%$$+....                          ",
"      %&&&,>**********&$$#+..................................................@%&&,>********&*&%$$+..                            ",
"       %&&*--********&&%$$+..................................................@%&**--*********&$$#+                              ",
"       %&%**********&&&$##+                                                   %&&**********&&%%##+                              ",
"       %%&%*********&&%$##                                                    $%%&&********&&%$$@.                              ",
"        %%&&&&**&&*&&%$$#+                                                    #%$&*&&***&&&&%$##+                               ",
"        $%$&*&&*&&&&$$#$@                                                      $$$&*&&&*&&&%$$#@                                ",
"         $$$$%%%%&%$$#$@                                                        $$$$%%&%%%%#$##                                 ",
"          $$$$$$$$$$$##                                                          $$$$$$$$#$##@                                  ",
"            #$$$#$###+                                                            #$#$$$#$##@                                   ",
"              ##@#@+                                                                 @##@@+                                     ",
"                                                                                                                                ",
"                                                                                                                                ",
"                                                                                                                                ",
"                                                                                                                                ",
"                                                                                                                                ",
"                                                                                                                                ",
"                                                                                                                                ",
"                                                                                                                                ",
"                                                                                                                                ",
"                                                                                                                                ",
"                                                                                                                                ",
"                                                                                                                                ",
"                                                                                                                                ",
"                                                                                                                                ",
"                                                                                                                                ",
"                                                                                                                                ",
"                                                                                                                                ",
"                                                                                                                                ",
"                                                                                                                                ",
"                                                                                                                                ",
"                                                                                                                                ",
"                                                                                                                                ",
"                                                                                                                                "};
