/* XPM */
char * pickadd_xpm[] = {
"128 128 17 1",
" 	c None",
".	c #010400",
"+	c #4A0001",
"@	c #111311",
"#	c #600000",
"$	c #770000",
"%	c #1E201D",
"&	c #272926",
"*	c #2F302E",
"=	c #373936",
"-	c #9C3534",
";	c #4E504E",
">	c #636562",
",	c #AA5353",
"'	c #787A77",
")	c #BC7676",
"!	c #D7AEAD",
"                                                                                                                                ",
"                                                                                                                                ",
"                            >;=@....            >;=@....            >;=@....            >;=@.........                           ",
"  =;;=%.@@%@....            ;''>%...            ;''>%...            ;>'>%...            ;>'';;=;&....                           ",
"  @;>>>;=;;;....            .*;;....            .*;;@...            .=;;@...            .*;;;;>'>&...                           ",
"  .%>';.........            ..@.....            .@......            .@......            @.@.@..@=&...                           ",
"  ..;=@.........            ........            ........            ........            .............                           ",
"  ..@...........                                                                                .....                           ",
"  .....                                                                                         .....                           ",
"  .....                                                                                         .....                           ",
"  .....                                                                                         .....                           ",
"  .....                                                                                         .....                           ",
"  .....                                                                                         .....                           ",
"  .@...                                                                                         .....                           ",
"  .....                                                                                         .....                           ",
"  .....                                                                                         .....                           ",
"      .                                                                                             .                           ",
"                                                                                                                                ",
"                                                                                                                                ",
"                                                                                                                                ",
"                                                                                                                                ",
"                                                                                                                                ",
"                                                >;=@....            >;=@....            >;=@....            >;=@.........       ",
"                      =;;=%@@@%@....            ;''>%...            ;''>%...            ;>'>%...            ;>'';;=;&....       ",
"                      @=>';;=;;;....            .*;;....            .*;;....            .=;;....            .=;;;;>'>&...       ",
"                      .&>';.........            ..@.....            ..@.....            .@......            ..@....@=&...       ",
"                      ..;=..........            ........            ........            ........            .............       ",
"                      ..@...........                                                             ;                  .....       ",
"   >>%..              .....                                                                      >>%..              .....       ",
"   ;'*..              .....                                                                      ;'*..              .....       ",
"   *'*..              ..@..                                                                      *'*..              .....       ",
"   .;...              .....                                                                      .;...              .....       ",
"   .....              .....                                                                      .....              .....       ",
"   .....              .....                                                                      .....              .....       ",
"   .....              .....                                                                      .....              .....       ",
"   .....              .....                                                                      .....              .....       ",
"      .                   .                                                                         .                   .       ",
"                                                                                                                                ",
"                                                                                                                                ",
"                                                                                                                                ",
"                                                                                                                                ",
"                                                            ))$$$                                                               ",
"                                                           -)!-$$                                                               ",
"                                                           $)!,$#                                                               ",
"                                                           $-!-$#                                                               ",
"                                                           $$)$$#                                                               ",
"                                                           $$,$$#                                                               ",
"                                                           $$-$##                                                               ",
"   >>%..               >>%..                               $$-$$#                                >>%..               >>%..      ",
"   ;'*..               ;'*..                               $$,$#+                                ;'*..               ;'*..      ",
"   &'*..               &'*..                               $$-$$#                                *'*..               *'*..      ",
"   .;...               .;...                               $$-$##                                .;...               .;...      ",
"   .....               .@...                               $$,$##                                .....               .....      ",
"   .....               .....                               $$-$$#                                .....               .....      ",
"   .....               .....                               $$,$$+                                .....               .....      ",
"   .....               .....                               $$)$$#                                .....               .....      ",
"      .                   .                                $-)$$#                                   .                   .       ",
"                                                           -)!-$$                                                               ",
"                                                           )!!,$$                                                               ",
"                                         )),-$$$$$$$$$$$-))!!!,$$$$$$$$$$$$$$$$$$$$                                             ",
"                                         -)!!!)))))))))!!!!!!)-$$$$-,,))))))))-$$$#                                             ",
"                                         $$))),,,,,,,,,,)))),-$$$$$$$,,,,,,,,,$$$##                                             ",
"                                         $$$$$$$$$$$$$$$$$$$$$$$$$$$$$$$$$$$$$$$$##                                             ",
"                                         #$#########+#####$$$$$$################+#+                                             ",
"                                          ##+++++++++++++++#$$$$#+++++++++++++++++                                              ",
"                                                           #$$$##                                                               ",
"                                                           #$$$$#                                                               ",
"                                                           #$$$#+                                                               ",
"   >>%..               >>%..                               #$-$$#                                >>%..               >>%..      ",
"   ;'*..               ;'*..                               $$-$##                                ;'*..               ;'*..      ",
"   &'*..               &'*..                               $$-$##                                *'*..               &'*..      ",
"   .;...               .;...                               $$,$$+                                .;...               .;...      ",
"   .@...               .....                               $$-$$#                                .....               .....      ",
"   .....               .....                               $$-$$#                                .....               .....      ",
"   .....               .....                               $$-$#+                                .....               .....      ",
"   .....               .....                               $$-$$#                                .....               .....      ",
"      .                   .                                $$,$##                                   .                   .       ",
"                                                           $$-$$+                                                               ",
"                                                           $$$$$#                                                               ",
"                                                           $$$$#+                                                               ",
"                                                           $$$###                                                               ",
"                                                           #####+                                                               ",
"                                                            $###+                                                               ",
"                                                                                                                                ",
"                                                                                                                                ",
"                                                                                                                                ",
"                                                                                                                                ",
"                                                                                                                                ",
"   >>%..               >>%..                                                                     >>%..               >>%..      ",
"   ;'*..               ;'*..                                                                     ;'*..               ;'*..      ",
"   *'*..               &'*..                                                                     *'*..               *'*..      ",
"   .>@..               .;...                                                                     .>@..               .;...      ",
"   .=...               .....                                                                     .;...               .....      ",
"   @*...               .....                                                                     %;...               .....      ",
"   .=%..               .....                                                                     ;>...               .....      ",
"   .*;..               .....                                                                     ';...               .....      ",
"   .%;@.                  .*;;*@....            >;=@....            >;=@....            >;=%@&;>''%...                  .       ",
"   @.*@.........           %;>'>%...            ;''>&...            ;>'>%...            ;>''>'''>*....                          ",
"   .......%*....           ..=;;@...            .*;;....            .=;;@...            .*;;==*.@.....                          ",
"   .............            .@......            ........            .@......            @..@..........                          ",
"   .............            ........            ........            ........            ..............                          ",
"   .............                                                                                                                ",
"                                                                                                                                ",
"                                                                                                                                ",
"                                                                                                                                ",
"                                                                                                                                ",
"                                                                                                                                ",
"                                                                                                                                ",
"                       >>%..                                                                                         >>%..      ",
"                       ;'*..                                                                                         ;'*..      ",
"                       &'*..                                                                                         *'*..      ",
"                       .>@..                                                                                         .>...      ",
"                       .=...                                                                                         .;...      ",
"                       @*...                                                                                         %;...      ",
"                       .**..                                                                                         ;;@..      ",
"                       .*;..                                                                                         ';...      ",
"                       .%;..                    >;=@....            >;=@....            >;=@....            >;=%@*;>''%...      ",
"                       ..*%.........            ;''>%...            ;''>%...            ;''>%...            ;>'>>'''>*....      ",
"                       .......%*....            .*;;@...            .*;;....            .*;;....            .*;;;**.@.....      ",
"                       .............            .@......            ........            ........            .@@...........      ",
"                       .............            ........            ........            ........            ..............      ",
"                       ......@......                                                                                            ",
"                                                                                                                                ",
"                                                                                                                                ",
"                                                                                                                                ",
"                                                                                                                                ",
"                                                                                                                                ",
"                                                                                                                                "};
