/* XPM */
char * picknew_xpm[] = {
"128 128 17 1",
" 	c None",
".	c #010400",
"+	c #540000",
"@	c #121411",
"#	c #780000",
"$	c #1E201D",
"%	c #272926",
"&	c #2E302E",
"*	c #363835",
"=	c #952C2A",
"-	c #4C4E4B",
";	c #A34140",
">	c #5F625F",
",	c #696B68",
"'	c #797B78",
")	c #BC7878",
"!	c #D0A5A5",
"                                                                                                                                ",
"                                                                                                                                ",
"                            >-*@....            >-*@....            >-*@....            >-*@....            >-*@.........       ",
"  ---*$@.@$@....            -,',$...            -,',$...            -,',$...            -,',$...            -,',---*%....       ",
"  .->,>-*---....            .&--....            .*--....            .*--....            .*--....            .*>--->'>%...       ",
"  .$,'-.........            ........            ........            ........            ........            .......@*%...       ",
"  ..-*..........            ........            ........            ........            ........            .............       ",
"  ..............                                                                                                    .....       ",
"  .....                                                                                                             .....       ",
"  .....                                                                                                             .....       ",
"  .....                                                                                                             .....       ",
"  .....                                                                                                             .....       ",
"  .....                                                                                                             .....       ",
"  .....                                                                                                             .....       ",
"  .....                                                                                                             .....       ",
"  .....                                                                                                             .....       ",
"      .                                                                                                                 .       ",
"                                                                                                                                ",
"                                                                                                                                ",
"                                                                                                                                ",
"                                                                                                                                ",
"                                                                                                                                ",
"                                                >-*@....            >-*@....            >-*@.........                           ",
"                      ---*$.@@$@....            -,',$...            -,',$...            -,''--*-%....                           ",
"                      .->,>*----....            .*--....            .&--....            .*->-->,,%...                           ",
"                      .$,'-.........            ........            ........            .......@*%...                           ",
"                      ..--..........            ........            ........            .............                           ",
"                      ..............                                                            .....                           ",
"   >>$..              .....                                                                     .....                >>$..      ",
"   -'&..              .....                                                                     .....                -'&..      ",
"   %'%..              .....                                                                     .....                %'%..      ",
"   .>...              .....                                                                     .....                .>...      ",
"   .....              .....                                                                     .....                .....      ",
"   .....              .....                                                                     .....                .....      ",
"   .....              .....                                                                     .....                .....      ",
"   .....              .....                                                                     .....                .....      ",
"      .                   .                                                                         .                   .       ",
"                                                                                                                                ",
"                                                                                                                                ",
"                                                                                                                                ",
"                                                                                                                                ",
"                                                                                                                                ",
"                                                              ##                                                                ",
"                                                            );##                                                                ",
"                                                          ))!!##                                                                ",
"                                                        ;==)!)#++                                                               ",
"                                                      ##  ##==##+                                                               ",
"                                                           ####++                                                               ",
"   >>$..               >>$..                               ####++                                >>$..               >>$..      ",
"   -'&..               -'&..                                ###++                                -'&..               -'&..      ",
"   %'%..               %'&..                                ####+                                %'&..               %'%..      ",
"   .>...               .-...                                #=#++                                .-...               .>...      ",
"   .....               .....                                #;##+                                .....               .....      ",
"   .....               .....                                #;#++                                .....               .....      ",
"   .....               .....                                #;##+                                .....               .....      ",
"   .....               .....                                #;#++                                .....               .....      ",
"      .                   .                                 #;##+                                   .                   .       ",
"                                                            #;#++                                                               ",
"                                                            #;##+                                                               ",
"                                                            #;#++                                                               ",
"                                                            #;#++                                                               ",
"                                                            #;##+                                                               ",
"                                                            #;#++                                                               ",
"                                                            #;#++                                                               ",
"                                                            #;##+                                                               ",
"                                                            #;#++                                                               ",
"                                                            #;#++                                                               ",
"                                                            #;##+                                                               ",
"   >>$..               >>$..                                #;#++                                >>$..               >>$..      ",
"   -'&..               -'&..                                #;#++                                -'&..               -'&..      ",
"   %'&..               %'%..                                #;##+                                %'&..               %'%..      ",
"   .-...               .>...                                #;#++                                .-...               .>...      ",
"   .....               .....                                #;##+                                .....               .....      ",
"   .....               .....                                #;#++                                .....               .....      ",
"   .....               .....                                #;##+                                .....               .....      ",
"   .....               .....                                #)#++                                .....               .....      ",
"      .                   .                                 #)##+                                   .                   .       ",
"                                                            #)#++                                                               ",
"                                                            ####+                                                               ",
"                                                           #####+                                                               ",
"                                                          ####+##+                                                              ",
"                                                       ####+#+++++####                                                          ",
"                                                                                                                                ",
"                                                                                                                                ",
"                                                                                                                                ",
"                                                                                                                                ",
"                                                                                                                                ",
"                                                                                                                                ",
"   >>$..               >>$..                                                                     >>$..               >>$..      ",
"   -'&..               -'&..                                                                     -'&..               -'&..      ",
"   %'%..               %'%..                                                                     %'&..               %'&..      ",
"   .>...               .,@..                                                                     .,...               .-...      ",
"   .....               .*...                                                                     .-...               .....      ",
"   .....               .*...                                                                     $-...               .....      ",
"   .....               .*$..                                                                     ->...               .....      ",
"   .....               .*-..                                                                     '-...               .....      ",
"      .                .$>..                    >-*@....            >-*@....            >-*$@%->,'$...                  .       ",
"                       ..%@.........            -,',%...            -,',$...            -,',,,'',*....                          ",
"                       .......$&....            .*--....            .*--....            .*---*&.......                          ",
"                       .............            ........            ........            ..............                          ",
"                       .............            ........            ........            ..............                          ",
"                       .............                                                                                            ",
"                                                                                                                                ",
"                                                                                                                                ",
"                                                                                                                                ",
"                                                                                                                                ",
"                                                                                                                                ",
"                                                                                                                                ",
"   >>$..                                                                                                             >>$..      ",
"   -'&..                                                                                                             -'&..      ",
"   %'&..                                                                                                             %'%..      ",
"   .,@..                                                                                                             .,...      ",
"   .*...                                                                                                             .-...      ",
"   .&...                                                                                                             $-...      ",
"   .*$..                                                                                                             ->...      ",
"   .*-..                                                                                                             '-...      ",
"   .$>..                    >-*@....            >-*@....            >-*@....            >-*@....            >-*$@&->,'$...      ",
"   ..%@.........            -,',$...            -,',$...            -,',$...            -,',$...            -,',>''',&....      ",
"   .......$&....            .*--....            .*--....            .*--....            .*--....            .&>--&&.......      ",
"   .............            ........            ........            ........            ........            ..............      ",
"   .............            ........            ........            ........            ........            ..............      ",
"   .............                                                                                                                ",
"                                                                                                                                ",
"                                                                                                                                ",
"                                                                                                                                ",
"                                                                                                                                ",
"                                                                                                                                ",
"                                                                                                                                "};
