/* XPM */
char * pointdivide_xpm[] = {
"128 128 17 1",
" 	c None",
".	c #000000",
"+	c #1A0002",
"@	c #2E0000",
"#	c #410000",
"$	c #5B0000",
"%	c #6C0000",
"&	c #760100",
"*	c #7C0002",
"=	c #7F0000",
"-	c #891113",
";	c #8D2E2D",
">	c #5D5F5C",
",	c #AB5351",
"'	c #7E7F7C",
")	c #BD7B7A",
"!	c #D3A7A7",
"                                                                                                                                ",
"                                                                                                                                ",
"                                                                                                                                ",
"                                                                                                                                ",
"                                                                                                                                ",
"                                                                                                                                ",
"                                                                                                                                ",
"                                                                                                                                ",
"                                                                                                                                ",
"                                                                                                                  ....          ",
"                                                                                                                 .....          ",
"                                                                                                                ......          ",
"                                                                                                               ..'....          ",
"                                                                                                              ..'....           ",
"                                                                                                             ..'....            ",
"                                                                                                            ..'....             ",
"                                                                                                           ..'....              ",
"                                                                                                          ..'....               ",
"                                                                                                         ..'....                ",
"                                                                                                        ..'....                 ",
"                                                                                                       ..'....                  ",
"                                                                                                      ..'....                   ",
"                                                                                                     ..'....                    ",
"                                                                                                    ..'....                     ",
"                                                                                                   ..'....                      ",
"                                                                                                  ..'....                       ",
"                                                                                                 ..'....                        ",
"                                                                                                ..'....                         ",
"                                                                                               ..'....                          ",
"                                                                                              ..'....                           ",
"                                                                                             ..'....                            ",
"                                                                                            ..'....                             ",
"                                                                                   &       ..)....                              ",
"                                                                               **&&*&%%%  ..'....                               ",
"                                                                             *&&**&===%&%#+'....                                ",
"                                                                            *&=======&=&%$;....                                 ",
"                                                                           &===,)!),;**&%%$@..                                  ",
"                                                                           ===)!!)),;-==&%%$+                                   ",
"                                                                          &&&,!!);-=--==&&%%$                                   ",
"                                                                          *&-!!,-========*%%$                                   ",
"                                                                          ==-!);-=======*=%%$#                                  ",
"                                                                         %&==!,-=========*%%$#                                  ",
"                                                                         &&&=,,=========*=%%$#                                  ",
"                                                                         %&&*,;==========&%%$#                                  ",
"                                                                          **==--=========&%%$#                                  ",
"                                                                          %%*-==========*%%$$@                                  ",
"                                                                          %%&&========*==%%$#                                   ",
"                                                                           %%=-=======&&%$$$#                                   ",
"                                                                           #%%%&*-=**&&%%$$#                                    ",
"                                                                          .+;%%%%&*%%%%%$$#                                     ",
"                                                                         ..'+#%%%$%%%%$$$#                                      ",
"                                                                        ..'...@$$%$$$$$$#                                       ",
"                                                                       ..)....  @#####@                                         ",
"                                                                      ..'....                                                   ",
"                                                                     ..'....                                                    ",
"                                                                    ..'....                                                     ",
"                                                                   ..'....                                                      ",
"                                                                  ..'....                                                       ",
"                                                                 ..'....                                                        ",
"                                                                ..'....                                                         ",
"                                                               ..'....                                                          ",
"                                                              ..'....                                                           ",
"                                                             ..'....                                                            ",
"                                                            ..'....                                                             ",
"                                                           ..'....                                                              ",
"                                                          ..'....                                                               ",
"                                                         ..'....                                                                ",
"                                                        ..'....                                                                 ",
"                                                       ..'....                                                                  ",
"                                              &       ..'....                                                                   ",
"                                          *&&*&&%%%  ..'....                                                                    ",
"                                        **&**&**=&%%#+'....                      ...            ......                          ",
"                                       &&======&==&%$;....                    ......         ............                       ",
"                                      *===,)!),;*&&%$%@+.                   ........        ..............                      ",
"                                      &*=)!!)),;-*&=%%$+                  ..........      .................                     ",
"                                     **=)!!,;-==-===&%%$               .............     ...................                    ",
"                                     &&=!!)--======&*%$$             ...............    ....................                    ",
"                                     *==!);-========*%%%#            ..   ..........  ......      ...........                   ",
"                                    &&*=),-=========*%%$#                  .........  ....          .........                   ",
"                                    %&&*),-=========&&$$#                  ......... ...             .........                  ",
"                                    ***=;;==========*&%$#                   ...........              .........                  ",
"                                     %&-=-==========&%%$#                   ..........                ........                  ",
"                                     &&=*=-=======*=%%$$@                   .........                 ........                  ",
"                                     %%&===========&%%$#                    ........                  ........                  ",
"                                      %%%-======*&*%$%$@                    ........                  .........                 ",
"                                      #%&&**-=**&&%%$$#                     ........                  .........                 ",
"                                     .+;$%%&%%&%%%$%$#                      ........                   ........                 ",
"                                    ..'+#%%%%%%%%$$$#                       ........                   ........                 ",
"                                   ..'...@$$$$$$$$##                        ........                   ........                 ",
"                                  ..'....  ######@                          ........                   ........                 ",
"                                 ..'....                                    ........                   ........                 ",
"                                ..'....                                     ........                   ........                 ",
"                               ..'....                                      ........                   ........                 ",
"                              ..'....                                       ........                   ........                 ",
"                             ..'....                                        ........                   ........                 ",
"                            ..'....                                         ........                   ........                 ",
"                           ..'....                                          ........                   ........                 ",
"                          ..'....                                           ........                   ........                 ",
"                         ..'....                                            ........                   ........                 ",
"                        ..'....                                             ........                   ........                 ",
"                       ..'....                                              ........                   ........                 ",
"                      ..'....                                               ........                   ........                 ",
"                     ..'....                                                ........                   ........                 ",
"                    ..'....                                                 ........                   ........                 ",
"                   ..'....                                                  ........                   ........                 ",
"                  ..'....                                                   ........                   ........                 ",
"                 ..'....                                                    ........                   ........                 ",
"                ..'....                                                     ........                   ........                 ",
"               ..'....                                                      ........                   ........                 ",
"              ..'....                                                       ........                   ........                 ",
"             ..'....                                                        ........                   ........                 ",
"            ..'....                                                         ........                  .........                 ",
"           ..'....                                                         ..........                 .........                 ",
"          ..>....                                                          ..........                 ..........                ",
"         .......                                                          ............               ............               ",
"         ......                                                        ...................        ...................           ",
"         .....                                                       ......................    ......................           ",
"          ...                                                                                                                   ",
"                                                                                                                                ",
"                                                                                                                                ",
"                                                                                                                                ",
"                                                                                                                                ",
"                                                                                                                                ",
"                                                                                                                                ",
"                                                                                                                                ",
"                                                                                                                                ",
"                                                                                                                                ",
"                                                                                                                                "};
