/* XPM */
char * polarsettings_xpm[] = {
"128 128 17 1",
" 	c None",
".	c #000000",
"+	c #090C08",
"@	c #0F120E",
"#	c #1A1C19",
"$	c #212320",
"%	c #282A27",
"&	c #343633",
"*	c #3E403D",
"=	c #454744",
"-	c #494B48",
";	c #4F514E",
">	c #595B58",
",	c #626462",
"'	c #6A6C69",
")	c #747774",
"!	c #7E807D",
"                                                                                                                                ",
"                                                                                                                                ",
"                                                                                                                                ",
"                                                                                                                                ",
"                                                                                                                                ",
"                                                                                                                                ",
"                                                                                                                                ",
"                                                       +++++++............                                                      ",
"                                                  ##$&=;,,,',>;=*&&&&&&&$@.....                                                 ",
"                                               $&*;,)',,-==-,'),;&$.@@@$&*=*%@....                                              ",
"                                            %&->'),;$.........$%............$&*&@....                                           ",
"                                          &*>))'*...............................%&%+...                                         ",
"                                        *;,!)-........... .. ......  ..............%%+...                                       ",
"                                      *>)))$.........         .....         .........@$+...                                     ",
"                                    &;')'........             .....             ........#....                                   ",
"                                  &-'!'@.......               .....               ........$....                                 ",
"                                 *>)!%......                  .@...                  ......+@...                                ",
"                               &-)!>.....                     .%...                    ......#....                              ",
"                              *,))@.....                      .%...                      ......+...                             ",
"                             =,!;.....                        .%...                        .....+...                            ",
"                            -)!$....                          .%...                         .........                           ",
"                           -)).....                           .%...                           ....+...                          ",
"                          =))....                             .%...                            ....&@...                        ",
"                         *,!@...                              .%...                              ...;....                       ",
"                        %>!=...                               .%...                               ..-=....                      ",
"                       $-))...                                .%...                                .&;+...                      ",
"                      %-')&...                                .%...                                @%$.....                     ",
"                     %-,>@.....                               .%...                               %*@.......                    ",
"                    %-'*........                              .*...                              -,&.........                   ",
"                   $='*..........                             .>...                             =)>...........                  ",
"                   &);... ........                            %'@..                            -),....  ......                  ",
"                  $,,...   .......                            ;)%..                           -)'....   .......                 ",
"                 @='....    .......                          ;))&..                          -)'....     ...+...                ",
"                 %,*...      .......                    #$&>')!,&.......                    -),....       ......                ",
"                @;'...        ........               %&=>'))!),=$..........                -),....         ......               ",
"                &,....         .......             &-,)),,-*%$$.......@&%@...             -))....          .......              ",
"               @;;...           .......          &>'!'*..................$%@...          -),....            ......              ",
"               %'....            .......       &-'!'@.......................%+...       ;)'....              ......             ",
"              @;-...              .......    &;'!)#.......    .....   .......+$....    ,!'....               ......             ",
"              $,....               ....$... &>)!*......       .....      ......$#...  >!,....                 ..+...            ",
"             .=-...                 ...%;&$&-',......         .....         ....$-*%&;,,....                  ......            ",
"             #,....                  ...;),;-&.....           .....          ....*',,,&....                    ......           ",
"            .&>...                    ..$,,=@....             .#...            ...-,,&....                     ......           ",
"            .-%...                     ..&*@...               .$...              .$*%....                      ......           ",
"            @>...                      ..@......              .%...              .@......                       ......          ",
"           .%=...                     ..@........             .%...             #$........                      ......          ",
"           .*$...                     #&@.........            .%...            *>$.........                      .....          ",
"           .=...                     #--...........           .%...           -);..........                      ..+...         ",
"          .#*...                    @*,+... ........          .%...          -),.... .......                     ......         ",
"          .%$...                    #,=...   ........         .%...         -),....   ......                      .....         ",
"          .*...                    .&,...     .......         .%...        -)'....     ......                     .....         ",
"          .*...                    +>&...      ........       .%...       -)'....      ......                     ..@...        ",
"         ..=...                   .$,...        .......       .&...      =),....        ......                    ..+...        ",
"         .#&...                   .**...         ........     .*...     -)'....         ......                     .....        ",
"         .#$...                   .;...           .......     &>@..    >)'....           ......                    .....        ",
"         .%....                  .#-...            .......    ,,%..   )!'....            ......                    .....        ",
"         .%...                   .&&...             ....+..   ))*..  '!,....              .....                    .....        ",
"         .%...                   .=$..               ...%&&*  !)-#.@;,>....               ..+..                    ..#...       ",
"         .&...                   @,#..                ..#>,>')),;&$&-*....                .@&...                    @&...       ",
"         .*@..                   *)@..                 .@-,',',,-*&&%....                  &,...                    --...       ",
"         .=&..                  *,)#..                  &-,,,>;**&$$....                   ,'@..                    ';...       ",
"        ..=>..                  ,))$..                   >,-=&&%$##.....                  ,))&..                   ,!&...       ",
"        ..&,$....@$$$$$$$$$%*>')!),$.....@$$$$$$$$&*>)!!'>=&%#@@@....+.....@$$$$$$$$$%&>')!!,&.....+#$$$$$$$$$$&;')!)....       ",
"        ...=$...%*;>>>;>>;>,,))),;&.....$*;>>;>;,>>,,,,-&$#@@@@...........#&=;;>>;>;>,,))),>*$....#&;>;>>;>>;,,,)))'=....       ",
"         ..$....................@...........................@.+............................@......................@#.....       ",
"         ...................................................@@...........................................................       ",
"         ................................................................................................................       ",
"         .....                  ......                   ..............                    .....                   ......       ",
"         .....                  ......                  .@@.............                   .....                   ......       ",
"         .....                  ......                  &&...............                 ......                   .....        ",
"         ......                  .....                 -,&................                .@+...                   .$...        ",
"         ..@...                  .....                ;)>..................               .=...                    .*...        ",
"         ..#...                  ..@...              =)'....  ..... ........              $>...                   .@=...        ",
"         ......                  ......             -),....   .....  ........            .*-...                   .%&...        ",
"          .+...                   ..+..            -))....    .....   .......            @>@...                   .&#...        ",
"          ..+...                  ......          -),....     .....    .......          .&,...                    .-...         ",
"          ..@...                  ......         =),+...      .@...     .......         $>%...                   .@-...         ",
"          ......                   ......       -))....       .%...      .......       #*,...                    .&&...         ",
"           .....                   ......      ;),....        .%...       .......      *,%...                    .-+..          ",
"           ..+...                   ......    >)'....         .%...        .......    >),...                     #;...          ",
"           ......                   ...@...  ,!'....          .%...         ....@... ,)!....                    .**...          ",
"            ..+...                   ...=&#%>',....           .%...          ...#-&&-,)%...                     @>....          ",
"            ..+...                    ..*,>;>*....            .%...           ...-',,,&....                    .%>...           ",
"            ...+...                   .+.,,;&....             .%...            ..#,'>&....                     .-%...           ",
"             ..+...                    ..*;&....              .%...             ..*;&....                      $>...            ",
"             .......                    .$@.....              .%...              @$@.....                     +=*...            ",
"              ......                   @$........             .&...            &*%........                    %,...             ",
"              .......                 *-@..........           .;...           >,,..........                  #>=...             ",
"               ......                -'-............          %'@..         *,!)@...........                #*,...              ",
"               .......              -),.... .....++....       >)%..      %*>)),..... ........               &,*...              ",
"                ......             -),....   ......$$@....    ))*..    &-,)),......   ........             $,,+..               ",
"                .......           -)'....      ......#&%$%=,))!'*....$-'))*......      .......            #*'@...               ",
"                 ......          =)'....        ........@*>)))';%....%=&........        ........          &,=...                ",
"                  ......        -)'....           ..........@%%#..............           .......         $>,....                ",
"                  .......      -)'....               ......................               .......       %='....                 ",
"                   .......    ,)'....                   ................                   .......      ;'&...                  ",
"                    ...+..   ,!'....                         ......                         .......    ,);...                   ",
"                    ....&%$&>),....                           .....                          ...+#... ,!'....                   ",
"                     ....;,,,;....                            .....                           ...&;&%=,>....                    ",
"                      ....*,=....                             .....                            ...,,-*@....                     ",
"                       .........                              .@...                             ..*;%.....                      ",
"                        ........                              .%...                              .$@.....                       ",
"                         ........                             .%...                             @$@......                       ",
"                          .........                           .%...                            *;*......                        ",
"                           .........                          .%...                           >),......                         ",
"                            .....+...                         .%...                         *,!).....                           ",
"                             .....#....                       .%...                       &-')>.....                            ",
"                               ....+$....                     .%...                      =,!)$....                              ",
"                                .....#$....                   .%...                   &*,)!*.....                               ",
"                                 ......$#....                 .*...                 &=,))-......                                ",
"                                   ......@#.....              @>...               &-,!)-......                                  ",
"                                     ......+$@.....           *'@..           #%*>)!'&......                                    ",
"                                      ........$%$+.....       ,!%..       @$%*>,))>@.......                                     ",
"                                         ........&&&%#+...$- '))&.....@$&=;,))'-#.......                                        ",
"                                           .........@&*&*=>)!),*@...@&,,)),-$.........                                          ",
"                                             .............%&%........#$$............                                            ",
"                                                .................................                                               ",
"                                                    .........................                                                   ",
"                                                          .............                                                         ",
"                                                                                                                                ",
"                                                                                                                                ",
"                                                                                                                                ",
"                                                                                                                                ",
"                                                                                                                                ",
"                                                                                                                                ",
"                                                                                                                                ",
"                                                                                                                                ",
"                                                                                                                                "};
