/* XPM */
char * polyline_xpm[] = {
"128 128 17 1",
" 	c None",
".	c #000100",
"+	c #2F0100",
"@	c #450000",
"#	c #5A0000",
"$	c #670000",
"%	c #740000",
"&	c #7E0005",
"*	c #800000",
"=	c #242623",
"-	c #952E2E",
";	c #474947",
">	c #AA5352",
",	c #656764",
"'	c #7B7D7A",
")	c #BE7C7B",
"!	c #D3A7A7",
"                                                                                                                                ",
"                                                                                                                                ",
"                                                                                                                                ",
"                                                                                                                                ",
"                                                                                                                                ",
"                                                                                                              %                 ",
"                                                                                                          &%&%%%%%$             ",
"                                                                                                        &*%&*&&&%%%$$           ",
"                                                                                                       *%*******%%%%$$          ",
"                                                                                                      %%*%>)!)>-***%$$$         ",
"                                                                                                      %%*)!!))->&&*&$$$         ",
"                                                                                                     %**)!!)-&&*&&**%$$$        ",
"                                                                                                     %**!!>-&&&**&**%%$#        ",
"                                                                                                     %%*!)-*&*****&**$$$@       ",
"                                                                                                    %%&&)>&***&******$$$@       ",
"                                                                                                    %&**)>&&***&**%&%%$##       ",
"                                                                                                    $$%*--*&&**&*****%$#@       ",
"                                                                                                   .+%%**-******&***%$$#@       ",
"                                                                                                 ...+$%%****&*****&%%$##        ",
"                                                                                              ....;..@%%&&***&**&&*%$$##        ",
"                                                                                            ....,,...+$%%&&**&***%%%$##+        ",
"                                                                                          ...=',......@$$%&%%*&%%%%$#$@         ",
"                                                                                        ...;,;...... ..-#$$%%%%%%$$##@          ",
"                                                                                      ...;,=......  ..'.@$$$$$$$$$##@           ",
"                                                                                   ....,'.......   ..'...+###$####@@            ",
"                                                                                 ....,,......     ..'....  +@@@@@+              ",
"                                                                               ...=';......      ..'....                        ",
"                                                                             ...;';......       ..)....                         ",
"                                                                           ...;'.......        ..'....                          ",
"                                                                        ....,,.......         ..'....                           ",
"                                                                      ...=,,......           ..'....                            ",
"                                                                    ...=,;......            ..'....                             ",
"                                                                  ...;'=......             ..'....                              ",
"                                                               ....,'.......              ..'....                               ",
"                                                             ....,,.......               ..'....                                ",
"                                                           ...=,,......                 ..'....                                 ",
"                                                         ...=';......                  ..'....                                  ",
"                                    %                  ...;'=......                   ..'....                                   ",
"                                &%&%%%%$$           ....,,.......                    ..'....                                    ",
"                              &%*%***%%%%$$       ....,,.......                     ..'....                                     ",
"                             %*%*&*****%&%$$    ...=';......                       ..'....                                      ",
"                            *%**>)!)>-**%%$$# ...;';......                        ..'....                                       ",
"                            *&*)!!))>--***%$$+.=,=......                         ..'....                                        ",
"                           %%*)!!)-&*&***%%$#@........                          ..'....                                         ",
"                           *&*!!>-&&***&**%%$#......                           ..'....                                          ",
"                           %%*!)-*****&****%$$+..                             ..'....                                           ",
"                          %*&&)>&&**&***&*%%$#@                              ..'....                                            ",
"                          %%**)>&*&&***&*&%%$##                             ..'....                                             ",
"                          $%%*--&****&****%%$#@                            ..'....                                              ",
"                           $%&*-****&****&%%$#@                           ..'....                                               ",
"                           %%%****&***&**%%$$#                           ..'....                                                ",
"                           %%%&*&&***&*&*%$##@                          ..'....                                                 ",
"                            %%%****&***%%%$$$+                         ..'....                                                  ",
"                            $$%$%&%*%%%%%$##@                         ..'....                                                   ",
"                             $$$%%%%%$%$#$#@                         ..'....                                                    ",
"                              $$$$$$$$$$##@                         ..'....                                                     ",
"                                ##$#$####@                         ..'....                                                      ",
"                                  @@#@@+                          ..'....                                                       ",
"                                                                 ..'....                                                        ",
"                                                                ..'....                                                         ",
"                                                               ..'....                                                          ",
"                                                              ..'....                                                           ",
"                                                             ..'....                                                            ",
"                                                            ..)....                                                             ",
"                                                           ..'....                                                              ",
"                                                          ..'....                                                               ",
"                                                         ..'....                                                                ",
"                                                        ..'....                           %                                     ",
"                                                       ..'....                        &%%&%%%%$                                 ",
"                                                      ..'....                       &*%&*%&&%%%$$                               ",
"                                                     ..'....                       %%**&****&%%$%$                              ",
"                                                    ..'....                       *%**>)!)>-***%$$$                             ",
"                                                   ..'....                        **&)!!)>>--**%$$$                             ",
"                                                  ..'....                        %%*)!!)-&&&****%$$$                            ",
"                                                 ..'....                         *%*!!)-&***&*&*%$$#                            ",
"                                                ..'....                          %**!)-**&***&***%$$@                           ",
"                                               ..'....                          %%&*)>&&*&&****&*$$$@                           ",
"                                              ..'....                           %%*&>>&*******&*%%$##                           ",
"                                             ..'....                            $$*&--****&*&****$$#@                           ",
"                                            ..'....                            .+%%**-&&***&***%%%$#@                           ",
"                                           ..'....                           ...+$%&***&&****&*%%$$#                            ",
"                                          ..'....                         ....,;.#$%&*******&**%%##@                            ",
"                                         ..'....                        ....,,...+$%%%**&*&**&%%$#$@                            ",
"                                        ..'....                       ...=,,......#$%%%%*%*%%%%$##@                             ",
"                                       ..'....                      ...;,;......   #$$%$%%%%$$#$#@                              ",
"                                      ..'....                     ...;,=......      #$$$$$$$$$##@                               ",
"                                     ..'....                   ....,'.......         @#$$$#####@                                ",
"                                    ..'....                  ....,,......               @@#@@+                                  ",
"                                   ..'....                 ...=';......                                                         ",
"                                  ..'....                ...;'=......                                                           ",
"                                 ..'....               ...;'.......                                                             ",
"                                ..'....             ....,,.......                                                               ",
"                               ..'....            ...=,,......                                                                  ",
"                              ..'....           ...=';......                                                                    ",
"                             ..'....          ...;'=......                                                                      ",
"                            ..'....        ....,'.......                                                                        ",
"                           ..'....       ....,,.......                                                                          ",
"                          ..'....      ...=,,......                                                                             ",
"                         ..'....    ....=,;......                                                                               ",
"                %       ..)....   ....;,=......                                                                                 ",
"            &%%%%%%%$  ..'....  ....;,.......                                                                                   ",
"          &*%&***&%%%$@.'.... ....;;.......                                                                                     ",
"         *%*******%%%$$@.......=,;......                                                                                        ",
"        %%**>)!)>-**&%&$@....=,=......                                                                                          ",
"        &%&)!!))->&&&&$$#+.;,=......                                                                                            ",
"       *%*)!!)-&&&&&*&%$#@........                                                                                              ",
"       *&*!!>-&&****&&%%$#......                                                                                                ",
"       %%*!)-&********%%$$+...                                                                                                  ",
"      %*%&))&&&&**&*&*%%$#+.                                                                                                    ",
"      %%&*)-&***&&****&%$$@                                                                                                     ",
"      %%&*--******&***%%$$@                                                                                                     ",
"       %%&*-&*******&&%%##+                                                                                                     ",
"       %%%**&&**&*&**%%$$#+                                                                                                     ",
"       $%%&***&&*****%$$##                                                                                                      ",
"        $%%&****&**%%%$##+                                                                                                      ",
"        $$%%%%&&*&%%$$##@                                                                                                       ",
"         $$$%%%$%%%$$#$@                                                                                                        ",
"          #$$$$$$$$$##@                                                                                                         ",
"            #$$#####@@                                                                                                          ",
"              @@#@@@                                                                                                            ",
"                                                                                                                                ",
"                                                                                                                                ",
"                                                                                                                                ",
"                                                                                                                                ",
"                                                                                                                                ",
"                                                                                                                                ",
"                                                                                                                                ",
"                                                                                                                                "};
