/* XPM */
char * polygon_xpm[] = {
"128 128 17 1",
" 	c None",
".	c #000000",
"+	c #191A18",
"@	c #262825",
"#	c #363835",
"$	c #454744",
"%	c #555754",
"&	c #696B68",
"*	c #7B7D7A",
"=	c #8B8D8A",
"-	c #A5A7A4",
";	c #AEB1AE",
">	c #C2C5C1",
",	c #D2D4D1",
"'	c #E2E4E1",
")	c #F0F3F0",
"!	c #FBFDFA",
"                                                                                                                                ",
"                                                                                                                                ",
"                                                                                                                                ",
"                                                                                                                                ",
"                                                                                                                                ",
"                                                                                                                                ",
"                                                                                                                                ",
"                                                                                                                                ",
"                                                              ...                                                               ",
"                                                             .....                                                              ",
"                                                           .........                                                            ",
"                                                          ...$&$.....                                                           ",
"                                                         ..#*%.........                                                         ",
"                                                       ...&&............                                                        ",
"                                                      ..@*....+*@........                                                       ",
"                                                    ...%&....#;,-$.........                                                     ",
"                                                   ...=@...+*,>>;>*+........                                                    ",
"                                                  ..$*....#;,>>>>;>-@.........                                                  ",
"                                                ...&%....*>>>>>;>>,>;$.........                                                 ",
"                                               ...*+...+-,>>>>>>,,,,,,=@........                                                ",
"                                              ..$*....#>>>>>>>,,,'''',,;$.........                                              ",
"                                            ...*$....*>>>>;>>>,'''))))',>*+........                                             ",
"                                           ..#*....@;,>>>>>>,,''!)!)!))'',-@........                                            ",
"                                         ...%&....#;,>>>>>,,,')))!)!!!!))',;$.........                                          ",
"                                        ...*@...+=>,>>;>>,,''))!!!!!!!!)))),,=+........                                         ",
"                                       ..#=....#;>>>>>>,,,''))!!!!!!!!!!!))'',-#.........                                       ",
"                                     ...&%....*,>>>;>>>,,')))!!!!!!!!!!!!!)))',>$.........                                      ",
"                                    ..+=....+-,>>>>>>,,''))!!!!!!!!!!!!!!!!!))',,=@........                                     ",
"                                  ...$*....#;,>>;>>>,,''!)!!!!!!!!!!!!!!!!!!!!)'',;#.........                                   ",
"                                 ...*$...+*,>>>>,>,,'')))!!!!!!!!!!!!!!!!!!!!!!!'''>=+........                                  ",
"                                ..#*....+;,>>;>>>,,''!)!!!!!!!!!!!!!!!!!!!!!!!!!!)'',-@........                                 ",
"                              ...&&....$;,>>>>>>,,)'))!!!!!!!!!!!!!!!!!!!!!!!!!!!)!'',>$.........                               ",
"                             ...*+...+*,>>>>>>,,'')!!!!!!!!!!!!!!!!!!!!!!!!!!!!!!!!)'''>=@........                              ",
"                            ..$*....#;>>>>;>,,,'')))!!!!!!!!!!!!!!!!!!!!!!!!!!!!!!!!!)'',;@.........                            ",
"                          ...&%....*>,>>;>,>,,')))!!!!!!!!!!!!!!!!!!!!!!!!!!!!!!!!!!!!))',;$+........                           ",
"                         ..+=....+;,>>>>>>,,''))!!!!!!!!!!!!!!!!!!!!!!!!!!!!!!!!!!!!!!!)))',=@........                          ",
"                       ...$*....#;,>>>>>,,,''!)!!!!!!!!!!!!!!!!!!!!!!!!!!!!!!!!!!!!!!!!!))',,-$.........                        ",
"                      ...*$...+*,>>>;>>,,'')))!!!!!!!!!!!!!!!!!!!!!!!!!!!!!!!!!!!!!!!!!!!)!)',>=+........                       ",
"                     ..#*....+;,>>;>>>,,'')!!!!!!!!!!!!!!!!!!!!!!!!!!!!!!!!!!!!!!!!!!!!!!!!)!'',;@.........                     ",
"                   ...&&....$;,>>>>>,,,''!)!!!!!!!!!!!!!!!!!!!!!!!!!!!!!!!!!!!!!!!!!!!!!!!!!))'',>$.........                    ",
"                  ...*+...+=>>>>>>>,,'')))!!!!!!!!!!!!!!!!!!!!!!!!!!!!!!!!!!!!!!!!!!!!!!!!!!!!))''>=@........                   ",
"                 ..$*....#;>>>;>>,,,''))!!!!!!!!!!!!!!!!!!!!!!!!!!!!!!!!!!!!!!!!!!!!!!!!!!!!!!!))'',;@.........                 ",
"               ...*%....*,>,>>>>>,,')!!!!!!!!!!!!!!!!!!!!!!!!!!!!!!!!!!!!!!!!!!!!!!!!!!!!!!!!!!!)!)',;$.........                ",
"              ..@*....+;,>>;>>>,,'')))!!!!!!!!!!!!!!!!!!!!!!!!!!!!!!!!!!!!!!!!!!!!!!!!!!!!!!!!!!!))!'',=@........               ",
"            ...%&....#>>>>>>>>,,''))!!!!!!!!!!!!!!!!!!!!!!!!!!!!!!!!!!!!!!!!!!!!!!!!!!!!!!!!!!!!!!)!)'',;$.........             ",
"           ...*#...+=>>>>;>>,,''))!!!!!!!!!!!!!!!!!!!!!!!!!!!!!!!!!!!!!!!!!!!!!!!!!!!!!!!!!!!!!!!!!!!!)',,=+...+....            ",
"          ...*....@;,>>>>>>,,''))!!!!!!!!!!!!!!!!!!!!!!!!!!!!!!!!!!!!!!!!!!!!!!!!!!!!!!!!!!!!!!!!!!!!)))'',;@...#....           ",
"         ...&#...*>,>>;>>,,,)'))!!!!!!!!!!!!!!!!!!!!!!!!!!!!!!!!!!!!!!!!!!!!!!!!!!!!!!!!!!!!!!!!!!!!!!)!)'',>$...@....          ",
"         ...&..+;,>>>>>,,,'')!!!!!!!!!!!!!!!!!!!!!!!!!!!!!!!!!!!!!!!!!!!!!!!!!!!!!!!!!!!!!!!!!!!!!!!!!!!!))'',=@.+....          ",
"         ...+.+=,>>>;>>,,'')))!!!!!!!!!!!!!!!!!!!!!!!!!!!!!!!!!!!!!!!!!!!!!!!!!!!!!!!!!!!!!!!!!!!!!!!!!!!!))'',=......          ",
"         ......;>;>>,,,'''!!!!!!!!!!!!!!!!!!!!!!!!!!!!!!!!!!!!!!!!!!!!!!!!!!!!!!!!!!!!!!!!!!!!!!!!!!!!!!!!!!)''>......          ",
"          .....=;>>>>,'')!)!!!!!!!!!!!!!!!!!!!!!!!!!!!!!!!!!!!!!!!!!!!!!!!!!!!!!!!!!!!!!!!!!!!!!!!!!!!!!!!!!)!'-......          ",
"          .....#;;>,,''!)!!!!!!!!!!!!!!!!!!!!!!!!!!!!!!!!!!!!!!!!!!!!!!!!!!!!!!!!!!!!!!!!!!!!!!!!!!!!!!!!!!!!!)$.#...           ",
"          .....+;>>,'')!!!!!!!!!!!!!!!!!!!!!!!!!!!!!!!!!!!!!!!!!!!!!!!!!!!!!!!!!!!!!!!!!!!!!!!!!!!!!!!!!!!!!!!)..$...           ",
"           .....=;,,'))!!!!!!!!!!!!!!!!!!!!!!!!!!!!!!!!!!!!!!!!!!!!!!!!!!!!!!!!!!!!!!!!!!!!!!!!!!!!!!!!!!!!!!!;.#...            ",
"           ..+..#>>,'')!!!!!!!!!!!!!!!!!!!!!!!!!!!!!!!!!!!!!!!!!!!!!!!!!!!!!!!!!!!!!!!!!!!!!!!!!!!!!!!!!!!!!!!$.&...            ",
"           .....+;>,'!)!!!!!!!!!!!!!!!!!!!!!!!!!!!!!!!!!!!!!!!!!!!!!!!!!!!!!!!!!!!!!!!!!!!!!!!!!!!!!!!!!!!!!!!..%...            ",
"           ......->,'')!!!!!!!!!!!!!!!!!!!!!!!!!!!!!!!!!!!!!!!!!!!!!!!!!!!!!!!!!!!!!!!!!!!!!!!!!!!!!!!!!!!!!!-.#...             ",
"            ..+..&>,'')!!!!!!!!!!!!!!!!!!!!!!!!!!!!!!!!!!!!!!!!!!!!!!!!!!!!!!!!!!!!!!!!!!!!!!!!!!!!!!!!!!!!!!$.&...             ",
"            ..+..@;>,'))!!!!!!!!!!!!!!!!!!!!!!!!!!!!!!!!!!!!!!!!!!!!!!!!!!!!!!!!!!!!!!!!!!!!!!!!!!!!!!!!!!!!!..%...             ",
"            ......;>,'))!!!!!!!!!!!!!!!!!!!!!!!!!!!!!!!!!!!!!!!!!!!!!!!!!!!!!!!!!!!!!!!!!!!!!!!!!!!!!!!!!!!!;.$...              ",
"             ..+..*>,'')!!!!!!!!!!!!!!!!!!!!!!!!!!!!!!!!!!!!!!!!!!!!!!!!!!!!!!!!!!!!!!!!!!!!!!!!!!!!!!!!!!!!$.&...              ",
"             ..@..@>>,')!!!!!!!!!!!!!!!!!!!!!!!!!!!!!!!!!!!!!!!!!!!!!!!!!!!!!!!!!!!!!!!!!!!!!!!!!!!!!!!!!!!'..%...              ",
"             .....+-,,'))!!!!!!!!!!!!!!!!!!!!!!!!!!!!!!!!!!!!!!!!!!!!!!!!!!!!!!!!!!!!!!!!!!!!!!!!!!!!!!!!!!*.%...               ",
"              .....*>,,')!!!!!!!!!!!!!!!!!!!!!!!!!!!!!!!!!!!!!!!!!!!!!!!!!!!!!!!!!!!!!!!!!!!!!!!!!!!!!!!!!!@.&...               ",
"              ..@..@>,'')!!!!!!!!!!!!!!!!!!!!!!!!!!!!!!!!!!!!!!!!!!!!!!!!!!!!!!!!!!!!!!!!!!!!!!!!!!!!!!!!!'..%...               ",
"              ......;>,'))!!!!!!!!!!!!!!!!!!!!!!!!!!!!!!!!!!!!!!!!!!!!!!!!!!!!!!!!!!!!!!!!!!!!!!!!!!!!!!!!*.$...                ",
"               .....=>,,))!!!!!!!!!!!!!!!!!!!!!!!!!!!!!!!!!!!!!!!!!!!!!!!!!!!!!!!!!!!!!!!!!!!!!!!!!!!!!!!!@.&...                ",
"               ..+..#>,,')!!!!!!!!!!!!!!!!!!!!!!!!!!!!!!!!!!!!!!!!!!!!!!!!!!!!!!!!!!!!!!!!!!!!!!!!!!!!!!!'..$...                ",
"               .....+;>,'')!!!!!!!!!!!!!!!!!!!!!!!!!!!!!!!!!!!!!!!!!!!!!!!!!!!!!!!!!!!!!!!!!!!!!!!!!!!!!!*.%...                 ",
"                .....;,,'))!!!!!!!!!!!!!!!!!!!!!!!!!!!!!!!!!!!!!!!!!!!!!!!!!!!!!!!!!!!!!!!!!!!!!!!!!!!!!!@.&...                 ",
"                ..+..&>,,')!!!!!!!!!!!!!!!!!!!!!!!!!!!!!!!!!!!!!!!!!!!!!!!!!!!!!!!!!!!!!!!!!!!!!!!!!!!!!,..$...                 ",
"                ..+..+>>,'))!!!!!!!!!!!!!!!!!!!!!!!!!!!!!!!!!!!!!!!!!!!!!!!!!!!!!!!!!!!!!!!!!!!!!!!!!!!!*.$...                  ",
"                ......;>,'))!!!!!!!!!!!!!!!!!!!!!!!!!!!!!!!!!!!!!!!!!!!!!!!!!!!!!!!!!!!!!!!!!!!!!!!!!!!!@.*...                  ",
"                 ..+..*>,,')!!!!!!!!!!!!!!!!!!!!!!!!!!!!!!!!!!!!!!!!!!!!!!!!!!!!!!!!!!!!!!!!!!!!!!!!!!!'..$...                  ",
"                 ..+..@;,''))!!!!!!!!!!!!!!!!!!!!!!!!!!!!!!!!!!!!!!!!!!!!!!!!!!!!!!!!!!!!!!!!!!!!!!!!!!*.%...                   ",
"                 ......;>,'))!!!!!!!!!!!!!!!!!!!!!!!!!!!!!!!!!!!!!!!!!!!!!!!!!!!!!!!!!!!!!!!!!!!!!!!!!)@.&...                   ",
"                  ..+..*>,'')!!!!!!!!!!!!!!!!!!!!!!!!!!!!!!!!!!!!!!!!!!!!!!!!!!!!!!!!!!!!!!!!!!!!!!!!!'..$...                   ",
"                  ..@..#;,,')!!!!!!!!!!!!!!!!!!!!!!!!!!!!!!!!!!!!!!!!!!!!!!!!!!!!!!!!!!!!!!!!!!!!!!!!!*.$...                    ",
"                  .....+;>,'))!!!!!!!!!!!!!!!!!!!!!!!!!!!!!!!!!!!!!!!!!!!!!!!!!!!!!!!!!!!!!!!!!!!!!!!)@.&...                    ",
"                   .....=>,,')!!!!!!!!!!!!!!!!!!!!!!!!!!!!!!!!!!!!!!!!!!!!!!!!!!!!!!!!!!!!!!!!!!!!!!!'..$...                    ",
"                   ..@..@>,'')!!!!!!!!!!!!!!!!!!!!!!!!!!!!!!!!!!!!!!!!!!!!!!!!!!!!!!!!!!!!!!!!!!!!!!!*.%...                     ",
"                   .....+;>,'))!!!!!!!!!!!!!!!!!!!!!!!!!!!!!!!!!!!!!!!!!!!!!!!!!!!!!!!!!!!!!!!!!!!!!!+.&...                     ",
"                    .....-,,,))!!!!!!!!!!!!!!!!!!!!!!!!!!!!!!!!!!!!!!!!!!!!!!!!!!!!!!!!!!!!!!!!!!!!!'..$...                     ",
"                    ..+..&>,,'))!!!!!!!!!!!!!!!!!!!!!!!!!!!!!!!!!!!!!!!!!!!!!!!!!!!!!!!!!!!!!!!!!!!!*.%...                      ",
"                    .....+;,,')!!!!!!!!!!!!!!!!!!!!!!!!!!!!!!!!!!!!!!!!!!!!!!!!!!!!!!!!!!!!!!!!!!!!!+.&...                      ",
"                    .....+->,'))!!!!!!!!!!!!!!!!!!!!!!!!!!!!!!!!!!!!!!!!!!!!!!!!!!!!!!!!!!!!!!!!!!!'..$...                      ",
"                     ..+..*>,,')!!!!!!!!!!!!!!!!!!!!!!!!!!!!!!!!!!!!!!!!!!!!!!!!!!!!!!!!!!!!!!!!!!)*.%...                       ",
"                     ..+..@>,,'))!!!!!!!!!!!!!!!!!!!!!!!!!!!!!!!!!!!!!!!!!!!!!!!!!!!!!!!!!!!!!!!!!!+.&...                       ",
"                     ......;>,')!!!!!!!!!!!!!!!!!!!!!!!!!!!!!!!!!!!!!!!!!!!!!!!!!!!!!!!!!!!!!!!!!!,..$...                       ",
"                      ..+..*,,,')!!!!!!!!!!!!!!!!!!!!!!!!!!!!!!!!!!!!!!!!!!!!!!!!!!!!!!!!!!!!!!!!!*.%...                        ",
"                      ..+..@>>''))!!!!!!!!!!!!!!!!!!!!!!!!!!!!!!!!!!!!!!!!!!!!!!!!!!!!!!!!!!!!!!!!+.&...                        ",
"                      .....+->,')!!!!!!!!!!!!!!!!!!!!!!!!!!!!!!!!!!!!!!!!!!!!!!!!!!!!!!!!!!!!!!!!,..$...                        ",
"                       .....=>,'')!!!!!!!!!!!!!!!!!!!!!!!!!!!!!!!!!!!!!!!!!!!!!!!!!!!!!!!!!!!!!!!&.%...                         ",
"                       ..@..#;,,')!!!!!!!!!!!!!!!!!!!!!!!!!!!!!!!!!!!!!!!!!!!!!!!!!!!!!!!!!!!!!!!@.&...                         ",
"                       .....+>>,'))!!!!!!!!!!!!!!!!!!!!!!!!!!!!!!!!!!!!!!!!!!!!!!!!!!!!!!!!!!!!!,..$...                         ",
"                        .....-,,,))!!!!!!!!!!!!!!!!!!!!!!!!!!!!!!!!!!!!!!!!!!!!!!!!!!!!!!!!!!!!!&.%...                          ",
"                        ..+..&>,,'))!!!!!!!!!!!!!!!!!!!!!!!!!!!!!!!!!!!!!!!!!!!!!!!!!!!!!!!!!!!!+.&...                          ",
"                        .....+>>,')!!!!!!!!!!!!!!!!!!!!!!!!!!!!!!!!!!!!!!!!!!!!!!!!!!!!!!!!!!!!,..$...                          ",
"                        ......-,,'))!!!!!!!!!!!!!!!!!!!!!!!!!!!!!!!!!!!!!!!!!!!!!!!!!!!!!!!!!!!&.%...                           ",
"                         ..+..*>>'')!!!!!!!!!!!!!!!!!!!!!!!!!!!!!!!!!!!!!!!!!!!!!!!!!!!!!!!!!!!+.&...                           ",
"                         ..+..@;,,')!!!!!!!!!!!!!!!!!!!!!!!!!!!!!!!!!!!!!!!!!!!!!!!!!!!!!!!!!!,..$...                           ",
"                         ......;,,'')!!!!!!!!!!!!!!!!!!!!!!!!!!!!!!!!!!!!!!!!!!!!!!!!!!!!!!!!!&.%...                            ",
"                          ..+..*>,'))!!!!!!!!!!!!!!!!!!!!!!!!!!!!!!!!!!!!!!!!!!!!!!!!!!!!!!!!!+.&...                            ",
"                          ..@..@;,,'))!!!!!!!!!!!!!!!!!!!!!!!!!!!!!!!!!!!!!!!!!!!!!!!!!!!!!!!,.#$...                            ",
"                          .....+;>,'))!!!!!!!!!!!!!!!!!!!!!!!!!!!!!!!!!!!!!!!!!!!!!!!!!!!!!!!&.*...                             ",
"                           ..$..*>,'')!!!!!!!!!!!!!!!!!!!!!!!!!!!!!!!!!!!!!!!!!!!!!!!!!!!!!!!+$&...                             ",
"                           ..@+.+&=-;;;>-======================*&&&%&&&%&&&%&&&%&&&%&&%#####@.*....                             ",
"                           ...@.............................................................@*+...                              ",
"                            .........+@@####@####@#@@@@@@@@#@#####@@@@@@@@@@@++++.+++@@@#$&*&+....                              ",
"                            ......................................................................                              ",
"                            .....................................................................                               ",
"                             ....................................................................                               ",
"                                                                             ...................                                ",
"                                                                                                                                ",
"                                                                                                                                ",
"                                                                                                                                ",
"                                                                                                                                ",
"                                                                                                                                ",
"                                                                                                                                ",
"                                                                                                                                ",
"                                                                                                                                ",
"                                                                                                                                ",
"                                                                                                                                ",
"                                                                                                                                ",
"                                                                                                                                ",
"                                                                                                                                ",
"                                                                                                                                "};
