/* XPM */
char * print_xpm[] = {
"128 128 17 1",
" 	c None",
".	c #000000",
"+	c #3D0202",
"@	c #730000",
"#	c #2E302D",
"$	c #922923",
"%	c #424441",
"&	c #5D5F5D",
"*	c #899091",
"=	c #A4ACAB",
"-	c #DBB7B8",
";	c #A9D0D1",
">	c #C5C9C6",
",	c #D5DAD7",
"'	c #C4EEEF",
")	c #E5E9E6",
"!	c #FBFEFB",
"                                                                                                                                ",
"                                                                                                                                ",
"                                                                                                                                ",
"                                                                                                                                ",
"                                    .                                                                                           ",
"                                 ..............................................................                                 ",
"                                 ........#%%%%#%%%%#%%%#%%#%%%%#%%#%%%#%%%%#%%%#%%#%%%%%%......                                 ",
"                                 ..&*...................................................%*&....                                 ",
"                                 ..&...........................................................                                 ",
"                                 .....%&&%&%&&%&&%&&&%&&&%&&&%&&&%&&&&%&&%&&%&&%&&&%&&&%&%.....                                 ",
"                                 ....%,>>>>>>>>>>>>>>>>>>>>>>>>>>>>>>>>>>>>>>>>>>>>>>>>>>>.....                                 ",
"                                 ....#>>-=>>>->>>>->>>->>->>>>>->>>->>>->>>>>>->>>->>>>>>>.....                                 ",
"                                 ....#>=>>->>>>>>>>>>>>>>>>>>>>>>>>>>>>>>>>->>>>>>>>>->>>>.....                                 ",
"                               ...#..#>>=>>>>,,,>)>)>)>)>)>)>)>)>,,,,,,,,,,,),>,)>,,,,,>,>.......                               ",
"                             .....#..#>>>>,))))))))))))))))))))))))))))))))))))))))))))))>.........                             ",
"                            ......#..#>>>>-))))!))))))))))))))))))))))))))))!)))))))))))!)..........                            ",
"                            ...##.#..#>->,))!)!!!!!!!!!)!!!)!!!!!!!)!!!!!)!)!!!!!!!!!!!!))..........                            ",
"                           ....*&.#..#>>>,)))!!!!!!!!!!!!!!!!!!!!!!!!!!!!!!!!!!!!!!!!!!!!)...........                           ",
"                           ...#&%.#..#>>>-))!!!!!!!!!!!!!!!!!!!!!!!!!!!!!!!!!!!!!!!!!!!!!)...........                           ",
"                           ...#&..#..#>>>,)))!!!!!!!!!!!!!!!!!!!!!!!!!!!!!!!!!!!!!!!!!!!!!...........                           ",
"                           ....&..#..#->>,)!!!!!!!!!!!!!!!!!!!!!!!!!!!!!!!!!!!!!!!!!!!!!!!...........                           ",
"                           ....%..#..#>>-)-))!!!!!!!!!!!!!!!!!!!!!!!!!!!!!!!!!!!!!!!!!!!!)...........                           ",
"                           ...#%..#..#>>>,)!!!!!!!!!!!!!!!!!!!!!!!!!!!!!!!!!!!!!!!!!!!!!!!...........                           ",
"                           ....&..#..#>>>,)))!!!!!!!!!!!!!!!!!!!!!!!!!!!!!!!!!!!!!!!!!!!!)...........                           ",
"                           ....%..#..%>->,)!)!!!!!!!!!!!!!!!!!!!!!!!!!!!!!!!!!!!!!!!!!!!!)...........                           ",
"                           ....&..#..#>>>-))!!!!!!!!!!!!!!!!!!!!!!!!!!!!!!!!!!!!!!!!!!!!!!...........                           ",
"                           ....%..#..#>>>,)))!!!!!!!!!!!!!!!!!!!!!!!!!!!!!!!!!!!!!!!!!!!!!...........                           ",
"                           ....&..#..#>>>>)!!!!!!!!!!!!!!!!!!!!!!!!!!!!!!!!!!!!!!!!!!!!!!)...........                           ",
"                           ....%..#..#->>-)))!!!!!!!!!!!!!!!!!!!!!!!!!!!!!!!!!!!!!!!!!!!!!...........                           ",
"                           ....&..#..%>>,,))!!!!!!!!!!!!!!!!!!!!!!!!!!!!!!!!!!!!!!!!!!!!!)...........                           ",
"                           ....%..#..#>>>,)))!!!!!!!!!!!!!!!!!!!!!!!!!!!!!!!!!!!!!!!!!!!!)...........                           ",
"                           ....&..#..#>>->)!!!!!!!!!!!!!!!!!!!!!!!!!!!!!!!!!!!!!!!!!!!!!!!...........                           ",
"                           ....%..#..#>>>,)))!!!!!!!!!!!!!!!!!!!!!!!!!!!!!!!!!!!!!!!!!!!!!...........                           ",
"                           ....&..#..#>>>-))!!!!!!!!!!!!!!!!!!!!!!!!!!!!!!!!!!!!!!!!!!!!!)...........                           ",
"                           ....&..#..#->>,))!!!!!!!!!!!!!!!!!!!!!!!!!!!!!!!!!!!!!!!!!!!!!!...........                           ",
"                           ....%..#..#>>>,)))!!!!!!!!!!!!!!!!!!!!!!!!!!!!!!!!!!!!!!!!!!!!)...........                           ",
"                           ....&..#..%>>>-))!!!!!!!!!!!!!!!!!!!!!!!!!!!!!!!!!!!!!!!!!!!!!)...........                           ",
"                           ....%..#..#>>>,)!!!!!!!!!!!!!!!!!!!!!!!!!!!!!!!!!!!!!!!!!!!!!!!...........                           ",
"                           ...#%..#..#>>>,)))!!!!!!!!!!!!!!!!!!!!!!!!!!!!!!!!!!!!!!!!!!!!)...........                           ",
"                           ....#..#...**&************************************************=...............                       ",
"              ....................................................................................................              ",
"             .......................................................................................................            ",
"           ..........................................................................................................           ",
"          ....#&&&%%%%%%%%%%%%%%%%%%%%%%%%%%%%%%%%%%%%%%%%%%%%%%%%%%%%%%%%%%%%%%%%%%%%%%%%%%%%%%%%%%%%%%%%%%%#........          ",
"          ...%*&&%##################.##########################################################.#####.####.####.......          ",
"         ...#*&%#......................................................................................................         ",
"         ...&*%........................................................................................................         ",
"         ...&%#.........................................................................................................        ",
"         ...&%...........................................................................................+..............        ",
"        ....&#.........................................................................................+@@@@+...........        ",
"        ....%#................%&###############################################################.......+$-@@@@+..........        ",
"        ....&................#*&&%%#%####%#####%#%###%##%###%###%####%#####%##%##%#####%###%##%##....+$---@@@@+.........        ",
"        ....%#...............#&#.....................................................................@$---@@@@+.........        ",
"        ....%.................&#.....................................................................@@$$$@@@@+.........        ",
"        ....%#................&......................................................................+@@$@@@@@+.........        ",
"        ....%.................##.....................................................................+@@@@@@@@+.........        ",
"        ....%#................%.......................................................................+@@@@@@+..........        ",
"        ....%.................%........................................................................+@@@@+...........        ",
"        ....%#................#...........................................................................+.............        ",
"        ....%...........................................................................................................        ",
"        ....%#..........................................................................................................        ",
"        ....%...........................................................................................................        ",
"        ....&#..........................................................................................................        ",
"        ....%...........................................................................................................        ",
"        ....%#..........................................................................................####............        ",
"        ....%..........................................................................................&=>>=&...........        ",
"        ....&#........................................................................................*))>>>-&..........        ",
"        ....%........................................................................................%,)))>>;>#.........        ",
"        ....%#.......................................................................................*-!))>->=&.........        ",
"        ....%.......................................................................................#=>>))>>=>&.........        ",
"        ....%#.......................................................................................*>>->>>=-&.........        ",
"        ....%........................................................................................%->=>>===#.........        ",
"        ....##..............................................................#.........................*->==-=&..........        ",
"         ..............................###%#%%%%%%%%%%%%%%%%%%%%%%%%%%%%%%%##%%%%%%%%%%%##.............&*>==&...........        ",
"         .............................%%&&&**&**&****&**&**&**&**&**&*$***&-&**&-&****&*&%..............####............        ",
"         .............................&*****======*==================;===*-====*===*====**.............................         ",
"         ............................#&***;=;=;=;>;;;=;>;=;=;>;;=;;;;;;;;;=;=;;>;=;;;=;;==.............................         ",
"          ...........................#****=->>,,>>>>,,>>>,,,>>>,,>>>>>>>,>>,,>>>>,>>,,>,,>............................          ",
"           ..........................#**==>>>),)),)),),),),))),)))))),,),),),))),))),)),,,............................          ",
"            .........................#**==>*########################################=,))),...........................           ",
"             ........................#**=;;*........................................='''''.........................             ",
"               ......................#*==>,=..&&%##############################.....=)))!)........................              ",
"                                 .#..#*==>,=........................................=))))).....                                 ",
"                                 .#..#*=>>,=........................................*,,))).....                                 ",
"                                 ....#==;;;';;;=;*=*=*=*=*=*=*=*=*=*=*=*=*=*=*=*=*=*;;;;''.....                                 ",
"                                 .#..#==--)))))),;>;>;>;>;>;>;>;>;>;>;>;>;>;>;>;>;>>>>>,)).....                                 ",
"                                 .#..#=>>,,)!)))),>>>>>>>>>>>>>>>>>>>>>>>>>>>>>>>>>>>>),)).....                                 ",
"                                 .#..#=>>>)))!)),,,>>>>>>>>>>>>>>>>>>>>>>>>>>>>>>>>>>>,,)).....                                 ",
"                                 .#..#;;;;'''''''';';';';';';';'';';';';'';';';';';'';''''.....                                 ",
"                                 .#..#=>>,))!!!!)))))))))))))))))))))))))))))))))))))))!)!.....                                 ",
"                                 .#..#>>>>)=########################################-))!)).....                                 ",
"                                 .#..#>>>,)=..#.....................................=!!!!!.....                                 ",
"                                 .#..#;;;;'=..%*&##############################.....='''''.....                                 ",
"                                 .#..#>>>>)=........................................*))))!.....                                 ",
"                                 .#..#>->,)=........................................*,)))).....                                 ",
"                                 .#..#>>>>,,>>=>==*===*=====*===*===*==*=====*======>>>,)).....                                 ",
"                                 .#..#;;;;''''''';;>;;>;=;=;>;=;>;=;;;;>;=;=;;=;=;=;;;;;';.....                                 ",
"                                 .#..#>>>,))!!)),,>=>>>>>>>>>>>>>>>>->>>>>>>>>>>>>>>>>,,)).....                                 ",
"                                 .#..#>>>>)))!)))>)>,>>>>,>>>>>>>,>>>>>>>,>,>,>>>>>>,,)))).....                                 ",
"                                 .#..#>>>>)))!!)))),,,,),,,,),),,,,,),,),,,,,,,,,,),,,)))).....                                 ",
"                                 .#..#;;;;''''''''''''''''''''''''''''''''''''''''''''''''.....                                 ",
"                                 .#..#>>>>)>#%######################################=!)!!!.....                                 ",
"                                 .#..#>>>,)=..#.....................................=!)))!.....                                 ",
"                                 .#..#>>>>,=..%*%##############################.....=)!!!).....                                 ",
"                                 .#..#;;;;'=........................................*'''''.....                                 ",
"                                 .#..#>->>)=........................................*,,))).....                                 ",
"                                 .#..#>>>,),>>->====================================>>,,)).....                                 ",
"                                 .#..#>>>>)))))),>>>>=>>=>>=>>=>>=>>=>>=>>=>>=>>>=>>>>>,)).....                                 ",
"                                 .#..#;;;;'''''';;;;=;;=;;;=;;;;;=;;;=;;;;=;=;;=;;;=;;;;''.%...                                 ",
"                                 .#..#>>>>)!!!!))>,>,>,>>>,>>>>>>>>>>>>>>>>,,>,>>>>>>,,),).&...                                 ",
"                                 .#%.#>>>,)))!)!))),,,),),),,,),),),),),),),,,),))),,))))).*...                                 ",
"                                 ..&.#>>>-))!!!)!))))))))))))))))))))))))))))))))))))))!!).*...                                 ",
"                                 ..*..&&%&&&&&&&&&&&&&&&&&&&&&&&&&&&&&&&&&&&&&&&&&&&&&&&&&&%...                                 ",
"                                 .......................................................&&*....                                 ",
"                                 ........##%%%%%%%%%%%%%%%%%%%%%%%%%%%%%%%%%%%%%%%%%%&&&%......                                 ",
"                                 ..............................................................                                 ",
"                                 ..............................................................                                 ",
"                                   ..........................................................                                   ",
"                                                                                                                                ",
"                                                                                                                                ",
"                                                                                                                                ",
"                                                                                                                                ",
"                                                                                                                                ",
"                                                                                                                                ",
"                                                                                                                                ",
"                                                                                                                                ",
"                                                                                                                                ",
"                                                                                                                                "};
