/* XPM */
char * pyscript_xpm[] = {
"128 128 17 1",
" 	c None",
".	c #000000",
"+	c #740000",
"@	c #242F22",
"#	c #902422",
"$	c #51564C",
"%	c #0F6F2D",
"&	c #309E37",
"*	c #8B827B",
"=	c #31B327",
"-	c #94A25C",
";	c #60D730",
">	c #72EB12",
",	c #B7FA27",
"'	c #D8ED98",
")	c #DFF469",
"!	c #F0F2DF",
"                                                                                                                                ",
"                                                                                                                                ",
"                                                                                                                                ",
"               .............                                                                                                    ",
"        .......................                                   ......                                                        ",
"       ............@@$@.........        ...                       ......                                                        ",
"      ..................@$$......      ......                     .......                                                       ",
"     ......@...............@@.....     .......                    ..$....                                                       ",
"     ....$*.......................     ..@@....                   ..*....                                                       ",
"    ....@*........... ............     ...$$....                 ...$....                                                       ",
"    ............          ........     ....$.....                ..$....                                                        ",
"   ............            .......      ..........              ...*....                                                        ",
"   ............             ......       ..........             ...$....                                                        ",
"    ...........            ..@....        ..........           ...*....                                                         ",
"       ........            ..*....         ..........          ...*....                                                         ",
"       ........           ...#....          ..........        ...$.....                                                         ",
"        ..@....          ...$@....           ..........       ...*....                                                          ",
"        ..$....          ...*....             ..........     ...$.....                                                          ",
"        ..$....          ..*.....             ...........    ...*....                                                           ",
"        ..$....         ..@$....               ...........  ...*.....                                                           ",
"        ..@....       ...@*.....                ..............$$....                                                            ",
"        ...$...     ....$*.....                  ............@*.....                                                            ",
"        ...*...........*$.....                    ......@....$.....                                                             ",
"        ...*.........$$.......                     ......*$@......                                                              ",
"        ...$$.....$$$.......                        ......$.......                                                              ",
"        ....$..............                          ............                                                               ",
"        ..................                            ..........                                                                ",
"        ...............                                .........                                                                ",
"        .............                                  ........                                                                 ",
"        ........                                       ........                                                                 ",
"        ........                                      ...$....                                                                  ",
"        ...@....                                      ...$....                                                                  ",
"        ...@....                                      ..*....                                                                   ",
"         ..@....                                     ...*....                                                                   ",
"         .......                                     ..$....                                                                    ",
"         .......                                    ...*....                                                                    ",
"         .......                                    ..$.....                                                                    ",
"         .......                                   ...*....                                                                     ",
"         .......                                   ..@$....                                                                     ",
"         .......                                  ...*....                                                                      ",
"         .......                                  ...$....                                                                      ",
"         .......                                 ...$.....                                                                      ",
"         .......                                 ...*....                                                                       ",
"         .......                                 ..@.....                                                             ..        ",
"         .......                                ...$....                                                             ....       ",
"          ......                                ........                                                            .....       ",
"          ......                                .......                                                             .....       ",
"          ......                                .......                                                            ..@...       ",
"          .....                                 .......                                                           ..$$...       ",
"                                                ......                                                           ...*....       ",
"                                                 ....                                                           ...*@....       ",
"                                                                                                                ..$$@....       ",
"                                                                                                               .$$@.@...        ",
"                                                                                                             .$*$..@....        ",
"                                                         .........                                          .**...@%....        ",
"                                                      ...@@@$$@$@.....                                    .$*@...%&....         ",
"                                                    ..$*$..........@@....                              ..$*@...@%&$....         ",
"                                                  .@*$.......@.@......@@.....                        ..$$$...@%%&=@....         ",
"                                                ..*$....@%%%%%%%%%%@@....$$.....                 ...@*$@....%%%&&-....          ",
"                                               .$*....@%@%@%@%@%%@%%%%@....$$.....           ....$$*@.....@%%&==&$@..@          ",
"                                              .$*...@%%%%%%%%%%%%&%%%%%%%@...................@$$$......@@%%%&&&'-$...           ",
"                                             .$*..@%%%&&&&%&%&&&&&&%%%%%%%%..........@@$$$$@........@@%%%%&&&==-$*..@           ",
"                                            .$*..%%%%%&&&&&%&&&&=&&=&%%%%%%@@@@.................@@%%%%%&&&&&&)-$*...            ",
"                                            .*...%%%&&&&&&&&&&=&===&=&&%%%%%%%%%%@@@@@......@@@%%%%%%%&&&&&;&)%$@..             ",
"                                           ..$.@@%%%&%&&&&%&&=&=====&=&&&%%%%%@%%%%%%%%%%%%%%%%%%%%%%&&&&&';'-$$..@             ",
"                                           ..@.@%%&%&&%&%&%&&&=&=====&&&&&&%%%%%%%%%%%%%%%%%%%%%%%&&&&='=)&'-$*...              ",
"                                           ....%%%%%&&&%&%&&&&&&&&=&%&&&&&=&&&%%%&%&=&&%%%%%%%&&&&&&&&'='''-@*...               ",
"                                           ....@%%%&&&%&%%%&&&&=&&&&%%%%&&&=&&&&%&&&=&&&%&&&&&&&&&&='&;'&)$$*...                ",
"                                           ....@%&&&&&&%%%%&&&&&&&&=%&%%%&%&&&&&&&&&&=&&&&&&&&&&='&;'')'-$$$...                 ",
"                                            ....$&&&%&&%%%%%&&&&&&&&&%&%%%%%%%%=&=&&&&;&&&&'&'='='&''-'$$*@...                  ",
"                                            .....%-&&&&&%%%%&%&&&&&&==%&%%%@@.@&&&&&;&')'';'''''''')'*%$*....                   ",
"                                             ......-&&&%&%%%&%%&&=&&==&&%%%.$*.@%&&''''='''''''''''-$$*@....                    ",
"                                              ...@..$&&&&%&%%%&&%&&&&&&&%%%@.$$.@-&''''''''''''!**@$*$....                      ",
"                                               @..@.@$&&&&&%&%%&&&&&&&==&&%%@..@..@-''''!''!'$@@$$$@....                        ",
"                                                %.....%'&&&&&&%&&&&&&&&&&&&%%@......@*!!-*$@..@$@......                         ",
"                                                 $.....%';'&&&&&&&=&&&&&&&%&&&%@...$$..@.............                           ",
"                                                  @@....@-;='=&&=&&&=&&&&%&%%%&%%....$**$@.......                               ",
"                                                   @.....@-='&=&===&===&=&%&%%&%&%%@....@$..@                                   ",
"                                                     @..$..$-';'==&&&======&&&%&&%%%%........                                   ",
"                                                      @..*.@@-&''=&=&&====;====&=&&%%%%@........                                ",
"                                                       ..*@...*'&'===&==;;>>;====&==&%%%@@.......                               ",
"                                                        ..*....$'''&=&====;>>>>>;=&=&&&%%%@.......                              ",
"                                  @.....$               ..*$...@$!'''=;=;;;>>>>>>;;=;==&&%%%@..@....                            ",
"                                 ..@@@....@             @.@.......$%!''&;;;>>>>>>>>>;;====%%%@......                            ",
"                               @.$*@.......@         $..$$..........$$'&'=;;;>>>,>>>>>;;=;=&&%%......                           ",
"                             @.$*...................@..**............@@$*&;=;;>>>,,,>>>>;>>;=&%%.......                         ",
"                           $@@*$...%%&=&@......@$$*****$.............@@...@$&=;>>>>>>>>>>>>>>;;=%@......                        ",
"                         $$@$*...%&;;;===%...............@%%%%%%%%@.....$.....%%;>>,>>>>>>>>>>>>>=@......                       ",
"                      @..@$*....%=;;;;;;==&%%%@%%@@......@%%%%%%%%%%%@..........-=;;>>>>>>>>,>>,>,=@..@...                      ",
"                     ..$*$....@&;;>;>;;>>;;====&&&%%@@....@%%%&&&=&===&%@.......@&=====;;>>,>>>>>>,>@..@...                     ",
"                    @.*$....@%>>>;>>>>>>>>>;;==&&&&%&%@....%%&&&&&===;;;=%%.@..@%========)=>>,;,>>,>=@......                    ",
"                    .$*.@%&=>>>>>>>>>>>>>>>>;===&=&&&&%@...@%&&&=&==>>>>>>=;======,=,=,&====;=;;>>>,,&@.....                    ",
"                    .*.%,,,,>>>;>;>>>,>>>>;>;;==&&&&&=&%....@&&%&&=;;>>>>>>>>>>>;>;;;====&=&==;;;;>>,>&......                   ",
"                    $@.-,,,,>>;;;;;>>>>>>;;;=====&&&&&&&%....%%&&&&=;>>>>>>>>>>>>;;>;>;;=;=;=,=;;;>>>,,%......                  ",
"                    *..%,,,;,;;;;;;=;;>;>;=;===&&&&%&&&&&@....%%%&&==;>>>>>>>>>;>;>;>;>;>>;;;=;;=>=>>>>>%@....                  ",
"                  .$...=,>,,>);;;=;;;=;;;;>;>;===&=&%&&=&%@.@..%%&&==;;>>>>>>>;>;>>;;;;>;;;;;;=;;;===;;>>&.....                 ",
"                 @*@..%,>>>>>>;;=;;;=)'';;;>>;;;====&=&=&=%.....%&&==;;>>>>>>;>;;;=>;;>=;;=;==;=====;==;>;@....                 ",
"                @*...@;>>>>>>,>;;;;;;!!!!$)>>>>>>=;=======&%.@...%==;>>;>;;;>;>;>>>;;;>=>=>=;=;======>;>;,%....                 ",
"              .$*..@&,>,>,>>>>>>;;;;!!!!..@,>>>>>;>;;;;;;;;&%....%=;>>>>>>>>>>>>;>;>>=>>=>=;;=;======>>;,)@.@..                 ",
"             .*$..@=,,,),,,,,>>>;;=)!!!*@..&,>>>>>>>;>;;;;==&.@..@=>,>,,>,,,,,,,,>;;>>;>;;>=>;>;;====;);)'$.$..                 ",
"            .*$..->,,''''),,,,>>>;;'!!$$*..%,>>>>>>>>;>;;;;=%@@..%,,,,,,,,,,,,;,,)>;,;;>>;>>;>>>;=>>;;))''@@@...                ",
"          $.*$..-,)))''''''),,>,>);)!#.....&,,>>>>>>>>;>;;=&&.$..@),)),),),),),),,);,,),,;,;,;;>>;;;,=)''-.$...                 ",
"          .@*.@-)'''''!!!''')),,),))'$....@)>>>>>>>>;>;>;;;&%.$@.@)))))))))))),))),)))))))))))))),))))'''$@$...                 ",
"          .@$@''''!!!!'!''''))',)),))-@@.-=,,,>>>>>>;>>;>==&%.$$..)))))))))))))))))))))))))'))))))')'''''@.@...                 ",
"          ...$!!!!!!!!!''')')')))))),)),),,,,,,>>>>>>>;>>;=&%.$$.$-#----)'))'''')))'))')'))'''''')'''''!*.*....                 ",
"          ..$.!!!!!!!!!'''''''')))))))))))),,,,,>,>>>>>>>;&%@.*$..@....+.-*-''''''''''''''''))'''''''!'!@@@...                  ",
"          ....*!!$*!!!'!'''''''''''''')'))))))),,,>>>>,>,>=%..$.......@@.....@$*''!'!!''''''''''''!'!'!$@*...                   ",
"           ..$.*$..*!!!!!!'''''!'''''!''''')'')),,,>,>,>,=&@.@.............$....$#-''!!!!'!'!!'!!!'!!!-.*....                   ",
"           ..$$$..@*!!!!!!!!!!!!!!!!!''!'''')'))),,,,,,,,-@.$.................@...@$*!!!!!!!!!!!!!!!!#@*....                    ",
"            ..@...$!!!!!!!!!!!!!!!!!!!'''')'))))))),),),)@$$.....        .............$*!!!!!!!!!!!*$$*....                     ",
"            .....$*!!!!!!!!!!!!!!!!!'''''))))))))))))))-@@*....              ............@#!!!!**@@$*$...@$                     ",
"            +....@!!!!!!!!!!!!!!!!!'!''')'))))))))))))-@*$...                    .......@@....@@$**.....$$                      ",
"           +##....@*!!!!!!!!!!!*!*!-'-''))')'))))))---@*@...                        .........@.........                         ",
"          #*#++.....@@$@$@$.@.@@@..@@$$$@@@@@......+@$*....                            .............                            ",
"         ##*#+ ........$@$$$$$$$$$$@@@@$$$$@$$$$$$$$@.....                                .......                               ",
"       ##*#++    ........................................                                                                       ",
"      ######      .....................................                                                                         ",
"     ##  +++                                                                                                                    ",
"   ##    ++                                                                                                                     ",
"   +     ++                                                                                                                     ",
"         ++                                                                                                                     ",
"         ++                                                                                                                     ",
"         ++                                                                                                                     ",
"         +                                                                                                                      ",
"                                                                                                                                ",
"                                                                                                                                ",
"                                                                                                                                ",
"                                                                                                                                "};
