/* XPM */
char * qsnapsettings_xpm[] = {
"128 128 17 1",
" 	c None",
".	c #000000",
"+	c #2B0101",
"@	c #520000",
"#	c #6E0000",
"$	c #7F0000",
"%	c #8A1314",
"&	c #A24241",
"*	c #616360",
"=	c #7E807D",
"-	c #B87070",
";	c #8C8E8B",
">	c #B4B6B3",
",	c #C6C8C5",
"'	c #D7D9D6",
")	c #E7E9E6",
"!	c #F9FBF8",
"                                                                                                                                ",
"                                                                                                                                ",
"                                                                                                                                ",
"                                                                                                                                ",
"                                                                                                                                ",
"                                                                                                                                ",
"                                                                                                                                ",
"                                                                                                                                ",
"                                                                                                                                ",
"                                                                                                                                ",
"                                                                                                                                ",
"                                                                                                                                ",
"                                                                                                                                ",
"                                           ................                                                                     ",
"                                       ..........+.+............                                                                ",
"                                    ......+@@#$$##$#$$$$#@@++......                                                             ",
"                                 .....+@###$$#$$$$$$$##$######@+.....                                                           ",
"                               ....+@#$#$$$$#$#$$#$$$$$$$$$$##$$$#+....                                                         ",
"                             ....@#$$$$$$$$%&&&&&&&&&%%%$$$$$$$##$##@....                                                       ",
"                           ....@$#$$$$%&&---&&&&&&%&%&&&%&%%$$$$$#####@+...                                                     ",
"                          ...@##$$$%&---&&&&%%$$$$$$$$$$$%%%%&#$$$$$####@....                                                   ",
"                        ...+##$$$&----&&%%$$$$$$$$$$$$$$$$$$$$%%%$$$$$####+...                                                  ",
"                       ...@$$$$&---&&%%%$$$$$$$$$$$$$$$$$$$$$$$$%$%$$$#$###@...                                                 ",
"                      ..+#$$%%-;-&&%%%$$$$$$$$$$$$$$$$$$$$$$$$$$$$$%$$$$$$$##+...                                               ",
"                     ..+#$$$----&%%#$$$$$$$$$$$$$$$$$$$$$$$$$$$$$$$$$$$$$$$#$#@...                                              ",
"                   ...@$$#&---&%$$$$$$$$$$$$$$$$$$$$$$$$$$$$$$$$$$$$$$$$$$$$###@...                                             ",
"                  ...@#$$&---&%%$$$$$$$$$$$$$$$$$$$$$$$$$$$$$$$$$$$$$$$$$$$$$###@...                                            ",
"                 ...@$$$---&%$$$$$$$$$$$$$$$$$$$$$$$$$$$$$$$$$$$$$$$$$$$$$$$#$$$##...                                           ",
"                 ..@$$$---&&$$$$$$$$$$$$$$$$$$$$$$$$$$$$$$$$$$$$$$$$$$$$$$$$$#$###@...                                          ",
"                ..@$#%---&%$$$$$$$$$$$$$$$$$$$$$$$$$$$$%$$$$$$$$$$$$$$$$$$$$$$$$$##@...                                         ",
"               ..+$$$---&$%$$$$$$$$$$$$$%$$$##$#######$$#$$$$$$$$$$$$$$$$$$$$$$$$$##@..                                         ",
"              ..+$$$---&%%$$$$$$$$$$$$$$$$#$############$#$#$$%$$$$$$$$$$$$$$$$$$$$##+..                                        ",
"             ...$$$---&$$$$$$$$$$$$$%$$#####@#@@#@#@@#@#@####$$$$$$$$$$$$$$$$$$$$#$###+..                                       ",
"             ..@$$&--&%%$$$$$$$$$$$$$#####@@#@@++++.+++@@#@#####%$$$$$$$$$$$$$$$$$$$$#@...                                      ",
"            ..@#$%--&%$$$$$$$$$$$%$$###@@#@++.............+@@#####$$$$$$$$$$$$$$$$$####@..                                      ",
"            ..#$%--&%%$$$$%$$$$$#$###@#@@....................+@@#$$$$$$$$$$$$$$$$$$$$$#@+..                                     ",
"           ..@$$&;-&$$$$$$$$$%$$$##@#@@.....              .....@@###$$$$$$$$$$$$$$$$#$##@..                                     ",
"          ..+$$%--&%%$$$$$$$$$$$###@@+....                   ....@@###$$$$$$$$$$$$$$$$###@..                                    ",
"          ..##$&--%$$$$$$$$$$$###@#@....                       ...+$##$$$$$$$$$$$$$$$$##@#..                                    ",
"         ..+#%%--%%$$$$$$$$$$$$#@@+...                          ...+##$$$$$$$$$$$$$$$$$$##+..                                   ",
"         ..@$$--&%$$$$$$%$$$#####+...                             ..+###$$$$$$$$$$$$$$#$###..                                   ",
"         ..$#$--&%$$$$$$$$$$##@@+...                               ..+###$$$%$$$$$$$$$$$###+..                                  ",
"        ..@$$&-&$$$$$$$$$$$$###+...                                 ..+###$$$$$$$$$$$$$$###@..                                  ",
"        ..#$#--&%$$$%$$$#$$##@@...                                   ..@#$$$$%$$$$$$$$$$$###+..                                 ",
"        .+$$%-&%$$$$$$$$$$###@+..                                    ...@##$$$$$$$$$$$$$$##@+..                                 ",
"       ..@$$&-&$$$$$$$$$$$##@+..                                      ..+#$$$%%$$$$$$$$$$$###..                                 ",
"       ..#$$-&%%$$$$$$$$$#@#@...                                       ..@##$$$%$$$$$$$$$####..                                 ",
"       .+$#$-&%$$%$$$$$$$##@+..                                        ..+#$$$%$$$$$$$$$$$###+..                                ",
"      ..+$#%-&%$$$$$$$$#$#@@..                                          ..@##$%%$$$$$$$$$$###@..                                ",
"      ..##$&-%$$$$$$$$$$###+..                                          ..+$$$$%%$$$$$$$$$###@..                                ",
"      ..#$$&&%%$$$$$$$$$##@+..                                           ..##$$%$$$$$$$$$$$##@..                                ",
"      ..$$$-&%$$$$$$$$$###@..                                            ..@#$%%%$$$$$$$$$$###+..                               ",
"      ..$#$-&$$$$%$$$$$##@+..                                             .+$$$%%$$$$$$$$$$##@+..                               ",
"      .+#$$&&$$$$$$$$$$###+..                                             ..##$%&$$$$$$$$$$$##@..                               ",
"     ..@$$$&%$$%$$$$$$##@@..                                              ..##$$%$$$$$$$$$$##@@..                               ",
"     ..@#$%-&$$$$$$$$$$###..                                              ..@$$%&%$$$$$$$$$$#@@..                               ",
"     ..@#$$&%$$$$$$$$$$$@#..                                              ..@#$$&$$$$$$$$$$#$@@..                               ",
"     ..@#$%-%$$$$$$$$$###@..                                              ..@$$$&%$$$$$$$$$$##@..                               ",
"     ..@#$%&%$$$$$$$$$###@..                                              ..+#$$&%$$$$$$$$$$##@..                               ",
"     ..##$%&%$$$$$$$$$$#@#..                                              ..@$$$&%$$$$$$$$#$#@#..                               ",
"     ..@$$%-%$$$$$$$$$$##@..                                              ..+$$$&%$$$$$$$$$$##@..                               ",
"     ..@$#%&$$$$$$$$$$#$@#..                                              ..@$$%&%$$$$$$$$$#$@#..                               ",
"     ..@$$%&%$$$$$$$$$###@..                                              ..@#$$&%$$$$$$$$$###@..                               ",
"     ..@$%%&%$$$$$$$$$$#@#..                                              ..+##%&%$$$$$$$$$$#@#..                               ",
"     ..@$$%$$$$$$$$$#$$##@..                                              ..@$$$%%$$$$$$#$#$##@..                               ",
"     ..###$#%#$#$$#$$###@#..                                              ..@###$#$$#$$#$#$##@#..                               ",
"     ..@$###############@@..                                              ..@#$#$############@@..                               ",
"     .......................                                              .......................                               ",
"     .......................                                              .......................                               ",
"     ..,!!))))))))))))))''..                                              ..;)!!)))))))))))))''..                               ",
"     ..,)!!!)!)!)!)!))))',..                                              ..;!)!!)!))!)!)))))',..                               ",
"     ..,!!!!!!!!!)!!!!))',..                                              ..;!!!!!!!!!!!!!!))',..                               ",
"     ..>!!!!!!!!!!!!!!)),,..                                              ..;!!!!!!!!!!!!!!!)'>..                               ",
"     ..,)!!!!!!!!!!!!!!',>..                                              ..;)!!!!!!!!!!!!!)',>..                               ",
"     ..>!!!!!!!!!!!!!!)',>..                                              ..;)!!!!!!!!!!!!!)',>..                               ",
"     ..>!)!!!!!!!!!!!!!',>..                                              ..;!!!!!!!!!!!!!!)),>..                               ",
"     ..>!!!!!!!!!!!!!)!',>..                                              ..;)!!!!!!!!!!!!!)',>..                               ",
"     ..>!)!!!!!!!!!!!!)',>..                                              ..;))!!!!!!!!!!!)!',>..                               ",
"     ..>!!!!!!!!!!!!!!)),>..                                              ..;)!!!!!!!!!!!!!!',>..                               ",
"     ..>!)!!!!!!!!!!!!)',>..                                              ..;!!!!!!!!!!!!!!)',>..                               ",
"     ..>)!!!!!!!!!!!!!)',>..                                              ..;)!!!!!!!!!!!!!)),>..                               ",
"     ..>!!!!!!!!!!!!!!!',>..                                              ..;)!!!!!!!!!!!!)!',>..                               ",
"     ..>)!!!!!!!!!!!!)!',>..                                              ..;)!!!!!!!!!!!!!)',>..                               ",
"     ..>!)!!!!!!!!!!!!)',>..                                              ..;)!!!!!!!!!!!!!!',>..                               ",
"     ..>!!!!!!!!!!!!!!)''>..                                              ..;))!!!!!!!!!!!))',>..                               ",
"     ..>))!)!!!)!!!)!!)',>..                                              ..;)!!!!!)!!!)!!!)',>..                               ",
"     ..>))))))))'))))'',>>..                                              ..;))))))))))))))',,>..                               ",
"     ..>')''''''',''',,,,>..                                              ..=)'''','''','',,,>>..                               ",
"     ..>'',,>,>,,,>,,>>>>>..                                              ..>'',,,,>,>,,>,>,>>>..                               ",
"     ...;=*=**=***=***=*=...                                              ...;=*=***=***=**=*=...                               ",
"      .....................                                                ..............+......                                ",
"       ...................                                                  ...................                                 ",
"                                                                                                                                ",
"                                                                                                                                ",
"                                                                                                       ..........               ",
"                                                                                                     ...............            ",
"                                                                                                    .....**===*......           ",
"                                                                                                   ....*;,'''')';*....          ",
"                                                                                                  ....;')))))))'',*....         ",
"                                                                                                 ....>)!!!!!)))'')';...         ",
"                                                                                                 ...>))!)!!!!)))''',=...        ",
"                                                                                                ...*)!!!)!!!!)))''',>*..        ",
"                                                                                                ...>))!)!!!!!!))''',,=...       ",
"                                                                                                ..*'!!!!!!!!!)!))'',,,...       ",
"                                                                                                ..*'!))!!!!!!!)))',,,>*..       ",
"                                                                                                ..=))!!!!!!!!!!)'',,>>*..       ",
"                                                                                                ..;)))!)!!!!!)!)'',,>>*..       ",
"                                                                                                ..=))))!!!!!!!))'''>,>*..       ",
"                                                                                                ..*')))))!!)!))',,,>>>*..       ",
"                                                                                                ..*')')))))))''',,>>>>...       ",
"                                                                                                ...;)'''')))''',,>,>>=...       ",
"                                                                                                ...*''''''','',,>>>>>*..        ",
"                                                                                                 ...;'''''',,,,>,>>>*...        ",
"                                                                                                 ...+;',,,,,,,>>>>>;....        ",
"                                                                                                  ...**',,,,>>>>>>*+...         ",
"                                                                                                   ...+*;>>>>>>;=*....          ",
"                                                                                                    .....***=**+.....           ",
"                                                                                                     .....+.+.......            ",
"                                                                                                      .............             ",
"                                                                                                         .......                ",
"                                                                                                                                ",
"                                                                                                                                ",
"                                                                                                                                ",
"                                                                                                                                ",
"                                                                                                                                ",
"                                                                                                                                ",
"                                                                                                                                ",
"                                                                                                                                "};
