/* XPM */
char * qtracksettings_xpm[] = {
"128 128 17 1",
" 	c None",
".	c #000000",
"+	c #2C0101",
"@	c #550002",
"#	c #6D0000",
"$	c #800000",
"%	c #2C2D2B",
"&	c #8A1514",
"*	c #A0403F",
"=	c #5A5C5A",
"-	c #787A77",
";	c #B87070",
">	c #A2A5A1",
",	c #BFC1BE",
"'	c #C9CBC8",
")	c #D6D8D5",
"!	c #F8FAF7",
"                                                                                                                                ",
"                                                                                                                                ",
"                                                                                                                                ",
"                                                                                                                                ",
"                                                                                                                                ",
"                                                                                                                                ",
"                                                                                                                                ",
"                                                                                                                                ",
"                                                                                                                                ",
"                                                                                                                                ",
"                                                                                                                                ",
"                                                                                                                                ",
"                                                                                                                                ",
"                                           ................                                                                     ",
"                                       ..........+.++...........                                                                ",
"                                    ......+@@#$$$$$#$$$$##@++......                                                             ",
"                                 .....+@&&&&&*&**&*&&&&$$#$$$$@+.....                                                           ",
"                               ....+@&*&**;*;;*;*;*;*****&&$$$$$$#+....                                                         ",
"                             ...+@&****;;;;;;;;;*;;*;********$$$$$$$@....                                                       ",
"                           ....@****;;;;;;;******&&*&**********&$$$#$#@+...                                                     ",
"                          ...@*&*;;;;;;;***&&&$$$#$$$$$$$&&&&&***&&$$$##@....                                                   ",
"                        ...+***;;>;;;**&&&$$$$$$$$$$$$$$#$$$&$&&&*&&$$$$##+...                                                  ",
"                       ...&**;;>;;;*&&&$$$$$$$$$$$$$$$$$$$$$$$$&$&&*&&$$$$##...                                                 ",
"                      ..+#**;;;;**&&&$$$$$$$$$$$$$$$$$$$$$$$$$$$$$$&&&&$$$$##+...                                               ",
"                     ..@**;;;;;**&$$$$$$$$$$$$$$$$$$$$$$$$$$$$$$$$$$&&&&&$$$##@...                                              ",
"                   ...@**;;;;**&$$$$$$$$$$$$$$$$$$$$$$$$$$$$$$$$$$$$$$&$&&$$$##@...                                             ",
"                  ...@**;;;;*&&$$$$$$$$$$$$$$$$$$$$$$$$$$$$$$$$$$$$$$$$$$$&$$$$$@...                                            ",
"                 ...@**;>;**&&$$$$$$$$$$$$$$$$$$$$$$$$$$$$$$$$$$$$$$$$$$$$&$$#$#$#...                                           ",
"                 ..@**;;;;&&$$$$$$$$$$$$$$$$$$#$$$$$$#$$#$$$$$$$$$$$$$$$$$&$&$$$##@...                                          ",
"                ..@**;;;*&&$$$$$$$$$$$$$$$$#$$$#$#$#$$#$$$$$$$$$$$$$$$$$$$$$$&$$$$##...                                         ",
"               ..@**;;;**&&$$$$$$$$$$$$#$#$###$###########$$$$$$$$$$$$$$$$$$$$&$$###@..                                         ",
"              ..+&*;;;*&$$$$$$$$$$$$#$$$#$#####@@#@@##@#######$#$$$$$$$$$$$$$$$$$$$##+..                                        ",
"             ...#*;;;**#&$$$$$$$$$$$$##$###@@@@@@@@@@@@@@@####$#$#$$$$$$$$$$$$$$$$$$##+..                                       ",
"             ..@&*;;*&$$$$$$$$$$$$#$####@@@@@@@++++.+++@@@@@###$#$$#$$$$$$$$$$$$$$#$$##...                                      ",
"            ..@&*;;;*&$$$$$$$$$$$$$###@@@@@+..............+@@@@###$$$$$$$$$$$$$$$$$$###@..                                      ",
"            ..$*;;**$&$$$#$$$$$$$####@@@+....................+@@####$#$$$$$$$$$$$$$$$###+..                                     ",
"           ..@$*;;*&&$$$$$$$$$#$###@@@++....              .....+@###$$$$$$$$$$$$$$$$$$##@..                                     ",
"          ..+$&;;*&$$$$$$$$$$$$###@@@+....                   ....@####$#$$$$$$$$$$$$$$###+..                                    ",
"          ..@&*;**&&$$$$$$$$#$###@@+....                       ...+#@#$$#$$$$$$$$$$$$$$$##..                                    ",
"         ..+&&;;*&$$$$$$$$$$$##@@@+...                          ...+####$$$$$$$$$$$$$#$###+..                                   ",
"         ..#&*;**&$$$$$$$$$$$##@@+...                             ...####$#$$$$$$$#$$$$$###..                                   ",
"         .+#&*;*&$$$$$$$$$#$##@@+...                               ..+##$$$$$$$$$$$$$$$$###+..                                  ",
"        ..@$****$#$$$$$$$$&##@@+...                                 ..+###$$$$$$$$$$$$$$$##@..                                  ",
"        ..$&*;*&$$$$$$$$$$###@@...                                   ..@###$$$$$$$$$$$$$$##@+.                                  ",
"        .+$&***&$$$$$$$$#$##@@...                                    ...@##$$$$$$$$$$$$#$###+..                                 ",
"       ..@#*;*&&$$$$$$$$$##@@+..                                      ..+##$#$$$$$$$$$$$$$##@..                                 ",
"       ..$$***&$$$$$$$$$$##@@...                                       ..@#$$$$$$$$$$$$$$$###+.                                 ",
"       .+#&***$$$$$$$$$$##@@+..                                        ..+###$&$$$$$$$$$$$##@+..                                ",
"      ..+$&**&&$$$$$$$$$$#@@..                                          ..@$#$$&$$$$$$$$$$###@..                                ",
"      ..@$&**&$$$$$$#$$###@+..                                          ..+##$$$$$$$$$$$$$#$@@..                                ",
"      ..$#&**&$$$$$$$$$##@#...                                           ..##$$&$$$$$$$$$$$###..                                ",
"      ..$&**&$$$$$$$$$$##@@..                                            ..@#$$$&$$$$$$$$$$##@+.                                ",
"      ..$$&*&&$$$$$$$$$##@+..                                             .+$#$$&$$$$$$$$$$###+..                               ",
"      .+#$**&$$$$$$$$$$##@+..                                             ..##$&$$$$$$$$$#$##@@..                               ",
"     ..@$#&*&$$#$$$$$$###@..                                              ..#$$&&$$$$$$$$$$##@@..                               ",
"     ..@&$&*&$$$$$$#$$###@..                                              ..@#$&&$$$$$$$$$$##@@..                               ",
"     ..+$$&*&$$$$$$$$$$##@..                                              ..@#$&&&$$$$$$$$$###@..                               ",
"     ..@#&&*$$$$$$$$$####@..                                              ..@$$&&$$$$$$$$$$##@@..                               ",
"     ..@$$&*$$$$$$$$$$###@..                                              ..+$$&&&$$$$$$$$$###@..                               ",
"     ..#$&&&&$$$$$$$$$$##@..                                              ..@$&&&&$$$$$$$$$$#@#..                               ",
"     ..@$#*&&$$$$$$$$$###@..                                              ..@#$&*$$$$$$$$$#$##@..                               ",
"     ..#$$&&$$$$$$$$$$###@..                                              ..+&#&&&$$$$$$$$$###@..                               ",
"     ..@$&&*&$$$$$$$$$###@..                                              ..@$$&*$$$$$$$$$$###@..                               ",
"     ..@$&&&&$$$$$$$$$##@@..                                              ..+$&&&$$$$$$$$$$###@..                               ",
"     ..@$#$&#$$$#$#$#$###@..                                              ..@$#&$&$$$$$$$$$###@..                               ",
"     ..@#$##$###$#######@@..                                              ..@##$############@@@..                               ",
"     ..@####@#########@@#@..                                              ..@######@#####@##@@@..                               ",
"     .......................                                              .......................                               ",
"     .......................                                              .......................                               ",
"     ..'!!!!!!!!!!!!!!!!!)..                                              ..>!!!!!!!!!!!!!!!!!)..                               ",
"     ..'!!!!!!!!!!!!!!!)))..                                              ..>!!!!!!!!!!!!!!!)))..                               ",
"     ..'!!!!!!!!!!!!!!!!)'..                                              ..>!!!!!!!!!!!!!!!!)'..                               ",
"     ..,!!!!!!!!!!!!!!!)),..                                              ..>!!!!!!!!!!!!!!!)),..                               ",
"     ..,!!!!!!!!!!!!!!!)'>..                                              ..-!!!!!!!!!!!!!!!)'>..                               ",
"     ..,!!!!!!!!!!!!!!!)',..                                              ..>!!!!!!!!!!!!!!))',..                               ",
"     ..,!!!!!!!!!!!!!!)),>..                                              ..-!!!!!!!!!!!!!!!),>..                               ",
"     ..,!!!!!!!!!!!!!!!)'>..                                              ..>!!!!!!!!!!!!!!))',..                               ",
"     ..,!!!!!!!!!!!!!!)),,..                                              ..-!!!!!!!!!!!!!!!),>..                               ",
"     ..,!!!!!!!!!!!!!!!''>..                                              ..>!!!!!!!!!!!!!!))',..                               ",
"     ..,!!!!!!!!!!!!!!!),,..                                              ..-!!!!!!!!!!!!!!!),>..                               ",
"     ..,!!!!!!!!!!!!!!)),,..                                              ..-!!!!!!!!!!!!!!))',..                               ",
"     ..,!!!!!!!!!!!!!!!)'>..                                              ..-!!!!!!!!!!!!!!)),>..                               ",
"     ..,!!!!!!!!!!!!!!))'>..                                              ..>!!!!!!!!!!!!!!!)',..                               ",
"     ..,!!!!!!!!!!!!!!!',,..                                              ..-!!!!!!!!!!!!!!)),>..                               ",
"     ..,!!!!!!!!!!!!!!)),>..                                              ..>!!!!!!!!!!!!!!!'',..                               ",
"     ..,)!!!!!!)!!)!!!)',>..                                              ..-)!!!!!!!!!)!!))',>..                               ",
"     ..,))))))))))))))'',>..                                              ..-!)))))))))))))',,>..                               ",
"     ..,)))',''''''',,,>>>..                                              ..-))''',,,''''',,>>>..                               ",
"     ..>),,,>>>,>>>>,>>>>,..                                              ..>)',>,,>>>>,>>>,>>>..                               ",
"     ...>=-=====-========...                                              ...---===-==========...                               ",
"      .....................                                                .....................                                ",
"       ...................                                                  ...................                                 ",
"                                                                                                                                ",
"                                                                                                                                ",
"                                                                                                       ..........               ",
"                                                                                                     ...............            ",
"                                                                                                    .....==---=%.....           ",
"                                                                                                   ...%=>)!!!!!)>=....          ",
"                                                                                                  ...%-)!!!!!!!))'-%...         ",
"                                                                                                 ...%>!!!!!!!!!!!))-%..         ",
"                                                                                                 ..%-!!!!!!!!!!)!)))=...        ",
"                                                                                                ...=!!!!!!!!!!!!)!)),=..        ",
"                                                                                                ...,!!!!!!!!!!!!)))),-...       ",
"                                                                                                ..%)!!!!!!!!!!!!!))'',%..       ",
"                  ==%.....            ==%.....            ==%.....            ==%%....          ..-!!!!!!!!!!!!))))',,=..       ",
"                  =---%...            =---%...            =---%...            =--=%...          ..-!!!!!!!!!!!!!))',,>=..       ",
"                  .%==....            .%==....            .%==....            .%==....          ..>)!!!!!!!!!!!)))',,>=..       ",
"                  ........            ........            ........            ........          ..-)!)!!!!!!!)!)),,,>,=..       ",
"                  ........            ........            ........            ........          ..-))))!)!)!!)))',,>>>=..       ",
"                                                                                                ..%))!))!)))))''>,,>>>%..       ",
"                                                                                                ..%>)))))))))',,,>>>>-...       ",
"                                                                                                ...=''')')'',,,,>>>>>%..        ",
"                                                                                                 ..%-''','',,,>>>>>>=+..        ",
"                                                                                                 ..+%-,,,,,>,>>>>>>=%...        ",
"                                                                                                  ...%-,,>,>>;>>>>=%...         ",
"                                                                                                   ...+=->>>>>>;-%....          ",
"                                                                                                    ....%%=====%%....           ",
"                                                                                                     ....+..........            ",
"                                                                                                      .............             ",
"                                                                                                         .......                ",
"                                                                                                                                ",
"                                                                                                                                ",
"                                                                                                                                ",
"                                                                                                                                ",
"                                                                                                                                ",
"                                                                                                                                ",
"                                                                                                                                ",
"                                                                                                                                "};
