/* XPM */
char * quickselect_xpm[] = {
"128 128 17 1",
" 	c None",
".	c #000000",
"+	c #161815",
"@	c #252725",
"#	c #373936",
"$	c #424441",
"%	c #636562",
"&	c #7A7C79",
"*	c #878A86",
"=	c #98A000",
"-	c #A4A6A3",
";	c #C8D02C",
">	c #D0DA00",
",	c #CBCDCA",
"'	c #E8EE98",
")	c #F0F26F",
"!	c #EFF2ED",
"                                                                                                                                ",
"                                                                                                                                ",
"                                                                                                                                ",
"                                                                                                                                ",
"                                                                                                                                ",
"                                                                                                                                ",
"                                                                                                                                ",
"                                                                                                                                ",
"                                                                                                                                ",
"                                                                                                                                ",
"     $@+............................................................................................                            ",
"     $$#@@@#$#$$$$$$$$$$$$$$$$$$$$$$$$$$$$$$$$$$$$$$$$$$$$$$$$$$$$$$$$$$$$$$$$$$$$$$$$$$$$$$$##@....                            ",
"    @$%&$$####$$$$$$$$$$$$$$$$$$$$$$$$$$$$$$$$$$$$$$$$$$$$$$$$$$$$$$$$$$$$$$$$$$$$$$$$$$$$$$%%&%$+...                           ",
"   ..$&&#.....................................................................................#%%+....                          ",
"   ...##........................................................................................@.....                          ",
"   ......@$%%%$$$$$%$%$%$%%%%%%%%%%%%%%%%&%&&&&&&&&&&&&&&&&&&&&%%%%%%%%%%%%%%%%%$%$%$%$$$$$$$##@......                          ",
"    .....+%&&*-*-***-**-*-**--------,-,-,-,--,-,,,,,,,,-,-,--,-,,-,----------*-*-**-**-*-*&%%%$......                           ",
"     .....@%&***-*-**--*-------------,-,-,-,,,-,-,,-,-,,,,,,-,,-,-,-,-,------------*-**-**&%%%@.....                            ",
"     ......$%%&*&*****-*-*--*----,-,---,-,,-,,,,,,,,,,,,,-,,,,-,,-,-,-------*--*-******&&&%%$$.@....                            ",
"      .....+%%%&&&******-**---------,,,,-,,,,,,,,,,,!,,,,,,,,,,,,-,-,-,-------*-******&*&%%%$+##...                             ",
"      ......$%%&*****-*-------,-,,,,-,,,,,,,,,!,!!!,!!!!!,,,,,,,,,,,,,-,,----------*-***&&%%#@%+...                             ",
"       ......%%&***-*--*-----,-,--,,,,,,,!,!!,!!,!!!!!!!!!!!,!,!,,,,,,,,-,,-,-------*-**&&%%@$%...                              ",
"        .....#%&*-*-*------,-,-,,,,,,,,!,!,!!!!!!!!!!!!!!!!!!!,!,!,,,,,,,-,--------*-*-*&%%@$%....                              ",
"        ......%&&**--------,-,-,,,,,!,,!,!!,!!!!!!!!!!!!!!!!!!!,!,!,,,,,,,,,,-,-------**&&$@%$...                               ",
"         .....@%&*-*-----,-,-,,,,,,,,!,!,!!!!!!!!!!!!!!!!!!!!!!!,!,!,,,,,-,-,-------*-*&&%@$%...                                ",
"         ......%&&*-------,-,-,-,,,,,,,!!,!!!!!!!!!!!!!!!!!!!,!!!,,!,,,,,,,,,-,,------*&%$@%@...                                ",
"          ......%&**--------,-,,,,,,!,!,!!,!!!!!!!!!!!!!!!!!!!!,!!,,!,,,,,--,-------***&%@$%...                                 ",
"           .....$&**-----,-,,-,,,,,,,!,,!,!!!!!!!!!!!!!!!!!!!!!,!,!,,,,,,,,-,,-,-----*&%$$%....                                 ",
"           ......%&*------,-,-,-,,,,,!,!,!!,!!!!!!!!!!!!!!!!!!!!!,!,!,,,,,,,--,-----**&%@$%...                                  ",
"            .....#&&*--,---,-,,,,,,,!,,!!,!!!!!!!!!!!!!!!!!!!,!,!,!,,,,,,,-,,-,-----*&%#$%...                                   ",
"            ......%&*----,-,-,-,,,,,,!,!,!!!!!!!!!!!!!!!!!!!!!!,!,,!,,,,,,,,-,-,---**&%@%#...                                   ",
"             .....+&**---,--,-,,,,,,,,,!,!,!!!!!!!!!!!!!!!!!!!!!!!,,!,,,,-,-,------*&%@$%...                                    ",
"             ......%&*----,-,,-,,,,!,!,!!,!!!!!!!!!!!!!!!!!!!!,!,!,!,,,,,,,-,-,----*&$#%+...                                    ",
"              ......&&------,-,,,,,,,,!,!,!!!!!!!!!!!!!!!!!!!!!,!!,,,,,,-,,,-,-,--**%@%$...                                     ",
"               .....#&*--,-,-,,,,,,,!,,!!!!,!!!!!!!!!!!!!!!!,!!!,,!!,,,,,,-,,-----*&##%....                                     ",
"               ......%**--,-,--,,,,,,!,,!,!!!!!!!!!!!!!!!!!!!,!!!!,,!,,,,,,-,-,--**%@%$...                                      ",
"                .....#&*----,,-,,,,,,!,!,!,!!!!!!!!!!!!!!!!!!!!,!,!,!,,,,,,-,-,--*&@$%...                                       ",
"                ......%*--,-,-,,,,,,,!,!,!!!!!!!!!!!!!!!!!!!!!!,!,!,,,,,,-,,,---*&%@%@...                                       ",
"                 .....+&*---,,,-,,,,,,!,!!,!!!!!!!!!!!!!!!!!!!!!,!,!,,,,,,,-,---*&@$%...                                        ",
"                  .....$*-----,,,,!,,!,!,!!!!!!!!!!!!!!!!!!!!,!!!,!,!,,,,-,,-,--*$#%....                                        ",
"                  ......&--,-,,-,,,,,,!,!,!!!!!!!!!!!!!!!!!!!!!,!,,,,,,,,,,--,-*&@%$...                                         ",
"                   .....#*----,,,,,!,,!,!!,!!!!!!!!!!!!!!!!!!,!!!!!,!,,,,,,,--**@$%...                                          ",
"                   ......%*-,,-,,,,,,!,!,!!!!!!!!!!!!!!!!!!!!!,!,,!,,,,,,-,-,-*%@%@...                                          ",
"                    .....@*--,-,,,,,,!,!,!,!!!!!!!!!!!!!!!!!!!!!!,!,!,,,,,,,--*#$%...                                           ",
"                     .....$*--,,-,,!,,,!!,!!!!!!!!!!!!!!!!!!!!,!,!,,,,,,,----*$#%+...                                           ",
"                     .....+*---,,,,,,!,,!,!!!!!!!!!!!!!!!!!!!!!!,!!,!,,,,,,--*@%%...                                            ",
"                      .....$--,,,,,,,!,!!!!,!!!!!!!!!!!!!!!!!,!!,!,!,,,,,,--*$#%...                                             ",
"                      ......&---,,,,,!,!,,!!!!!!!!!!!!!!!!!!!!!!!,,!,,,,,,--&@%#...                           >>                ",
"                       .....@*-,,,,,,,,!!!!!!!!!!!!!!!!!!!!!!,!,!,!,,,,,,---@$%...                           >>                 ",
"                       ......%--,,,!,!,!,!,!!!!!!!!!!!!!!!!!!!!!!,!,!,,,,--%#%+...                         >)>>                 ",
"                        ......*--,,,,,,!,!!!!!!!!!!!!!!!!!!!!!,!,!,!,,,,,-*@%$...                         >)>>                  ",
"                         .....$--,,!,!,!,!,!!!!!!!!!!!!!!!!!!!!!!,!,,,,,--$#&....                        >';>>                  ",
"                         ......*--,,,,!,!,!!!!!!!!!!!!!!!!!!!!,!,!,!,,,,-*@%#...                        >');>>                  ",
"                          .....#--,,,,!,!,!!!!!!!!!!!!!!!!!!!!!!,!,!,,,--#$%...                        >''>;                    ",
"                          ......%-,,,!,!!!!,!!!!!!!!!!!!!!!!,!!,!!,,,,,-%@%+...                       >'';=>                    ",
"                           .....+--,,,,,!,!!!!!!!!!!!!!!!!!!!!!!,!,!,,,-@%%...                       >''>=;>                    ",
"                            .....$-,,,!,!!!!!!!!!!!!!!!!!!!!!!,!,!,,,,-$#%....                     >>'!;;=>                     ",
"                            .....+*,,,,,!,!!!!!!!!!!!!!!!!!!!!!!,!!,,--@%$...                      >'');=;>                     ",
"                             .....#--,!,!,!,!!!!!!!!!!!!!!!!!,!!!,,,,-$$%...                      >)'';==;                      ",
"                             ......&,,,!,!!!!!!!!!!!!!!!!!!!!!!,!!!,,&@%@...                    >>)!';==;)                      ",
"                              .....+-,,,!,!!!!!!!!!!!!!!!!!!!,!!,,,,-#$%...                    >))'';;==>)                      ",
"                               .....%-,,,!!!!!!!!!!!!!!!!!!!!!!,!!,,%#%....                   >>;'!;===;))                      ",
"                               ......-,,,!,!!!!!!!!!!!!!!!!!!!!!,,,-@%$...                   >;)'')>===))                       ",
"                                .....$,,,!,!!!!!!!!!!!!!!!!!,!!,!,,$#%....                  >;)'!';===;)                        ",
"                                ......*,,!,!!!!!!!!!!!!!!!!!!!!!,,*@%#...                  >))'''>;===))                        ",
"                                 .....@-,!,!!!!!!!!!!!!!!!!!!!,!,,#$%...                  >;)'!'>====;)'                        ",
"                                 ......&,,,!!!!!!!!!!!!!!!!!!!!,,%#%+...                 >))''';;====))                         ",
"                                  .....+-,,,!!!!!!!!!!!!!!!!,!!,-#$%...                >>;)'!')>====))                          ",
"                                   .....%,,!!!!!!!!!!!!!!!!!!!,,%$%....                >)''!')>;====))                          ",
"                                   ......-,,,!!!!!!!!!!!!!!!!!,-@%$...               >;;'''';>;====)')                          ",
"                                    .....#,,!!!!!!!!!!!!!!!!!,,$$%...               >>)''!');;;====)'                           ",
"                                    ......*,,!!!!!!!!!!!!!!!!!*@%+...              >>)'''');>;====))                            ",
"                                     .....+,,!!!!!!!!!!!!!!!,,@%%...              >;)''!')>>=>====)'                            ",
"                                      .....%,,!!!!!!!!!!!!!!!%#%....             >;)'''';;>>;====))                             ",
"                                      ......-,!!!!!!!!!!!!!,-#%$...             >>)'!'';;>;>=;==;)'                             ",
"                                       .....$,,!!!!!!!!!!!!!$$%....            >;''''');>>>;>;=;)))                             ",
"                                       ......*,!!!!!!!!!!!,-@%@...            >))'!'';>>;>;;>=;)))))>>                          ",
"                                        .....@,,!!!!!!!!!!,@$%...           >>;'''');;>;>>>>>>>>>>>>>>>>>>>>>>>>>>;>>           ",
"                                         .....&,!!!!!!!!!!&@%@...          >>))'!'')>>>>;>=>=>;;>;>;>;>;>;>;>;>;==;>            ",
"                                         ..+...,,!!!!!!!!,.@$...           >;'''');>>;>=>>>>>>>;;);))))))));;>;;=;>             ",
"                                          .....-,!!!!!!!!-.##...         >>)''!');;>;>>>>;>;>;;;))''''''';;;;====>              ",
"                                          .....-,,!!!!!!!-.@...         >>)'''');;>>>;;>;>;>>>>>;;;;;;;;;;;>====)>              ",
"                                          .....-,,!!!!!!!-.@...        >;)''!');>>;>;>>=>>;>;>;>;>;;>;;>;;=====))               ",
"                                          .....-,,!!!!!!!-.+...       >))''');>;;;>>=>>>>=>;>;>;>>>>;>>=;=====))                ",
"                                          .....-,,,!!!!!!-.@...      >))'');;;;=>=;=>=;;>>>;>>>;>;>>>;;;=====))                 ",
"                                          ..+..*,,,!!!!!!-.@...    >>);;>;;=;==;==>==>=>=;>=>;>>;>>;;>======))'                 ",
"                                          ..+..-,,,!!!!!!-.@...    >>>;;===============>;>>>>;>;>=>=>======'))                  ",
"                                          ..+..*,,,!!!!!!-.@...  ;>;;;===================>;>=>;>>>>>;=====))                    ",
"                                          ..+..-,,,!!!!!,-.@... >>>>>>>>;==========;;;>>>>;>>>;>;=;====#;))                     ",
"                                          ..+..*,,,!!!!!!-.@...         >))))))))))))))>;>;;;>=>>>=====;))                      ",
"                                          ..+..-,,,!!!!!!-.@...                      ))>>;;;>>>;=======))                       ",
"                                          ..+..*,,,!!!!!!-.@...                      )>>;));;>;>;====)))                        ",
"                                          ..+..-,,,!!!!!!-.@...                      >>;)')>>=>======)'                         ",
"                                          ..+..*,,,!!!!!!-.@...                      >;)'';>;>=====)')                          ",
"                                          ..+..-,,,!!!!!!-.@...                     >>;'');;=====#;))                           ",
"                                          ..+..*,,,!!!!!,-.@...                     >;;'';>>=====)))                            ",
"                                          ..+..-,,,!!!!!!-.@...                    >>;'';>======;)'                             ",
"                                          ..+..*,,,!!!!!!-.@...                   >>;)';>>=====))'                              ",
"                                          ..+..-,,,!!!!!!-.@...                   >>)''>=======')                               ",
"                                          ..+..-,,,!!!!!!-.@...                  >>;)';>===$=)))                                ",
"                                          .++..*,,,!!!!!,-.@...                  >>)';;=====))'                                 ",
"                                          ..+..-,,,!!!!!!-.@...                 >>;')>=====)))                                  ",
"                                          ..+..-,,,!!!!!!-.@...                 >>)'>=====))                                    ",
"                                          ..+..*,,,!!!!!!-.@...                >>;)>=====))                                     ",
"                                          ..+..-,,,!!!!!,-.@...                >;);;====))'                                     ",
"                                          ..+..*,,,!!!!!!-.@...               >>))=====))                                       ",
"                                          ..+..-,,,!!!!!!-.@...              >>));====')                                        ",
"                                          ..+..*,,,!!!!!!-.@...              >;)>===;))                                         ",
"                                          ..+..-,,,!!!!!,-.@...             >>);====))                                          ",
"                                          ..+..*,,,!!!!!!-.@...             >)>;==;))                                           ",
"                                          ..@..-,,,!!!!!!-.@...             ;;;==;)                                             ",
"                                          ..@..*,,,!!!!!!-.$...            >;>==>>                                              ",
"                                          ..$..-,,,!!!!!!-.%...            >>;=>)                                               ",
"                                          ..$..*,,,!!!!!,-#%...          >>>=;>>                                                ",
"                                          ..#+.*-,,,,!,!,-%%...          >>;;>                                                  ",
"                                          ...@.###$$$%%&*&&....         >>;>>                                                   ",
"                                          .......+@#$$%&*%+....         >>;>                                                    ",
"                                          ........+#$$$#.......         >>                                                      ",
"                                          .....................        >>>                                                      ",
"                                             ...............           >                                                        ",
"                                              ..............                                                                    ",
"                                                                                                                                ",
"                                                                                                                                ",
"                                                                                                                                ",
"                                                                                                                                ",
"                                                                                                                                ",
"                                                                                                                                ",
"                                                                                                                                "};
