/* XPM */
char * quickdimension_xpm[] = {
"128 128 17 1",
" 	c None",
".	c #000000",
"+	c #1E201D",
"@	c #323431",
"#	c #3D3F3C",
"$	c #626461",
"%	c #7D7F7C",
"&	c #939D00",
"*	c #ABB302",
"=	c #B6C300",
"-	c #C5D100",
";	c #D2D836",
">	c #F3F414",
",	c #EAEF95",
"'	c #F4F576",
")	c #F0F3B7",
"!	c #FAF960",
"                                                                                                                                ",
"                                                                                                                                ",
"                                                                                                                                ",
"                                                                                                                                ",
"                                                                                                                                ",
"                                                                                                                                ",
"                                                                                                                                ",
"                                                                                                                                ",
"                                                                                                                                ",
"                                                                                                                                ",
"                                                                                                                                ",
"                                                                                                                                ",
"                                                                                                                                ",
"        .....                                                                                                      .....        ",
"        .+...                                                                                                      .....        ",
"        .$...                                                                                                      ..$..        ",
"        .%...                                                                                                      ..%..        ",
"        .$...                                                                                                      ..$..        ",
"        .@...                                                                                                      ..#..        ",
"        .@...                                                                                                      ..#..        ",
"        .@...                                                                                                      ..#..        ",
"        .@...                                                                                                      ..#..        ",
"        .@...                                                                                                      ..#..        ",
"        .@...                                                                                                      ..#..        ",
"        .@...                                                                                                      ..#..        ",
"        .@...                                                                                                      ..#..        ",
"        .@...                                                                                                      ..#..        ",
"        .@...                                                                                                      ..#..        ",
"        .@...                                                                                                      ..#..        ",
"        .@...                                                                                                      ..#..        ",
"        .@...                                                                                                      ..#..        ",
"        .@...                        ..                                                  ..                        ..#..        ",
"        .@...                      .....                                                .....                      ..#..        ",
"        .@...                     ......                                                ......                     ..#..        ",
"        .@...                   ........                                                ..+.....                   ..#..        ",
"        .@...                ......+....                                                ..+$.......                ..#..        ",
"        .@...             .......@$@....                                                ..+%#.........             ..#..        ",
"        .@...            ......@$%$.....                                                ..@%$+.........            ..#..        ",
"        .@...       ........+#$%$$@.....                                                ..$$$+..............       ..#..        ",
"        .@...+............@$%%$#@+......................................................+$$$#+.+.+...................#..        ",
"        .@...+#%%%%%%%%%%%%$$#@+............@######################################$$%%$#$$#@........................#..        ",
"        .@................................................................................@#+........................#..        ",
"        .@.................................................................................++........................@..        ",
"        .@...       ....................                                                ....................       ..@..        ",
"        .@...        ...................                                                ...................        ..@..        ",
"        .@...             ..............                                                ...............            ..@..        ",
"        .@...               ............                                                ............          =    ..@..        ",
"        .@...                   ........                                                ........             ---   ..@..        ",
"        .@...                    .......                                                .......             ---    ..#..        ",
"        .@...                      .....                                                .....              >>->    ..#..        ",
"        .@...                        ...                                                 ..               >;=-     ..#..        ",
"        .@...                                                                                            >;-->     +.#..        ",
"        .@...                                                                                           >;-=->     +.#..        ",
"        .@...                                                                                          >-;==       +.#..        ",
"        .@...                                                                                         --'-*>       +.#..        ",
"        .@...                                                                                        >='=**        +.#..        ",
"        .@...                                                                                      >--'-=*-        +.#..        ",
"        .@...                                                                                      --;'=&*>        ..#..        ",
"        .@...                                                                                     ---,=**;         ..#..        ",
"        .@...                                                                                   >---)=*&;>         ..#..        ",
"        .@...                                                                                  >-=-,-=&&!          ..#..        ",
"        .@...                                                                                 >-=-);=*&-!!         ..#..        ",
"        .@...                                                                                >=--,,=*&&!!          ..#..        ",
"        .@...                                                                               >==-,)-*&&;!           ..#..        ",
"        .+...                                                                              >==-')==&&&!'           ..+..        ",
"        .....                                                                             -=--,)--*&&;!,           .....        ",
"        .....                                                                            ----,);==&&&!'            .....        ",
"        .....                                                                          >-=-=,)'==&&&;',            .....        ",
"        .....                                                                          ----,),==*&&;''             .....        ",
"                                                                                     >----)),-==*&&'''                          ",
"                                                                                    >--=-)),;-=*&&;',                           ",
"                                                                                   >-=-;)),--=*&&&!'                            ",
"                                                                                  >=-=;)),;--=*&&;',                            ",
"                                                                                 >==-')),;--==*&&''                             ",
"                                                                                >=-=')),;---==**'',                             ",
"                                                                               -=-='))'-----==**!'''                            ",
"                                                                              ----,))';;----=-;!'!'!!>>                         ",
"                                                                            >-=-=,))';-------===-;=-;;==-====----=-->           ",
"                                                                           >----,));==---------=======-==-=-=====**>            ",
"                                                                           ---;,))';------------------=------==***>             ",
"                                                                         >-=--)),;=--------------;--;-;-;---==*&*>              ",
"                                                                        >-=-;)),;;------------;;;;'';'';--==*&&*!!              ",
"                                                                       >=--;)),;;------------------------=**&&*!!               ",
"                                                                      >=--,))'=------------------------==*&&&*!''               ",
"                                                                     >=-;,'=-=--==-=-------------------=**&&&'',                ",
"                                                                   >>----=====*=*=**=*===------------==*&&&;!',                 ",
"                                                                   --=-==***&*********=------------=-=*&&&&'''                  ",
"                                                                  >-==***&&&&&&&&&&&&**==;-;--------=*&&&;'',                   ",
"                                                                >>->----=-=;=;*;*;;;;;;;--;;;----===*&&&;'',                    ",
"                                                                         !!!''''''''''!!--''------=*&&&'''                      ",
"                                                                                     '!---''----==*&&&*',                       ",
"                                                                                     !>-=','---==&&&&'''                        ",
"                                                                                     >=--),;-=-=*&&&;',                         ",
"                                                                                     -==;),-=-*&&&&'''                          ",
"                                                                                    >-;-),--=**&&&'''                           ",
"                                                                                    -==');-=**&&&'!,                            ",
"                                                                                   >=--),-==*&&&'''                             ",
"                                                                                  >-=-,,-=*&&&&'''                              ",
"                                                                                  >=-;)-==*&&&!',                               ",
"                                                                                 >-=-);==&&&&'''                                ",
"                                                                                 ---',-**&&&!',                                 ",
"                                                                                >--=,==&&&*'',                                  ",
"                                                                                -=-,-*&&&&'',                                   ",
"                                                                               >=-';=*&&;!',                                    ",
"                                                                               ---'=*&&*'''                                     ",
"                                                                              >-='=*&&;''                                       ",
"                                                                             >--'=*&&;''                                        ",
"                                                                             >-;-=&&;!'                                         ",
"                                                                            >--;=&&;!'                                          ",
"                                                                            >-;=*&>!                                            ",
"                                                                            ---*&;>                                             ",
"                                                                           >--**>!                                              ",
"                                                                           --=*>                                                ",
"                                                                         >>-=*>                                                 ",
"                                                                         >--=                                                   ",
"                                                                        >--->                                                   ",
"                                                                        >-->                                                    ",
"                                                                        --                                                      ",
"                                                                       >->                                                      ",
"                                                                       >                                                        ",
"                                                                                                                                ",
"                                                                                                                                ",
"                                                                                                                                ",
"                                                                                                                                ",
"                                                                                                                                ",
"                                                                                                                                ",
"                                                                                                                                ",
"                                                                                                                                "};
