/* XPM */
char * radiusdimension_xpm[] = {
"128 128 17 1",
" 	c None",
".	c #000000",
"+	c #0A0D09",
"@	c #121411",
"#	c #191B18",
"$	c #1F211E",
"%	c #2A2C29",
"&	c #313330",
"*	c #3C3E3B",
"=	c #474946",
"-	c #535552",
";	c #5C5F5C",
">	c #666865",
",	c #6E706D",
"'	c #7B7D7A",
")	c #90928F",
"!	c #BCBEBB",
"                                                                                                                                ",
"                                                                                                                                ",
"                                                                                                                                ",
"                                                                                                                                ",
"                                                                                                                                ",
"                                                                                                                                ",
"                                                                                                                                ",
"                                                       ..........+........                                                      ",
"                                                  ....#*-;=&.....+%=--*%......                                                  ",
"                                               ...&-;&...................+&*#.....                                              ",
"                                            ...=>=...........       ..........$$.....                                           ",
"                                          ..=>=.......                   ........@@....                                         ",
"                                        .#>,......                           .......$....                                       ",
"                                      .%';......                                ......@....                                     ",
"                                    .$'-.....                                      .....+....                                   ",
"                                  ..>>.....                                          .........                                  ",
"                                 .*)....                                               .........                                ",
"                               ..'-....                                                  ........                               ",
"                              .*'....                                                      ........                             ",
"                             .>,....                                                         .......                            ",
"                            .'*...                                                            .......                           ",
"                           +'....                                                               ......                          ",
"                         .@'...                                                                  ......                         ",
"                        .$'...                                                                    ......                        ",
"                        #'...                                                                       .....                       ",
"                       +'...                                                                        ...+..                      ",
"                      .'...                                                                        ........                     ",
"                     .'...                                                                       ..... .....                    ",
"                    .>*..                                                                       .....  .....                    ",
"                   .*,..                                                                      ......    ..@..                   ",
"                   .'...                                                                     ...@...     .....                  ",
"                  .'...                                                                    ...+$...       .....                 ",
"                 .*-..                                                                   ....%*....       ..@..                 ",
"                 .'...                                                                 .....==....         .....                ",
"                .>...                                                                .....%>=....           ....                ",
"                $>..                                                                ....+;,-.....           .....               ",
"               .,...                                                              .....=''=.....             .....              ",
"               %;..                                                            ......*,',*......             .....              ",
"              .,..                                                            .....&>',;&......               .....             ",
"              #>..                                                         ......&>'';*$.......                .@..             ",
"             .>...                                                       ......*>'';*%+.......                 .....            ",
"             .,..                                                     ......$=,',;*$@.........                 ..@..            ",
"            .*#..                                                     ....%,'',-*$.@.........                   ....            ",
"            .>..                                                       .....*=*$.............                   .....           ",
"            .=..                                                        ......$@+...........                     .+..           ",
"           .*...                                                         .....#@............                     ....           ",
"           .;..                                                           ....@............                       ....          ",
"           .=..                                                            ................                       .#..          ",
"           %..                                                             ...............                        .@..          ",
"          .-..                                                            ................                        ....          ",
"          .;..                                                           .@;.............                          .+..         ",
"          .*..                                                          ..'.... .........                          .$..         ",
"          #+.                                                          ..)....   .......                           .$..         ",
"         .*..                                                         ..'....      .....                           ....         ",
"         .-..                                                        ..'....        ....                           ....         ",
"         .-..                                                       ..'....          ..                             ....        ",
"         .=..                                                      ..'....            .                             ....        ",
"         .&..                                                 ......'....                                           .$..        ",
"         .@..                                                ...........                                            .&..        ",
"         ...                                                ...........                                             .=..        ",
"         ...                                               ...$,+.....                                              .=..        ",
"         ...                                               ...)!;.....                                              .=..        ",
"         .@.                                               ...='+......                                             .*..        ",
"         .&.                                               ............                                             .*..        ",
"         .-.                                               ...........                                              .*..        ",
"         .-..                                              ...........                                              .*..        ",
"         .-..                                               .........                                               .*..        ",
"         .*..                                                .......                                                .*..        ",
"         .&..                                                   ..                                                  $%..        ",
"         .@..                                                                                                       *..         ",
"         ....                                                                                                      .;..         ",
"          .+..                                                                                                     .>..         ",
"          .&..                                                                                                     .;..         ",
"          .&..                                                                                                     +*..         ",
"          .+..                                                                                                     *..          ",
"          .....                                                                                                   .>..          ",
"           .%..                                                                                                   .>..          ",
"           .$..                                                                                                   &&..          ",
"           .....                                                                                                 .>..           ",
"           ..$..                                                                                                 .,..           ",
"            .+..                                                                                                 *%..           ",
"            .....                                                                                               .'..            ",
"             .#..                                                                                               $;..            ",
"             .....                                                                                             .,...            ",
"             ..@..                                                                                             +,..             ",
"              .....                                                                                           .,...             ",
"              ..+..                                                                                           .>..              ",
"               .....                                                                                         .>...              ",
"               .....                                                                                         $;..               ",
"                .....                                                                                       .'...               ",
"                .....                                                                                       =*..                ",
"                 .....                                                                                     +'..                 ",
"                  .....                                                                                   .'...                 ",
"                  .....                                                                                  .>*..                  ",
"                   .....                                                                                 &,..                   ",
"                    .....                                                                               +)...                   ",
"                     .....                                                                             .)...                    ",
"                     .....                                                                            .'...                     ",
"                      .....                                                                          .'$..                      ",
"                       .....                                                                        .'&..                       ",
"                        ......                                                                     .'&..                        ",
"                         ..+...                                                                   .'$...                        ",
"                          ...+..                                                                 @)...                          ",
"                           ...$...                                                             .%)...                           ",
"                            ...@...                                                           .;;...                            ",
"                             ........                                                       .$'$...                             ",
"                               .......                                                     .;'....                              ",
"                                ........                                                 .&'$...                                ",
"                                 .........                                             .@';....                                 ",
"                                   ....#....                                         .@,>....                                   ",
"                                     ....+.....                                   ..%,;.....                                    ",
"                                      ...........                               .+-'*.....                                      ",
"                                         ......+.....                       ...=';......                                        ",
"                                           ......@$+......             ....%->;.......                                          ",
"                                             ........+$@.............$*;>>=@.......                                             ",
"                                                ............@%****==*&+.........                                                ",
"                                                    ........................                                                    ",
"                                                          ............                                                          ",
"                                                                                                                                ",
"                                                                                                                                ",
"                                                                                                                                ",
"                                                                                                                                ",
"                                                                                                                                ",
"                                                                                                                                ",
"                                                                                                                                ",
"                                                                                                                                ",
"                                                                                                                                ",
"                                                                                                                                "};
