/* XPM */
char * ray_xpm[] = {
"128 128 17 1",
" 	c None",
".	c #000000",
"+	c #2D0000",
"@	c #420001",
"#	c #540100",
"$	c #121412",
"%	c #6E0000",
"&	c #800000",
"*	c #282A27",
"=	c #881111",
"-	c #3B3D3B",
";	c #494B48",
">	c #9F3F3F",
",	c #5E605D",
"'	c #7B7E7B",
")	c #BC7776",
"!	c #E0C1C2",
"                                                                                                                                ",
"                                                                                                                                ",
"                                                                                                                                ",
"                                                                                                                                ",
"                                                                                                                                ",
"                                                                                                                                ",
"                                                                                                                                ",
"                                                                                                                                ",
"                                                                                                                                ",
"                                                                                                                    .           ",
"                                                                                                                   ..           ",
"                                                                                                                 ...            ",
"                                                                                                               .....            ",
"                                                                                                              .....             ",
"                                                                                                            ......              ",
"                                                                                                           ...$...              ",
"                                                                                                         ...$*...               ",
"                                                                                                       ....*-....               ",
"                                                                                                     .....;-....                ",
"                                                                                                   .....*,;....                 ",
"                                                                                                  ....$,';.....                 ",
"                                                                                                .....;'';.....                  ",
"                                                                                             ......-'',-......                  ",
"                                                                                            .....-,'',-......                   ",
"                                                                                         ......*,'',-$.......                   ",
"                                                                                       ......-,'',-*$.......                    ",
"                                                                                    .......-,'',-$$.........                    ",
"                                                                                  ......$;''';-$$$.........                     ",
"                                                                               .......*,,',;-$$............                     ",
"                                                                            .......$-,'',;-*$.............                      ",
"                                                                       $.......$-;''',;-*$................                      ",
"                                                                     ...$;,''''',-*......................                       ",
"                                                                       ...$..............................                       ",
"                                                                        .................$..............                        ",
"                                                                          . .............$$.............                        ",
"                                                                              ..........$$.............                         ",
"                                                                                     ..................                         ",
"                                                                                      ................                          ",
"                                                                                     .........$.......                          ",
"                                                                                    .*-...............                          ",
"                                                                                   .$'........$......                           ",
"                                                                                  ..'....  ...$......                           ",
"                                                                                 ..'....   ...$......                           ",
"                                                                                ..'....    ...$.....                            ",
"                                                                               ..'....     ...$.....                            ",
"                                                                              ..'....      ........                             ",
"                                                                             ..'....       ........                             ",
"                                                                            ..'....        ........                             ",
"                                                                           ..'....          ......                              ",
"                                                                          ..'....           ......                              ",
"                                                                         ..'....            ......                              ",
"                                                                        ..'....             .....                               ",
"                                                                       ..'....               ....                               ",
"                                                                      ..'....                ....                               ",
"                                                                     ..'....                 ....                               ",
"                                                                    ..'....                   ..                                ",
"                                                                   ..'....                     .                                ",
"                                                                  ..'....                                                       ",
"                                                                 ..'....                                                        ",
"                                                                ..'....                                                         ",
"                                                               ..'....                                                          ",
"                                                              ..'....                                                           ",
"                                                             ..'....                                                            ",
"                                                            ..'....                                                             ",
"                                                           ..'....                                                              ",
"                                                          ..'....                                                               ",
"                                                         ..'....                                                                ",
"                                                        ..'....                                                                 ",
"                                                       ..'....                                                                  ",
"                                                      ..'....                                                                   ",
"                                                     ..'....                                                                    ",
"                                                    ..'....                                                                     ",
"                                                   ..'....                                                                      ",
"                                                  ..'....                                                                       ",
"                                                 ..'....                                                                        ",
"                                                ..'....                                                                         ",
"                                               ..'....                                                                          ",
"                                              ..'....                                                                           ",
"                                             ..'....                                                                            ",
"                                            ..'....                                                                             ",
"                                           ..'....                                                                              ",
"                                          ..'....                                                                               ",
"                                         ..'....                                                                                ",
"                                        ..'....                                                                                 ",
"                                       ..'....                                                                                  ",
"                                      ..'....                                                                                   ",
"                                     ..'....                                                                                    ",
"                                    ..'....                                                                                     ",
"                                   ..'....                                                                                      ",
"                                  ..'....                                                                                       ",
"                                 ..'....                                                                                        ",
"                                ..'....                                                                                         ",
"                               ..'....                                                                                          ",
"                              ..'....                                                                                           ",
"                             ..'....                                                                                            ",
"                            ..'....                                                                                             ",
"                           ..'....                                                                                              ",
"                          ..'....                                                                                               ",
"                         ..'....                                                                                                ",
"                %       ..)....                                                                                                 ",
"            %%%%%%%%%  ..'....                                                                                                  ",
"          %%&%&%%%%#%%@.,....                                                                                                   ",
"         &&%&&&&&&&%%%%@....                                                                                                    ",
"        %%%&)!!!)>===%%%+..                                                                                                     ",
"        %&&!!!!)))>>>%%%#+                                                                                                      ",
"       %&=)!!)>==&=&&=%#@@                                                                                                      ",
"       %%&!!!>==&&&&&&%%#@                                                                                                      ",
"       %&=!!>==&&&&&&&%%#@+                                                                                                     ",
"      %%&=!)=&&&&&&&&%%%##+                                                                                                     ",
"      %%%&))=&&&&&&&&&%%#@@                                                                                                     ",
"      %%%=>>&&&&&&&&&&%%@@@                                                                                                     ",
"       %%%=>=&&&&&&&&%%##@+                                                                                                     ",
"       %%&&&&&&&&&&&&%%#@@                                                                                                      ",
"       #%%%&&&&&&&&=&%##@+                                                                                                      ",
"        ##%%%&%&&&%%%%@@@+                                                                                                      ",
"        ###%%%&%%%%%###@+                                                                                                       ",
"         ####%%%%%###@@+                                                                                                        ",
"          #########@@@+                                                                                                         ",
"            @@#@@@@@++                                                                                                          ",
"              @+@@++                                                                                                            ",
"                                                                                                                                ",
"                                                                                                                                ",
"                                                                                                                                ",
"                                                                                                                                ",
"                                                                                                                                ",
"                                                                                                                                ",
"                                                                                                                                ",
"                                                                                                                                "};
