/* XPM */
char * redo_xpm[] = {
"128 128 17 1",
" 	c None",
".	c #121E35",
"+	c #152441",
"@	c #1A2947",
"#	c #1C2B4A",
"$	c #1A2E51",
"%	c #19325B",
"&	c #1C355D",
"*	c #1F3760",
"=	c #33456B",
"-	c #3D5176",
";	c #495E7F",
">	c #536787",
",	c #61728F",
"'	c #6E7E97",
")	c #7D8CA4",
"!	c #8B97AB",
"                                                                                                                                ",
"                                                                                                                                ",
"                                                                                                                                ",
"                                                                                                                                ",
"                                                                                                                                ",
"                                                                                                                                ",
"                                                                                                                                ",
"                                                                                                                                ",
"                                                                                                                                ",
"                                                                                                                                ",
"                                                                                                                                ",
"                                                                                                                                ",
"                                                                                                                                ",
"                                                                                                                                ",
"                                                                                                                                ",
"                                                                                                                                ",
"                                                                                                                                ",
"                                                                                                                                ",
"                                                                                                                                ",
"                                                                                                                                ",
"                                                                                                                                ",
"                                                                                                                                ",
"                                                                                                                                ",
"                                                                                                                                ",
"                                                                                                                                ",
"                                                                                                                                ",
"                                                                                                                                ",
"                                                                                                                                ",
"                                                                                                                                ",
"                                                                                                                                ",
"                                                                                                                                ",
"                                                                                                                                ",
"                                                                                                                                ",
"                                                                                                *                               ",
"                                                                                               &*                               ",
"                                         %%%%%%%$%&$&%%                                       $&=                               ",
"                                   $$%%%$&$&$*&&&*&$*&&&&&%%%%                                $&;&                              ",
"                                $$%&*$***=;>>>>>>,,,,,,>;=&&&&&%%                             $%,%                              ",
"                             $$&&&&&=-=**%%$$&$&%$$**%*%%=>'',;*&&&%%                        #$%'*                              ",
"                           $&$$%*=%**&$&$$#$$#$##$###$#$%$$$***,)';&&&&%                     $$*)&                              ",
"                         $$$&*-&*&$$#$##@@@++.+....+.+@+@####$$%**='),&&&%                   ##*!&%                             ",
"                       #$%&*-*&%$$##+..                   ..++@@$$%%%%')>&&%&               .#$*!%&                             ",
"                      $$$&=*$%$#+.                             ..+@##$%*=)'*&&%             +@$*!*&                             ",
"                     $%&*=*$$#.                                    .@+@$%$*')=&&%           @##*!*$%                            ",
"                   @#$&*&&$$+                                         ..$##%*')=&&%         @$$*!=*%                            ",
"                  @$%**&%$@                                              +@#$%$')*&%        @#$*)>*$                            ",
"                 @$$*=*$#+                                                 .#$$%&!'&&%      $$$$''**&                           ",
"                +$$&&&%#.                                                    .@#%%=!-&&     @$&*;!=*$                           ",
"                $#&&&#$                                                        ++$%*')*&$   $$$*-!,*&%                          ",
"               @#&**$$                                                           @#$$-)**&.#$&&*=')**$                          ",
"              +$%&&%$                                                             @#$&*>&**&**&&*,!;*&                          ",
"              #$&*$$                                                                ##&**=**$&**&;)'&%&                         ",
"             +$$*&$@                                                                 #$*&*--=***==')=*%                         ",
"             $$&*&#                                                                   $$**=-==***=,!,&$%                        ",
"            +$&&%$                                                             @++##@$%&&&&*=***&*-))**&                        ",
"            ##*&$$                                                         $ $$%$$%&$$&%*&****&*&==,!>*$&                       ",
"            $&**$                                                        $$%%$$&&&%**&*&*&*&***%**=;))*$&                       ",
"           +$$-*$                                                       $$&$&**&&&****&**********&*='!>*$                       ",
"           +$*-&$                                                     $$$$$$$&&&&&&*&**&*&*&***&***=>))*&&                      ",
"           @%&*$                                                       @$###$@@$$$$$$%&*********&***-'!;*$%                     ",
"           @$&*&                                                            ..++@@$$$$%$*&*&&&******=>!)**&                     ",
"          .#&=*$                                                               ..@+@#$#$$%*$****&&***-'!>*$                     ",
"          .@$;&%                                                                  ..+@@#$$$&&&&*****=*>)!&&&                    ",
"          .#%;*$                                                                    ..+++@$$$%&&&&&&**-'!>*$&                   ",
"          .#%;*&                                                                       ...+@@$$%%***&*=;))**&                   ",
"          .#$>*$                                                                         ..+@+@##$$$&&&='!,&$%                  ",
"          .#%;*%                                                                           ..++@#$$&$*%%=))**&                  ",
"          .$$=*$                                                                              .+@@##$%&&*-!,&$&                 ",
"           @$*-%                                                                                .++#@$#&$*>!=%&                 ",
"           @$*;$                                                                                  ..++$$$%%;)**%                ",
"           @$&'&                                                                                    .++##$$&;,&&                ",
"           .$$'&%                                                                                     .+@@$$&-;%&               ",
"           +#%;*&                                                                                      ..+@##$-=&%              ",
"            @$*,%                                                                                        .++#$%**&              ",
"            +$%)&                                                                                          .+@$&**&             ",
"            .#$,*%                                                                                           .@$$*&             ",
"             @$*)&                                                                                             @$&&&            ",
"             +#$!&&                                                                                             @$%*&           ",
"              $$%)&                                                                                               $%&           ",
"              +@%!*&                                                                                                %&          ",
"               #$&!&&                                                                                                &          ",
"               +@%';%                                                                                                           ",
"                +$*!*&                                                                                                          ",
"                +@$&!&%                                                                                                         ",
"                 +$%',&%                                                                                                        ",
"                 .+$%!=&                                                                                                        ",
"                  .@$*!*&                                                                                                       ",
"                   .#$*!&&                                                                                                      ",
"                    @#&-)*&                                                                                                     ",
"                     @@%>)&%                                                                                                    ",
"                     .@$%,)&&                                                                                                   ",
"                      .+#%,)&&                                                                                                  ",
"                       ++#$>!&&                                                                                                 ",
"                        .@$$-!&&                                                                                                ",
"                         +@$&*!*&&                                                                                              ",
"                          .+@%*!;%&                                                                                             ",
"                           .+#$%!'&&                                                                                            ",
"                             +@$%>!%&%                                                                                          ",
"                              +@$%*!,%&                                                                                         ",
"                               .+#$&,!%&&                                                                                       ",
"                                 @@$%*!'&&&                                                                                     ",
"                                  ++#$&-!,*&&                                                                                   ",
"                                    +@#%&-;*&&&                                                                                 ",
"                                     .@@$%&&&%                                                                                  ",
"                                       +@@$$$                                                                                   ",
"                                         +@                                                                                     ",
"                                                                                                                                ",
"                                                                                                                                ",
"                                                                                                                                ",
"                                                                                                                                ",
"                                                                                                                                ",
"                                                                                                                                ",
"                                                                                                                                ",
"                                                                                                                                ",
"                                                                                                                                ",
"                                                                                                                                ",
"                                                                                                                                ",
"                                                                                                                                ",
"                                                                                                                                ",
"                                                                                                                                ",
"                                                                                                                                ",
"                                                                                                                                ",
"                                                                                                                                ",
"                                                                                                                                ",
"                                                                                                                                ",
"                                                                                                                                ",
"                                                                                                                                ",
"                                                                                                                                "};
