/* XPM */
char * region_xpm[] = {
"128 128 17 1",
" 	c None",
".	c #000000",
"+	c #1D1F1C",
"@	c #272926",
"#	c #3E403D",
"$	c #474946",
"%	c #595B58",
"&	c #666966",
"*	c #7C7F7C",
"=	c #8D8F8C",
"-	c #A0A29F",
";	c #ADB0AC",
">	c #C3C5C2",
",	c #CBCECA",
"'	c #DFE1DE",
")	c #EEF0ED",
"!	c #FDFFFC",
"                                                                                                                                ",
"                                                                                                                                ",
"                                                                                                                                ",
"                                                                                                                                ",
"                                                                                                                                ",
"                                                                                                                                ",
"                                                                                                                                ",
"                                                                                                                                ",
"                                                                                                                                ",
"                                                                                                                                ",
"                                                                                                                                ",
"                                                                                                                                ",
"                                                                                                                                ",
"                                                                                                                                ",
"                                                                                                                                ",
"                                                                                                                                ",
"                                                                                                                                ",
"                                                                                                                                ",
"                                                                                                                                ",
"                                                                                                                                ",
"              .....................................................                                                             ",
"              ........................................................                                                          ",
"              ..@$....+@@@@@@@@@@@@@@@@@@@@@@@@@@@@@@@@@@@@@@##$%#.....                                                         ",
"              ..&&................................................+#....                                                        ",
"              ..@.........................................................                                                      ",
"              ....+;-----;;-;;-;-;;;-;;-;-;;-;;-;-;;-;-;;-;------*........                                                      ",
"              ....@,>>>>>>>>>>>>>>>>>>>>>>>>>>>>>>>>>>>>>>>>>>>>>>;#.......                                                     ",
"              ....+>>>>>>>>>>,>,>>>>>>>>,,>>>>,>,>>,>,>>,>,>,>,,,,>>%........                                                   ",
"              ....@>>;>>>,,,,,,,,',,,,,,,,,',,,,,,,,,,,,,,,,,,,,,,,,,=........                                                  ",
"              .+..+>>>>,,'''''''''''''''''''''''''''''''''''''''''''',;+.......                                                 ",
"              .+..+>>>>,'')'))'''))))')')''')'))'))')')'))')'))')'''''',$........                                               ",
"              .+..@,>>,''))))))!))))))!))!)!)))))))!)))!))))))))))!!))'''*........                                              ",
"              .+..+>>,,'))!!!!!!!!!!!!!!!!)!!!!!!!)!!!)!!!!!!!!!!!)!!)))''-+.......                                             ",
"              .+..@,>>'')!!!!!!!!!!!!!!!!!!!!!!!!!!!!!!!!!!!!!!!!!!!!!!))''>#.......                                            ",
"              .@..+,>>,'))!!!!!!!!!!!!!!!!!!!!!!!!!!!!!!!!!!!!!!!!!!!!!)))'',&........                                          ",
"              .+..@,>>''))!!!!!!!!!!!!!!!!!!!!!!!!!!!!!!!!!!!!!!!!!!!!!!!!)'''=........                                         ",
"              .+..+>,>''))!!!!!!!!!!!!!!!!!!!!!!!!!!!!!!!!!!!!!!!!!!!!!!!!!))''>@.......                                        ",
"              .+..@,>>,')!!!!!!!!!!!!!!!!!!!!!!!!!!!!!!!!!!!!!!!!!!!!!!!!!!!))'',$........                                      ",
"              .+..+,>,''))!!!!!!!!!!!!!!!!!!!!!!!!!!!!!!!!!!!!!!!!!!!!!!!!!!!)))''*........                                     ",
"              .+..@>>>,'))!!!!!!!!!!!!!!!!!!!!!!!!!!!!!!!!!!!!!!!!!!!!!!!!!!!!)))'';+.......                                    ",
"              .@..@,>,''))!!!!!!!!!!!!!!!!!!!!!!!!!!!!!!!!!!!!!!!!!!!!!!!!!!!!!!))''>#.......                                   ",
"              .+..+>>>,'!)!!!!!!!!!!!!!!!!!!!!!!!!!!!!!!!!!!!!!!!!!!!!!!!!!!!!!!!))'''&........                                 ",
"              .+..@,>,,'))!!!!!!!!!!!!!!!!!!!!!!!!!!!!!!!!!!!!!!!!!!!!!!!!!!!!!!!!!))',-........                                ",
"              .+..+>>>'')!!!!!!!!!!!!!!!!!!!!!!!!!!!!!!!!!!!!!!!!!!!!!!!!!!!!!!!!!)!)))'>@.......                               ",
"              .+..@,>>''))!!!!!!!!!!!!!!!!!!!!!!!!!!!!!!!!!!!!!!!!!!!!!!!!!!!!!!!!!!)))'',%........                             ",
"              .+..+,>>,'))!!!!!!!!!!!!!!!!!!!!!!!!!!!!!!!!!!!!!!!!!!!!!!!!!!!!!!!!!!!!!))''=........                            ",
"              .@..@>>,'')!!!!!!!!!!!!!!!!!!!!!!!!!!!!!!!!!!!!!!!!!!!!!!!!!!!!!!!!!!!!)!)))'';+.......                           ",
"              .+..+,>>,'))!!!!!!!!!!!!!!!!!!!!!!!!!!!!!!!!!!!!!!!!!!!!!!!!!!!!!!!!!!!!!!!))'',#.......                          ",
"              .+..@,>,'')!!!!!!!!!!!!!!!!!!!!!!!!!!!!!!!)-&#@...@@%='!!!!!!!!!!!!!!!!!!!!)!)'''&........                        ",
"              .@..+>>>,'))!!!!!!!!!!!!!!!!!!!!!!!!!!!!=$.............@*'!!!!!!!!!!!!!!!!!!)!))''-+.......                       ",
"              .+..@>>,'')!!!!!!!!!!!!!!!!!!!!!!!!!!!-+...#$$#@@@$$@.....*)!!!!!!!!!!!!!!!!!!)))''>@.......                      ",
"              .+..+,>>,'))!!!!!!!!!!!!!!!!!!!!!!!!,@..+%$...........#....+-))!!!!!!!!!!!!!!!!!))'''%........                    ",
"              .+..@,>,''))!!!!!!!!!!!!!!!!!!!!!!!-..+*#...............@....*)))!!!!!!!!!!!!!!!!!)'''=........                   ",
"              .+..+>>>,'))!!!!!!!!!!!!!!!!!!!!!!*..%&.......     .......+...#'))!!!!!!!!!!!!!!!!)))'';+...+....                 ",
"              .@..@,>,'')!!!!!!!!!!!!!!!!!!!!!!%..*#.....           .........@'))!!!!!!!!!!!!!!!!))))',$...+....                ",
"              .+..@>>>,'))!!!!!!!!!!!!!!!!!!!!*..*.....               ........#')))!!!!!!!!!!!!!!!!)))''*.......                ",
"              .+..@>>,''))!!!!!!!!!!!!!!!!!!!;..*.....                  .......&'))!)!!!!!!!!!!!!!!!)))''-+......               ",
"              .+..+,,>,')!!!!!!!!!!!!!!!!!!!'+.*....                     .......;')))!!!!!!!!!!!!!!)!!))''>#.....               ",
"              .+..@>>,''))!!!!!!!!!!!!!!!!!!&.#$...                       ......+,'))!!!!!!!!!!!!!!!!!)!)'',+....               ",
"              .+..@>>>,')!!!!!!!!!!!!!!!!!!,..*...                         ......*''))!!!!!!!!!!!!!!!!!!)))'$....               ",
"              .+..@>>,''))!!!!!!!!!!!!!!!!!&.%....                          .....+,''))!!!!!!!!!!!!!!!!!!!))%.....              ",
"              .+..+,>>,'))!!!!!!!!!!!!!!!!)..&...                           ......-,'))!!!!!!!!!!!!!!!!!!)!)%.@...              ",
"              .+..@>>,'')!!!!!!!!!!!!!!!!!-.@....                            .....$,,'))!!!!!!!!!!!!!!!!!!!!$.#...              ",
"              .+..@,>>,'))!!!!!!!!!!!!!!!!%.&...                             .....+,,')))!!!!!!!!!!!!!!!!!!!%.#..               ",
"              .@..+,>,,'))!!!!!!!!!!!!!!!!+.$...                              .....;,,))!!!!!!!!!!!!!!!!!!!!%.#..               ",
"              .+..@,>>''!)!!!!!!!!!!!!!!!'..+..                               .....*>,''))!!!!!!!!!!!!!!!!!!%.#..               ",
"              .+..+,>>''))!!!!!!!!!!!!!!!>.+...                               .....&>,''!!!!!!!!!!!!!!!!!!!!%.$..               ",
"              .+..@>>>,')!!!!!!!!!!!!!!!!-.@...                                .+..%>,,'))!!!!!!!!!!!!!!!!!!%.#..               ",
"              .+..@,>,'''!!!!!!!!!!!!!!!!-.@...                                .#..$>,,'))!!!!!!!!!!!!!!!!!!%.#..               ",
"              .+..+>>,,'))!!!!!!!!!!!!!!!-.@...                                .%..%>>,'')!!!!!!!!!!!!!!!!!!%.#..               ",
"              .@..@,>,'')!)!!!!!!!!!!!!!!;.+...                                .&..%>>,'))!!!!!!!!!!!!!!!!!!%.#..               ",
"              .+..+>>>,'))!!!!!!!!!!!!!!!>.....                               ..%..&,>,''))!!!!!!!!!!!!!!!!!%.#..               ",
"              .+..@>>,'')!!!!!!!!!!!!!!!!'..#..                               .#@..=>>,'')!!!!!!!!!!!!!!!!!!%.$..               ",
"              .+..+,>>,'))!!!!!!!!!!!!!!!!+.#...                              .*...;,>,')))!!!!!!!!!!!!!!!!!%.#..               ",
"              .+..@>>,''))!!!!!!!!!!!!!!!!%.....                             ..*..+,>>,,'!!!!!!!!!!!!!!!!!!!%.#..               ",
"              .@..+,>>,'))!!!!!!!!!!!!!!!!-..+...                            .$+..%,>,,')))!!!!!!!!!!!!!!!!!%.#..               ",
"              .+..@,>,''))!!!!!!!!!!!!!!!!)......                           ..*...->>>,''!!!!!!!!!!!!!!!!!!!%.#..               ",
"              .+..+>>>'')!!!!!!!!!!!!!!!!!!&..+...                          .$+..@,>>,,')))!!!!!!!!!!!!!!!!!%.#..               ",
"              .+..@,>>,'))!!!!!!!!!!!!!!!!!)......                         ..*...->>>,,'))!!!!!!!!!!!!!!!!!!%.$..               ",
"              .@..+>,>''))!!!!!!!!!!!!!!!!!!*......                       ..*...$,>>>,'))!!!!!!!!!!!!!!!!!!!%.#..               ",
"              .+..@>>>,')!!!!!!!!!!!!!!!!!!!)+..+...                      .&@...;,>>>,'')!!!!!!!!!!!!!!!!!!!%.#..               ",
"              .+..+,,>''))!!!!!!!!!!!!!!!!!!)>........                  ..&%...*,>>>>''!)!!!!!!!!!!!!!!!!!!!%.#..               ",
"              .+..@>>,,))!)!!!!!!!!!!!!!!!!!))*........                ..&%...$'>>>>,'')!!!!!!!!!!!!!!!!!!!!%.#..               ",
"              .+..+,>,,'))!!!!!!!!!!!!!!!!!!!!!&.........            ..+*+...#,>>>>>'')!)!!!!!!!!!!!!!!!!!!!%.#..               ",
"              .@..@>,,,')!!!!!!!!!!!!!!!!!!!!)))&...........      ....&&....$,>>>>>,'')!!!!!!!!!!!!!!!!!!!!!%.$..               ",
"              .+..@>>>''))!!!!!!!!!!!!!!!!!!!!!!)=.................@*&.....&,,>>>,,''!)!!!!!!!!!!!!!!!!!!!!!%.#..               ",
"              .+..@>>>,')!!!!!!!!!!!!!!!!!!!!!!)))>#..........+@%&&+.....@-,,>>>>,''))!!!!!!!!!!!!!!!!!!!!!!%.#..               ",
"              .+..+,,>''))!!!!!!!!!!!!!!!!!!!!!!)'''=@.................+*,,>>>>>,''))!!!!!!!!!!!!!!!!!!!!!!!%.#..               ",
"              .+..@>>>''))!!!!!!!!!!!!!!!!!!!!!!!))'',=#.............@*>,,>>>>,,'')))!!!!!!!!!!!!!!!!!!!!!!!%.#..               ",
"              .+..@>,>,')!!!!!!!!!!!!!!!!!!!!!!!!!))'',,;=$#@...@@%=;,>,>>>>>,>''')!!!!!!!!!!!!!!!!!!!!!!!!!%.#..               ",
"              .+..@>>,''))!!!!!!!!!!!!!!!!!!!!!!!!)))''',,>>>>>>>,>>>,>>>>>,,''')!)!!!!!!!!!!!!!!!!!!!!!!!!!%.$..               ",
"              .+..+,>>,'))!!!!!!!!!!!!!!!!!!!!!!!!!!!))'',,,,>,>>>>>>>>,>,,,''')))!!!!!!!!!!!!!!!!!!!!!!!!!!%.#..               ",
"              .+..@>>,'')!!!!!!!!!!!!!!!!!!!!!!!!!!!!))))'',',,,,,,,>,,,,''''))!!!!!!!!!!!!!!!!!!!!!!!!!!!!!%.#..               ",
"              .+..+,>>,'))!!!!!!!!!!!!!!!!!!!!!!!!!!!!!))))''''',','',''''))!)!)!!!!!!!!!!!!!!!!!!!!!!!!!!!!%.#..               ",
"              .+..@,>,'')!)!!!!!!!!!!!!!!!!!!!!!!!!!!!!!!))))''''''''''))))))!!!!!!!!!!!!!!!!!!!!!!!!!!!!!!!%.#..               ",
"              .+..+>>>,'))!!!!!!!!!!!!!!!!!!!!!!!!!!!!!!!!!)))!)))))))))))!!!!!!!!!!!!!!!!!!!!!!!!!!!!!!!!!!%.#..               ",
"              .@..@>>,'')!!!!!!!!!!!!!!!!!!!!!!!!!!!!!!!!!!!!)!)!)))!!!!!)!!!!!!!!!!!!!!!!!!!!!!!!!!!!!!!!!!%.$..               ",
"              .+..+,>,,'))!!!!!!!!!!!!!!!!!!!!!!!!!!!!!!!!!!!!!!!!!!!!!!!!!!!!!!!!!!!!!!!!!!!!!!!!!!!!!!!!!!%.#..               ",
"              .+..@>>,''))!!!!!!!!!!!!!!!!!!!!!!!!!!!!!!!!!!!!!!!!!!!!!!!!!!!!!!!!!!!!!!!!!!!!!!!!!!!!!!!!!!%.#..               ",
"              .+..+,>>,'))!!!!!!!!!!!!!!!!!!!!!!!!!!!!!!!!!!!!!!!!!!!!!!!!!!!!!!!!!!!!!!!!!!!!!!!!!!!!!!!!!!%.#..               ",
"              .+..@>>,'')!!!!!!!!!!!!!!!!!!!!!!!!!!!!!!!!!!!!!!!!!!!!!!!!!!!!!!!!!!!!!!!!!!!!!!!!!!!!!!!!!!!%.#..               ",
"              .@..+,>>,'))!!!!!!!!!!!!!!!!!!!!!!!!!!!!!!!!!!!!!!!!!!!!!!!!!!!!!!!!!!!!!!!!!!!!!!!!!!!!!!!!!!%.$..               ",
"              .@..+,>,'')!!!!!!!!!!!!!!!!!!!!!!!!!!!!!!!!!!!!!!!!!!!!!!!!!!!!!!!!!!!!!!!!!!!!!!!!!!!!!!!!!!!%.%..               ",
"              .++.@>>,,'))!!!!!!!!!!!!!!!!!!!!!!!!!!!!!!!!!!!!!!!!!!!!!!!!!!!!!!!!!!!!!!!!!!!!!!!!!!!!!!!!!!%.%..               ",
"              ..%.@>>,,')!!!!!!!!!!!!!!!!!!!!!!!!!!!!!!!!!!!!!!!!!!!!!!!!!!!!!!!!!!!!!!!!!!!!!!!!!!!!!!!!!!!%$$..               ",
"              ..&.@>>>''))!!!!!!!!!!!!!!!!!!!!!!!!!!!!!!!!!!!!!!!!!!!!!!!!!!!!!!!!!!!!!!!!!!!!!!!!!!!!!!!!!!%*...               ",
"              ..%.+$%$%%&%&&&&%&&&&&&&&&&&&&&%&&&&&&&&&&&&&%&&&&&&&&&&&&&&&&&&&&&&&&&&&&&&&&&&&&&&&&&&&&&&&%$*...               ",
"              ............................................................................................#**....               ",
"              ........+##$#$$$#$$#$$#$#$$$#$$#$$#$$#$#$#$#$#$#$##$#$#$#$$#$$#$#$#$#$#$#$$#$$#$#$#$$#$#$$%%%+.....               ",
"               ..................................................................................................               ",
"               ..................................................................................................               ",
"                  ..............................................................................................                ",
"                                                                                                                                ",
"                                                                                                                                ",
"                                                                                                                                ",
"                                                                                                                                ",
"                                                                                                                                ",
"                                                                                                                                ",
"                                                                                                                                ",
"                                                                                                                                ",
"                                                                                                                                ",
"                                                                                                                                ",
"                                                                                                                                ",
"                                                                                                                                ",
"                                                                                                                                ",
"                                                                                                                                ",
"                                                                                                                                ",
"                                                                                                                                "};
