/* XPM */
char * rgb_xpm[] = {
"128 128 17 1",
" 	c None",
".	c #000000",
"+	c #040090",
"@	c #0700B7",
"#	c #111140",
"$	c #2300F2",
"%	c #3E1B14",
"&	c #9F003F",
"*	c #B70000",
"=	c #F90000",
"-	c #075C15",
";	c #9A3B0A",
">	c #4F534F",
",	c #767774",
"'	c #00A340",
")	c #00AB00",
"!	c #00F700",
"                                                                                                                                ",
"                                                                                                                                ",
"                                                                                                                                ",
"                                                                                                                                ",
"                                                                                                                                ",
"                                                                                                                                ",
"                                          .............                                                                         ",
"                                      >.>>,>,,,>>>>>>>.....                                                                     ",
"                                   >>>>,,>>>..........>>>.....                                                                  ",
"                                 >>>,,,...................>>....                                                                ",
"                               >>,,>........%..%..%.%........>....                                                              ",
"                             >,,,>.......%%&**;*;*&*;;&.%...........                                                            ",
"                           >>,,>....%.&;***************;*&%..........                                                           ",
"                          >,,>....%%*;**********;***********%%.........                                                         ",
"                         >,,>...%%******;***;*****************%%........                                                        ",
"                        >,,...%%********************************%........                                                       ",
"                       >,>...%;*****&*********=*=*==*=*=*=********%%......                                                      ",
"                      >,>...%**************=*====*===========******;.......                                                     ",
"                     >,>..%;***********===================*====******%......                                                    ",
"                    >,,...&**********==*=========================*****;%.....                                                   ",
"                   >>,..%;***&*****================================****&......                                                  ",
"                  .>,..%%*******=*=*=================================***%.....                                                  ",
"                  >,...%*********=====================================*=*%.....                                                 ",
"                 .>,..%********========================================**;..>...                                                ",
"                .>,...;******===========================================**&.>...                                                ",
"                .>>..%********===========================================**%>>...                                               ",
"               .>>..%;*****===============================================*%%,...                                               ",
"               .>>..%*******===============================================&,,>...........                                      ",
"              .>>..%;*****==============================================;>>,>>>......>>.>.....                                  ",
"              .>>..%******=*=========================================;%>,,,>%............>>>.....                               ",
"              .>..%;*****==========================================;>>,,,>...................>>....                             ",
"             ..>..%*****=*=======================================&>>,,>...............>.........>....                           ",
"             .>...;*****========================================>>,,>....%..%%.....-))))'-.............                         ",
"             .>...&*****======================================%>,,>...%.%%%;;;%.....)'))))))---.........                        ",
"             .>..%;****======================================>,,,.....%;;;;;;;;.....))))))))))--..........                      ",
"            ..>..%****=*===================================*>,,>...%%;;;;;;;%;;%....-')))))))))))--........                     ",
"            .....;****====================================;,,,....%;;;;%;;;;;;;%....-)))!)!!)!))))'-........                    ",
"            .>...&*****==================================&,,>....;;;;;;;;;;;;;;;....-))))!)!)!)!)))))-.......                   ",
"            .....****===================================*,,>..%%;;;;%;;;;;;;;;;;....-))!)!!!!!!!!)!)))-.......                  ",
"            .....*****=================================*>,>..%%;;%;;;;;;;;;;;;;;%....))!)!!!!!)!!!)!)!))-......                 ",
"            .>..%****==================================>,>..%;;;;;;;;;;;;;;;;;;;.....)))!!!!!!!!!!!!!)!))--.....                ",
"            ....;*****================================>>,...%;;;;;;;;;;;;;;;;;;;%....))))!!!!!!!!!!!!!)!))-......               ",
"            .>..;***=================================%,,...;;;;;;;-;;;;;;;;=;;;;%....!)!)!!!!!!!!!!!!!!!!))-.....               ",
"            ....&****===============================*>,>..%;;%;;;;;;;;;;;;;;=;;;.>...))!)!!!!!!!!!!!!!!!!!!'-.....              ",
"            .>..%****===============================>,,..%;;;;;;;;;;;;;=;;;;;;;;%....)))!)!!!!!!!!!!!!!!!!)!-......             ",
"            ....%**=*==============================&>,,..%;;;;;;;;;;;;;;;=;;=;;;.>..-)))!!!!!!!!!!!!!!!!!!!!!-.....             ",
"            .....***=====================;;,%>>>%>>,,,>.%;;;-;;;;;;;=;;;;;;;;;;;%>...))))!!!!!!!!!!!!!!!!!!!))-.....            ",
"            .....;***================*,>>>>,>>>,,,,,,>....%;;;;;;=;;;;=;;;;=;;;;.>..-))!)!!!!!!!!!!!!!!!!!!!!)-.....            ",
"            ..>..;**==============;,,>,,,,>>>>>>,,,,.........%;;;;;;;=;;=;;;;=;;>>..-)))!!!!!!!!!!!!!!!!!!!!!!)......           ",
"            .....%***===========;,,,,,>...........>............-;;=;;;;;;;;;;;;.>...'))))!!!!!!!!!!!!!!!!!!!!!!-.....           ",
"             ....%**==========;,,,,>...........%.............>...-;;;=;;;;=;;;;%>...)))!!!!!!!!!!!!!!!!!!!!!!!!)-.....          ",
"             .....;**=======*,,,,>........%&&&&&&.....%%.......%.>>;);=;;;;;;;%.,...)))))!!!!!!!!!!!!!!!!!!!!!!)-.....          ",
"             .....;**======;,,,>....%#&&&&&&%&&%%....%;%;%%.........%;;;;;;=;;->>..-)))!!!!!!!!!!!!!!!!!!!!!!!!!).....          ",
"             .....%**=====,,,,....#&%&%&&%&&&&&&.....%%;%;;;%%.......-;;;;;;*;%>...))))))!!!!!!!!!!!!!!!!!!!!!!!!......         ",
"              ....%;**==;,,,>...%&&&&&&&&&&#&&&&....%;;%;%;%;%%%.......>;;;;;;>>...)))!)!!!!!!!!!!!!!!!!!!!!!!!!!-.....         ",
"              .....%**=&,,,....#&%&&%&&%&&&&&%&&.>...;%;;%;;;;;;%%.....%-;;;;,>>..-)))!)!!!!!!!!!!!!!!!!!!!!!!!!!).....         ",
"              .....%**;,,,...%&&&&&&&&&&&&&&&&&..>..%;;%;;;%;%;%;%%.....%>;;;,,...'))))!!!!!!!!!!!!!!!!!!!!!!!!!!)-....         ",
"               ..>%.%&,,>..%#%&&&%&%&&&&&&&&&&&%....%%;;%;;;;;;;;;;%%...->,;,,...-))))!)!!!!!!!!!!!!!!!!!!!!!!!!!!-.....        ",
"               ...>>%>>....&&&&&%&&&&&&&&&&&&&&....%;;%;;;;;;;;;%;;;%%...,,,,>...'))))!!!!!!!!!!!!!!!!!!!!!!!!!!!!).....        ",
"                ...,>....%%&&&&&&&&&&&&&&&&&&&&.>...%;;%;%;;,;;;;%;;;;%%..,>>...-))))))!!!!!!!!!!!!!!!!!!!!!!!!!!!).....        ",
"                ...>>...%%&&&&&&&&&&&&&&&&&&&&&.....;%;;;;;;;;;;;;;;;;;%..>>....')))!)!!!!!!!!!!!!!!!!!!!!!!!!!!!!!.>...        ",
"                 ......#%&&&%&&&&&&&&&&&&&&&&&&.>..%;;,;&;;;;;;;;;;;%;;;%..>...-))))!)!!!!!!!!!!!!!!!!!!!!!!!!!!!!!.....        ",
"                 ..>....&&&&&&&&&&&&&&&&&&&&&&&....%;%;;;;;;;&;;;,;;;;;;%......))))))!!!!!!!!!!!!!!!!!!!!!!!!!!!!!)-....        ",
"                 .......%&%&&&&&&&&&&&&&&&&&&&&.>.%%;;;,;;,;;;;;;;;;;;;;%.>....-)))!)!!!!!!!!!!!!!!!!!!!!!!!!!!!!!).....        ",
"                .........%&&&&&&&&&&&&&&&&&&&&&.>..;%;;;;;;;;;;;;;;;;;;%>.......-)))!!!!!!!!!!!!!!!!!!!!!!!!!!!!!!!.>...        ",
"                ..>.......#&&&&&&&&&&&&&&&&&&&&....%;%;;&;;;;,;;;;&;;;;>>>......-))!)!!!!!!!!!!!!!!!!!!!!!!!!!!!!!!.....        ",
"               .>>.........%&&&&&&&&&&=&&=&&&&&.>...;&;;;;;;;;;&;;;;,,,,%........')!!!!!!!!!!!!!!!!!!!!!!!!!!!!!!!)-....        ",
"               .>...#+.....#%&&&&&&&&&&&&&&&&&&.....%;;,;;&;;;;;;;;;%,,>...-.....-)))!!!!!!!!!!!!!!!!!!!!!!!!!!!!!).>...        ",
"              .>>..#++#.....#%&&&&&&&&&&&&&&&&&%....;%;;;;;;;;;;,;,,,,....''-.....)!!!!!!!!!!!!!!!!!!!!!!!!!!!!!!!).>...        ",
"              .>>..#@@@#......%&&&&&&&&&&&&&&&&..>..%;;;;,;;;;;*,%,,,....'-'-.....-))!!!!!!!!!!!!!!!!!!!!!!!!!!!!!'.>...        ",
"              .>..#++@+@+.......%&&&&&&&=&&&&&&&.>..%;%;;;;;;,&,,,,%....''-''-.....)!)!!!!!!!!!!!!!!!!!!!!!!!!!!!!.>>..         ",
"             ..>..#+@+@@@+.....>#%,&&&&&&&&&&&&&.,..>;;&;;;&;,,,,>....--''-'--.....')!!!!!!!!!!!!!!!!!!!!!!!!!!!!).>...         ",
"             .>...+@@@@@@@@#.....>..>%&&&&&=&&&&>,>..%;,;,,,,,,>.....-''-'''''.....-))!!!!!!!!!!!!!!!!!!!!!!!!!!!->>...         ",
"             .>...+@@@@@$@$@+......#>#>#,&&&&&&&,,>.%%%%>%,,,>.....--'-''-'-''-.....)))!!!!!!!!!!!!!!!!!!!!!!!!!)->>...         ",
"             .>..#++@@@$$@$@@@#.......>%##>>,,,,,,>....%>,>%.....>-'''-'-'''''-.....)!!!!!!!!!!!!!!!!!!!!!!!!!!!).>...          ",
"            ..>..#@@@@$@$$$$@$@++.........>#,,,>%>.>............-''-'-''-''''''-....'))!!!!!!!!!!!!!!!!!!!!!!!!!->>...          ",
"            .....++@@@$$$$$$$@@@@++..........#...............--''-'-''-''''''''-....-))!!!!!!!!!!!!!!!!!!!!!!!!)->....          ",
"            .>...+@@@$@$$$$$$$$@@@@@@##...................>--''-''-'-''''''''''-....-)))!!!!!!!!!!!!!!!!!!!!!!!-.,...           ",
"            .....+@@@@$$$$$$$$$$@@@@@@+@+###............-'-''-''-'''''''''''''''....-))!!!!!!!!!!!!!!!!!!!!!!!!>>>...           ",
"            .....+@@@@$$$$$$$$$$$$$@@@@@@@@+@@@@@@#.....-'-'-'-'-'-'''''''!'''''>....)))!!!!!!!!!!!!!!!!!!!!!!-->...            ",
"            .>..#@@@@$$$$$$$$$$$$$@$@@@@@@@@@@+@@++.....--'-''-'''''''''''''!'''.....))!)!!!!!!!!!!!!!!!!!!!!)->>...            ",
"            ....++@@$@$$$$$$$$$$$$$$$$$$@@@@@@@@@@@#....#--'-'''''''''''''''''''.>...)))!!!!!!!!!!!!!!!!!!!!!-%>...             ",
"            .>..+@@@@$$$$$$$$$$$$$$$$$@$$@$@@@@@@@@@......'''''''''''''''!'''!''-....!))!!!!!!!!!!!!!!!!!!!!)>,....             ",
"            ....+@@@@$$$$$$$$$$$$$$$$$$$$$$$$$$@$@@@+....#>-'''''''''''''!''''''.>...))))!!!!!!!!!!!!!!!!!!)-,>...              ",
"            .>..#@@@$$$$$$$$$$$$$$$$$$$$$$@$$@$$$$$@$#.....-''''''''''''''''''''.....))!)!!!!!!!!!!!!!!!!!!-,>...               ",
"            ....#+@@@$$$$$$$$$$$$$$$$$$$$$$$$$$$$$$$$@.....#-''''''!''!''!''!'''.>..-))))!!!!!!!!!!!!!!!!!),,....               ",
"            .....+@$$$$$$$$$$$$$$$$$$$$$$$$$$$$$$$$$$@@.....>-''''''''''''''''''-....)!)!!!!!!!!!!!!!!!!!),,....                ",
"            .....+@@@$$$$$$$$$$$$$$$$$$$$$$$$$$$$$$$$$@+.....>'''''''''!''!'''''.>..-))))!!!!!!!!!!!!!!!',,>...                 ",
"            ..>..++@$$$$$$$$$$$$$$$$$$$$$$$$$$$$$$$$$$$@+......-''''''''''''!''->>..-)))!!!!!!!!!!!!!!)>,,>...                  ",
"            .....#@@@$$$$$$$$$$$$$$$$$$$$$$$$$$$$$$$$$$$@#......>'''!''!'''''''.>>..'))))!!!!!!!!!!!)',,,....                   ",
"             ....#@@@$$$$$$$$$$$$$$$$$$$$$$$$$$$$$$$$$$$$@+.......-''''''''''''->...)))!!!!!!!!!!!!'-,,>....                    ",
"             .....+@@$$$$$$$$$$$$$$$$$$$$$$$$$$$$$$$$$$$$$@+....>..>''''!''!''->,...)))))!!!!!!!!-,>,,.....                     ",
"             .....+@@$$$$$$$$$$$$$$$$$$$$$$$$$$$$$$$$$$$$@$@+#.......>-'''''''>>,..-)))!!!!!!!!--,,,>.....                      ",
"             .....#@@@$$$$$$$$$$$$$$$$$$$$$$$$$$$$$$$$$$$$$@@@#.......#.>'''''>,,..')))))!)!)--,,,>.....                        ",
"              ....#+@$$$$$$$$$$$$$$$$$$$$$$$$$$$$$$$$$$$$$$$@@@+......>>..>>,',,>..))')))--,>,,,>......                         ",
"              .....#@@$$$$$$$$$$$$$$$$$$$$$$$$$$$$$$$$$$$$$$$@$@@#......>>>,,,,,>.....->>>,,,>>......                           ",
"              .....#@@$$$$$$$$$$$$$$$$$$$$$$$$$$$$$$$$$$$$$$$$$@$@@#......,,,,,.......>>,>>........                             ",
"               .....#@@$$$$$$$$$$$$$$$$$$$$$$$$$$$$$$$$$$$$$$$$$@@$@@##.....>>...................                               ",
"               .....#+$$$$$$$$$$$$$$$$$$$$$$$$$$$$$$$$$$$$$$$$$$$@@@@@@+##....................                                  ",
"                .....#@$$$$$$$$$$$$$$$$$$$$$$$$$$$$$$$$$$$$$$$$$$$$@$@@@@@+...............                                      ",
"                ......+@$$$$$$$$$$$$$$$$$$$$$$$$$$$$$$$$$$$$$$$$$$$$@@$@@@#.....                                                ",
"                 ......+$$$$$$$$$$$$$$$$$$$$$$$$$$$$$$$$$$$$$$$$$$$$$$$@@+......                                                ",
"                  .....#@$$$$$$$$$$$$$$$$$$$$$$$$$$$$$$$$$$$$$$$$$$$$$@$@#-....                                                 ",
"                  ......+$$$$$$$$$$$$$$$$$$$$$$$$$$$$$$$$$$$$$$$$$$$$$$@+>>...                                                  ",
"                   ......+@$$$$$$$$$$$$$$$$$$$$$$$$$$$$$$$$$$$$$$$$$$$$+>,....                                                  ",
"                    .....#+$$$$$$$$$$$$$$$$$$$$$$$$$$$$$$$$$$$$$$$$$$$@,,....                                                   ",
"                     ......+$$$$$$$$$$$$$$$$$$$$$$$$$$$$$$$$$$$$$$$$$#,,>...                                                    ",
"                      ......#@$$$$$$$$$$$$$$$$$$$$$$$$$$$$$$$$$$$$$@>,,....                                                     ",
"                      .......#+$$$$$$$$$$$$$$$$$$$$$$$$$$$$$$$$$$@+,,,#...                                                      ",
"                       ......%##$$$$$$$$$$$$$$$$$$$$$$$$$$$$$$$@+#,,,....                                                       ",
"                         .......#+@$$$$$$$$$$$$$$$$$$$$$$$$$$$##,,,.....                                                        ",
"                          .....%..>+@$$$$$$$$$$$$$$$$$$$$$$@+#,,,>.....                                                         ",
"                           ......>...#+@$$$$$$$$$$$$$$$$$@+,,,,,.....                                                           ",
"                             ......>>%..>++$$@$$$$@$$++#>>,,,>......                                                            ",
"                              ........>>..>#.#..#.#>#,,,,,>#......                                                              ",
"                                .........%>>,,,,,>,>,>>>........                                                                ",
"                                  ............................                                                                  ",
"                                     ......................                                                                     ",
"                                         ..............                                                                         ",
"                                                                                                                                ",
"                                                                                                                                ",
"                                                                                                                                ",
"                                                                                                                                ",
"                                                                                                                                ",
"                                                                                                                                ",
"                                                                                                                                ",
"                                                                                                                                ",
"                                                                                                                                "};
