/* XPM */
char * rotate_xpm[] = {
"128 128 17 1",
" 	c None",
".	c #000000",
"+	c #040702",
"@	c #080B07",
"#	c #0D0F0C",
"$	c #151715",
"%	c #1E201D",
"&	c #282A28",
"*	c #343633",
"=	c #3D3F3C",
"-	c #474946",
";	c #515350",
">	c #5C5E5B",
",	c #646663",
"'	c #6B6D6A",
")	c #747673",
"!	c #7C7E7B",
"                                                                                                                                ",
"                                                                                                                                ",
"                                                                                                                                ",
"                                                                                                                                ",
"                                                                                                                                ",
"                                                                                                                                ",
"                                                                                                                                ",
"                                                                                                                                ",
"                                                                                                                                ",
"                                                                                                                                ",
"                                                                                                                                ",
"                                                      .                                                                         ",
"                                                    ...                                                                         ",
"                                                 .....                                                                          ",
"                                              ........                                                                          ",
"                                            .........                                                                           ",
"                                          .....+....                                                                            ",
"                                       ......#=.....                                                                            ",
"                                     ......%;,#+...                                                                             ",
"                                   ......*,)'#.....                                                                             ",
"                                 .....#-')'-..+...                                                                              ",
"                              ......%;))'-&.......                                         .                                    ",
"                            ......&>)),-&$...+...                                         ...                                   ",
"                         .......=,!)>=&$#........                                        ......                                 ",
"                       ......#-'!)>=&#..........                                         .......                                ",
"                    .......&;)),;*%#............                                        ..+&.....                               ",
"                 .......#=,)),-*%#.@...........                                         ..#!-+.....                             ",
"            #.......@*;'!),;=&$................                                        ....=-.......                            ",
"          ...$-'!!!!!),;=*&$##@.+.............                                         ......+.......                           ",
"            +..............#..................                                          ..............                          ",
"             ..............##................                                            ..............                         ",
"               . ........+#%.@...............                                              .............                        ",
"                   .......&&#@..............                                                .............                       ",
"                       ..%=*#...............                                                 ......+......                      ",
"                       ..-;%...............                                                   ......+.....                      ",
"                      ..$';................                                                    ............                     ",
"                     ...;)%........#.......                                                     ............                    ",
"                     +.#)>.........#......                                                       .....+.....                    ",
"                    ...>!...... ...#.+....                                                        .....+.....                   ",
"                   .+.*!*.....  ..+#......                                                         ...........                  ",
"                   ...),......  ...#.....                                                          .....@.....                  ",
"                  .+.-!......   .........                                                           ...........                 ",
"                  ...!;.+...    ........                                                             ....+.....                 ",
"                 .+.;)......    ........                                                             .....@.....                ",
"                 ...)=.....     ........                                                              ....+.....                ",
"                ...-)......     .......                                                                ....@.....               ",
"                ...'-.....       ......                                                                ....@.....               ",
"                +.&)......       ......                                                                 ....+.....              ",
"               ...>>.....        .....                                                                  ....$.....              ",
"               ...'#.....         ....                                                                   .........              ",
"              ...*,.+...          ....                                                                   ....$.....             ",
"              ...;-.....          ....                                                                   ....$.....             ",
"              ...,#....            ..                                                                     .........             ",
"              ..$,.....             .                                                                     ....$.....            ",
"             ...*;.....                                                                                   ....%.....            ",
"             ...;&....                                                                                     ...#.....            ",
"             ...;.....                                                                                     ....+....            ",
"             .+.>.....                                                                                     ....%....            ",
"             ...;.....                                                                                      ...&.....           ",
"            .+.$-....                                                                                       ...%.....           ",
"            ...&&....                                                                                       ...$.....           ",
"            ...*.....                                                                                       ..+......           ",
"            ...=.....                                                                                       ....#....           ",
"            ...=.....                                                                                        ...%....           ",
"            ...=+....                                                                                        ...*....           ",
"            ...-....                                                                                         ...*....           ",
"            ...=....                                                                                         ...=....           ",
"            ...*....                                                                                         ...=....           ",
"            ...*.....                                                                                        ...*+...           ",
"            ...&.....                                                                                        .+$*....           ",
"            ...%.....                                                                                       ...*$....           ",
"            ..+.#....                                                                                       ...-.....           ",
"            ....&....                                                                                       ...>.....           ",
"            ....*....                                                                                       ...,.....           ",
"             ...*.....                                                                                      ..%>.....           ",
"             ...&.....                                                                                     ...==....            ",
"             ...#.....                                                                                     ...>#+...            ",
"             ....%....                                                                                     ..#,.....            ",
"             ....&.....                                                                                    ..*,.....            ",
"              ...$.....                                                                                   ...,*.....            ",
"              ....@....                                                                                   ..#'.....             ",
"              ....%.....                                                                                 +..-,.....             ",
"              ....#.....                                                                                 ...,=.....             ",
"               ....@.....                                                                                ..*).....              ",
"               ....$.....                                                                               ...,>.....              ",
"                ..........                                                                              ..&)#.....              ",
"                ....#.....                                                                             ...,,.....               ",
"                ...........                                                                            ..&)%.....               ",
"                 ....#.....                                                                           ...',.....                ",
"                 ...........                                                                          ..=!%.....                ",
"                  ....+.....                                                                         ...)>......                ",
"                  ...........                                                                       ...;!......                 ",
"                   ...........                                                                      ..&!-.....                  ",
"                   ...........                                                                     +..)'......                  ",
"                    ...........                                                                   ...>!@.....                   ",
"                     ...........                                                                 ...-!=......                   ",
"                     ............                                                                ..&!>......                    ",
"                      ............                                                              ..#))......                     ",
"                       ............                                                            ...)!......                      ",
"                        ............                                                         ..+.)!.......                      ",
"                        .............                                                       ...#)!$......                       ",
"                         ..............                                                    ...&!!#......                        ",
"                          ......+.......                                                 ....=!).......                         ",
"                           ...............                                              ....>!>.......                          ",
"                            .......+.......                                           ....&)!=.......                           ",
"                             .......+........                                       .....;!'#.......                            ",
"                              ........@........                                   .....=)!-........                             ",
"                               .........+.........                             .....+&,!>.........                              ",
"                                 ........@+..........                        ......&,!,$........                                ",
"                                  .........@@...........                 ........*,),%.........                                 ",
"                                    .........+$..............       ..........#-,)>#....+.....                                  ",
"                                     ...........$$.........................@=>'>=...........                                    ",
"                                       ............$%#..................%=>,,=............                                      ",
"                                         .............+%&%$+.....+.%*->,>-#..............                                       ",
"                                           .................#%&=*==&%.....+...........                                          ",
"                                             .......................................                                            ",
"                                                .................................                                               ",
"                                                   ...........................                                                  ",
"                                                        .................                                                       ",
"                                                                                                                                ",
"                                                                                                                                ",
"                                                                                                                                ",
"                                                                                                                                ",
"                                                                                                                                ",
"                                                                                                                                ",
"                                                                                                                                ",
"                                                                                                                                ",
"                                                                                                                                "};
