/* XPM */
char * rulersettings_xpm[] = {
"128 128 17 1",
" 	c None",
".	c #000000",
"+	c #2A2A00",
"@	c #272927",
"#	c #323431",
"$	c #363800",
"%	c #393B38",
"&	c #494B48",
"*	c #525200",
"=	c #646663",
"-	c #6F7200",
";	c #797A75",
">	c #989700",
",	c #A1A400",
"'	c #B0B200",
")	c #BEBE00",
"!	c #C3C300",
"                                                                                                                                ",
"                                                                                                                                ",
"                                                                                                                                ",
"                                                                                                                                ",
"                                                                                                                                ",
"                                                                                                                                ",
"                                                                                                                                ",
"                                                              =&...                    =&...                                    ",
"                                                              =;@..                    =;@..                                    ",
"                                                              %;@..                    %;@..                                    ",
"                                                              @=...                    @=...                                    ",
"                                                              .&...                    .&...                                    ",
"                                                              .@...                    .@...                                    ",
"                                                              .@...                    .@...                                    ",
"                                                              .@...                    .@...                                    ",
"                                                              .#...                    .@...                                    ",
"                                                              .@...                    .@...                                    ",
"                                                              .@...                    .@...                                    ",
"                                                              .@...                    .@...                                    ",
"                                                              .@...                    .@...                                    ",
"                                                              .#...                    .#...                                    ",
"                                                              .&...                    .&...                                    ",
"                                                              @=...                    @=...                                    ",
"                                                              %;...                    &=...                                    ",
"                                                              =;@..                    ;;@..                                    ",
"                                           =&%@...........@&==;;#..................@&==;=#....................                  ",
"                                           %=;=&&&%%&%%&&==;;;;&@.....@%%&%&%%&%&&==;;;;=@.....#%%&%&%&%&@....                  ",
"                                           .#&;&%%&%&%&%%&===&&#......@%&%&%&%&%%&&&==&&@......@%&%&%&%%%@....                  ",
"                                           ...................................................................                  ",
"                                           ...................................................................                  ",
"                                                ..............................................................                  ",
"                                                             ......                   ......                                    ",
"                                                             ......                   ......                                    ",
"                                                             ......                   ......                                    ",
"                                                              .....                    .....                                    ",
"                                                              .@...                    .@...                                    ",
"                                                              .@...                    .@...                                    ",
"                                                              .@...                    .@...                                    ",
"                                                              .@...                    .@...                                    ",
"                                                              .@...                    .@...                                    ",
"                                                              .@...                    .@...                                    ",
"                                                              .@...                    .@...                                    ",
"                                                              .@...                    .@...                                    ",
"                                                              .@...                    .@...                                    ",
"                                                              .@...                    .@...                                    ",
"                                                              .#...                    .#...                                    ",
"                                                              .&...                    .&...                                    ",
"                                                              @&...                    @&...                                    ",
"                                                              %=...                    %=...                                    ",
"                                                              =;@..                    =;@..                                    ",
"                                                             =;;#....                 =;;#....                                  ",
"                                           &===%#@#@#@#@#%=;;;;=#......@@#@#@#@#@#%=;;;;=@.....@@@#@#@#@@@....                  ",
"                                           .%=;=&&&&=&&=&=====&#.....@#&&=&&&&&=&======&%......%&&&&=&&&&#....                  ",
"                                           ...................................................................                  ",
"                                           ...................................................................                  ",
"                                           ...................................................................                  ",
"                                                             ......                   ......                                    ",
"                                                             ......                   ......                                    ",
"                                                             ......                   ......                                    ",
"                                                             ......                   ......                                    ",
"                                                              .@...                    .@...                                    ",
"                                                              .@...                    .@...                                    ",
"                                                              .@...                    .@...                                    ",
"                                                              .@...                    .@...                                    ",
"                                                              .@...                    .@...                                    ",
"                                                              .@...                    .@...                                    ",
"                                                              .@...                    .@...                                    ",
"                                                              .@...                    .@...                                    ",
"                                                              .#...                    .@...                                    ",
"                                                              .....                    .....                                    ",
"                                                              .....                    .....                                    ",
"                                                              .....                    .....                                    ",
"                                                              .....                    .....                                    ",
"                                                              .....                    .....                                    ",
"                                                                                                                                ",
"                                                                                                                                ",
"                                                                                                                                ",
"                                                                                                                                ",
"                                                                                                                                ",
"                                                                                                                                ",
"                                                                                                                                ",
"                                                                                                                                ",
"                                                                                                                                ",
"                                                                                                                                ",
"                                                                                                                                ",
"                                                                                                                                ",
"          &&@.........................................................................................................          ",
"          &&=&##%%&&&&&&&&&&&&&&&&%%@@@@@@#%&&&&&&&&&&&&&&&&%%@@@@@@#%&&&&&&&&&&&&&&&&&%@@@@@##%&&&&&&&&&&&&&&&&&#....          ",
"          @=;;&################%&=;;=&&%###@#############%&=;;=&&%###@#############%&==;==%%@###@############%&===%...          ",
"          .&;#.....................#=&%......................#==#......................#=&%......................@@...          ",
"          .@..........................................................................................................          ",
"          ....---------------------$....+--------------------$....+--------------------$....+---------------------.....         ",
"          ....->>>>>>>>>>>>>>>>>>>>*....$>>>>>>>>>>>>>>>>>>>>*....$>>>>>>>>>>>>>>>>>>>>*....+>>>>>>>>>>>>>>>>>>>>-.....         ",
"          ....->>>>>>>>>>>>>>>>>>>>*.=..+>->>>>>>>>>>>>>>>>>>*.=..+>->>>>>>>>>>>>>>>>>>*.=..+>>>>>>>>>>>>>>>>>>>>-.....         ",
"          .@..->->>>,,>,>,>,>,,>,>>*.;..$>>>>>>,>,>,>,,>,,>,>*.;..$>>>>>>,,>,,>,,>,>,>>*.;..$>->>>>,>,>,>,,,>,>>>-.....         ",
"          .@..->>>,,,,,,',',,,,,,',*.&..+>>>>,,,,,',',,',,,,,*.&..+>>>>,,,,',,,,,,,',',*.&..+>>>,,,,,,',,,,,,,'',-.@...         ",
"          .@..->>,,,')''''''''')'''*....$>>>,'')''''''''''')'*....$>>>,,'''''''''''''''*....$>>>,,')''''''')'''')-.@...         ",
"          .@..->>,'))')')')))))'))!*....+>>,,''')')))))))))'!*....+>>,,)')')))))))))')!*....+>>,,)'')')))))'))')'>.@...         ",
"          .@..->,,''))!!!!!!)!)!))!-....$>>,,'))!)))))))!!!!!-....$>>,'''!))!)!!))!!!)!-....$>>,,'))!!!)))!)!)!))-.@...         ",
"          .@..->,,')!!!!!!!!!!!!!)!*....$>>,'))!!!!!!!!!!!!'!*....$>>,'')!!!!!!!!!!!!!!*....$>>,'))!!!!!!!!!!!!!!>.@...         ",
"          .@..->>,'))!!!!!!!!!!!!!!!>--->>,,''!!!!!!!!!!!!!!!)>--->>,,'))!!!!!!!!!!!!!!)>--->>,,'))!!!!!!!!!!!!!!-.#...         ",
"          .@..-,,'''!!!!!!!!!!!!!!!)')',,>,,'))!!!!!!!!!!!!!!)))',>>,,''!!!!!!!!!!!!!!!))),,,>,,'')!!!!!!!!!!!!!!>.@...         ",
"          .@..->>,'))!!!!!!!!!!!!!!)'',,,,,'''!!!!!!!!!!!!!!!)'',,,,,'''!!!!!!!!!!!!!!!))),,,,,'''!!!!!!!!!!!!!!!-.@...         ",
"          .@..->,,'')!!!!!!!!!!!!!!!))',,,,''))!!!!!!!!!!!!!!!))'',,',))!!!!!!!!!!!!!!!!'''',,,''))!!!!!!!!!!!!!!>.@...         ",
"          .@..->,'')!!!!!!!!!!!!!!!!)))''''')!!!!!!!!!!!!!!!!!))''''''))!!!!!!!!!!!!!!!!!)''''''!!!!!!!!!!!!!!!!!>.@...         ",
"          .@..-,,,'))!!!!!!!!!!!!!!!!)))')')!)!!!!!!!!!!!!!!!!))))'')))!!!!!!!!!!!!!!!!!!)))')')))!!!!!!!!!!!!!!!-.@...         ",
"          .@..->,,''!)!!!!!!!!!!!!!!!)!)))))!!!!!!!!!!!!!!!!!!!!)))))!)!!!!!!!!!!!!!!!!!!!!))))!!)!!!!!!!!!!!!!!!>.@...         ",
"          .@..->>'')!!!!!!!!!!!!!!!!!!!!!!!!)!!!!!!!!!!!!!!!!!!!!!!)!)!!!!!!!!!!!!!!!!!!!!!!!!!!!!!!!!!!!!!!!!!!!-.@...         ",
"          .@..->,,'')!!!!!!!!!!!!!!!!!!!!!!!!!!!!!!!!!!!!!!!!!!!!!!!!!!!!!!!!!!!!!!!!!!!!!!!!!!!!!!!!!!!!!!!!!!!!>.#...         ",
"          .@..->,,'))!!!!!!!!!!!!!!!!!!!!!!!!!!!!!!!!!!!!!!!!!!!!!!!!!!!!!!!!!!!!!!!!!!!!!!!!!!!!!!!!!!!!!!!!!!!!-.#...         ",
"          .#..->,''))!!!!!!!!!!!!!!!!!!!!!!!!!!!!!!!!!!!!!!!!!!!!!!!!!!!!!!!!!!!!!!!!!!!!!!!!!!!!!!!!!!!!!!!!!!!!>.%...         ",
"          .%..->,,'')!!!!!!!!!!!!!!!!!!!!!!!!!!!!!!!!!!!!!!!!!!!!!!!!!!!!!!!!!!!!!!!!!!!!!!!!!!!!!!!!!!!!!!!!!!!!-%&...         ",
"          .&@.->,,)))!!!!!!!!!!!!!!!!!!!!!!!!!!!!!!!!!!!!!!!!!!!!!!!!!!!!!!!!!!!!!!!!!!!!!!!!!!!!!!!!!!!!!!!!!!!!>=&...         ",
"          .&&.->,,'))!!!!!!!!!!!!!!!!!!!!!!!!!!!!!!!!!!!!!!!!!!!!!!!!!!!!!!!!!!!!!!!!!!!!!!!!!!!!!!!!!!!!!!!!!!!!>;&...         ",
"          .@&.+++$$+$$$$$$$$$$$$$$$$$$$$$$$$$$$$$$$$$$$$$$$$$$$$$$$$$$$$$$$$$$$$$$$$$$$$$$$$$$$$$$$$$$$$$$$$$$**;-;....         ",
"          .......@%&&&&&&&&&&&&&&&&&&&&&&&&&&&&&&&&&&&&&&&&&&&&&&&&&&&&&&&&&&&&&&&&&&&&&&&&&&&&&&&&&&&&&&&&&&;;;;;#....         ",
"          ........@#######################################################################################%%#%%%.......         ",
"          .............................................................................................................         ",
"          .............................................................................................................         ",
"                                                                                                                                ",
"                                                                                                                                ",
"                                                                                                                                ",
"                                                                                                                                ",
"                                                                                                                                ",
"                                                                                                                                ",
"                                                                                                                                ",
"                                                                                                                                ",
"                                                                                                                                "};
