/* XPM */
char * sandbox_xpm[] = {
"128 128 17 1",
" 	c None",
".	c #000000",
"+	c #31291C",
"@	c #714308",
"#	c #52524C",
"$	c #8F4E00",
"%	c #735B30",
"&	c #8B6326",
"*	c #9D7A3C",
"=	c #7E807D",
"-	c #D17A07",
";	c #9A8B59",
">	c #D89634",
",	c #C29C4F",
"'	c #E6B95F",
")	c #F5E294",
"!	c #E9E6A7",
"                                                                                                                                ",
"                                                                                                                                ",
"                                                                                                                                ",
"                                                                                                                                ",
"                                                                                                                                ",
"                                                            .....                                                               ",
"                                                           .......                                                              ",
"                                                          ..+#+....                                                             ",
"                                                         ..==.......                                                            ",
"                                                        ..=+.........                                                           ",
"                                                       ..=....,.......                                                          ",
"                                                      ..=...+,,,.......                                                         ",
"                                                     ..=...+,,,*,.......                                                        ",
"                                                    ..=...+,,*,*,,.......                                                       ",
"                                                   ..=...+*$,,$$$,&+......                                                      ",
"                                                  ..=...+,,>;,,,,-,*.......                                                     ",
"                                                 ..=...+*,*,*,;,,-,>,.......                                                    ",
"                                                ..=...+>$,*!,,,,,,','$+......                                                   ",
"                                               ..=...+*,,,*$$,,''>)'!>$.......                                                  ",
"                                              ..=...+,>$**!),-,,>>','''*+......                                                 ",
"                                             ..=...+*,*,,,*,*')))---''',*+......                                                ",
"                                            ..=...+,>,;,;*!-',>''''>''-,>*+......                                               ",
"                                           ..=...+$,*,$,-*,!>)>'-'!')''''$,.......                                              ",
"                                          ..=...+,$,;*,,$),,->>)>''!'>')'>)*+......                                             ",
"                                         ..;...+$,,,,,*!,!,'''-''')'''!-->',!.......                                            ",
"                                        ..=...+,!*,*,$,,,--!'!'->--->-''!'',,,.......                                           ",
"                                       ..=...+*,,**$-*')>),)'''>''!'''-)'''-',$+......                                          ",
"                                      ..=...+!*,$,,*,-,>)>--'''''!''->')''>'>)!$.......                                         ",
"                                     ..=...+,,,,;,,,$,,-)>'>''''->->!-'))''''''),.......                                        ",
"                                    ..=...+&,$,*!;!,'''>!'''''!'--'>')'''>>-'),',>.......                                       ",
"                                   ..=...+,,$,*!*,)-,>'--'''''>'''--'>')>>''>''',>,.......                                      ",
"                                  ..=...+,*,$,;,,>$>!')>'!-'-'-'''''>>''''>-''>''',$+......                                     ",
"                                 ..=...+*,,!*,,!,--!>!-''>)'!'>'-''')'''>-'''>'>''',,.......                                    ",
"                                ..=...+,,$*;,*!,,,)>''>!>'-'->)!!'--)''-'''))'-!''>',,+......                                   ",
"                               ..=...+*-,$-$,,,,>>'-'>'''''''''')'---'-!')->-'')-->'->*.......                                  ",
"                              ..=...+,*,$,$,,,,'--''''''')'''''--'')>>'-')>'!'>)-!'!',>!.......                                 ",
"                             ..=...+!$,,$,;,!-!'>>!''''!')>>'--!-)'''!')'''--'>)-'''',',>.......                                ",
"                            ..=...+$!*!,$>,,,'>!'-)'->''>')''''!'''''''-'!-'>'''>-'''',-'*+......                               ",
"                           ..=...+,,*,**,!$'',!''-''!)'>-'-'''>!>''''!-''>)!)'!''''!-'>',!*+......                              ",
"                          ..=...+*,;,*,*,,,>-'>''')'>''>-''--)'-'-'')'''->>-''''>''''!-''!-*+......                             ",
"                         ..=...+*,,,!$,,)!'>!!''''>''-'>'>'''-'''''''---)->!)'>>''''-)>''',>*+......                            ",
"                        ..+#..+,,*,**$,$!,'>''-')''-')''>)'''))''))'''')')'-'''''-))''!'--'-,*+..+...                           ",
"                       ...=..+*,,**,>,','>!-!''>''-')'>'>''-'-'>'!-''>'''')-')'-)-'>'>'>'-!!-,*+..#...                          ",
"                      ...#=..,,*,,;,*,'!-!'!''>''>'-!-')'''')'!>)-'')'-'>-'''-!'>'->'-)>''''>')*..=....                         ",
"                      ...##...*,,*-,,,',')))'>!)'''->))-''>''-'-''''-'!>'>-'''')''--!'-)!'''>!,',.+#....                        ",
"                       ..+#....;,$$,!')'>''--'-)')''''-'''''>''>''-)'''''!>)-''>''''-'-))!'!'>'',%.=....                        ",
"                       ...+....+;,!,','''''''>')>!))'''>''''!>''-'>>>)''-'''>!>-)'>'''''>''''')>%.+=....                        ",
"                       .........+*,!>'''-')>!')'-'-'''''-'-'''''-'-->-''>''--''!>''->'>-'''!'''%..#=....                        ",
"                       ...........,>,''')'>-')>'''>!)>>')'')''')''''!'!''>)'-)'>)>)''>''''-'''%..###....                        ",
"                       ....+.......,,,'>>'')'>'>'>')>)-'--'-')-''-''>>-'-))>))'>-''''-'''>->';..###.....                        ",
"                       ....+%......+;>-,'')''>)'-)-'>!''''>'''-''-->''''>')''''!!')')-'''''>%..=#.......                        ",
"                       ....+%%......+*>''')'''')>!'-!-''>'!-!''''''')--)''>)>!')>'-''-''->>*.+=...+.....                        ",
"                       ....+@;++.....+$)-'->!')'!->'!''''!->'>'->-'-'>>''-'-'''-''''''')'-%.+=...+@.....                        ",
"                       .+..+%@%%.......$>,)>)')''->>'''>''''->')'')>>'>''-''>'''->''''-'-%.+=...+%%.....                        ",
"                       .#..+@@%@%......+*',>'''''''---)'-)'-'-)''->''>'''-'')>'-''-'''''%.+=...+$%%.....                        ",
"                       .#..+%@%@@%......+*','>''))-!'''''>'''''>-)>''>--''''>>''''>!!''%.+;...+%%%%.....                        ",
"                       .#..+@%%%%@%.......->,')''>''-''>')'>'))->-)''''>--')''''!-'-''@..!...+@&@@%.....                        ",
"                       .#..+&%%&@*@@.......>>,'')'')''!)-'---'!>'>-''''->)'->)''>>>-'@.+=...+@@%%%%.....                        ",
"                       .#..+%%@@&&%&@.......,>,'-->'-'>'')-)''>>)'-!'>''>)''>'''-)-'%.+=...+&&%;@%@.....                        ",
"                       .#..+&&%@%*$$*%......+,-,>)->''>''''')')>''')'''')---)''')'>;.+=...+%%%%@%%%.....                        ",
"                       .#..+%%;;&%*;%*%.......,'>)'''''!-'--->>>'''>'')')>''-''>'';.+=...+&*%%%@%%%.....                        ",
"                       .#..+%%%@&;*;*;*&......+$,,'-'>->'''''-''!'!>''>)!)-'''''';..=...+;%%@;%;@*%.....                        ",
"                       .#..+&@@%;&;$$*%*%......+,',-''''-''>')'''-'>'-->''''''>-%.+=...+&@%@%%@%@*%.....                        ",
"                       .#..+%%@@@$@*$;*%;@.......*!'>!''>!-)'''')'>''!-'''>''--;.+=...+@%%%%@%@&%$&.....                        ",
"                       .#..+*@%@*@;;&&$*&@%......+*)'-''''-!-''>!>>-'''-''''-'%.+=...+@@%;%%%&*&*&%..+..                        ",
"                       .#..+%&%%&$***$*;$*$%.......$,,-''-)!')'-!'''->)!''!''*..;...+%%@%@%*%%;&**%.....                        ",
"                       .#..+;%@*%*;;**$;*&%*%......+$'!,'-!>'''''!'''-'>>'>'%.+!...+&@&@%@%%;&@*$*%.....                        ",
"                       .#..+%@%@@;***;$$$*$&*@......+$'>---)''-!)->)'>''''-;..=...+%@%%%%%&**;$;***.....                        ",
"                       .#..+%%$%$&&;**@$;*;@*%%......+*!-!'>')-'>)-''''-')%.+=...+&&%@@%&@&%&$**&$*..+..                        ",
"                       .#..+%@@@&******$*&$$**&%.......,,''--''>'))'''!>-%..=...+&%%%@@@@&%***$&*;*..+..                        ",
"                       .#..+&%&%@@*&&**;&&&&&*$$%......+$--,-')----'-'>!%.+!...+@@%@%%%&&;**@*&*$*$..+..                        ",
"                       .#..+@%%@&@***$****;;$&**@%......+*,>''>))!)')'-&..=...+*@%%%%@@*%*&&$;&*&&*..+..                        ",
"                       .#..+@%%$@&*&;&;**!@;**&**&%......+,$''')>'''>'%.+=...+%%%@%@&%;%;$;***$***&..+..                        ",
"                       .#..+&&%%$***;**;*;&&$&**$&&%.......,,>''''->'&.+=...+%$%&%@@;*&*&***$;*&$$$..+..                        ",
"                       .#..+%%@&%$;*$*&;;***;**;&$@&@......+$,''>)''&.+=...+*@@;@@@%&@*;&$****$&*&*..+..                        ",
"                       .#..+%%%*%;&**&&;**$;*&**&&$&%%......+$,,)'-;.+=...+&%%%%%%;$%;$*&*;*****$;&..+..                        ",
"                       .+..+&@;;%**$$*$**&$*;*******$*@......+$',-%.+=...+&;%%%%&%%**&*;&**&&*;$***..+..                        ",
"                      ...+..@%%%;&****;**&*$*;**$&;&&@@%.......!-%.#;...+;%%%@%%%*;%*&**&&&*&$&****.#...                        ",
"                      .......%%@*;&$&$&&****&&;$;*@$*$$@%...+...%.##...+$%%@%;&%;*;*&***$*;$&;***$$.#...                        ",
"                       .......%%&%*;**;$***;$*&&**&;*&*&;;...##.......+*%%@%%@@*&@&$$$*;$&*$&***&*+.=...                        ",
"                        ......+@&;;$*$$&**$$*$$*$&*;***$$@@...#=+....+%%@%&@@@%***&**;********&**%.#....                        ",
"                         .......@&&&$$;*&*;**&**$*$;*$;*;&;%........+$@%%%@&@&@$@***$&;***;**;$*+.##....                        ",
"                          .......%&&@;;;;$*@**;***&$*&&*@&&@;......+%%@@@@%&%***&$@***&*&*&;&*$%.+=....                         ",
"                           .......%@**$*$$*$*&*&**$&**$&;&*@$+.....@@%@%@@%*;;$*****$*$*$***&*#.+=....                          ",
"                            ......+%@&&*$**&$$**&*&*****$&*;&%....+%%%%%%@&;*@&&******;*;$;*&#.+;....                           ",
"                             .......%&*@$**&&$$*$$***$&*!*;$&+....+%%%%&%*%*$&**;****&**&***@.+=....                            ",
"                              ......+@&$*;&***$*$****&&*%&*$$%....+&%%@%*@$&&&**;**@$&**&**+.+=....                             ",
"                               .......@&%$$***&*$$;***&**&&*;%.#..+%%%*%@$$&&;***;****&$*;@.+;....                              ",
"                                .......%*@&&**;*;*;&$&*&&*$$;+.#..+&@%%*&*$*&*;*$&***;$$*+..=....                               ",
"                                 .......%*$*&&@$$****;;*$*;;*#.#..+@%@%*@&;**;*$&*&&$&@$%.#=....                                ",
"                                  .......&%*$*$**;&*$***&$***@.#..+&@%%&&*$**$$*&*;*&**%..=....                                 ",
"                                   .......%*%$;*$&**&*$***$@$+.#..+%;%@&&&&&$&*&$&***$+.+=....                                  ",
"                                    .......%*$@$*$$****;$$$&*@.#..+%%%*;&&$$*;*;**&$*%.+=....                                   ",
"                                     .......@*%*$;**;***&***$+.#..+%%;%*$;*;*;$***$*+.+=....                                    ",
"                                      .......%;@$@****$*;**$$%.#..%%%%%&*****;;***&@.#=....                                     ",
"                                       .......&;*;***&*&*;&&&%.#..+%@%%;%*&&&****&%.+%....                                      ",
"                                        .......%;;$@***&*$*$&+.#..+%&%&&***&***&@%.+=....                                       ",
"                                         .......@%****$*$$&**%.#..+%@&&%*&$*$*&&%.+=....                                        ",
"                                          ......+%;;@&&***&&*+.#..+@%@%***$&$$*@.+=....                                         ",
"                                           .......%%*$****;*&%.#..+%%@%;***$&&+.+=....                                          ",
"                                            .......;&%***;;**+.#..+&%@@%&$&*;@.+=....                                           ",
"                                             .......%@*&$$*$$#.#..+%@&&%&&**+.+=....                                            ",
"                                              ......+@&%**&**%.#..+&%%%***$%.+=....                                             ",
"                                               .......%&*****+.#..+%%%&%&%@.+=....                                              ",
"                                                .......;%$&$$%.#..+&%*%*@%..=....                                               ",
"                                                 .......%*;&*+.#..+%%%&&+.+;....                                                ",
"                                                  .......%;&$@.=..+$@;%+.+=....                                                 ",
"                                                   .......@%&++=..+@%%%.+=....                                                  ",
"                                                    .......&$%#=..+%%+.#=....                                                   ",
"                                                     .......%%=#..+%%.#=....                                                    ",
"                                                      ...##++%=#..+@.#+....                                                     ",
"                                                       ....====#..+.......                                                      ",
"                                                        ....##=#+........                                                       ",
"                                                         .....+.........                                                        ",
"                                                          .............                                                         ",
"                                                           ...........                                                          ",
"                                                            .........                                                           ",
"                                                             .......                                                            ",
"                                                              .....                                                             ",
"                                                                                                                                ",
"                                                                                                                                ",
"                                                                                                                                ",
"                                                                                                                                ",
"                                                                                                                                ",
"                                                                                                                                ",
"                                                                                                                                ",
"                                                                                                                                ",
"                                                                                                                                "};
