/* XPM */
char * save_xpm[] = {
"128 128 17 1",
" 	c None",
".	c #000000",
"+	c #330201",
"@	c #620000",
"#	c #30312D",
"$	c #37360C",
"%	c #4E4C0F",
"&	c #4D4E4C",
"*	c #6A6915",
"=	c #686B69",
"-	c #89861C",
";	c #8C8E8B",
">	c #ADAA23",
",	c #C0C2C0",
"'	c #D5D7D5",
")	c #E8EFF8",
"!	c #FDFFFC",
"                                                                                                                                ",
"                                                                                                                                ",
"                                                                                                                                ",
"                                                                                                                                ",
"                                                                                                                                ",
"                                                                                                                                ",
"       .................................................................................................................        ",
"       ........####.........###########################################################################........###......        ",
"       ..;&........&==#................................................................................&==#.......#=....        ",
"       ..&..............................................................................................................        ",
"       .....$##$.$.#....#&&&&&&&&&&&&&&&&&&&&&&&&&&&&&&&&&&&&&&&&&&&&&&&&&&&&&&&&&&&&&&&&&&&&&&&&&&&&&=#.....++++++.....        ",
"       .....%%%%%%%$....&,',,',',',',',','',',','',',',',',',',','',',','',',',',',',',','',',',','',,,&....#,@=@&@.....        ",
"       .....%$%%%%%$....&,,,,,,,,',,,',,,,,,',,,,,,',,,',,,',,,,,,,,',,,,,,',,,,,',,,',,,,,,',,,,,,,',,&....+@@@@@@.....        ",
"       .....%%%$%%%$....&,,,,,,',,'',,'','',,'','',,'',,'',',''','',,'','',,''',','',,'','',',''''',,''&.#.#+=@@@@@.....        ",
"       .....%%%%%%%$.#..&,,,,',''''')''''''''''''''''''''''''''''''''''''''''''''''')''''''''''''''''''=.&..+@@@@@@.....        ",
"       .....%%%%%%%$.#..&,,,,''))))'')')))))))))))))))))'))))'))))))))))))))'))))))''))')))))')')')))')&.&..+=@@@@@.#...        ",
"       ....$%%%%%*%$.#..&,,,''''!')!)!'!'!'!'!'!'!'!'!)!'!')!'!'!'!'!'!'!'!)!'!'!')!!'!!'!'!)!)!)!'!)!)=.&..+@@@@@@.=...        ",
"       .....%%%%*%*$.#..&,,,'))!)!!)!!!!!!!!!)!!!!!)!'!)!!!)!)!!!!!)!!!!!!'!!!!)!!!)!!!)!)!!!'!)!!!)!!!=.&#.+++++++.;...        ",
"       .....%%%%%**$.#..&,,,,')')))')))))))'))))')))))))'))))'))))'))))'))))))'))'))))'))'))))')')))'))&..=.......#==...        ",
"       .....%*%%*%*$.#..&,,,,,))))))))))))))))))))))))!))))))))))))))))))))))))))))))))))))))))))))))))=..=....#==;;....        ",
"       ....#%%%%***$.#..&,,,)'!)!!!!!!!!!!!!!!!!!!!!!!!!!!!!!!!!!!!!!!!!!!!!!!!!!!!!!!!!!!!!!!!!!!!!!!!=..#.............        ",
"       .....%%%%*%*$.#..&,,,')'!!!!!!!!!!!!!!!!!!!!!!!!!!!!!!!!!!!!!!!!!!!!!!!!!!!!!!!!!!!!!!!!!!!!!!!!=................        ",
"       ....$%*%%%**$.#..&'',''!!!!!!!!!!!!!!!!!!!!!!!!!!!!!!!!!!!!!!!!!!!!!!!!!!!!!!!!!!!!!!!!!!!!!!!!!=....#.$##$......        ",
"       .....%%%*%**$.#..&,,'''!!!!!!!!!!!!!!!!!!!!!!!!!!!!!!!!!!!!!!!!!!!!!!!!!!!!!!!!!!!!!!!!!!!!!!!!!=....$%%%%%%.....        ",
"       .....*%%****$.#..&','')'!!!!!!!!!!!!!!!!!!!!!!!!!!!!!!!!!!!!!!!!!!!!!!!!!!!!!!!!!!!!!!!!!!!!!!!!=.#..$%%%%%%.....        ",
"       ....#%%%%%**$.#..&,,,'')!!!!!!!!!!!!!!!!!!!!!!!!!!!!!!!!!!!!!!!!!!!!!!!!!!!!!!!!!!!!!!!!!!!!!!!!=.#..$%%%%*%.....        ",
"       .....*%*%***$.&..&,,,,)'))))))))))))))))))))))))))))))))))))))))))))))))))))))))))))))))))))))))=.&..$%%%%%%.....        ",
"       ....#%%*%***$.#..&,,,,''))))))))))))))))))))))))))))))))))))))))))))))))))))))))))))))))))))))))=.&..$%%*%**.....        ",
"       .....*%%****%.#..&,,')))!!!!!!!!!!!!!!!!!!!!!!!!!!!!!!!!!!!!!!!!!!!!!!!!!!!!!!!!!!!!!!!!!!!!!!!!=.&..$*%%%*%.....        ",
"       .....*%%%***$.#..&',,''!)!!!!!!!!!!!!!!!!!!!!!!!!!!!!!!!!!!!!!!!!!!!!!!!!!!!!!!!!!!!!!!!!!!!!!!!=.&..$%%****.....        ",
"       ....#%%**%**%.#..&',,''!!!!!!!!!!!!!!!!!!!!!!!!!!!!!!!!!!!!!!!!!!!!!!!!!!!!!!!!!!!!!!!!!!!!!!!!)=.&..$*%%*%*.....        ",
"       ....#*%%****$.#..&,,'''!)!!!!!!!!!!!!!!!!!!!!!!!!!!!!!!!!!!!!!!!!!!!!!!!!!!!!!!!!!!!!!!!!!!!!!!!=.&..$%*%***.....        ",
"       .....*%**%**%.#..&','''!!!!!!!!!!!!!!!!!!!!!!!!!!!!!!!!!!!!!!!!!!!!!!!!!!!!!!!!!!!!!!!!!!!!!!!!!=.&..$%*%***.....        ",
"       ....#%*%****$.#..&',,''!)!!!!!!!!!!!!!!!!!!!!!!!!!!!!!!!!!!!!!!!!!!!!!!!!!!!!!!!!!!!!!!!!!!!!!!!=.&..$**%***.....        ",
"       .....*%****-$+#..&,,,,)'))))))))))))))))))))))))))))))))))))))))))))))))))))))))))))))))))))))))&.&..$%%****.....        ",
"       ....#*%%****$.#..&,,,,''))))))))))))))))))))))))))))))))))))))))))))))))))))))))))))))))))))))))=.&..$%*%***.....        ",
"       .....*%****-%.#..&,,,)))!!!!!!!!!!!!!!!!!!!!!!!!!!!!!!!!!!!!!!!!!!!!!!!!!!!!!!!!!!!!!!!!!!!!!!!!=.&..$*%****.....        ",
"       ....#**%***-$.#..&,,,'''!!!!!!!!!!!!!!!!!!!!!!!!!!!!!!!!!!!!!!!!!!!!!!!!!!!!!!!!!!!!!!!!!!!!!!!!=.&..$%*%***.....        ",
"       .....*%*****%.#..&',''!)!!!!!!!!!!!!!!!!!!!!!!!!!!!!!!!!!!!!!!!!!!!!!!!!!!!!!!!!!!!!!!!!!!!!!!!!=.&..$******.....        ",
"       .....**%**-*%.#..&',,''!!!!!!!!!!!!!!!!!!!!!!!!!!!!!!!!!!!!!!!!!!!!!!!!!!!!!!!!!!!!!!!!!!!!!!!!!=.&..$*%****.....        ",
"       ....#*%****-%.#..&,','')!!!!!!!!!!!!!!!!!!!!!!!!!!!!!!!!!!!!!!!!!!!!!!!!!!!!!!!!!!!!!!!!!!!!!!!!=.&..$*%**-*.....        ",
"       ....#*******%.#..&,,'''!!!!!!!!!!!!!!!!!!!!!!!!!!!!!!!!!!!!!!!!!!!!!!!!!!!!!!!!!!!!!!!!!!!!!!!!!=.&..$******.....        ",
"       .....*%**-*-%.#..&,,,,)'))))))))))))))))))))))))))))))))))))))))))))))))))))))))))))))))))))))))&.&..$**%*-*.....        ",
"       ....#*****-*%.#..&,,,,''))))))))))))))))))))))))))))))))))))))))))))))))))))))))))))))))))))))))=.&..$******.....        ",
"       .....*%****-%.#..&,,,')))!!!!!!!!!!!!!!!!!!!!!!!!!!!!!!!!!!!!!!!!!!!!!!!!!!!!!!!!!!!!!!!!!!!!!!!=.&..$****-*.....        ",
"       ....#****-*-%.#..&',,''!!!!!!!!!!!!!!!!!!!!!!!!!!!!!!!!!!!!!!!!!!!!!!!!!!!!!!!!!!!!!!!!!!!!!!!!!=.&..&*****-.....        ",
"       ....#*%***--$.&..&','''!!!!!!!!!!!!!!!!!!!!!!!!!!!!!!!!!!!!!!!!!!!!!!!!!!!!!!!!!!!!!!!!!!!!!!!!!=.&..$****-*.....        ",
"       ....#*****--%.#..&,,'')'!!!!!!!!!!!!!!!!!!!!!!!!!!!!!!!!!!!!!!!!!!!!!!!!!!!!!!!!!!!!!!!!!!!!!!!!=.&..$*****-.....        ",
"       .....****-*-%.#..&',,''!)!!!!!!!!!!!!!!!!!!!!!!!!!!!!!!!!!!!!!!!!!!!!!!!!!!!!!!!!!!!!!!!!!!!!!!!=.&..%****-*.....        ",
"       ....#****-*-%.#..&,,''')!!!!!!!!!!!!!!!!!!!!!!!!!!!!!!!!!!!!!!!!!!!!!!!!!!!!!!!!!!!!!!!!!!!!!!!!=.&..$****-*.....        ",
"       .....****---%.#..&,,,,')')))))))))))))))))))))))))))))))))))))))))))))))))))))))))))))))))))))))&.&..%***--*.....        ",
"       ....#*****--%.#..&,,,,')))))))))))))))))))))))))))))))))))))))))))))))))))))))))))))))))))))))))=.&..$****--.....        ",
"       ....+**-*---%.#..&,,')')!!!!!!!!!!!!!!!!!!!!!!!!!!!!!!!!!!!!!!!!!!!!!!!!!!!!!!!!!!!!!!!!!!!!!!!!=.&..%***-*-.....        ",
"       ....#*****--%.#..&,,,')'!!!!!!!!!!!!!!!!!!!!!!!!!!!!!!!!!!!!!!!!!!!!!!!!!!!!!!!!!!!!!!!!!!!!!!!!=.&..%***-*-.....        ",
"       ....#***----%.#..&','''!)!!!!!!!!!!!!!!!!!!!!!!!!!!!!!!!!!!!!!!!!!!!!!!!!!!!!!!!!!!!!!!!!!!!!!!!=.&..$**-*--.....        ",
"       ....#****---%.#.+&,,,''!!!!!!!!!!!!!!!!!!!!!!!!!!!!!!!!!!!!!!!!!!!!!!!!!!!!!!!!!!!!!!!!!!!!!!!!!=.&..%***-*-.....        ",
"       ....#**-*---%.&..&','')'!!!!!!!!!!!!!!!!!!!!!!!!!!!!!!!!!!!!!!!!!!!!!!!!!!!!!!!!!!!!!!!!!!!!!!!!=.&..%**-*--.....        ",
"       ....#-***---%.#..&,',''!!!!!!!!!!!!!!!!!!!!!!!!!!!!!!!!!!!!!!!!!!!!!!!!!!!!!!!!!!!!!!!!!!!!!!!!!=.&..%**-*--.....        ",
"       .....-*-*---*.#..&,,,,)')))'))))))))))))))))))))))))))))))))))))))))))))))))))))))))))))))))))))&.&..%***---.....        ",
"       ....#***----%.#..&,,,,''))))))))))))))))))))))))))))))))))))))))))))))))))))))))))))))))))))))))=.&..$-*-*--.....        ",
"       ....#-*-*---*.#..&,,,'))!!!!!!!!!!!!!!!!!!!!!!!!!!!!!!!!!!!!!!!!!!!!!!!!!!!!!!!!!!!!!!!!!!!!!!!!=.&..%*-*---.....        ",
"       ....+-*-----%.#..&','')'!!!!!!!!!!!!!!!!!!!!!!!!!!!!!!!!!!!!!!!!!!!!!!!!!!!!!!!!!!!!!!!!!!!!!!!!=.&..%***---.....        ",
"       ....#**-*---*.#..&',,''!!!!!!!!!!!!!!!!!!!!!!!!!!!!!!!!!!!!!!!!!!!!!!!!!!!!!!!!!!!!!!!!!!!!!!!!!=.&..%*-*---.....        ",
"       ....#-*-----%.#..&,,''')!!!!!!!!!!!!!!!!!!!!!!!!!!!!!!!!!!!!!!!!!!!!!!!!!!!!!!!!!!!!!!!!!!!!!!!!=.=..%-*----.....        ",
"       .....-*-*-->%.#..&',,'!)!!!!!!!!!!!!!!!!!!!!!!!!!!!!!!!!!!!!!!!!!!!!!!!!!!!!!!!!!!!!!!!!!!!!!!!!=.=..%**-*--.....        ",
"       ....#-*---->%.##.&','''!)!!!!!!!!!!!!!!!!!!!!!!!!!!!!!!!!!!!!!!!!!!!!!!!!!!!!!!!!!!!!!!!!!!!!!!)=&&..%*-----.....        ",
"       ....#*-*--->%..=..##.###########################################################################.;...%-*----.....        ",
"       ....#-*-----*..#...............................................................................===...$-*----.....        ",
"       .....--*-->>%........##&##&##&#&##&##&##&###&##&##&##&##&##&#&##&#&###&#&##&###&##&##&##&##&#&#......%*-*->-.....        ",
"       ....#*----->%........................................................................................%*-----.....        ",
"       ....$*-*--->-%......................................................................................%**-----.....        ",
"       ....#----->->--**************************************************************************************-**-->-.....        ",
"       ....#*---->->>->---**-*-*-*-*-*-*-*-**-*-*-*-*-*-*-*-*-*-*-*-*-*-*-*-*-*-*-*-*-*-*-*-*-*-*-*-*-*--*-*------>.....        ",
"       ....#-*--->->>->-----*-----*---*-------*---*---*---------*----*-----*----*---*------------*-----*----*--->--.....        ",
"       ....#----->>->>->-------*---------------------------*---------------------------*----*-------------------->-.....        ",
"       ....#*----->>->>->------------------------------------------------------------------------------------>->->>.....        ",
"       ....$----->>>>>>>>->>->>>->>->->->->->->->->->->->->->->>->->->->->->->->->->->>->->->->->->->->->->->->>>>-.....        ",
"       ....#*---->->>->>>->>>->>-*---------------------------*-----------------------*---------->->>>->>>->>->>->>>.....        ",
"       ....#---->->>>>>>>>>>->>>#..............................................................#>>>->>>->>>>>>>>>>-.....        ",
"       ....#---->->>>>->>>>>>->$.;&&&&&&&&&&&&&&&&&&&&&&&&&&&&&&&&&&&&&&&&&&&&&&&&&&&&&&&&&&&#..=->>>>>>>>>>>->>>>>.....        ",
"       ....$*---->>->>>>>>>>>>>%.&..............................................................%>->->>>>->>>>>>>>>.....        ",
"       ....#------>>>>>>>>>>>>>%.&..............................................................$>->>->>>>>>>>>>>>>.....        ",
"       ....#---->>>>>>>>>>>>>>>%.#.....###########.###..........................................$->->>>>>>>>>>>>->>.....        ",
"       ....#---->->>>>>>>>>>>>>%.#.....;,,,,,,,,,'',,'=.#.......................................&--->->>>>>>>>>>>>>.....        ",
"       ....#----->>>>>>>->>>>>>$.&.....=,,,,,,,,,,,',,=.#.......................................$-->->>>>>->>>>>>>>.....        ",
"       ....#---->->>>>>>>>>>>>>%.#.....=,;,,,,',',,','=.&.......................................&--,>->>>>>>>>>>>>>.....        ",
"       ....$---->>>>>>>>>>>>>>>%.#.....=,,;',,','',','=.#.......................................$--->>>>>>>>>>>>>>>.....        ",
"       ....#--->,>>>>>>>>>>>>>>%.#.....=;,,,','')'''''=.&.......................................$----->>>>>>>>>>>>>.....        ",
"       ....#---->>>>>>>>>>>>>>>%.&.....;;,;,'''''')'')=.&.......................................$--->>>>>>>>>>>>>>>.....        ",
"       ....#----->>>>!>>>>>>>>>%.#.....=;,,,,'''''''''=.#.......................................$---->>>!>>>>>>>>>>.....        ",
"       ....$--->>>>>>>>>>>>>>>>%.&.....=;,;,,,),)'''''=.&.......................................$-->->>>>>>>>>>>>>>.....        ",
"       ....#----->>>>>>>>>>>>>>%.#.....=;;,,,,',,','''=.&.......................................&--->>>>>>>>>>>>>>>.....        ",
"       ....#--->->>>>>>>>>>>>>>%.#.....=;,;,,,',',',',=.#.......................................$--->>>>>>>>>>>>>>>.....        ",
"       ....#---->>>>>>>>>>>>>>>%.&.....=;;,;,,,,,,,,,,=.&.......................................&---->>>>>>>>>>>>>>.....        ",
"       ....$--->->>>>>>>>>>>>>>%.#.....=;;;,,,,,,,,,,,=.&.......................................$-->->>>>>>>>>>>>>>.....        ",
"       ....#---->>>>>>>>>>>>>>>%.&.....&;;;;,;,,,,,,,,=.#.......................................&--->>>>>>>>>>>>>>>.....        ",
"       ....#--->->>>>>>>>>>>>>>%.#.....=;;;;;,,;,;,;,;=.&.......................................$--->>>>>>>>>>>>>>>.....        ",
"       ....#--->>>>>>>>>>>>>>>>%.#....+&=;;;;;,;,;,;,,&.&.......................................&--->>>>>>>>>>>>>>>.....        ",
"       ....$---->>>>>>>>>>>>>>>%.&.....&;=;;;,;,;,;,;;&.#.......................................$---->>>>>>>>>>>>>>.....        ",
"       ....#---->>>>>>>>>>>>>>>%.#.....&=;;;;;;;;;;;;,&.&.......................................#->,>>>>>>>>>>>>>>>.....        ",
"       ....$---->>>>>>>>>>>>>>>%.&.....&==;;;;;,;,;;;;&.&.......................................#--->>>>>>>>>>>>>>>.....        ",
"       ....#---->>>>>>>>>>>>>>>%.#....+&===;;;;;;;;,;;&.&.......................................$--->>>>>>>>>>>>>>>.....        ",
"       ....#--->->>>>>>>>>>>>>>%.#.....&====;=;;;;;;;;&.#.......................................$--->>>>>>>>>>>>>>>.....        ",
"       ..&.#---->>>>>>>>>>>>>>>%.#.....&&===;=;;=;=;;=&.&.......................................$--->>>>>>>>>>>>>>>.....        ",
"       ..#..#--->>>>>>>>>>>>>>>%.&.....&&&====;=;=;==;&.&.......................................$---->>>>>>>>>>>>>>.....        ",
"       ......#>;>>>>>>>>>>>>>>>%.#.....+&=&=====;=====#.#.......................................&--->>>>>>>>>>>>>>>.....        ",
"       .......#->>>>>>>>>>>>>>>%.&.....&&&========;==;#.&.......................................$-->->>>>>>>>>>>>>>.....        ",
"        .......#->>>>>>>>>>>>>>%.#.....&&&&&==========#.#.......................................&--->>>>>>>>>>>>>>>.....        ",
"         .......#->>>>>>>>>>>>>%.&.....#&&&&====&=====#.&.......................................$--->>>>>>>>>>>>>>>.....        ",
"          .......#>>>>>>>>>>>>>%.#.....+&&&&&&=&=&&&&=#.&.......................................&--->>>>>>>>>>>>>>>.....        ",
"           .......#->>>>>>>>>>>%.#.....&+&&&&&=&====&&#.#.......................................$---->>>>>>>>>>>>>>.....        ",
"             ......#>>>>>>>>>>>%.&.....#&=+&&&&&&&&&=&#.&.......................................&--->>>>>>>>>>>>>>>.....        ",
"              ......#->>>>>>>>>%.#.....###&&&&&&&&&&&&#&&.......................................$-->->>>>>>>>>>>>>>.....        ",
"               ......#>>>>>>>>>%.#........+.+.+.+.....#;#.......................................&--->>>>>>>>>>>>>>>.#...        ",
"                ......#->>>>>>>%.&.......#..#..#.#.##==&........................................$-->>>>>>>>>>>>>>>>.;...        ",
"                 ......#=%=%%%%#.#.......##.####.#.#.##.........................................#&$&%=%%*=*%%*%%%%$#=...        ",
"                 ................#..........................................................................#..#..==&...        ",
"                   ......##&&&&#.#...............................................................&#&&&&&&&&&&&&&==&.....        ",
"                    ....................................................................................................        ",
"                     ...................................................................................................        ",
"                      ................................................................................................          ",
"                                                                                                                                ",
"                                                                                                                                ",
"                                                                                                                                ",
"                                                                                                                                ",
"                                                                                                                                ",
"                                                                                                                                ",
"                                                                                                                                "};
