/* XPM */
char * saveas_xpm[] = {
"128 128 17 1",
" 	c None",
".	c #000000",
"+	c #760000",
"@	c #60070B",
"#	c #30312D",
"$	c #37360D",
"%	c #4E4C0F",
"&	c #4C4E4B",
"*	c #974343",
"=	c #6A6915",
"-	c #6D6968",
";	c #89861D",
">	c #B37778",
",	c #A19D9E",
"'	c #ADAB23",
")	c #C9CCCB",
"!	c #F0F3F2",
"                                                                                                                                ",
"                                                                                                                                ",
"                                                                                                                                ",
"                                                                                                                                ",
"                                                                                                                                ",
"                                                                                                                                ",
"       .................................................................................................................        ",
"       ........####.........###########################################################################........###......        ",
"       ..-&........&--#................................................................................&--#.......#-....        ",
"       ..&..............................................................................................................        ",
"       .....$#$.$.#.....#&&&&&&&&&&&&&&&&&&&&&&&&&&&&&&&&&&&&&&&&&&&&&&&&&&&&&&&&&&&&&&&&&&&&&&&&&&&&-&#.....#@..@......        ",
"       .....%%%%%%%$....&))))))))))))))))))))))))))))))))))))))))))))))))))))))))))))))))))))))))))))))&....*-****@.....        ",
"       .....%%%%%%%$....&),))))))))))))))))))))))))))))))))))))))))))))))))))))))))))))))))))))))))))))&....@&@@@@@.....        ",
"       .....%%$%%%%$....&),),))))))))))))))))))))))))))))))))))))))))))))))))))))))))))))))))))))))))))&.#..@*@@@@@.....        ",
"       .....%%%%%%%$.#..&)),)))))))))))))))))))))))))))))))))))))))))))))))))))))))))))))))))))))))))))-.#...*@@+@+.....        ",
"       .....%%%%%%%$.#..&,))))!)!!!!!!!!!!!!!!!!!!!!!!!!!!!!!!!!!!!!!!!!!!!!!!!!!!!!!!!!!!!!!!)!!!!!!!!-.&..@*@@++@.#...        ",
"       ....$%%%%%=%$.#..&)))))!!!!!!!!!!!!!!!!!!!!!!!)!!!!!!)!!!!!!!!!!!!!!!!!!!!!!!!!!!!!!!!!!!!!!!!!!&.-...@@+@++.-...        ",
"       .....%%%%%==$.#..&)))))!!!!!!!!!!!!!!!!!!!!!!!!!!!!!!!!!!!!!!!!!!!!!!!!!!!!!!!!!!!!!!!!!!!!!!!!!-.##...@@@.@.-...        ",
"       .....=%%=%==$.#..&,),))))!!!)!!)!!)!!)!!)!!)!!!!)!!!!!!!!!)!!)!!)!!)!)!)!!)!!!)!!)!!!!!!)!)!)!!!&..-........--...        ",
"       .....%%%%=%=$.#..&)))))!!!!!!!!!)>********>>))!!!!!!!!!!!!!!!!!!!!!!!>>******>>)!!>***!!!!!!!!!!-..-....#-,-,#...        ",
"       ....#%%%%=%=$.#..&))))!!!!!!!>>++++++++++++++*>)!!!!!!!!!!!!!!!!!!!>++++++++++++**++++)!!!!!!!!!-..#.............        ",
"       .....%%%%%==%.#..&))))!!!!!!>+++++++++*>>*++++++)!!!!!!!!!!!!!!!!)*+++++++++>>>*++++@+!!!!!!!!!!-................        ",
"       ....$%%=%=%=$.#..&)))))!!!)*+++++++++*+++>>*++@++)!!!!!!!!!!!!!!)+++*++++*+++++>>*+++@)!!!!!!!!!-.....$.$.$#.....        ",
"       .....=%%%===$.#..&))))!!!!++++*+++*,)))*+++>*+++@+)!!!!!!!!!!!!!+++>+++>))!)>++++>++@+)))!!!!!!!-....$%%%%%%.....        ",
"       .....%%=%===$.#..&))))!!!*++*>+++*,)))))>+++**++@+>)!!!!!!!!!!!*++>+++>)))))))*++++++@)))!!!!!!!-.#..$%%%%%%.....        ",
"       .....=%%%%==%.#..&))))!!>+++>+++@))))))))*+++*+++@*))!!!!!!!!!!++*>++-))))))!))>++++@@)))!!!!!!!-.#..$%%%%%%.....        ",
"       ....#%%=====$.#..&,,)))!*++*>++@*,,,))))),+++++++@@))))!)!!!!!>++>+++,,,,)))))),@++++@,))))!!!!!-.&..$%%%=%%.....        ",
"       .....%=%%%==$.#..-)))))!+++**++@*),))))))!++++++@+@,))!!!!!!!!*++>++@,))))))))!!>@++@+,,))!)!!!!-.&..$=%%%==.....        ",
"       ....#%%%====%.#..&))))!!++++++@@@))))!!!!!*+++++++@,)))!!!!!!!+++>+++>,)))!!!!!!!@+++@)))!!!!!!!-.&..$%=%=%%.....        ",
"       .....=%=%===$.#..-,)))!!++++++@@*,)))!!!!!>++++++@@>))!!!!!!!!+++>++@@)))!!!!!!!!>++++,)))!!!!!!-.&..$=%%===.....        ",
"       ....#%=%====%.#..&))))!!++++++@@@)))!!!!!!>++**+++@,)))!!!!!!!+++*+++@*)))!!!!!!!)@+@@)))!!!!!!!-.&..$%%====.....        ",
"       .....=%%%===%.#..&))))!!>+++@@@@,,)))!!!!!>++**+@+@>)))!!!!!!!+++*++++@*)!!!!!!!!!+@++))))!!!!!!-.&..$=%%%==.....        ",
"       .....=%=====$.#..&))))!!)*@@@+@*,))!!!!!!!*+*>++++@,))!!!!!!!!++++++++++@>!!!!!!!!)>>>)))!!!!!!!-.&..$=%====.....        ",
"       .....=%%====%.#..&)))))!!!,,>,,)))))!!!,*++*>>++++@>)))!!!!!!!>+++++++++++@>)!!!!!!!))))!)!!!!!!-.&..$%=%===.....        ",
"       ....#=%=====%.#..&,))))!)!))),),,))))*+++*>*>*++@@@>,)))!!!!!!,++++++++++++++>)!!)!)))))))!!!!!!-.&..$=%=%==.....        ",
"       .....=%%====$.#..&),)))!!!!)))))))>*++>>>**++*+++@@-)))))!!!!!!*++++++++++@+++@>))!!!!)!)!)!!!!!-.&..$=%====.....        ",
"       ....#=%===;=%.#..&))))!!!!!!!!!)>+++>*++++++++++++@>)))!!!!!!!!)+++++++++++++++++*!!)!!!!!!!!!!!-.&..$%=%===.....        ",
"       .....=%%====%.#..&)))))!!!!!!!>*++**++++*)>++++++@@,))!!!!!!!!!!)@+++++++++++++++@+>!!!!!!!!!!!!-.&..$%=====.....        ",
"       ....#=%===;=%.#..&))))!!!!!!)*++**++++>)))>+++++++@>,))!!!!!!!!!!)*@++++++++++++++@@*)!!!!!!!!!!-.&..$=%====.....        ",
"       .....=======%.#..&))))!!!!!>+++*++++*,))))>+++++++@,)))!!!!!!!!!!!!>@@+++++++++++++++*)!!!!!!!!!-.&..$======.....        ",
"       ....#=%===;;%.#..&))))!!!!*+++>+++@,))))))>+++*++@@>))!!!!!!!!!!!!!))>@+++++++++++++++*)!!!!!!!!-.&..$=%===;.....        ",
"       .....=%=====%.#..&))))!!!*+++>++@*,))))))!>+++*+++@,,))!!!!!!!!!!!!!!))>@@+++++++++++@@>!!!!!!!!-.&..$======.....        ",
"       ....#=====;=%.#..&,,)))!>+++>+++@,),),))))>+++*++@+-))))!)!!!!!!!!)!)))))>@@++++++++++@+,)!)!!!!&.&..$=====;.....        ",
"       .....=%====;%.#..-),))),+++>+++@>,),)))))!>+++*+++@>,)))!!!!!!),)))!!!)))))>+++++++++++@>))!)!!!-.&..$%=====.....        ",
"       ....#====;=;%.#..&))))!*++*>++@@))))))!!!!>+++*++@@,)))!!!!!!!*+++!!!!!!)))),*++++++++@@*)!!!!!!-.&..$====;=.....        ",
"       ....#%===;=;%.#..&))))!+++>*++@*),)))!!!!!>+++*+++@>)))!!!!!!!*+++)!!!!!!!!!))*+++++++@@*)))!!!!-.&..$====;=.....        ",
"       ....#==%==;;%.#..&))))>+++*+++@-,)))!!!!!!>+++*++@@,,!)!!!!!!!**++>)!!!!!!!!!)!*+++++++@@)))!!!!-.&..$=====;.....        ",
"       ....#======;%.#..&)))!)+++>++++*))))!!!!!!>++**+++@>)))!!!!!!!*+*+@))!!!!!!!!!!!++++++@@*)))!!!!-.&..$====;=.....        ",
"       .....====;;=%.#..&)))),+++*+++@@,)))!!!!!!>+*>*++++,)))!!!!!!!*+>++>!)!!!!!!!!!)>++++++@@)))!!!!-.&..$====;=.....        ",
"       ....#=====;;%.#..-)))!)+++++++++>))!!!!!!+++*>+++++>))>++>!!!!*+>++@))!!!!!!!!!!)+++++@@>))!)!!!-.&..$===;=;.....        ",
"       .....===;;;;%.#..&,),))++++*++++@,)))!)>+++>>>++++@*,>+++>!)!!*+**++*)))!!!!!!!)>+++++@@-,,))!)!-.&..%====;=.....        ",
"       ....#=====;;%.#..&))))!+++++++++++>))>*++>****+++++@*+++@>)!)!*++>++@>)))!)!!!!!*+*++@@@,))))!!!-.&..$====;;.....        ",
"       ....#====;;;%.#..&))))!*+++++++++++++++>>+++++++++++++++@))!!!*++>++++*,!!!!!!!>+*+++@@-))))!!!!-.&..%==;=;=.....        ",
"       ....#==;==;;%.#..-,)))!)+++++++++++++++++++++++++++++@@@>)))!!*+++++++++>)!!!!>+*+++@@*,))))!!!!-.&..$====;;.....        ",
"       ....#===;;;;%.#..&))))!!*++++++++++++++++,)+++++++++@@@>))!)!!*+++++++++++*****>+++@@*)))))!!!!!-.&..%==;=;;.....        ",
"       ....#====;;;%.#..&))))!!)*+@+++++++++++*>))+++++++@@+@-)))))!!*+++@+@++++++*>>+++++@-,),)))!!!!!-.&..%==;=;;.....        ",
"       .....;==;;;;%.#..&))))!!!)>@@@@@+@@@@@>,))),@+@@@@@@@,),)))!)!*@@+@@@@++++++++++@@>,)),))!!!!!!!-.&..%====;;.....        ",
"       ....#;===;;;%.#..&)))))!!!),>@@@@@@@>,)))))),-*@*@*,)))))))!!!>>>>))>-**@+++++@*>,,)))))))!!!!!!-.&..%==;=;;.....        ",
"       .....=;=;;;;=.#..&,),)))!)!))),,,),),,,),)))))),),),,,)))))!)!!))))),),))))))))),)),)))))!)!!!!!-.&..%=;=;;;.....        ",
"       ....#;==;;;;%.#..&)))))!!!!))))),)),))))))))))))))))))))))!!!!!!!)))))),),),),)))))))))!)!!!!!!!-.&..%==;=;;.....        ",
"       .....;=;=;;;=.#..&))))!!!!!!!!!)))))))))!!!!!!!))))))))!!!!!!!!!!!!)))!)!))))))))))))!!!!!!!!!!!-.&..%==;;;;.....        ",
"       ....#==;;;;;%.#..&)))))!!!!!!!!!!!!)!!!)!!!!!!!!!!)!!!!!!!!!!!!!!!!!!!!)!!!!!)!)!)!!!!!!!!!!!!!!-.&..%===;;;.....        ",
"       ....#=;=;;;'%.#..&)))!!!!!!!!!!!!)!!!!!!!!!!!!!!!!!!!!!!!!!!!!!!!!!!!!!!!!!!!!!!!!!!!!!!!!!!!!!!-.&..%;=;;;;.....        ",
"       ....#;==;;;;=.#..&))))!!!!!!!!!!!!!!!!!!!!!!!!!!!!!!!!!!!!!!!!!!!!!!!!!!!!!!!!!!!!!!!!!!!!!!!!!!-.-..$;==;;;.....        ",
"       .....;=;;;;'%.#..&))))!!!!!!!!!!!!!!!!!!!!!!!!!!!!!!!!!!!!!!!!!!!!!!!!!!!!!!!!!!!!!!!!!!!!!!!!!!-.-..%=;=;;;.....        ",
"       ....#=;=;;;;=..#.&))))!!!!!!!!!!!!!!!!!!!!!!!!!!!!!!!!!!!!!!!!!!!!!!!!!!!!!!!!!!!!!!!!!!!!!!!!!!-&-..%;=;;;;.....        ",
"       ....#;=;;;;'%..-..##.###########################################################################.-...%=;=;;;.....        ",
"       .....;=;;;;;=..#...............................................................................&,-...%=;;;;;.....        ",
"       ....#;;=;;';=........####&#&#&#&###&#&##&##&#&#&#&#&#&#&#&#&##&##&#&#&#&#&##&##&#&#&##&#&#&#&&#......%;=;;;;.....        ",
"       .....;=;;;;'%........................................................................................$;=;;';.....        ",
"       ....$=;;;;';;%......................................................................................%=;=;;;;.....        ",
"       ....#;=;;;';''=;=====================================================================================;=;;;';.....        ",
"       .....;;;;;;';';';;;==;=;=;=;;=;=;=;=;=;=;=;=;=;;=;=;=;;=;=;=;=;=;=;=;=;=;=;=;=;=;;=;=;=;=;=;=;;=;=;=;=;;;;;;.....        ",
"       ....#;=;;;';'';';;;;;=;;;=;;=;;;;;;;;;;;;;=;;;;=;;;;;=;;=;;;;;;;=;;;;;;;;;;;;=;;;=;;;;;=;;;;;;;;;;;;;=;;;';'.....        ",
"       ....#;;;;;'''';';;;;;;;;;;;;;;;;;;;=;;;;;;;;;=;;;;;;;;;;;;;;;;;;;;;;=;;;;;;;;;;;;;;;;;;;;=;;;;;;=;;;;;;;;';;.....        ",
"       ....#=;;;;;';'''';';;;;;;;;;;;;;;;;;;;;;;;;;;;;;;;;;;;;;;;;;;;;;;;;;;;;;;;;;;;;;;;;;;;;;;;;;;;;;;;;;;;;;';''.....        ",
"       ....$;;;;;''''';'';';';'';';';';';';';;';';'';';';';'';';';';';';';';';';';';';';';';';'';';';';';';'';'''';.....        ",
"       ....#;;;;;;';''';'''''';';;;;;=;;;;;;;;;;;=;;;;=;;;;=;;;;;;;=;;;;;;;;;;;;;;;;;;;;;;;;;;;;;'';'';''';'''';'''.....        ",
"       ....#=;;;''''''''';';''''...............................................................#'''''''';'';';''';'.....        ",
"       ....#;;;;;;;'''''''''';'%.--&&&&&&&&&&&&&&&&&&&&&&&&&&&&&&&&&&&&&&&&&&&&&&&&&&&&&&&&&&#..$';'';'''''''''''''.....        ",
"       ....$;;;;;'''';'''''''''%.-..............................................................%;'''''''''''';''';.....        ",
"       ....#;;;;';'''''''''''''%.#..............................................................%;;;'';''''''''''''.....        ",
"       ....#;;;;;''''''''';''''$.&.....###############..........................................$;';''''';'''''''''.....        ",
"       ....#;;;;;';''''''''''''%.#.....,,)),))))))))))-.#.......................................&;;;';'''''''''''''.....        ",
"       ....$;;;;'''''''''''''''%.#.....-),)))),)),))))-.#.......................................$;;;'''''''''''''';.....        ",
"       ....#;;;;';'''''''''''''%.#.....,,,,),)))))))))-.&.......................................$;;;;;'''''''''''''.....        ",
"       ....#;;;;;''''''''''''''%.#.....-)),)))))))))))-.#.......................................$;;;'''''''''''''''.....        ",
"       ....#;;;;';'''''''''''''%.#.....-,,,)))))))))))-.&.......................................&;;;';'''''''''''''.....        ",
"       ....$;;;;'''''''''''''''%.#.....-,))))))!!)!)!)-.&.......................................$;;;;''''''''''''''.....        ",
"       ....#;;;;;''''''''''''''%.&.....-,,,))!)))!))!!-.#.......................................#;;';''''''''''''''.....        ",
"       ....#;;;''')''''''''''''%.#.....,,,),))))))!)))-.&.......................................$;;;;''''''''''''''.....        ",
"       ....#;;;;'''''''''''''''%.#.....-,,,)))!))))))!-.&.......................................&;;')''''''''''''''.....        ",
"       ....#;;;;'''''''''''''''%.#.....-,,,,))))))))))-.#.......................................$;;;'''''''''''''''.....        ",
"       ....#;;;;'''''''''''''''%.&.....&,,,,,,))))))))-.&.......................................$;;;;''''''''''''''.....        ",
"       ....$;;;;'''''''''''''''%.#.....-,,,,)),),),),)-.&.......................................$;;;'''''''''''''''.....        ",
"       ....#;;;;'''''''''''''''%.#.....&-,,,,),),)),),-.#.......................................$;;;;''''''''''''''.....        ",
"       ....#;;;';''''''''''''''%.&.....-,-,,,,,),,,),,-.&.......................................$;;;'''''''''''''''.....        ",
"       ....#;;;;'''''''''''''''%.#.....&,-,,,,,),),,),&.&.......................................&;;;;''''''''''''''.....        ",
"       ....$;;;';''''''''''''''%.#.....&--,,,,,,,,,,,,-.#.......................................$;;';''''''''''''''.....        ",
"       ....#;;;;'''''''''''''''%.#.....-----,,,,,,,,,,&.&.......................................&;;;'''''''''''''''.....        ",
"       ....#;;;''''''''''''''''%.&.....&-,-,,,,,,,,,,,&.&.......................................#;;;'''''''''''''''.....        ",
"       ....#;;;')''''''''''''''%.#.....&------,-,,,-,,&.&.......................................&;;;;''''''''''''''.....        ",
"       ....#;;;;'''''''''''''''%.#.....&---,-,,-,-,-,-&.#.......................................$;;;'''''''''''''''.....        ",
"       ..&..;;;;'''''''''''''''%.#.....&&-----,-,-,-,-&.&.......................................$;;)'''''''''''''''.....        ",
"       ..#..#;;';''''''''''''''%.&.....&&------,--,--,#.&.......................................$;;';''''''''''''''.....        ",
"       ......#;;'''''''''''''''%.#.....&&&------------#.#.......................................$;;;'''''''''''''''.....        ",
"       ........;;''''''''''''''%.#.....#&-&---,---,--,#.&.......................................$;;;'''''''''''''''.....        ",
"        .......&;''''''''''''''%.#.....#&&&-----------#.#.......................................$;;;;''''''''''''''.....        ",
"         .......#;'''''''''''''%.&.....#&&&&&----&-&--#.&.......................................$;;;'''''''''''''''.....        ",
"          .......#;''''''''''''%.#.....#&&&&&&-&-&----#.&.......................................&;;;'''''''''''''''.....        ",
"           .......#;'''''''''''%.#.....#&&&&&&-&-&&&&-#.#.......................................$;;;'''''''''''''''.....        ",
"             ......#'''''''''''%.&.....##&&&&&&&&&-&&&#.&.......................................&;;;'''''''''''''''.....        ",
"              ......#;'''''''''%.#.....###&&&&&&&&&&&&#&&.......................................$;;;'''''''''''''''.....        ",
"               ......#'''''''''%.#...............#....#-#.......................................&;;;'''''''''''''''.#...        ",
"                ......#;'''''''%.&.......#.#.##...#.#-,&#.......................................$;;;'''''''''''''''.,...        ",
"                 ......#%%-%%%%#.#......#.#.#.###.##.#..........................................#&$&%-=-%%%=%%%%%$%#-...        ",
"                 ................#..........................................................................#.#...&,#...        ",
"                   ......##&&&&#.#..............................................................##&&&&&&&&&&#&&---&.....        ",
"                    ....................................................................................................        ",
"                     ...................................................................................................        ",
"                      ................................................................................................          ",
"                                                                                                                                ",
"                                                                                                                                ",
"                                                                                                                                ",
"                                                                                                                                ",
"                                                                                                                                ",
"                                                                                                                                ",
"                                                                                                                                "};
