/* XPM */
char * settingsdialog_xpm[] = {
"128 128 17 1",
" 	c None",
".	c #000000",
"+	c #070A06",
"@	c #111310",
"#	c #1C1E1C",
"$	c #272826",
"%	c #2E302D",
"&	c #363835",
"*	c #3B3D3A",
"=	c #3F413F",
"-	c #464845",
";	c #4D4F4C",
">	c #565855",
",	c #626461",
"'	c #6D6F6C",
")	c #757774",
"!	c #7E807D",
"                                                                                                                                ",
"                                                                                                                                ",
"                                                                                                                                ",
"                                                                                                                                ",
"                                                                                                                                ",
"                                                                                                                                ",
"                                                                                                                                ",
"                                                                                                                                ",
"                                                                                                                                ",
"                                                                                                                                ",
"                                                                                               ........                         ",
"                                                                                            .............                       ",
"                                                                                          ...............                       ",
"                                                                                         .....+#$@......                        ",
"                                                                                       .....&,,;.......                         ",
"                                                                                      ....='!,$.......                          ",
"                                                                                     ....,!'=........                           ",
"                                                                                    ....'!,%........                            ",
"                                                                                    ...,!,#........                             ",
"                                                                                   ...;!,#........                              ",
"                                                                                   ..@!'$+.......                               ",
"                                                                                  ...>!-........                                ",
"                                                                                  ...',$.......                                 ",
"                                                                                 ...%)-+......                      .           ",
"                                                                                 ...=,$@.....                      ...          ",
"                                                                                 ...;>@.......                    ....          ",
"                                                                                 ...;-+........                  .....          ",
"                                                                                 ...=*..........                ......          ",
"                                                                                 ...=%...........              ...#...          ",
"                                                                                 ...=%............            ...'....          ",
"                                                                                 ...-%.............          ...>'....          ",
"                                                                                 ..+;%..............        ...-!.....          ",
"                                                                                 ..%>%...............      ...-!>.....          ",
"                                                                                 ..,,$................    ...;!'......          ",
"                                                                                ..-)>#.................  ...-!)$.....           ",
"                                                                               ..#!'=@....................+,!)&......           ",
"                                                                              ...'!,$@...................='!)=......            ",
"                                                                             ...,!'&#.................+$;,),*.......            ",
"                                                                            ...,!'*#................@#$=;;=#.......             ",
"                                                                           ...,!,$....................@##@.........             ",
"                                                                          ...,!,@.................................              ",
"                                                                         ...,!>.........++.......................               ",
"                                                                        ...,!>..........@+......................                ",
"                                                                       ...,!>..........+#@.....................                 ",
"                                                                      ...,!>...........$$+....................                  ",
"                                                                     ...,!>...........%;&...................                    ",
"                                                                    ...,!>..........%*>,#................                       ",
"                                                                   ...,!>..........,=>);.......   ..                            ",
"                                                                  ...,!>..........,-;))+......                                  ",
"                                                                 ...,!>..........,==)!%......                                   ",
"                                                                ...,!>..........,&='!=......                                    ",
"                                                               ...,!>..........,&='!=......                                     ",
"                                                              ...,!>..........,&*'!*......                                      ",
"                                                             ...,!>..........'*='!=......                                       ",
"                                                            ...,!>..........,&*'!*......                                        ",
"                                                           ...,!>..........,&*'!=......                                         ",
"                                                          ...,!>..........,**'!*......                                          ",
"                                                         ...,!>..........,=*'!=......                                           ",
"                                                        ...,!>..........,&='!*......                                            ",
"                                                       ...,!>..........,=*'!=......                                             ",
"                                                      ...,!>..........,&*'!*......                                              ",
"                                                     ...,!>..........,=*'!*......                                               ",
"                                                    ...,!>..........,&&'!*......                                                ",
"                                                   ...,!>..........'&='!=......                                                 ",
"                                                  ...,!>..........,=&)!*......                                                  ",
"                                                 ...,!>..........,&*'!=......                                                   ",
"                                                ...,!>..........,&='!*......                                                    ",
"                                               ...,!>..........,&='!*......                                                     ",
"                                              ...,!>..........,&*'!*......                                                      ",
"                                             ...,!>..........,*='!=......                                                       ",
"                                            ...,!>..........,&*'!*......                                                        ",
"                                           ...,!>..........,&='!=......                                                         ",
"                                          ...,!>..........,*='!*......                                                          ",
"                                         ...,!>..........,=*'!=......                                                           ",
"                                        ...,!>..........,&*'!*......                                                            ",
"                                       ...,!>..........'&='!=......                                                             ",
"                                      ...,!>..........,=&'!*......                                                              ",
"                                     ...,!>..........,&&)!=......                                                               ",
"                                    ...,!>..........,*='!*......                                                                ",
"                                   ...,!,..........,&*'!=......                                                                 ",
"                                  ...,!,@.........,=*'!&......                                                                  ",
"                       ............#'!'%.........,&*'!*......                                                                   ",
"                     .............;)!'*.........'=&'!=......                                                                    ",
"                   ............+%,)),&#........,=-'!=......                                                                     ",
"                 ......$--;-===>>,>=$@+.......%=;)!*......                                                                      ",
"                ....#>'',>=*%%%$$$#@@.........&,!!=......                                                                       ",
"               ....;!),-$#...........+.......%>))%......                                                                        ",
"              ....'!'-#@..+................@#;,;.......                                                                         ",
"              ...'!,%....................+@#%&#.......                                                                          ",
"             ...,!>#......................@+.........                                                                           ",
"            ...=!,@.................................                                                                            ",
"            ...)'#.................................                                                                             ",
"           ...=)&.................................                                                                              ",
"           ...,>.......  ........................                                                                               ",
"           ..+'+......    ......................                                                                                ",
"          ...%=......      ....................                                                                                 ",
"          ...$......        ...................                                                                                 ",
"          .........          ..................                                                                                 ",
"          ........            ..................                                                                                ",
"          .......              ........+........                                                                                ",
"          ......                ......++.......                                                                                 ",
"          .....                  ....+#........                                                                                 ",
"          ....                    ...#$@+......                                                                                 ",
"          ...                      ..&=@.......                                                                                 ",
"           .                      ..#>-@+......                                                                                 ",
"                                 ...>'-@......                                                                                  ",
"                                ...&!'&.......                                                                                  ",
"                               ...+'!>@.......                                                                                  ",
"                              ....'!,$.......                                                                                   ",
"                             ....'!,$........                                                                                   ",
"                            ....,!,#+.......                                                                                    ",
"                           ....'!,@........                                                                                     ",
"                          ...+'!=.........                                                                                      ",
"                         ...%);..........                                                                                       ",
"                        ................                                                                                        ",
"                       ...............                                                                                          ",
"                       .............                                                                                            ",
"                         ........                                                                                               ",
"                                                                                                                                ",
"                                                                                                                                ",
"                                                                                                                                ",
"                                                                                                                                ",
"                                                                                                                                ",
"                                                                                                                                ",
"                                                                                                                                ",
"                                                                                                                                ",
"                                                                                                                                ",
"                                                                                                                                "};
