/* XPM */
char * settingsdialog_2_xpm[] = {
"128 128 17 1",
" 	c None",
".	c #111310",
"+	c #1D1E1C",
"@	c #272926",
"#	c #373936",
"$	c #464845",
"%	c #4F514F",
"&	c #5F615F",
"*	c #6C6E6B",
"=	c #7A7D7A",
"-	c #888A87",
";	c #969895",
">	c #A2A4A1",
",	c #A9ACA8",
"'	c #B3B6B3",
")	c #BEC1BE",
"!	c #D0D2CF",
"                                                                                                                                ",
"                                                                                                                                ",
"                                                                                                                                ",
"                                                                                                                                ",
"                                                                                                                                ",
"                                                                                                                                ",
"                                                                                                                                ",
"                                                                                                                                ",
"                                                                                                                                ",
"                                                                                                                                ",
"                                                                                               +@#####@                         ",
"                                                                                            +##%%&&&&&&#+                       ",
"                                                                                          +#%&&===;-;=&$+                       ",
"                                                                                         #$&&==;;;--=&$+                        ",
"                                                                                       +#%&=;'',---=&$+                         ",
"                                                                                      +#&*;'',;--==&$+                          ",
"                                                                                     +$&*>))>----*&#+                           ",
"                                                                                    .$%*'),;---=*&#+                            ",
"                                                                                    #%*,',;=--==&$+                             ",
"                                                                                   @%*>),;---==&$.                              ",
"                                                                                   #&=)';=--==&#+                               ",
"                                                                                  @%*>'>---==&#+                                ",
"                                                                                  #&=)';-;-=*%.                                 ",
"                                                                                 +%*;'>;-;-=&@                      @           ",
"                                                                                 @&=>'>;-;;=%                      ##+          ",
"                                                                                 #&=,';-;;;-&#                    $*&@          ",
"                                                                                 #*->';;;;;;-&#                  $*=&@          ",
"                                                                                 $*-'>;>;>>>;-&#                $*--&#          ",
"                                                                                 %*-,,;;>>,,>;-&#              $*-;=&@          ",
"                                                                                 %=;'>>>>,,,,,>;&#            $*-)-=%@          ",
"                                                                                 $=;''>>,,,''',>-*#          $*-,)==%@          ",
"                                                                                 %=;),>,,,'')')',;&#        $*-')-=&#+          ",
"                                                                                 %-,)',,,,'')'))'>-*#      $*-,)'==&#.          ",
"                                                                                 *-)!',,'')')))'''>-&#    $*-,))-=&%@.          ",
"                                                                                %='!)',''')'')))'',>-&#  %*-,));=*&$@           ",
"                                                                               %=>!!)'',)'))))''''>,;-*&&=-)!);==*%#.           ",
"                                                                              %=>!!!'''')'))))))''>,>;;=-,)))>==&&$@            ",
"                                                                             %=;)!!))'')'))))''',,,,>>;,'))'>==*&%#+            ",
"                                                                            %=;!!!)')''))))')''',,,>,>,,'>';==*&%#+             ",
"                                                                           %=;)!!',''')))'))'','>,>>>>;;;;===*&%$@.             ",
"                                                                          %=;!!!''''''))))')',,,,>>;;;;---==**%$@.              ",
"                                                                         %=;)!)>'>,,'))')''','>,>>;;;;--===*&%$@+               ",
"                                                                        %=;)!!'>,>>>>,)'))'',,,>>;>-;--==*&&%#@.                ",
"                                                                       %=;!!!,,,>;===;'))',,,>;;;;--====&*%%#@.                 ",
"                                                                      %=;)!!>>,;-=%;;=,)!',,>;;;-====*&&&%#@+.                  ",
"                                                                     %=;!!),,>>-=%;;;=))),,;;-==&**&&&%$#@+.                    ",
"                                                                    %=;)!!>,>;-*$;;;=>!!',>;-*&$######@+.                       ",
"                                                                   %=;)!),,';;*%;;;;>!!)';;=*$@   ..                            ",
"                                                                  %=;)!!,,>;;*$;;-;>)!!'>;=&%+                                  ",
"                                                                 %=;)!!,>>;-*%;;;;>)!!)>;=*$@                                   ",
"                                                                %=;)!!>,>>;=$;;;;>'!!)>;-&%+                                    ",
"                                                               %=;)!),'>;-*$;;;->)!!)>;-&%+                                     ",
"                                                              %=;)!!,,>>-=$;;;;;)!!!>;=*$+                                      ",
"                                                             %=;!!),,>;-*$;;-;>)!!)>;=&$+                                       ",
"                                                            %=;)!!,,>>-=$;;;;>)!!!>;-*%+                                        ",
"                                                           %=;)!),>>;-*$;;;;>)!!)>;=&$+                                         ",
"                                                          %=-!!!,,>;-=$;;-;>'!!!>;-*%+                                          ",
"                                                         %=;)!!,,>;;*$;;;;>)!!)>--&$@                                           ",
"                                                        %=-!!)>>>>-*%;;;;>'!!),;-*$+                                            ",
"                                                       %=;)!),,,;-*%;;-;;)!!),;-&$+                                             ",
"                                                      %=;)!),,>>-=$;;;;>)!!!,;=*%+                                              ",
"                                                     %=-)!!,,>;-*$;;-;>)!!)>;-&$@                                               ",
"                                                    %=;)!),,>;-=$;;;;>)!!!>;=*$+                                                ",
"                                                   %=;)!!,,>;-*$;;;;>)!!)>;-*$@                                                 ",
"                                                  %=-!!),>>>-=%;;-;>'!!!>;=&%+                                                  ",
"                                                 %=;)!),>>;-*$;;;;;)!!)>;-*%+                                                   ",
"                                                %=-)!!>,>;-*$;;->;)!!!>;-&$+                                                    ",
"                                               %=-!!),,>>-*%;;;;>)!!)>;-&%@                                                     ",
"                                              %=;)!),>>;-*%;;-;>)!!!,;-*%+                                                      ",
"                                             %=-)!),,,;-*%;;;;>)!!)>;-&$+                                                       ",
"                                            %=;)!!,,>;-*%-;;->'!!!>;-*%@                                                        ",
"                                           %=;)!),>>;;*%;>-;>)!!),;-&$+                                                         ",
"                                          %=-)!!>>>;-*$;;;;>)!!!>;-*$@                                                          ",
"                                         $=;)!),>>;-*%;;-;>)!!)>;-*$+                                                           ",
"                                        %=-)!!>,>;-=$;;;;>)!!!>;-&%@                                                            ",
"                                       %=;)!),>>;;*$;;-;>)!!),;-*$@                                                             ",
"                                      %=-)!!>,>;-*$;;;;>)!!!,;-*%+                                                              ",
"                                     %=;)!),>>;-*%;;;;>)!!)>;-&$@                                                               ",
"                                    %=-)!!>,>;-=$;;-;>'!!!';-*$@                                                                ",
"                                   %=;)!),,>;;*$;;;;>)!!)>;-&$@                                                                 ",
"                                  %=-)!!>,>>-*%-;;;>)!!!,;-*%+                                                                  ",
"                       .@##$$$$$%&=>!!!',,>-=%;;;;>)!!),;-*$@                                                                   ",
"                     @#$%&&&*====-,!!)),,,>=%;;;;>)!!!>;-&$+                                                                    ",
"                   @#$%&*====--;,)!!))'',,;=-;;-,)!!),;-*%@                                                                     ",
"                 .@$%**-;>>,,,,'')))'','''>=;;=,)!!!,;-&$@                                                                      ",
"                +#%&=>,'',>>>>,>'',,',,''',;-=,!!!),;-*$@                                                                       ",
"               +#%&;'',>;;--;;;;>>>,'''')')','!!!!,;-*%+                                                                        ",
"              +#%&,',>--=--;;;>>>,,,''')')'))!!!',;-*$@                                                                         ",
"              #%&>',-==--;-;;;>>,,','''))))!))),>;-&%+                                                                          ",
"             @$&>'>-=-=---;;;>>>,,''')))))))'',>;-*%@                                                                           ",
"            +$&-',======--;;>>,>,,')'')))'''',>;-*$+                                                                            ",
"            #%&''-=====*==-;>,,,''''))))))'',>>-*$@                                                                             ",
"           +$&;';====&&%$&=;>>,,'')'))''')'',;-*%+                                                                              ",
"           @%*>>===*&%#  #&=;>'')'')))))''',>-=%@                                                                               ",
"           #&=,====&%@    @&=;,'))))')')',,>>=&+                                                                                ",
"          +$&-;==*&%#      @&->''')')')','>>;=$                                                                                 ",
"          @%*;==*&%@        #&->'))')''',,,;-*$                                                                                 ",
"          @&====&$#          #*-,)')'',',,>>-*#                                                                                 ",
"          #&===&%@            #*->'''',>,>;;-*#.                                                                                ",
"          #&==&%@              #*->,,,,,>>>--&$.                                                                                ",
"          #&=*%#                #*->>',,>;;--&#                                                                                 ",
"          @&*%#                  #*;>>'>;;;-=&#                                                                                 ",
"          @%%#                    $=;,'>;;-==%@                                                                                 ",
"          +#@                      &;''>;;-=&$@                                                                                 ",
"           +                      #=>)'>---=&$.                                                                                 ",
"                                 @&-')'>--=&%@                                                                                  ",
"                                @&-,!),--=*&$+                                                                                  ",
"                               @&-;!));--=&%#.                                                                                  ",
"                              @&=;)!'>--=*&#+                                                                                   ",
"                             @&=;)!)>-==*&$@.                                                                                   ",
"                            @&-;)!'>--=*&$@.                                                                                    ",
"                           @&=;)!);-==*&%#+                                                                                     ",
"                          @&=;!!>--==&&$#.                                                                                      ",
"                         @&-,!';--==&%$@.                                                                                       ",
"                        @&=;;;-==*&&%#@.                                                                                        ",
"                       @%=-;-==*&&%#@+                                                                                          ",
"                       @%&&*&&%%##@+                                                                                            ",
"                         @@@#@@+.                                                                                               ",
"                                                                                                                                ",
"                                                                                                                                ",
"                                                                                                                                ",
"                                                                                                                                ",
"                                                                                                                                ",
"                                                                                                                                ",
"                                                                                                                                ",
"                                                                                                                                ",
"                                                                                                                                ",
"                                                                                                                                "};
