/* XPM */
char * shade3dwireframe_xpm[] = {
"128 128 17 1",
" 	c None",
".	c #000000",
"+	c #191B18",
"@	c #2B2D2A",
"#	c #393B38",
"$	c #4A4C49",
"%	c #5B5D5A",
"&	c #686A67",
"*	c #7B7D7A",
"=	c #8B8D8A",
"-	c #9A9C99",
";	c #ACAEAB",
">	c #BFC2BF",
",	c #CFD1CE",
"'	c #D9DBD8",
")	c #EBEDEA",
"!	c #FAFDF9",
"                                                                                                                                ",
"                                                                                                                                ",
"                                                                                                                                ",
"                            ....................................................                                                ",
"                           .......+@################################$&*&#.......                                                ",
"                          ...+.........................................%**%.....                                                ",
"                         ..#&..&*&&&&&&&&&&&&&&&&&&&&&&&&&&&&&&&&&&&&&&&*=*&....                                                ",
"                        ..#=...'',,,,,,,,,,,,,,,,,,,,,,,,,,,,,,,','',,,''+......                                                ",
"                       ..$#....,,,,,,'''''''''''''',''''''''''',,,,'',,'........                                                ",
"                      .%%.+*...,,>>,,,,,,,,,,,,,,,,,,,,,,,,,,,,',',,,,'.....+...                                                ",
"                     .*$..)=...>>>>>,'''''''''''''''''''''''''''''''''#%...,@...                                                ",
"                    .*+..))%...>>>,''''))')))))'))))))))))'))'))))'))+=...',....                                                ",
"                   .*...))'$...;>>,''))))))))))))))))))))))))))))))).*...'''....                                                ",
"                  .*...!)''$...>>,,'))!!!!!!!!!!!!!!!!!!!!!!!!!!!!!.*...!'''....                                                ",
"                 .*...))'''$+..>,,''))!!!!!!!!!!!!!!!!!!!!!!!!!!!!.*...))'',....                                                ",
"                .*...))'','$@..,>,,))!!!!!!!!!!!!!!!!!!!!!!!!!!!!.*...))'',,+@..                                                ",
"               .*...))''',,%@..,,,,')!!!!!!!!!!!!!!!!!!!!!!!!!!!.=...))''',,.#..                                                ",
"              .=...!)'',,,'%@..,,,''))!!!!!!!!!!!!!!!!!!!!!!!!!.*...!)'',,,'.$..                                                ",
"             .*...))'',,,,'%#..',''')!!!!!!!!!!!!!!!!!!!!!!!!!.*...))''',,').$..                                                ",
"            .*...))'',,,'')%@..,',,)))!!!!!!!!!!!!!!!!!!!!!!!.*...))'',,,'').#..                                                ",
"           .*...))'',,,''))&@..',',')!!!!!!!!!!!!!!!!!!!!!!!.*...))'',,,''))+$..                                                ",
"          .*@..))'',,'''))!%%..,,,''))!!!!!!!!!!!!!!!!!!!!!.*...!)'',,,''))!.#..                                                ",
"         .@%..))''',,'')))!%*..',''')!!!!!!!!!!!!!!!!!!!!!.=...))''','''))!!.$..                                                ",
"        ..$..!)'',,,''))!!!&*..',,,))!!!!!!!!!!!!!!!!!!!!.*...))'',,,''))!!!.$..                                                ",
"       ..#+.))''',,''))!!!!&*..',','))!!!!!!!!!!!!!!!!!!.*...))'',,',))))!!!.$..                                                ",
"      ..#&+))'',,,''))!!!!!*&..'','')!!!!!!!!!!!!!!!!!!.&...))'',,,,'))!!!!!.#..                                                ",
"     ..#*.+..............+#%*+.........................@...))),',,''))!!!!!!+$..                                                ",
"    ...$........+#####%&*&%%&......+####$##$####$&***&%...))'',,'''))!!!!!!!.$..                                                ",
"    ................................................@$...)''',,,'')))!!!!!!!.$..                                                ",
"    ....%%$$$$$$$$%$%$%$%$&+...$%$$$%$%$$%$%$%$%$%$%%...$''',,,''))!!!!!!!!!.#..                                                ",
"    ....'',>>>>>>,,,',''','&...>>>>,,,,''',''''',',''...#',,,,''))!!!!!!!!!!+$..                                                ",
"    ....''>>>>>,,,,',,,,,,'$...>>>>>>,,,,,,,,,,,',,,'...#>>>,''))!!!!!!!!!!!.$..                                                ",
"    ....''>>>>,,,,,,',,',,'$...>>>>,>',,,',,,,,,,',,'...#>>,,,')!!!!!!!!!!!!.$..                                                ",
"    .+..,,,>,,,,'''',''''''%...>>>>>,,'''''''''''''''...#>>,,)))!!!!!!!!!!!!.#..                                                ",
"    .#..',,,,''')''))'))'))%+..>,,,''''))'))'))')'')).#.#,>,,')!!!!!!!!!!!!!+$..                                                ",
"    .#..,,,,'')))))))))))))%#..,,>,'')))))))))))))))).#.#,,,'))!!!!!!!!!!!!!.$..                                                ",
"    .#..',,,'))!!!!!!)!!)!!%@..,,,,')))!!)!!!!!!!!!!!.$.#,,,,'))!!!!!!!!!!!!.$..                                                ",
"    .#..',,''))!!!!!!!!!!!!&#..',,''))!!!!!!!!!!!!!!!.$.#',,'))!!!!!!!!!!!!!.#..                                                ",
"    .#..',''')!!!!!!!!!!!!!&@..'','')!!!!!!!!!!!!!!!!.$.#',,'')!!!!!!!!!!!!!+$..                                                ",
"    .#..,',,)))!!!!!!!!!!!!&#..',,,))!!!!!!!!!!!!!!!!.#.#,,,'))!!!!!!!!!!!!!.$..                                                ",
"    .#..'','')!!!!!!!!!!!!!%#..'','')!!!!!!!!!!!!!!!!.$.#',,,))!!!!!!!!!!!!!.$..                                                ",
"    .#..',,''))!!!!!!!!!!!!&@..,,,''))!!!!!!!!!!!!!!!.#.#',,'')!!!!!!!!!!!!!.#..            .                                   ",
"    .#..',,'))!!!!!!!!!!!!!&#..',,'')!!!!!!!!!!!!!!!!.$.#',,'))!!!!!!!!!!!!!+$..            ..                                  ",
"    .#..'',,'))!!!!!!!!!!!!&@..'',,)))!!!!!!!!!!!!!!!.#.#',''')!!!!!!!!!!!!!.$..           ...                                  ",
"    .#..',''')!!!!!!!!!!!!!&#..,','')!!!!!!!!!!!!!!!!.$.#',,'))!!!!!!!!!!!!!.$..           ....                                 ",
"    .#..,',,)))!!!!!!!!!!!!&@..',,,)))!!!!!!!!!!!!!!!.#.#,,,''))!!!!!!!!!!!!.#..          .....                                 ",
"    .#..',',')!!!!!!!!!!!!!&#..'','')!!!!!!!!!!!!!!!!.$.#',,'))!!!!!!!!!!!!!+$..          .$#..                                 ",
"    .#..',,')))!!!!!!!!!!!!%@..,,,,)))!!!!!!!!!!!!!!!.#.#',,'')!!!!!!!!!!!!!.$..         ..&#...                                ",
"    .#..'',,')!!!!!!!!!!!!!&@..',,'')!!!!!!!!!!!!!!!!.$.#',,'))!!!!!!!!!!!!!.#..        ...+....                                ",
"    .#..',,')))!!!!!!!!!!!!&#..'',''))!!!!!!!!!!!!!!!.%.#,,,,)))!!!!!!!!!!!!+$..        ....=....                               ",
"    .#..',,,')!!!!!!!!!!!!!&$..,','))!!!!!!!!!!!!!!!!.*.#',,'')!!!!!!!!!!!!!.&..       .@@.%'@...                               ",
"    .#..'',')))!!!!!!!!!!!!%$+.',,,'))!!!!!!!!!!!!!!!.*.#',,'))!!!!!!!!!!!!!.*..       .&..,'*....                              ",
"    .#..,,,,')!!!!!!!!!!!!!&$$.',,'')!!!!!!!!!!!!!!!!+*.#'',,))!!!!!!!!!!!!!$%..      .%+.%)',+....                             ",
"    .#..'','))!!!!!!!!!!!!!&#&.','')))!!!!!!!!!!!!!!!#%.$',,'')!!!!!!!!!!!!!&...      .*..,',,&.+..                             ",
"    .#..',,'')!!!!!!!!!!!!!&$*.$%$$%%%&%&%&%&%&%%&%&*&&.+%$$%%$%&%&%&%%&%%&*%...     .%..&)',,>.....                            ",
"    .#..,',''))!!!!!!!!!!!!.%@.....+#@##@#@#@###$**&%*&......+##@#@####+..+%+...     .*..,',,,,&.+..                            ",
"    .#..',,'')!!!!!!!!!!!!.#.........................................+&=*==$....    .%..&)',,,,>....                            ",
"    .#..'',')))!!!!!!!!!!.&.............................................+&@.....    .&..,',,,'')%....                           ",
"    .#..',,,')!!!!!!!!!!.*...,'',,>,,''''''''''''''''...#>>>,,,''''''''',%.....    .&..&)',,,')),....                           ",
"    .#..',',)))!!!!!!!!.*...)'',>>>,,,,,',,,,,,,'',''...#>>>>>,,,',,,',,&.....    .+&..,'',,'')))%....                          ",
"    .#..',',')!!!!!!!!.*...))'',,,>,,,,,,',',,,,,,,',...#>>>>,>,,,',,,'%.....     .%..&),,,,')))!>....                          ",
"    .#..',,')))!!!!!!.=...))'',>>,,,,'',',',''''''','...#>>>>,,,,','',&$....     .+%..,,',,,')!!!!$....                         ",
"    .#..',,,')!!!!!!.*...))''',,,''''')''')''''''')').+.#>>>,,''')'')%&$...      .%..&'',,,')))!!!>....                         ",
"    .#..'',')))!!!!.=...))'',,,'')))))))))))))))))))).$.#,,,,'')))))&#*...      .+%..,',,,''))!!!!)#....                        ",
"    .#..',,,')!!!!.*...))''',,'')')!!!!!)!!!!!!!)!!!!.#.#,,,,'))))!&$*...       .%..&'',,,'))!!!!!!;....                        ",
"    .#..'',')))!!.*...))'',,,''))!!!!!!!!!!!!!!!!!!!!.$.#,,,'')!!!&$*...       .+%..'',>,,'))!!!!!!)@....                       ",
"    .#..,,,,')!!.=...))'',,,'')))!!!!!!!!!!!!!!!!!!!!.#.#',''))!!&$*...        .&..&)',,'')))!!!!!!!-....                       ",
"    .#..'','))!.*...))'',,,''))!!!!!!!!!!!!!!!!!!!!!!.$.#,,,''))&$*...         +%..,',,,,'))!!!!!!!!)+....                      ",
"    .#..',,'').*...))''','''))!!!!!!!!!!!!!!!!!!!!!!!.$.#',,'))&$*...         .&..*'',,,'))!!!!!!!!!!=....                      ",
"    .#..'',,).*...))'',,,''))!!!!!!!!!!!!!!!!!!!!!!!!.$.#,,',)&$*...          +%..'',>,''))!!!!!!!!!!)+....                     ",
"    .$@.,,,,+=...))''',,''))!!!!!!!!!!!!!!!!!!!!!!!!!.%.$,,,'%$*...          .&..*'',,,')))!!!!!!!!!!!*.+..                     ",
"    .@*.'',#=...))'',,,''))!!!!!!!!!!!!!!!!!!!!!!!!!!.&.#',,&%*...           +%..'',,,'')!!!!!!!!!!!!!).....                    ",
"    ..*.',.@...))''',,'')))!!!!!!!!!!!!!!!!!!!!!!!!!!.&$#',%&$...           .*..*'',,,'))!!!!!!!!!!!!!!&.+..                    ",
"    ..*$'.....))'',,,''))!!!!!!!!!!!!!!!!!!!!!!!!!!!!.%*$,%.....            +%.+'''>,,'))!!!!!!!!!!!!!!'....                    ",
"    ..%=.....''''',,''))!!!!!!!!!!!!!!!!!!!!!!!!!!!!!.#***.....            .*..*',,,,'))!!!!!!!!!!!!!!!!&....                   ",
"    ..+*+...'''',,,''))!!!!!!!!!!!!!!!!!!!!!!!!!!!!!!.$*+.....             @$.+'',,,,'))!!!!!!!!!!!!!!!!,....                   ",
"    ...%...,,,,,,,''))!!!!!!!!!!!!!!!!!!!!!!!!!!!!!!!.&$.....             .*..*'',>'')))!!!!!!!!!!!!!!!!!$....                  ",
"    ......%*%%%&%&&&&*&****************************--$......              +$.+'',,,,')!!!!!!!!!!!!!!!!!!!>....                  ",
"    ............@@@@@@@@@@@@@@@@@@@@@@@@@@@@@@@@$&**+......              .*..*'',,''))!!!!!!!!!!!!!!!!!!!!#....                 ",
"    ......................................................               @$.+'',>,,'))!!!!!!!!!!!!!!!!!!!!>....                 ",
"    .....................................................               .*..*'',,,'))!!!!!!!!!!!!!!!!!!!!!!@....                ",
"                                                                       .@$.+'',,,''))!!!!!!!!!!!!!!!!!!!!!!;....                ",
"                                                                       .*..*'',>,'))!!!!!!!!!!!!!!!!!!!!!!!)@....               ",
"                                                                      .@$.+)',,,'')!!!!!!!!!!!!!!!!!!!!!!!!!-....               ",
"                                                                      .*..*'',,,')))!!!!!!!!!!!!!!!!!!!!!!!!)+....              ",
"                                                                     .@#.+'',,,,'))!!!!!!!!!!!!!!!!!!!!!!!!!!=.+..              ",
"                                                                     .*..='',>''))!!!!!!!!!!!!!!!!!!!!!!!!!!!).....             ",
"                                                                    .@%.+'',,,'')!!!!!!!!!!!!!!!!!!!!!!!!!!!!!*.+..             ",
"                                                                    .*..='',,,'))!!!!!!!!!!!!!!!!!!!!!!!!!!!!!'.@..             ",
"                                                                   ..*.+'',>,''))!)>-*&&&$@#@%&&&-;,!!!!!!!!!!!&@@..            ",
"                                                                   .#&.='',,,>=&@+....++@###@@+......@$*>!!!!!!'$&..            ",
"                                                                  ..&#+'',-%@..+$$$#+............@###.....$-'!!!==...           ",
"                                                                  ..*+=,%..+$%$...+.++@@###@##@@++.....@@....#;!'*...           ",
"                                                                 ..+*+$........+@@#$%**=-------=*&%$#@++.+.#%&**>-....          ",
"                                                                 ..&%.......+@$&=-;;>>,,,,,,,,,>>>;;-=&$#++...$%%*@...          ",
"                                                                ..+%.....+#$*-;>,,',,,,,,,,,,,,,,,,,,,>;-=%$++.........         ",
"                                                                ..$...++#&=;>>,,,,,,,,,,,,,,,''',,,,,',,>>>-*$@+.......         ",
"                                                               ..%...+$&=;;>>,>,,>,',,,'',)''''')')''''',,,,>;=%@+......        ",
"                                                               .%..+$&-;>>>,>,>,',,'''''))))))))))))')'')'',',>;=$+.....        ",
"                                                              .@$..%->>>;>>>,''''''))))))))))))))))))))))))'''',,;*#.....       ",
"                                                             ..*..$;,>>>>>,,,,''))))))!)!!!!!!!!!!!!!!!)!))))))',,>=@....       ",
"                                                             .%..+>',,>>>,,'')))))!!!!!!!!!!!!!!!!!!!!!!!!!!)))))'',=.....      ",
"                                                            ..*..*,,>>>,,'')))!!!!!!!!!!!!!!!!!!!!!!!!!!!!!!!!)!)))',$....      ",
"                                                            .++.+,'>,>,,'')))!!!!!!!!!!!!!!!!!!!!!!!!!!!!!!!!!!!!))));.....     ",
"                                                            .@..*,,,>,'')))!!)!!!!!!!!!!!!!!!!!!!!!!!!!!!!!!!!!!!!!))'#....     ",
"                                                            .+..;,,>,,')))!!!!!!!!!!!!!!!!!!!!!!!!!!!!!!!!!!!!!!!!!!!)=....     ",
"                                                            ...#;>,>,,')!!!!!!!!!!!!!!!!!!!!!!!!!!!!!!!!!!!!!!!!!!!!!'=+...     ",
"                                                            ...#->>,,)))!!!!!!!!!!!!!!!!!!!!!!!!!!!!!!!!!!!!!!!!!!!!!'&$...     ",
"                                                            ...+&>>,,')!!!!!!!!!!!!!!!!!!!!!!!!!!!!!!!!!!!!!!!!!!!!!!>$$...     ",
"                                                            ....#=>,')))!!!!!!!!!!!!!!!!!!!!!!!!!!!!!!!!!!!!!!!!!!!!'**...      ",
"                                                             ...+$->'))!!!!!!!!!!!!!!!!!!!!!!!!!!!!!!!!!!!!!!!!!!!!'=&&...      ",
"                                                             ....+$=>')!!!!!!!!!!!!!!!!!!!!!!!!!!!!!!!!!!!!!!!!!!),=&=...       ",
"                                                              ....+@*;')!!!!!!!!!!!!!!!!!!!!!!!!!!!!!!!!!!!!!!!!';%&*...        ",
"                                                               .....+$=>'!!!!!!!!!!!!!!!!!!!!!!!!!!!!!!!!!!!!));*#=%...         ",
"                                                                ....++@$=>')!!!!!!!!!!!!!!!!!!!!!!!!!!!!!!!)';*#%*....          ",
"                                                                 ......++$*-,')!!!!!!!!!!!!!!!!!!!!!!!!!)'>-&@%*#....           ",
"                                                                   .....+.+@$*->'')!!!!!!!!!!!!!!!!!)',;=%##&*+....             ",
"                                                                     ......++.@#%*-->''))!!!!!!!)'>-=&$##&*$......              ",
"                                                                       .......++.++##$%&**=---=*$$#@$&&&#.......                ",
"                                                                         ..........@@@++.+++@#$%&&&$+........                   ",
"                                                                            ..............................                      ",
"                                                                                 ....................                           ",
"                                                                                                                                ",
"                                                                                                                                ",
"                                                                                                                                ",
"                                                                                                                                ",
"                                                                                                                                ",
"                                                                                                                                "};
