/* XPM */
char * singlelinetext_xpm[] = {
"128 128 17 1",
" 	c None",
".	c #000000",
"+	c #090C08",
"@	c #0E100D",
"#	c #171816",
"$	c #20221F",
"%	c #272826",
"&	c #2D2F2D",
"*	c #323431",
"=	c #383937",
"-	c #3B3D3A",
";	c #444543",
">	c #4D4F4D",
",	c #565855",
"'	c #5E605D",
")	c #666866",
"!	c #7A7C79",
"                                                                                                                                ",
"                                                                                                                                ",
"                                                                                                                                ",
"                                                                                                                                ",
"                                                                                                                                ",
"                                                                                                                                ",
"                   ............................................................................................                 ",
"                   .............................................................................................                ",
"                   .............................................................................................                ",
"                   ...-%.........@#$$&**=--;------;--;;==%#@............@#$&*------;------;;--&%$@+.............                ",
"                   ..@!!;;;;-*%#........................%>,'>>;;;;;;;*%@.......................@&;>>>>;;;;$.....                ",
"                   ...,>$#.................................#&%$$$$$$@................................@#$$$......                ",
"                   ...=&....................................@@..................................................                ",
"                   ...;%....................................##..................................................                ",
"                   ...=...........                       ...#$...........                      .................                ",
"                   ...=........                          ...%%...........                          .............                ",
"                   ...#......                            ...%%...........                            ...........                ",
"                  ..........                             ...%=...........                             ..........                ",
"                  .........                              ...&*...........                              .........                ",
"                  ........                               ...&=...........                               ........                ",
"                  .......                                ...&*...........                                .......                ",
"                  .......                                ...&=...........                                 ......                ",
"                  ......                                 ...&*...........                                 ......                ",
"                  ......                                 ...&=...........                                  .....                ",
"                  .....                                  ...&*...........                                  .....                ",
"                  .....                                  ...&=...........                                   ....                ",
"                  ....                                   ...&*...........                                   ....                ",
"                  ....                                   ...&=...........                                   .....               ",
"                  ....                                   ...&*...........                                   .....               ",
"                  ....                                   ...&=...........                                    ....               ",
"                  ....                                   ...&*...........                                    ....               ",
"                  ....                                   ...&=...........                                    ....               ",
"                  ...                                    ...&=...........                                    ....               ",
"                                                         ...&=...........                                                       ",
"                                                         ...&=...........                                                       ",
"                                                         ...%=...........                                                       ",
"                                                         ...&*...........                                                       ",
"                                                         ...&=...........                                                       ",
"                                                         ...&*...........                                                       ",
"                                                         ...&=...........                                                       ",
"                                                         ...&*...........                                                       ",
"                                                         ...&=...........                                                       ",
"                                                         ...&*...........                                                       ",
"                                                         ...&=...........                                                       ",
"                                                         ...&*...........                                                       ",
"                                                         ...&=...........                                                       ",
"                                                         ...&*...........                                                       ",
"                                                         ...&=...........                                                       ",
"                                                         ...&*...........                                                       ",
"                                                         ...&=...........                                                       ",
"                                                         ...&*...........                                                       ",
"                                                         ...&=...........                                                       ",
"                                                         ...&*...........                                                       ",
"                                                         ...&=...........                                                       ",
"                                                         ...&*...........                                                       ",
"                                                         ...&=...........                                                       ",
"                                                         ...&*...........                                                       ",
"                                                         ...&=...........                                                       ",
"                                                         ...&*...........                                                       ",
"                                                         ...&=...........                                                       ",
"                                                         ...&*...........                                                       ",
"                                                         ...&=...........                                                       ",
"                                                         ...&=...........                                                       ",
"                                                         ...%=...........                                                       ",
"                                                         ...&*...........                                                       ",
"                                                         ...&=...........                                                       ",
"                                                         ...&*...........                                                       ",
"                                                         ...&=...........                                                       ",
"                                                         ...&*...........                                                       ",
"                                                         ...&=...........                                                       ",
"                                                         ...&*...........                                                       ",
"                                                         ...&=...........                                                       ",
"                                                         ...&*...........                                                       ",
"                                                         ...&=...........                                                       ",
"                                                         ...&*...........                                                       ",
"                                                         ...&=...........                                                       ",
"                                                         ...&*...........                                                       ",
"                                                         ...&=...........                                                       ",
"                                                         ...&*...........                                                       ",
"                                                         ...&=...........                                                       ",
"                                                         ...&*...........                                                       ",
"                                                         ...&=...........                                                       ",
"                                                         ...&*...........                                                       ",
"                                                         ...&=...........                                                       ",
"                                                         ...&*...........                                                       ",
"                                                         ...&=...........                                                       ",
"                                                         ...&*...........                                                       ",
"                                                         ...&=...........                                                       ",
"                                                         ...&*...........                                                       ",
"                                                         ...&=...........                                                       ",
"                                                         ...&*...........                                                       ",
"                                                         ...&=...........                                                       ",
"                                                         ...&*...........                                                       ",
"                                                         ...&=...........                                                       ",
"                                                         ...&*...........                                                       ",
"                                                         ...&=...........                                                       ",
"                                                         ...&=...........                                                       ",
"                                                         ...==...........                                                       ",
"                                                         ...=*...........                                                       ",
"                                                         ...==...........                                                       ",
"                                                         ...;*...........                                                       ",
"                                                         ...=&...........                                                       ",
"                                                         ...;&...........                                                       ",
"                                                         ...;&...........                                                       ",
"                                                         ...>%...........                                                       ",
"                                                         ..@>%............                                                      ",
"                                                        ...$,$............                                                      ",
"                                                        ...=,#............                                                      ",
"                                                        ...>,#............                                                      ",
"                                                        ..#);@............                                                      ",
"                                                        ..>)=+.............                                                     ",
"                                                       ..#))%..............                                                     ",
"                                                      ...)!,$...............                                                    ",
"                                                     ...>!)&@................                                                   ",
"                                                   ...+'!>....................                                                  ",
"                                                ...#;),@..........................                                              ",
"                                         %>',>>)!!!)@....................................                                       ",
"                                         ..&&#...........................................                                       ",
"                                         ................................................                                       ",
"                                                                                                                                ",
"                                                                                                                                ",
"                                                                                                                                ",
"                                                                                                                                ",
"                                                                                                                                ",
"                                                                                                                                ",
"                                                                                                                                ",
"                                                                                                                                ",
"                                                                                                                                "};
