/* XPM */
char * sketch_xpm[] = {
"128 128 17 1",
" 	c None",
".	c #000000",
"+	c #410101",
"@	c #7E0100",
"#	c #2C2C20",
"$	c #535450",
"%	c #9F4242",
"&	c #7D5921",
"*	c #A06E2F",
"=	c #B07A31",
"-	c #8C8784",
";	c #8E9600",
">	c #ADB900",
",	c #D8B7B6",
"'	c #C6D200",
")	c #DEE56D",
"!	c #EDF1AD",
"                                                                                                                                ",
"                                                                                                                                ",
"                                                                                                                                ",
"                                                                             .............                                      ",
"                                                                           .....#.##$$$#.....                                   ",
"                                                                         ...$$#..........##....                                 ",
"                                                                        ..$-......+.+............                               ",
"                                                                       .#-#....+++@@+@@+++........                              ",
"                                                                     ..$-....++@@@%@@@@@@@@+.......                             ",
"                                                                    ..-$...+@%,,%,%,%%%%@@@@@+.......                           ",
"                                                                   ..-#..+@%,,,%,%%@%%@%@%@@@@@.......                          ",
"                                                                  ..-....%,,,%%@@@@@@@@@@@@@@@@@+......                         ",
"                                                                 ..-#...%,,,%%@@@@@@@@@@@@@@@@@@@+......                        ",
"                                                                ..$$...%,,%%@@@@@@@@@@@@@@@@@@@@@@+......                       ",
"                                                                ..-...+,,,%@@@@@@@@@@@@@@@@@@@@@@@@+.....                       ",
"                                                               ..-...+,,%%%@@@@@@@@@@@@@@@@@@@@@@@@@+.....                      ",
"                                                               .$...+%,,%@@@@@@@@@@@@@@@@@@@@@@@@@@@@+....                      ",
"                                                              ..-..+%,,%@@@@@@@@@@@@@@@@@@@@@@@@@@@@@@.....                     ",
"                                                              .-...@,,%%@@@@@@@@@@@@@@@@@@@@@@@@@@@@@@+.#..                     ",
"                                                             ..-..+%,,%@@@@@@@@@@@@@@@@@@@@@@@@@@@@@@@+.....                    ",
"                                                            ..-...@,,%%@@@@@@@@@@@@@@@@@@@@@@@@@@@@@@@@.....                    ",
"                                                            ..$..+%,,%@@@@@@@@@@@@@@@@@@@@@@@@@@@@@@@@@+....                    ",
"                                                           ..-...@,,%@@@@@@@@@@@@@@@@@@@@@@@@@@@@@@@@@@+....                    ",
"                                                           ..-..+%,%%@@@@@@@@@@@@@@@@@@@@@@@@@@@@@@@@@@+....                    ",
"                                                           .$$..@%,%@@@@@@@@@@@@@@@@@@@@@@@@@@@@@@@@@@@+....                    ",
"                                                           .-#.+@@@@@@@@@@@@@@@@@@@@@@@@@@@@@@@@@@@@@@@+....                    ",
"                                                          ..-..+@@@@@@@@@@@@@@@@@@@@@@@@@@@@@@@@@@@@@@+.$...                    ",
"                                                         ..#-....+@@@@@@@@@@@@@@@@@@@@@@@@@@@@@@@@@@@@@.$...                    ",
"                                                        ...-.......+@@@@@@@@@@@@@@@@@@@@@@@@@@@@@@@@@+@.-..                     ",
"                                                       ...-.........++@@@@@@@@@@@@@@@@@@@@@@@@@@@@@@@@+$#..                     ",
"                                                       ..-............+@@@@@@@@@@@@@@@@@@@@@@@@@@@@@@+.-...                     ",
"                                                      ..$$..-$#.........+@@@@@@@@@@@@@@@@@@@@@@@@@@+@+.-...                     ",
"                                                      ..-..$,,-$..........+@@@@@@@@@@@@@@@@@@@@@@@@@+.$...                      ",
"                                                      ..-..--,,--$..........@@@@@@@@@@@@@@@@@@@@@@@@+.-...                      ",
"                                                      .$-.#----,---$..........@@@@@@@@@@@@@@@@@@@@++.-....                      ",
"                                                     ..-$..#$--------#.........#@@@@@@@@@@@@@@@@@@@..-...                       ",
"                                                    ..$$.....#$--------#.........+@@@@@@@@@@@@@@@@+.-...                        ",
"                                                   ..$$........#--------$#.........+@@@@@@@@@@@@@+.#-...                        ",
"                                                   .$$...........$-----,--$..........+@@@@@@@@@@@..-...                         ",
"                                                  ..-..#>#.........$--------$.........#+@@@@@@@++.$$...                         ",
"                                                 ..-...>')!..........$--------$.........++@@@@@@..-...                          ",
"                                                 .#$..&''!!);.........#$--------#.........+++@++.-....                          ",
"                                                ..-...>')!)'''&.........#---------#.........+@+.$$...                           ",
"                                                .$#..;''!!)''''>&.........#--------$.....#.....$$...                            ",
"                                               ..-...>>)!)''''>>>;#.........$--------$....#-$#$$....                            ",
"                                               .$...;''!!)''''>>;;>;#.........$--------$....-$.....                             ",
"                                              ..-..#>'!!)'''''>;;;>')-#.........$----,---#.........                             ",
"                                              .-...;')!!'''''>>;;>''!!);.........#--------$#.....                               ",
"                                             ..$..#''!!)''''>>>;;>')!)''>&.........#$------$....                                ",
"                                            ..-...>')!)'''''>>;;>''!!)''''>&.........$-----.$...                                ",
"                                            .#$..&>'!!)'''>'>>;;'')!)''''>>>;#.........$$-#-#...                                ",
"                                           ..-...>')!!'''''>;;;>>'!!)''''>>;;;;#.........$$-....                                ",
"                                           .$#..;>'!!)''''>>;;;''!!)'''''>;;;'')-#....-#.#$....                                 ",
"                                          ..-...>')!)'''''>>;;>')!!'''''>>;;>''!!);....--$.....                                 ",
"                                          .$...;>'!!)''''>>>;>>'!!)''''>>>;;>')!)>'>&.........                                  ",
"                                         ..-..#>'!!)''''>>;;;>')!)'''''>>;;>''!!)''''>#......                                   ",
"                                         .-...;''!!''''''>;;>''!!)'''>'>;;;'')!)'''''>>.....                                    ",
"                                        ..-..#>'!!)''''>>>;;>')!)'''''>>;;>'>!!)''''>>&.....                                    ",
"                                       ..-...>')!))''''>>;;>''!!)'''>'>>;;''!!)''''>>>......                                    ",
"                                       ..$..&''!!)''''>>;;;>'!!)'''''>;;;>')!!'''''>>#.-....                                    ",
"                                      ..-...>')!)'''''>>;;>''!!)''''>>;;>>'!!)''''>>;..$...                                     ",
"                                      .#$..&>'!!)''''>>>;;''!!)''''>>>;;>')!)''''''>#.-...                                      ",
"                                     ..-...'')!)'''''>;;;>''!!''''''>;;>''!!)''''>>;.#$...                                      ",
"                                     .##..;''!!)''''>>>;;''!!)''''>>;;;>')!!''''>>>..-...                                       ",
"                                    ..-...>>!!)''''>>>;;>')!!'''''>>>;>>'!!)'''''>&.$#...                                       ",
"                                    ..#..;''!!)''''>>;;>''!!)''''>>;;;'')!)''''>>>..-...                                        ",
"                                    .$..#''!!)''''>>>;;>')!)'''''>>;;>''!!)''''>>&.$....                                        ",
"                                   ..-..;')!!'''''>>;;>''!!)''''>>>;;>'!!)'''''>;..-...                                         ",
"                                   ..#.&''!!)''''>>>;;>')!!'''''>;;;'''!!'''''>>#.-....                                         ",
"                                   .$..;')!)'''''>>;;>''!!)''''>>>;;>'!!)''''>>;..-...                                          ",
"                                   .$..#'!!)''''>>;;;''!!)''''>>>;;'')!!'''''>>#.-...                                           ",
"                                  ..-..&'!)'''''>>;;>''!))''''>>;;;''!!)''''>>;.#$...                                           ",
"                                  ..$..;)!)''''>>;;;''!!)'''''>>;;'')!)'''''>;..-...                                            ",
"                                  ..$..;))'''''>>;;>')!))''''>>;;;''!!)''''>>;.$#...                                            ",
"                                  ..$..;')''''>>;;>''!!)''''>>>;;'')!!'''''>;..-...                                             ",
"                                  ..#..>'''''>>>;;>')!!'''''>>;;>>'!!)''''>>&.$....                                             ",
"                                  .....>'''>'>;;;>>'!!)''''>>;;;''!!)'''''>;..-...                                              ",
"                                  .#...'>>>>>>;;;>')!)'''''>>;;>''!!''''>>>#.-....                                              ",
"                                  .$..#>>>>>;;;;>'')!)''''>>;;;''!!)'''''>;..$...                                               ",
"                                  .$..&>>>;;;;;;>>'')'''''>>;;'')!))''''>>#.-...                                                ",
"                                  .$..&;;;=;===;>''')'''>>>;;>>'!!)''''>>;.#$...                                                ",
"                                 ..$..&;======*=;'>''''''>>;;>')!!''''>>>..-...                                                 ",
"                                 ..$..&======***=>'>''>>>;;;>''!!''''''>&.$#...                                                 ",
"                                 ..$..*=====*=**=>>>>>>>>;;;>')!!'''''>;..-...                                                  ",
"                                 ..#..*=======***;>>>;;;;;;>'')!'''''>>&.$....                                                  ",
"                                 .....========***=;;>;;;;=;>''))''''>>;..-...                                                   ",
"                                 .#..#=========**=;;===&&&;>>')'''>'>>#.-...                                                    ",
"                                 .$..+=======*=***==&&&&&&*>>'''>>>>;;.$#...                                                    ",
"                                 .$..#======*=****&&*&&&&&&>>>>>>>;;;.#-...                                                     ",
"                                 .$..&======*******&&*&&&&&;>>>>;>;&..-....                                                     ",
"                                ..$..&====*****&*&*&&&%&&&&=>>;;;;..#-....                                                      ",
"                                ..$..%===*===*******&*&&&&&=;;=;&..$-....                                                       ",
"                                ..$..*=====*****&*&*&&&%&&&&;&&...$$....                                                        ",
"                                .....*==*********&*&*&&&&&&&&&...-#....                                                         ",
"                                .#...===******&*&*&&&&&&&#&##..$-.....                                                          ",
"                                .$...*=******&**&*&&%&&&&&&#..-$....                                                            ",
"                                .$..#=******%*&%&*%&&&&&&+...-.....                                                             ",
"                                .$..+=******&***&&&&&&+&&..$-.....                                                              ",
"                               ..-..&*=******&&&&&&%&$&#..-$....                                                                ",
"                               ..$$..***%*&&&&%&%&&&&&...-.....                                                                 ",
"                               ..$-...&*****%&*&&&%#+..$-.....                                                                  ",
"                               ...-....&&%&*&&&&&&&#..-$....                                                                    ",
"                               ...-.....&&&&*&%&&&..#-.....                                                                     ",
"                               ...-$.....#&*&&&&#..$-.....                                                                      ",
"                               ...$$......#%&&%...-$....                                                                        ",
"                               ...$#.......#&&..$-.....                                                                         ",
"                               ...$$...........$$.....                                                                          ",
"                              ...#$#................                                                                            ",
"                              ...#$................                                                                             ",
"                              ...$$#.............                                                                               ",
"                              ...#$.............                                                                                ",
"                              ...$$............                                                                                 ",
"                              ...#$..........                                                                                   ",
"                              ...##.........                                                                                    ",
"                              ...#.........                                                                                     ",
"                              ...........                                                                                       ",
"                              ..........                                                                                        ",
"                              .........                                                                                         ",
"                              .......                                                                                           ",
"                              ......                                                                                            ",
"                              ....                                                                                              ",
"                              ...                                                                                               ",
"                              .                                                                                                 ",
"                                                                                                                                ",
"                                                                                                                                ",
"                                                                                                                                ",
"                                                                                                                                ",
"                                                                                                                                "};
