/* XPM */
char * sketch_2_xpm[] = {
"128 128 17 1",
" 	c None",
".	c #000000",
"+	c #430305",
"@	c #7C0000",
"#	c #2D2B1E",
"$	c #4E4F4C",
"%	c #595607",
"&	c #765024",
"*	c #96662C",
"=	c #7E8400",
"-	c #A8752F",
";	c #84827F",
">	c #929D00",
",	c #ADB705",
"'	c #B0AFA9",
")	c #C1C75C",
"!	c #CED297",
"                                                                                                                                ",
"                                                                                                                                ",
"                                                                                                                                ",
"                                                                                                                                ",
"                                                                                                                                ",
"                                                                                                                                ",
"                                                                                                                                ",
"                                                                                                                                ",
"                                                                                                                                ",
"                                                                                                                                ",
"                                                                   ......                                                       ",
"                                                                  .........                                                     ",
"                                                                 ...;;.......                                                   ",
"                                                                 ..';..........                                                 ",
"                                                                ..'........#....                                                ",
"                                                                .;$..+@+..........                                              ",
"                                                               ..'...@@@@+..........                                            ",
"                                                               .'...@*&@@@@+..........                                          ",
"                                                              ..;..++''@@@@@@+..........                                        ",
"                                                             ..'...@'''@@@@@@@++..........                                      ",
"                                                             ..;..+*''@@@@@@@@@@++..........                                    ",
"                                                            ..'...@'';@@@@@@@@@@@@@...........                                  ",
"                                                            ..'..+@''@@@@@@@@@@@@@@@+...........                                ",
"                                                            .$;.$@@'@@@@@@@@@@@@@@@@@@+...........                              ",
"                                                            .'$.+@@@@@@@@@@@@@@@@@@@@@@@+..........                             ",
"                                                           ..'..+@@@@@@@@@@@@@@@@@@@@@@@@@+...........                          ",
"                                                          ..$'...#+@@@@@@@@@@@@@@@@@@@@@@@@@+...........                        ",
"                                                         ...'......$+@@@@@@@@@@@@@@@@@@@@@@@@@+..........                       ",
"                                                        ...'.........#@@@@@@@@@@@@@@@@@@@@@@@@@@+....$....                      ",
"                                                        ..'..#.........+@@@@@@@@@@@@@@@@@@@@@@@@@++.......                      ",
"                                                       ..;;..;$#.........+@@@@@@@@@@@@@@@@@@@@@@@@@@..#....                     ",
"                                                       ..'..$'';;..........+@@@@@@@@@@@@@@@@@@@@@@@@@......                     ",
"                                                       ..'..;'''';$..........+@@@@@@@@@@@@@@@@@@@@@@@.#....                     ",
"                                                       .;'.$';'';';'$........#.@@@@@@@@@@@@@@@@@@@@++.$...                      ",
"                                                      ..';...$;;;;;;;;$.........#@@@@@@@@@@@@@@@@@@@..#...                      ",
"                                                     ..$;......;;;;';;;;#.........+@@@@@@@@@@@@@@@@..'...                       ",
"                                                    ..$;........#;;;';';'$#.........+@@@@@@@@@@@@@+.$;...                       ",
"                                                    .$;...........#;;;;'';;;.........#+@@@@@@@@@@@..'...                        ",
"                                                   ..'..%>#.........$;;;;;';;$..........+@@@@@@@++.;#...                        ",
"                                                  ..'...>,,;#.........$;;;;';;;$.........++@@@@@@..'...                         ",
"                                                  .$;..%,,!!)=.........#$;;';';';$....#....++@+@..'....                         ",
"                                                 ..'..#,,)!),,,%..........;;;;;';;;#.........++@.;;...                          ",
"                                                 .$$..%,,!!),,,,>%.........#;;;;;;;;$.....#.....;;...                           ",
"                                                ..'..#,,)!),,,,,>>=#.........$;;;;'';'$....$';$;#....                           ",
"                                                .;...=,,!!,,,,,,>==>=#.........$;;;';;''$....;;.....                            ",
"                                               ..'..#,,!!),,,,,>>==,,);#.........$;;;;';;;$.........                            ",
"                                               .'...>,)!),,,,,,,>=>,,!))%.........#;;;;;;;;$#.....                              ",
"                                              ..;..%,,!!),,,,,>===>,)!),,,%.........#;;;;;';$....                               ",
"                                             ..'...>,)!),,,,,,>>=>,,!!),,,,=%.........$;;;;;.$...                               ",
"                                             .$;..%,,!!),,,,,>>==,,!!!,,>,>>>%#.........$;;$'$...                               ",
"                                            ..'...,,)!),,,,,,>==>,,!!,,,,,>>====#.........#$'....                               ",
"                                            .$$..=,,!!),,,,,>>==,,!!),,>,>>===>>>;....#;$.$;....                                ",
"                                           ..'...,,)!),,,,,,>==,,,!!),,,,>>===>,!!)%....''$.....                                ",
"                                           .;...=,,!!),,,,,>>=>,,!!),,,,>>===>>)!)>>>%...#.....                                 ",
"                                          ..'..#,,!!),,,,,,>==>,)!),,>,>>>===>,'!=,>>>=#......                                  ",
"                                          .'...>,,!!,,,,,,>>=>,,!!),,,,>>===,>)!))>>>>>=.....                                   ",
"                                         ..'..#,,!!),,,,,,===,,)!)),,>,>>===>>!!=,>,>>=%.....                                   ",
"                                        ..'...,,)!!,,,,,,>==>,,!!),,,,>====,>!!)>,>>>==......                                   ",
"                                        .#;..%,,!!),,,,,,>==,,!!),,,>,>>===>>!!>>>,>>=#.'....                                   ",
"                                       ..'...,,)!),,,,,,>==>,,!!),,,,>====,>!!)>,>>>>=..;...                                    ",
"                                       .$$..%,,!!),,,,,,>=>,,)!),,>,,>===>>)!!>>>,>==#.'...                                     ",
"                                      ..'..#,,)!),,,,,>>==>,)!!,,,,>>====>>!!>,>>>>>%.#;...                                     ",
"                                      .$#..%,,!!),,,,,,>=>,,!!),,,,,>===>,=')=,>>>>=..'...                                      ",
"                                     ..'..#,,)!),,,,,>>==>,)!!,,>,>>>===,>!!)>>,>>=%.;$...                                      ",
"                                     .##..>,,!!,,,,,,,>=>,,!!),,,,>>===>>)')>,>>>>=..'...                                       ",
"                                     .;..#,,!!),,,,,>>==,,)!),,,>,>>===,>!!>,>,>==%.;....                                       ",
"                                    ..;..>,)!)),,,,,>>=>,,!!),,,,>>===>,!!)>,>>>==..'...                                        ",
"                                    .#$.%,,!!),,,,,>>==,,)!),,,,>>===>>=!!)>>,>>>#.'....                                        ",
"                                    .;..=,)!),,,,,,>==>,,!!),,,,>>===>,!!=>,>>>==..'...                                         ",
"                                    .;..%,!!),,,,,>>==,,!!),,,,>>===>,>'))>>,>>=..'...                                          ",
"                                   ..;..%,!),,,,,,,==,,,!!),,,,>>===>,!!>>,>>>>%.#;...                                          ",
"                                   ..;..=)!),,,,,>>==,,!!),,,>,>===>>)!!,>>,>>=..'...                                           ",
"                                   ..;..=)),,,,,,)==,,)!!,,,,,>>===>,!!=,>>>=>%.$$...                                           ",
"                                   ..;..,,),,,,,>>=>,,!!),,,,>>===>>)'))>,,>==..'...                                            ",
"                                   ..#..,,,,,,,,>==,,)!),,,,>>>===,>!!>>,>>>=%.;....                                            ",
"                                   .....,,,,,,,>==>,,!!),,,,,>===>>!')>,>>>>=..'...                                             ",
"                                   .$...,,,,,,>===,,)!),,,>>>>==>>,!))>,>>>=#.'....                                             ",
"                                   .$..#,,,,>>>>=>,,)!),,,,,====>,!'),>>,>>%..'...                                              ",
"                                   .;..%,>)======,,,)),,,,>>>==>>>!!>>,>>=>..'...                                               ",
"                                   .;..%>=>==--=->,,,),,,,>>===,>!!),>,>>>%.$;...                                               ",
"                                  ..;..%-=----***>>,,,,,>>>===>,>')=,>>>>=..'...                                                ",
"                                  ..;..*-------**=>,,>,>,>====>,!!),>>,>=%.$$...                                                ",
"                                  ..$..*--------*->>>,>>>====>,>!)=,,>>==..'...                                                 ",
"                                  ..#..--------***=>>>>=====>>>!!)>>,>>=%.;....                                                 ",
"                                  .#...----------*->=====%%=>>,)=>,>>>==..'...                                                  ",
"                                  .$..#--------**-%-==-%*&%->>>)>,>>>>=#.'...                                                   ",
"                                  .$..#---------***-*&&*%%&%>>,>>>=>==%.;$...                                                   ",
"                                  .;..&---------***&**&&&&&*=>>>>>====.$'...                                                    ",
"                                  .;..&------**-****&&*&&&&&==>=====%.#'....                                                    ",
"                                 ..;..*-----*****%**&&&&&&&&->====%..$'....                                                     ",
"                                 ..;..*-------***-*****&&&&&%==%%%..$'....                                                      ",
"                                 ..$..*-----*-***&*&&&&&&&&&%&&&#..';....                                                       ",
"                                 ..#..---**********%*&&&&&&&&&%...'#....                                                        ",
"                                 .#...-----******&**&&&&&%+&&#..$'.....                                                         ",
"                                 .$..#-*-*****&&*&&&&&&&&&&##..';....                                                           ",
"                                 .;..+--********&&*&&&&&#&&...'#....                                                            ",
"                                 .;..#-**-***&*&*&&&%&&&&#..$'.....                                                             ",
"                                ..;#.&-******&&*&*&&&+&&#..';....                                                               ",
"                                ..;;..&***&*&*&&&&&&&&&...'.....                                                                ",
"                                ..$'...&****&*&&&&&&&#..;'.....                                                                 ",
"                                ..#'....&*&&&&&&&&&&...';....                                                                   ",
"                                ...'.....&**&*&&%&&..$'.....                                                                    ",
"                                ...'$.....#*&&&&&+..;'.....                                                                     ",
"                                ...'$......+&&&&...'$....                                                                       ",
"                                ...;$.......#&+..$'.....                                                                        ",
"                                ...;$...........;;.....                                                                         ",
"                               ...#;#................                                                                           ",
"                               ...$;#...............                                                                            ",
"                               ...$;..............                                                                              ",
"                               ...$;.............                                                                               ",
"                               ...$;............                                                                                ",
"                               ...$$..........                                                                                  ",
"                               ...$#.........                                                                                   ",
"                               ...$.........                                                                                    ",
"                               ...........                                                                                      ",
"                               ..........                                                                                       ",
"                               .........                                                                                        ",
"                               .......                                                                                          ",
"                               ......                                                                                           ",
"                               ....                                                                                             ",
"                               ...                                                                                              ",
"                               .                                                                                                ",
"                                                                                                                                ",
"                                                                                                                                ",
"                                                                                                                                ",
"                                                                                                                                ",
"                                                                                                                                ",
"                                                                                                                                "};
