/* XPM */
char * snaptonode_xpm[] = {
"128 128 17 1",
" 	c None",
".	c #000000",
"+	c #191B18",
"@	c #262826",
"#	c #3C3E3B",
"$	c #4B4D4A",
"%	c #595B58",
"&	c #686A67",
"*	c #7B7D7A",
"=	c #898C89",
"-	c #9FA29E",
";	c #B1B3B0",
">	c #BFC1BE",
",	c #CED1CD",
"'	c #DDE0DD",
")	c #EDEFEC",
"!	c #F8FAF7",
"                                                                                                                                ",
"                                                                                                                                ",
"                                                                                                                                ",
"                                                                                                                                ",
"                                                                                                                                ",
"                                                                                                                                ",
"                                                                                                                                ",
"                                                                                                                                ",
"                                                                                                                                ",
"                                                                                                                                ",
"                                                                                                                                ",
"                                                                                                                                ",
"                                                                                                                                ",
"                                                                                                                                ",
"                                                                                                                                ",
"                                                                                                                                ",
"                                                                                                                                ",
"                                                                                                                                ",
"                                                                                                                                ",
"                                                                                                                                ",
"                                                                                                                                ",
"                                                                                                                                ",
"                                                                                                                                ",
"                                                                                                                                ",
"                                                                                                                                ",
"                                                                                                                                ",
"                                                                                                                                ",
"                                                                                                                                ",
"                                                                                                                                ",
"                                                                                                                                ",
"                                                                                                                                ",
"                                                                                                                                ",
"                                                                                                                                ",
"                                                                                                                                ",
"                                                                                                                                ",
"                                                                                                                                ",
"                                                                                                                                ",
"                                                                                                                                ",
"                                                                                                                                ",
"                                                                                                                                ",
"                                                                                                                                ",
"                                                                                                                                ",
"                                                                                                                                ",
"                                                                                                                                ",
"                                                                                                                                ",
"                                                                                                                                ",
"                                                                                                                                ",
"                                                                                                                                ",
"                                                                                                                                ",
"                                                                                                                                ",
"                                                           ..........                                                           ",
"                                                         ...............                                                        ",
"                                                        ....+#%***%#+....                                                       ",
"                                                       ...+$-,'''',>=#+...                                                      ",
"                                                      ...@=')))))''',>&+...                                                     ",
"                                                     ...@=)))))))))''',*@..                                                     ",
"                                                     ..+=))!!!!)))''',,>&+..                                                    ",
"                                                    ...%')!)!!!!!))''',,>#..                                                    ",
"                                                    ..+-!)!!!!!!!!)''',>>=...                                                   ",
"                                                    ..#')!)!!!!!!!))'',,>;@..                                                   ",
"                                                    ..&)))!!!!!!!!))'',,>>$..                                                   ",
"                                                    ..*)))!!!!!!!!))',,>>;&..                                                   ",
"                                                    ..=))))!!!!!!!))',,>>;&..                                                   ",
"                                                    ..*'')!)!!!!!))'',>>>;&..                                                   ",
"                                                    ..&'''))))!!!)'',,>;;;$..                                                   ",
"                                                    ..$,'''))))')'',,>>;;;@..                                                   ",
"                                                    ..+-'''''')'',,,>>>;;*+..                                                   ",
"                                                    ...%,,',,'',,,,>>>;;;#..                                                    ",
"                                                     ..@*,,,,,,,,>>>>;;;&+..                                                    ",
"                                                     ...#=,,,>,,>>>>;;;&@...                                                    ",
"                                                      ...@=>,>>>>;;;;;&@...                                                     ",
"                                                       ...+%=;>>>;;;*#+...                                                      ",
"                                                        ....@#%&&&%#+....                                                       ",
"                                                         .......+.......                                                        ",
"                                                          .............                                                         ",
"                                                             .......                                                            ",
"                                                                                                                                ",
"                                                                                                                                ",
"                                                                                                                                ",
"                                                                                                                                ",
"                                                                                                                                ",
"                                                                                                                                ",
"                                                                                                                                ",
"                                                                                                                                ",
"                                                                                                                                ",
"                                                                                                                                ",
"                                                                                                                                ",
"                                                                                                                                ",
"                                                                                                                                ",
"                                                                                                                                ",
"                                                                                                                                ",
"                                                                                                                                ",
"                                                                                                                                ",
"                                                                                                                                ",
"                                                                                                                                ",
"                                                                                                                                ",
"                                                                                                                                ",
"                                                                                                                                ",
"                                                                                                                                ",
"                                                                                                                                ",
"                                                                                                                                ",
"                                                                                                                                ",
"                                                                                                                                ",
"                                                                                                                                ",
"                                                                                                                                ",
"                                                                                                                                ",
"                                                                                                                                ",
"                                                                                                                                ",
"                                                                                                                                ",
"                                                                                                                                ",
"                                                                                                                                ",
"                                                                                                                                ",
"                                                                                                                                ",
"                                                                                                                                ",
"                                                                                                                                ",
"                                                                                                                                ",
"                                                                                                                                ",
"                                                                                                                                ",
"                                                                                                                                ",
"                                                                                                                                ",
"                                                                                                                                ",
"                                                                                                                                ",
"                                                                                                                                ",
"                                                                                                                                ",
"                                                                                                                                ",
"                                                                                                                                ",
"                                                                                                                                ",
"                                                                                                                                "};
