/* XPM */
char * snaptomidpoint_xpm[] = {
"128 128 17 1",
" 	c None",
".	c #000000",
"+	c #1C1D1B",
"@	c #2B2D2B",
"#	c #3D3E3C",
"$	c #505250",
"%	c #60625F",
"&	c #6D6F6C",
"*	c #7E807D",
"=	c #919390",
"-	c #A3A5A2",
";	c #B3B5B2",
">	c #C3C5C2",
",	c #D2D5D2",
"'	c #DFE1DE",
")	c #EDEFEC",
"!	c #F8FAF7",
"                                                                                                                                ",
"                                                                                                                                ",
"                                                                                                                                ",
"                                                                                                                                ",
"                                                                                                                                ",
"                                                                                                                                ",
"                                                                                                                                ",
"                                                                                                                                ",
"                                                                                                                                ",
"                                                                                                                  ....          ",
"                                                                                                                 .....          ",
"                                                                                                                ......          ",
"                                                                                                               ..&....          ",
"                                                                                                              ..*....           ",
"                                                                                                             ..*....            ",
"                                                                                                            ..*....             ",
"                                                                                                           ..*....              ",
"                                                                                                          ..*....               ",
"                                                                                                         ..*....                ",
"                                                                                                        ..*....                 ",
"                                                                                                       ..*....                  ",
"                                                                                                      ..*....                   ",
"                                                                                                     ..*....                    ",
"                                                                                                    ..*....                     ",
"                                                                                                   ..*....                      ",
"                                                                                                  ..*....                       ",
"                                                                                                 ..*....                        ",
"                                                                                                ..*....                         ",
"                                                                                               ..*....                          ",
"                                                                                              ..*....                           ",
"                                                                                             ..*....                            ",
"                                                                                            ..*....                             ",
"                                                                                           ..*....                              ",
"                                                                                          ..*....                               ",
"                                                                                         ..*....                                ",
"                                                                                        ..*....                                 ",
"                                                                                       ..*....                                  ",
"                                                                                      ..*....                                   ",
"                                                                                     ..*....                                    ",
"                                                                                    ..*....                                     ",
"                                                                                   ..*....                                      ",
"                                                                                  ..*....                                       ",
"                                                                                 ..*....                                        ",
"                                                                                ..*....                                         ",
"                                                                               ..*....                                          ",
"                                                                              ..*....                                           ",
"                                                                             ..*....                                            ",
"                                                                            ..*....                                             ",
"                                                                           ..*....                                              ",
"                                                                          ..*....                                               ",
"                                                           ..........    ..*....                                                ",
"                                                         .................*....                                                 ",
"                                                        ....+#%***$@+....*....                                                  ",
"                                                       ...+$-,'',',>=#+......                                                   ",
"                                                      ...@*,))))')'',>&+....                                                    ",
"                                                     ...@=))))))))',',>*+..                                                     ",
"                                                     ..+*))!!!!!)))''',>&...                                                    ",
"                                                    ...$')!)!!!!!))',,,,>#..                                                    ",
"                                                    ..+-!)!!!!!!!)!'',,>>*+..                                                   ",
"                                                    ..#')!)!!!!!!!)''',,>;@..                                                   ",
"                                                    ..%)))!!!!!!!!!)',>,>;$..                                                   ",
"                                                    ..*)))!!!!!!!!))''>>>;%..                                                   ",
"                                                    .+*')))!!!!!!!)'',>>>;%..                                                   ",
"                                                    ..*)')!)!!!!!!)',,>>;;&..                                                   ",
"                                                    ..&'''))))!!))'',>>>;;$..                                                   ",
"                                                    ..#,'''')))))'',>>;;;-@..                                                   ",
"                                                    ..+-''''''''',,,>>;;;*+..                                                   ",
"                                                    ...$,,,',',,,,>>>;;;-#..                                                    ",
"                                                     ..+*,,,,,,>,>>>;;;;&+..                                                    ",
"                                                     ...@=,>,>>>>>;;;;;&+...                                                    ",
"                                                     ....@*>>>>>>;;;;-&@...                                                     ",
"                                                    ..*...+$=;;>;;;-*#+...                                                      ",
"                                                   ..*.....++#%%*%$#+....                                                       ",
"                                                  ..*..........+.+......                                                        ",
"                                                 ..*....  .............                                                         ",
"                                                ..*....      .......                                                            ",
"                                               ..*....                                                                          ",
"                                              ..*....                                                                           ",
"                                             ..*....                                                                            ",
"                                            ..*....                                                                             ",
"                                           ..*....                                                                              ",
"                                          ..*....                                                                               ",
"                                         ..*....                                                                                ",
"                                        ..*....                                                                                 ",
"                                       ..*....                                                                                  ",
"                                      ..*....                                                                                   ",
"                                     ..*....                                                                                    ",
"                                    ..*....                                                                                     ",
"                                   ..*....                                                                                      ",
"                                  ..*....                                                                                       ",
"                                 ..*....                                                                                        ",
"                                ..*....                                                                                         ",
"                               ..*....                                                                                          ",
"                              ..*....                                                                                           ",
"                             ..*....                                                                                            ",
"                            ..*....                                                                                             ",
"                           ..*....                                                                                              ",
"                          ..*....                                                                                               ",
"                         ..*....                                                                                                ",
"                        ..*....                                                                                                 ",
"                       ..*....                                                                                                  ",
"                      ..*....                                                                                                   ",
"                     ..*....                                                                                                    ",
"                    ..*....                                                                                                     ",
"                   ..*....                                                                                                      ",
"                  ..*....                                                                                                       ",
"                 ..*....                                                                                                        ",
"                ..*....                                                                                                         ",
"               ..*....                                                                                                          ",
"              ..*....                                                                                                           ",
"             ..*....                                                                                                            ",
"            ..*....                                                                                                             ",
"           ..*....                                                                                                              ",
"          ..%....                                                                                                               ",
"         .......                                                                                                                ",
"         ......                                                                                                                 ",
"         .....                                                                                                                  ",
"          ...                                                                                                                   ",
"                                                                                                                                ",
"                                                                                                                                ",
"                                                                                                                                ",
"                                                                                                                                ",
"                                                                                                                                ",
"                                                                                                                                ",
"                                                                                                                                ",
"                                                                                                                                ",
"                                                                                                                                ",
"                                                                                                                                "};
