/* XPM */
char * snaptonone_xpm[] = {
"128 128 17 1",
" 	c None",
".	c #000300",
"+	c #580000",
"@	c #161715",
"#	c #6A0100",
"$	c #740000",
"%	c #7F0000",
"&	c #272826",
"*	c #8A1214",
"=	c #545654",
"-	c #A54948",
";	c #80827F",
">	c #BA7677",
",	c #AEB0AD",
"'	c #C6C8C5",
")	c #D5D8D4",
"!	c #EFF1EE",
"                                                                                                                                ",
"                                                                                                                                ",
"         $$$$                                                                     $$$$                                          ",
"       %%$%$$#$#                                                               %%$%%$$##                                        ",
"      %$$$$$%$$##                                                             %$%$$$$$$##                                       ",
"     %$$%**%%#$###                                                           %$$$%*%%%$###                                      ",
"     %%%>>--%%%$##+                                                         $%%%->>-*$%$##                                      ",
"    $%%*>>-**%%%$##+                                                        $%%>>>-**%%$$++                                     ",
"    %#%->***%%%$%$##                                                       %%%->>-**%%%#$#+                                     ",
"    #$%--*%%%%%%%$$##                                                     %%$>>>-**%%%%$##+                                     ",
"    $%%%-%%%%%%%%$$$##                                                   $%%->>-%%%%%%%$##+                                     ",
"    ##%%%%%%%%%%%%%%###                                                 %$*->>-**%%%%$%$#+#                                     ",
"    $$$%%%%%%%%%%%%%$$##                                               %%%-,>-*%%%%%%%###++                                     ",
"     #$$$%%%%%%%%%%%%%$##                                             %$*->>-*%%%%%%%$$#++                                      ",
"     ####%%%%%%%%%%%%%$$##                                           %%%->>-**%%%%%$%$#+++                                      ",
"      #$$#%%%%%%%%%%%%%$$##                                         %%%>>>-**%%%%%$%##+++                                       ",
"       ###$%%%%%%%%%%%%%%$##                                       %%%->>-*$*%%%%%*$##++                                        ",
"        $##$*%%%%%%%%%%%%$$##                                     $$%>>>-**%%%%%%%$#+++                                         ",
"         ###$%%%%%%%%%%%%%%$##                                   %%%->>-**%%%%%%%$#+++                                          ",
"          ##$#%%%%%%%%%%%%%$$##                                 %$$>>>-**%%%%%%$##+++                                           ",
"           +$#$%%%%%%%%%%%%%$$##                               $%%->>-*$%%%%%$%####+                                            ",
"            +#$$%%%%%%%%%%%%%%###                             %$%->>-**%%%%%%$$$+++                                             ",
"             +##$%%%%%%%%%%%%%%$##                           %%%-,>-***%%%%%%$#+++                                              ",
"              ###$%%%%%%%%%%%%%$$##                         %$%>>>-**%%%%%$$$##++                                               ",
"               ##$$$%%%%%%%%%%%%$$##                       $%%->>-*%%%%%%%*$#+++                                                ",
"                +##$%%%%%%%%%%%%%%$##                     %$$->>-*%*%%%%%%##+++                                                 ",
"                 +$#$%%%%%%%%%%%%%$$##                   %%%->>-**%%%%%$$$##++                                                  ",
"                  ###$%%%%%%%%%%%%%%$##                 %$%>>>-*$%%%%%*%$#+++                                                   ",
"                   ###$%%%%%%%%%%%%%$$##               %%%->>-***%%%%%$##+++                                                    ",
"                    +#$#%%%%%%%%%%%%%%###             %$%->>-**%%%%%%%$##++                                                     ",
"                     +$#$%%%%%%%%%%%%%%$##           %%$>>>-**%%%%%%%$#+#+                                                      ",
"                      +#$#%%%%%%%%%%%%%$$##         %$%->>-**%%%%%%%$##++                                                       ",
"                       +$#$%%%%%%%%%%%%%%$##       $%%->>-**%%%%%%%##+++                                                        ",
"                        ##$$$%%%%%%%%%%%%$$##     %$%>>>-**%%%%%$#$$+++                                                         ",
"                         +##$%%%%%%%%%%%%%%$#$   %%%->>-**%%%%%%%$#+#+                                                          ",
"                          ###$%%%%%%%%%%%%%$%$%#%%*>>>-**%%%%%%$$#+++                                                           ",
"                           ###$%%%%%%%%%%%%%$%%%%->>>-**%%%%%$*$##++                                                            ",
"                            +#$$$%%%%%%%%%%%%%%-->>>-**%%%%%$%##+++                                                             ",
"                             +##$%%%%%%%%%%%***-----*%%%%%%%%$##++                                                              ",
"                              ##$#%%%%%%%%%%****-*%**%%%%%%%$#+++                                                               ",
"                               ###$%%%%%%%%%%$*%*%%%%%%%%$$###++                                                                ",
"                                ##$#%%%%%%%%%%%%%%%%%%%%*$$#+++                                                                 ",
"                                 ##$%%%*%%%%%%%%%$%%%%%%%$##++                                                                  ",
"                                  ##$$%***%%%%%%%%%%%%%%%$#++                                                                   ",
"                                   #$%%**%%%%%%%%%%%%%$$###+                                                                    ",
"                                    $$%-**%%%%%%%%%%%%%%$#+                                                                     ",
"                                     %*--%%%%%%%%*%%%%%%$#+                                                                     ",
"                                    %*->**%%%%%%%%*%%%%%%#++                                                                    ",
"                                   %%->--%%%%*%%%%%%%%%$%$##+                                                                   ",
"                                  %$%>>-**%%%%%%%%%%%%%%$%##++                                                                  ",
"                                 $%%>>>-*%%%%%*%%%*%%%%%%%#$##                                                                  ",
"                                %$%->>-*%%%%%%%%%%%%%%%%%%%%###                                                                 ",
"                               %%%->>-**%%%*%%%%%%%%%%%%%%%%%$##                                                                ",
"                              %%%>>>-**%%%%%%%%*%%*%%%%%%%%%%$$##                                                               ",
"                             %%%->>-*%%%%%%%*%$%%%%%%%%%%%%%%%$$##                                                              ",
"                            %$%>>>-**%%%%%%$$$#$#%%%%%%%%%%%$%%%$##                                                             ",
"                           %%%->>-**%%%%%%%$#####$#%%%%%%%%%%%%%$$##                                                            ",
"                          $$%>>>-**%%%%%%%$###+ ##$$*%%%%%%%$%%%%%###                                                           ",
"                         %%%->>-*%%%%%*%$$#+#+   ###$%%%%%%%%%%%%%%$##                                                          ",
"                        %$%->>-**%%%%%%$$##++     +#$#*%%%%%%%%%%%%$$##                                                         ",
"                       %%$->>-**%%%%%$%$#+++       +$#$%%%%%%%%%%%%%$$##                                                        ",
"                      %$*-,>-**%%%%%%%$#+++         ###$*%%%%%%%%%%%%%$##                                                       ",
"                     $%%->>-*$%%%%%$%###++           ###$%%%%%%%%%%%%%$$##                                                      ",
"                    %$%>>>-***%%%%%%$#+++             ####%*%%%%%%%%%%%$$##                                                     ",
"                   %%%->>-**%%%%%$%###++               $#$$%%%%%%%%%%%%%%$##                                                    ",
"                  %%%-;>-**%%%%%%$$#+++                 ###$%%%%%%%%%%%%%$$##                                                   ",
"                 %%%>>>-*$%%%%%$%$##++                   ####%%%%%%%%%%%%%%$##                                                  ",
"                %%%->>-**%%%%%%$$##++                     ##$$%%%%%%%%%%%%%$$##                                                 ",
"               $$%-,>-**%%%%%*%##+++                       ###%%%%%%%%%%%%%%$$##                                                ",
"              %$%>>>-**%%%%%$$$#+++                         +##$%%%%%%%%%%%%%%###                                               ",
"             %%%->>-**%%%%%%%#$#++                           ###$%%%%%%%%%%%%%%$##                                              ",
"            %$%->>-**%%%%%%%$#+++                             +#$$%%%%%%%%%%%%%$$##                                             ",
"           $%%->>-*$%%%%%$$$#+++                               ###$%%%%%%%%%%%%%$$##                                            ",
"          %$%>>>-**%%%%%%$$##++                                 ###$%%%%%%%%%%%%%%$##+                                          ",
"        $%%$->>-**%%%%%%%$##++                                   +##$%%%%%%%%%%%%%%$##+                                         ",
"       %%$%>>>-**%%%%%%%$#+++                                     ###$%%%%%%%%%%%%%%$##+                                        ",
"      %#%%>>>-**%%%%%%%##+++                                       ###$%%%%%%%%%%%%%$$##+                                       ",
"     %$%%>>>-**%%%%%%%*##++                                         +#$#%%%%%%%%%%%%%%$##+                                      ",
"     %%%->>**%%%%%%%%$#+++                                           ###$%%%%%%%%%%%%%$###                                      ",
"     $$%>>-**%%%%%%####++                                             ##$#%%%%%%%%%%%%$$#++                                     ",
"    $$%%--*%%%%%%*%$#+++                                               ###$%%%%%%%%%%%$##++                                     ",
"    #$$%-**%%%%%%$$##++                                                 +#$#%%%%%%%%%%$$#++                                     ",
"     $$%%$%%%%%%%###++                                                   ###$%%%%%%%%%$#+++                                     ",
"     $$$%%$%*$%$$#+++                                                     ##$$$%%%%%$%#$++                                      ",
"     ###$%%%$%$###++                                                       ###$$%$$$###+++                                      ",
"      ######$###+++                                                         +####$$#$#+#+                                       ",
"       #######+#++                                                           +$+#####+++                                        ",
"        ++#++#+++                                                              ##+#++++                                         ",
"          +++++                                                                  ++++                                           ",
"                                                                                                                                ",
"                                                                                                                                ",
"                                                                                                                                ",
"                                                                                                                                ",
"                                                                                                                                ",
"                                                                                                       ..........               ",
"                                                                                                     ...............            ",
"                                                                                                    ....@&=;;;=&@....           ",
"                                                                                                   ...@=,)!))))';=@...          ",
"                                                                                                  ...&;)!!)!!)!)),;@...         ",
"                                                                                                 ...&;!!!!!!!!)!))';@..         ",
"                                                                                                 ..@;!!!!!!!!!)!)))';...        ",
"                                                                                                ...=!!!!!!!!!!!!))'',=..        ",
"                                                                                                ..@,!!!!!!!!!!!!)!''';...       ",
"                                                                                                ..=)!!!!!!!!!!!)!)''',&..       ",
"                                                                                                ..=!!!!!!!!!!!!!))''''=..       ",
"                                                                                                ..;!!!!!!!!!!!!!!!'',,=..       ",
"                                                                                                .@;)!!!!!!!!!!!))'''',=@.       ",
"                                                                                                ..;!)!!!!!!!!!!!))',''=..       ",
"                                                                                                ..=!)!!!!!!!!!)))'',,,=..       ",
"                                                                                                ..=)))))!!!!!)))''',,,&..       ",
"                                                                                                ..@,)!)))!))))'''',,,;@..       ",
"                                                                                                ...='))!')!)))'',',,,=..        ",
"                                                                                                 ..@;)')')'''''',,,,=@..        ",
"                                                                                                 ..@&;)''''''',',',;&...        ",
"                                                                                                  ..@&;''''',',,,,=&...         ",
"                                                                                                   ...&=>',',,,,;=@...          ",
"                                                                                                    ....@===>==&&....           ",
"                                                                                                     ......@@@@.....            ",
"                                                                                                      .............             ",
"                                                                                                         .......                ",
"                                                                                                                                ",
"                                                                                                                                ",
"                                                                                                                                ",
"                                                                                                                                ",
"                                                                                                                                ",
"                                                                                                                                ",
"                                                                                                                                ",
"                                                                                                                                "};
