/* XPM */
char * snaptoendpoint_xpm[] = {
"128 128 17 1",
" 	c None",
".	c #000000",
"+	c #0D100C",
"@	c #1B1D1B",
"#	c #2A2C29",
"$	c #3B3D3B",
"%	c #4C4E4B",
"&	c #5A5C59",
"*	c #6B6D6A",
"=	c #7E807D",
"-	c #909390",
";	c #A6A9A5",
">	c #B6B9B5",
",	c #C6C9C5",
"'	c #D5D8D4",
")	c #E6E8E5",
"!	c #F6F9F6",
"                                                                                                                                ",
"                                                                                                                                ",
"                                                                                                                                ",
"                                                                                                         ..........             ",
"                                                                                                       .....+.++......          ",
"                                                                                                      ....@$&=**&$+....         ",
"                                                                                                     ...@%-'')''',-$+...        ",
"                                                                                                    ...#=))))))))'',=@...       ",
"                                                                                                   ...#-)!!!!!))))'',=@..       ",
"                                                                                                   ..@=)!!)!)!!)))''',*+..      ",
"                                                                                                  ...&))!!!!!!!)))''',>$+.      ",
"                                                                                                  ..@;!!)!!!!!!!!))',',=...     ",
"                                                                                                  ..$')!!!!!!!!!)))'',,>#..     ",
"                                                                                                  .+&)!)!!!!!!!!!))',,,>%..     ",
"                                                                                                  .+=))!!!!!!!!!!))',,>>&+.     ",
"                                                                                                  ..-)))!!!!!!!!))'',>,>*..     ",
"                                                                                                  ..=))))!!!!!!!))'',>>;&+.     ",
"                                                                                                  ..*))))))!!!)))',,>,>>%..     ",
"                                                                                                  ..$')'))))))))),',>>;;#..     ",
"                                                                                                  ..@;'')')))))',,,>>>>=+..     ",
"                                                                                                  ...&''''''''','>,>>;;$+.      ",
"                                                                                                   ..@=''''',',,,>>>;>*@..      ",
"                                                                                                   ...#-,,,,,,,>>>>>;*#...      ",
"                                                                                                    ...#=,,,,>>>>>>;*@...       ",
"                                                                                                   ..#..@&->>>>>>;=%@...        ",
"                                                                                                  ..=.....@$&***%$@....         ",
"                                                                                                 ..=........++++......          ",
"                                                                                                ..=.... .............           ",
"                                                                                               ..=....     .......              ",
"                                                                                              ..=....                           ",
"                                                                                             ..=....                            ",
"                                                                                            ..=....                             ",
"                                                                                           ..=....                              ",
"                                                                                          ..=....                               ",
"                                                                                         ..=....                                ",
"                                                                                        ..=....                                 ",
"                                                                                       ..=....                                  ",
"                                                                                      ..=....                                   ",
"                                                                                     ..=....                                    ",
"                                                                                    ..=....                                     ",
"                                                                                   ..=....                                      ",
"                                                                                  ..=....                                       ",
"                                                                                 ..=....                                        ",
"                                                                                ..=....                                         ",
"                                                                               ..=....                                          ",
"                                                                              ..=....                                           ",
"                                                                             ..=....                                            ",
"                                                                            ..=....                                             ",
"                                                                           ..=....                                              ",
"                                                                          ..=....                                               ",
"                                                                         ..=....                                                ",
"                                                                        ..=....                                                 ",
"                                                                       ..=....                                                  ",
"                                                                      ..=....                                                   ",
"                                                                     ..=....                                                    ",
"                                                                    ..=....                                                     ",
"                                                                   ..=....                                                      ",
"                                                                  ..=....                                                       ",
"                                                                 ..=....                                                        ",
"                                                                ..=....                                                         ",
"                                                               ..=....                                                          ",
"                                                              ..=....                                                           ",
"                                                             ..=....                                                            ",
"                                                            ..=....                                                             ",
"                                                           ..=....                                                              ",
"                                                          ..=....                                                               ",
"                                                         ..=....                                                                ",
"                                                        ..=....                                                                 ",
"                                                       ..=....                                                                  ",
"                                                      ..=....                                                                   ",
"                                                     ..=....                                                                    ",
"                                                    ..=....                                                                     ",
"                                                   ..=....                                                                      ",
"                                                  ..=....                                                                       ",
"                                                 ..=....                                                                        ",
"                                                ..=....                                                                         ",
"                                               ..=....                                                                          ",
"                                              ..=....                                                                           ",
"                                             ..=....                                                                            ",
"                                            ..=....                                                                             ",
"                                           ..=....                                                                              ",
"                                          ..=....                                                                               ",
"                                         ..=....                                                                                ",
"                                        ..=....                                                                                 ",
"                                       ..=....                                                                                  ",
"                                      ..=....                                                                                   ",
"                                     ..=....                                                                                    ",
"                                    ..=....                                                                                     ",
"                                   ..=....                                                                                      ",
"                                  ..=....                                                                                       ",
"                                 ..=....                                                                                        ",
"                                ..=....                                                                                         ",
"                               ..=....                                                                                          ",
"                              ..=....                                                                                           ",
"                             ..=....                                                                                            ",
"                            ..=....                                                                                             ",
"                           ..=....                                                                                              ",
"           ..........     ..=....                                                                                               ",
"         ......+.+...... ..=....                                                                                                ",
"        ....@$&*=*%$@.....=....                                                                                                 ",
"       ...@%;''))'',-$+..#....                                                                                                  ",
"      ...#=')!)))))'',*@+....                                                                                                   ",
"     ...#-)!)!!!)))')''=@...                                                                                                    ",
"     ..@=)!!!)!)!)))'',,*+..                                                                                                    ",
"    ...%)!)!!!!!!!))''',>$..                                                                                                    ",
"    ..@;!)!!!!!!!!)))'',,-+..                                                                                                   ",
"    ..$'!!!!!!!!!!!))'',,;#..                                                                                                   ",
"    +.*)))!!!!!!!!)))',,,>%..                                                                                                   ",
"    ..=))!!!!!!!!!!))',,>>&+.                                                                                                   ",
"    .+-))))!!!!!!!))'',>,>*..                                                                                                   ",
"    ..=))))!!!!!!!))),,>>;&+.                                                                                                   ",
"    ..*))))))!!!!))',,,,>>%..                                                                                                   ",
"    ..$'))))))))))'',,>>;;#..                                                                                                   ",
"    ..@;''')')))''',,>>>>=@..                                                                                                   ",
"    ...&''''''''',,,,>>;;$..                                                                                                    ",
"     ..@=''''','',,>>>>>*+..                                                                                                    ",
"     ...#-,,,,,,>>>>>>;*@+..                                                                                                    ",
"      ...#=,,,,>>>>>;;*#...                                                                                                     ",
"       ...#%->>,>>;;=$@...                                                                                                      ",
"        ....@$%*=&&$@....                                                                                                       ",
"         .....+.++...+..                                                                                                        ",
"          .............                                                                                                         ",
"             .......                                                                                                            ",
"                                                                                                                                ",
"                                                                                                                                ",
"                                                                                                                                ",
"                                                                                                                                ",
"                                                                                                                                "};
