/* XPM */
char * snaptoperpendicular_xpm[] = {
"128 128 17 1",
" 	c None",
".	c #000000",
"+	c #1C1D1B",
"@	c #2D2E2C",
"#	c #3B3D3A",
"$	c #525451",
"%	c #626461",
"&	c #6B6D6A",
"*	c #7F817E",
"=	c #90928F",
"-	c #A8AAA7",
";	c #B7B9B6",
">	c #C6C8C5",
",	c #D4D7D3",
"'	c #E2E5E1",
")	c #EFF1EE",
"!	c #FCFEFB",
"                                                                                                                                ",
"                                                                                                                                ",
"                                                                                                                                ",
"                                                                                                                                ",
"                                                                                                                                ",
"                                                                                                                                ",
"                                                                                                                                ",
"                                                                                                                                ",
"                                                                                                                                ",
"                                                                                                                                ",
"                                                                                                                                ",
"                                                                                                                                ",
"                                                                                                                                ",
"                                                                                                                                ",
"                                                                                                                                ",
"                                                                                                                                ",
"                                                                                                                                ",
"                                                                                                                                ",
"                                                                                                                                ",
"                                                             .....                                                              ",
"                                                             .....                                                              ",
"                                                             ..%..                                                              ",
"                                                             ..*..                                                              ",
"                                                             ..$..                                                              ",
"                                                             ..#..                                                              ",
"                                                             ..#..                                                              ",
"                                                             ..#..                                                              ",
"                                                             ..#..                                                              ",
"                                                             ..#..                                                              ",
"                                                             ..#..                                                              ",
"                                                             ..#..                                                              ",
"                                                             ..#..                                                              ",
"                                                             ..#..                                                              ",
"                                                             ..#..                                                              ",
"                                                             ..#..                                                              ",
"                                                             ..#..                                                              ",
"                                                             ..#..                                                              ",
"                                                             ..#..                                                              ",
"                                                             ..#..                                                              ",
"                                                             ..#..                                                              ",
"                                                             ..#..                                                              ",
"                                                             ..#..                                                              ",
"                                                             ..#..                                                              ",
"                                                             ..#..                                                              ",
"                                                             ..#..                                                              ",
"                                                             ..#..                                                              ",
"                                                             ..#..                                                              ",
"                                                             ..#..                                                              ",
"                                                             ..#..                                                              ",
"                                                             ..#..                                                              ",
"                                                             ..#..                                                              ",
"                                                             ..#..                                                              ",
"                                                             ..#..                                                              ",
"                                                             ..#..                                                              ",
"                                                             ..#..                                                              ",
"                                                             ..#..                                                              ",
"                                                             ..#..                                                              ",
"                                                             ..#..                                                              ",
"                                                             ..#..                                                              ",
"                                                             ..#..                                                              ",
"                                                             ..#..                                                              ",
"                                                             ..#..                                                              ",
"                                                             ..#..                                                              ",
"                                                             ..#..                                                              ",
"                                                             ..#..                                                              ",
"                                                             ..#..                                                              ",
"                                                             ..#..                                                              ",
"                                                             ..#..                                                              ",
"                                                             ..#..                                                              ",
"                                                             ..#..                                                              ",
"                                                             ..#..                                                              ",
"                                                             ..#..                                                              ",
"                                                             ..#..                                                              ",
"                                                             ..#..                                                              ",
"                                                             ..#..                                                              ",
"                                                             ..#..                                                              ",
"                                                             ..#..                                                              ",
"                                                             ..#..                                                              ",
"                                                             ..#..                                                              ",
"                                                             ..#..                                                              ",
"                                                             ..#..                                                              ",
"                                                             ..#..                                                              ",
"                                                             ..#..                                                              ",
"                                                             ..#..                                                              ",
"                                                             ..#..                                                              ",
"                                                             ..#..                                                              ",
"                                                             ..#..                                                              ",
"                                                             ..#..                                                              ",
"                                                             ..#..                                                              ",
"                                                             .....                                                              ",
"                                                             .....                                                              ",
"                                                           ..........                                                           ",
"                                                         ...............                                                        ",
"                                                        ....+#%**&$@+....                                                       ",
"                                                       ...+$->'''',>=#+...                                                      ",
"                                                      ...@*,')')'''',>&+...                                                     ",
"                                                     ...@=)))))))'',,,>*+..                                                     ",
"                                                     ..+*)))))!))))'',,>%+..                                                    ",
"                                                    ...$'))!!!!)!))'',,,;#..                                                    ",
"                                                    ..+-)))!!!!!!))'',>>>*+..                                                   ",
"                                                    ..#'))!)!!!!!!)'',,>>-@..                                                   ",
"         .............................................%))))!!!!!!!))',,>;;$...........................................          ",
"         .............................................*))))!!!!!!!))',>>>;%...........................................          ",
"         ..%*$######################################..*'))))!!!!!!)'',>>;;&..@###################################+....          ",
"         .............................................*''))))!!!))),,,>>;-%...........................................          ",
"         .............................................%''')))))))''',>>;;;$...........................................          ",
"                                                    ..$>',')))))'',>>>;;--@....                                                 ",
"                                                    ..+-,',','''',,>>;;;-*+..                                                   ",
"                                                    ...$,,,,,,,,,,>>>;;--#..                                                    ",
"                                                     ..+*,,,,>,,>>>;;;-;%+..                                                    ",
"                                                     ...@=,>>>>>>;>;;;-*+...                                                    ",
"                                                      ...@*>>>>;;;;;--&+...                                                     ",
"                                                       ...+$=;>;;;--*#+...                                                      ",
"                                                        ....+#$&&%$@@....                                                       ",
"                                                         ......+.+......                                                        ",
"                                                          .............                                                         ",
"                                                             .......                                                            ",
"                                                                                                                                ",
"                                                                                                                                ",
"                                                                                                                                ",
"                                                                                                                                ",
"                                                                                                                                ",
"                                                                                                                                ",
"                                                                                                                                ",
"                                                                                                                                ",
"                                                                                                                                ",
"                                                                                                                                ",
"                                                                                                                                "};
