/* XPM */
char * snaptoinsert_xpm[] = {
"128 128 17 1",
" 	c None",
".	c #000000",
"+	c #2B2C29",
"@	c #2F3004",
"#	c #565602",
"$	c #52534A",
"%	c #8C8E7F",
"&	c #9F9E53",
"*	c #A8A804",
"=	c #B9BBB8",
"-	c #C9C800",
";	c #CECE50",
">	c #CCCF7B",
",	c #E2E4E1",
"'	c #FBFB00",
")	c #FDFC61",
"!	c #FEFD96",
"                                                                                                                                ",
"                                                                                                                                ",
"                                                                                                                                ",
"                                                                                                                                ",
"                                                                                                                                ",
"                                                                                                                                ",
"                                                                                                                                ",
"                                                                                                                                ",
"                                                                                                                                ",
"                                                                                                                                ",
"                                                                                                                                ",
"                                                                                                                                ",
"                                                                                                                                ",
"                                                                                                                                ",
"                                                                                                                                ",
"                                                                                                                                ",
"                                                                                                                                ",
"                                                                                                                                ",
"                                                                                                                                ",
"                                                                                                                                ",
"                                                                                                                                ",
"                                                                                                                                ",
"                                                                                                                                ",
"                                                                                                                                ",
"                                                                                                                                ",
"                                                                                                                                ",
"                                                                                                                                ",
"                                                                                                                                ",
"                                                                                                                                ",
"                                                                                                                                ",
"                                                                                                                                ",
"                                                                                                                                ",
"                        .......................................................................                                 ",
"                        ........................................................................                                ",
"                        ...$+..+++++++++++++++++++++++++++++++++++++++++++++++++++++++$$$%$.....                                ",
"                        ..$%..............................................................+.....                                ",
"                        ..+.....................................................................                                ",
"                        .....@############################################################@.....                                ",
"                        .....**-*-*-*-*--*--*-*-*--*-*--*---*-*-*--*-*-*-*---*-*-*---*--*-#.....                                ",
"                        .....#--*------*------------------*---------------*-------*---*---#.....                                ",
"                        .....&&>>&>>>>>>>>>>>>>>>>>>>>>>&>>>>>>>>>>>>>>>>>>>>>>>>>>>>>>>>>&.....                                ",
"                        .....#>*>;;;;;;;;;;;;;;;;;;;;;;;;;;;;;;;;;;;;;;;;;;;;;;;;;;;;;;;;;&.+...                                ",
"                        ..+..*-*----''-'-'-'-'-'-'-'-''-')'-'-'-'-'-'-'-'-'-'-'-'-'-''-''-*.+...                                ",
"                        .....#-----'-'''''''''''''''''''''''''''''''''''''''''''''''''''-'*.$...                                ",
"                        ..+..&>&>!>!!!!>!!!>!!>!!!>!>!!!>!!!!>!!!!>!!!!!!>!!!!!!>!!!>!!!!!&.$...                                ",
"                        .....#;;;;));)))))))))))))))))))))))))))))))))))))))))))))))))))))&.+...                                ",
"                        ..+..&-*--''''''''''''''''''''''''''''''''''''''''''''''''''''''''*.$...                                ",
"                        .....*-----'''''''''''''''''''''''''''''''''''''''''''''''''''''''*.$...                                ",
"                        ..+..%&>>!!!!!!!!!!!!!!!!!!!!!!!!!!!!!!!!!!!!!!!!!!!!!!!!!!!!!!!!!&.+...                                ",
"                        .....&;;;;;)))))))))))))))))))))))))))))))))))))))))))))))))))))))&.$...                                ",
"                        ..+..#----''''''''''''''''''''''''''''''''''''''''''''''''''''''''*.$...                                ",
"                        .....*---'-'''''''''''''''''''''''''''''''''''''''''''''''''''''''*.+...                                ",
"                        ..+..%&>>>!!!!!!!!!!!!!!!!!!!!!!!!!!!!!!!!!!!!!!!!!!!!!!!!!!!!!!!!&.$...                                ",
"                        .....#;;;;;;))))))))))))))))))))))))))))))))))))))))))))))))))))))&.$...                                ",
"                        ..+..**--'''''''''''''''''''''''''''''''''''''''''''''''''''''''''*.+...                                ",
"                        .....#----''''''''''''''''''''''''''''''''''''''''''''''''''''''''*.+...                                ",
"                        ..+..&>>>>>!!!!!!!!!!!!!!!!!!!!!!!!!!!!!!!!!!!!!!!!!!!!!!!!!!!!!!!&.$...                                ",
"                        ..+..&&;;;;)))))))))))))))))))))))))))))))))))))))))))))))))))))))&.$...                                ",
"                        .....**--')'''''''''''''''''''''''''''''''''''''''''''''''''''''''*.$...                                ",
"                        ..+..#----''''''''''''''''''''''''''''''''''''''''''''''''''''''''*.%...                                ",
"                        .....&>>>>>!!!!!!!!!!!!!!!!!!!!!!!!!!!!!!!!!!!!!!!!!!!!!!!!!!!!!!!&.%...                                ",
"                        ..+..#;;;);)))))))))))))))))))))))))))))))))))))))))))))))))))))))&$$...                                ",
"                        .....&-*--''''''''''''''''''''''''''''''''''''''''''''''''-*##@@@@@$$...                                ",
"                        .....#---'-''''''''''''''''''''''''''''''''''''''''''''*#......+$$%%$...                                ",
"                        ..+..&>>>>!!!!!!!!!!!!!!!!!!!!!!!!!!!!!!!!!!!!!!!!!!!&+...++$+$$$$$$+.....                              ",
"                        .....#;;;;;))))))))))))))))))))))))))))))))))))))))&+..+$$..........+.......                            ",
"                        ..+..**---''''''''''''''''''''''''''''''''''''''''#..$$$.....@@@#@...........                           ",
"                        .....#---'-''''''''''''''''''''''''''''''''''''''@.+%+....@##**-*-#...........                          ",
"                        ..+..&&>>>!!!!!!!!!!!!!!!!!!!!!!!!!!!!!!!!!!!!!>+.$%...+@$&&>>>>>>%.............                        ",
"                     .........#>;;;)))))))))))))))))))))))))))))))))));..%+...@&;;;;&;;;;;#....@#@.......                       ",
"                   ..............#'-''''''''''''''''''''''''''''''''''..%+..@#----*---*---*....#*#@......                       ",
"                  .....$$$%%$+....#''''''''''''''''''''''''''''''''''@.$+..@*-------------#....#--*@......                      ",
"                 ...+$==,,,,,==++..%!!!!!!!!!!!!!!!!!!!!!!!!!!!!!!!!%.$$..@>>>>>>>>>>>!!!!&.+..@>&>&@......                     ",
"                ....%,,,,,,,,,=,$+..#))))))))))))))))))))))))))))));..%..@;;;;;;;;;;;);;);&.+.+@;;>;&@......                    ",
"               ...+=,,,,,,,,,,,,=%...''''''''''''''''''''''''''''''#.%..@*---*-*--''''''''*.$..#-*----@.....                    ",
"               ...%,,,,,,,,,,,,,,=%..#''''''''''''''''''''''''''''-..%..#--------'-'-'''''*.$..#------*@.....                   ",
"              ...$,,,,,,,,,,,,,=,==$..!!!!!!!!!!!!!!!!!!!!!!!!!!!!$.$+.+&>>>>>>!>!!!!!!!!!&.%..$>>>>>>>$.....                   ",
"              ..+=,,,,,,,,,,,,,,,==%..#)))))))))))))))))))))))))))..%..@;;&;;;;);)))))))))&.$..#;;;;;))&@.....                  ",
"              ..+,,,,,,,,,,,,,,,=,==+..''''''''''''''''''''''''''*.$%.@*------''''''''''''*$$..#----'''-#.....                  ",
"              .+$,,,,,,,,,,,,,,,,===$..##########################..%$.@###################@%...#-----'''*@....                  ",
"              ..%,,,,,,,,,,,,,,,====$.....+..+.+.+.+..+.+.+.+.+.+$%$+.............+.+.+.$$%+...$>>>>!>!!>@....                  ",
"              ..%,,,,,,,,,,,,,,,,===%..+$+$$+$+$+$+$$$+$+$+$$$%%$%%+.......+$+$$$$+$+$$$$+.....@;;;;;);))#.....                 ",
"              ..%,,,,,,,,,,,,,,=====$............................+.............................#----'''''*@....                 ",
"              .+$,,,,,,,,,,,,,=,====$........................................................@#**--'-''''-@....                 ",
"              ..$,,,,,,,,,,,,,======+................................@%#%#%#%#%#%&#%&%&%#&%#%&&&>>>>!>!!!!$....                 ",
"              ...=,,,,,,,,,,,=,====%...                         ....+&*;&;;;;;;;;>;*;*;;;;;*;;>;;;;;;)))))@$...                 ",
"              ...$=,,,,,,,,=======%+..                          .....#-*-**---*------*---*--*--*---'''''''@$...                 ",
"               ...%,=,=,,==,======$+..                           ....#-*--------------------------'-'''''*@$...                 ",
"               ...+%,===,========%+...                           ....+&>>&>>>>>>>>>>>>>>>>!>>!>>!!>!!!!!!$.%...                 ",
"                ...+%=,=,=======$+...                            ..+.@&;;;;;)))))))))))))););)););))!))))#.$..                  ",
"                 ...+$%======%%+....                             ..+..#*--'-''-''-')''-'-'''''''''''''''*@$...                  ",
"                  ....++$%$$$++....                              .....@*--'-''''''''''''''''''''''''''''#.%...                  ",
"                   .......+.......                                ..+.@%>>>!!!!!!!!!!!!!!!!!!!!!!!!!!!!!$.$..+                  ",
"                    .............                                 .....@;;;;)))))))))))))))))))))))))))&@$...                   ",
"                       .......                                     ....@#--')'''''''''''''''''''''''''-#.%...                   ",
"                                                                   .....#---''''''''''''''''''''''''''#.%...                    ",
"                                                                    ..+..@>>>!!!!!!!!!!!!!!!!!!!!!!!!&@$+...                    ",
"                                                                    ......@;;;))))))))))))))))))))));$.%...                     ",
"                                                                     ......@-')''''''''''''''''''''*#.&....                     ",
"                                                                      ......@*-''''''''''''''''''-#@.%....                      ",
"                                                                      .......@$>>!!!!!!!!!!!!!!!&$.+%....                       ",
"                                                                       ........@&;))))))))))))&#@.%$....                        ",
"                                                                        ........+@#*-'''''--##@.$%.....                         ",
"                                                                         ...........@@#@#@@+..$%......                          ",
"                                                                           ...............+$%$.......                           ",
"                                                                             .........++++.........                             ",
"                                                                              ...................                               ",
"                                                                                 .............                                  ",
"                                                                                                                                ",
"                                                                                                                                ",
"                                                                                                                                ",
"                                                                                                                                ",
"                                                                                                                                ",
"                                                                                                                                ",
"                                                                                                                                ",
"                                                                                                                                ",
"                                                                                                                                ",
"                                                                                                                                ",
"                                                                                                                                ",
"                                                                                                                                ",
"                                                                                                                                ",
"                                                                                                                                ",
"                                                                                                                                ",
"                                                                                                                                ",
"                                                                                                                                ",
"                                                                                                                                ",
"                                                                                                                                ",
"                                                                                                                                "};
