/* XPM */
char * snapfrom_xpm[] = {
"128 128 17 1",
" 	c None",
".	c #000000",
"+	c #1A1B19",
"@	c #292B28",
"#	c #3B3D3B",
"$	c #484A47",
"%	c #5B5D5A",
"&	c #696B68",
"*	c #7A7C79",
"=	c #898C89",
"-	c #9FA19E",
";	c #B0B3B0",
">	c #BFC1BE",
",	c #CED1CD",
"'	c #DDDFDC",
")	c #E9ECE8",
"!	c #F7F9F6",
"                                                                                                                                ",
"                                                                                                                                ",
"                                                                                                                                ",
"                                                                                                                                ",
"                                                                                                                                ",
"                                                                                                                                ",
"                                                                                                                                ",
"                                                                                                        ..........              ",
"                                                                                                      ...............           ",
"                                                                                                     ....+#%**&%#+....          ",
"                                                                                                    ...+$-''''',>=#+...         ",
"                                                                                                   ...@*')))!)''''>&+...        ",
"                                                                                                  ...@-'!!)!)))'''',*+..        ",
"                                                                                                  ..+=)!)!!!!!!)'','>&+..       ",
"                                                                                                 ...$'!!!!!!!!!)''',,>#..       ",
"                                                                                                 ..+-!)!!!!!!!!!''',,>*+..      ",
"                                                                                                 ..$')!!!!!!!!!!''',,>;@..      ",
"                   .....           .....           .....           .....           .....         ..%'!)!!!!!!!!!)''>,>>$..      ",
"                   .*...           .*...           .*...           .*...           .*...         .+*))!!!!!!!!!!)''>,>>%..      ",
"                   .#...           .#...           .#...           .#...           .#...         ..=')'!!!!!!!!!'',,>;;&..      ",
"                   .....           .....           .....           .....           .....         ..=')))!!!!!!!''',>>>;%..      ",
"                   .....           .....           .....           .....           .....         ..&')'))!!!)!))',,>>;;$..      ",
"                                                                                                 ..#'''')'))))'''>>>>;-@..      ",
"                                                                                                 ..+-'''''')''',,>>;;>*+..      ",
"                                                                                                 ...%,','''',,,>>>>;;;#..       ",
"                                                                                                  ..+=,,,,,,,,,>>>;;;&+..       ",
"                                                                                                  ...@=',>,>>>>>;;;;*+...       ",
"                                                                                                   ...@*>,>>>>;;;;-&@...        ",
"                                                                                                    ...+%=>>>;;>;=#+...         ",
"                                                                                                     ....+#%&&&$#+....          ",
"                                                                                                      ......+.+......           ",
"                                                                                                       .............            ",
"                                                                                                          .......               ",
"                                                                                                                                ",
"                   .....                                                                                                        ",
"                   .*...                                                                                                        ",
"                   .$...                                                                                                        ",
"                   .....                                                                                                        ",
"                   .....                                                                                                        ",
"                                                                                                                                ",
"                                                                                                                                ",
"                                                                                                                                ",
"                                                                                                                                ",
"                                                                                                                                ",
"                                                                                                                                ",
"                                                                                                                                ",
"                                                                                                                                ",
"                                                                                                                                ",
"                                                                                                                                ",
"                                                                                                                                ",
"                                                                                                                                ",
"                   .....                                                                                                        ",
"                   .*...                                                                                                        ",
"                   .#...                                                                                                        ",
"                   .....                                                                                                        ",
"                   .....                                                                                                        ",
"                                                                                                                                ",
"                                                                                                                                ",
"                                                                                                                                ",
"                                                                                                                                ",
"                                                                                                                                ",
"                                                                                                                                ",
"                                                                                                                                ",
"                                                                                                                                ",
"                                                                                                                                ",
"                                                                                                                                ",
"                                                                                                                                ",
"                                                                                                                                ",
"                   .....                                                                                                        ",
"                   .*...                                                                                                        ",
"                   .$...                                                                                                        ",
"                   .....                                                                                                        ",
"                   .....                                                                                                        ",
"                                                                                                                                ",
"                                                                                                                                ",
"                                                                                                                                ",
"                                                                                                                                ",
"                                                                                                                                ",
"                                                                                                                                ",
"                                                                                                                                ",
"                                                                                                                                ",
"                                                                                                                                ",
"                                                                                                                                ",
"                                                                                                                                ",
"                                                                                                                                ",
"                   .....                                                                                                        ",
"                   .*...                                                                                                        ",
"                   .#...                                                                                                        ",
"                   .....                                                                                                        ",
"                   .....                                                                                                        ",
"                                                                                                                                ",
"                                                                                                                                ",
"                                                                                                                                ",
"                                                                                                                                ",
"                                                                                                                                ",
"                                                                                                                                ",
"                                                                                                                                ",
"                                                                                                                                ",
"                                                                                                                                ",
"                                                                                                                                ",
"                     .                                                                                                          ",
"                 .........                                                                                                      ",
"               .............                                                                                                    ",
"              ...............                                                                                                   ",
"             ....$==*%@.......                                                                                                  ",
"             ...=>;=%$#+......                                                                                                  ",
"            ...%>-&@+..........                                                                                                 ",
"            ...-;%@............                                                                                                 ",
"            ...-*@..............                                                                                                ",
"           ....*%+..............                                                                                                ",
"           ....&#...............                                                                                                ",
"           ....##...............                                                                                                ",
"            ....+...............                                                                                                ",
"            ...................                                                                                                 ",
"            ...................                                                                                                 ",
"             ..................                                                                                                 ",
"             .................                                                                                                  ",
"              ...............                                                                                                   ",
"               .............                                                                                                    ",
"                 ..........                                                                                                     ",
"                   ......                                                                                                       ",
"                                                                                                                                ",
"                                                                                                                                ",
"                                                                                                                                ",
"                                                                                                                                ",
"                                                                                                                                ",
"                                                                                                                                ",
"                                                                                                                                "};
