/* XPM */
char * snaptocenter_xpm[] = {
"128 128 17 1",
" 	c None",
".	c #000000",
"+	c #0C0F0B",
"@	c #1A1B19",
"#	c #2A2C29",
"$	c #3A3C3A",
"%	c #484A47",
"&	c #595B58",
"*	c #696B68",
"=	c #7C7E7B",
"-	c #90928F",
";	c #A5A7A4",
">	c #B7B9B6",
",	c #C4C7C3",
"'	c #D1D4D1",
")	c #DFE1DE",
"!	c #F3F5F2",
"                                                                                                                                ",
"                                                                                                                                ",
"                                                                                                                                ",
"                                                                                                                                ",
"                                                                                                                                ",
"                                                                                                                                ",
"                                                                                                                                ",
"                                                       ..........+........                                                      ",
"                                                  ....@$&&%#+....+#%&%%#......                                                  ",
"                                               ...#&&$....................$$@.....                                              ",
"                                            ...%*%...........       ..........#@.....                                           ",
"                                          ..%*%.......                   ........@+....                                         ",
"                                        .@**......                           .......@....                                       ",
"                                      .#=&......                                ......@....                                     ",
"                                    .@=&.....                                      .....+....                                   ",
"                                  ..**.....                                          .........                                  ",
"                                 .$=....                                               .........                                ",
"                               ..=&....                                                  ........                               ",
"                              .$=....                                                      ........                             ",
"                             .**....                                                         .......                            ",
"                            .=$...                                                            .......                           ",
"                           +=....                                                               ......                          ",
"                         .@=...                                                                  ......                         ",
"                        .@=...                                                                    ......                        ",
"                        @=...                                                                       .....                       ",
"                       +=...                                                                         ..+..                      ",
"                      .=...                                                                           .....                     ",
"                     .=...                                                                             .....                    ",
"                    .*$..                                                                              .....                    ",
"                   .$*..                                                                                ..+..                   ",
"                   .=...                                                                                 .....                  ",
"                  .=...                                                                                   .....                 ",
"                 .$&..                                                                                    ..@..                 ",
"                 .=...                                                                                     .....                ",
"                .*...                                                                                       ....                ",
"                @*..                                                                                        .....               ",
"               .*...                                                                                         .....              ",
"               #&..                                                                                          .....              ",
"              .=..                                                                                            .....             ",
"              @*..                                                                                             .+..             ",
"             .*...                                                                                             .....            ",
"             .*..                                                                                              ..@..            ",
"            .$@..                                                                                               ....            ",
"            .*..                                                                                                .....           ",
"            .%..                                                                                                 .+..           ",
"           .$...                                                                                                 ....           ",
"           .&..                                                                                                   ....          ",
"           .%..                                                                                                   .@..          ",
"           #..                                                                                                    .@..          ",
"          .&..                                                                                                    ....          ",
"          .&..                                             ..........                                              .+..         ",
"          .$..                                           ......+++......                                           .#..         ",
"          @+.                                           ....@$&*=*&#@....                                          .@..         ",
"         .$..                                          ...@%;'))))',-%+...                                         ....         ",
"         .%..                                         ...#=))!)!)))'',*@+..                                        ....         ",
"         .&..                                        ...#-)!!!!!!!)))''=@..                                         ....        ",
"         .%..                                        ..@-!!!!!!!!)!))'',*+..                                        ....        ",
"         .$..                                       ...&)!!!!!!!!!)))'''>$..                                        .@..        ",
"         .+..                                       ..@;!!!!!!!!!!!)))',,=@..                                       .$..        ",
"         ...                                        ..$))!!!!!!!!!!)))'',>#..                                       .%..        ",
"         ...                                        ..&!!!!!!!!!!!!!)'',,>%..                                       .%..        ",
"         ...                                        .+=))!!!!!!!!!!))'',>>&+.                                       .%..        ",
"         .@.                                        .+-)!)!!!!!!!!!))',,>>*..                                       .$..        ",
"         .#.                                        ..=))!!!!!!!!!!)'',>>>&+.                                       .$..        ",
"         .%.                                        .+*))))!!!!!!)))',,,>;%..                                       .$..        ",
"         .&..                                       ..$'))))!)!)!))',,>>>;#..                                       .$..        ",
"         .%..                                       ..@;)))))))))'',,>>>>=@..                                       .$..        ",
"         .%..                                       ..+&'''''))''',,>>>>;$..                                        .$..        ",
"         .#..                                        ..@-'''''''',,>>>>;*@..                                        @#..        ",
"         .@..                                        ...#-'',',,>,>>>;>=@...                                        $..         ",
"         ....                                         ...#=,,,,>,>>>>;*@+..                                        .&..         ",
"          .+..                                         ...@&->>>>>>;=%@...                                         .*..         ",
"          .$..                                          ....@$&***%$@....                                          .&..         ",
"          .#..                                           ..+..+.@.+.....                                           +$..         ",
"          .+..                                            .............                                            %..          ",
"          .....                                              .......                                              .*..          ",
"           .#..                                                                                                   .*..          ",
"           .@..                                                                                                   $#..          ",
"           .....                                                                                                 .*..           ",
"           ..@..                                                                                                 .*..           ",
"            .+..                                                                                                 %#..           ",
"            .....                                                                                               .=..            ",
"             .@..                                                                                               @&..            ",
"             .....                                                                                             .*...            ",
"             ..@..                                                                                             +*..             ",
"              .....                                                                                           .*...             ",
"              ..+..                                                                                           +*..              ",
"               .....                                                                                         .*...              ",
"               .....                                                                                         @&..               ",
"                .....                                                                                       .=...               ",
"                .....                                                                                       %$..                ",
"                 .....                                                                                     +=..                 ",
"                  .....                                                                                   .=...                 ",
"                  .....                                                                                  .&$..                  ",
"                   .....                                                                                 $*..                   ",
"                    .....                                                                               @=...                   ",
"                     .....                                                                             .=...                    ",
"                     .....                                                                            .=...                     ",
"                      .....                                                                          .=#..                      ",
"                       .....                                                                        .=#..                       ",
"                        ......                                                                     .=#..                        ",
"                         ..+...                                                                   .=#...                        ",
"                          ...+..                                                                 +=...                          ",
"                           ...@...                                                             .$=...                           ",
"                            ...+...                                                           .&*...                            ",
"                             ........                                                       .@=@...                             ",
"                               .......                                                     .&=.+..                              ",
"                                ........                                                 .#=#...                                ",
"                                 .........                                             .@=&....                                 ",
"                                   ....@....                                         .+**....                                   ",
"                                     ....+.....                                   ..#*&.....                                    ",
"                                      ...........                               ..&=$.....                                      ",
"                                         ......+.....                       ...%=&......                                        ",
"                                           ......+#+......             ....#&*&.......                                          ",
"                                             ........+@@.............@%&**%........                                             ",
"                                                ............@#$$$$%%$$..........                                                ",
"                                                    ........................                                                    ",
"                                                          ............                                                          ",
"                                                                                                                                ",
"                                                                                                                                ",
"                                                                                                                                ",
"                                                                                                                                ",
"                                                                                                                                ",
"                                                                                                                                ",
"                                                                                                                                ",
"                                                                                                                                ",
"                                                                                                                                ",
"                                                                                                                                "};
