/* XPM */
char * snowflake_xpm[] = {
"128 128 17 1",
" 	c None",
".	c #000000",
"+	c #200101",
"@	c #3C0201",
"#	c #121411",
"$	c #5C0000",
"%	c #7C0101",
"&	c #242321",
"*	c #3B3C3A",
"=	c #8D3332",
"-	c #4E4F4D",
";	c #5C5D5A",
">	c #676966",
",	c #AC5857",
"'	c #777976",
")	c #C38586",
"!	c #D6ADAC",
"                                                                                                                                ",
"                                                                                                                                ",
"                                                                                                                                ",
"                                                                                                                                ",
"                                                                                                                                ",
"                                                                                                                                ",
"                                                                                                                                ",
"                                                             **&...                                                             ",
"                                                             *-*...                                                             ",
"                                                             *>-&..                                                             ",
"                                                          &**-'>*.....                                                          ",
"                                                          .&*;';&.....                                                          ",
"                                                          ...&&#......                                                          ",
"                                                          ............                                                          ",
"                                                          ............                                                          ",
"                                                             ......                                                             ",
"                                                             ......                                                             ",
"                                               *             ......             .                                               ",
"                                              >-.            ......            &..                                              ",
"                                             &;'-..          ..&...          *-*...                                             ",
"                                             .#;'*...        ..*...        *->>#...                                             ",
"                                             ....*&...       .&*...       *>''.....                                             ",
"                                              .....##...     &-;...     *;''*.....                                              ",
"                                                .....#....   ->>#..   *-'';.....                                                ",
"                                                 ......&..&  ''>&.. #->''#.....                                                 ",
"                                                   .....&-;>'''>*...*;;&.....                                                   ",
"                               ->*..                 .....*>''>;*..........                 >;&..                               ",
"                               &';..                  ......+**&..........                  -'*..                               ",
"                               .>'..                    ................                    &'*..                               ",
"                               .-;..                      ............                      .'&..                               ",
"                               .&*..                       ..........                       .*...                               ",
"                               ..#..                         ......                         .&...                               ",
"                               ..&..                         ......                         .&...                               ",
"                               ..&..                         ......                         .&...                               ",
"              ;&               ..#..                         ......                         .&...               ..              ",
"             -'-..             ..#..                         ..&...                         .&...             **...             ",
"             #;';...           ..&..                         ..-...                         .&...           *-;-...             ",
"            ...&-*...          .##..                         .&;...                         .&...          -;'>.....            ",
"             .....##...        .*&..                         &->...                         .&...        *;''*.....             ",
"               .....##...      #-&..                         ->'#..                         .&&..      *-'';.....               ",
"                ......#....    ->&..                   ;--*;;>'>&........                   .**..    *-''>......                ",
"                  ......&...   >'...                   *->'''''-&........                   .*-..  &->''#.....                  ",
"                    .....#&*-; '>...                   .&*-;--*&.........                   .*>*..&->'*.....                    ",
"                      ....&;>'''-...                   ..................                   .*>;#.**&.....                      ",
"                       ....&>''>&...                   ..................                   .->>*##......                       ",
"                         ...&-;*....                         ..........                     &-;-&......                         ",
"                           .#&#.......         &             ......             #          *--&......                           ",
"                           +#..........       *&..           ......           ;-#.       ->>-........                           ",
"                          --.............    *-&...          ......          &-'*..    *-''*...........                         ",
"                        ->>&..........#....  -;&...          ..&...          .&'>#.  &->'>..............                        ",
"                      *-''*...... .....#***-;>;....          ..-...          ..-'-..#*>>&..... ...........                      ",
"                    *-''>......     ....#>''''*...           .&;...           .*>>*&&*#.....     ......#....                    ",
"                   *;''&.....        .....-'>-...            .*>...            &;>*&......         .....##...                   ",
"                 -;''-.....            ....**#....           @*,$@@@          &*--&......            .....##...                 ",
"               *->';......               ...........       -===%%%%$$@       -;-#......               ......#....               ",
"              ..**......                 ............     =,,,),==%%%$$    ->'-........                 ..........              ",
"              ........                   ..............  =,))!!)),=%%%$$ &-''-.........                   ........              ",
"               .....                    ............****==,!!!!)),,%%%%%@->-............                    .....               ",
"                ..                      ......  .....*;-%,)!!),,====%%%$$@......  ......                     ....               ",
"                                         ....     ....+==,!!)==%%%%%%%%%$@....     ....                        .                ",
"                                           ..       ..+%%,!)=%%%%%%%%%%%%$+.       ..                                           ",
"                                                     .@%%,,,=%%%%%%%%%%$$$+                                                     ",
"                                                      $%%,,=%%%%%%%%%%%%$$@                                                     ",
"                                                      @%%===%%%%%%%%%%%%$$@                                                     ",
"                                                      $%%%%%%%%%%%%%%%%%$$@                                                     ",
"                                                      @%%%%=%%%%%%%%%%$%$$+                                                     ",
"                                                      @=%%%%%%%%%%%%%%%$$$+                                                     ",
"                                           #.       ->;$%%%%%%%%%%%%%%$$$@...      *#                                           ",
"                                         ;-&.     *;''*+=%%%=%%%%%%%%$$$@+....     &...                                         ",
"                ;#                      &->-..  &->'>..+@$$%%%%%%%%%$$$$@.......  **....                      #.                ",
"               -';..                    .&>'*..&;'>&....+$$$=%=%$%$$$$$++....#&&**--....                    **#..               ",
"              .#-'-...                   #;'>&&**&.....  +$$$$$$$$$$$@@+......-'>'>-...                   *->;....              ",
"              ...#-*....                 .-'>*&......     +@@$$$$$@$@+..  .....->';&...                 *->''.....              ",
"               .....##...                &---&......        +++@+@+++..     ....*-*....                *;''&.....               ",
"                 .....##...             ---#......           ....+..          ...........            *;''-.....                 ",
"                  ......#....         ->>-.......            ......            ...........         *-'';......                  ",
"                    .....#&....     *;''*.........           ......           ..............     &-;''......                    ",
"                      .....-&...  &-'';............          ......          ............##...  &->'-.....                      ",
"                        ...&;*#..&-;>......  ......          ..*...          ......  .....&**&**-'>*....                        ",
"                         ...->;*&**#.....    ......          .#-...          ......    ....#>>>>>;&...                          ",
"                           .&-;-&#.....       ....           .-;...           ....       ....;'>;&...                           ",
"                           #**&&.....          .             *;>#..             .         ....&*#....                           ",
"                         ---&.......                         >'>&...                        ...........                         ",
"                        ;'>&........                   -;>;'''';&........                   .............                       ",
"                      *>''&.........                   .*->'>;;*.........                   ..............                      ",
"                    *-''-...........                   ..................                   ...........#....                    ",
"                  *-''>......  .....                   ..................                   .....  ......#....                  ",
"                 ->''#.....    .....                   ..................                   .....    .....#&...                 ",
"               -;''*.....      .....                         ......                         .#...      .....##...               ",
"             *->'-.....        .....                         ......                         .&...        ..........             ",
"            ..#&......         ..#..                         ......                         .&...         ..........            ",
"             .......           ..#..                         ......                         .&...           .......             ",
"             .....             ..&..                         ..*...                         .&...             .....             ",
"              ..               ..#..                         ..-...                         .&...               ..              ",
"                               ..#..                         .&;...                         .&...                               ",
"                               ..&..                         .-'...                         .&...                               ",
"                               ..#..                         &>'...                         .&...                               ",
"                               .....                        *->'&....                       .....                               ",
"                               .....                      *->''-&.....                      .....                               ",
"                               .....                    *-;'>>-&........                    .....                               ",
"                               .....                   *>'';*&...........                   .....                               ",
"                               .....                 -;''-+................                 .....                               ",
"                                                   *-'';................#....                                                   ",
"                                                  ->'>...... ...... ......&...                                                  ",
"                                                *>''&+....   ......   .....##...                                                ",
"                                              --''-.....     ......     .....#....                                              ",
"                                             .&--.....       ......      ..........                                             ",
"                                             ........        ..#...        ........                                             ",
"                                             ......          ..*...          ......                                             ",
"                                              ...            .#-...            ...                                              ",
"                                               .             .*;...             .                                               ",
"                                                             .;>...                                                             ",
"                                                             *''&..                                                             ",
"                                                          &&*-';&.....                                                          ",
"                                                          .#*-;-#.....                                                          ",
"                                                          ....&.......                                                          ",
"                                                          ............                                                          ",
"                                                          ............                                                          ",
"                                                             ......                                                             ",
"                                                             ......                                                             ",
"                                                             ......                                                             ",
"                                                                                                                                ",
"                                                                                                                                ",
"                                                                                                                                ",
"                                                                                                                                ",
"                                                                                                                                ",
"                                                                                                                                ",
"                                                                                                                                "};
