/* XPM */
char * solidbox_xpm[] = {
"128 128 17 1",
" 	c None",
".	c #000000",
"+	c #1C1E1B",
"@	c #2E2F2D",
"#	c #3A3C39",
"$	c #494B48",
"%	c #5A5C59",
"&	c #6B6E6B",
"*	c #7C7E7B",
"=	c #929491",
"-	c #9FA19E",
";	c #AFB1AE",
">	c #BEC0BD",
",	c #CED0CD",
"'	c #DFE1DE",
")	c #EBEDEA",
"!	c #F6F9F5",
"                                                                                                                                ",
"                                                                                                                                ",
"                                                                                                                                ",
"                                                                                                                                ",
"                                                                                                                                ",
"                                                                                                                                ",
"                                                                                                                                ",
"                                                                                                                                ",
"                                                                                                                                ",
"                                                                                                                                ",
"                                        ........................................................................                ",
"                                       .........................................................................                ",
"                                      ...+$@.+++@@@@@@@@@@@@@@@@@@@@@@@@@@@@@@@@@@@@@@@@@@@@@@@@@@#$&&&$+.......                ",
"                                     ...*&............................................................$**&%.....                ",
"                                    ...*................................................................#&&+.....               ",
"                                   ..+*...+@&==********************************************************%.++......               ",
"                                  ..+*...@*=-=---==-==-=-=-=-==--=-====--====-=-=-=-==-=-==-=--==-=-=-*..........               ",
"                                 ..+*...@=-----------------------------------------------------------*.+.........               ",
"                                ..+*...#=--------------------------;------;-------------------------*.@@.........               ",
"                               ..+*...$=---;-;-;-;-;;-;--;-;;-;--;---;-;-;-;-;-;-;-;;-;;-;-;-;-;;-;*.@*...++.....               ",
"                              ..+*...#-;;;;-;;-;;;-;;-;;;-;-;-;;;;;;;;-;-;-;-;-;;-;-;-;-;;;-;-;-;;*..*...+=+.....               ",
"                             ..+*...#-;;-;;;;;;-;;;;;;;;;;;;;;-;-;;-;;;;;;;;;;;;;;;;;;;;-;;;;;;;;*..*...+==+.....               ",
"                            ..+*...#;;;;;;;;;;;;;;;;;;;;;;;;;;;;;;;;;;;;;;;;;;;;;;;;-;;;;;-;;;;;=..*...+===+.....               ",
"                           ..+*...#;;;>;>;;;;;>;;;;;;;;;;;>;;>;>>;>;;;;>;;;;>;;;;>;;>>;>>;>;>;;=..*...+=-=-+.....               ",
"                          ..+*...#>>>;>;>>>>>;>>>>>>>;>>>;>>;>;>;>;>>>;>>>>;>>>>;>>;;>;>;;>;>>=..*...+=-===+.+...               ",
"                         ..+*...#>>;>>>>>;>>>>>>;>>>>>;>>>>>>>>>>>>>>>>>>;>>>;>>>>;>>>>>>>>>>=..*...+-----=+.@...               ",
"                        ..+*...#>>>>>>>>>>>>>>>>>>>>>>>>>>>>>>>>>>>>>>>>>>>>>>>>>>>>>>>>>>>>=..*...+----==-+.@...               ",
"                       ..+*...#>>>>>,>>>,>>>>>>,>>>>>,>>>>>>>>>>,>>>>>>>,>>>,>>>>,>,>,>,>>>=..=...+------==+.#...               ",
"                      ..+*...$>,,,,>,,,>,,,,,,>,,,,,>,,,,,,,,,>,>,,,,,,>,,,>,,,,>,>,>,>,,,-..*...+;;;----==+.#...               ",
"                     ..+*...#>,,>,,,,>,,,,>,>,,,,>,,,,,>,,>,>,,,,,,>,>,,>,,>,,>,,,,,,,,,>-..*...+;;;;---=-=+.@...               ",
"                    ..+*...#,,,,,,,,,,,,,,,,,,,,,,,,,,,,,,,,,,,,,,,,,,,,,,,,,,,,,,,,,,,,-..*...+;;;-;---==-+.#...               ",
"                   ..+*...$,,,,,,,,,,,,,,,,,,,,,,,,,,,',,,,',,,,,,,',,,',,,',,,,,,,,,,,-..*...@;>;;;;----==+.@...               ",
"                  ..+*...$,,''',','''','',''',','',,',,','',,'',,',,',',,',','',',',',;..*...+;;>;;-;-;=-=-+.#...               ",
"                 ..+*...$,''',''''',','','','''','''''''','','''''''''''',''','''''''-..=...@;>>;;;;;---===+.#...               ",
"                ..+*...$'','''','''''''''''''''''''',''''''''','','','''''''''','','-..*...+>>>>>;;-;----=-+.#...               ",
"               ..+*...#''''''''',''''''''''','''''''''''''''''''''''''''''''''''''';..*...@>>>>>;;;;;----==+.@...               ",
"              ..+*...$'''''''')''''''''''''')''''''''''''''''''''''''''''''''''''';..*...+>,>>>>>;;-;----==+.#...               ",
"             ...*...$'')')'))))')))')'')')'))')')')'))'')))'))'))))''))')))')')');..*...@>,,,>>>;;;;;--=-=-+.@...               ",
"            ...&+..$')))))')''))')))))')))'')))')))'')))'')))))')))))')')))'))));..=...@>,,>,>>>;>;-;;---==+.#...               ",
"           ...$$..$))))))))))))))))))))))))))))))))))))))))))))))))))))))))))));..*...@,,,,,>>>>;;;;---===-+.#...               ",
"          ...+&..$'))))))))))))))))))!))))!)))))))))))))))))))))))))))))))))));..*...@,'',,,>>>>;;;;;-;--==+.#...               ",
"         ....&$.$))!)!)!)!!)!!!!)!))!))!!!))!!)!!!!!!)!)!!))!)!!!)!!)!!)!!)!)>.+*...@,,',,,,>,>>>;-;;---=-=+.@...               ",
"        ....*&..@@@@@@@@@@@@@@@@@@@@@@@@@@@@@@@@@@@@@@@@@@@@@@@@@@@@@@@@@@@@@..&...@,'',,,,,>>>;>;;-----===+.#...               ",
"       ....&&................................................................@$...@,'''',,,>,>>>;>;;;------+.@...               ",
"       ...+$.........+@@@@@@@@@@@@@@@@@@@@@@@@@@@@@@@@@@@@@@@@@@@@@@@@#$&***&$...@')'''',,,,>>>>;;;;;---===+.#...               ",
"       ...+................................................................@$...+'''''',',,>,>>>>;;;;---=-=@.#...               ",
"       .........................................................................;))'''',,',,,>>;>;;-;---=-=+.#...               ",
"       .....$;;;;;;;;;;;;;;;;;>;>;;>;;;;>;;;>;;;;;;>;;>;;>;;;;;;;;;;;;;-;;;@....;)''','',,,,>>>>;;;;-;---==+.@...               ",
"       .....%,,,',',','''''''''''''''''''''''''''''''''''''''''',',,',,,,,,@....;))'''',,,,,>>>>>;;;-;--===+.#...               ",
"       .....%,,',,',''','',''''''''')'''''''''')')''''''''''','''''','',','@....>))''''',,,>,>>>;;;;---==--+.@...               ",
"       ..+..%,',',',',','''''''''''''')')''')'''''''''''''''''',','','',',,@....;')'''',',,,>>>>>;;;;----==+.#...               ",
"       ..#..%',''''''''''''','''''''''''')''')''')'''''''''''''''','','',''@.+..>))'','',,,>,>>>;;;-;---==-+.#...               ",
"       ..#..$'',,',',''''''''''''')')')''')''')''')''''''''',''''''''',,','@.@..;))''',',,'>,>>>;>;;;-;--==+.#...               ",
"       ..$..%,''''''',','''''''')'''')')')'))')'))')')'''''''',''',',''''',@.#..;)')'''',,,,>>>;>;-;;---===+.@...               ",
"       ..#..%,',','''''''''''')'')')')')))'))')'')'')')'''')'''''''''',',''@.#..;)))'',',,,,>,>>>;;------=-+.#...               ",
"       ..$..%',''''''''''''')'')')')))')''))'))))'))')')')''''''''','''',''@.@..;)''''''',>,,>>;;>;;;---=-=+.@...               ",
"       ..#..%'',',''''''')''')'')')'')')))))'')'))')))'')')'''''''''',''','@.#..>))''',,',,>>>>>;;;;;---==-+.#...               ",
"       ..$..%,'''''''''''''))'))))'))))))''))))))'))''))')'))')''''''''''''@.#..;)'''''',,,,,>>>>>;;-;---==+.#...               ",
"       ..#..%',''''''')')'')')''))'))')))))))))))))))'')')')''')''''''','''@.#..;))''','',,>,>>;;;;;-;---==@.#...               ",
"       ..$..%''',''''''')')')'))'))))))))))))))))))')))))')')')'''''''''','#.@..>')''',',,,>,>>>>;;-;----==+.@...               ",
"       ..#..%''''''''')')'))))'))))))))))))))))))))))))')))))')')''''''''''@.#..>')''''',,,,>>>>;>;;----===+.#...               ",
"       ..$..%'''''')''')')')'))))))))))))!)))))))))))))))))'')')')''''''','#.@..;)')'','',,>,>>;>;;;;-----=+.@...               ",
"       ..#..%'''''''))''))'))'))))))))))))))))))))))))))))))))')')'''''''''@.#..;))'''',,,,,>>>>;;;;-;--==-+.#...               ",
"       ..$..%,''''')''))'))))))))))))))!!)!!))!))!)))))))))''))')')''''''''#.#..>))''','',,>,>>;>;;-;--=-==+.#...               ",
"       ..#..%''''''')'))''))))))))))!)))!))!)!!!))!))))))))))')')'')'''''''@.#..;')'''',,,'>,>>>;;;;;----==+.#...               ",
"       ..$..%''')'))')')))))))))!))!)!!!)!!)!))))!)))!))))))))))'))')''''''@.@..>))''''',,,,,>>>>;;;-;--=-=+.@...               ",
"       ..#..%'''''')')'))))))))))!))))!!))!)!!!!)!!!)))))))))))))')'')'''''#.#..;))''''',,,,>>>;>;;;-;=-=-=@.#...               ",
"       ..$..%''')')')))')))))))!)!!!!!))!!)!))!)!)))!!!))))))'))')'))''''''#.@..>')''',,',,>,>>>;;;;;----==+.@...               ",
"       ..#..%''')'')'')))))!)!)))))))!!)!)!!!)!!!!!)))!!)))!)))))))')')''''@.#..;))''''',,,,>>>>;>;-;---===+.#...               ",
"       ..$..%')''))'))))))))))!!!!!!!)!!!)!!!!!!)!)!!!))!!))))))))')')')'''#.@..>')''',',,,,,>>>;;;;;-----=+.@...               ",
"       ..#..&''')'))')))))))!)))!))!)!!)!!!)!!!!!)!!)!!))!))))))))))'')''''#.#..;))'''',',,>,>>>;;;-;;--==-+.#...               ",
"       ..#..%')'')'')))))))!))!!)!!)!!!!!!!!!!!!!!!!!))!!))!))))))')')')'''@.#..;))''','',,,>>>>>;;;---=-==+.#...               ",
"       ..$..%')'))))')))))))!))!)!!!!!!!!!!!!!!!!!!)!!)!)!)!)))))))))'')')'#.#..;)'')'',,,,,>>>;>;;;;----==+.#...               ",
"       ..#..%''''''))))))!)!)!!!!!!!!!!!!!!!!!!!!!!!!!!!)!!)!)))))'))))''''@.#..;))''''',,,>,>>>>;-;;---==-+.@...               ",
"       ..#..%)'))')))'))!))!)))!!)!!!!!!!!!!!!!!!!!!!!)!))!))))))))''))')')#.#..;))''',,',,,,>>;>;;;-;---==+.#...               ",
"       ..$..%')'))')))))))!)!!!)!!!!!!!!!!!!!!!!!!!!!!!!!)!)!!))))))))')'''@.@..>')''''',,,,>>>>;;;;;---=-=+.@...               ",
"       ..#..%'')'))))))!!)!)!)!!!!!!!!!!!!!!!!!!!!!!!!!!)!!))!)))))'))'))')@.#..;)')'','',,,>>>>>;;-;---=-=+.@...               ",
"       ..$..&')'))'))))))!)!)!!)!!!!!!!!!!!!!!!!!!!!!!!!!!)!!)))))))'))'')'#.#..;))'''',,,>,,>>>;>;;-;-=-=-+.@...               ",
"       ..#..%'')')'))))))))!!)!!!!!!!!!!!!!!!!!!!!!!!!)!)!)))!)!)))))'))'''#.#..;)')'''',,,>>>>>;;;;-;---==+.@...               ",
"       ..$..%')')))))))!!)!))!!!!!!!!!!!!!!!!!!!!!!!!!!!!!!)!)!)))))))')')'@.#..;))''','',,,,>>>>;;;----===@.@...               ",
"       ..#..%)''))')))))!)!!)!!)!!!!!!!!!!!!!!!!!!!!!!!!)!)!!)!))))'))'))')#.#..;)''''',',,>,>>;>;;;;----==#.#...               ",
"       ..$..%'))'))))))!)!))!!!!!!!!!!!!!!!!!!!!!!!!!!!!!!!))))!))))'))''''@.@..;)))''',,,,,>>>>;;;;-;-=-==#.$...               ",
"       ..#..%'')'))))))))!!)!)!!!!!!!!!!!!!!!!!!!!!!!!!!!)!!!)))!)))))))))'@.#..>')'''',',,,,>>>;;;;-;---==@+#...               ",
"       ..$..&')')))))))))))!!!!!!!!!!!!!!!!!!!!!!!!!!!!!!!!!)!!))))))')''')#.@..;)'''''',,,,>>>>>;;-;---===+%....               ",
"       ..#..%')'')'))))!!!)!))!!!!!!!!!!!!!!!!!!!!!!!!!!!))!))!))))))')))''#.#..;))''',',,,,>>>;>>;;;----=%.&...                ",
"       ..$..%'')))))))))))!)!!)!!!!!!!!!!!!!!!!!!!!!!!!!!!!!!!)))))))))''')@.#..>))'''',',>,,>>>;;;-;---=*+%....                ",
"       ..#..&'''))))))))!)!)!)!!!!!!!!!!!!!!!!!!!!!!!!)!)))!)!!)))))'))')''@.#..;')'''',,',>>>>>;;;;;---&+#%....                ",
"       ..#..%)')')'))))))!)!!)!!!!!!!!!!!!!!!!!!!!!!!!!!!!!))))))))')'))'')#.@..>))'),'',,,,>,>;>;;-;--%.#*....                 ",
"       ..$..%'))'))))))))))!)!!)!!!!!!!!!!!!!!!!!!!!!!!!))!!)))!)))))'))'''#.#..;)'''''',,,,>>>>>;;;;-@.#*....                  ",
"       ..#..%''')''))))!!))!)!)!!!!!!!!!!!!!!!!!!!!!!!!)!!)!)!)))))'))'')''#.@..>'))''',,,,,>,>;;>;--@.$&....                   ",
"       ..#..&''))))))))))))!!!))!!!!!!!!!!!!!!!!!!!!!!!!)!))!)))))))'))''''#.#..;)''''',',,,>,>>;;;;@.$&....                    ",
"       ..$..%)''''')')))))!)!)!!!!!!!!!!!!!!!!!!!!!!!!)!!!!))!))))'))')')''#.@..>))''''',,,,>>>>>;;#.%%....                     ",
"       ..#..%'))))')))))))))!)))!!!!!!!!!!!!!!!!!!!!)!)))!)!)))))))))')''''#.#..;))''',',,,,>>>;>;@.%&....                      ",
"       ..$..%'''''))')))!))!)!!!))!!!!!!!!!!!!!!!!!!!)!!!)))!))))))')')')''#.@..;)'''''',,,,,>>>;#.%%....                       ",
"       ..#..%)')')'))))))))))))!!))!!!)!!!!)!!!)!)!)!))!))!))))))))')')''''#.#..;))''',,',,>>>>;#.%%....                        ",
"       ..$..%''''')')'))))))))!))!!))!!!!!!)!!!!!!!!!!!)!!)))))))'))')')'''@.#..;))'''',',,,,>>#.%%....                         ",
"       ..#..%')')')'))))))!))))!)!)!!)!))!)!!)!!!))))))))))!)))'))')')'''''@.#..;))'''',,,,>,>#.%%....                          ",
"       ..$..%''''''))'))))))!))))!)!)!)!!!)!)!)!)!!!!!)!!)))))))))'')''')''#.@..>))''''',,,,>#.%%....                           ",
"       ..#..%'')')'')''))))))))!))!!)!))!)!!)!)!)!)))))))))))))')))'')'''''#.#..;')'''',,,,>#.%%....                            ",
"       ..$..%''''')'))))'))))!))))))!)!!!)!)!)!!))!!!!!)!)))))))')')''')'''@.#..>))'''''',,#.%%....                             ",
"       ..#..%''''''''''))))))))!))!)))))!)!)!))!)))))))))))))'))'')')''''''#.#..;')''',,,,#.%%....                              ",
"       ..#..%'''')')')')')'))))))))!)))!)!))!)))!!)))))))))'))''))'''''''''@.@..>))''''',#.%%....                               ",
"       ..$..%'''''')')')'))')))))))))!))))))))!)))))))))))))'))''))')'''','#.#..;')'''',$.%%....                                ",
"       ..#..%''''''''')'')')))')))))))))))!))))))))))))))))'))'))''''''''''@.@..>))''',#.%%....                                 ",
"       ..#..%','''')'')''))')))))))))))))))))))))))))))'))))')''')'''''''''@.#..;))'''$.%%....                                  ",
"       ..$..%''''''')''')'')')'))))))))))))))))))))))))))''')'))'''''''',''#.$..>')''#.%%....                                   ",
"       ..$..&,''''''')''''))')'))')))))))))))))))))')')')))'''''')'''','','#.%..;))'$.%%....                                    ",
"       ..$..&''',''''''')''''')''))'')))))))))))')))')))')')')')'''''''''',@.&..;)'#.%%....                                     ",
"       ..$..&,''''''''''')')''))''))'))')))))')))'))')''')''''''''''''','''@.&@.>'$+&%....                                      ",
"       ..%..#'',',''''''''''')''))''))')'')')))''))')'))''')')'''''','''','@.&&.;$.%.....                                       ",
"       ..$...','''','''''')''')''')''))')'))')')'))'')'')''''''''','',',','@.%*.#.......                                        ",
"       ..@$..'',','''''''''')'''')')'''))''')')'''''''''')'''''''''',''''',@.%*@.......                                         ",
"       ...*..,','','''''''''''')''''''''')''''')')'')')''''''''''''''',,','#.&&.......                                          ",
"       ...*....@*====*****=*=**=*=====*===*======*===*=*=*=*=**************+%*.......                                           ",
"       ....+..............................................................%&%.......                                            ",
"       ...........+##$$$#$###$#$##$##$##$##$##$##$###$###$###$#$#$#$$#%&**$........                                             ",
"       ...........................................................................                                              ",
"       ..........................................................................                                               ",
"        ........................................................................                                                ",
"                                                                                                                                ",
"                                                                                                                                ",
"                                                                                                                                ",
"                                                                                                                                ",
"                                                                                                                                ",
"                                                                                                                                ",
"                                                                                                                                ",
"                                                                                                                                ",
"                                                                                                                                "};
