/* XPM */
char * solidsubtract_xpm[] = {
"128 128 17 1",
" 	c None",
".	c #000200",
"+	c #191B19",
"@	c #242623",
"#	c #373937",
"$	c #454744",
"%	c #595B58",
"&	c #6A6C69",
"*	c #7B7D7A",
"=	c #8D8F8C",
"-	c #9B9D9A",
";	c #AEB0AD",
">	c #BDBFBC",
",	c #CDCFCC",
"'	c #DCDFDB",
")	c #EDEFEC",
"!	c #FBFDFA",
"                                                                                                                                ",
"                                                                                                                                ",
"                                                                                                                                ",
"                                                                                                                                ",
"                                                                                                                                ",
"                                                                                                                                ",
"                                                                                                                                ",
"                                                                                                                                ",
"                                                                                                                                ",
"                                                                                                                                ",
"                                                                                                                                ",
"                                                                                                                                ",
"                                                                                                                                ",
"                                                                                                                                ",
"                                                                             ===-=====                                          ",
"                                                                        ==-=-----;;;---====                                     ",
"                                                                    ==---;>;;---==-=-;;>;-=====                                 ",
"                                                                  =--;>>--====*=*=*======-;;--===                               ",
"                                                                =-;>>====***&&       &***====---===                             ",
"                                                              =->,--==**&                &&*===-;-===                           ",
"                                                            =-;,-==**&                      %&*=*---===                         ",
"                                                          -=;,;==*&&                           &*===-===*                       ",
"                                                         =->>-=*&&                               %*==--==*                      ",
"                                                        -;,-=*&&                                   &*==--==                     ",
"                                                       =>,==*&                                       &*=-===                    ",
"                                                      -,;==&                                          &*=--==                   ",
"                                                     =,;=*&                                             *==-==                  ",
"                                                    -,;=*&                                               &==-==                 ",
"                                                   =>;=&&                                                 &*=-==                ",
"                                                  ->;=*&                                                   &====*               ",
"                                                 =--=*&                                                     *==-=*              ",
"                                                =---=*                                                       ==-==&             ",
"                                                =====                                                         ==-=*             ",
"                                        ...........@                                                           =--=*            ",
"                                   .................*-&                                                        *=-==%           ",
"                               .....$$##@#&**&$....+->-==*                                                      ====*           ",
"                             ...#%%.......@@#&%....&==;;====                                                    *=--=&          ",
"                           ..@&%.....@@#&*;;;.....@&**===-====                                                   ====*          ",
"                         ..$*#....@%*;>,,,,,%....   $%&&==---===                                                  =-==%         ",
"                       ..$*+...@$=;,,,,,,,,,+....       %**=---===                                                ==-=*         ",
"                      .@*#...$&;,,,,,,,,,,,=.....         &&===-===*                                              *=-=*         ",
"                    ..&&...$*>,,,,,,,,,,,,,#....            &&==--==*                                              =-==&        ",
"                   .+*...@&;,',,,,,,>,,''',+%...              &*==--==                                             *--=*        ",
"                  .$=..@%;,',,,,,,,,',''')-.%..                 &*=-===                                             =--*        ",
"                 .&%..@=,',,,,,,,,''')))))&.@..                  %*==-==                                            ==-=&       ",
"                .&$..#;',,,,,,,,'''))))!!!@#...                    *==-==                                           *-==&       ",
"               .&#.@&,,',,,,,,,''))))!!!!).%..                      &==-==                                           --=*       ",
"              .&$.@*,',,,>,,,')))!)!!!!!!>.$..                       &==-==                                          =--*       ",
"             .$&.@*',',,,,,''')))!!!!!!!!=.@..                        &==-=*                                         =--=       ",
"            .@*..&'',,,,,,')))!!!!!!!!!!!&....                         &=--=*                                        ==-*&      ",
"            .*..$,',,,,,''')!)!!!!!!!!!!!%@..                           *=--=&                                        =-=&      ",
"           .&..@;',,,,,''))!!!!!!!!!!!!!!##..                            *=-==                                        --=*      ",
"          .@&.@=,,,,,,,)))!!!!!!!!!!!!!!!@#..                             ==-=*                                       =;=*      ",
"          .*..%,',,,,'')))!!!!!!!!!!!!!!!+$..                             *=-==&                                      --=*      ",
"         .%+.@;,,,,,,'))!!!!!!!!!!!!!!!!!@#..                              ====*                                      -;=*      ",
"        ..*.@*',,,,,'))!!!!!!!!!!!!!!!!!!@#..                              *=-==&                                     -;=*      ",
"        .%..#>',,,,,)))!!!!!!!!!!!!!!!!!!@#..                               ==-=*                                     -;=*      ",
"        .&.@=',,>,'')!!!!!!!!!!!!!!!!!!!!##..                                =-==&                                    =>=&      ",
"       .$+.#,,,,,,')))!!!!!!!!!!!!!!!!!!!$...                                ==-=*                                    -;=&      ",
"       .&..*,,,,,,))!!!!!!!!!!!!!!!!!!!!!&.+..                                =-=*                                   -;-=&      ",
"      ..$.@>,,,,,'))!!!!!!!!!!!!!!!!!!!!!=.#..                                ==-=&                                  ->==       ",
"      .$..&,,,,,'))!!!!!!!!!!!!!!!!!!!!!!;.$..                                =--=*                                  =,-*       ",
"      .%.@-,,,,,'))!!!!!!!!!!!!!!!!!!!!!!,.#..                                 =--*                                  ->=*       ",
"     ..#.#,,>,,,))!!!!!!!!!!!!!!!!!!!!!!!!+....                                ==-=&                                --;=&       ",
"     .#..&,,,,''))!!!!!!!!!!!!!!!!!!!!!!!!$.@..                                ==-=*                                =>-=&       ",
"     .$.@=,,,,,')!!!!!!!!!!!!!!!!!!!!!!!!!=.@..                                 =-=*                                -,=*        ",
"     .%.@;,,,,')))!!!!!!!!!!!!!!!!!!!!!!!!'.....                                =--*                               =->=*        ",
"     .#.$,,,,,')!!!!!!!!!!!!!!!!!!!!!!!!!!!#.+..                                =-==%                              =>==&        ",
"    ....&,,,,'')!!!!!!!!!!!!!!!!!!!!!!!!!!!=.+..                                =--=&                              ->=*         ",
"    .+..=,,,,')))!!!!!!!!!!!!!!!!!!!!!!!!!!).....                                ===&                             =;-=*         ",
"    .@.+-,,,,'))!!!!!!!!!!!!!!!!!!!!!!!!!!!!$.+..                                --=*                             -,-*&         ",
"    .#.@;,,,,')!!!!!!!!!!!!!!!!!!!!!!!!!!!!!,.....                               =;=*                            =;;=&          ",
"    .#.@>,,,'))!!!!!!!!!!!!!!!!!!!!!!!!!!!!!!$....                               =;=*                            -,=*&          ",
"    .#.+>,,,,))!!!!!!!!!!!!!!!!!!!!!!!!!!!!!!>.....                              -;=*                           -;-=*           ",
"    .#.@>,,,'))!!!!!!!!!!!!!!!!!!!!!!!!!!!!!!!$.....                             ->=*                           -,=*&           ",
"    .#.@;,,''))!!!!!!!!!!!!!!!!!!!!!!!!!!!!!!!'.....                             =>=*                          ->==*            ",
"    .@.@;,,,'))!!!!!!!!!!!!!!!!!!!!!!!!!!!!!!!!*.....                            =>=*                         =>>=*             ",
"    ...@=,,''))!!!!!!!!!!!!!!!!!!!!!!!!!!!!!!!))#.....                           -;=&                        --,=*&             ",
"    ..@.%,,,')!!!!!!!!!!!!!!!!!!!!!!!!!!!!!!!!!!,.....                           ;-=&                        -,==*              ",
"     .$.$>,,'))!!!!!!!!!!!!!!!!!!!!!!!!!!!!!!!!!)-.....                         =>==&                       -,==&               ",
"     .$.@;,,')!!!!!!!!!!!!!!!!!!!!!!!!!!!!!!!!!!!)&.....                        =,=*                       ->;=*&               ",
"     .@.@=,,,)))!!!!!!!!!!!!!!!!!!!!!!!!!!!!!!!!!))$.....                       =,=*                      ->;=*&                ",
"     ....%,,'')!!!!!!!!!!!!!!!!!!!!!!!!!!!!!!!!!!!)'#......                     -;=*                     -,;=*&                 ",
"     ..@.#>,,)))!!!!!!!!!!!!!!!!!!!!!!!!!!!!!!!!!!!)'#......                   ->==&                   =-,==*&                  ",
"      .@.@-,,)))!!!!!!!!!!!!!!!!!!!!!!!!!!!!!!!!!!!!)'$......                  =,=*                   -;,==*&                   ",
"      ....%,,''!!!!!!!!!!!!!!!!!!!!!!!!!!!!!!!!!!!!!!)'%.......                -;=*                 =->>=**&                    ",
"      ..+.#;,'')!!!!!!!!!!!!!!!!!!!!!!!!!!!!!!!!!!!!!))'=........             ---=&               =-;,-=**                      ",
"       ....=,,)))!!!!!!!!!!!!!!!!!!!!!!!!!!!!!!!!!!!!!))';@........           =-==              ---,;==*&                       ",
"       ....$;,'))!!!!!!!!!!!!!!!!!!!!!!!!!!!!!!!!!!!!!!))',%.........        ===-=            ==;>>-=**&                        ",
"       ....@=,,)))!!!!!!!!!!!!!!!!!!!!!!!!!!!!!!!!!!!!!!)))';#..........     =====         =--;,;-=**&                          ",
"        ....$>,'))!!!!!!!!!!!!!!!!!!!!!!!!!!!!!!!!!!!!!!!))'',=@..............+@$      ===-;>,--=**&                            ",
"        ....+=,'))!!!!!!!!!!!!!!!!!!!!!!!!!!!!!!!!!!!!!!!!!))',,=#.....$%........-;-==-;>>,-===**&                              ",
"         ....#;,)))!!!!!!!!!!!!!!!!!!!!!!!!!!!!!!!!!!!!!!!!)))),,,;%+...@*&.....&=;;;;---===**&&                                ",
"         ....+&,,))!!!!!!!!!!!!!!!!!!!!!!!!!!!!!!!!!!!!!!!!!!)))'',,,-%#..%+...+*=*=*====**&&                                   ",
"          ....+-,)'!!!!!!!!!!!!!!!!!!!!!!!!!!!!!!!!!!!!!!!!!!!)))'',,,,,>*+....%&*&*&&&%                                        ",
"           ....$>,))!!!!!!!!!!!!!!!!!!!!!!!!!!!!!!!!!!!!!!!!!!!!)))''',,;$....+                                                 ",
"           ....+%,'))!!!!!!!!!!!!!!!!!!!!!!!!!!!!!!!!!!!!!!!!!!!!)!))'',&@....                                                  ",
"            ....+*,'))!!!!!!!!!!!!!!!!!!!!!!!!!!!!!!!!!!!!!!!!!!!!!))))-@#...                                                   ",
"             ....@='))!!!!!!!!!!!!!!!!!!!!!!!!!!!!!!!!!!!!!!!!!!!!!!!);+&...                                                    ",
"             .....#-,))!!!!!!!!!!!!!!!!!!!!!!!!!!!!!!!!!!!!!!!!!!!!!)>$&#...                                                    ",
"              .....@=,))!!!!!!!!!!!!!!!!!!!!!!!!!!!!!!!!!!!!!!!!!!!!-$&$...                                                     ",
"               .....@&,))!!!!!!!!!!!!!!!!!!!!!!!!!!!!!!!!!!!!!!!!!)=@*$...                                                      ",
"                .....@$;))!!!!!!!!!!!!!!!!!!!!!!!!!!!!!!!!!!!!!!!,%@*....                                                       ",
"                 ......@=,))!!!!!!!!!!!!!!!!!!!!!!!!!!!!!!!!!!!)-$@*....                                                        ",
"                  ......@%;))!!!!!!!!!!!!!!!!!!!!!!!!!!!!!!!!)>%@%&....                                                         ",
"                    ......+&>))!!!!!!!!!!!!!!!!!!!!!!!!!!!!!,*+#=....                                                           ",
"                     .......+%;')!!!!!!!!!!!!!!!!!!!!!!!!)>&++&$....                                                            ",
"                      ........@%=,)!!!!!!!!!!!!!!!!!!!!'-%@@*%.....                                                             ",
"                        .........@%->))!!!!!!!!!!!!),-%@@$*$.....                                                               ",
"                          .........@@$&=>,')))),;-&$@@#&&+.....                                                                 ",
"                            ............@@@$#$@@@##%&&+......                                                                   ",
"                              ..........+@@#$$%%%#.........                                                                     ",
"                                 .......................                                                                        ",
"                                     ..............                                                                             ",
"                                                                                                                                ",
"                                                                                                                                ",
"                                                                                                                                ",
"                                                                                                                                ",
"                                                                                                                                ",
"                                                                                                                                ",
"                                                                                                                                ",
"                                                                                                                                ",
"                                                                                                                                ",
"                                                                                                                                ",
"                                                                                                                                ",
"                                                                                                                                ",
"                                                                                                                                ",
"                                                                                                                                "};
