/* XPM */
char * solidunion_xpm[] = {
"128 128 17 1",
" 	c None",
".	c #000000",
"+	c #1C1E1C",
"@	c #232522",
"#	c #383A37",
"$	c #454744",
"%	c #585B58",
"&	c #6A6C69",
"*	c #7B7D7A",
"=	c #8D908D",
"-	c #9D9F9C",
";	c #AEB0AD",
">	c #BEC0BD",
",	c #CED0CD",
"'	c #DDDFDC",
")	c #EDEFEC",
"!	c #FBFDFA",
"                                                                                                                                ",
"                                                                                                                                ",
"                                                                                                                                ",
"                                                                                                                                ",
"                                                                                                                                ",
"                                                                                                                                ",
"                                                                                                                                ",
"                                                                                                                                ",
"                                                                                                                                ",
"                                                                                                                                ",
"                                                                                                                                ",
"                                                                                                                                ",
"                                                                                                                                ",
"                                                                                                                                ",
"                                                                             .........                                          ",
"                                                                        ........+@@@.......                                     ",
"                                                                    ....+$$$@.......+#$$@......                                 ",
"                                                                  ...$%$.......@@@+@......@#.....                               ",
"                                                                ..#&$.....@@#&=-;>;-*&#+@.....@....                             ",
"                                                              ..$&+...@+%=;>,,,,,,,,,,>>-&$@....+....                           ",
"                                                            ..$*+...@%=>,,,,,,,,,,,,,,,,,,>;*$+........                         ",
"                                                          ..@*@...$*;,,,,,,,>,,,,,,',',,,,,,,,-%#........                       ",
"                                                         ..&&...$*>',,,,>,,,,,,,'','''''',,,,,,,;&#.......                      ",
"                                                        .@*...@*>',,,,,,,,,,,'''')')))))')''',',,>;%+......                     ",
"                                                       .%*..@%;',,,,>,>,,'''''))))))))!)))!))'''',,,-$+.....                    ",
"                                                      .&%..@=,',,,>,,,,'''')!)))!!!!!!!!!!)!))))''',,>*+.....                   ",
"                                                     .*#..%;',,,,,,,,''')))!!!!!!!!!!!!!!!!!!!)!!))''',-#.....                  ",
"                                                    .*@.@&,',,,,>,,''')))!!!!!!!!!!!!!!!!!!!!!!!!)!))'',;%+....                 ",
"                                                   .&@.@*,',,,>,,,''))!!!)!!!!!!!!!!!!!!!!!!!!!!!!!!)))''>&+....                ",
"                                                  .&$.@*'',,>,,,'')))!!!!!!!!!!!!!!!!!!!!!!!!!!!!!!!!!)))',&@....               ",
"                                                 .%$.@&,',,,,,,''))!!!!!!!!!!!!!!!!!!!!!!!!!!!!!!!!!!!!)!)',%.....              ",
"                                                .%@..%,',,,,,''))!!!)!!!!!!!!!!!!!!!!!!!!!!!!!!!!!!!!!!!!)))>$.....             ",
"                                                *...#>',,,,,''))!!!!!!!!!!!!!!!!!!!!!!!!!!!!!!!!!!!!!!!!!!)!';@....             ",
"                                        .....+&&...$>',,,,,,'))!!!!!!!!!!!!!!!!!!!!!!!!!!!!!!!!!!!!!!!!!!!!)!'*@....            ",
"                                   ..............#**==->>,''))!!!!!!!!!!!!!!!!!!!!!!!!!!!!!!!!!!!!!!!!!!!!!!!)'%.....           ",
"                               .....$$#+.......+&====****-,))!!!!!!!!!!!!!!!!!!!!!!!!!!!!!!!!!!!!!!!!!!!!!!!!!);@....           ",
"                             ...#%%.......@@#%==-;--====***->)!)!!!!!!!!!!!!!!!!!!!!!!!!!!!!!!!!!!!!!!!!!!!!!!!)*@....          ",
"                           ..@&%.....@+$%=;>>*=;=*=*&&**=-====>)!!!!!!!!!!!!!!!!!!!!!!!!!!!!!!!!!!!!!!!!!!!!!!!),#....          ",
"                         ..$*#....@%*;>,,,,,-*;**;>;-=***==--===>)!!!!!!!!!!!!!!!!!!!!!!!!!!!!!!!!!!!!!!!!!!!!!!)=@....         ",
"                       ..$*+...+%=>,,,,,,,,,*=-&=>>>>>;;-*===---=-')!!!!!!!!!!!!!!!!!!!!!!!!!!!!!!!!!!!!!!!!!!!!!,#....         ",
"                      .@*#...$&;,,,,,,>,,,,;*;*&->>>>>>>>>-====--==;))!!!!!!!!!!!!!!!!!!!!!!!!!!!!!!!!!!!!!!!!!!!)*....         ",
"                    ..&&...#*>,,,,,,>,,,,,'===**>,>>,>,,,,,>-====-==-'))!!!!!!!!!!!!!!!!!!!!!!!!!!!!!!!!!!!!!!!!!!,@....        ",
"                   .+*...@&>,',,,>,,,,,,'''=;=&-,>>>,,,',,',,>-===--==,))!!!!!!!!!!!!!!!!!!!!!!!!!!!!!!!!!!!!!!!!!)&....        ",
"                  .$=..@%;',,,,>,,,,,,''''>=;==;,,,,,''')'''',,;-===-==>)))!!!!!!!!!!!!!!!!!!!!!!!!!!!!!!!!!!!!!!!!;@...        ",
"                 .&%..@=,,,,,>,,,,'''))))!;=-==,,,>,,')))))'''',,;======>))!!!!!!!!!!!!!!!!!!!!!!!!!!!!!!!!!!!!!!!!'#....       ",
"                .&$..$;',,,,,,,,,''))))!!!-;=*;,,,,,'))!!)!)))'',,;-=--==;'))!!!!!!!!!!!!!!!!!!!!!!!!!!!!!!!!!!!!!!!&....       ",
"               .&#.@&>,',,>,,,''')))!!!!!!->-=>,,>,'')!)!!!!!!)))''>-==-==>)))!!!!!!!!!!!!!!!!!!!!!!!!!!!!!!!!!!!!!!-@+..       ",
"              .&$.@*,',,,,,,,'')))!!!!!!!'=;==,,,,,'))!!!!!!!!!)))'',;==-==>'))!!!!!!!!!!!!!!!!!!!!!!!!!!!!!!!!!!!!!,+...       ",
"             .$&.@*''',,>,,'')))!!!!!!!!!,--==,,,,,')!!!!!!!!!!!!)!)'';=====,)))!!!!!!!!!!!!!!!!!!!!!!!!!!!!!!!!!!!!)$...       ",
"            .@*..&,',,>,,,''))!!!!!!!!!!!>=-=;,,,,'')!!!!!!!!!!!!!)))',;--===''))!!!!!!!!!!!!!!!!!!!!!!!!!!!!!!!!!!!)&....      ",
"            .*..$,',,,,,''))!)!!!!!!!!!!!;;==>,,,,'))!!!!!!!!!!!!!!!!)',-=-==-')))!!!!!!!!!!!!!!!!!!!!!!!!!!!!!!!!!!!=....      ",
"           .&..@;',,,,,''))!!!!!!!!!!!!!!;;==>,,,,'))!!!!!!!!!!!!!!!!!!),-=-=*>''))!!!!!!!!!!!!!!!!!!!!!!!!!!!!!!!!!!;@...      ",
"          .@&.@=,',>,,,')))!!!!!!!!!!!!!!-;-=,,,,'')!!!!!!!!!!!!!!!!!!!))>---==,)))!!!!!!!!!!!!!!!!!!!!!!!!!!!!!!!!!!,@@..      ",
"          .*..%,,,,,,''))!!!!!!!!!!!!!!!!-;==,,,,,)))!!!!!!!!!!!!!!!!!!!))-=-==;,'))!!!!!!!!!!!!!!!!!!!!!!!!!!!!!!!!!'@@..      ",
"         .%+.+;',,>,,'))!!!!!!!!!!!!!!!!!;;-=,,,,'))!!!!!!!!!!!!!!!!!!!!!),==-=*,,)))!!!!!!!!!!!!!!!!!!!!!!!!!!!!!!!!'@$..      ",
"        ..*.@*',,,,,'))!!!!!!!!!!!!!!!!!!-;==,,,',)!!!!!!!!!!!!!!!!!!!!!!!)>-===-,'')!!!!!!!!!!!!!!!!!!!!!!!!!!!!!!!!'@$..      ",
"        .%..$>,,,,,'')!!!!!!!!!!!!!!!!!!!-;==,,,,'))!!!!!!!!!!!!!!!!!!!!!!!'--==*>'')!!!!!!!!!!!!!!!!!!!!!!!!!!!!!!!!,@$..      ",
"        .&.+=',,>,,')!!!!!!!!!!!!!!!!!!!!;;-=>,,'')!!!!!!!!!!!!!!!!!!!!!!!!),--==-,''))!!!!!!!!!!!!!!!!!!!!!!!!!!!!!!,@$..      ",
"       .$..$>,,,,,')))!!!!!!!!!!!!!!!!!!!;-=-;,,,'))!!!!!!!!!!!!!!!!!!!!!!!!'---==>'')!!!!!!!!!!!!!!!!!!!!!!!!!!!!!!!-##..      ",
"       .&..*',>,,'))!!!!!!!!!!!!!!!!!!!!!>--=;,,,'))!!!!!!!!!!!!!!!!!!!!!!!!!>====;,''))!!!!!!!!!!!!!!!!!!!!!!!!!!!!!&#+..      ",
"      ..$.+>,,,>,''!!!!!!!!!!!!!!!!!!!!!!>-;=-,,,')!!!!!!!!!!!!!!!!!!!!!!!!!!';====,,'))!!!!!!!!!!!!!!!!!!!!!!!!!!!!)$%..       ",
"      .%..&,,,,,')))!!!!!!!!!!!!!!!!!!!!!'=;==>,''))!!!!!!!!!!!!!!!!!!!!!!!!!!>=-=*>,'))!!!!!!!!!!!!!!!!!!!!!!!!!!!!'#&..       ",
"      .%.+-,,>,,')!!!!!!!!!!!!!!!!!!!!!!!)=;==>,,''!)!!!!!!!!!!!!!!!!!!!!!!!!)'--=*;,,'))!!!!!!!!!!!!!!!!!!!!!!!!!!!;@&..       ",
"     ..#.$>,,,,')))!!!!!!!!!!!!!!!!!!!!!!!=--=-,,,))!!!!!!!!!!!!!!!!!!!!!!!!!!)---=-,,'))!!!!!!!!!!!!!!!!!!!!!!!!!!!&+#..       ",
"     .#..&,,,,,')!!!!!!!!!!!!!!!!!!!!!!!!!;=-=-,,,')!!!!!!!!!!!!!!!!!!!!!!!!!!!>===*,,,))!!!!!!!!!!!!!!!!!!!!!!!!!!)$%...       ",
"     .$.@=,>,,''))!!!!!!!!!!!!!!!!!!!!!!!!,=;==>,''))!!!!!!!!!!!!!!!!!!!!!!!!!!,--=*>,,'))!!!!!!!!!!!!!!!!!!!!!!!!!>@*..        ",
"     .%.@;,,>,'))!!!!!!!!!!!!!!!!!!!!!!!!!)=-==-,,'))!!!!!!!!!!!!!!!!!!!!!!!!!!)---*>,,'))!!!!!!!!!!!!!!!!!!!!!!!!!&.%..        ",
"     .#.$,,,,,')!!!!!!!!!!!!!!!!!!!!!!!!!!!-=-==>,'')!!!!!!!!!!!!!!!!!!!!!!!!!!!;-==-,,'')!!!!!!!!!!!!!!!!!!!!!!!!'$%...        ",
"    ....%,,,,''))!!!!!!!!!!!!!!!!!!!!!!!!!!,=-==;,''))!!!!!!!!!!!!!!!!!!!!!!!!!!;--=-,,,)))!!!!!!!!!!!!!!!!!!!!!!!;.*..         ",
"    .+..=,,,,'))!!!!!!!!!!!!!!!!!!!!!!!!!!!)=-==->,'))!!!!!!!!!!!!!!!!!!!!!!!!!!,-===,,,')!!!!!!!!!!!!!!!!!!!!!!!)%#+..         ",
"    .@.+-,,,,'))!!!!!!!!!!!!!!!!!!!!!!!!!!!!;=-==;,'')!!!!!!!!!!!!!!!!!!!!!!!!!!';-==,,,'))!!!!!!!!!!!!!!!!!!!!!!;@*...         ",
"    .#.@;,,,,')!!!!!!!!!!!!!!!!!!!!!!!!!!!!!'=-==-,''))!!!!!!!!!!!!!!!!!!!!!!!!!)-;==,,,,))!!!!!!!!!!!!!!!!!!!!!)%##..          ",
"    .#.@>,,,'')!!!!!!!!!!!!!!!!!!!!!!!!!!!!!!;=-==;,'))!!!!!!!!!!!!!!!!!!!!!!!!!)-;=*,,,'')!!!!!!!!!!!!!!!!!!!!!-@*...          ",
"    .#.+>,,,,))!!!!!!!!!!!!!!!!!!!!!!!!!!!!!!,====->,'))!!!!!!!!!!!!!!!!!!!!!!!!);;==,,,,)))!!!!!!!!!!!!!!!!!!!)$$@..           ",
"    .#.+>,,,'))!!!!!!!!!!!!!!!!!!!!!!!!!!!!!!!;=-==;,'))!!!!!!!!!!!!!!!!!!!!!!!!)->==,,,'')!!!!!!!!!!!!!!!!!!!!=@*...           ",
"    .#.@;,,''))!!!!!!!!!!!!!!!!!!!!!!!!!!!!!!!'==-==>,'))!!!!!!!!!!!!!!!!!!!!!!!);;==',,,')!!!!!!!!!!!!!!!!!!!>+*...            ",
"    .@.@;,,,'))!!!!!!!!!!!!!!!!!!!!!!!!!!!!!!!!>==-=-,'')!!!!!!!!!!!!!!!!!!!!!!!)->==,,,')))!!!!!!!!!!!!!!!!!'%$$..             ",
"    ...+=,,,'))!!!!!!!!!!!!!!!!!!!!!!!!!!!!!!!!)-====;''))!!!!!!!!!!!!!!!!!!!!!!'-;==',,,')!!!!!!!!!!!!!!!!!)*#*...             ",
"    ..@.%,,,')!!!!!!!!!!!!!!!!!!!!!!!!!!!!!!!!!)'==-==;''))!!!!!!!!!!!!!!!!!!!!!,;-=-',,'')!!!!!!!!!!!!!!!!!=@*...              ",
"     .$.$>,''))!!!!!!!!!!!!!!!!!!!!!!!!!!!!!!!!!!>==-==>'))!!!!!!!!!!!!!!!!!!!!!>;-*;,,,,'))!!!!!!!!!!!!!!!;@*...               ",
"     .$.@;,,'))!!!!!!!!!!!!!!!!!!!!!!!!!!!!!!!!!!);==-=->'))!!!!!!!!!!!!!!!!!!!);>-*>',,'))!!!!!!!!!!!!!!!;$*@...               ",
"     .@.+=,,'))!!!!!!!!!!!!!!!!!!!!!!!!!!!!!!!!!!))-==-=->'))!!!!!!!!!!!!!!!!!!'-,=*,,,,'')!!!!!!!!!!!!!);@&#...                ",
"     ....%,,,)))!!!!!!!!!!!!!!!!!!!!!!!!!!!!!!!!!!)'-==-==;'))!!!!!!!!!!!!!!!!!,-;=*,,,,''))!!!!!!!!!!!)=+*@...                 ",
"     ..@.#>,,')!!!!!!!!!!!!!!!!!!!!!!!!!!!!!!!!!!!!)'===----,))!!!!!!!!!!!!!!!!>>==-',,,'))!!!!!!!!!!!>%@=....                  ",
"      .#.+-,,')!!!!!!!!!!!!!!!!!!!!!!!!!!!!!!!!!!!!!)';===-=->')!!!!!!!!!!!!!!)->=*;,,,,'))!!!!!!!!!)=@#*....                   ",
"      ....%,,'))!!!!!!!!!!!!!!!!!!!!!!!!!!!!!!!!!!!!))'-==--=-;,))!!!!!!!!!!!!,->=*,,,,,')!!!!!!!!)>%@&%....                    ",
"      ..+.#;,,')!!!!!!!!!!!!!!!!!!!!!!!!!!!!!!!!!!!!!))';===--=-;')!!!!!!!!!!!;>-==',,,,'))!!!!!),&@#*....                      ",
"       ....*,''))!!!!!!!!!!!!!!!!!!!!!!!!!!!!!!!!!!!!!))'>===--==-;,)!!!!!!!!';;=*;,,,,'')!!!!)>%@+*$....                       ",
"       ....$>,'))!!!!!!!!!!!!!!!!!!!!!!!!!!!!!!!!!!!!!)!)',-*==--=--;,'!!!!!)>>==&',,>,'))!),-%@@&%.....                        ",
"       ....+=,''))!!!!!!!!!!!!!!!!!!!!!!!!!!!!!!!!!!!!!!))''>=====-==--;,')!),==*-,,,,,',>-%@.$*$.....                          ",
"        ....$>,'!)!!!!!!!!!!!!!!!!!!!!!!!!!!!!!!!!!!!!!!!))),,;=*==---==;-;,,==*&;>>--*&$@@$&&......                            ",
"        ....+=,'')!!!!!!!!!!!!!!!!!!!!!!!!!!!!!!!!!!!!!!!!)))',,;=**==-==-=-==*%+##++@.#%&&.......                              ",
"         ....#;,)))!!!!!!!!!!!!!!!!!!!!!!!!!!!!!!!!!!!!!!!!)))'',,>-**====***$.@%%&%%%#.........                                ",
"         ....+&,'')!!!!!!!!!!!!!!!!!!!!!!!!!!!!!!!!!!!!!!!!!!))''',,,;-=**&$.#&$.............                                   ",
"          ....+-,'))!!!!!!!!!!!!!!!!!!!!!!!!!!!!!!!!!!!!!!!!!!)))''',,,>>=+.&+..........                                        ",
"           ....$>'))!!!!!!!!!!!!!!!!!!!!!!!!!!!!!!!!!!!!!!!!!!!!)))'',,,>$+*...                                                 ",
"           ....+%,''!!!!!!!!!!!!!!!!!!!!!!!!!!!!!!!!!!!!!!!!!!!!!))))'',&@*...                                                  ",
"            ....+*,'))!!!!!!!!!!!!!!!!!!!!!!!!!!!!!!!!!!!!!!!!!!!!!!)))-@*...                                                   ",
"             ....+-,))!!!!!!!!!!!!!!!!!!!!!!!!!!!!!!!!!!!!!!!!!!!!!!!);+*+..                                                    ",
"             .....#-,))!!!!!!!!!!!!!!!!!!!!!!!!!!!!!!!!!!!!!!!!!!!!!!>$&#...                                                    ",
"              .....+=,))!!!!!!!!!!!!!!!!!!!!!!!!!!!!!!!!!!!!!!!!!!!!-$&$...                                                     ",
"               .....+*,))!!!!!!!!!!!!!!!!!!!!!!!!!!!!!!!!!!!!!!!!!)=@&#...                                                      ",
"                .....+$;))!!!!!!!!!!!!!!!!!!!!!!!!!!!!!!!!!!!!!!!,%@*+...                                                       ",
"                 ......+=,))!!!!!!!!!!!!!!!!!!!!!!!!!!!!!!!!!!!)-$@*....                                                        ",
"                  ......@%;))!!!!!!!!!!!!!!!!!!!!!!!!!!!!!!!!)>%+&&....                                                         ",
"                    ......@%>))!!!!!!!!!!!!!!!!!!!!!!!!!!!!!,&+#*....                                                           ",
"                     .......+%;'!)!!!!!!!!!!!!!!!!!!!!!!!)>&@+&%....                                                            ",
"                      ........+%=,))!!!!!!!!!!!!!!!!!!!';%++*%.....                                                             ",
"                        .........@%-,))!!!!!!!!!!!!),-%+@$*%.....                                                               ",
"                          .........++$&=>,')))',>-&$@@#&&+.....                                                                 ",
"                            ............@@@$$$@+@##%&&+......                                                                   ",
"                              ..........+@@#$$%%%#.........                                                                     ",
"                                 .......................                                                                        ",
"                                     ..............                                                                             ",
"                                                                                                                                ",
"                                                                                                                                ",
"                                                                                                                                ",
"                                                                                                                                ",
"                                                                                                                                ",
"                                                                                                                                ",
"                                                                                                                                ",
"                                                                                                                                ",
"                                                                                                                                ",
"                                                                                                                                ",
"                                                                                                                                ",
"                                                                                                                                ",
"                                                                                                                                ",
"                                                                                                                                "};
