/* XPM */
char * solidcone_xpm[] = {
"128 128 17 1",
" 	c None",
".	c #000000",
"+	c #171917",
"@	c #262725",
"#	c #393B38",
"$	c #494B48",
"%	c #5A5D5A",
"&	c #6A6C69",
"*	c #7C7F7C",
"=	c #8E918E",
"-	c #9EA19D",
";	c #B0B3AF",
">	c #C2C5C1",
",	c #D0D3CF",
"'	c #DEE0DD",
")	c #EBEDEA",
"!	c #F7FAF6",
"                                                                                                                                ",
"                                                                                                                                ",
"                                                              ....                                                              ",
"                                                             .....                                                              ",
"                                                            .......                                                             ",
"                                                            ..#....                                                             ",
"                                                            .%+....                                                             ",
"                                                           ..*......                                                            ",
"                                                           ..%......                                                            ",
"                                                           .%.......                                                            ",
"                                                           .*........                                                           ",
"                                                          ..%..%.....                                                           ",
"                                                          .$...,+....                                                           ",
"                                                         ..&..@!*.....                                                          ",
"                                                         ..%..*!,.....                                                          ",
"                                                         .$...'!)@.....                                                         ",
"                                                        ..&..$!!)*.....                                                         ",
"                                                        ..$..=!!)>.....                                                         ",
"                                                        .%...)!!))@.+...                                                        ",
"                                                       ..&..%!!!!'*.....                                                        ",
"                                                       .+#..-!!!!)>.....                                                        ",
"                                                       .%..+))!!)),#.+...                                                       ",
"                                                      ..&..%)!!!))'*.....                                                       ",
"                                                      .@@..;!!!!!)'>.....                                                       ",
"                                                      .%..+)!!!!!)',#.+...                                                      ",
"                                                     ..&..&)!!!!!)''*.....                                                      ",
"                                                     .@+..>)!!!!!!)'>..+..                                                      ",
"                                                     .&..@))!!!!!)),,#.....                                                     ",
"                                                    ..%..&)!!!!!!!)',*.....                                                     ",
"                                                    .#...,)!!!!!!!)',>..+..                                                     ",
"                                                   ..&..#'!!!!!!!!))'>#.....                                                    ",
"                                                   ..%..*))!!!!!)!)'',*.....                                                    ",
"                                                   .$...,)!!!!!!!!))',;+.+..                                                    ",
"                                                  ..&..#'))!!!!!!!))',>#.....                                                   ",
"                                                  ..$..=)!!!!!!!!!)'',>*.....                                                   ",
"                                                  .%...,)))!!!!!!)))''>;..+..                                                   ",
"                                                 ..&..$')!!)!!!!!!)'''>>$.....                                                  ",
"                                                 .+#..=')!!!!!!!!)))''>>*.....                                                  ",
"                                                 .%..+'')!!!!!!!!!))'',>;..+..                                                  ",
"                                                ..&..$')!))!!!!!!)))',,>;$.....                                                 ",
"                                                .@@..-'))!)!!!!!!)))'',>;*.....                                                 ",
"                                                .%..+'')!))!!!!!!))''',>;-+.+..                                                 ",
"                                               ..&..%')))!)!!!!!!)))'',,;;$.....                                                ",
"                                               .#...-'))))!!!!!!!))''',,;;*.....                                                ",
"                                               .&..+'')))!)!!!!)!))'',,>>;=+.+..                                                ",
"                                              ..%..&,)))))!!!!!!)))''',>>;-$.....                                               ",
"                                              .#...;,))))))!!!!!!))'',,>>;-*.....                                               ",
"                                             ..&..@,')))))!!)!!!!))'',,,>;-=+.+...                                              ",
"                                             ..%..&,))')))!!!!!!)))'',,>>;;=$.....                                              ",
"                                             .$...;,)'))))!!!!!))))'''>,>;;-*.....                                              ",
"                                            ..&..#,')''))!!!)!!!)))'',>>>;;==+.+...                                             ",
"                                            ..$..*>'')'))))!!!!!))'''',>>;;-=$.....                                             ",
"                                            .%...;')'''))!!!)!!!)))',,>>>;;-=&.....                                             ",
"                                           ..&..#>'')')))!)!!!!!!)''',,>>;;;==+.+...                                            ",
"                                           .+#..=>'''''))))!))!)))''',>>>;;--*$.....                                            ",
"                                           .%...;,)'''))!)!)!!!!))''',>>>;;--=*.....                                            ",
"                                          ..&..$>'''''')))!!!)))!)''',>>;;;-==*+.+...                                           ",
"                                          .@@..=>'',''))!)!!!!!)))'',,>>>;-;-==$.....                                           ",
"                                          .%..+;,''''''))))!!)!)))''',>>;;;-==*&..+..                                           ",
"                                         ..&..$;''','')))!)!)!)!)''',,>>>;;--==*@.....                                          ",
"                                         .@+..=>'',,'')))!)!)!!)))'',,>>;;;--=**$.....                                          ",
"                                         .&..@;,',,,''))!)!)!!))))'',,>>;;--=-=*&..+..                                          ",
"                                        ..%..%;',',,'''))!)!)!)!))'',,>>;;;;===*&@.+...                                         ",
"                                        .#...=>''>,'')))!)!)!))))'','>>>;;---==**#.....                                         ",
"                                       ..&..@;,,,>,'''')))!))!))))'',>>>;;;--==**&..+..                                         ",
"                                       ..%..%;,'>,,,''))!))!!)!))''',,>>;;--===**&@.....                                        ",
"                                       .$...->'>>,''')))))!))))))''',>>;;;;--==**&$.....                                        ",
"                                      ..&..@-,,,>,,'''')!))!)!)))'',,,>>;;--===***%..+..                                        ",
"                                      ..$..&;',>>,,,'))))))!))!))'',,>>>;;---==**&&@.....                                       ",
"                                      .%...=>,>>>>,''')))))))))))''',,;>;;;-===***&#.....                                       ",
"                                     ..&..#-,,>>>','''))))!)!))))'',>,>;;;---==***&%..+..                                       ",
"                                     .+#..&;,>>>>,,')'))!))!)))))'',,>>;;;--===***&&@.....                                      ",
"                                     .%...->'>;>>','''))))))!)))''',,>>;;;--===***&&$.....                                      ",
"                                    ..&..#-,>;>>,>,'''))))!)))))'''',>>;;;--==****&&%..+..                                      ",
"                                    .@@..&;,>;>>,,'')'))))))!))))',,,>>;;;---==***&&%@.....                                     ",
"                                    .%...->>>;;>>,,'')))))!)))))''',>>>;;;--===***&&&$.....                                     ",
"                                   ..&..#;>>;>>>,,',''))))))))))''',,>>;;---===**&&&%%..+..                                     ",
"                                   .#...*;,;;;>>>,''')')))))))))'',,>>;;;;--==*****&&%@.....                                    ",
"                                   .&..+=>>;;;>>>','')))))))))))''',,>>;;---===**&&&&%$.....                                    ",
"                                  ..%..$->>;;;>>,,''')'))))))))''',,>>;;;--====***&&&%%..+...                                   ",
"                                  .#...*;>;;;;>>,,''''))))))))))'',,,>>;;;-===*=**&&&&%@.....                                   ",
"                                 ..&..+=>>-;;;>>>,''''))))))')')'',,>>;;;---==*****&&%%$.....                                   ",
"                                 ..%..$;>;;;;>>,>,''''))))))))))'',,>>;;;;--==***&&&&&%%..+...                                  ",
"                                 .$...*;>;-;;;>>,,''))')))))))'''''>,>;;;--====***&&&&%%@.....                                  ",
"                                ..&..@=>;--;;>>>',,'')')')))'))'',,,,>;;;--==*=***&&&%%%$.....                                  ",
"                                .+#..$;>;--;;;>>,,'''))')))))))''',>>>;;;---==*****&&&%%$+.+...                                 ",
"                                .%...&;;----;>>>,',''')))')')')''',,>>;;;--====**&&&&&&%%@.....                                 ",
"                               ..&..@->;--;;;>>>,,'''))'))')))'''',>>>;;-;-===****&&&&%%%$.....                                 ",
"                               .+#..$;>-=--;;>>>',,''')))))''))'',,,>>;;;---==****&&&&%%%$+.+...                                ",
"                               .%...*>;----;;>>>,,''')'')')))''''',>>>;;;--===****&&&%&%%%@.....                                ",
"                              ..&..@;>-==--;;>>,,,'''))')')'))''',,>>>;;;--===*****&&&&%%%$..+..                                ",
"                              .@@..%;;-=--;;;>,>,'''''')')))''''',,>>>;;---====*&*&&&&%%%%$+.+...                               ",
"                              .&...-;-===--;;>>,,,''))')''')'))'',,>>;;;---==**=**&&&&&%%%$@.....                               ",
"                             ..&..@-;===--;;;>>,,,,''')')))')'''',,>>>;;;--===*****&%&&%%%%$.....                               ",
"                             .@...%;-====-;;;>>,,''''')''')'''''',,>>;;;---===***&&*&&%%%%$$+.+...                              ",
"                            ..@...%--*==--;;>>>,,,,')'')')'')'''',>>>>;;---===*****&&%&%%%%$+.....                              ",
"                            .....#%==**==-;;;>>,,,''')')')'')''',,,>>;;;;--===***&&&&&&%%%%$#.+...                              ",
"                            .....$&*====--;;>>>,,',''''')'')''''''>>>;;;--====*****&&&&&%%%$#.@...                              ",
"                            .....%%&=*==--;;;,>,,,,'')''')'''''',,,>>;;;---===***&*&&&%%%%$$#.$...                              ",
"                            .....#&&**==--;;>>,>,''''''')''''''',,>>>;;;--====****&&&&&&%%%$@.$...                              ",
"                            ..#..@%&**==--;;>>>,,,''''''')')'''',,,>>;;;---===****&*&&%%%$$#+@@..                               ",
"                             ..&..#&**==--;;;>,,,,'''''')'''''''',>>;>;-;-====***&*&&&&%%%%@.&...                               ",
"                             ..@..@%**=--;;;>>>,,,''''''''''''',,,,>>;;;--====****&&&&&%%$#+@%...                               ",
"                              ..+..$&*===;;;>>,>,,'''''')''''''''>>>>;;;---===*****&&&&%$$@.*...                                ",
"                              .....+$&==-;;;>>,>,,,''''''''''',',,>>;;;;-=====****&*&%%%$@+*....                                ",
"                               ......@&==-;;>>>,,'''''''''''''','>>>;>-;---===****&&&%%#+.*@...                                 ",
"                                ......@%=-;;>>,>,,,'''''''''',',,,>>>;;---====***&&&%$#+.*+...                                  ",
"                                 .......#&=;;>>,,,'''''''''''',',,>>;;;---===****&%%$+.#*....                                   ",
"                                  .......+#*-;>>,,,,',''''','',',>>>>;;;--==*=*&&%#@..&$....                                    ",
"                                   ........+#*-;>>,,,''',,''''',,,>>;;;-===***&%#@..&&.....                                     ",
"                                     ........+##*;>>>>,,,,,,,>,>>>>;;--===**%$@+..&&.....                                       ",
"                                      ..........++@$*;;>>>>>>>>>;;;---=*&%@++..#&%......                                        ",
"                                        .......@....++#@$*-;;;;;--=*&#@@.+..#&%.......                                          ",
"                                          ........+@.....++#@@@@@@@+...#$&%#........                                            ",
"                                            ................++@@#$%&*&$...........                                              ",
"                                               ................................                                                 ",
"                                                    .......................                                                     ",
"                                                           ........                                                             ",
"                                                                                                                                ",
"                                                                                                                                ",
"                                                                                                                                ",
"                                                                                                                                ",
"                                                                                                                                ",
"                                                                                                                                ",
"                                                                                                                                ",
"                                                                                                                                ",
"                                                                                                                                ",
"                                                                                                                                "};
