/* XPM */
char * solidintersect_xpm[] = {
"128 128 17 1",
" 	c None",
".	c #000100",
"+	c #1D1F1C",
"@	c #282927",
"#	c #3B3D3B",
"$	c #4B4D4A",
"%	c #5C5E5B",
"&	c #6E706D",
"*	c #7E807D",
"=	c #929491",
"-	c #A3A5A2",
";	c #B2B5B1",
">	c #C4C6C3",
",	c #CFD1CE",
"'	c #DEE0DD",
")	c #EBEEEB",
"!	c #FCFFFB",
"                                                                                                                                ",
"                                                                                                                                ",
"                                                                                                                                ",
"                                                                                                                                ",
"                                                                                                                                ",
"                                                                                                                                ",
"                                                                                                                                ",
"                                                                                                                                ",
"                                                                                                                                ",
"                                                                                                                                ",
"                                                                                                                                ",
"                                                                                                                                ",
"                                                                                                                                ",
"                                                                                                                                ",
"                                                                             =========                                          ",
"                                                                        =======-----=======                                     ",
"                                                                    ====-;>;-=======-;;;-=====*                                 ",
"                                                                  ===;>;-=====*=*=**======-;=====                               ",
"                                                                ==;>;===***&&&       &&**=*==--===*                             ",
"                                                              ==;,-==***&                &&*=*==-====                           ",
"                                                            ==;,-==**&                      %&*===-===*                         ",
"                                                          ==;,-=**&%                           &&*=====**                       ",
"                                                         ==>>==*&&                               %**=====*                      ",
"                                                        =;,==*&%                                   &*=====*                     ",
"                                                       =;>==*&                                       &*====*                    ",
"                                                      =>>=*&                                          &*=====                   ",
"                                                     =,-=*&                                             *=====                  ",
"                                                    =,-=&&                                               &*===*                 ",
"                                                   =>;**&                                                 &*===*                ",
"                                                  =;-=*&                                                   &====*               ",
"                                                 ==-=&&                                                     &====*              ",
"                                                -===*&                                                       *===*&             ",
"                                                ==**&                                                         ====*             ",
"                                        ======&...+#                                                           ====*            ",
"                                   ==========*.........                                                        *===*&           ",
"                               ====-;;;-===**@..#+........                                                      *===*           ",
"                             ===;>;-=====***$..*$.....+.....                                                    *===*&          ",
"                           ==-,;====***&&    .#@..++.....@....                                                   *===*          ",
"                         ==;,-==**&&&       ..#.+*;=&$++...+....                                                  ===*%         ",
"                       ==;,-==**&           .@..#;>>;;-*$+........                                                *===*         ",
"                      =-,;==&&&             .%..*>>>;>>;>-&#........                                              *===*         ",
"                    ==>,=**&&              ..@.#;;>>>>,,>>,-&#.......                                              ====&        ",
"                   =-,-=*&&                .%..%,>>>>>,,',,,>;&+......                                             *===&        ",
"                  =;,=**&                  .%.+->>>>,'')'''',,>-$+.....                                             ===*        ",
"                 =>>=*&                   ..@.#,,>>,,'))))))'',,>*+.....                                            ====%       ",
"                =>;=**                    .#..%,,,,,'))!!!))))'',,-$.....                                           *===&       ",
"               =,;=&&                     .$.@=,,>,''))!!!!!)!))'',>%+....                                           =-=*       ",
"              =>;**&                      .$.+>,>,,'))!!!!!!!)!!)'''>&+....                                          ===*       ",
"             =;>=*&                       .+.#,,>,,'))!!!!!!!!)!!)))',&+....                                         ====       ",
"            =-,=*&                       ....&,,,,'))!!!!!!!!!!!!!!)'),%+....                                        ===*&      ",
"            =,=*&                        .+.+=,>,,')))!!!!!!!!!!!)!!))),$.....                                        =-*&      ",
"           =>==&                         .@.@-,,,,')!!!!!!!!!!!!!!!!!!)';#.+..                                        =-=&      ",
"          =;>**                          .#.@;,>,,'))!!!!!!!!!!!!!!!!!!))=+....                                       =-=&      ",
"          =,=*&                          .#.+>,,,'))!!!!!!!!!!!!!!!!!!!!)'$.....                                      =-=*      ",
"         =;-=&                           .#.+>,,,,)))!!!!!!!!!!!!!!!!!!!!)>+....                                      =;=&      ",
"        ==,=&&                           .#.+>,,,')!!!!!!!!!!!!!!!!!!!!!!!)*+....                                     =;=*      ",
"        =>=*&                            .#.@;>,,'')!!!!!!!!!!!!!!!!!!!!!)!'#....                                     =;=*      ",
"        =>=*                             .@.+-,,,'))!!!!!!!!!!!!!!!!!!!!!!!)=+....                                    =;=&      ",
"       =;-*&                             .+.@=,,''))!!!!!!!!!!!!!!!!!!!!!!!!'#....                                    --=&      ",
"       =>=*&                             ..+.&,,,'))!!!!!!!!!!!!!!!!!!!!!!!!)=....                                   =;-*&      ",
"      ==;=&                               .#.$,,,')!!!!!!!!!!!!!!!!!!!!!!!!!!,#....                                  =;=*       ",
"      =>=*&                               .#.+;,,')))!!!!!!!!!!!!!!!!!!!!!!!!)&....                                  =,=*       ",
"      =>=*                                .#.+=,,''!!!!!!!!!!!!!!!!!!!!!!!!!!!;+...                                  =>=*       ",
"     ==-=&                                ....&,,')))!!!!!!!!!!!!!!!!!!!!!!!!!)#....                                =-;=&       ",
"     =;=*&                                ..+.$>,,))!!!!!!!!!!!!!!!!!!!!!!!!!!!&....                                =>=*&       ",
"     =;=*                                  .@.+-,,')!)!!!!!!!!!!!!!!!!!!!!!!!!!-+...                                =>=*        ",
"     =;=*                                  ....&,,'')!!!!!!!!!!!!!!!!!!!!!!!!!!'+...                               =-;=&        ",
"     --=&                                  ..+.#;,')))!!!!!!!!!!!!!!!!!!!!!!!!!)$....                              =>=*&        ",
"    ====&                                   .+.+=>,')!!!!!!!!!!!!!!!!!!!!!!!!!!)&....                              =>=*         ",
"    =-==                                    ....$>,'))!!!!!!!!!!!!!!!!!!!!!!!!!!-+...                             =;-=&         ",
"    =-=*                                    ..+.+=,'')!!!!!!!!!!!!!!!!!!!!!!!!!!>@+..                             =>=*&         ",
"    =;=*                                     ....$>,'))!!!!!!!!!!!!!!!!!!!!!!!!!,@@..                            =-;=&          ",
"    =;=*                                     ....+=,'))!!!!!!!!!!!!!!!!!!!!!!!!!'@#..                            =,=*&          ",
"    =-=*                                      ....$;,')!)!!!!!!!!!!!!!!!!!!!!!!!'@#..                           =;-**           ",
"    =;=*                                      ....+&,'')!!!!!!!!!!!!!!!!!!!!!!!)'@$..                           =,=*&           ",
"    =;=*                                       ....+-,)))!!!!!!!!!!!!!!!!!!!!!!!'@$..                          =,=*&            ",
"    =--*                                       .....$;'')!!!!!!!!!!!!!!!!!!!!!!!,@$..                         =;;=*             ",
"    =-=*                                        ....+&,'))!!!!!!!!!!!!!!!!!!!!!);@#..                        =-,=*&             ",
"    ==-=&                                        ....+=,))!)!!!!!!!!!!!!!!!!!!!!*@@..                        =,=*&              ",
"     =;=&                                         ....+='')!!!!!!!!!!!!!!!!!!!!!%$...                       =,==&               ",
"     =;=*                                         .....#-''!)!!!!!!!!!!!!!!!!!)'@&..                       =,-=*&               ",
"     =-=*                                          .....#='))!!!!!!!!!!!!!!!!!!>@&..                      =>-=&&                ",
"     ====&                                          .....+&,)!)!!!!!!!!!!!!!!!)=.$..                     =,-=*&                 ",
"     ==-=&                                           .....@$;))!!!!!!!!!!!!!!!)%$...                   =-,==&&                  ",
"      =-=*                                            ......#=')!)!!!!!!!!!!!!,@&..                   =-,==*&                   ",
"      ====&                                            ......+$-)!)!!!!!!!!!!!*.%..                 ==>>=*&%                    ",
"      ==-=&                                              ......+&;)!!!!!!!!!!)$%...               ==;,==*&                      ",
"       ===*                                               .......@&;))!!!!!!!-@*..              ==->;==*&                       ",
"       ==-=&                                               ........@$-,)!!!!)%%@..            ==-,;==&&&                        ",
"       *===*                                                 ........@@%=,')>#*...         ===;,;==**&                          ",
"        ====&                                                  .........+@$&$*...      **==;,>===**&                            ",
"        *===*                                                    .......#&***....%&&&&*-;>>-===*&&                              ",
"         ====&                                                     .............@=----====*=*&&&                                ",
"         *===*&                                                       ..........***&***&***&&                                   ",
"          ====*                                                          @+....&&&&%&%&%                                        ",
"           ====&                                                         &&*&%$                                                 ",
"           *===*&                                                       &**&&&                                                  ",
"            *===*&                                                      *-*&&                                                   ",
"             ==-=*                                                     =;=*&                                                    ",
"             &====*                                                   =>;**%                                                    ",
"              &====*                                                 =>;=*&                                                     ",
"               *====*&                                              =,-=*&                                                      ",
"                *==-==*                                           ==,-=&&                                                       ",
"                 &=====*                                         =;,=**&                                                        ",
"                  &*=====*                                     ==>>==&&                                                         ",
"                    *======*                                 ==;,==*&                                                           ",
"                     *=======*                             ==->;==*&                                                            ",
"                      &*=======*                         ==->>=**&&                                                             ",
"                        &*===-=====                   ===;,;==**&                                                               ",
"                          &*===========           ====;,>-==**&                                                                 ",
"                            &**==================-;>>>====&*&                                                                   ",
"                              &***======--;-;;;>;;=====**&&                                                                     ",
"                                 %&**=======-======**&&&                                                                        ",
"                                     $&&&*******&&&                                                                             ",
"                                                                                                                                ",
"                                                                                                                                ",
"                                                                                                                                ",
"                                                                                                                                ",
"                                                                                                                                ",
"                                                                                                                                ",
"                                                                                                                                ",
"                                                                                                                                ",
"                                                                                                                                ",
"                                                                                                                                ",
"                                                                                                                                ",
"                                                                                                                                ",
"                                                                                                                                ",
"                                                                                                                                "};
