/* XPM */
char * spline_xpm[] = {
"128 128 17 1",
" 	c None",
".	c #000000",
"+	c #050804",
"@	c #0D100C",
"#	c #131412",
"$	c #1B1C1A",
"%	c #212220",
"&	c #2D2F2C",
"*	c #363735",
"=	c #3F413F",
"-	c #444643",
";	c #4A4C4A",
">	c #535552",
",	c #5C5F5C",
"'	c #666866",
")	c #6F716E",
"!	c #7D7F7C",
"                                                                                                                                ",
"                                                                                                                                ",
"                                                                                                                                ",
"                                                                                                                                ",
"                                                                                                                                ",
"                                                                                                                                ",
"                                                                                                                                ",
"                                                                                                                                ",
"                                                                                                                                ",
"                                                                                                                                ",
"                                                                                                                                ",
"                                                                                                                                ",
"                                                                                                                                ",
"                                                                                                                                ",
"                                                                                                                                ",
"                                                                                                                                ",
"                                                                                                                                ",
"                                                                                                                                ",
"                                                                                                                                ",
"                                                                                                                                ",
"                                                                                                                                ",
"                                                                                                                 ...            ",
"                                                                                                                .....           ",
"                                                                                                                .++..           ",
"                                                                                                                ..!..           ",
"                                  .............                                                                 ..!...          ",
"                               .....+%&*%#.......                                                                .#+..          ",
"                             ...+;,=#......@&&......                                                             .....          ",
"                           ...='=..............##....                                                            ..@...         ",
"                         ...;!$...................+....                                                          .+....         ",
"                        ..%!&......          ...........                                                          .+...         ",
"                       ..,)......               .....#....                                                        .....         ",
"                      ..!*....                    ....#....                                                       .....         ",
"                     ..!.....                       ........                                                      .....         ",
"                    ..!....                          ........                                                     ..#..         ",
"                   ..!....                            .......                                                     ..%..         ",
"                  ..!....                              .......                                                     .*..         ",
"                  .>=...                                .......                                                    .=..         ",
"                 .#!...                                  .......                                                   .-..         ",
"                ..!...                                    ......                                                   .;..         ",
"                .=*...                                     ..#...                                                 ..>..         ",
"               ..!...                                      ......                                                 ..;..         ",
"               .>....                                       ..#...                                                ..*..         ",
"              ..'...                                        ......                                                .@%..         ",
"              .>..+                                          ..@...                                               .*...         ",
"             ..)...                                          ......                                               .>...         ",
"             .*$..                                            ..$...                                              .)...         ",
"            +.)...                                            ......                                             ..'...         ",
"            ..,...                                             ..+...                                            .#*..          ",
"            .*...                                              ..%...                                            .>...          ",
"            .,...                                              ......                                           ..!...          ",
"           ..,...                                               ..#..                                           ..,...          ",
"           ..*..                                                ..$...                                          .;...           ",
"           .*...                                                ......                                         ..!...           ",
"           .,...                                                 ..$...                                        .#;...           ",
"          ..'...                                                 ......                                       ..'...            ",
"          ..,..                                                  .......                                      ..)...            ",
"          ..=..                                                   ..+...                                     ..,....            ",
"          .%%..                                                   .......                                    ..)...             ",
"          .=...                                                    ......                                   ..'....             ",
"          .>...                                                    ...+...                                  .%'...              ",
"         ..,...                                                     ......                                 ..!....              ",
"         ..,...                                                     .......                               ..,%...               ",
"         ..'...                                                      .......                              .&'...                ",
"         ..,...                                                       .......                            ..!....                ",
"         ..>...                                                       ........                          ..!....                 ",
"         ..;...                                                        ........                        ..!...+                  ",
"         ..=...                                                         ........                     ..+!....                   ",
"         ..*...                                                          .........                  ..&!....                    ",
"         ..&...                                                           ....+....               ...''....                     ",
"         ..&...                                                            ...........          ...=!.....                      ",
"         ..*...                                                             .............   ....+=!&.....                       ",
"         ..=...                                                               ................=')#......                        ",
"         ..=...                                                                .........$&->,-#.......                          ",
"         ..-...                                                                  ...................                            ",
"         ..=...                                                                    ...............                              ",
"         ..&...                                                                        .......                                  ",
"         ..%...                                                                                                                 ",
"         ..+...                                                                                                                 ",
"          .....                                                                                                                 ",
"          .....                                                                                                                 ",
"          ..$...                                                                                                                ",
"          ..&...                                                                                                                ",
"          ..&...                                                                                                                ",
"          ..@...                                                                                                                ",
"          ......                                                                                                                ",
"           ......                                                                                                               ",
"           ......                                                                                                               ",
"           ......                                                                                                               ",
"           ......                                                                                                               ",
"            .....                                                                                                               ",
"             ...                                                                                                                ",
"                                                                                                                                ",
"                                                                                                                                ",
"                                                                                                                                ",
"                                                                                                                                ",
"                                                                                                                                ",
"                                                                                                                                ",
"                                                                                                                                ",
"                                                                                                                                ",
"                                                                                                                                ",
"                                                                                                                                ",
"                                                                                                                                ",
"                                                                                                                                ",
"                                                                                                                                ",
"                                                                                                                                ",
"                                                                                                                                ",
"                                                                                                                                ",
"                                                                                                                                ",
"                                                                                                                                ",
"                                                                                                                                ",
"                                                                                                                                ",
"                                                                                                                                ",
"                                                                                                                                ",
"                                                                                                                                ",
"                                                                                                                                ",
"                                                                                                                                ",
"                                                                                                                                ",
"                                                                                                                                ",
"                                                                                                                                ",
"                                                                                                                                ",
"                                                                                                                                ",
"                                                                                                                                ",
"                                                                                                                                ",
"                                                                                                                                ",
"                                                                                                                                ",
"                                                                                                                                ",
"                                                                                                                                "};
