/* XPM */
char * stretch_xpm[] = {
"128 128 17 1",
" 	c None",
".	c #000000",
"+	c #5E0000",
"@	c #790000",
"#	c #2A2C29",
"$	c #383A37",
"%	c #585A57",
"&	c #A14745",
"*	c #C08282",
"=	c #998F8C",
"-	c #ADAEAB",
";	c #D3A7A5",
">	c #DBB8B9",
",	c #C7C9C6",
"'	c #D7D9D5",
")	c #E6E8E5",
"!	c #FDFFFC",
"                                                                                                                                ",
"                                                                                                                                ",
"                                                                                                                                ",
"                                                                                                                                ",
"                                                                                                                                ",
"                                                                                                                                ",
"                                                                                                                                ",
"                                                                                                                                ",
"                                                                                                                                ",
"                                                                                                                                ",
"                                                                                                                                ",
"                                                                                                                                ",
"           ..................................................@@@@@@@@@@@@@@@@@@@@@@@@@@@@@@@@@@@@@@@@@@@@@@@@@@@@@@@@@          ",
"           ..................................................@@@@@@@@@@@@@@@@@@@@@@@@@@@@@@@@@@@@@@@@@@@@@@@@@@@@@@+++          ",
"           ..##...###$$$$$$$$$$$$$$$$$$$$$$$$$$$$$$$$$$$.....@@*>;&&&*&&&*&&&*&&&*&&&*&&&*&&&&*&&&*&&&*&&**;;*&@@@@@++          ",
"           ..=%..............................................@@@@@@@@@@@@@@@@@@@@@@@@@@@@@@@@@@@@@@@@@@@@@@@@*>>&@@@+           ",
"           ..$...............................................@@+@+++++++++++++++++++++++++++++++++++++++++@@@@@@@@+++           ",
"           ....#================================================;==;=;=;==;=;=;=;=;=;=;=;=;=;=;=;=;=;=;=;===;=&@@+++            ",
"           ....$,,,,,,,,,,,,,,,,,,,,,,,,,,,,,,,,,,,,,,,,,,,,,,>,,,,,,,,,,,,,,,,-,,,,,,,,,,,,,,,,,,,-,,-,,>,,,-@@@@++            ",
"           ....$,,-,-,,,,,,,,,,,,,,,,,,,,,,,,,,,,,,,,,,,,,,,,,,,,,,,,,,,,,,,,,,,,,,,,,-,,,,,,-,,,,,,,,,,,,,,,&@@@++             ",
"           ....$,,-,,,,,,,',,,,',,',,,,,,,,,,',,,',,,',,,,,,,,',,,,,,,,,,,,,,,,,,,,,,,,',,,,,,,,,',,,,,,,,,,>@&@+++             ",
"           .#..$,-,,,'''')'''')''')')')')')'''')'')')'')')')')')'''''''))''')')')')''))')''')))''')'))')')''&@*@++              ",
"           .$..$,,,,'))))))))))))))))))))))))))))))))))))))))))))))))))))))))))))))))))))))))))))))))))))))>@&&@++              ",
"           .$..$,,,,')))!!!!)!!)!))!!)!)!!)!!!!)!)!!)!)!)!)!)!)!)!)!!)!)!)!)!)!)!!)!))!)!!)!)!)!!)!)!)!)!)!&@>@++               ",
"           .$..$,,,,))!)!!)!!!)!!!!)!)!!!!!!))!!!)!!!!!!!!!!!!!!!!!)!!!!!!!!!)!)!)!!!!!)!)!!!)!)!!!!!)!!!!>@*&@+                ",
"           .#..$,,>'))!!!!!!!!!!!!!!!!!!!!!!!!!!!!!!!!!!!!!!!!!!!!!!!!!!!!!!!!!!!!!!!!!!!!!!!!!!!!!!!!!!!!&@;@++                ",
"           .$..$,,,'))!!!!!!!!!!!!!!!!!!!!!!!!!!!!!!!!!!!!!!!!!!!!!!!!!!!!!!!!!!!!!!!!!!!!!!!!!!!!!!!!!!!>@*@@+                 ",
"           .#..$,,,,)))!!!!!!!!!!!!!!!!!!!!!!!!!!!!!!!!!!!!!>====-!!!!!!!!!!!!!!!!!!!!!!!!!!!!!!!!!!!!!!!&@>@++                 ",
"           .$..$,>''))!!!!!!!!!!!!!!!!!!!!!!!!!!!!!!!!!!!!!!-....%!)!!!!!!!!!!!!!!!!!!!!!!!!!!!!!!!!!!!!;@*@@+                  ",
"           .$..$,,>,))!!!!!!!!!!!!!!!!!!!!!!!!!!!!!!!!!!!!!!-.#..$!!)!!!!!!!!!!!!!!!!!!!!!!!!!!!!!!!!!!!&@>@++                  ",
"           .$..$,,,')))!!!!!!!!!!!!!!!!!!!!!!!!!!!!!!!!!!!!!-.%..$!)!)!!!!!!!!!!!!!!!!!!!!!!!!!!!!!!!!!;@*@@+                   ",
"           .$..$,,,')!!!!!!!!!!!!!!!!!!!!!!!!!!!!!!!!!!!!!!!,.=..$))))!)!!!!!!!!!!!!!!!!!!!!!!!!!!!!!!!&@;@++                   ",
"           .$..$,,,,)))!!!!!!!!!!!!!!!!!!!!!!!!!!!!!!!!!!!!!-.$..%,),))!!!!!!!!!!!!!!!!!!!!!!!!!!!!!!!;@*@@+                    ",
"           .$..$,,>'))!!!!!!!!!!!!!!!!!!!!!!!!!!!!!!!!!!!!!!-....$,>')))!!!!!!!!!!!!!!!!!!!!!!!!!!!!!!@@>@++                    ",
"           .$..$,,,'))!!!!!!!!!!!!!!!!!!!!!!!!!!!!!!!!!!!!!!-....$',,))!)!!!!!!!!!!!!!!!!!!!!!!!!!!!!;@*@@+                     ",
"           .$..$,,,'))!!!!!!!!!!!!!!!!!!!!!!!!!!!!!!!!!!!!!!-....$,,,,))!!!!!!!!!!!!!!!!!!!!!!!!!!!!!@@;@++                     ",
"           .$..$,,,,)))!!!!!!!!!!!!!!!!!!!!!!!!!!!!!!!!!!!!!-....$,>''))!!!!!!!!!!!!!!!!!!!!!!!!!!!!*@;@@+                      ",
"           .$..$,>,'))!!!!!!!!!!!!!!!!!!!!!!!!!!!!!!!!!!!!!!'=====,,,,))!!!!!!!!!!!!!!!!!!!!!!!!!!!!@@;@++                      ",
"           .$..$,,,)))!!!!!!!!!!!!!!!!!!!!!!!!!!!!!!!!!!!!!!!!)))',,,)))!!!!!!!!!!!!!!!!!!!!!!!!!!!*@;@++                       ",
"           .$..$,,>,))!!!!!!!!!!!!!!!!!!!!!!!!!!!!!!!!!!!!!!!!!))'),,))!)!!!!!!!!!!!!!!!!!!!!!!!!!!@@;@++                       ",
"           .$..$,,''))!!!!!!!!!!!!!!!!!!!!!!!!!!!!!!!!!!!!!!!!!))')')))!)!!!!!!!!!!!!!!!!!!!!!!!!!*@;@@+                        ",
"           .$..$,,,,)))!!!!!!!!!!!!!!!!!!!!!!!!!!!!!!!!!!!!!!!!))))))))!!!!!!!!!!!!!!!!!!!!!!!!!!)@&*@++                        ",
"           .$..$,,,'))!!!!!!!!!!!!!!!!!!!!!!!!!!!!!!!!!!!!!!!!!!)))))!!!!!!!!!!!!!!!!!!!!!!!!!!!!*@;@@+                         ",
"           .$..$,,>'))!!!!!!!!!!!!!!!!!!!!!!!!!!!!!!!!!!!!!!!!!!!!!)!)!!!!!!!!!!!!!!!!!!!!!!!!!!)@@*@++                         ",
"           .$..$,,,'))!)!!!!!!!!!!!!!!!!!!!!!!!!!!!!!!!!!!!!!!!!!)!!!!!!!!!!!!!!!!!!!!!!!!!!!!!!*@>@++                          ",
"           .$..$,,,'))!!!!!!!!!!!!!!!!!!!!!!!!!!!!!!!!!!!!!!!!!!!!!!!!!!!!!!!!!!!!!!!!!!!!!!!!!'@&*@++                          ",
"           .$..$,,>'))!!!!!!!!!!!!!!!!!!!!!!!!!!!!!!!!!!!!!!!!!!!!!!!!!!!!!!!!!!!!!!!!!!!!!!!!!&@;@++                           ",
"           .$..$,,,,)!!!!!!!!!!!!!!!!!!!!!!!!!!!!!!!!!!!!!!!!!!!!!!!!!!!!!!!!!!!!!!!!!!!!!!!!!)@&&@++                           ",
"           .$..$',,'))!!!!!!!!!!!!!!!!!!!!!!!!!!!!!!!!!!!!!!,=-==-!!!!!!!!!!!!!!!!!!!!!!!!!!!!&@>@@+                            ",
"           .$..$,,,,))!!!!!!!!!!!!!!!!!!!!!!!!!!!!!!!!!!!!!!-....%!!!!!!!!!!!!!!!!!!!!!!!!!!!)@&&@++                            ",
"           .$..$>,,')))!!!!!!!!!!!!!!!!!!!!!!!!!!!!!!!!!!!!!-.#..$!)!!!!!!!!!!!!!!!!!!!!!!!!!&@>@++                             ",
"           .$..$'>,,))!!!!!!!!!!!!!!!!!!!!!!!!!!!!!!!!!!!!!!-.%..$)))!)!!!!!!!!!!!!!!!!!!!!!)@&&@++                             ",
"           .$..$,,'')!)!!!!!!!!!!!!!!!!!!!!!!!!!!!!!!!!!!!!!-.=..%)))))!!!!!!!!!!!!!!!!!!!!!&@>@++                              ",
"           .$..$,,>,))!!!!!!!!!!!!!!!!!!!!!!!!!!!!!!!!!!!!!!-.#..$',))))!!!!!!!!!!!!!!!!!!!>@*&@+                               ",
"           .$..$,,,'))!!!!!!!!!!!!!!!!!!!!!!!!!!!!!!!!!!!!!!-....$','))!!!!!!!!!!!!!!!!!!!!&@;@++                               ",
"           .$..$,,,'))!!!!!!!!!!!!!!!!!!!!!!!!!!!!!!!!!!!!!!-....$,,>')))!!!!!!!!!!!!!!!!!>@*@@+                                ",
"           .$..$,,,,))!!!!!!!!!!!!!!!!!!!!!!!!!!!!!!!!!!!!!!-....$,,'')!!!!!!!!!!!!!!!!!!!&@>@@+                                ",
"           .$..$,,,'))!!!!!!!!!!!!!!!!!!!!!!!!!!!!!!!!!!!!!!,....$,,,,)))!!!!!!!!!!!!!!!!;@*@++                                 ",
"           .$..$>,,'))!!!!!!!!!!!!!!!!!!!!!!!!!!!!!!!!!!!!!!,=====,,,')!!!!!!!!!!!!!!!!!!&@>@@+                                 ",
"           .$..$,,>,)!)!!!!!!!!!!!!!!!!!!!!!!!!!!!!!!!!!!!!!!!!))','>'))!!!!!!!!!!!!!!!!;@*@++                                  ",
"           .$..$,,''))!!!!!!!!!!!!!!!!!!!!!!!!!!!!!!!!!!!!!!!!!))',,')))!!!!!!!!!!!!!!!!@@;@++                                  ",
"           .$..$,,,,)))!!!!!!!!!!!!!!!!!!!!!!!!!!!!!!!!!!!!!!!)!)))'))))!!!!!!!!!!!!!!!;@;@@+                                   ",
"           .$..$,>,'))!!!!!!!!!!!!!!!!!!!!!!!!!!!!!!!!!!!!!!!!!)))))))!!!!!!!!!!!!!!!!)@@;@@+                                   ",
"           .$..$',>'))!!!!!!!!!!!!!!!!!!!!!!!!!!!!!!!!!!!!!!!!!)!)))))!)!!!!!!!!!!!!!!;@;@++                                    ",
"           .$..$,,,'))!!!!!!!!!!!!!!!!!!!!!!!!!!!!!!!!!!!!!!!!!!!!!)!!)!!!!!!!!!!!!!!!@@;@++                                    ",
"           .$..$,,,')))!!!!!!!!!!!!!!!!!!!!!!!!!!!!!!!!!!!!!!!!!!!!!!!!!!!!!!!!!!!!!!*@;@@+                                     ",
"           .$..$,,,'))!!!!!!!!!!!!!!!!!!!!!!!!!!!!!!!!!!!!!!!!!!!!!!!!!!!!!!!!!!!!!!!@@;@++                                     ",
"           .$..$,,>'))!!!!!!!!!!!!!!!!!!!!!!!!!!!!!!!!!!!!!!!!!!!!!!!!!!!!!!!!!!!!!!*@;@++                                      ",
"           .$..$,,,'))!!!!!!!!!!!!!!!!!!!!!!!!!!!!!!!!!!!!!!!!!!!!!!!!!!!!!!!!!!!!!)@@;@++                                      ",
"           .$..$,,,'))!!!!!!!!!!!!!!!!!!!!!!!!!!!!!!!!!!!!!!,==-=-!!!!!!!!!!!!!!!!!*@;@++                                       ",
"           .$..$,,,,)))!!!!!!!!!!!!!!!!!!!!!!!!!!!!!!!!!!!!!-....%!!!!!!!!!!!!!!!!)@&*@++                                       ",
"           .$..$,,>')!!!!!!!!!!!!!!!!!!!!!!!!!!!!!!!!!!!!!!!-.#..$)!)!!!!!!!!!!!!!*@;@@+                                        ",
"           .$..$,,,'))!!!!!!!!!!!!!!!!!!!!!!!!!!!!!!!!!!!!!!-.%..%))))!)!!!!!!!!!)@&*@++                                        ",
"           .$..$,,,,)))!!!!!!!!!!!!!!!!!!!!!!!!!!!!!!!!!!!!!-.=..$))))!!!!!!!!!!)*@;@++                                         ",
"           .$..$,,,')!!!!!!!!!!!!!!!!!!!!!!!!!!!!!!!!!!!!!!!-.#..$))))))!!!!!!!!>@&*@++                                         ",
"           .$..$,>,,)))!!!!!!!!!!!!!!!!!!!!!!!!!!!!!!!!!!!!!-....$,,,')!)!!!!!!!&@;@++                                          ",
"           .$..$,,''))!!!!!!!!!!!!!!!!!!!!!!!!!!!!!!!!!!!!!!-....$',,)))!!!!!!!)@&&@++                                          ",
"           .$..$,,>'))!!!!!!!!!!!!!!!!!!!!!!!!!!!!!!!!!!!!!!,....$,,>,)!)!!!!!!&@>@++                                           ",
"           .$..$,,,')))!!!!!!!!!!!!!!!!!!!!!!!!!!!!!!!!!!!!!-....$,,''))!!!!!!>@*&@++                                           ",
"           .$..$,,,,)!!!!!!!!!!!!!!!!!!!!!!!!!!!!!!!!!!!!!!!,=====,,,'))!!!!!!&@;@++                                            ",
"           .$..$,,,')))!!!!!!!!!!!!!!!!!!!!!!!!!!!!!!!!!!!!!!!!)),,,>)))!!!!!>@&&@+                                             ",
"           .$..$,,>'))!!!!!!!!!!!!!!!!!!!!!!!!!!!!!!!!!!!!!!!!))))),''))!!!!!&@>@@+                                             ",
"           .$..$,,,'))!!!!!!!!!!!!!!!!!!!!!!!!!!!!!!!!!!!!!!!!!))''')))!)!!!>@*&@+                                              ",
"           .$..$,,,,))!!!!!!!!!!!!!!!!!!!!!!!!!!!!!!!!!!!!!!!!)!)))))))!!!!!&@;@++                                              ",
"           .$..$,,,')))!!!!!!!!!!!!!!!!!!!!!!!!!!!!!!!!!!!!!!!!!)))))!)!!!!;@*@@+                                               ",
"           .$..$,,>'))!!!!!!!!!!!!!!!!!!!!!!!!!!!!!!!!!!!!!!!!!!!!!)!!!!!!!&@;@++                                               ",
"           .$..$,,,'))!!!!!!!!!!!!!!!!!!!!!!!!!!!!!!!!!!!!!!!!!!!)!!!!!!!!;@*@@+                                                ",
"           .$..$,,,'))!!!!!!!!!!!!!!!!!!!!!!!!!!!!!!!!!!!!!!!!!!!!!!!!!!!!&@>@++                                                ",
"           .$..$,>,'))!!!!!!!!!!!!!!!!!!!!!!!!!!!!!!!!!!!!!!!!!!!!!!!!!!!;@*@@+                                                 ",
"           .$..$,,>')))!!!!!!!!!!!!!!!!!!!!!!!!!!!!!!!!!!!!!!!!!!!!!!!!!!@@;@++                                                 ",
"           .$..$,,,'))!!!!!!!!!!!!!!!!!!!!!!!!!!!!!!!!!!!!!!,=-==-!!!!!!;@;@@+                                                  ",
"           .$..$,,,'))!!!!!!!!!!!!!!!!!!!!!!!!!!!!!!!!!!!!!!-....$!!!!!!@@;@++                                                  ",
"           .$..$,,,'))!)!!!!!!!!!!!!!!!!!!!!!!!!!!!!!!!!!!!!-.#..%)!)!!*@;@@+                                                   ",
"           .$..$,>,,))!!!!!!!!!!!!!!!!!!!!!!!!!!!!!!!!!!!!!!-.%..$))!)!@@;@++                                                   ",
"           .$..$,,''))!!!!!!!!!!!!!!!!!!!!!!!!!!!!!!!!!!!!!!-.=..%))))*@;@++                                                    ",
"           .$..$,,>,)!!!!!!!!!!!!!!!!!!!!!!!!!!!!!!!!!!!!!!!-.#..$''')@@;@++                                                    ",
"           .$..$',,'))!!!!!!!!!!!!!!!!!!!!!!!!!!!!!!!!!!!!!!-....$'>'*@;@@+                                                     ",
"           .$..$,,,,))!!!!!!!!!!!!!!!!!!!!!!!!!!!!!!!!!!!!!!-....$,,>@@*@++                                                     ",
"           .$..$,,,'))!!!!!!!!!!!!!!!!!!!!!!!!!!!!!!!!!!!!!!-....$',*@>@++                                                      ",
"           .$..$,>,,)))!!!!!!!!!!!!!!!!!!!!!!!!!!!!!!!!!!!!!-....$--@@*@++                                                      ",
"           .$..$,,''))!!!!!!!!!!!!!!!!!!!!!!!!!!!!!!!!!!!!!!,=====,&@>@@+                                                       ",
"           .$..$,,>,)))!!!!!!!!!!!!!!!!!!!!!!!!!!!!!!!!!!!!!!!!))',@&*@++                                                       ",
"           .$..$,,'')!!!!!!!!!!!!!!!!!!!!!!!!!!!!!!!!!!!!!!!!!!)),&@;@++                                                        ",
"           .$..$,,>'))!!!!!!!!!!!!!!!!!!!!!!!!!!!!!!!!!!!!!!!!)))>@&*@++                                                        ",
"           .$..$,,,'))!!!!!!!!!!!!!!!!!!!!!!!!!!!!!!!!!!!!!!!!!))&@>@++                                                         ",
"           .$..$,,,,))!!!!!!!!!!!!!!!!!!!!!!!!!!!!!!!!!!!!!!!!!!'@&&@++                                                         ",
"           .$..$,,,'))!!!!!!!!!!!!!!!!!!!!!!!!!!!!!!!!!!!!!!!!!!&@>@++                                                          ",
"           .$..$,,>')))!!!!!!!!!!!!!!!!!!!!!!!!!!!!!!!!!!!!!!!!>@*&@++                                                          ",
"           .$#.$,,,'))!!!!!!!!!!!!!!!!!!!!!!!!!!!!!!!!!!!!!!!!!&@>@++                                                           ",
"           .#%.$,,,,))!!!!!!!!!!!!!!!!!!!!!!!!!!!!!!!!!!!!!!!!>@*@@+                                                            ",
"           ..=.#====-----------------------------------------=@@>@++                                                            ",
"           ..$...............................................+@@@@+                                                             ",
"           .........#$$$$$$$$$$$$$$$$$$$$$$$$$$$$$$$$$$$$....@@@@++                                                             ",
"           ..................................................@@@+++                                                             ",
"           ..................................................++@++                                                              ",
"           ...................................................+++                                                               ",
"                                                                                                                                ",
"                                                                                                                                ",
"                                                                                                                                ",
"                                                                                                                                ",
"                                                                                                                                ",
"                                                                                                                                ",
"                                                                                                                                ",
"                                                                                                                                ",
"                                                                                                                                ",
"                                                                                                                                ",
"                                                                                                                                ",
"                                                                                                                                "};
