/* XPM */
char * swisometricview_xpm[] = {
"128 128 17 1",
" 	c None",
".	c #000000",
"+	c #1C1E1E",
"@	c #3C4041",
"#	c #545653",
"$	c #4D6680",
"%	c #666966",
"&	c #7F817E",
"*	c #739ABF",
"=	c #A6A9A5",
"-	c #87B4E0",
";	c #B8BAB7",
">	c #97C9FC",
",	c #C6C8C5",
"'	c #D6D8D5",
")	c #E5E8E4",
"!	c #FBFDFA",
"                                                                                                                                ",
"                                                                                                                                ",
"                                                                                                                                ",
"                                                                                                                                ",
"                                                                                                                                ",
"                                                            .....                                                               ",
"                                                           .......                                                              ",
"                                                          .........                                                             ",
"                                                         ...@#+.....                                                            ",
"                                                        ...%&%@......                                                           ",
"                                                       ..+%%@.........                                                          ",
"                                                      ..@&+............                                                         ",
"                                                     ..&#..+............                                                        ",
"                                                    ..&...+=.....%+......                                                       ",
"                                                   ..&...+,=.....%&+......                                                      ",
"                                                  ..&...+,'&.....&=&+......                                                     ",
"                                                 ..&...+,,;=.....&===.......                                                    ",
"                                                ..&...+,',;&.....%==;=+......                                                   ",
"                                               ..&...+,,;;;=.....&;;=;=+......                                                  ",
"                                              ..&...+,';;;;=.....&;;;;,=+......                                                 ",
"                                             ..&...+,,;;;;;=..+..%;;,,'';+......                                                ",
"                                            ..&...+,',;;;,,=.....&;;,,''';+......                                               ",
"                                           ..&...+,,;;-;,,';..+..&=;,'')');+......                                              ",
"                                          ..&...+,';;;;',');.....&;;;'))))';+......                                             ",
"                                         ..&...+,,;;;;,,''!;.....&;;,''!!!)';+......                                            ",
"                                        ..&...+;';;;;,,'))!,..+..&-;;''!)!!)';+......                                           ",
"                                       ..&...+',,;;;,'''!)!,..+..&;;,''!!!!!)';+......                                          ",
"                                      ..&...+,,;;;;;''')!!!,.....&;;,''!)!!!!!';+......                                         ",
"                                     ..&...+,';;-;',>)!!!!!,..+..&;;,''!!!!!!)));+......                                        ",
"                                    ..&...+,,;;;;;'')))!!!!,.....&-;,')'!!!!!!!)';+......                                       ",
"                                   ..&...+,',;;;',''!!!!!!!,.....&;;,''!!!!!!!!!)';+......                                      ",
"                                  ..&...+,';;;;,,')))!!!!!!,..+..&;-,')'!!!!!!!!!));+......                                     ",
"                                 ..&...+,,;;;;,'''!!!!!!!!!,..+..%;;,''!!!!!!!!!!))';+......                                    ",
"                                ..&...+,';;;;-'')'!!!!!!!!!,.....&;;,'')!!!!!!!!!!!!';+......                                   ",
"                               ..&...+,,;;;;,,''!!!!!!!!!!!,..+..&;;,')!!!!!!!!!!!!!)';+......                                  ",
"                              ..&...+,',;;;,'''!'!!!!!!!!!!,.....&;-,'')!!!!!!!!!!!!!));+......                                 ",
"                             ..&...+,,;;;-',')!!!!!!!!!!!!!,..+..&;;,''!!!!!!!!!!!!!!!)';+......                                ",
"                            ..&...+,';;;;,,'''!!!!!!!!!!!!!'..@..&;;,'')!!!!!!!!!!!!!)!)';+......                               ",
"                           ..&...+,,,;;;,,')!!!!!!!!!!!!!!!,.+#..&;;,''!!!!!!!!!!!!!!!!!));+......                              ",
"                          ..&...+,';;-;;'''!'!!!!!!!!!!!!!!'.@@..%;-,'))!!!!!!!!!!!!!!!!!)';+......                             ",
"                         ..%+..+,,;;;;,,''!!!!!!!!!!!!!!!!!&.%#..%;;,''!!!!!!!!!!!!!!!!!!!)';+......                            ",
"                        ..@@..+;',;;;,''))!>!!!!!!!!!!!!!!;..&@...&;;'))!!!!!!!!!!!!!!!!!)!!';+..+...                           ",
"                       ...&..+,,;;;;,,''!!!!!!!!!!!!!!!!!;..@@....+=;''!)!!!!!!!!!!!!!!!!!!!)';+..@...                          ",
"                      ...#%..=',;;-,'')))!!!!!!!!!!!!!!!;..%+.......*'')!!!!!!!!!!!!!!!!!!!!!!);+.%....                         ",
"                      ...##..+=;;;,,''!!!!!!!!!!!!!!!!!;..&+.........=''!)!!!!!!!!!!!!!!!!!!!)));++%....                        ",
"                       ..@@...+=;;,'!'!!!!!!!!!!!!!!!!;..&...+=+......=))!!!!!!!!!!!!!!!!!!!!!!))%.&....                        ",
"                       ...+....+=;'''!!!!!!!!!!!!!!!!;..&...+,,=+......=')!!!!!!!!!!!!!!!!!!!!!!%.+&....                        ",
"                       .........+;>''!!!!!!!!!!!!!!!;..&...+,';==+......=)'!!!!!!!!!!!!!!!!!!!!&..@&....                        ",
"                       ..........+;'!)!!!!!!!!!!!!!;..&...+,,;;;==+......;')!!!!!!!!!!!!!!!!!!&..@%#....                        ",
"                       ....@......+;''!!!!!!!!!!!!;..&...+,',;;;;;=+......='))!!!!!!!!!!!!!!!%..@%@.....                        ",
"                       ....$$......+;))!!!!!!!!!!;..&...+,,;;;;,,,';+.....+=))!!!!!!!!!!!!!!&..%%.......                        ",
"                       ....$-$......+;)'!!!!!!!!;..&...+,';;-;,,'''';+......=')!!!!!!!!!!!!&.+&+..@.....                        ",
"                       .+..@***......+,')!!!!!!;..&...+,,,;;;,,''))');+.....+=')!!!!!!!!!!&.+&...@=.....                        ",
"                       .+..$***$......+,')!!!!;..&...+,';;;;,''))!!!));+......='))!!!!!!!&.+&...@,=.....                        ",
"                       .@..@***-$+.....+,')!!;..&...+,,;;;;,,''!!)!!))';+.....+=))!!!!!!&.@&...#,,=.....                        ",
"                       .@..$***-**......+;');..&...+,',;;-,,')'!!!!!!!)';+......=')!!!!&.+&...@,,;&.....                        ",
"                       .@..@****--*...+..+,=.+&...+',;;;;,'''!!!!!!!!!!));+.....+=''!!&.+&...@',;,=.....                        ",
"                       .@..$-**-*--*...@+.+..@...+,,;;;;,'''))!!!!!!!!!!)';+......=))%.@&...@,,;;;&.....                        ",
"                       .@..@**-*----*...@&#@+...+',;-;;,,''!!!!!!!!!!!!!!)';+..+..+=&.@%...@'';;;;=.....                        ",
"                       .@..$***--->--*....@#...+;,;,;;,''))!!!!!!!!!!!!!!!!';+..%+....@...#,,;;;;,=..+..                        ",
"                       .@..@-**-->>>--*.......+,';;;;,,''!>!!!!!!!!!!!!!!!!)';+..&#+.....@,';;;;',=.....                        ",
"                       .@..$*-*-->->>>-$+......=-;;;-'''!!!!!!!!!!!!!!!!!!!!));+.@&%....@',;;;;,,';..+..                        ",
"                       .#..$***-->->>>->*+.....+==;;'''!!!!!!!!!!!!!!!!!!!!!!)';..#@...@;;;;;;'''',.....                        ",
"                       .@..$****->>>>>>>-*+.....+=;,')')!!!!!!!!!!!!!!!!!!!!!!!&........=;;;-;,')),..+..                        ",
"                       .@..@*-*-->>>>>>->-*+.....+=,''!!!!!!!!!!!!!!!!!!!!!!!!$..........&;;,'''!!;.....                        ",
"                       .@..$***--->>>>>>->-*......+;''!!!!!!!!!!!!!!!!!!!!!!!&.@@........+&;;')))!,..+..                        ",
"                       .@..@**-*>->>>>>>>->-*......+;')!!!!!!!!!!!!!!!!!!!!!&.@%...@+......=,''!!!,.....                        ",
"                       .@..$-**-->>>>>>>>>>>-*......+;'))!!!!!!!!!!!!!!!!!!&.+&...@;=+......*'')!!,..+..                        ",
"                       .@..@***-->->>>>>>>>>>-*......+;))!!!!!!!!!!!!!!!!!&.+&...#,;;=......+=))!)'.....                        ",
"                       .@..$***-->>>>>>>>>>>->-*......+,')!!!!!!!!!!!!!!!&.+&...@,,;=;=+......=')!,.@...                        ",
"                       .$..$***-->>>>>>>>>>>>>>-*......+,')!!!!!!!!!!!!!&.+&+..#,';;;;;=......+='),.%...                        ",
"                       .@..$***-->>>>>>>>>>>>>->-*......+,')!!!!!!!!!!!&.+&...@',;;;;;,,;+......=);+&...                        ",
"                       .#..$**-*->>>>>>>>>>>>>>>--*......+,'))!!!!!!!!&.@&...#',;;;;,'''';+......;;#&...                        ",
"                       .#..$***--->>>>>>>>>>>>>>>>-*......+;))!!!!!!!&.+&...@,,;;;;,,'')'';+..+#+@=&@...                        ",
"                       .%..$**--->>>>>>>>>>>>>>>>>>-*......+,')!!!!!&.+&...#',;;;;',''!!!)',+...&&&&....                        ",
"                       .#..$***-->>>>>>>>>>>>>>>>>->-*......+,))!!!&.@&...@,';;;;>,'!))!!!!';+...@%%....                        ",
"                       .+..+***-->>>>>>>>>>>>>>>>>>>--*......+;')!&.+&...#',;;;;','))!!!!!!));+...+@....                        ",
"                      ...@.+$**-->>>>>>>>>>>>>>>>>>>>>-*......+,'&.@&...@,,;;-;,''')!!!!!!!!)';+........                        ",
"                      ......+**-->>>>>>>>>>>>>>>>>>>>-->*...@..+%.@%...@'';;;;,,')!!!!!!!!!!!)';+.......                        ",
"                       ......+**->>>>>>>>>>>>>>>>>>>>>>--*...##..+....#,';;;;,'')'!!!!!!!!!!!!!);+......                        ",
"                        ......+*-->>>>>>>>>>>>>>>>>>>>>>>-*...#%+....@',;;;;,,')!!!!!!!!!!!!!!))'%......                        ",
"                         ......+*->>>>>>>>>>>>>>>>>>>>>>->-*...+....@,,;;;;''''!>!!!!!!!!!!!!!!!&.+.....                        ",
"                          ......+*->>>>>>>>>>>>>>>>>>>>>>>>-*......@,;;-;;,'''!!!!!!!!!!!!!!!!!&.@.....                         ",
"                           ......+*>>>>>>>>>>>>>>>>>>>>>>>->-$....+;;;;;;;'''!!!!!!!!!!!!!!!!!%.@#....                          ",
"                            ......+*>>>>>>>>>>>>>>>>>>>>>>>>-$....@;;;;;',>)!!!!!!!!!!!!!!!!!&.+&....                           ",
"                             ......+*>>>>>>>>>>>>>>>>>>>>>>>>$....@===;;'')!)!!!!!!!!!!!!!!!&.@&....                            ",
"                              ......+*>>>>>>>>>>>>>>>>>>>>>>>$.+..#;;-;,'))!!!!!!!!!!!!!!!!&.+&....                             ",
"                               ......+*>>>>>>>>>>>>>>>>>>>>>>$.@..@=;;,'))!!!!!!!!!!!!!!!!&.+&....                              ",
"                                ......+*->>>>>>>>>>>>>>>>>>>>$.@..#;;;'')!!!!!!!!!!!!!!!!&.+&....                               ",
"                                 ......+->>>>>>>>>>>>>>>>>>>>$.@..#;;;,''!!!!!!!!!!!!!!!&.@&....                                ",
"                                  ......+*>>>>>>>>>>>>>>>>>>>$.@..#;;,''!!!!!!!!!!!!!!!&.+&....                                 ",
"                                   ......+*>>>>>>>>>>>>>>>>>>$.@..$;;;'''!!!!!!!!!!!!!&.+&....                                  ",
"                                    ......+->>>>>>>>>>>>>>>>>$+@..#;;>''!!!!!!!!!!!!!&.+&....                                   ",
"                                     ......+*>>>>>>>>>>>>>>>>$.@..#;;,'''!!!!!!!!!!!&.@&....                                    ",
"                                      ......+*>>>>>>>>>>>>>>>$.#..#;;,,'!)!!!!!!!!!&.+&....                                     ",
"                                       ......+*>>>>>>>>>>>>>>$.@..#;;,'')!!!!!!!!!&.+&....                                      ",
"                                        ......+*>>>>>>>>>>>>>$.@..#;;;'))!!!!!!!!&.+&....                                       ",
"                                         ......+*>>>>>>>>>>>>$.@..#;-',')!!!!!!!&.+&....                                        ",
"                                          ......+*>>>>>>>>>>>$+@..#;;,''!!!!!!!&.+&....                                         ",
"                                           ......+*>>>>>>>>>>$.@..#;;;'')!!!!!&.@&....                                          ",
"                                            ......+*>>>>>>>>>$.#..#;;,'')!!!!&.+&....                                           ",
"                                             ......+*>>>>>>>>$.@..$;;;'))!!!&.+&....                                            ",
"                                              ......+*>>>>>>>$.@..#;;,,')!!&.@&....                                             ",
"                                               ......+*>>>>>>$.@..$;;;'))!&.+&....                                              ",
"                                                ......+*>>>>>$+#..#;;,''!%.+&....                                               ",
"                                                 ......+*->>>$.#..$;,;''&.@&....                                                ",
"                                                  ......+-->>$.%..#;;,'$.+&....                                                 ",
"                                                   ......+*->$@&..$;;,%.+&....                                                  ",
"                                                    ......+*-$%&..#;;$.@&....                                                   ",
"                                                     ...+..+**%%..@;%.#&....                                                    ",
"                                                      ...@#@@*%#..#%.@@....                                                     ",
"                                                       ...+%&&&@+.+.......                                                      ",
"                                                        ....@%%@+........                                                       ",
"                                                         .....+@........                                                        ",
"                                                          .............                                                         ",
"                                                           ...........                                                          ",
"                                                            .........                                                           ",
"                                                             .......                                                            ",
"                                                              .....                                                             ",
"                                                                                                                                ",
"                                                                                                                                ",
"                                                                                                                                ",
"                                                                                                                                ",
"                                                                                                                                ",
"                                                                                                                                ",
"                                                                                                                                ",
"                                                                                                                                ",
"                                                                                                                                "};
