/* XPM */
char * textbold_xpm[] = {
"128 128 17 1",
" 	c None",
".	c #000000",
"+	c #060A05",
"@	c #0E100D",
"#	c #141614",
"$	c #191B18",
"%	c #222422",
"&	c #2B2D2B",
"*	c #353734",
"=	c #3B3D3A",
"-	c #414340",
";	c #474946",
">	c #535552",
",	c #616360",
"'	c #6B6D6A",
")	c #747673",
"!	c #7E807D",
"                                                                                                                                ",
"                                                                                                                                ",
"                                                                                                                                ",
"            .............................................................                                                       ",
"            .....................................................................                                               ",
"            ..........................................................................                                          ",
"            ..*!';;;;-=*%%$$#####################################@++.....................                                       ",
"            ...........%=-;----------------------------------------=====**&&$@..............                                    ",
"            ................@@@@@@@@@@@@@@@@@@@@@@@@@@@.@......@.@@@##$%%%%&&&&&&%+...........                                  ",
"            ..............+.................................+.................@@@$%%$#..........                                ",
"            .......................................................................@@#$#+.........                              ",
"                      ........@........................................................@@@@........                             ",
"                        ......@...........................................................@@+........                           ",
"                         ....+@@.............................................................+........                          ",
"                          ....@#...................+                 ........................++........                         ",
"                           .+.@$................                         ......................+........                        ",
"                           ....&................                             ............................                       ",
"                           ....&@...............                               ...........................                      ",
"                           ....*@.............+.                                 ..........................                     ",
"                           ...+&#...............                                  .........................                     ",
"                           ....=%...............                                   .........................                    ",
"                            ...*%...............                                    .......+.................                   ",
"                            ...*%...............                                     ......++................                   ",
"                            ...=&...............                                      ........................                  ",
"                            ...=&...............                                       .....++................                  ",
"                            ...=&...............                                        ....@@................                  ",
"                            ...=&...............                                        .....@.................                 ",
"                            ...-&...............                                         ....#+................                 ",
"                            ...-&...............                                         ....$@................                 ",
"                            ...-&...............                                         ....%#.................                ",
"                            ...=&.......+.......                                          ...$%.................                ",
"                            ...;&...............                                          ...#%+................                ",
"                            ...=&...............                                          ...#&+................                ",
"                            ...-&...............                                          ...#=.................                ",
"                            ...-&...............                                          ...$=@................                ",
"                            ...-&...............                                          ...&-@................                ",
"                            ...=&....+..........                                          ...*-.+...............                ",
"                            ...-&...............                                          ...;-@................                ",
"                            ...=&...............                                          ...>=.+...............                ",
"                            ...=&...............                                          ..#,*.................                ",
"                            ...-&...............                                         ...-,&.................                ",
"                            ...-&...............                                         ...,>$.................                ",
"                            ...=&.+.............                                         ..&'>@................                 ",
"                            ...-&...............                                        ...,'*.................                 ",
"                            ...=&+..............                                        ..&),%+................                 ",
"                            ...=&...............                                       ...,)-@................                  ",
"                            ...-&...............                                      ...-!,&+................                  ",
"                            ...=&...............                                      ..#!);#................                   ",
"                            ...=&...............                                     ...)!>%@................                   ",
"                            ...-&...............                                    .+.,!,*@................                    ",
"                            ...=&...............                                  ....,!'-#@................                    ",
"                            ...=&...............                                 ....,!)-%.................                     ",
"                            ...-&...............                              .....%)!';$@+...............                      ",
"                            ...=&...............                           .......;!!,*$.................                       ",
"                            ...=&.......................           .............='!)>*#@................                        ",
"                            ...-&............................................@;,))>=$@.................                         ",
"                            ...=&.........................................#*>'',>=%@..+...............                          ",
"                            ...=&.............+@++.................+@%&-;>,,>;=&#@...................                           ",
"                            ...-&..............@#%&***=**======--;;>>>>;;=*&%@@.....................                            ",
"                            ...=&...........+....@.@##%%&%&&&&&&&&&%%$#@@.........................                              ",
"                            ...=&.................................................................                              ",
"                            ...-&....................................................................                           ",
"                            ...=&......................................................................                         ",
"                            ...=&.......................................................................                        ",
"                            ...-&.............................................................+++.........                      ",
"                            ...=&....................            ................................@@........                     ",
"                            ...=&...............                        ..........................+++.......                    ",
"                            ...-&...............                            .........................+.......                   ",
"                            ...=&...............                               ......................+........                  ",
"                            ...=&...............                                 ..............................                 ",
"                            ...-&...............                                   .............................                ",
"                            ...=&...............                                     ............................               ",
"                            ...=&...............                                      .......+...................               ",
"                            ...-&...............                                       ...........................              ",
"                            ...=&...............                                        ......+....................             ",
"                            ...=&...............                                         ......+...................             ",
"                            ...-&...............                                          .....++..................             ",
"                            ...=&...............                                          .....@....................            ",
"                            ...=&...............                                           .....#+..................            ",
"                            ...-&...............                                            ..+.@...................            ",
"                            ...=&...............                                            ....#@...................           ",
"                            ...=&...............                                            ....@#+..................           ",
"                            ...-&...............                                             ....$...................           ",
"                            ...=&...............                                             ....&@..................           ",
"                            ...=&...............                                             ....&@..................           ",
"                            ...-&...............                                             ....&#..................           ",
"                            ...=&...............                                              ...*$..................           ",
"                            ...=&...............                                              ...=%..................           ",
"                            ...-&...............                                              ...-&..................           ",
"                            ...-&...............                                              ...;&..................           ",
"                            ...=&...............                                              ...>%..................           ",
"                            ...-&...............                                             ...%>%..................           ",
"                            ...=&.+.............                                             ...=>$..................           ",
"                            ...=&...............                                             ...>>#..................           ",
"                            ...=&...............                                             ..#,;@..................           ",
"                            ...-&...............                                            ...;'=..................            ",
"                            ...=&...............                                            ...',%+.................            ",
"                            ...=&...............                                            ..-);#..................            ",
"                            ...-&...............                                           ...)'*@.................             ",
"                            ...;&...............                                          ...>!>%..................             ",
"                            ...;&+..............                                          ..*!'*@.................              ",
"                            ...;&...............                                         ..@)!;%..................              ",
"                            ...>&...............                                        ...'!,&@.................               ",
"                           ...@>%...............                                       ...,!'=@.................                ",
"                           ...&>%...............                                     ....,!'=#@.................                ",
"                           ...->#...............                                    ...@,!)-$..................                 ",
"                           ...>;#...............                                  ....%)!'-$@.................                  ",
"                           ..%,-@...............                                .....;!!,=#@..................                  ",
"                           ..>'*....................                        .......&'!)>&#...................                   ",
"                          ..&),%............................         ............&,)),-%@...................                    ",
"                         ...,!;$..............................................+=,)),;&@.@.+................                     ",
"                        ...,!,*@..............++...........................#*>,),>=%@....................                       ",
"                    ......,!)-$................@$%%%%#@+.............+$&*;>,,,;=&#@.....................                        ",
"            ............$,!!;%@...................#$$&&&****=*=*=--;;>>>>;-=&$#........................                         ",
"            ..........@;)!,;&@.........................@@@$%%%&&&&&&&%%##@............+..............                           ",
"            ..%>*#%=>,))>&..........................+..............................................                             ",
"            ...-&................................................................................                               ",
"            ..............................+...................................................                                  ",
"            ..............................................................................                                      ",
"            ........................................................................                                            ",
"                                                                                                                                ",
"                                                                                                                                ",
"                                                                                                                                ",
"                                                                                                                                ",
"                                                                                                                                ",
"                                                                                                                                ",
"                                                                                                                                ",
"                                                                                                                                "};
