/* XPM */
char * textunderline_xpm[] = {
"128 128 17 1",
" 	c None",
".	c #000000",
"+	c #060A05",
"@	c #10120F",
"#	c #131412",
"$	c #171816",
"%	c #20211F",
"&	c #2B2D2A",
"*	c #2F312E",
"=	c #353734",
"-	c #3E403D",
";	c #444643",
">	c #4F514E",
",	c #5D5F5C",
"'	c #676966",
")	c #727471",
"!	c #7D7F7C",
"                                                                                                                                ",
"                                                                                                                                ",
"                                                                                                                                ",
"                                                                                                                                ",
"              >,,-#...................................                          >',-#...........................                ",
"              .-,','!!);..............................                          .=,','!!!;.......................               ",
"              .........-)!;...........................                          .........=)!>+...................               ",
"                      ....)!'-%#$#$##@........                                          ....,!);%+........                      ",
"                       ....#,'>;;-;--%......                                             .....,,=.......                        ",
"                         ....%%#####.......                                                ....#.......                         ",
"                         .....#......+....                                                  ..........                          ",
"                          ....%...........                                                  .........                           ",
"                          ....%#..........                                                  .........                           ",
"                          ....&#.........                                                    .......                            ",
"                           ...&%.........                                                    .......                            ",
"                           ...&%.........                                                    .......                            ",
"                           ...&&.........                                                    ..+....                            ",
"                           ...%*.........                                                    .......                            ",
"                           ...%=.........                                                    ..#....                            ",
"                           ...%*.........                                                    ..#....                            ",
"                           ...#=.........                                                    ..@....                            ",
"                           ...$=+........                                                    ..#...                             ",
"                           ...#=+........                                                    ..$...                             ",
"                           ...#-#........                                                    ..%...                             ",
"                           ...#-#........                                                    ..%...                             ",
"                           ...#-#........                                                    ..*...                             ",
"                           ...$;#........                                                    ..&...                             ",
"                           ...#-#........                                                    ..*...                             ",
"                           ...$;#........                                                    ..&...                             ",
"                           ...$-#........                                                    ..&...                             ",
"                           ...#;#........                                                    ..*...                             ",
"                           ...#;#........                                                    ..&...                             ",
"                           ...$;#........                                                    ..&...                             ",
"                           ...#;#........                                                    ..*...                             ",
"                           ...$-#........                                                    ..&...                             ",
"                           ...#;#........                                                    ..&...                             ",
"                           ...#;#........                                                    ..*...                             ",
"                           ...#;#........                                                    ..&...                             ",
"                           ...#-#........                                                    ..&...                             ",
"                           ...$;#........                                                    ..*...                             ",
"                           ...#;#........                                                    ..&...                             ",
"                           ...$-#........                                                    ..&...                             ",
"                           ...$;#........                                                    ..*...                             ",
"                           ...#-#........                                                    ..&...                             ",
"                           ...$;#........                                                    ..&...                             ",
"                           ...#;#........                                                    ..*...                             ",
"                           ...$-#........                                                    ..&...                             ",
"                           ...#;#........                                                    ..&...                             ",
"                           ...#;#........                                                    ..*...                             ",
"                           ...#;#........                                                    ..&...                             ",
"                           ...#-#........                                                    ..&...                             ",
"                           ...$;#........                                                    ..*...                             ",
"                           ...#;#........                                                    ..&...                             ",
"                           ...$-#........                                                    ..*...                             ",
"                           ...$;#........                                                    ..=...                             ",
"                           ...#-#........                                                    ..-...                             ",
"                           ...$;#........                                                    ..-...                             ",
"                           ...#;#........                                                    ..;...                             ",
"                           ...$-#........                                                    ..>...                             ",
"                           ...#;#........                                                    ..;...                             ",
"                           ...#;#........                                                    ..;...                             ",
"                           ...#;#........                                                    ..;...                             ",
"                           ...#-#........                                                    ..-...                             ",
"                           ...#-#........                                                    ..;...                             ",
"                           ....-#........                                                    ..;...                             ",
"                           ..+.-#........                                                    ..>...                             ",
"                           ....-#........                                                    ..>...                             ",
"                           ....-$........                                                    ..;...                             ",
"                           ....=%........                                                    ..;...                             ",
"                           ....=%........                                                    ..=...                             ",
"                            ...*%........                                                   ...%...                             ",
"                            ...%&.........                                                  ..%....                             ",
"                            ...%&.........                                                  ..;....                             ",
"                            +...&+........                                                  ..,...                              ",
"                            ....&.+.......                                                  ..,...                              ",
"                            ....%#........                                                  ..-...                              ",
"                            ....$#........                                                 ..-....                              ",
"                             ....$+........                                                ..)....                              ",
"                             ....#+........                                                ..'...                               ",
"                             ..............                                               ..>....                               ",
"                              ....++........                                              ..!....                               ",
"                              ......+.......                                             ..,%...                                ",
"                              ......+........                                           ...!....                                ",
"                               ..............                                           +.!....                                 ",
"                               ...............                                         ..';....                                 ",
"                                ...............                                       ..>)....                                  ",
"                                 ...............                                    ...;!.....                                  ",
"                                  ..............                                   ...>!.....                                   ",
"                                  ................                               ....)'.....                                    ",
"                                   ................                            ....%!=.....                                     ",
"                                    .................                        .....,!......                                      ",
"                                     ..................                   ......;!&......                                       ",
"                                      ......................         .........>!=.......                                        ",
"                                        ...................................-''#.......                                          ",
"                                         .............................#-,'>#.........                                           ",
"                                           ................@$&*--;;--&#............                                             ",
"                                             ....................................                                               ",
"                                                ..............................                                                  ",
"                                                     ....................                                                       ",
"                                                                                                                                ",
"                                                                                                                                ",
"                                                                                                                                ",
"                                                                                                                                ",
"                                                                                                                                ",
"                                                                                                                                ",
"                                                                                                                                ",
"                                                                                                                                ",
"                                                                                                                                ",
"                                                                                                                                ",
"                                                                                                                                ",
"                                                                                                                                ",
"                                                                                                                                ",
"                                                                                                                                ",
"       ................................................................................................................         ",
"       ................................................................................................................         ",
"       ..'!'-;;;;-;;-;;;;;;;;;-;;-;;;;;-;;;;;-;;;;;-;;;;-;;;;;-;;;;;;-;;;;;-;;;;;;;;;-;;;-;;-;;;-;;;;;-;;;;;-;;;;;%....         ",
"       .................................................................................................................        ",
"       .................................................................................................................        ",
"             ..........................................................................................................         ",
"                                                                                                                                ",
"                                                                                                                                ",
"                                                                                                                                ",
"                                                                                                                                ",
"                                                                                                                                ",
"                                                                                                                                ",
"                                                                                                                                ",
"                                                                                                                                ",
"                                                                                                                                "};
