/* XPM */
char * theme_xpm[] = {
"128 128 17 1",
" 	c None",
".	c #000300",
"+	c #510000",
"@	c #610000",
"#	c #6B0000",
"$	c #740000",
"%	c #7E0000",
"&	c #7F0007",
"*	c #292A28",
"=	c #3C3E3C",
"-	c #982F2F",
";	c #A34646",
">	c #B05F5E",
",	c #7A7D7A",
"'	c #BF7E7D",
")	c #A7AAA6",
"!	c #D6ABAC",
"                                                                                                                                ",
"                                                                                                                                ",
"                                                                                                                                ",
"                                                                                                                                ",
"                                                                                                                                ",
"                                                                                                                                ",
"                                                                                                                                ",
"                &%%%%%%%%%%%%%%%%%%%%%%%%%%%%%%%%%%&                 ,,=...............................................         ",
"              -;;;;----------------------------&&&%%&$               *,,,=****************************************.....         ",
"            -;>''''''''>'>'>'>''>'>''>''>'>'>'>>>-&&%$$#             .=))),,,,,,,,,,,,,,,,,,,,,,,,,,,,,,,,,,,,,,,,=....         ",
"           -;>!!!!!!'''''''''''''''''''''''''''''>;-%$$##            ..,)),,,,,,,,,,,,,,,,,,,,,,,,,,,,,,,,,,,,,,,,=....         ",
"           -;!!!!'>>;>;;;;;;;;;;;;;;;;;;;;;;;;;;;;;-&%$$#            ..=,,========================================.....         ",
"          %->!!'>-&&%%$&%&%$&%&$&%%$&%$&&&&&%&%%%&&-&%&###           ..................................................         ",
"          %;'!';&$%%%&%$$##$$#$$##$$$$$#$$$$$$&&%%%%&%%$#@           ..................................................         ",
"         %%-''-&%&%&$######@#@####@@@##@###@#$$$%$%%%%&###+          ..................................................         ",
"         &$->>-%%%$##@@@@@@@@@@@@@@@@@@@@@@@@##$&%%%%%%&$@@          ..................................................         ",
"         %$->;&%%$#@@++++++++++++++++++++++@@@@#$&%%%%%$@#@          ..................................................         ",
"         %%%;-%%&##@++                        +@#$&%%%%$$@@                              ...*......                             ",
"         $%%;-&%$#@@+                          +#$&%&%$$#@@                              ...*......                             ",
"         &&%;-%$$@++                            @$$%&&%$#@@                              ...**.....                             ",
"         $%%--%$$@@                              $&%-&%$#@@                              ...**.....                             ",
"         $&&--%%#@+                              $%%-&%$#@@                              ...**.....                             ",
"         $%%;-%$#@@                              $&%--%$#@+                              ...=*.....                             ",
"         %%%--%$#@+                              $%%--%$#@@                              ...=*.....                             ",
"         $%%--%&#@@                              $&%--%$#@@                              ...=*.....                             ",
"         $&%--$$$@+                              $%%--%%#@@                              ...=*.....                             ",
"         $$%;-%$#@+                              $%%--%$#@@                              ...=*.....                             ",
"         $%%--%$$@@                              $&%;-&&#@+                              ...=*.....                             ",
"         &%%--%###+                              %%%--$$#@@                              ...=*.....                             ",
"         $&%;-&$$@@                              $&%--%$#@@                              ...=*.....                             ",
"         $%%--%$#@+                              $&%--%$#@@                              ...=*.....                             ",
"         %&%--%$#@@                              $%$--%&#@+                              ...=*.....                             ",
"         $&%--%&#@@                              $%%;-$%#@@                              ...=*.....                             ",
"         $%%;-&$#@@                              $%%--%$#@@                              ...=*.....                             ",
"         $%%--$%#@@                              &%%--%$$@+                              ...=*.....                             ",
"         $$%--%$#@+                              $&%;-&$#@@                              ...=*.....                             ",
"         %&%;-%$#@@                              $%%--%$@@+                              ...=*.....                             ",
"         $$%--%%#@@                              %&%--%$$@@                              ...=*.....                             ",
"         $%%--$#$@@                              $%%--%$$#@                              ...=*.....                             ",
"         $%%--%%#@+                              %$%;-&$@@+                              ...=*.....                             ",
"         $$%--%$##@                              %%&;-%%#@@                              ...=*.....                             ",
"         $%%;-&&#@@                              &$-;-%$#@+                              ...=*.....                             ",
"         &&%--%$$@@                              %%;>-%$#@+                              ...=*.....                             ",
"         $%%--%%$$@                              %;>;-&$##@                              ...=*.....                             ",
"         $&%--%$$$#@                            &-''>&%$#@@                              ...=*.....                             ",
"         $%%--%%%%$#+                           >'!';&%$#@@                              ...=*.....                             ",
"         $$$--%%&$$&$#                        ;''!!'-&%$#@+                              ...=*.....                             ",
"         $%%&&%%%%%%&$%%%%%%%%%%%%%%%%%%%%%%->'!!!';-%&$@@@                              ...=*.....                             ",
"         $$%%&%%%%&%%%%&&-----------------;;'!!!!!>-&%&$@@+                              ...=*.....                             ",
"         #$$&&%%%&&--;;>>>>>''>'>'>'>'>'>'''!!!!'>-&%%$#@++                              ...=*.....                             ",
"          #$%%%%%&%--;>>''''''''''''''''''!''''>;-&%&%#@@++                              ...=*.....                             ",
"          ###$&%%%%%%--;-;;;;;;;;;;;;;;;;;;;;---%%%%%##@++                               ...=*.....                             ",
"          @###$$&&&&%%%$&&$&$&&&&&&&&&&&%%%$$%%%%$&$$@@+++                               ..........                             ",
"           @###$#$$$$$$$#$$$$$$$$$$#$#$#$$#$$$$#$$#@@@+++                                ..........                             ",
"            +@@@@@#@@@@##@#@@#@@@@#@###@@##@@@#@@@@@++++                                 ..........                             ",
"             +@@@@@@@@@@@@@@@@@@@@@@@@@@@@@@@@@@@@++++.                                  ..........                             ",
"               ++++++++++++++++++++++++++++++++++++++                                    ..........                             ",
"                                                                                                                                ",
"                                                                                                                                ",
"                                                                                                                                ",
"                                                                                                                                ",
"                                                                                                                                ",
"                                                                                                                                ",
"                                                                                                                                ",
"                                                                                                                                ",
"                                                                                                                                ",
"                                                                                                                                ",
"                                                                                                                                ",
"                                                                                                                                ",
"         ,,=...............................................                 &%%%%%%%%%%%%%%%%%%%%%%%%%%%%%%%%%&&                ",
"         *,,,=****************************************.....               -;;;;----------------------------&&%%&&$              ",
"         .=))),,,,,,,,,,,,,,,,,,,,,,,,,,,,,,,,,,,,,,,,=....             -;>''''''''>'>''>'>''>'>''>''>'>'>>';;&%%$$#            ",
"         ..,)),,,,,,,,,,,,,,,,,,,,,,,,,,,,,,,,,,,,,,,,=....            -;>!!!!!!'''''''''''''''''''''''''''''>;-%$$##           ",
"         ..=,,========================================.....            -;!!!!'>>>;;;;;;;;;;;;;;;;;;;;;;;;;;;;;;-&%$$@           ",
"         ..................................................           %-'!!'>-&%%&%&$%$&$&%&$&$%&$%$&&%$&&%%%&&-&%$$##          ",
"         ..................................................           %-'!';&%&%$&$$$$$#$$#$$$$#$$$$$$$$$$&%%%%%%%%$#@          ",
"         ..................................................          &$-'';&%%&%$$###@#@##@#@##@###@#@##$$$$&%%%%%%$@#+         ",
"         ..................................................          %%->>&%%%$$#@@@@@@@@@@@@@@@@@@@@@@@@@#$%&%%%%%$$@@         ",
"         ..................................................          &%&>;&%&$#@@+++++++++++++++++++++++@@@@$&%%%%%$#@@         ",
"                             ...*......                              $&&;;%&%$@@++                        +##$&%%%&$$@@         ",
"                             ...*......                              $&&;-%$$$@++                          +#$&%&%%$#@@         ",
"                             ...**.....                              $%%--%%$@++                            @$$%&&%$#@@         ",
"                             ...**.....                              $%%--%$$@@                              $&%-&%%#@@         ",
"                             ...**.....                              $&%;-$$#@+                              $%%-&%$#@+         ",
"                             ...=*.....                              $&%--%$$@+                              $&%--&&#@+         ",
"                             ...=*.....                              %%%--%%@@@                              $%%--%$#@@         ",
"                             ...=*.....                              $&%--$$#@+                              $&%--$%#@@         ",
"                             ...=*.....                              $%%;-%$##@                              $%%--%$#@@         ",
"                             ...=*.....                              $%%--%%#@@                              $%%--$$#@@         ",
"                             ...=*.....                              $&%;-%$#@@                              $$%;-%%#@+         ",
"                             ...=*.....                              %%%--%&#@@                              %%%--%$#@+         ",
"                             ...=*.....                              $&%--&$#@+                              $&%--%$#@@         ",
"                             ...=*.....                              $&%--%%#@+                              %&%--%&#@@         ",
"                             ...=*.....                              $%$--%$#@@                              $%$--%$#@@         ",
"                             ...=*.....                              $%%;-$$#@@                              $%%;-$%#@@         ",
"                             ...=*.....                              $%%--%$$@@                              $%%--%$#@+         ",
"                             ...=*.....                              $%%;-%##@@                              $%%--%$#@@         ",
"                             ...=*.....                              $%%--%%#@+                              $&%;-&%#@@         ",
"                             ...=*.....                              $%%--%$#@+                              $%%--$$#@@         ",
"                             ...=*.....                              $&%--%$#@@                              %&%--%&#@+         ",
"                             ...=*.....                              %&%--%&#@@                              $%%--%%#@+         ",
"                             ...=*.....                              $%$--%$#@@                              %$&;-%$#@@         ",
"                             ...=*.....                              $%%--%$#@@                              %%&;-$&#@@         ",
"                             ...=*.....                              $%&--%%#@@                              $%-;-%$#@@         ",
"                             ...=*.....                              $%%;-%%$@@                              $&;;-%$#@@         ",
"                             ...=*.....                              $$%--%&$$@                              %;>>-%%#@+         ",
"                             ...=*.....                              %%%--%%$$#@                            &-'';-%$#@+         ",
"                             ...=*.....                              $&$--%%%%$#+                           >'!';&%$#@@         ",
"                             ...=*.....                              $%%--%%&$$&$#                        ;''!!'-&%$#@@         ",
"                             ...=*.....                              $$%&&%%%%%%&$&%%%%%%%%%%%%%%%%%%%%%->'!!!';-%$$#@+         ",
"                             ...=*.....                              $$%&&%%%%%%%%%&&-----------------;;'!!!!!>-%%$#@@+         ",
"                             ...=*.....                              #$$%%%%%&&--;;>>>'>'>'>'>'>'>'>''''!!!!'>-%%%$#@++         ",
"                             ...=*.....                               $#$%%%%&&--;>>'''''''''''''''''''''!'>;-&%&%##@++         ",
"                             ...=*.....                               #$$&&%%%%%&&--;-;;;;;;;;;;;;;;;>;;---&%%%&%$#+++          ",
"                             ..........                               @@##$$&&%&&&$%$$&&&$&&&&&&&&$&%$$&$%$&$&$$#@@+++          ",
"                             ..........                                @@##$#$$$##$$$$$#$$$$$#$$$$$$$$$$$$$$$$$#@@+++           ",
"                             ..........                                 @@@@@@####@#@##@#@#@##@@@#@#@@#@@@#@#@@@++++            ",
"                             ..........                                  +@@@@+@@@@@@@@@@@+@@@@@@@@@@@@@@@@@@++++@.             ",
"                             ..........                                    ++++++++++++++++++++++++++++++++++++++               ",
"                                                                                                                                ",
"                                                                                                                                ",
"                                                                                                                                ",
"                                                                                                                                ",
"                                                                                                                                ",
"                                                                                                                                ",
"                                                                                                                                ",
"                                                                                                                                ",
"                                                                                                                                "};
