/* XPM */
char * tipoftheday_2_xpm[] = {
"128 128 17 1",
" 	c None",
".	c #000000",
"+	c #16170F",
"@	c #242506",
"#	c #313331",
"$	c #575810",
"%	c #525452",
"&	c #797C79",
"*	c #818317",
"=	c #A2A122",
"-	c #ACB01D",
";	c #C1C326",
">	c #C5C84B",
",	c #D3D439",
"'	c #DADB60",
")	c #E5E583",
"!	c #EFF0A8",
"                                                                                                                                ",
"                                                                                                                                ",
"                                                                                                                                ",
"                                                         ...........+..                                                         ",
"                                                     ......................                                                     ",
"                                                  .....+%%%%##+.+.++##+.......                                                  ",
"                                                ....#&%+................+#......                                                ",
"                                              ...+&%......++++++++++++......+....+                                              ",
"                                            ...#&%....++@$$*********$$$@++....+.....                                            ",
"                                           ..+&%....@$$**=====*=**====***$@@+........                                           ",
"                                         ...&%...+@$$=====*=============*-=$$++........                                         ",
"                                        ..#&...+@@*====*===*===========-=====$$++.......                                        ",
"                                       ..&&..+@$*=============---=---=---=-===**@@......+                                       ",
"                                      ..&#..+@*===*==*=====------;----->;------==$$+......                                      ",
"                                     ..&...@$===========----;;-;->;;;;;-;>;;-;---=*$++.....                                     ",
"                                    +.&..+$*-==========--;;->-;;;;;;;;;;;;;;;;;;----$$+....+                                    ",
"                                   ..&..@$-=-===*===---;--;;;;;;;;;;;;;;;;;;-;;;;-;--=$+.+...                                   ",
"                                  ..&#.@$=-=======---;>-;;;;;;>;;;;>;;;;;;,;,;;;;;;---=$+.+...                                  ",
"                                  .#%..$==-==*==--=>;;;;;->;;;;;;;;;>;;;;;;;;,;;;;;;-;-=@+....                                  ",
"                                 ..&..@*-======----;-;-;;;;-;>;->-;;;;;>;;;;;;;;,;;,;;;;*@.....                                 ",
"                                ..&..+$======-=;;;-,;;;>;>>;>>>;>>>>;>;;>;;;;;;;;,;,;;;;-$+.....                                ",
"                                .#%..$=-=*===-->-;;-;-;;>;;;;>;>;,>;>>;>>;;>;;;,;;;;;,;;;-$+....                                ",
"                               ..&..@*======->-;;;;>;;>;;>>>;>;>>>'>'>;;>;>;>;;;;;,;;,;,;;*@.....                               ",
"                               .%#.+$======--;;-;;>;>-;>>>>>>''>>>>->>>>;>;;>;;,;;;;,;,;;;;$+....                               ",
"                              ..&.+$=======--;;;,>;;>;>>;>>)>>>'>>''>>'->;>>;>;>;;;;;;,;,;;-$....+                              ",
"                              .##.+$===*=---;-;,-;>;;>'-)>>)))))'))))>)'>';>-;>;-,;;;;;,;,,;*+....                              ",
"                             ..&..@*======;;>;;;;;>>>>')>>))>))))')!)'>)>)>>';>;>;;;,;;,;;;;=@.+...                             ",
"                             ..%..$==*==->--;;->;->>''>)>)))!!!!!!!))!!))>'>>>>-;;;;;,;;,,,;-$.....                             ",
"                             .%..@*=====--;;;;;;>>'>))>)))!!))!)))!!))))!)>>'>;>->;;;;;;,;,,;*@.....                            ",
"                            ..%.+@======--;->;-;-;>=>)))!))!)))!)))!)!)))))'>;'>>,>;;,;;;;;,,-$+....                            ",
"                            ..#.+*==*==->-;;;>>;>>')>')!!)!!))>>))>))!!!))!'))>;>;;;;;;,;;,;,;*+....                            ",
"                            .#..@*====---;;;;;;-;>>'>!!))!)';'>;,'>'>>))))!))>'->;>-;;;;;,;,;;=@....                            ",
"                            .%+.$*=====;>-;>;>>>>)>))!)!))),,,,,;,,;;=>))!))!>''>;>>;;;;;;,;,;-$.+...                           ",
"                           ..%..$=====--;;;;;,>'>>)))))!)'',,',,,,;''-->)!)!))>>>';;;;,;;,;,;,;*+....                           ",
"                           ..#.+*====--;-;->-;;-')))!!))';,,'))))',,;>>>>!)))))'>>>->;;;;;;,,,;*+...+                           ",
"                           ....+*=====-;;;;;;>>>>'>!)!)),,,))))',',,,,>=>)!!!)'>'>>,-;;;;,;;;,,=+....                           ",
"                           .+..@*===--;>;;;->>;'>))!)!)>,,))!),',,,,,,;>=>))!))'>'>;;>;;;;,;,;;-@....                           ",
"                           .+..$*=====;-;;>;;;=)>>)!)!'',')!'',,,,,,,,,>==)!)))>>;>-;;,;;,;;;,,-$+...                           ",
"                           .#..$====->;;;;;>>;>'>!)!))),,')),',,,,,,,,,>>=!!!)))'>>;>;;;;;;,,;,,*.+..                           ",
"                           .#.+*====---;-;;;;>>'>)')!)),,,)),,',,,,,,,,'==>))!!)''>>;;;;;;,;;,;;*@#..                           ",
"                           .%.+*==-=-;;;;;;>-;->>!)!!)),,')',,,,,,,,,,,;>=)!!)!))>>'->;;;;,;,,,,*+%..                           ",
"                           .%..$====-;;;;;>;;>>>>)))!!',,,'',,,,,,,,',,>>*=)!!!'>'>>;;,;;;;,;;,,*+%..                           ",
"                           .#.+$*==-->;;;;-;-'>>>!!))!>,',,',',',,,,,',->>!)!)))>),->;;;;,;,,;;;$.%..                           ",
"                           ....@*===-;;;;;;>;>->>))!!!)>,,,,,,,,,,,',,'==*)!))))>>'>;;;;;;;;,,,=@+#..                           ",
"                           ..+.+*==--;;;;;;>;>'''>)!)!!-;',,,,,,,,,,,,'>==!!!)>)>);->>;;;,;,;,;=+#+..                           ",
"                           +.#..*===;=;;;;;;-'->)>)!!)!)>,,,,,',,,','>>=*))!!!)>>>>;;;;;;;,;,,,*@%...                           ",
"                           ..#..$===;;;;;;;>;>'>)>>)!!!!)>>,;',,',,,>>=*!)!)))>)>;>;>;;;;;;,;,,*.&..+                           ",
"                           ..#..$===-=;;;;;;;>;--!')!!!!)'>-,>;;,;--=*)*)!!))>)'>>;>;;;;,;,;,;-$+%...                           ",
"                            ....+*==>;>;;;;;;->>''!))!!!!!!=>>=>-=====!!!!!!))>)>;->,;;;;;,;,,=@.#..                            ",
"                            ..#.+$=-=-;;;;;;;,>;>=>'!!!!!!!!>=-=====*!!!!!!)!>>>>'>;>;;;;,;,,;*+%...                            ",
"                            +.+.+$==--;;;;;;;;>;''>)>)!!!!!!!!>>)=!!!!!!!!!>))>'-;;>;;;;;,,;,;$+&..+                            ",
"                            .....+*==->;;;;;;>;>>--!>!!!!!!!!!!!!!!!!!!!!!)))-'>'>;;,;,;;;;,;=@.%...                            ",
"                             ..+.+$=--;;;;;;;;;>;''>))!!!!!!!!!!!)!!!!!!!!!=)-'-;;;;;;;,,,,,,*+%...                             ",
"                             ....+@==-=;;;;;;;,;-->)>)!!!!!!!!!!!!!!!!!!!!');'>;;>;;;;;;;;;,-$.&...                             ",
"                              ....@*=-->;;;;;;;;;;'>>>)!!!!!!!'!!!!!!!!!)))>->;;>;;;,;,,,;,,*@#+...                             ",
"                              ....+@==-;;;,;;;;;>->)=)>!!!!!!))!!!!!!!!>!)));-,>;,;;;;;;,,,;$.&...                              ",
"                               ....@*==;;;;;,;;;;',;))>!'!!!!)''!>!!!!!!))>-'>;>;;;;,;;,;,;=@##...                              ",
"                               ....+@==-;;,;;,;;;;;->>>>))!)!)))>)!!!!!)>));';;;;;,;;,,,,;-$.&..+                               ",
"                                ....+$=-;;;;;;;;;>,'>>)'!!!!!''!')))!!)>>>);';;;;;;,;;,;,;$+&....                               ",
"                                .....+*==;,;,;;,;;;;,>;'))!)!'')'=)!)!!)));>;;;;,;;;,;,,,=@+&..+                                ",
"                                 ....+$*-;;;;,;;;;>;;>'>)!!)!','))!))!!)>>';;>;;;,,;,;,;;$.=...                                 ",
"                                 .....+$==;;;;,;,;;;''''))!)!,,,'=)!!)'));>;;;;,;;;,;,,,$+&....                                 ",
"                                  +....+$=>;,;;;;,;;>>'')))!!',''=!!)))')>;;;;;;,,;,,;;$#%#+.+                                  ",
"                                   ..+..@$=-;;,,,;;,,''''!!))',';=))!)>)>;',',;;,;,;,;*@%%...                                   ",
"                                    .....@$-;;;;;,,>;'')'')!!,,',=))!!'))'>;;>,;,;,,;*.%&...                                    ",
"                                     ......$-;;;,;,,>','))))!',,'=))))),';';;;,;,,,,$+#&...                                     ",
"                                      ......$>;;;;,;,'''))!)),,''=)!!)')>',',,;,;,,*++&...                                      ",
"                                       .....+=-;;,>,',,'')!))',',=)))))',;',;,,;,;;@.=.+.@                                      ",
"                                       +.....$=-;;;;',''))))!',',>))!)')',;',;,;,;@+&...$                                       ",
"                                        @.....*-;>;,;','))!))',''=)))!)'',,,,;,,,*.%%..$                                        ",
"                                         @....+==;>,,''')!)!)',',=)!))))''>,,,,,;@.&..@                                         ",
"                                         $@....$---;''')')!)!,,''>)!))'','>,;,;;*.%..+$                                         ",
"                                          $....@==>>>;'')))!)',,;=))!)))',,,,,,;@.&..@                                          ",
"                                          *@....*=>-,,,'')))!,'''=))!))''';,,,,=+#..@*                                          ",
"                                           $++..$=->>'''!!!)!,,',-)!))')''',>,,$.&..$                                           ",
"                                           *+...@==->>')'))!!,,''>))!!)'',,',,,@.%.+*                                           ",
"                                           -@....*==>>,'))!)!,,,;>))!))')',,,,-+++.@                                            ",
"                                            $.#..$==->'')))!),,';=)!)))',',>,;=.%..@                                            ",
"                                            $.#..$-=>>;))))))',''=)!)))',>,',,*.%..$                                            ",
"                                            $.%+.$==>=''')!)!',',-)))))'',',;;*.%..@                                            ",
"                                            $.#..$===>>))))))',''>)!)!''',,,,,$.%..@                                            ",
"                                            @.%..$===>;>')!)),,,;>)))))''',',,*.%..@                                            ",
"                                            +.%..$*>*>)>')!)!;,''=!))!)'',,,;,$.%..@                                            ",
"                                            +.#..$====>)')))!,,,,>)!!!))'),,,,$.%..@                                            ",
"                                            ..%..$==)=>'))!))',';=)))))',',',,*.#..@                                            ",
"                                            +.%..$=*==>'')!)!,,''=)))))'',';,,$.%..+                                            ",
"                                            +.#..$==>>>>)))!),,',=))!)'''',,,,*....@                                            ",
"                                            .....$==*>>')))!!',,,-))))')'',,,,$....@                                            ",
"                                            +....$*>*>>)))!)),;;-=))))'''',,,,*....@                                            ",
"                                          .........+....++++..++.+++.++.++............                                          ",
"                                         ..............................................                                         ",
"                                        ................................................                                        ",
"                                        ...#%%#################################+#.......                                        ",
"                                        ...%&%%###################################+......                                       ",
"                                        ....#............................................                                       ",
"                                        .................................................                                       ",
"                                        .................................................                                       ",
"                                         ...............................................                                        ",
"                                          .............................................                                         ",
"                                           .........+..........+...+.......+..........                                          ",
"                                         ..............................................                                         ",
"                                         ...............................................                                        ",
"                                        ....%#++++++++++++++++++++++++++++++++++........                                        ",
"                                        ...%&%%###################################+......                                       ",
"                                        ...+%#..+....+..+......+..+..+..+..+.+.+.........                                       ",
"                                        .................+...............................                                       ",
"                                        .................................................                                       ",
"                                         ...............................................                                        ",
"                                         ..............................................                                         ",
"                                          ............................................                                          ",
"                                          ............................................                                          ",
"                                         ..............................................                                         ",
"                                        ....##+.+..+..+..+.+..+.+.+..+..+..+..+.........                                        ",
"                                        ...#&%%###################################.......                                       ",
"                                        ...#&#+++++++++++++++++++++++#.+++++++++.+.......                                       ",
"                                        .................................................                                       ",
"                                        .................................................                                       ",
"                                        ................................................                                        ",
"                                         ...............................................                                        ",
"                                          .............................................                                         ",
"                                             ........................................                                           ",
"                                                                                                                                ",
"                                                                                                                                ",
"                                                                                                                                ",
"                                                                                                                                ",
"                                                                                                                                ",
"                                                                                                                                ",
"                                                                                                                                "};
