/* XPM */
char * whatsthis_xpm[] = {
"128 128 17 1",
" 	c None",
".	c #0F110E",
"+	c #6F0C0B",
"@	c #2D2E2C",
"#	c #941715",
"$	c #CA1E1D",
"%	c #4F4E4B",
"&	c #9A5250",
"*	c #6B6966",
"=	c #E45D5B",
"-	c #868885",
";	c #CA8E8D",
">	c #A9ABA8",
",	c #EFB8B8",
"'	c #CFD0CD",
")	c #E5E8E5",
"!	c #F7FAF6",
"                                                                                                                                ",
"                                                                                                                                ",
"                                                                                                                                ",
"                                                                                                                                ",
"                                                                                                                                ",
"                                                                                                      *****                     ",
"                   **********                                                                     *************                 ",
"                *******-********                                                                ****---->>--*****               ",
"              ****->>>'>'>>--*****                       ---*---*--**-*                       ****-'>'''>>>>---***              ",
"             ***>'''>'''>>'>-->****                -----*-*******************                ***>''''')))')>>>>-****            ",
"           ***->'''))!!!!!!'>>>-*****          -----*****%*%%%%%%%%%%%%***%******           ***>''')))!!!!!))>'-*-***           ",
"          ***>''')!)))!!!!!)))>*%*****       ----****%%%%@%@@@@@@@@@@%@%@%%%%%%%*%*        **->>''!!)!!!!!!!)))>-*****          ",
"         ***>'')!!!!))!!!)))'>''*%%***    ----***%%%@@@@..............@@@@@@@%%%%%%%*%    **->>'!!!!))!!!!)!!!)''*****          ",
"         **>'')!!!!!)))!))))>')'--**%** ---**%%%%@@.........................@@@@%%%%%%%% ***>>'!!!!!)))!!!!))!!)>'>*%**         ",
"        **>'')!!!!!!!))>>>'*->)---'%@*---***%%@.................................@@@%@%%%%%*>>>!!!!!))))'))''!!!!'''*%***        ",
"       **->>)))!!!!'>>*@%%@@@@..@@%%*--**%%@@......................................@@@%@%%@%-''>''>*->-*->>-)!!'')>-%%**        ",
"       **>>))))!!!')**%*@....@.@..*--**%%@.............@%&;;;,,,,;;&*%&..............@@@@%%%@---%%@%@%%>***>'''!''''%%%**       ",
"       **>'!!)!)))!>%%%@..@%%%***--**%%@..........%*->>-,,,,,,,,;;;;;;;;>-*@...........@@@@%%@%%@@%@.@@%%-''>!!!')!)-%***       ",
"      **>')!!!)!'>'%@@.@@%******-**%%@.........%-''')'>>,,,,,,,,,,;=;;&&>''))>*...........@@@%@@%%%%*%%.@%-->)!''')>>*%**       ",
"      **->)!!)!>-*@@.@.%****  ---*%@........%-')'))'''>>,,,,,;,;;,,,;;&;>')))!!!'%.........@@@@@@%*****%@@@@*>>-->---%@%**      ",
"      *-->!!!!))*%@@.@%***   -**%%@.......*>)')'))))''>>,,,;,,,;,;;;;*;;>>))!!)!!!)-.........@@@@@@  ****%@%%--'---'*%@@**      ",
"      *->'))!)!!-**..%**    --*%%.......*'')'))))))))''>,,,,,,;,;,;;;*;;>'))!!!!)!)!)-........@@@@@@    ***%%*!'>>)'*-%%**      ",
"      **>'!!!))--*@@%**   --**%@......*'')'))'))!!!!)'>>,,,,;,,,;,;;;&;&>'))!!!!!!!!!!)*........@@@@@@   ***%*>>>>'->-%@%*      ",
"     ***->)),'>%%@.@**   -**%%......%>''')'))!)!)!)!))'>,,,,,=,,;,;;&*%&>'')!!!!!!!!!!)!,%.......@.@@.@   **%%*-->-***@.**      ",
"      ***>'!'>->@@.%**  --**@......-''')))))!)!,!!!!)''>,,,,,,,,;;;;*&;*>')!!!!!!!!!!!!!!)*........@@@..   **%@>>-->*%.@**      ",
"      *-->)'''),%@@**  -***@@....@'''))')))!!!!!!!!!!)>>,,,,,;,,;;;;&;;;>'))!!!!!!!!!!)!!)>;@........@@@@  ****>'')'**%@**      ",
"      **->'''')*%.%** --*%%.....*''')))))!,!!!)))!)))''>=;========&&&&&&>''!!!!!!!!!!))'',>>>*......@.....  ****>'!**%@@**      ",
"      **%*>-->*%@@@*  ***@.....-'')'),))!!!!!)!)!!!!))'>======$==$=$$###>'))!!!!!!!!!)'''>>,>';@......@.@.  **%%->*%%@.@**      ",
"      **%%-!--*-@.%*-**%@@....>')')))!!!!)))!)!!!!!!)''>======$$$=$#=###>'')!!!!!!!!))''>>>>'''>@......@...  ***%**-%@@%*       ",
"       ***;)'>'>@@%*-**%.....>'''')))!)!)!)!!)!!!!!))''>=======$$$#$#+##>'))!!!!!!!)')'>>>'>>''''@.......@.. **-*>'-%.@**       ",
"       *****>>'*%@***%%.....>''))))!)))))!)!!!)!)!!))',>$$===$==$$=#####>')!!!!!!'>''>''>'>)''''''%..........**%*>'%@@@**       ",
"       **%%@***@@@***%@....>''),)))))!,)!)!!!))!))!)))'>=$$$$$$=$$$#=###>'')!!!!)*-->>>>>''''')),)'%.....@...@*%%-%@.@%*        ",
"        **%%%*%-@@**%@....-'')'!!)!!)!!!!))!!)!!!)!)'''>====$$$$$$$####+>''!!!!!'->;>>>>'>'')'))!))'@.........%%%*%@@@**        ",
"         **%%%'>****@....*''')))!,)!!)))!!!!!)!!))!)))'>=$=$$$$$$$$#$###>'))!!!!'>>->>''>'')))))))))'@.........**-%@@**         ",
"         ***@%*****%@...@'')))))!)!)))!)!)!!!))!)!!))',>$=$=$==$$$$$####>''!!!!!'->>>'>>>>')),')'),))>.........@**%.%**         ",
"          **%@@@**@@....>')'')!!!)!!)!))!))!!!)!))!)')'>====$$=$$$$#$$#$>'))!!!!'>->>'>','))''))!!!!))-.........@@.%**          ",
"           ***@**%%....*)''))))))),))!!)!)!!!!)!)!!)''>>$=$$$$$$###$#$#$>'')!!!)'->>>,>''''''))')))!)),*..........%**           ",
"            *****%@...@''))!,!)))!!)!!))!))!!))!))))''>>==$=$$$$##$$#$#+>'))!!!!>>>>>>>''''')))')),))!)'@........%**            ",
"              **%@....>'')))!)))!!')!!))!!)!!)!!)))'''>-$$$$$$$$$$$###+#>''!!!!'>>>'>'>'''')')))))!))))),.........*             ",
"              **@@...%')'))!'),!))))!))!!))!!))))')'>>>-$$$$$$$$###+####>'))!!)'>>>>>''''',)),))))!)))'''*........              ",
"             **%@....>')))!)))!!))!!!))!!)!!)')),'''''>>$$$$#####++#+#+#>'))))''''''')''))!!)!))))),!)!)''@........             ",
"             *%%@...%'),))!!!!!!))!!!))!!))!)'')'>'>''>>$$#$#####+##+++#*->>',''''')))'))!)))))))!)!!))))!*........             ",
"            **%@....>))!!!)!))!))!!!)))!!))))')''>>>>'>>$$#&&@&%%%+@++++*-->>>''')))'))!!!')!))!!!)!))!,!),@........            ",
"            **%@...%'')))!!))!!,)!!!))!!)'))''''>>''>>>-&**%*%%%%%%%%@@&**->>>>,''',))!)),)!)!,!)))!))!)))'-........            ",
"            *%@....-))))!)!))!!)!!!)))!!))))''>'-->>'>--**%%%%%@%@%@%%%@%%-->>>'''))!)))))!!))!!)))!!)))))')........            ",
"           *%%@....),))!!!)))!))!!!))!!)')),'>>;-*->--**%%%@@......@@@@%@%%*->>')'''')''!!!!))!)))!!)))))),!*........           ",
"           *%%@...%')))!!!))!))!!!)))!!)')''>>>-*--****%@@............@@@@@@%->>'''''))!!!),)!)))!!))!))!))!>.@......           ",
"          **%@....-)))!!!)))!))!!!))!!)''))>>>>-*--**%@@................@@@@@@->>'))!!!)))))!!!,)!!))!!)!))!,%.@......          ",
"          *%%@....')))!!),!!))!!!)))!!)')''>>>-*-***%@.......      .......@@@@@*>,''')')')))!!)!!!))))))!)')'-..@.....          ",
"          *%%@...%'!,)!))!!!))!!!))!!))')'>>----**%@@.....            ......@.@.->''')))!!!!))))!!))!)))!)))',@.......          ",
"          %%@....*))!!!)!!!),!!!))!!!)''),>>'>-***%@....                .....@..@>')!)!!!!!!)))!!))!!))!!)))''%.@.....          ",
"         **%@....>'))!))!!!!!!!!))!!!)'''''>>;-*%@.....                  .....@..@,))!!!!!!!))!!!))!!!)!!)))''*.@......         ",
"         %*%@....''))))))!))'!!!,))))''''>>>>-**%@....                    ........%!)!!!))!)))))))'!)))))'')''-@@......         ",
"         %%@@....''''''))'''')')''')''>'>>'>>*%%.....                      ........-)')))'))'')')'')''),)''',>>@@@.....         ",
"         %%%....@>,>''''>'>>>'''>''',>>>>>>-**%@....                        .......@,'''''''>'''',>''>'''>>'>>>@@@.....         ",
"         %%@....%>>>>>>>,>>>>>>>>>>>>----->-*%%....                          .......-'>>>>>>>>>>>>>>>>>>>>>>--;%@@.....         ",
"        %%%@....&,,,,,,,),,===;====;==$=$$$&%%....                            ......%,,,,,,,,,,,,,,===;====;===&.@......        ",
"        %%%@....>,),),),,,,=,=;===,===$=$$$%%%....                            ......@,,,,,,,),),),,=;==;===;=$$#@@@.....        ",
"        %%%@....-,,,,,,,,,,===,======$$$$$$%%@...                              ......;,,,,,,,,,,,,,;=,=======$=$@@@.....        ",
"        %%@@....;,,,!,,,,,,=,====$$=$$$$$$&%@@...                              .@....&,,,,,,!,,,,,=,==,===$=$$$$@@@.....        ",
"        %%@.....,,,!,,,),,,=========$=$$$$&%@....                              @.....%,,,,!,,,,,,,,======$==$=$$%@@.....        ",
"        %%@@....,,,,,,,,,,,====$$======$$$%%@...                                @....@,,,,,!,,,,,,,====$$=====$$@@@.....        ",
"        @%@@....,,,,,,,,,,======$$$=$$$$$$@@@...                                @.....,,,,,,,,,,,,====$=$=$=$$$$%@@.....        ",
"        %@@@....,,,,,,;,,,=$=$$$=$$$$$$$$$%%@...                                @@...@,,,,,,,,;,,,=$$=$=$$$$$$$$@%@.....        ",
"        %@@@....;,,;,;;;;;==$$$$$$$$$$###$@@....                                @@....=,;,,;,;;;,;==$$$$$$$$$##$@@@.....        ",
"        %%@.....;;;;;;;,,;&=$=$=$##$$+$#+#@@@...                                @@...@,=;=;;;;;,,;&=$=$=$##$$###%%@.....        ",
"        @@@@....=;;&%&;;;;&$$########+##++.@@...                                %@....=;;;;&%&;;;;&$#########+#+@%@.....        ",
"        %@@.....&;&;*&*&%&&####+#####++++#@@@@...                              %@@...%;;;&;;*&*&%&&#=##++####+#+%@@.....        ",
"        @@@@....&;;&;;;*&%&+&++++++++##++#+.@....                              %%....&&;;;;&*;;&*&%#+++++#+++##+%%@.....        ",
"        @@@@....*&;&@&%&%&&++++++++++#++##+@@@...                              %%....;=;&&;*&%&%%&&++++++++++#++%%@.....        ",
"        @@@.....%;;;%&*&%&&+#&++++++++++$#+.......                            *%@....;;;&;;&%%&&%&&+#&++++++++++@%@.....        ",
"        @@@@....%&&&%*&%&*&++.++++++#+++#++.@.@...                            %@....@=;&;&*&&%;%&*&++.+++++++++&%@@.....        ",
"         @@@....@>>>>>>>>>>>,>>>>->-->>>->'-...@...                          *%@....*>>>>>>>>>>>>>>>,->->----**%%@@....         ",
"         @@@....@>'>'''''''''''''''''',''',)@.....@.                        *%%....@>'>>>'''''''''''>'>''>>>>--%%@.....         ",
"         @@@.....'')')''''''')''')')''')))!)>....@..@                      *%%.....-'''''''''''')'')''')'>'>>--%%@@....         ",
"         @.@.....>))))!!!)!!))!)))!!)!))!)!)!%.....@.@                    *%%@....@''''))))))'''')''''))'')>>>-*%@.....         ",
"         @@@.....*!!!!!!!!!!!!!!!!!!!!!!!!!!!'@......@@                  **%......>'''))),))))))'))))))''''>>>-%%@.....         ",
"          .@@....@!!!!!!!!!!!!!!!!!!!!!!!!!!!!>.......@@                **@@.....>'),))!!!!!!!!!!!!!!!))))''>>*%@@....          ",
"          @.@.....'!!!!!!!!!!!!!!!!!!!!!!!!!!!!-.......@@@            **%@@.....*''))))!!!!!!!!!!!!!!!))!''>>-*%%.....          ",
"          ..@.....-!!!!!!!!!!!!!!!!!!!!!!!!!!!!!*.......@@@%%      **%%%@......*''''))))!!!!!!!!!!!!!!),)'>>>-%%@.....          ",
"          ...@....%!!!!!!!!!!!!!!!!!!!!!!!!!!!!!)-.......@@@@%%%%*%%%%@.......-'')')))!!!!!!!!!!!!!!)))))'>>-**%......          ",
"           @.@.....'!!!!!!!!!!!!!!!!!!!!!!!!!!!)!!>.........@@@@@@@@.........-''''),)))!)))))))))))))')''>>>-*%%.....           ",
"           ...@....*!!!!!!!!!!!!!!!!!!!!!!!!!!!!!),'%......................%>)'''))!!!!!!))')))')))')))'>,>--*%@.....           ",
"            .......@)!!!!!!!!!!!!!!!!!!!!!!!!!!!))))'>@..................@>'''''')))!)!!!!!!!!!!!!!!!)'''>>>*%%@....            ",
"            ...@....-!!!!!!!!!!!!!!!!!!!!!!!!!)!))!)'''-%..............@->'''))))))!)!)))!!!!!!!!!!!)'''>>--*%@.....            ",
"            ........@!!!!!!!!!!!!!!!!!!!!!!!!!!!))!))'>>,,;*@@.....%%;;=>>>'''),))!!!!))))))))))))))'''>>>--*%@.....            ",
"             ........*!!!!!!!!!!!!!!!!!)!!!!!))!))!!)''>,,,,,,,,;,,=,;,;>>',)))!!))!!!!!!!))))'))')')'>>>>-**%.....             ",
"             ........@)!!!!!!!!!!!!!!!!)!!!!)))),'),)''>,,,,,,,,,,,,;,=;>>'''))))!))!!!!!!!!!!!!!!)!''>,>-**%@.....             ",
"             @........*!!!!!!!!!!!!!!!))!!!))))))''!!''>,,,,,,,,,,;=,=,;;>'))!!!)),)))))))))))))')'''>>>>*-%%.....              ",
"             *@........'!!!!!!!!!!!!!!))!!))))))'')!)''>,,,,,,,,,=,;,;;;>>'))!!)!!!!!!'))'))),)')'''''>--**%@.....*             ",
"           ****........@!!!!!!!!!!!!!!!!!!!))))'''!!))>>,,,,,,,,,,,;=,;&>'''),!!!!!!!!!!!!!!!!!!!!),'>>*-**@.....%**            ",
"           **>>@........*)))!!!))!!!!)!!!!!!!))))))!!)'',,,,,,,,,,,,;&;;>''!))))))))))))))))')')')))>>--**%@....@-***           ",
"          **->;'......@..-!)!))!!!)!!!!)!!!!!!!!!!!!),'>,,,,,,,,;;,;;;;;-''')!!!))'))'))')))))''''>>----*%@.....----**          ",
"         **->>!'%.........')!))!)!))!!!))!!!!!)!),!!!''',,,,,,,,,;;;&*;;>>'')))')))))))))')))!!))''>;--**@.....*''>-***         ",
"        **->''!>*......@.@@''))!))!!!))!!!!!!!)'))!)))'>,,,,,,,;,;;;;&;;->')!))))')',)),)),)))')'''>>--*%@.....))''-****        ",
"        **>>'')-%%.........@'!)!))!)!!)!!!!!))'!!)!!)'>>,,,;,,;,,,;;*%%&>>')')!!!!!!!!!!!!!!)','>>>>-*%%@.....*'!))-%***        ",
"       ***>')));%*@.....@.@@%')')!!))!!!)!!!)'))')!!!)'>,,,,,,,;;;;&&*&;-''),)))))))))))')''')''>----*%@.....@-'!!!)-%%**       ",
"       **>>)!))>%**.........@%''))!))!)!))!))!))'')!!''>,,,,,,,,;;-&*;;;>>'))!!)))')')')')'''>'>>>--**@......->'!!!)'%***       ",
"       **''!!!!-%** .....@.@@@%')''!)!))!)!))!),))))''>>=;========&=&&&&>'''))))'))))')''')'''>->-***@......**>')!!)'-*%**      ",
"       **>>!!!)-%%*  ........@@%'''))!)))!!))!)'))))!''>======$==$=#####->'))))))))')')'''''>>>---**%......@**->''')>-%@**      ",
"      **->'!)!!'%%**  .....@.@@@%>''''))!)))')')')!!)''>=======$$$#$=#+#>>'))))!!!!!!!)))''>>;---**@......  *--'''))>*%@**      ",
"      **>>!)!!!!%%**  ........@@@@-''''''''),)')'!,!!'>>========$=$###+#>'')')),)')'''',>>>>----**@....... **>>))'))>>*%%*      ",
"      **>>)!!)!!-%***  ........@@@@*>'''')')))!)!)!!))'>$$===$=$=$######>>,))!!!)'''''>>>>-->-**%@.......  **>'')')'>>-@%*      ",
"      ***-))!))'>*%**   ........@@@@%-'''')')),)))!!)'>-$=$$$$$$$$$#####>>''))'''')'''''>>----*%@.......  **->>!!)'>>-%.%**     ",
"      **-*))),!!'*%***   ........@@@%%%>',''''))))!!)'>>====$$$$$#####++>>''))''''>>>>----;-**%@.......   **>>)!!)''**@@@**     ",
"      **->,))))))!-****   ........@@@@%%*>>>'>'>''''''>-=$$=$=$=$$$#####->','''''''>------**%@........   **>''!!))!)***@%*      ",
"      **--)'))!))))******   ........@@@%@*->>>'>>>'''>>-$==$=$=$$$#$####->'>>'>>>>->-;---**%@.......   ***-'>!!!!)!-*%%.%*      ",
"      ****>''')')))>*-******%........@@@%%@*->>'>',>'---$===$$$$$##$###$-->>>>,>-------**%@........   ***-',))!)',-%%@@.%*      ",
"       ***-!')))!'')>*--*****%.........@@@%%%%*>>>>'>--*=$$$$$$$++###$##--->>--------**%%@........%*****>'>)'))'>*%*%@@.**      ",
"       ***-!!))!))!))''>->>---;%.........@@@%%%%*->>--*-$=$$$$###+$#####**-->--;--****@@........@*****>'''!!)!)'-->-@@@%**      ",
"       ****>,))')!!)!))'>>>;->>-%..........@@%%%%%%**-**$$$$$$$$$#$###++%**----****%@@.........*-->->''''!!)))!--*-%@.@%*       ",
"       ***%%>>->>''>))'')!)>'>'>>,%...........@@%%%*%***&&==$#$###++++&&*---****%%@@.........%>->>>>'>''!!))))>%%@%%@.@**       ",
"        **%%*--,>>>!>''!)!))!)'!>-*%............@@@%@%%*%*%******%**-******%%%%@@..........@-)''''')))!!!!,)>-**@%@@.@%*        ",
"        ***%%-')>>)!>'!!))))''!'-**%@%.............@@@%@%%%%%%%%***%*%*%%%%%@@............%--')!)!!!)!!!!)));->*@%@..%**        ",
"         **%%%>->>'->'!>>')->>)*%%@@%** ...............@@@@@%%%%@%%@%@@@@............... ****->!!)))!!!''')***-%@@.@%**         ",
"          **%@@@%*%@%**%**%@%%%@.@.***    ........................@...................    ***%%*-'>-->>***%@@%@@@..@**          ",
"           **%@%@%%*@@%*%@@%@@@..@%**        ......................................        ***@%@%*-%%%>%%@@%@@@.@%**           ",
"            **%%.@%%@%**%@*@@.@.%***           ..................................           ****%@%%%%-*@@%.@...@%**            ",
"             ***%.@..@@@@@@.@.@****                ..........................                ****%%..@@...@..@%****             ",
"              ****%@......@.%%%**                        ..............                        *****%@@@@@@%%%***               ",
"                ******%%%%******                                                                 **************                 ",
"                  ***********                                                                        *******                    ",
"                                                                                                                                ",
"                                                                                                                                ",
"                                                                                                                                ",
"                                                                                                                                ",
"                                                                                                                                ",
"                                                                                                                                "};
