/* XPM */
char * windowcloseall_xpm[] = {
"128 128 17 1",
" 	c None",
".	c #2B0203",
"+	c #380201",
"@	c #450203",
"#	c #4D0003",
"$	c #5A0001",
"%	c #620100",
"&	c #6C0100",
"*	c #770000",
"=	c #7F0000",
"-	c #911E21",
";	c #983F3E",
">	c #8A4445",
",	c #774D4C",
"'	c #AD5556",
")	c #B76F70",
"!	c #B17B7B",
"                                                                                                                                ",
"                                                                                                                                ",
"                                                                                                                                ",
"                                                                                                                                ",
"                                                                                                                                ",
"                                                                                                                                ",
"                                                                                                                                ",
"                                                                                                                                ",
"                                                                                                                                ",
"                                                                                                                                ",
"                                                                                                                                ",
"                                                                                                                                ",
"                                                                                                                                ",
"                                                                                                                                ",
"                                                                                                                                ",
"                                                                                                                                ",
"                                                                                                                                ",
"                                                                                                                                ",
"                                                                                                                                ",
"          =***                                                                     ****                                         ",
"        =&&*&*&&&                                                               =***&&*&&                                       ",
"       =*====***&&                                                             =&*====&*&&                                      ",
"      &===-==***&&%                                                           &==*=-==**&&&                                     ",
"      ===)));==**&&$                                                         ===='));-=*&&%                                     ",
"     =**-!);-==*=*&&$                                                        =*=)))'--==*&&$                                    ",
"     &*=;)-=====**&&&                                                       =*=)!);-===*&&&$                                    ",
"     **=-'-========&&&                                                     *=='));======*&%$                                    ",
"     &*==-========***&&                                                   ==='!);-======&&%$                                    ",
"     &*&==========****&&                                                 *=='!)'-====**=*&%$                                    ",
"     *&*============***&&                                               *=='!);-=======*&%$#                                    ",
"      &&&============***&&                                             &=='!)'-=======*&&$%                                     ",
"      &&***===========*&*&&                                           ==='!);-=======**%$$#                                     ",
"       &&&**===========*=*&&                                         *=*'!)'-======*=&&%$@                                      ",
"        &&&*============*&*&&                                       ==='!);-======**&&%$$                                       ",
"         &&&*============***&&                                     *=='))'-=-=====**&%$#                                        ",
"          %&&&*===========***&&                                   *=*'!)'-=====*==*&$$$                                         ",
"           &&&*============*=&&&                                 &=='!)'-=======*&&%%#                                          ",
"            &&&&============*=*&&                               ==='!)'-=======**&$$$                                           ",
"             &&&**==========**=*&&                             &=='!)'-=======&&&$$$                                            ",
"              &&&*============*&*&&                           ==='!);-=======**&%$$                                             ",
"               &&&**===========***&&                $$$      *=='!)'-========&&%$$                    $$$                       ",
"                %&&*============**&&&              $%$$$$   ==='!)'-========&&%$$                   $$$$$$                      ",
"                 %&&**=============*&&            $$&$$$$$ *=='!)'-=======&*&$$$                   $$&%$$$$                     ",
"                  &&&*===========**&*&&          $&%%%%$$$==='!);-=======**&%$$                   $%%$&%$#@#                    ",
"                   &&&&*===========***&&         $$&)!&$&&=='!)'-======-*&&$%#                   $%%;)>%%$##                    ",
"                    &&**============***&&        $$%>)%&&=='!)'-========*&%%#                   $%%>!!>%$###                    ",
"                     %&&**===========***&&       $$%$$%==='!);-========&&%$$                   $%%>!!>$%$$#@                    ",
"                      %&&*============*&*&&      #$$%&==='!)'-=======*&&%$$                   $%%;!!>&%$#@@+                    ",
"                       %&&**===========***&&      #$&*=*'!)'=========*&$$#                   $%%>!!>&$$$##@                     ",
"                        %&&*============***&&     $$*=='!);--======*&&$$$                   $$%$!!>%%$%#@@.                     ",
"                         &&&&============***&&     **='))'-========*&$$#                   $%%>!!>&$$#$@@+                      ",
"                          &&**============***&*   ===)!)'-=======*&&%%#                   $&$;!!>%$%$#@@+                       ",
"                           %&&&============*=&*=&**-'))'-======-=&&%$#                   $$%;!!>&%$$#@@+                        ",
"                            &&*&============*=**==')!);-========&&$$$                   $%%>!!>&$$#$@@+                         ",
"                             %&&*===============-')))'-========&&%%#+.                 %%%;!!>%%%$@#@+                          ",
"                              %&&&===========---;'''--=======*&&%%#@@@+               $%%>!!>&$$$##@+                           ",
"                               &&&**==========-------=======**&%$$@@@+++             $$%;!!>%%$###@.                            ",
"                                &&&*===========-============&&%$##@@@@#@+           $%%$!!>%%$$$#@+               +++           ",
"                                 &&&&===================-=**&%$$@@@@@@###@         $$%>!!>&%$#$@@+               @+@++          ",
"                                  &&**====================*&$%$@@@@########       $%%;!!>%$$$#@@+               @+++.+          ",
"                                   &&&==-================*&&$#+++@@##$$$#$$#     $%%>!!>%%%$#@@+               ++@#@+.          ",
"                                    &**=---=============**&&$ .@+@@#$$$$%$##$   $%%;!!>&%$#$#@+               +@,,@.+.          ",
"                                     *==;-==============**&$   .+@@@$$$$$%%$$$ $%%>!!>%%$$$@@.               @+,!++..           ",
"                                      =-'--============*=&&@    .@@$#$%%%%%%$$%%&>!!>%%$$#@@+.              ++,!++..            ",
"                                     =='';===============&&&+    +@#$%$%&%$%%%&>!!!>%$$#$#@+...            @+,!++..             ",
"                                    =*;)'--======-========&&&@    +#$$%%%%&&$;>>)>>&%$$$@@+.....          ++,!+++.              ",
"                                   *==)!'-====-============*&&@    @@#%%%%%-$>>>>$%%%###@........        @@,!++..               ",
"                                  ===)!);-================***&&     ##$%&%$%%%&%&%%%$$#@..........      ++,,+++.                ",
"                                 &=='))'-==================***&&     #$$%%;%%%&%%%%$$$#+ .....++++.    @+,!++..                 ",
"                                ==*'!);-====================***&&     #%%;>%&$%%%%$$$@+    ...++.++.  +@,!+++.                  ",
"                               *=='!)'-======================***&&     $$>;%&%%%%&%$$#      ...@+++@+++,!++..                   ",
"                              ==='!);-======-==-==-===========***&&   $$>)>%%%%%&%$$%$@      .+++,#++#,,+++.                    ",
"                             *=='!)'-========*&**&=============*=*&&$$$%!>>%&%%&%%%$$#$#      +@+,!,>+@++..                     ",
"                            *=='!);-=======**&&&&&**============*&*&&$$,!>;&%%%%%%%%%%#$#      ++@,,,@++++                      ",
"                           *=='!)'-========&&%%$ %&&&============**&&&;!!>$%%%%%%&&%%%$$$@      ++,,>+@+.                       ",
"                          ==='!);--======&*&&%$   %&*&*===========*=%%%>>$%$$$$%$%$%%%$$#$#     @@,++@+++.                      ",
"                         *=='!)'-====-==*&&$$#     %&&&*============**%%$$#$$#$$%$%%%%%%$$$#   +@,+@+++@++.                     ",
"                        ==*'!)'-========*&%$$       %&**============***&&#$##$#$$$$%&$&%$$### ++,>@+@@+++.+.                    ",
"                       *=='!)'========*&&%%$         %&&&=============**&&#@@+ @$$$$%%%%%%%$$@+,,++++++@@+++.                   ",
"                      *=='!);--======&*&%$$           &&*&===========****&%#.   @$$$$%%%%%$$#$#,.++...+++@+++.                  ",
"                     *=='))'-=======*&&$$#             &&&&===========****&&+    @#$$$%%&$%%$#$#+..   ++@+++++.                 ",
"                    *=='!)'-======*=*&%$$               &&&*============***&&+    @#$$%%%%%%$%#$@..    +++@++++.                ",
"                   *=='!)'-========*&%$$                 &&&**===========***&&+    @$#%$%%%%%%$$#@      +++@++++.               ",
"                  ==='!);-=======*&&$$$                   %&&*============***&&+    @#$%%$&$&$$$$$@      ++@@++++.              ",
"                 ***'!)'-======-=&&&$#                   $$%&&&*=============*&&@    ##$$%$&%%%$$$$@      +++@++++.             ",
"                ==='!);-======***&$$$                   $$$>%&***===========***&&     @#$$$%%%&%$$#$@      ++@+@+++.            ",
"               *=='!)'-====-===&&%$$                   $$$>!,%&&*===========*=**&&   ++#$$$$$&%%$%$$$@      +++@++++.           ",
"              ==='!)'-========&&%$#                   $%%>!!>$%&&**==========****&&@+++,@#$%$%%%&%$$#$#      +++@++++.          ",
"             &=='!)'========&*&%%$                   $$%;!!>$$$$&&&*===========***&%@+++.@#$$$%%$%$%$$$#      +++@.++.          ",
"            ===)!);--======&*&%$#                   $&%>!!>%$$##%&***===========**&&%@....@#$$%%&%%$$$###      ++++++.          ",
"           &=='))'-========*&%$$                   $$%>!!>%$$#@@@%&&&=============**&&@... @$#$%$%%%%%%$$#      .+.+..          ",
"         ====)!);-=======**&$$$                   %%%;!!>%%%$#@@. $&***============**&&#    +$$$%%%&&%%$###      ....           ",
"        &*=='))'-=====-==&&%$#                   $$%$!!>%%$#$@@.   %&&**===========*=*&&$    @$#%$%%%%%%%##@                    ",
"       ====)!);-========&&$$$                    %$%%)#&%%%#@@+     %&&*============*&*&&$    @#$%$%%%%$#$#@                    ",
"      *===)));-=======&*&$%#                     $%%$$%%$###@+       %&&*============*=*%$#    @#$$$$%%%##@@                    ",
"      **='));-=======**&%$$                      $#$$$%#$#@@+         %&&&============*&&&%     ##$$$$$$###+                    ",
"      =*=));-=======**&$$#                        $$$$$###@+           &&&**============&&$#     @#$#$###@@                     ",
"     **==''-=======*&&%$$                          ###@@#@+             &&&*===========*&&%#      ###@#@#@                      ",
"     &*==--=====-==*&%$$                            ##@@@                &&&&=========*=*&$#        @#@@+                       ",
"      &*==========&&%$#                                                   &&&***=======*&%$@                                    ",
"      &&*=======*&&%$$                                                     &&&**====**&&&%$                                     ",
"      &&&*=====&&&$$$                                                       $&&***===**&$$@                                     ",
"       &&&&&&&&&%$$$                                                         &&&&&&&&&&$$%                                      ",
"        %&&&&&%%%$$                                                           $&&&&&&$$$$                                       ",
"         %%%$%$$$+                                                              $%$%$$$@                                        ",
"           $$$#+                                                                  $$##                                          ",
"                                                                                                                                ",
"                                                                                                                                ",
"                                                                                                                                ",
"                                                                                                                                ",
"                                                                                                                                ",
"                                                                                                                                ",
"                                                                                                                                ",
"                                                                                                                                ",
"                                                                                                                                ",
"                                                                                                                                ",
"                                                                                                                                ",
"                                                                                                                                ",
"                                                                                                                                ",
"                                                                                                                                ",
"                                                                                                                                ",
"                                                                                                                                ",
"                                                                                                                                ",
"                                                                                                                                ",
"                                                                                                                                ",
"                                                                                                                                ",
"                                                                                                                                ",
"                                                                                                                                "};
