/* XPM */
char * windownext_xpm[] = {
"128 128 17 1",
" 	c None",
".	c #000000",
"+	c #0B1C38",
"@	c #7A0202",
"#	c #2E302D",
"$	c #173467",
"%	c #214B97",
"&	c #464744",
"*	c #903938",
"=	c #656764",
"-	c #976261",
";	c #B87978",
">	c #B29797",
",	c #C6C8C5",
"'	c #D6D7D4",
")	c #E7E9E5",
"!	c #FCFFFB",
"                                                                                                                                ",
"                                                                                                                                ",
"                                                                                                                                ",
"                                                                                                                                ",
"                                                                                                                                ",
"                                                                                                                                ",
"       .................................................................................................................        ",
"       ........##&&#&&&#&&&#&&&&&#&&&&#&&&&#&&&#&&&#&&&&&#&&&&#&&&&#&&&#&&&#&&&&&#&&&&#&&&&#&&&#&&&#&&&&&#&&&&&&&&......        ",
"       ..==......................................................................................................&==....        ",
"       ..=..............................................................................................................        ",
"       .....+++++++++++++++++++++++++++++++++++++++++++++++++++++++++++++++++++++++++++++++++++++++++++++++++++++++.....        ",
"       ....+%%%%%%%%%%%%%%%%%%%%%%%%%%%%%%%%%%%%%%%%%%%%%%%%%%%%%%%%%%%%%%%%%%%%%%%%%%%%%%%%%%%%%%%%%%%%%%%%%%%%%%%.....        ",
"       ....+$%%$%$%$%%$%%$%$%$%%$%$%$%$%%$%$%%$%%$%$%$%%$%$%$%$%%$%$%%$%%$%$%$%%$%$%$%$%%$%$%%$%%$%$%$%%$%$%%$**@@%.....        ",
"       ....+%%$%%%%%%%%%%%%%%%%%%%%%%%%%%%%%%%%%%%%%%%%%%%%%%%%%%%%%%%%%%%%%%%%%%%%%%%%%%%%%%%%%%%%%%%%%%%%%%%*&@@$.....        ",
"       .#...%$%$%%%%%%%%%%%%%%%%%%%%%%%%%%%%%%%%%%%%%%%%%%%%%%%%%%%%%%%%%%%%%%%%%%%%%%%%%%%%%%%%%%%%%%%%%%%%%%@@@*%.&...        ",
"       .#&.+%%%%%%%%%%%%%%%%%%%%%%%%%%%%%%%%%%%%%%%%%%%%%%%%%%%%%%%%%%%%%%%%%%%%%%%%%%%%%%%%%%%%%%%%%%%%%%%%%%@@@@%.=...        ",
"       ..=..%$%%%%%%%%%%%%%%%%%%%%%%%%%%%%%%%%%%%%%%%%%%%%%%%%%%%%%%%%%%%%%%%%%%%%%%%%%%%%%%%%%%%%%%%%%%%%%%%%%%%%%.=...        ",
"       ..=.++$++$$$$$$$$$%$$$$%$$%$$%$$$$%$$$$$%$$$%$$$$$$%$$$$%$$$$$$$%$$$%$$%$$$%$$$$%$$$$$$$%$$$%$$$$$$$$$$$$$$$&=...        ",
"       ..=&.......................................................................................................#=#...        ",
"       ..&&.....#&&&&&&&&&&&&&&&&&&&&&&&&&&&&&&&&&&&&&&&&&&&&&&&&&&&&&&&&&&&&&&&&&&&&&&&&&&&&&&&&&&&&&&&&&&&&&====>=....        ",
"       ..#..............................................................................................................        ",
"       .................................................................................................................        ",
"       .....&&&&&=&&=&=&=&&=&&=&&=&=&&=&=&=&=&=&=&=&=&=&=&=&=&=&=&=&&=&&=&&=&=&&=&=&=&=&=&=&=&=&=&=&=&=&&=&=&=&==&&.....        ",
"       ....#,,,,,,,,,,,,,,,,,,,,,,,,,,,,,,,,,,,,,,,,,,,,,,,,,,,,,,,,,,,,,,,,,,,,,,,,,,,,,,,,,,,,,,,,,,,,,,,,,,,,',,.....        ",
"       ....#,,,>,,,,,,,,,,,,,,,,,,,,,,,,,,,,,,,,,,,,,,,,,,,,,,,,,,,,,,,,,,,,,,,,,,,,,,,,,,,,,,,,,,,,,,,,,,,,,,,,,,,.....        ",
"       ....+,,,,,,,,,,,,,,,,,,,,,,,,,,,,,,,,,,,,,,,,,,,,,,,,,,,,,,,,,,,,,,,,,,,,,,,,,,,,,,,,,,,,,,,,,,,,,,,,,,,,,,,.....        ",
"       .#..#,,>,,,''''''''''''''''''''''''''''''''''''''''''''''''''''''''''''''''''''''''''''''''''''''''''''''',,.....        ",
"       .#..#,,,,''')')))))))))))))))')')')))')')))))')))')))')))))))))))))))))')'))')))')))'))')))))))))')))')')))'.....        ",
"       .#..#,,,,')))!)))!))))!))!)))!)!!))!)!)!))))!))))!)))!)!)!)!))!)!)))!))!)!)!)))!)!)!)!)!))))))!))!)))!!)))!).....        ",
"       .#..+,,,,')!!)!!!)!!)!!!)!!!!!!!)!!!!)!)!!!!)!!!!!)!!!)!)!!)!!)!)!!!)!!!)!!!!!!)!)!!)!)!)!!!!!)!!)!!!)!!!!)).....        ",
"       .#..#,,,')))!!!!!!!!!!!!!!!)!!!!!!!!!!!!!!!!!!!!!!!!!!!!!!!!!!!!!!!!!!!!!!!!!!!!!!!!!!!!!!!!!!!!!!!!!!!!!!!!.....        ",
"       .#..+,,,'))!!!!!!!!!!!!!!!!!!!!!!!!!!!!!!!!!!!!!!!!!!!!!!!!!!!!!!!!!!!!!!!!!!!!!!!!!!!!!!!!!!!!!!!!!!!!!!!!).....        ",
"       .#..&,,,'))!!!!!!!!!!!!!!!!!!!!!!!!!!!!!!!!!!!!!!!!!!!!!!!!!!!!!!!!!!!!!!!!!!!!!!!!!!!!!!!!!!!!!!!!!!!!!!!!!.....        ",
"       .#..+,,,''))!!!!!!!!!!!!!!!!!!!!!!!!!!!!!!!!!!!!!!!!!!!!!!!!!!!!!!!!!!!!!!!!!!!!!!!!!!!!!!!!!!!!!!!!!!!!!!!!.....        ",
"       .#..#,,,'))!!!!!!!!!!!!!!!!!!!!!!!!!!!!!!!!!!!!!!!!!!!!!!!!!!!!!!!!!!!!!!!!!!!!!!!!!!!!!!!!!!!!!!!!!!!!!!!!).....        ",
"       .#..+,,,''!)!!!!!!!!!!!!!!!!!!!!!!!!!!!!!!!!!!!!!!!!!!!!!!!!!!!!!!!!!!!!!!!!!!!!!!!!!!!!!!!!!!!!!!!!!!!!!!!!.....        ",
"       .#..&,,,''!!!!!!!!!!!!!!!!!!!!!!!!!!!!!!!!!!!!!!!!!!!!!!!!!!!!!!!!!!!!!!!!!!!!!!!!!!!!!!!!!!!!!!!!!!!!!!!!!).....        ",
"       .#..+,,'''))!!!!!!!!!!!!!!!!!!!!!!!!!!!!!!!!!!!!!!!!!!!!!!!!!!!!!!!!!!!!!!!!!!!!!!!!!!!!!!!!!!!!!!!!!!!!!!!!.....        ",
"       .#..&,>''))!!!!!!!!!!!!!!!!!!!!!!!!!!!!!!!!!!!!!!!!!!!!!!!!!!!!!!!!!!!!!!!!!!!!!!!!!!!!!!!!!!!!!!!!!!!!!!!!).....        ",
"       .#..$',,')!)!!!!!!!!!!!!!!!!!!!!!!!!!!!!!!!!!!!!!!!!!!!!!!!!!!!!!!!!!!!!!!!!!!!!!!!!!!!!!!!!!!!!!!!!!!!!!!!!.....        ",
"       .#..#,,,'')!!!!!!!!!!!!!!!!!!!!!!!!!!!!!!!!!!!!!!!!!!!!!!!!!!!!!!!!!!!!!!!!!!!!!!!!!'!!!!!!!!!!!!!!!!!!!!!!).....        ",
"       .#..+,,,'))!!!!!!!!!!!!!!!!!!!!!!!!!!!!!!!!!!!!!!!!!!!!!!!!!!!!!!!!!!!!!!!!!!!!!!!!'*!!!!!!!!!!!!!!!!!!!!!!!.....        ",
"       .#..&,,,'))!!!!!!!!!!!!!!!!!!!!!!!!!!!!!!)))')')))!!!!!!!!!!!!!!!!!!!!!!!!!!!!!!!!!*@'!!!!!!!!!!!!!!!!!!!!!).....        ",
"       .#..+,,,')))!!!!!!!!!!!!!!!!!!!!!!!)'>;;;**@*@*****;;>,'!!!!!!!!!!!!!!!!!!!!!!!!!!'@@>!!!!!!!!!!!!!!!!!!!!!!.....        ",
"       .#..#,,,'))!!!!!!!!!!!!!!!!!!!!!';;*@@@@@*****@@@@@@@@@**;>))!!!!!!!!!!!!!!!!!!!!!;@@;!!)!)!!!!!!!!!!!!!!!!!.....        ",
"       .#..+,,,'))!!!!!!!!!!!!!!!!!!!>**@@*;;**@@@@@@@@@@@@**@@@@@**;>!!!!!!!!!!!!!!!!!!)@*@*!))!)!!!!!!!!!!!!!!!!!.....        ",
"       .#..&,,,'')!!!!!!!!!!!!!!!!';*@*;;*@@@@@@@@@@@@@@@@@@@@@@@@@@@**;)!!!!!!!!!!!!!!!>@;@*,)))!)!!!!!!!!!!!!!!!).....        ",
"       .#..+,,,'))!!!!!!!!!!!!!!!;*@*;@@@@@@**--;->>;>>-;--*@@*@@@@@@@@@@-,)!!!!!!!!!!!!;@;@@;)'))!!!!!!!!!!!!!!!!!.....        ",
"       .#..&,,,''))!!!!!!!!!!!!,*@;;@@@@*-->>,,,',',,,,',,,,,>--*@@@@@@@@@@*>)!!!!!!!!!!*@;@@-,'''!!!!!!!!!!!!!!!!!.....        ",
"       .#..$>,,')!!!!!!!!!!!!!>@*;@@@*->,')'',',,,,,,,,,,,,,,,,',>>-*@@@@@@@@*>)!!!!!!!!*@;@@*>'')))!!!!!!!!!!!!!!).....        ",
"       .#..#',,'')!!!!!!!!!!);@;;@@@->)''',,,,,,',',,'',',',,',,',,,,>-*@@@@@@@*>!)!!!!'@@;@@@>,'')!!!!!!!!!!!!!!!!.....        ",
"       .#..+,,,')))!!!!!!!!!;@;*@@*>''''',,,','''''''''''''''''''',,,,,,>*@@@*@@@-))!!!'@@;@@@-,''))!!!!!!!!!!!!!!!.....        ",
"       .#..&,,,''!)!!!!!!!!;@;*@@->)'',,,,'''''')')))))))))))')''''''',,,,>*@@@@@@*;)!!'@@;*@@*>,')))!!!!!!!!!!!!!).....        ",
"       .#..+,,,'))!!!!!!!!;@;*@@-'''',,,''''')))))))!))!))!))!))!))))''''',,;*@@@@@@*')'@*;@@@@-,,')!!!!!!!!!!!!!!!.....        ",
"       .#..&,,,'))!!!!!!!>@;*@@-''',,,''''))))!)!!!)!!)!!!!!!)!!)!))))))'''',,-@@**@@*;;*;;*@@@*>,'))!!!!!!!!!!!!!!.....        ",
"       .#..+,,,'')!!!!!!!;@;@@-)''',,,'''))!)!)!!!!!!!!!!!!!!!!!!!!)!!!))))''')>*@;;*@@*;;-*@@@*;''))!!!!!!!!!!!!!).....        ",
"       .#..&,,,')))!!!!!;@;@@-,'',,,''')))!!!!!!!!!!!!!!!!!!!!!!!!!!!)!!!)))))''';*;;;;;;;;@@@@@+'''))!!!!!!!!!!!!!.....        ",
"       .#..$>,,'))!!!!!!***@*,'',,,'''))!!!!!!!!!!!!!!!!!!!!!!!!!!!!!!!!!!!!))))')>;;;;;;**@@@@@@>,')))!!!!!!!!!!!).....        ",
"       .#..#',,'))!!!!!>@;@@>'',,'''')!)!!!!!!!!!!!!!!!!!!!!!!!!!!!!!!!!!!!))>';;>;;;;;****@@@@@*-,''!)!!!!!!!!!!!).....        ",
"       .#..+,,,''!)!!!!@**@-''',,,'))!!)!!!!!!!!!!!!!!!!!!!!!!!!!!!!!!!!)!;;**@*@*;;;;**@@@@@@@@@*>,')!)!!!!!!!!!!!.....        ",
"       .#..&,,,'))!!!!'@;@@>'',,''')!)!!!!!!!!!!!!!!!!!!!!!!!!!!!!!!!!!);*****@**;;;;**@@@@@@@@@@*-,'))!!!!!!!!!!!!.....        ",
"       .#..+,,,''))!!!;@-@*,',,,')'!)!!!!!!!!!!!!!!!!!!!!!!!!!!!!!!!!!;*@@@**;;;;;;;;**@@@@@@@@@@**>''))!!!!!!!!!!!.....        ",
"       .#..&,,,'))!!!!;@*@-,',''''!)!!!!!!!!!!!!!!!!!!!!!!!!!!!!!!!!!!>***@@@@@@@@@@@@@@@@@@@@@@@@@-,'))!!!!!!!!!!).....        ",
"       .#..+,,,'))!!!!*@@@-',,,'')!!!!!!!!!!!!!!!!!!!!!!!!!!!!!!!!!!!!!!''>;**@@@@@@@@@@@@@@@@@@@@**>''))!!!!!!!!!!.....        ",
"       .#..&,,,'))!!!)**@@;',,,')!)!!!!!!!!!!!!!!!!!!!!!!!!!!!!!!!!!!!!!!!!)'>;**@@@@@@@@@@@@@@@@@@@-'')!!!!!!!!!!).....        ",
"       .#..$>,,'))!!!'**@*>','''))!!!!!!!!!!!!!!!!!!!!!!!!!!!!!!!!!!!!!!!))))',,=-*@*@@@@@@@@@@@@@@@*>'))!)!!!!!!!!.....        ",
"       .#..#',,'')!!!'@*@@>,,,'))!!!!!!!!!!!!!!!!!!!!!!!!!!!!!!!!!!!!!!!!!!))',,,,>--@@*@@@@@@@@@@@@*-,'))!!!!!!!!!.....        ",
"       .#..+,,,'))!!!)@*@@>,,''))!!!!!!!!!!!!!!!!!!!!!!!!!!!!!!!!!!!!!!!)!))))'',,,,,-&@@@@@@@@@@@@@@*>''))!!!!!!!).....        ",
"       .#..&,,,'')!!!'*@@*-,,'')))!!!!!!!!!!!!!!!!!!!!!!!!!!!!!!!!!!!!!!!!)!))))'',,,,,=-*@@@@@@@@@@@@-,')!)!!!!!!).....        ",
"       .#..+,,,')))!!)*@@*;,',''!!!!!!!!!!!!!!!!!!!!!!!!!!!!!!!!!!!!!!!!!!!!)!!))))''',,,=-.@@@@@@@@@@*>''))!!!!!!!.....        ",
"       .#..&,,,'))!!!)*@@@-,,''))!!!!!!!!!!!!!!!!!!!!!!!!!!!!!!!!!!!!!!!!!!!!)!!!)))))'',,,>-*@@@@@@@@*-,')!)!!!!!!.....        ",
"       .#..+,,,''!)!!!-@*@->,,'!)!!!!!!!!!!!!!!!!!!!!!!!!!!!!!!!!!!!!!!!!!!!!!!!!!!)!))))',,,=-.@@@@@@@*>'')!)!!!!).....        ",
"       .#..&,,,'')!!!!>@@@*>''''!)!!!!!!!!!!!!!!!!!!!!!!!!!!!!!!!!!!!!!!!!!!!!!!!!!!!))!)))',',>*.@@@@@@*,'')!!!!!!.....        ",
"       .#..+'>'')))!!!>*@@*>,''))!!!!!!!!!!!!!!!!!!!!!!!!!!!!!!!!!!!!!!!!!!!!!!!!!!!!!!)!)))'',,>=*@@@@@@-')))!!!!).....        ",
"       .#..#',''))!!!!!*@@@-,,'))!!!!!!!!!!!!!!!!!!!!!!!!!!!!!!!!!!!!!!!!!!!!!!!!!!!!!!!!!!!))))''>-*@@@@*>'))!!!!).....        ",
"       .#..+,,,'))!!!!!-@@**,,''!)!!!!!!!!!!!!!!!!!!!!!!!!!!!!!!!!!!!!!!!!!!!!!!!!!!!!!!!!!!!!))))',>&*@@@-''))!!!!.....        ",
"       .#..&,,,'))!!!!!'@@@@>,'))!!!!!!!!!!!!!!!!!!!!!!!!!!!!!!!!!!!!!!!!!!!!!!!!!!!!!!!!!!!!!)!))''',>-@@@>'))!!!!.....        ",
"       .#..+,,,'')!!!!!)-@*@*>,')))!!!!!!!!!!!!!!!!!!!!!!!!!!!!!!!!!!!!!!!!!!!!!!!!!!!!!!!!!!!!!)!))',,>-*@*>')))!).....        ",
"       .#..#,,,')))!!!!!>@@@*-'')!)!!!!!!!!!!!!!!!!!!!!!!!!!!!!!!!!!!!!!!!!!!!!!!!!!!!!!!!!!!!!!!!)!)''',>-*-,)))!).....        ",
"       .#..+,,,'))!!!!!!)*@*@*>'')!!!!!!!!!!!!!!!!!!!!!!!!!!!!!!!!!!!!!!!!!!!!!!!!!!!!!!!!!!!!!!!!!!!!)')',;;>)))!!.....        ",
"       .#..&,,,'))!!!!!!!>@@@@-,'))!!!!!!!!!!!!!!!!!!!!!!!!!!!!!!!!!!!!!!!!!!!!!!!!!!!!!!!!!!!!!!!!!!!)!)))'>>))))).....        ",
"       .#..+,,,''))!!!!!!)*@@@@;')))!!!!!!!!!!!!!!!!!!!!!!!!!!!!!!!!!!!!!!!!!!!!!!!!!!!!!!!!!!!!!!!!!!!)!))))))))!).....        ",
"       .#..&>','))!!!!!!!!,*@@@*>')))!!!!!!!!!!!!!!!!!!!!!!!!!!!!!!!!!!!!!!!!!!!!!!!!!!!!!!!!!!!!!!!!!!!!!)!)')))!).....        ",
"       .#..$,,,')!)!!!!!!!);@@@@*>'!)!)!!!!!!!!!!!!!!!!!!!!!!!!!!!!!!!!!!!!!!!!!!!!!!!!!!!!!!!!!!!!!!!!!!!!)!!)!)!).....        ",
"       .#..#,,,'')!!!!!!!!))-@@@@-,')!!!!!!!!!!!!!!!!!!!!!!!!!!!!!!!!!!!!!!!!!!!!!!!!!!!!!!!!!!!!!!!!!!!!!!)!)!)!!).....        ",
"       .#..+,,,')))!!!!!!!!!>*@@@@-')))!!!!!!!!!!!!!!!!!!!!!!!!!!!!!!!!!!!!!!!!!!!!!!!!!!!!!!!!!!!!!!!!!!!!!!!!!)!!.....        ",
"       .#..&,,,'))!!!!!!!!!!!>@@@@@-,)!!!!!!!!!!!!!!!!!!!!!!!!!!!!!!!!!!!!!!!!!!!!!!!!!!!!!!!!!!!!!!!!!!!!!!!!!!!!).....        ",
"       .#..+,,,''!)!!!!!!!!)!)>@@@@@-,)))!!!!!!!!!!!!!!!!!!!!!!!!!!!!!!!!!!!!!!!!!!!!!!!!!!!!!!!!!!!!!!!!!!!!!!!!!!.....        ",
"       .#..&,,,'))!!!!!!!!!!!))-@@@@@*'))!!!!!!!!!!!!!!!!!!!!!!!!!!!!!!!!!!!!!!!!!!!!!!!!!!!!!!!!!!!!!!!!!!!!!!!!!).....        ",
"       .#..+,,,'')!!!!!!!!!!!!!)-@@@@@*,)!)!!!!!!!!!!!!!!!!!!!!!!!!!!!!!!!!!!!!!!!!!!!!!!!!!!!!!!!!!!!!!!!!!!!!!!!!.....        ",
"       .#..&>',')!)!!!!!!!!!!!)!)-@@@@@*>)!)!!!!!!!!!!!!!!!!!!!!!!!!!!!!!!!!!!!!!!!!!!!!!!!!!!!!!!!!!!!!!!!!!!!!!!).....        ",
"       .#..+,,,'))!!!!!!!!!!!!!)!)-@@@@@*;)!)!!!!!!!!!!!!!!!!!!!!!!!!!!!!!!!!!!!!!!!!!!!!!!!!!!!!!!!!!!!!!!!!!!!!!!.....        ",
"       .#..&,,,''))!!!!!!!!!!!!)!))>@@@@@@-,)!!!!!!!!!!!!!!!!!!!!!!!!!!!!!!!!!!!!!!!!!!!!!!!!!!!!!!!!!!!!!!!!!!!!!!.....        ",
"       .#..+,,,')!!!!!!!!!!!!!!!)!)'>*@@@@@*>)))!!!!!!!!!!!!!!!!!!!!!!!!!!!!!!!!!!!!!!!!!!!!!!!!!!!!!!!!!!!!!!!!!!!.....        ",
"       .#..&,,,'')!!!!!!!!!!!!!!!!))'>*@@@@@@;,!!!!!!!!!!!!!!!!!!!!!!!!!!!!!!!!!!!!!!!!!!!!!!!!!!!!!!!!!!!!!!!!!!!).....        ",
"       .#..+,,,'))!!!!!!!!!!!!!!!!!!)),-*@@@@@*;')!!!!!!!!!!!!!!!!!!!!!!!!!!!!!!!!!!!!!!!!!!!!!!!!!!!!!!!!!!!!!!!!!.....        ",
"       .#..&,,,''!)!!!!!!!!!!!!!!!!!)!''>*@@@@@@*>)!!!!!!!!!!!!!!!!!!!!!!!!!!!!!!!!!!!!!!!!!!!!!!!!!!!!!!!!!!!!!!!!.....        ",
"       .#..+,,,'))!!!!!!!!!!!!!!!!!!!))'',-@@@@@@@*>!)!!!!!!!!!!!!!!!!!!!!!!!!!!!!!!!!!!!!!!!!!!!!!!!!!!!!!!!!!!!!!.....        ",
"       .#..#,,,''!)!!!!!!!!!!!!!!!!!!!!))''>-@@@@@-,)!)!!!!!!!!!!!!!!!!!!!!!!!!!!!!!!!!!!!!!!!!!!!!!!!!!!!!!!!!!!!).....        ",
"       .#..+,,,'))!!!!!!!!!!!!!!!!!!!!!!))),,=*@*>'')))!)!!!!!!!!!!!!!!!!!!!!!!!!!!!!!!!!!!!!!!!!!!!!!!!!!!!!!!!!!!.....        ",
"       .#..&,,,''))!!!!!!!!!!!!!!!!!!!!!)!)')',>,,,,'))!!!!!!!!!!!!!!!!!!!!!!!!!!!!!!!!!!!!!!!!!!!!!!!!!!!!!!!!!!!).....        ",
"       .#..+,,,'))!!!!!!!!!!!!!!!!!!!!!!!)!))',,,,,''))))!!!!!!!!!!!!!!!!!!!!!!!!!!!!!!!!!!!!!!!!!!!!!!!!!!!!!!!!!!.....        ",
"       .#..&>',')))!!!!!!!!!!!!!!!!!!!!!!!!)!))''''''')!!!!!!!!!!!!!!!!!!!!!!!!!!!!!!!!!!!!!!!!!!!!!!!!!!!!!!!!!!!).....        ",
"       .#..+,,,'))!!!!!!!!!!!!!!!!!!!!!!!!!!!!)))'''))))!!!!!!!!!!!!!!!!!!!!!!!!!!!!!!!!!!!!!!!!!!!!!!!!!!!!!!!!!!!.....        ",
"       .#..&,,,')))!!!!!!!!!!!!!!!!!!!!!!!!!!!))!)))))!)!!!!!!!!!!!!!!!!!!!!!!!!!!!!!!!!!!!!!!!!!!!!!!!!!!!!!!!!!!!.....        ",
"       .#..+,,,''!!!!!!!!!!!!!!!!!!!!!!!!!!!!!!!)!))!!)!!!!!!!!!!!!!!!!!!!!!!!!!!!!!!!!!!!!!!!!!!!!!!!!!!!!!!!!!!!).....        ",
"       .#..&,,,'')!!!!!!!!!!!!!!!!!!!!!!!!!!!!!!!!!)!)!!!!!!!!!!!!!!!!!!!!!!!!!!!!!!!!!!!!!!!!!!!!!!!!!!!!!!!!!!!!).....        ",
"       .#..+,,,'))!!!!!!!!!!!!!!!!!!!!!!!!!!!!!!!!!!!!!!!!!!!!!!!!!!!!!!!!!!!!!!!!!!!!!!!!!!!!!!!!!!!!!!!!!!!!!!!!!.....        ",
"       .#..&>',')))!!!!!!!!!!!!!!!!!!!!!!!!!!!!!!!!!!!!!!!!!!!!!!!!!!!!!!!!!!!!!!!!!!!!!!!!!!!!!!!!!!!!!!!!!!!!!!!!.....        ",
"       .#..+,,,'))!!!!!!!!!!!!!!!!!!!!!!!!!!!!!!!!!!!!!!!!!!!!!!!!!!!!!!!!!!!!!!!!!!!!!!!!!!!!!!!!!!!!!!!!!!!!!!!!!.....        ",
"       .#..&,,,'))!!!!!!!!!!!!!!!!!!!!!!!!!!!!!!!!!!!!!!!!!!!!!!!!!!!!!!!!!!!!!!!!!!!!!!!!!!!!!!!!!!!!!!!!!!!!!!!!).....        ",
"       .#..+,,,''!)!!!!!!!!!!!!!!!!!!!!!!!!!!!!!!!!!!!!!!!!!!!!!!!!!!!!!!!!!!!!!!!!!!!!!!!!!!!!!!!!!!!!!!!!!!!!!!!!.&...        ",
"       .#..&,,,'')!!!!!!!!!!!!!!!!!!!!!!!!!!!!!!!!!!!!!!!!!!!!!!!!!!!!!!!!!!!!!!!!!!!!!!!!!!!!!!!!!!!!!!!!!!!!!!!!!.=...        ",
"       .#&.+,,,')))!!!!!!!!!!!!!!!!!!!!!!!!!!!!!!!!!!!!!!!!!!!!!!!!!!!!!!!!!!!!!!!!!!!!!!!!!!!!!!!!!!!!!!!!!!!!!!!).>...        ",
"       ..>.#,,,'))!!!!!!!!!!!!!!!!!!!!!!!!!!!!!!!!!!!!!!!!!!!!!!!!!!!!!!!!!!!!!!!!!!!!!!!!!!!!!!!!!!!!!!!!!!!!!!!!).=...        ",
"       ..=.+&=$&====================================================================================================&...        ",
"       ..........................................................................................................===....        ",
"       ........##&&&&&&&&&&&&&&&&&&&&&&&&&&&&&&&&&&&&&&&&&&&&&&&&&&&&&&&&&&&&&&&&&&&&&&&&&&&&&&&&&&&&&&&&&&&&&&==&......        ",
"       .................................................................................................................        ",
"       .................................................................................................................        ",
"           ...........................................................................................................          ",
"                                                                                                                                ",
"                                                                                                                                ",
"                                                                                                                                ",
"                                                                                                                                ",
"                                                                                                                                ",
"                                                                                                                                ",
"                                                                                                                                "};
