/* XPM */
char * windowclose_xpm[] = {
"128 128 17 1",
" 	c None",
".	c #460000",
"+	c #570000",
"@	c #640000",
"#	c #6B0000",
"$	c #750000",
"%	c #7A0001",
"&	c #7D0000",
"*	c #800000",
"=	c #830502",
"-	c #85090C",
";	c #8F1A1B",
">	c #9A3333",
",	c #A64949",
"'	c #AE5A5A",
")	c #B97272",
"!	c #BE7F7E",
"                                                                                                                                ",
"                                                                                                                                ",
"                                                                                                                                ",
"                                                                                                                                ",
"                                                                                                                                ",
"                                                                                                                                ",
"                                                                                                                                ",
"                                                                                                                                ",
"                                                                                                                                ",
"                                                                                                                                ",
"                                                                                                                                ",
"                                                                                                                                ",
"                                                                                                                                ",
"                                                                                                                                ",
"                                                                                                                                ",
"                                                                                                                                ",
"                                                                                                                                ",
"                                                                                                                                ",
"                                                                                                                                ",
"                                                                                                                                ",
"                           $$$$                                                                     $$$$                        ",
"                         %%%%$$$##                                                               %$%%%$$$#                      ",
"                        %%%*%$$$###                                                             %%**&%$$$##                     ",
"                       %%&&;-*%*$$@@                                                           %%&%*;**$$#@@                    ",
"                       %&*'!'>-*$%##@                                                         %%&*,)),;%%$#@                    ",
"                      %%&>!',>-**%$#@+                                                        %&*'!),>;*%$#@+                   ",
"                      $%*,)>-*****%$##                                                       %&&)!)>-&***%$@@                   ",
"                      $%%>,;*****%*%$@#                                                     %&&'))>--***%%#@+                   ",
"                      $$%&>*&******%%$##                                                   %&*'!),;-****%$#@@                   ",
"                      #$%&*&********%$$@#                                                 %&*,!),;&****%%$#@+                   ",
"                      #$$%%**********%*$##                                               %&$'!)>;-*****%$#@+.                   ",
"                       #$$%**********%%$$@#                                             %&*'!),>-***%*%%$@++                    ",
"                       ##$$$%************$##                                           %%*'!),;****%*%%$#@+.                    ",
"                        @@#$%%*********%%$$@#                                         %&&')),;-*****&%$@@+.                     ",
"                         ###%%%************$##                                       %%*,!),;&&*****#$@@++                      ",
"                          @#$$%%**********%$$@#                                     %%*'!),;-***%*&%%#@++                       ",
"                           @@#$%************%$##                                   %&*,!),;$-****&%##+++                        ",
"                            @#$$%**********%%$$##                                 %&&'!),>-=***%%$$#@++                         ",
"                             @@#$%%**********%$$##                               %&*,!),;%*****%%##@++                          ",
"                              @#$$*%**********%$$@#                             %&&'!),;=*****%%$#@++                           ",
"                               @@#$%%************$##                           %&*,!),;$-****%$$#@++                            ",
"                                @#$$*%*********%%$$@#                         %&*'!),;-=***%$%$@@++                             ",
"                                 @@#$%%************$##                       %&*'!),;%******%##@++                              ",
"                                  @#$$************%$$##                     %&&'!),;--**%*%%%#@++                               ",
"                                   @@#$%***********%%$##                   %&&,!),;%%****&%##@++                                ",
"                                    @#$$%*%*********%$$@#                 %&*'!),;--=***%%%#@++                                 ",
"                                     @@$$**************$##               %&*'!),;%****%%$##@++                                  ",
"                                      @@#$&***********%$$@#             %&*,!),;-******%$#@++                                   ",
"                                       @@#$%%*********%**$##           %&*'!),;$=****%$$#@++                                    ",
"                                        @##$%***********%$$@#         %&&'!),;-=***%&%$@@++                                     ",
"                                         @@#$%%***********%$##       %&*'!),;$-***&*%##@++                                      ",
"                                          @#$$%%**********%$$##     *&$,!),;-=****%$%#@++                                       ",
"                                           @@#%%***********%%$#$   %&*'!),;$-**%*&%$#@++                                        ",
"                                            @#$$*%**********%%*$%#*%;'!),;-=****$%$@@++                                         ",
"                                             @@#$%%**********%***%*>!!),;$******$##@++                                          ",
"                                              @@$$*%**********%*&>')!',;-=**&**%%#@++                                           ",
"                                               @@#$%%*********-;>,,',>;$-***$$%$#@++                                            ",
"                                                @##$*%*******---;;;>;--*******$@@++                                             ",
"                                                 @#$$%%*********&%-%%&-****%$$#@++                                              ",
"                                                  @@#%**********==*===***&&%$@@++                                               ",
"                                                   @#$$%**-**************&%###++                                                ",
"                                                    @#$**;-**************&%%@++                                                 ",
"                                                     #$%&;;&************&%$#@+                                                  ",
"                                                      #&*>>-************&&$#@                                                   ",
"                                                       &;,>%************%%$#.                                                   ",
"                                                      &*''>-*************%$$@.                                                  ",
"                                                     *$>!'>-**************%%##.                                                 ",
"                                                    *%-)),;-*************%%%$@@.                                                ",
"                                                   $%*'!)>--*************%*%%$##                                                ",
"                                                  %*&'!),;-*****************%%$@#                                               ",
"                                                 %%*'!),;-&*******************%$##                                              ",
"                                                %**,!),;-******%%*%**********%%$$@#                                             ",
"                                               %%%'!),;%*****%*%%%&&*************$##                                            ",
"                                              %&*'!),;-=****%*$$$#$$&***********%$$@#                                           ",
"                                             %&%'!),;%****%%$$#####$$%*%***********$##                                          ",
"                                            %&*')),;-=****%%$@#@+ @@$$%***********%$$##                                         ",
"                                           %&&'!),;$%*****%$#@++   @@#$%***********%%$##                                        ",
"                                          %&*,!),;-==*&*%%%@@++     @##$%%**********%$$@#                                       ",
"                                         %&$'!),;$=****%$$#@++       @@#$%*************$##                                      ",
"                                        %&*'!),;-*****%%$@@++         @#$$%*%*********%$$@#                                     ",
"                                       %&*'!),;%******$$#@++           @##$%%************$##                                    ",
"                                      %&&')),;-=***%%$$@@++             @#$$%*%*********%$$@#                                   ",
"                                     %&*'!),;%%*****&$#@++               @@#%%%***********%$##                                  ",
"                                    %&$,!),;-*****%$$@@++                 @##%%***********%$$##                                 ",
"                                   %&*'!),;%-**%*%&$#@++                   @@#$%***********%%$##                                ",
"                                  %&*'!),;-*****%%$@@++                     @#$$%%***********$$##                               ",
"                                 %&*,!),;%-*****$$#@++                       @##$%%*********%%%$##                              ",
"                                %&*'!),;-=**%**$$@@++                         @#$$**%*********%$$@#                             ",
"                               %&&'!),;%%****%%$#@++                           @@#$%%***********%$##                            ",
"                              %&$,!),;-=****%%$#@++                             @##%*%**********%$$##                           ",
"                             %&*'!),;$***%*%%$#@++                               @@#$%***********%%$##                          ",
"                            %&*'!),;-=****%%$@@++                                 @#$$&***********%$$##+                        ",
"                          %%&%'!),;$****&*%$#+++                                   @@#$%%**********%%$$#@                       ",
"                         %%&*'!),;-=****&%$@@++                                     @#$$%%%**********%##@@                      ",
"                        %%&*)!),;$*****&%##@++                                       @@#%%&***********%$#@+                     ",
"                       %%&$'))>--=**%*$$$#@++                                         @##$*************$$#@+                    ",
"                       $%*,!)>;-***=**$$#@++                                           @##$%%**********%$$@@                    ",
"                       %%*))>--***&*%%$#@++                                             @@$$**%*********%##@.                   ",
"                      $$&*',;-*****%%$#@++                                               @@#$***********%$@@+                   ",
"                      $$%%>>-*****%%$@@++                                                 @#$$&*%******%$$@@.                   ",
"                       $$&&&******%$#@++                                                   @@#$%*******%$#@@.                   ",
"                       ##$*%$*&*%#%@@++                                                     @##$%%%***%%$@++                    ",
"                       $$$$$$%$%%$#@++                                                       @@#$$%%%$$$@@+.                    ",
"                        @@###$$$@@+++                                                         @@@###$$@@@++                     ",
"                         @##@@@@@@++                                                           @@@@@#@@@++                      ",
"                          +@@@@@++.                                                              @@@@@+++                       ",
"                            ++...                                                                  ++..                         ",
"                                                                                                                                ",
"                                                                                                                                ",
"                                                                                                                                ",
"                                                                                                                                ",
"                                                                                                                                ",
"                                                                                                                                ",
"                                                                                                                                ",
"                                                                                                                                ",
"                                                                                                                                ",
"                                                                                                                                ",
"                                                                                                                                ",
"                                                                                                                                ",
"                                                                                                                                ",
"                                                                                                                                ",
"                                                                                                                                ",
"                                                                                                                                ",
"                                                                                                                                ",
"                                                                                                                                ",
"                                                                                                                                ",
"                                                                                                                                ",
"                                                                                                                                "};
