/* XPM */
char * windowcascade_xpm[] = {
"128 128 17 1",
" 	c None",
".	c #000000",
"+	c #650000",
"@	c #0C1D39",
"#	c #143264",
"$	c #2D2F2D",
"%	c #224A95",
"&	c #464744",
"*	c #686966",
"=	c #7D7F7C",
"-	c #959794",
";	c #BDC0BD",
">	c #C6C8C5",
",	c #D2D4D1",
"'	c #DBDEDA",
")	c #E4E6E3",
"!	c #F9FCF8",
"                                                                                                                                ",
"                                                                                                                                ",
"          ..........................................................................                                            ",
"          ........$$&&&&&&&&&&&&&&&&&&&&&&&&&&&&&&&&&&&&&&&&&&&&&&&&&&&&&&&&&&......                                            ",
"          ..**...............................................................&=*....                                            ",
"          ..*.......................................................................                                            ",
"          .....@@@@@@@@@@@@@@@@@@@@@@@@@@@@@@@@@@@@@@@@@@@@@@@@@@@@@@@@@@@@@@@@.....                                            ",
"          ....@%%%%%%%%%%%%%%%%%%%%%%%%%%%%%%%%%%%%%%%%%%%%%%%%%%%%%%%%%%%%%%%%.....                                            ",
"          ....@%%#%%#%%%#%%%#%%%#%%%#%%%%#%%%#%%%#%%%#%%%#%%%#%%%#%%%#%%%%++++%.....                                            ",
"          .....%%;;%%%>,>>>>>>>>>>>>>;;%%>>>>%%>>%%%%%%%%%%%%%%%%%%%%%%%%%+*++%.....                                            ",
"          .$..@#%;;%%%>,,,,,>,,,>,,>>>;%%,,,,%%>>%%%%%%%%%%%%%%%%%%%%%%%%%++++%.&...                                            ",
"          .$$..%%%#%%%%%%%%%%%%%%%%%%%%%%%%%%%%%%%%%%%%%%%%%%%%%%%%%%%%%%%++++%.=...                                            ",
"          ..*.@%#%%%%%%%%%%%%%%%%%%%%%%%%%%%%%%%%%%%%%%%%%%%%%%%%%%%%%%%%%%%%%%.=...                                            ",
"          ..=..##@####################################%##%##%#%#%#%#%#%#%#%####$*...                                            ",
"          ..=$................................................................$=....                                            ",
"          ..&&.....$&&&&&&&&&&&&&&&&&&&&&&&&&&&&&&&&&&&&&&&&&&&&&&&&&&&&&&*=====....                                            ",
"          ..$.......................................................................                                            ",
"          ..........................................................................                                            ",
"          .....&&&&&&*&&*&&&&&*&&*&&*&&&&&*&&*&&*&&*&&*&&*&&*&&*&&*&*&&*&&*&&*&.....                                            ",
"          ....$,>;;>;>>;>,,,,>>>>>>;>,,,,>>>;,>;,>>>,;,>>>>>>>>>,>>>>>>>,;>,>;;.....                                            ",
"          ....$;;;;;;>>;>;>;>;>;>>>;>;>;>;>>;,;>;;;>>;>;>>;>>;>;>;>>>>>;>>>;>;;.....                                            ",
"          ....$;;;;;>>,,>,,>,>,,,>,,,,>,>,,>,>,>,,,,>,>,,>,,>,,,,>,>,>,,>,>,,,;.....                                            ",
"          ....$>;;;,,,,,,,,,,,,,,,,,,,,,,,,,,,,,,,,,,,,,,,,,,,,,,,,,,,,,,,,,,,,.....                                            ",
"          .$..@>;;,,,,)))))))))))))))))))))))))))))))))))))))))))))))))))))))),.....                                            ",
"          .$..&>;>,,))))!)!)!)!)!))!)!)!))!)!)!)))!)!)!)!)!)!))!)!))!)!))!)))!).....                                            ",
"          .$..$;>;,))!!!!!!!!!!!!!!!!!!!!!!!!!!!!!!!!!!!!!!!!!!!!!!!!!!!!!!!!!).....                                            ",
"          .$..$,>,,))!!!!!),,--------------------------------------------------.........                                        ",
"          .$..@;;,,))!!!!!>......................@...................................................                           ",
"          .$..&>>>,))!!!!!;........$&&&&&&&&&&&&&&&&&&&&&&&&&&&&&&&&&&&&&&&&&&&&&&&&&&&&&&&&&&&......                           ",
"          .$..@,;,,))!!!!!>..*=...............................................................&=*....                           ",
"          .$..$>>;,))!!!!!>..*.......................................................................                           ",
"          .$..@,;,,))!!!!!;.....@@@@@@@@@@@@@@@@@@@@@@@@@@@@@@@@@@@@@@@@@@@@@@@@@@@@@@@@@@@@@@@@.....                           ",
"          .$..&>;,,))!!!!!>....@%%%%%%%%%%%%%%%%%%%%%%%%%%%%%%%%%%%%%%%%%%%%%%%%%%%%%%%%%%%%%%%%.....                           ",
"          .$..@,;,,))!!!!!;.....%%#%%#%%%#%%%#%%%#%%%#%%%#%%%#%%%#%%%#%%%#%%%#%%%%#%%%#%%%%++++%.....                           ",
"          .$..$,>,,))!!!!!;....@%%;;%%%;>>>>>>>>>>>>>>;;%%>>>>%%>>%%%%%%%%%%%%%#%%%%%%%%#%%**++%.....                           ",
"          .$..$;;,,))!!!!!>.$...#%;;#%%,,,,>,,,>,,,>,>>;%%,,,,%%,>%%%%%%%%%%%%%%%%%%%%%%%%%++++%.&...                           ",
"          .$..$,>,,))!!!!!;.$$.@%%%%%%%%%%%%%%%%%%%%%%%%%%%%%%%%%%%%%%%%%%%%%%%%%%%%%%%%%%%++++%.=...                           ",
"          .$..@;;,,))!!!!!;..*..%#%%%%%%%%%%%%%%%%%%%%%%%%%%%%%%%%%%%%%%%%%%%%%%%%%%%%%%%%%%%%%%.-...                           ",
"          .$..&>>,,))!!!!!>..=..##@#####################################%#%#%#%#%#%#%#%#%#%#####$*...                           ",
"          .$..@>;,,))!!!!!;..=$................................................................$=....                           ",
"          .$..$>>,,))!!!!!;..&&.....$&&&&&&&&&&&&&&&&&&&&&&&&&&&&&&&&&&&&&&&&&&&&&&&&&&&&&&**--*=....                           ",
"          .$..$,;,,))!!!!!>..........................................................................                           ",
"          .$..$>;,,))!!!!!>..........................................................................                           ",
"          .$..@>;>,))!!!!!>.....&&&&&&*&&*&&*&&*&&*&&*&&*&&&*&&*&&*&&*&&*&&*&&*&&*&&*&&*&&*&&*&&.....                           ",
"          .$..&>>,,))!!!!!>....$,;>>>;>,,;,>>,>>,>>>>>>>>>,>>>>>>>>,>;>>>>>>>>>,>>>>>,>>,;>,>>>;.....                           ",
"          .$..@>;,,))!!!!!>....$;;;;;;;;;>;;;;>;;;;,;>>>;,;>>>>>>>;;>,>>>>>>>>;;>>>>>>>;>>>;>>>;.....                           ",
"          .$..&>>,,))!!!!!;....$>;;;;>,,,>,,,,,,,,>,>,,>,,;,>>,>,,,>>,>,>,>,>,,>,>,>>>,>,>,>>>,;.....                           ",
"          .$..$>;,,))!!!!!>.$..$;;;;>,,,,,,,,,,,,,,,,,,,,,,,,,,,,,,,,,,,,,,,,,,,,,,,,,,,,,,,,,,>.....                           ",
"          .$..$>>,,))!!!!!>.$..$>;;,,,,)))))))))))))))))))))))))))))))))))))))))))))))))))))))),.....                           ",
"          .$..@;;,,))!!!!!;.$..@,;;,,)))!)!)))))!))!))))!)!)!))!)!)!)!)!))!))!))!)!)!)!)!)!)!)!).....                           ",
"          .$..&>>,,))!!!!!;.$..&>>,,,)!!!)!!!!!!!!!!!!!!!!!!!!!!!!!!!!!!!!!!!!!!!!!!!!!!!!!!!!!).....                           ",
"          .$..@>;,,))!!!!!>.$..@;;,,)))!!!!)>,--------------------------------------------------.........                       ",
"          .$..$>>,,))!!!!!;.$..$,;,,)!!!!!!>..............@........@.@............@.@.@.@.@...........................          ",
"          .$..$>;,,))!!!!!>.$..$>;,,))!!!!!>........$$&&&&&&&&&&&&&&&&&&&&&&&&&&&&&&&&&&&&&&&&&&&&&&&&&&&&&&&&&&......          ",
"          .$..$,;,,))!!!!!;.$..$,;,,))!!!!!>..**...............................................................&=*....          ",
"          .$..@;;,,))!!!!!;.$..@;;,,))!!!!!;..*.......................................................................          ",
"          .$..&>>,,))!!!!!>.$..&>>,,))!!!!!>.....@@@@@@@@@@@@@@@@@@@@@@@@@@@@@@@@@@@@@@@@@@@@@@@@@@@@@@@@@@@@@@@@.....          ",
"          .$..$,;>,))!!!!!;.$..@,;,,))!!!!!>....@%%%%%%%%%%%%%%%%%%%%%%%%%%%%%%%%%%%%%%%%%%%%%%%%%%%%%%%%%%%%%%%%.....          ",
"          .$..$>>,,))!!!!!;.$..$>>,,))!!!!!;....@%%#%%#%%%%#%%%#%%%#%%#%%%#%%%%#%%%#%%%#%%%#%%%%#%%%#%%%#%%%++++%.....          ",
"          .$..@;;,,)!!!!!!>.$..@;;,,))!!!!!>.....%%;;%%#>>>>>>>>>>>>>,>;;%%>>>>%%>>%%%%%%%%%#%%%%%%%%%%%%%%%+*++%.....          ",
"          .$..&>>>,))!!!!!;.$..&>>>,))!!!!!>.$..@#%;;%%%,,,,,,,>,,,,>>>>;%%,,,>%%>>%%%%%%%%%%%%%%%%%%%%%%%%%++++%.&...          ",
"          .$..@>;,,))!!!!!;.$..@>;,,))!!!!!;.$$.@%#%%%%%%%%%%%%%%%%%%%%%%%%%%%%%%%%%%%%%%%%%%%%%%%%%%%%%%%%%++++%.=...          ",
"          .$&.&>;,,))!!!!!>.$..&>>>,))!!!!!;..*..%%%%%%%%%%%%%%%%%%%%%%%%%%%%%%%%%%%%%%%%%%%%%%%%%%%%%%%%%%%%%%%%.=...          ",
"          ..*.$,;>,))!!!!!;.$..$,;,,))!!!!!>..=..#@@#####################################%#%#%#%#%#%#%#%#%#%#####$*...          ",
"          ..=..&&&*&******&.$..$>;,,))!!!!!;..=$.........................................................$......$=....          ",
"          ......@...........$..@;;,,))!!!!!;..&&.....$&&&&&&&&&&&&&&&&&&&&&&&&&&&&&&&&&&&&&&&&&&&&&&&&&&&&&&*==-==....          ",
"          .........&&&&&&&$.$..&,>,,))!!!!!>..$.......................................................................          ",
"          ..................$..@;;,,))!!!!!;..........................................................................          ",
"          ..................$..&>;,,))!!!!!>.....&&&&&*&&*&&*&&&*&&&*&&&&*&&&*&&*&&*&&*&&*&&*&&*&&*&&*&&*&&*&&*&&.....          ",
"              ..............$..$,;>,))!!!!!;....$,>;;;>>;>>>>>,;>,>>>,,>>>,,>>,;,>>>,>>,>>,>>>>>,>>,>>>>>>>>>>>>;.....          ",
"                           .$..$>>,,))!!!!!>....$>;;;;;;>>>>>;>>>>;,;;>>>>;;>;>;;>;;>;>;;>;;>>;;;;;;>>;,;;>>>>>>;.....          ",
"                           .$..@;;,,)!!!!!!;....$;;;;;>,;,>,>,,,>>,>,,>,>>,>,,>,,,,,>,>,,>,,,>,,,,,,,>,>,,>,>,>,;.....          ",
"                           .$..&>;,,,)!!!!!;....$>;;;,>,,,,,,,,,,,,,,,,,,,,,,,,,,,,,,,,,,,,,,,,,,,,,,,,,,,,,,,,,,.....          ",
"                           .$..@>;,,))!!!!!,.$..@;;>>,,))))))))))))))))))))))))))))))))))))))))))))))))))))))))),.....          ",
"                           .$..&>;,,))!!!!!;.$..&>>;,,)))!)!))!)!)!)!)!)!)!)!))!))!)!))!))!)!)!)))!)!)!)!)!)!))!).....          ",
"                           .$..$,;,,))!!!!!>.$..$;;,,))!!!!!!!!!!!!!!!!!!!!!!!!!!!!!!!!!!!!!!!!!!!!!!!!!!!!!!!!!).....          ",
"                           .$..$>;,,))!!!!!;.$..$,;,,))!!!!!!!!!!!!!!!!!!!!!!!!!!!!!!!!!!!!!!!!!!!!!!!!!!!!!!!!!).....          ",
"                           .$..@;;,,))!!!!!>.$..@;;;,)))!!!!!!!!!!!!!!!!!!!!!!!!!!!!!!!!!!!!!!!!!!!!!!!!!!!!!!!!!.....          ",
"                           .$..&,;,,))!!!!!;.$..&>,>,))!!!!!!!!!!!!!!!!!!!!!!!!!!!!!!!!!!!!!!!!!!!!!!!!!!!!!!!!!).....          ",
"                           .$..@;;,,))!!!!!>.$..@>;,)))!!!!!!!!!!!!!!!!!!!!!!!!!!!!!!!!!!!!!!!!!!!!!!!!!!!!!!!!!!.....          ",
"                           .$..&>>,,))!!!!!>.$..$,;>,))!!!!!!!!!!!!!!!!!!!!!!!!!!!!!!!!!!!!!!!!!!!!!!!!!!!!!!!!!!.....          ",
"                           .$..$>;,,))!!!!!;.$..@,;,,))!!!!!!!!!!!!!!!!!!!!!!!!!!!!!!!!!!!!!!!!!!!!!!!!!!!!!!!!!!.....          ",
"                           .$..$>;,,))!!!!!;.$..&>>,,))!!!!!!!!!!!!!!!!!!!!!!!!!!!!!!!!!!!!!!!!!!!!!!!!!!!!!!!!!).....          ",
"                           .$..@;;,,))!!!!!>.$..@;;,,))!!!!!!!!!!!!!!!!!!!!!!!!!!!!!!!!!!!!!!!!!!!!!!!!!!!!!!!!!!.....          ",
"                           .$..&,>>,))!!!!!;.$..&>>>,))!!!!!!!!!!!!!!!!!!!!!!!!!!!!!!!!!!!!!!!!!!!!!!!!!!!!!!!!!!.....          ",
"                           .$..$>;,,))!!!!!>.$..@>;,,))!!!!!!!!!!!!!!!!!!!!!!!!!!!!!!!!!!!!!!!!!!!!!!!!!!!!!!!!!!.....          ",
"                           .$..$>;,,))!!!!!>.$..$,>,,))!!!!!!!!!!!!!!!!!!!!!!!!!!!!!!!!!!!!!!!!!!!!!!!!!!!!!!!!!).....          ",
"                           .$&.@,;,,))!!!!!;.$..$;;,,))!!!!!!!!!!!!!!!!!!!!!!!!!!!!!!!!!!!!!!!!!!!!!!!!!!!!!!!!!!.....          ",
"                           ..=.$,>,,))!!!!!;.$..$>>,,))!!!!!!!!!!!!!!!!!!!!!!!!!!!!!!!!!!!!!!!!!!!!!!!!!!!!!!!!!!.....          ",
"                           ..*.@&&&&*******&.$..@,;,,))!!!!!!!!!!!!!!!!!!!!!!!!!!!!!!!!!!!!!!!!!!!!!!!!!!!!!!!!!!.....          ",
"                           .......@..........$..&>;,,))!!!!!!!!!!!!!!!!!!!!!!!!!!!!!!!!!!!!!!!!!!!!!!!!!!!!!!!!!).....          ",
"                           ........$$&&&&&&$.$..@>;,,))!!!!!!!!!!!!!!!!!!!!!!!!!!!!!!!!!!!!!!!!!!!!!!!!!!!!!!!!!!.....          ",
"                           ..................$..$>>,,))!!!!!!!!!!!!!!!!!!!!!!!!!!!!!!!!!!!!!!!!!!!!!!!!!!!!!!!!!!.....          ",
"                           ..................$..$>;,,))!!!!!!!!!!!!!!!!!!!!!!!!!!!!!!!!!!!!!!!!!!!!!!!!!!!!!!!!!).....          ",
"                               ..............$..$,>,,))!!!!!!!!!!!!!!!!!!!!!!!!!!!!!!!!!!!!!!!!!!!!!!!!!!!!!!!!!!.....          ",
"                                            .$..@;;,,))!!!!!!!!!!!!!!!!!!!!!!!!!!!!!!!!!!!!!!!!!!!!!!!!!!!!!!!!!!.....          ",
"                                            .$..&>>,,))!!!!!!!!!!!!!!!!!!!!!!!!!!!!!!!!!!!!!!!!!!!!!!!!!!!!!!!!!!.....          ",
"                                            .$..@>;,,))!!!!!!!!!!!!!!!!!!!!!!!!!!!!!!!!!!!!!!!!!!!!!!!!!!!!!!!!!!.....          ",
"                                            .$..$>>,,))!!!!!!!!!!!!!!!!!!!!!!!!!!!!!!!!!!!!!!!!!!!!!!!!!!!!!!!!!).....          ",
"                                            .$..$>;,,))!!!!!!!!!!!!!!!!!!!!!!!!!!!!!!!!!!!!!!!!!!!!!!!!!!!!!!!!!!.....          ",
"                                            .$..$,;,,))!!!!!!!!!!!!!!!!!!!!!!!!!!!!!!!!!!!!!!!!!!!!!!!!!!!!!!!!!!.....          ",
"                                            .$..@;;,,))!!!!!!!!!!!!!!!!!!!!!!!!!!!!!!!!!!!!!!!!!!!!!!!!!!!!!!!!!!.....          ",
"                                            .$..&>>,,))!!!!!!!!!!!!!!!!!!!!!!!!!!!!!!!!!!!!!!!!!!!!!!!!!!!!!!!!!).....          ",
"                                            .$..@;;,,))!!!!!!!!!!!!!!!!!!!!!!!!!!!!!!!!!!!!!!!!!!!!!!!!!!!!!!!!!!.....          ",
"                                            .$..&>>,,))!!!!!!!!!!!!!!!!!!!!!!!!!!!!!!!!!!!!!!!!!!!!!!!!!!!!!!!!!!.....          ",
"                                            .$..$>;,,))!!!!!!!!!!!!!!!!!!!!!!!!!!!!!!!!!!!!!!!!!!!!!!!!!!!!!!!!!!.....          ",
"                                            .$..$>>,,))!!!!!!!!!!!!!!!!!!!!!!!!!!!!!!!!!!!!!!!!!!!!!!!!!!!!!!!!!).....          ",
"                                            .$..@;;,,))!!!!!!!!!!!!!!!!!!!!!!!!!!!!!!!!!!!!!!!!!!!!!!!!!!!!!!!!!!.....          ",
"                                            .$..&>;,,))!!!!!!!!!!!!!!!!!!!!!!!!!!!!!!!!!!!!!!!!!!!!!!!!!!!!!!!!!!.....          ",
"                                            .$..@>;>,))!!!!!!!!!!!!!!!!!!!!!!!!!!!!!!!!!!!!!!!!!!!!!!!!!!!!!!!!!!.....          ",
"                                            .$..&>>,,))!!!!!!!!!!!!!!!!!!!!!!!!!!!!!!!!!!!!!!!!!!!!!!!!!!!!!!!!!).&...          ",
"                                            .$..$,;,,))!!!!!!!!!!!!!!!!!!!!!!!!!!!!!!!!!!!!!!!!!!!!!!!!!!!!!!!!!!.*...          ",
"                                            .$&.$>;,,))!!!!!!!!!!!!!!!!!!!!!!!!!!!!!!!!!!!!!!!!!!!!!!!!!!!!!!!!!).=...          ",
"                                            ..=.@>;,,))!!!!!!!!!!!!!!!!!!!!!!!!!!!!!!!!!!!!!!!!!!!!!!!!!!!!!!!!!).=...          ",
"                                            ..=..*&&**&***********************************************************&...          ",
"                                            ...................................................................&*=....          ",
"                                            .........&&&&&&&&&&&&&&&&&&&&&&&&&&&&&&&&&&&&&&&&&&&&&&&&&&&&&&&&**&......          ",
"                                            ..........................................................................          ",
"                                            ..........................................................................          ",
"                                                ....................................................................            ",
"                                                                                                                                ",
"                                                                                                                                ",
"                                                                                                                                ",
"                                                                                                                                ",
"                                                                                                                                ",
"                                                                                                                                ",
"                                                                                                                                ",
"                                                                                                                                "};
