/* XPM */
char * zoomselected_xpm[] = {
"128 128 17 1",
" 	c None",
".	c #000000",
"+	c #780000",
"@	c #1E1B13",
"#	c #382911",
"$	c #6D1B18",
"%	c #2E2F2C",
"&	c #4F4E47",
"*	c #933B3B",
"=	c #948883",
"-	c #BA8383",
";	c #CCA2A1",
">	c #B0B2AF",
",	c #C2C3C0",
"'	c #D6D9D6",
")	c #E7E9E6",
"!	c #FBFDFA",
"                                                                                                                                ",
"                                                    .......                                                                     ",
"                                             ......................                                                             ",
"                                         .......%%%%%.@%%&&&&%.........                                                         ",
"                                      .....%&&&.................@%%......                                                       ",
"                                   ....@&&&........@@%%%%%@%........%%......                                                    ",
"                                 ....&&&......@@%%&=>,,,,>>=&%%%@@.....@%.....                                                  ",
"                               ....=&.....@%%&=>,>>,>,>>,,>>>>>>>=%%@.....@.....                                                ",
"                              ...&&....@%&=>,,,>>>,>>,,>,,,,,,,>>>,>=%%@....@.....                                              ",
"                            ...&=....%&=>,>,>>>>,,>,,>,,,,',,,,,,,>,>>>=%@.........                                             ",
"                          ...&=....@&=>,,>,>>,>,>,,,,'''''')''''',,,,,>,>=%%.........                                           ",
"                         ...=%...%&=>,,>>>>>,,,,',''''')))))))))))')'',',>>=%@........                                          ",
"                        ..&=....%=,,,>>>,,,,,''''))))))))!)!!)))))))))'''',,,=%@........                                        ",
"                       ..=&...@&>,>>>>>>,,,'''))))))!)!!)!!!!!!)!)!)))))''',,,>=%@.......                                       ",
"                      ..=...@&=>>>>,>,,,,'')))))!)!)!!!!!!!!!!!!!!!!!!)))))))',,>=%.......                                      ",
"                    ...=...%=,,,,>>>,,,,))))))!)!!!!!!!!!!!!!!!!!!!!!!!!!!)))')',,>%.......                                     ",
"                   ..@=...%>,,>>>>,,,'))))!)!!!!!!!!!!!!!!!!!!!!!!!!!!!!!!!!)))''',>%@......                                    ",
"                  ..@=...%>,,>>>>,,,'')))!!!!!!!!!!!!!!!!!!!!!!!!!!!!!!!!!!!!)!)))'',=%......                                   ",
"                  .@=...%>,>>>>,,,')))!)!!!!!!!!!!!!!!!!!!!!!!!!!!!!!!!!!!!!!!!!)!)'',>%......                                  ",
"                 ..=...%>,>>,>,'')))))!!!!!!!!!!!!!!!!!!!!!!!!!!!!!!!!!!!!!!!!!!)!)))''>%......                                 ",
"                ..=...%>,>,>,>,''))!!!!!!!!!!!!!!!!!!!!!!!!!!!!!!!!!!!!!!!!!!!!!!!!)))''>%......                                ",
"               ..=...%>,,>>,,,''))!!!!!!!!!!!!!!!!!!!!!!!!!!!!!!!!!!!!!!!!!!!!!!!!!!!!))'>%.....                                ",
"              ..&%..%>,>>>,>''))!!!!!!!!!!!!!!!!!!!!!!!!!!!!!!!!!!!!!!!!!!!!!!!!!!!!!!)!)'=@.....                               ",
"              .&&..%>,>>>-----;-;-;;;;;;!!!!!!!!!!;********;)!!!!!!!!!;*************;!!)))'&......                              ",
"             ..=..@=,,>>>*+++++++++++++-!!!!!!!!!!-++++++++-!)!!!!!!!!-+++++++++++++;)!)!)),%......                             ",
"            ..=...&,,>,>;*++++++++++++$-!))!)!!!!!-++;;+++$-)!)!!!!!!!-++;;;;;;*+++$;)!)!)!),%.....                             ",
"            .%&..%>>>>>,,*+*;-+++++++++-')))!!!!!!-+++++++$-'))))!!!!!-+++++++*-+++$-')))))))=@.....                            ",
"           ..=..@=,,>,,,'*+*;++++++$+$+=''))!)!!!!-+++$+$$+-,'')))!!!!-++++++++++++$-,'')!!!)'&.....                            ",
"          ..&...&,>>>>,''*++++$***$$$$$=,,'))!!!!!;;;;==-=&-,,'')!!!!!;;;>=-=--$+++$=>,''))!!)>@.....                           ",
"          ..&..%>>>,>,'')*++++=>>>,>,>>,,,'')!)!!!!!)'',>,,>,,'))))!!!!!))'',>>*++++->,,'))!))'&......                          ",
"         ..=..@=,>>>,,)))*++++=>>>>>>,>,>,,'))!!!!!!!)'',>,>,,'')!!!!!!!!)'',,,$+++$=>>,')!!!!),%.....                          ",
"         ..&..&>,>,;,'')!*+*+$->>>>>,>,;,,'))!)!!!!!))),',,,,,''))!!!!!!))'',,,*++++->;,,)))!!!!=......                         ",
"         .&..@=,>>,,,)))!*+++$=>>>>,,,'',''))!!!!!!!!))))''''')))!!!!!!!!))))',*+++$&>,,'))!!!!!)&.....                         ",
"        ..=..&,,>>,,'))!!*++++->>>,,'''')))))!!!!!!!!!))')))))))!!!!!!!!!!)))))$++++->>,')))!!!!!=.....                         ",
"        .%..@=>>>,,')))!!*+++$=>>>',))))))!!)!!!!!!!!!)!)))))!)!!!!!!!!!!!!)!)!*+++$=>>,,)!!!!!!!'%.....                        ",
"       ..=..%,,>,;,')!!!!*++$+->>,,))))!)!)!!!!!!!!!!!!!!!!!!!!!!!!!!!!!!!!!!))*+++$->;,')))!!!!!!&.....                        ",
"       ..&..&>,>,,')))!!!*++$$->>,'))!)!!!!!!!!!!!!!!!!!!!!!!!!!!!!!!!!!!!!!!!!*+$+$->,,,))!!!!!!!>@....                        ",
"       .%..@=,>>,,'))!!!!=--&-->>,,))!!!!!!!!!!!!!!!!!!!!!!!!!!!!!!!!!!!!!!!!!!=--&-=>,,')!)!!!!!!)&.....                       ",
"      ..&..&>,>>,'))!!!!!!)'',,,,''))!!!!!!!!!!!!!!!!!!!!!!!!!!!!!!!!!!!!!!!!!!!)'',,>,,'))!!!!!!!!=.....                       ",
"      ..&.@=>,>,,'))!!!!!!)))',,;,')!!!!!!!!!!!!!!!!!!!!!!!!!!!!!!!!!!!!!!!!!!!!!))',,,,'))!!!!!!!))%....                       ",
"      .%..%>>>,,,)))!!!!!!!))''')')))!!!!!!!!!!!!!!!!!!!!!!!!!!!!!!!!!!!!!!!!!!!)!)'',''')!!!!!!!!!)&.@...                      ",
"      .&..%>>,;,')!!!!!!!!!!)))'''))!!!!!!!!!!!!!!!!!!!!!!!!!!!!!!!!!!!!!!!!!!!!!)))))'))!)!!!!!!!!)>.....                      ",
"      .&..&,>,,,'))!!!!!!!!!)))))))!!!!!!!!!!!!!!!!!!!!!!!!!!!!!!!!!!!!!!!!!!!!!!!))))))))!!!!!!!!!!'.....                      ",
"     ..&.@=>,>,')))!!!!!!!!!!))!)!!)!!!!!!!!!!!!!!!!!!!!!!!!!!!!!!!!!!!!!!!!!!!!!!!!)))!!!)!!!!!!!!!)%....                      ",
"     ....@>,>,,'))!!!!!!!!!!!!!)!!!!!!!!!!!!!!!!!!!!!!!!!!!!!!!!!!!!!!!!!!!!!!!!!!!!!!)!!!!!!!!!!!!!!%.@..                      ",
"     .@..%>,;,,')!!!!!!!!!!!!!!!!!!!!!!!!!!!!!!!!!!!!!!!!!!!!!!!!!!!!!!!!!!!!!!!!!!!!!!!!!!!!!!!!!!!!&.....                     ",
"     .%..%,,>,''))!!!!!!!!!!!!!!!!!!!!!!!!!!!!!!!!!!!!!!!!!!!!!!!!!!!!!!!!!!!!!!!!!!!!!!!!!!!!!!!!!!!>.....                     ",
"     .%..&>>,,'))!!!!!!!!!!!!!!!!!!!!!!!!!!!!!!!!!!!!!!!!!!!!!!!!!!!!!!!!!!!!!!!!!!!!!!!!!!!!!!!!!!!!).....                     ",
"     .%.@=>>,,'))!!!!!!!!;----;!!!!!!!!!!!!!!!!!!!!!!!!!!!!!!!!!!!!!!!!!!!!!!!!;----;!!!!!!!!!!!!!!!!)@....                     ",
"     .%.%>,,;,')!!!!!!!!!;++++*)!!!!!!!!!!!!!!!!!!!!!!!!!!!!!!!!!!!!!!!!!!!!!!!;++++*!!!!!!!!!!!!!!!!!@....                     ",
"     .%.%>,>',)))!!!!!!!!;+*++*)!)!!!!!!!!!!!!!!!!!!!!!!!!!!!!!!!!!!!!!!!!!!!!!;+*++*)!)!!!!!!!!!!!!!!%....                     ",
"     .%.%,,,,'')!!!!!!!!!;+;++*))))!)!!!!!!!!!!!!!!!!!!!!!!!!!!!!!!!!!!!!!!!!!!;+;+$*)))))!!!!!!!!!!!)@....                     ",
"     .&.%,>>,'))!!!!!!!!!;+;++*'''))!)!!!!!!!!!!!!!!!!!!!!!!!!!!!!!!!!!!!!!!!!!;+;++*''))))!!!!!!!!!!)%....                     ",
"     .&.%,,,,,))!!!!!!!!!;+++$*',')))!!!!!!!!!!!!!!!!!!!!!!!!!!!!!!!!!!!!!!!!!!;+++$$','')!)!!!!!!!!!)%....                     ",
"     .&.@>>,'')!)!!!!!!!!;++++$,,,'))!!!!!!!!!!!!!!!!!!!!!!!!!!!!!!!!!!!!!!!!!!;++++*,,,'))!!!!!!!!!!)@....                     ",
"     @&.@=,;,'))!!!!!!!!!;+++$*,,,,)))!!!!!!!!!!!!!!!!!!!!!!!!!!!!!!!!!!!!!!!!!;+++$$,,,''))!!!!!!!!!)%@...                     ",
"     .&..&>',))!!!!!!!!!!;+$+$$>>,,))!!!!!!!!!!!!!!!!!!!!!!!!!!!!!!!!!!!!!!!!!!;+$$$$,>,,))!!!!!!!!!!)@%...                     ",
"     .%..%>,,'))!!!!!!!!!>----->,,,)))!!!!!!!!!!!!!!!!!!!!!!!!!!!!!!!!!!!!!!!!!>----->>,,)))!!!!!!!!!).&...                     ",
"     ....%>,,'))!!!!!!!!!!)'',,,,,,))!!!!!!!!!!!!!!!!!!!!!!!!!!!!!!!!!!!!!!!!!!!)'',,,,,'')!!!!!!!!!!>.=...                     ",
"     ....%>>,')!)!!!!!!!!!!))',,,,')))!!!!!!!!!!!!!!!!!!!!!!!!!!!!!!!!!!!!!!!!!!!))',,,,')))!!!!!!!!)&.&..                      ",
"     ..%.@>;,,')!!!!!!!!!!!)))''''')!!!!!!!!!!!!!!!!!!!!!!!!!!!!!!!!!!!!!!!!!!!!!)))''''')!!!!!!!!!!!%.&..                      ",
"     ..%.@=,,,)))!!!!!!!!!!!!)'''')))!!!!!!!!!!!!!!!!!!!!!!!!!!!!!!!!!!!!!!!!!!!!!))'''')))!!!!!!!!!!%.%..                      ",
"      .%..%>,,))!!!!!!!!!!!))))))))!!!!!!!!!!!!!!!!!!!!!!!!!!!!!!!!!!!!!!!!!!!!!!!)!)))))!!!!!!!!!!!'@&...                      ",
"      ....%>>,'))!!!!!!!!!!!!!!!)!)!!!!!!!!!!!!!!!!!!!!!!!!!!!!!!!!!!!!!!!!!!!!!!!!)!!)!!)!!!!!!!!!!>.&...                      ",
"      ..%.@=,,'))!!!!!!!!!!!!!!)!!!!!!!!!!!!!!!!!!!!!!!!!!!!!!!!!!!!!!!!!!!!!!!!!!!!!)!!)!!!!!!!!!!!&.=...                      ",
"      ..%..%>,')))!!!!!!!!!!!!!!!!!!!!!!!!!!!!!!!!!!!!!!!!!!!!!!!!!!!!!!!!!!!!!!!!!!!!!!!!!!!!!!!!!)%@%..                       ",
"      .....%>>,))!!!!!!!!!!!!!!!!!!!!!!!!!!!!!!!!!!!!!!!!!!!!!!!!!!!!!!!!!!!!!!!!!!!!!!!!!!!!!!!!!!=@&...                       ",
"       ....@=>,'))!!!!!!!!!!!!!!!!!!!!!!!!!!!!!!!!!!!!!!!!!!!!!!!!!!!!!!!!!!!!!!!!!!!!!!!!!!!!!!!!!&.=...                       ",
"       ..%..%,,')!!!!!!!!;----;!!!!!!!!!!!!!!!!!!!!!!!!!!!!!!!!!!!!!!!!!!!!!!!!;----;!!!!!!!!!!!!!>%%%..                        ",
"       .....%>,,'))!!!!!!;++++*!!!!!!!!!!!!!!!!!!!!!!!!!!!!!!!!!!!!!!!!!!!!!!!!;++++*!!!!!!!!!!!!)&.=...                        ",
"        ....@=>,)))!!!!!!;+*++*)))!!!!!!!!!!!!!!!!!!!!!!!!!!!!!!!!!!!!!!!!!!!!!;+*++*)!)!!!!!!!!!)%.&...                        ",
"        .....%>,')!)!!!!!;+;+$*)))))!!!!!!!!!!!!!!!!!!!!!!!!!!!!!!!!!!!!!!!!!!!;+;+$*))))!)!!!!!!=%&...                         ",
"         ....@=>,')!!!!!!;+;++*')))!)!!!!!!!!!!!!!!!!!!!!!!!!!!!!!!!!!!!!!!!!!!;+,++*'')))!!!!!!)&.=...                         ",
"         .....%,,'))!!!!!;+-+$*,,'')!!!!!!!!!!!!!!!!!!!!!!!!!!!!!!!!!!!!!!!!!!!;+;+$$','')!)!!!!>@&...                          ",
"         .....@=>'))!!!!!;+*++$,,,'))!)!!!!!!!!!!!!!!!!!!!!!!!!!!!!!!!!!!!!!!!!;+;++*,,,'')!!!!'%.=...                          ",
"          .....%>,'))!!!!;+**$*;,,,'))!!!!!!!!!!!!!!!!!!!!!!!!!!!!!!!!!!!!!!!!!;+;+$*>,,'))!)!!&.&...                           ",
"          ...@..&>'')!!!!;+*-+*,,,,))!!!!!!!!!!!!!!!!!!!!!!!!!!!!!!!!!!!!!!!!!!;--++$,>,,')!!!>@@=...                           ",
"           ......=,')!)!!;++,+$=----;;;;!!!!!!!!!!;********;!!!!!!!!!!;********+;++$*>>,,)))!)&.=...                            ",
"            .....%>,')!!!;++-++++++++++-!!!!!!!!!!-++++++++-)!!)!!!!!!-++++++-;)-++$$>>,,)))!>@&%...                            ",
"            ......&,')!)!;++++++++++++$-))!)!!!!!!-++;;++$+-)))!)!!!!!-++;;---+++++$*>>,,'))'%.=...                             ",
"             .....@=,')!);+++++++++++++-)))!)!!!!!-+++++++$-')))!!!!!!-++++++++++$$$$>>,,))'%.=....                             ",
"              .....%>,')!;++$+$$+++$+$+=,''))!)!!!-++++$$$+-,')))!)!!!;++++$+$+$$+$$$>;,,')&.&%...                              ",
"              ......%>'));**$$$$$$$$$$$=,,'))!!!!!;;;;=-=-&-,,,))!!!!!;;;;-=-=-&-&-&->>,,)=%%=...                               ",
"               ......%>')))))''>>>>>>>>,;,'')!)!!!!!)),,>,,>,,,'))!!!!!!))',>>>>>>>>>>>,,>%.=...                                ",
"                ......%>'))))',,>>>>,>,,,,''))!!!!!!)))',,>,,,'')!!!!!!!)))',,>>,>>>>,>,,%.=....                                ",
"                 ......%>')))''',>,,>,>,,,,))!)!!!!!!)'',,,,,',))!)!!!!!!))',,,,,,,,,,,>%.&%...                                 ",
"                 .......%>)')),'',,',,,,'')))!!!!!!!)!)))''',)'))!!!!!!!)))))),''''''';%.%&...                                  ",
"                  .......%>'))))')''))))')))))!!!!!!!))))')))))!)!!!!!!!!!))))))))'))=%..=...                                   ",
"                   .......%>''))))))))))))!)!!!!!!!!!!)!)!))!))!!!!!!!!!!!))))))))),&%..=&..       ##                           ",
"                    .......%=')))!)!)))!))!!!!!!!!!!!!!!!)!!!!!!!!!!!!!!!!!!!!!)!)>%..&=&....     ####                          ",
"                     .......@&=)))!!!!!!!!!!!!!!!!!!!!!!!!!!!!!!!!!!!!!!!!!!!!!!'&@.&=%.......   #####                          ",
"                       .......@&,)!)!!!!!!!!!!!!!!!!!!!!!!!!!!!!!!!!!!!!!!!!!!)>%.@=%..........#&>######                        ",
"                        ........%=)!)!!!!!!!!!!!!!!!!!!!!!!!!!!!!!!!!!!!!!!!)>&@.&=..... ...@.@#=##@@####                       ",
"                         ........@&=)!)!!!!!!!!!!!!!!!!!!!!!!!!!!!!!!!!!!)!>&@.%=.....    ..%&#>###@#####                       ",
"                          .........@&='!)!!!!!!!!!!!!!!!!!!!!!!!!!!!!!!!!>&@..=&.....      .@&>###.#>###@##                     ",
"                            .........%%&>)!!!!!!!!!!!!!!!!!!!!!!!!!!!))=&@.@=&......       ##=#####=##@@####                    ",
"                             ...........@&=')!)!!!!!!!!!!!!!!!!!!!)'>&&%.%=&......         #>###&&>###@#####                    ",
"                               ...........@%%&>')))!!!!!!!!!)!)'>&&@%..&=%......          &=##%##=###@#=##@###                  ",
"                                 .............@%%&&>'))!)!)>&&%%@..@&&&.......           #=####&>##@@#>###@####                 ",
"                                   .........%......@@&%&%&.@...%&=&%........            ####@##=###@#=##@@#####                 ",
"                                      .................@%&&==&&...........             #####@#>###@#>###@#=##@###               ",
"                                         ..............................                 #####=##@##=###@#>###@####              ",
"                                            .......................                      # #####@#>###@#>##@@#####              ",
"                                                  .........                               #####@#=###@#=###@#=##@###            ",
"                                                                                           ###@#=###.#>###@#>###@####           ",
"                                                                                            ######@##=##@@#=##@@#####           ",
"                                                                                             #####@#>###@#>###@#>##@###         ",
"                                                                                              #####=###@#=###@#=###@####        ",
"                                                                                               #@#####@#>###@#>##@@#####        ",
"                                                                                                ####@@#=###@#=###@#=###         ",
"                                                                                                 #####=##@@#>###@#>##@..        ",
"                                                                                                  #######@#=##@@#=###...        ",
"                                                                                                   #####@#>###@#>##@....        ",
"                                                                                                    #####=###@#=###@...         ",
"                                                                                                     #@#####.#>###....          ",
"                                                                                                      ####@##=##@....           ",
"                                                                                                       ###@#=###....            ",
"                                                                                                        #######....             ",
"                                                                                                         #####....              ",
"                                                                                                          ###....               ",
"                                                                                                           #  ..                ",
"                                                                                                                                ",
"                                                                                                                                ",
"                                                                                                                                ",
"                                                                                                                                ",
"                                                                                                                                ",
"                                                                                                                                ",
"                                                                                                                                "};
