/* XPM */
char * zoomwindow_xpm[] = {
"128 128 17 1",
" 	c None",
".	c #000000",
"+	c #6C0301",
"@	c #1D1A14",
"#	c #382911",
"$	c #2D2D2A",
"%	c #871712",
"&	c #493F2A",
"*	c #464744",
"=	c #696764",
"-	c #B87575",
";	c #8B8983",
">	c #ADAEAB",
",	c #C1C3C0",
"'	c #D6D9D6",
")	c #E6E8E5",
"!	c #FCFFFB",
"                                                                                                                                ",
"                                                    .......                                                                     ",
"                                             ......................                                                             ",
"                                         .......$$$$$@@$$**=*$.........                                                         ",
"                                      .....*==$.................@$$......                                                       ",
"                                   ....@==$........@@$$$$$@@........$$......                                                    ",
"                                 ....*=$......@@$$*;>,,,,,>;*$$$@@.....$@.....                                                  ",
"                               ....==.....@$$*;>,,>,,>,,>,>,,,,>>;*$@.....$.....                                                ",
"                              ...==....@$*;>,,,,>,>,,>,,,,,>,>,>,>>>;*$@....@.....                                              ",
"                            ...==....@*;>,,>,>>,,>,>,,,,,,,',',,,,,>>>>=*@.........                                             ",
"                          ...*;....@*;,,,>>,>,>,,,,,,,,'')'''''',,',,,,,>;*@.........                                           ",
"                         ...;$...@*;,,>,>,,>,,,,,,''')))))))))))))'''',,,>>;*@........                                          ",
"                        ..*;....$;,,>,>>,>,,,,'')''))))))!)!))))))))))''',,>>;*@........                                        ",
"                       ..;*...@*>,,>,>>,,,,''))))))!)!)!!!!!!!!!!!!)))))))'',,>;*@.......                                       ",
"                      ..;...@*;,>,>>>,,,,'))))))!)!!!!!!!!!!!!!!!)!!!!)!))))'',,>=$.......                                      ",
"                    ...;...$;,,,>>>,,,,,))))))!!!!!!!!!!!!!!!!!!!!!!!!!!!!))))''',>$.......                                     ",
"                   ..@;...$,,,>,>,,,,')))))!!!!!!!!!!!!!!!!!!!!!!!!!!!!!!!!)))))'',>*@......                                    ",
"                  ..$;...*>,,>,>>,,,')))!)!!!!!!!!!!!!!!!!!!!!!!!!!!!!!!!!!!!!))))'',;$......                                   ",
"                  .@;...$>,,>>,,,,)')))!!!!!!!!!!!!!!!!!!!!!!!!!!!!!!!!!!!!!!!!)))))',>$......                                  ",
"                 ..=...$>,,>>,,,''))!)!)!!!!!!!!!!!!!!!!!!!!!!!!!!!!!!!!!!!!!!!!!!)))''>$..@...                                 ",
"                ..;...$>,>>,,>,'))))!!!!!!!!!!!!!!!!!!!!!!!!!!!!!!!!!!!!!!!!!!!!!!!)!))'>$......                                ",
"               ..;...$>,>,>>,,''))!!!!!!!!!!!!!!!!!!!!!!!!!!!!!!!!!!!!!!!!!!!!!!!!!!!)))'>$.....                                ",
"              ..=$..$>,,>>,,,')))!!!!!!!!!!!!!!!!!!!!!!!!!!!!!!!!!!!!!!!!!!!!!!!!!!!!!)))';@.....                               ",
"              .$=..*>,,>>,,,'))!!!!!!!!!!!!!!!!!!!!!!!!!!!!!!!!!!!!!!!!!!!!!!!!!!!!!!!!!))'*......                              ",
"             ..;..@;,,>,>,,))))!!!!!!!!!!!!!!!!!!!!!!!!!!!!!!!!!!!!!!!!!!!!!!!!!!!!!!!!!!!),$......                             ",
"            ..=...*,>,>>,',))!!!!!!!!!!!!!!!!!!!!!!!!!!!!!!!!!!!!!!!!!!!!!!!!!!!!!!!!!!!)!)),$.....                             ",
"            .$*..$>,,>,,,')))!!!!!!!!!!!!!!!!!!!!!!!!!!!!!!!!!!!!!!!!!!!!!!!!!!!!!!!!!!!!!!));@.....                            ",
"           ..;..@;>,>>>,')))!!!!!!!!!!!!!!!!!!!!!!!!!!!!!!!!!!!!!!!!!!!!!!!!!!!!!----,!!!!!!))*.....                            ",
"          ..=...*,,>,,,,)))!!!!!!!!!!!!!!!!!!!!!!!!!!!!!!!!!!!!!!!!!!!!!!!!!!!!,%%+++%-,!!!!!)>@.....                           ",
"          ..=..$>,>,,-,))!!!!!!!!!!!!!!!!!!!!!!!!!!!!!!!!!!!!!!!!!!!!!!!!!!!!!,%%-%%%++%'!!!!))*......                          ",
"         ..=..@;,,>>,)))))!!!!!!!!!!!!!!!!!!!!!!!!!!!!!!!!!!!!!!!!!!!!!!!!!!!!%%->-%%%++-')!!!!,$.....                          ",
"         ..=..*,,>>,,')))!)=**************************************************%%'%%%%%%++>))!!!);......                         ",
"         .*..@;,>,>,,))!!!;.@..$$$$$$$$$$$$$$$$$$$$$$$$$$$$$$$$$$$$$$$$$$$$$@++--%%+%+%++;)))!!!)*.....                         ",
"        ..;..*,>,>,,')))!!;.=................................................@%%%%+%%%%++-,))!!!!;@....                         ",
"        .$@.@;,>,,,'))!!!!;..@*$**$**$***$$**$**$**$**$**$*$**$**$*$**$**$*$*++%%%%+%++++=,')!!!)'$.....                        ",
"       ..=..*>,>>,,')!)!!!>..$',,',,,,,,,',,,,,,,,',,',,,,',,',,,',,,,,,,',,';+++%%+%%+++>>,)!!!!)=.....                        ",
"       ..*..*>,>,,,)))!!!!>..*,,,,',','',',',',',,,',,,',',,,',',','',',',',',-+++%%++++=>>')!!!!)>@....                        ",
"       .*..@;,,-,,))!!!!!!,..*,,''))))')))))))))))))))))))))))))))))))))')))'),++++++++-;>,')!!!!!)*.....                       ",
"      ..=..*,,>',')))!!!!!>@.*,,))))!)!)!))!))!)!)!)!!)))!))!)!)))))))!)!))!))!'-+++++$=>>,))!!!!!!;.....                       ",
"      ..*.@;>,>,,'))!!!!!!>@.$',)!!!!!!!!!!!!!!!!!!!!!!!!!!!!!!!!!!!!!!!!!!!!!!))=..@;;>>,')!!!!!!!)$....                       ",
"      .$..@>,>,,,)))!!!!!!>@.*,,))!!!!!!!!!!!!!!!!!!!!!!!!!!!!!!!!!!!!!!!!!!!!!!!;@.$;;>,'))!!!!!!)!*.@...                      ",
"      .*..$,,>,,'))!!!!!!!,@.*',)!!!!!!!!!!!!!!!!!!!!!!!!!!!!!!!!!!!!!!!!!!!!!!!!>@.*;>>')!!!!!!!!!)>.....                      ",
"      .=..*>>,,,)))!!!!!!!>@.$,'))!!!!!!!!!!!!!!!!!!!!!!!!!!!!!!!!!!!!!!!!!!!!!!!>@.*>,,)!!!!!!!!!!!'.....                      ",
"     ..*.@;,,>,'))!!!!!!!!>@.*,,)!!!!!!!!!!!!!!!!!!!!!!!!!!!!!!!!!!!!!!!!!!!!!!!!>@.*,,))!!!!!!!!!!!)$....                      ",
"     ..@.@>>,,,,))!!!!!!!!>@.*''))!!!!!!!!!!!!!!!!!!!!!!!!!!!!!!!!!!!!!!!!!!!!!!!>@.$,,))!!!!!!!!!!!)$.@..                      ",
"     .@..$,,>,,)))!!!!!!!!,@.*,,)!!!!!!!!!!!!!!!!!!!!!!!!!!!!!!!!!!!!!!!!!!!!!!!!>@.*,,'!!!!!!!!!!!!!*.@...                     ",
"     .$..$,>,,,))!!!!!!!!!>@.*,'))!!!!!!!!!!!!!!!!!!!!!!!!!!!!!!!!!!!!!!!!!!!!!!!>@.*,,))!!!!!!!!!!!!>.....                     ",
"     .$..*,>,,'))!!!!!!!!!,..*,,)!!!!!!!!!!!!!!!!!!!!!!!!!!!!!!!!!!!!!!!!!!!!!!!!>@.$,,'!!!!!!!!!!!!!).....                     ",
"     .$.@;,>,,'))!!!!!!!!!>@.*,,))!!!!!!!!!!!!!!!!!!!!!!!!!!!!!!!!!!!!!!!!!!!!!!!>@.*,,))!!!!!!!!!!!!)@....                     ",
"     .$.@,>,,,)))!!!!!!!!!>@.*',)!!!!!!!!!!!!!!!!!!!!!!!!!!!!!!!!!!!!!!!!!!!!!!!!>@.*,,'!!!!!!!!!!!!!)@....                     ",
"     .$.$,,>,,))!)!!!!!!!!>@.*,,)!!!!!!!!!!!!!!!!!!!!!!!!!!!!!!!!!!!!!!!!!!!!!!!!>@.*>,))!!!!!!!!!!!!!$....                     ",
"     .$.$'-,,,))!!!!!!!!!!>@.*,'))!!!!!!!!!!!!!!!!!!!!!!!!!!!!!!!!!!!!!!!!!!!!!!!>@.*,,'!!!!!!!!!!!!!)@....                     ",
"     .*.$,,,,)))!!!!!!!!!!>@.*,,)!!!!!!!!!!!!!!!!!!!!!!!!!!!!!!!!!!!!!!!!!!!!!!!!>@.*,,')!!!!!!!!!!!!!@....                     ",
"     .=.$,,,,,))!!!!!!!!!!>@.*''))!!!!!!!!!!!!!!!!!!!!!!!!!!!!!!!!!!!!!!!!!!!!!!!>@.*,,)!!!!!!!!!!!!!)$....                     ",
"     .=.@>,,,)))!!!!!!!!!!>@.$,,)!!!!!!!!!!!!!!!!!!!!!!!!!!!!!!!!!!!!!!!!!!!!!!!!>@.$,,')!!!!!!!!!!!!)@....                     ",
"     .=.@;,,,')!!!!!!!!!!!>@.*',)!!!!!!!!!!!!!!!!!!!!!!!!!!!!!!!!!!!!!!!!!!!!!!!!>@.*,,)!!!!!!!!!!!!!!@@...                     ",
"     .*..*>,,)))!!!!!!!!!!>@.*,'))!!!!!!!!!!!!!!!!!!!!!!!!!!!!!!!!!!!!!!!!!!!!!!!>@.*,,')!!!!!!!!!!!!!@$...                     ",
"     .$..$>,,'))!!!!!!!!!!,@.*,,)!!!!!!!!!!!!!!!!!!!!!!!!!!!!!!!!!!!!!!!!!!!!!!!!>@.*,,)!!!!!!!!!!!!!).*...                     ",
"     ....$,,,'))!!!!!!!!!!>@.*,'))!!!!!!!!!!!!!!!!!!!!!!!!!!!!!!!!!!!!!!!!!!!!!!!>@.*>,')!!!!!!!!!!!!>.=...                     ",
"     ....$>,,'))!!!!!!!!!!,..*,,)!!!!!!!!!!!!!!!!!!!!!!!!!!!!!!!!!!!!!!!!!!!!!!!!>@.*,,'!!!!!!!!!!!!)=.=..                      ",
"     ..$.@>>,'))!!!!!!!!!!>@.*,,))!!!!!!!!!!!!!!!!!!!!!!!!!!!!!!!!!!!!!!!!!!!!!!!>@.*,,')!!!!!!!!!!!!$.=..                      ",
"     ..*..-,,,)))!!!!!!!!!>@.*',)!!!!!!!!!!!!!!!!!!!!!!!!!!!!!!!!!!!!!!!!!!!!!!!)>@.*,,)!!!!!!!!!!!!)$.$..                      ",
"      .$..*>,,)))!!!!!!!!!>@.*,,)!!!!!!!!!!!!!!!!!!!!!!!!!!!!!!!!!!!!!!!!!!!!!!!!>@.*,,')!!!!!!!!!!!)@*...                      ",
"      ....$>,,'))!!!!!!!!!>@.*,'))!!!!!!!!!!!!!!!!!!!!!!!!!!!!!!!!!!!!!!!!!!!!!!!>@.$,,'!!!!!!!!!!!!>.=...                      ",
"      ..$.@=,,)))!!!!!!!!!>@.*,,)!!!!!!!!!!!!!!!!!!!!!!!!!!!!!!!!!!!!!!!!!!!!!!!!>@.*,,))!!!!!!!!!!)*.=...                      ",
"      ..$..*>,'))!!!!!!!!!>@.$',))!!!!!!!!!!!!!!!!!!!!!!!!!!!!!!!!!!!!!!!!!!!!!!!>@.*,,)!!!!!!!!!!!)$$$..                       ",
"      .....$>>,)))!!!!!!!!>@.*',)!!!!!!!!!!!!!!!!!!!!!!!!!!!!!!!!!!!!!!!!!!!!!!!!>@.*,,')!!!!!!!!!!>.=...                       ",
"       ....@;,,'))!!!!!!!!-@.*,')!!!!!!!!!!!!!!!!!!!!!!!!!!!!!!!!!!!!!!!!!!!!!!!!>@.$,,'!!!!!!!!!!)*.;...                       ",
"       ..@..*>,'))!!!!!!)-%%%+%-))!!!!!!!!!!!!!!!!!!!!!!!!!!!!!!!!!!!!!!!!!!!!!!!>@.*,,')!!!!!!!!!>@$$..                        ",
"       .....$>,,)))!!!!)-+%%%+++-)!!!!!!!!!!!!!!!!!!!!!!!!!!!!!!!!!!!!!!!!!!!!!!!>@.*,,)!!!!!!!!!)=.=...                        ",
"        ....@=,,)))!!!!-%%>--%%++-)!!!!!!!!!!!!!!!!!!!!!!!!!!!!!!!!!!!!!!!!!!!!!!>$@*,,')!!!!!!!!)*.=...                        ",
"        .....*>,')!!)!,%%,-%%%%+++'!!!!!!!!!!!!!!!!!!!!!!!!!!!!!!!!!!!!!!!!!!!!!!>*.*,,)!!!!!!!!)>.=...                         ",
"         ....@;>,)))!!-%--%+%+%+++$***=**=**=**=***=**=*****=**=**=***=**=***=**==*.*>,')!!!!!!!)*.=...                         ",
"         .....*>,'))!!-+%-+%%%%%++@@..@.@.@...@.@..@..@.@@@.@.@.@..@.@.@..@@..@@$$..*,,'!!!!!!!!>@=...                          ",
"         .....@;,')))!-+%%%+%+%%++..................................................*>,))!!!!!!'$.;...                          ",
"          .....$>,)))!-+++%+%+%+++*===;;;;;;;;;;;;;;;;;;;;;;;;;;;;;;;;;;;;;;;;;;;;;=>>,)!!!!!!!*.=...                           ",
"          ...@..$,')!)!%+%+%%++++#;;>,>,>,,,,,,,,,,>,,,,,>,>,,,,,,,,,,>,,,,>,,,,>,,,>,,))!!!!!>$.=...                           ",
"           .....@;,')!!>+++++++++=;;>,,,',,,,,,,',,',,,,,,'',,,,,',,,,',',,',,,,',,,,'))!!!!!)*.;...                            ",
"            .....$>,')!!-++++++#->>>,)))))))!))))))))))))))))))!)))))))))))))))))))!)))!!!!!!>@**...                            ",
"            ......*>)))!!,=-+*-;>>,,))!!!!!!!!!!!!!!!!!!!!!!!!!)!!!!!!!!!!!!!!!!!!!)!!!!!!!!,*.;...                             ",
"             .....@;,))!))),,>>>>>'))!!!!!!!!!!!!!!!!!!!!!!!!!!!!!!!!!!!!!!!!!!!!!!!!!!!!!!)*.;....                             ",
"              .....$>,))!))'',,,''))!!!!!!!!!!!!!!!!!!!!!!!!!!!!!!!!!!!!!!!!!!!!!!!!!!!!!!)*.=$...                              ",
"              ......$>'))!!)))))))!!!!!!!!!!!!!!!!!!!!!!!!!!!!!!!!!!!!!!!!!!!!!!!!!!!!!!!!>@$=...                               ",
"               ......$>'))!!!!)))!!!!!!!!!!!!!!!!!!!!!!!!!!!!!!!!!!!!!!!!!!!!!!!!!!!!!!!!,*.;...                                ",
"                ......$>)))!)!!!!!!!!!!!!!!!!!!!!!!!!!!!!!!!!!!!!!!!!!!!!!!!!!!!!!!!!!!!'*.;....                                ",
"                 ......$>)))!!!!!!!!!!!!!!!!!!!!!!!!!!!!!!!!!!!!!!!!!!!!!!!!!!!!!!!!!!!'$.=$...                                 ",
"                 .......$,))!!!!!!!!!!!!!!!!!!!!!!!!!!!!!!!!!!!!!!!!!!!!!!!!!!!!!!!!!!'*.@=...                                  ",
"                  .......$>'))!!!!!!!!!!!!!!!!!!!!!!!!!!!!!!!!!!!!!!!!!!!!!!!!!!!!!!)>$..=...                                   ",
"                   .......$,')!!!!!!!!!!!!!!!!!!!!!!!!!!!!!!!!!!!!!!!!!!!!!!!!!!!!!'*$..;*..       ##                           ",
"                    .......$;'))!!!!!!!!!!!!!!!!!!!!!!!!!!!!!!!!!!!!!!!!!!!!!!!!!!;*..=;*....     ####                          ",
"                     .......@*>')!!!!!!!!!!!!!!!!!!!!!!!!!!!!!!!!!!!!!!!!!!!!!!!'*$.*;$.......   &####                          ",
"                       .......@*,))!!!!!!!!!!!!!!!!!!!!!!!!!!!!!!!!!!!!!!!!!!)!;*.@;*..........#&;######                        ",
"                        ....@...$;))!!!!!!!!!!!!!!!!!!!!!!!!!!!!!!!!!!!!!!!!!>*$.==..... ...@.@&;##@@####                       ",
"                         ........@*>))!!!!!!!!!!!!!!!!!!!!!!!!!!!!!!!!!!!!)>*@.$;.....    ..@=&>###@&####                       ",
"                          .........@*;')!!!!!!!!!!!!!!!!!!!!!!!!!!!!!!!!)>*@.@=*.....      .@&;###@&;######                     ",
"                            .........@$*>))!!!!!!!!!!!!!!!!!!!!!!!!!!!)>*$.$==......       #&;####&;##@.####                    ",
"                             ...........@*;))!)!!!!!!!!!!!!!!!!!!!))>**@.$;=......         &;##&$&;###@#&###                    ",
"                               ...........@@**>'))!!!!!!!!!!!)!'>**@@..=;$......          &>###&&>###@&;##@###                  ",
"                                 .............$@***>')!)!))>***@$..@*;*.......           #;###$&;###@#>###@####                 ",
"                                   .........@......@@$**$*@@...$===$........            ####@#&;###@&;##@@&####                 ",
"                                      .................@$*==;=*...........             #####@#;###@&;###@#;###@##               ",
"                                         ..............................                 #####;###@&;###@&;##@@####              ",
"                                            .......................                      # #####.&;###@&;###@#####              ",
"                                                  .........                               #####@&;###@&;###@&;##@###            ",
"                                                                                           ###@#;###@&;###.&;###@####           ",
"                                                                                            #######@#>##@#&;###@&####           ",
"                                                                                             #####.&;###@#;###@#;###@##         ",
"                                                                                              #####;##@#&>##@@&;##@@####        ",
"                                                                                               #######@#;###@#;###@#&###        ",
"                                                                                                ####@#&;##@#&>###@&;##@         ",
"                                                                                                 #####=###@#;###.&;###..        ",
"                                                                                                  ######@#&;###@&;##@...        ",
"                                                                                                   #####@#;###.&;###@...        ",
"                                                                                                    #####;###@#>###....         ",
"                                                                                                     #######@#>###....          ",
"                                                                                                      #####@&;###....           ",
"                                                                                                       ###@#;###....            ",
"                                                                                                        #######....             ",
"                                                                                                         #####....              ",
"                                                                                                          ###....               ",
"                                                                                                           #  ..                ",
"                                                                                                                                ",
"                                                                                                                                ",
"                                                                                                                                ",
"                                                                                                                                ",
"                                                                                                                                ",
"                                                                                                                                ",
"                                                                                                                                "};
