/* XPM */
char * zoomcenter_xpm[] = {
"128 128 17 1",
" 	c None",
".	c #000000",
"+	c #1E1B12",
"@	c #790100",
"#	c #620C0E",
"$	c #372911",
"%	c #2C2D2A",
"&	c #49402A",
"*	c #484744",
"=	c #9D4847",
"-	c #696663",
";	c #B77474",
">	c #8E8A83",
",	c #B3B3B0",
"'	c #CDCECB",
")	c #E6E8E5",
"!	c #FDFFFC",
"                                                                                                                                ",
"                                                    .......                                                                     ",
"                                             ......................                                                             ",
"                                         .......%%%%%++%%**-*%.........                                                         ",
"                                      .....*-**.................+%%......                                                       ",
"                                   .....--*.........%%%%%%+%........%%......                                                    ",
"                                 ....*-%......+%%%*>,,',',,>*%%%++.....%+.....                                                  ",
"                               ....--......%%*>,,,,',,,,,',,,,,,,>*%+.....%.....                                                ",
"                              ...--....%%*>,,,,,',,,,',','',',,,,,,,-*%+....+.....                                              ",
"                            ...--....+*>,',,',,,,,',,'',',''''',',,',,,-*+.........                                             ",
"                          ...*>....+*>,',,',,,',',''''''')')')''''''',',,>%%.........                                           ",
"                         ...>%...+*>,',,,,,,,'',''''''))))))))))))''''''',,>*+........                                          ",
"                        ..*>....%>',,,,,,,'''''')))))))!))!)!)!)))))))'''',,,>%%........                                        ",
"                       ..>*...+*,',,,,,,'',''))))))!)!!)!!!!!!!)!!!)!)))))'''',>%+.......                                       ",
"                      ..>...%*>,,,,,,'',''))))))!)!)!!!!!!!!!!!!)!!!!!!)))))'''',-%.......                                      ",
"                    ...>...%>'',,,,,,,''')))!)!!!!!!!!!!!!!!!!!!!!!!!!!!!!!)))'''',%.......                                     ",
"                   ..%>...%,,,,,,,''''))))!)!!!!!!!!!!!!!!!!!!!!!!!!!!!!!)!!)))))'',*.......                                    ",
"                  ...>...%,',',,,',''))!!)!!!!!!!!!!!!!!!!!!!!!!!!!!!!!!!!!!!)!)))'''>%......                                   ",
"                  .%-...%,,,,,,','')))))!!!!!!!!!!!!!!!!!!!!!!!!!!!!!!!!!!!!!!!)!)))'',%......                                  ",
"                 ..>...%,'',,,',)')))!!!!!!!!!!!!!!!!!!!!!!!!!!!!!!!!!!!!!!!!!!!)!))))',%......                                 ",
"                ..>...%,,,,,,'''))!!)!!!!!!!!!!!!!!!!!!!!!!!!!!!!!!!!!!!!!!!!!!!!!!))))',%......                                ",
"               ..>...%,',,,,',')))!)!!!!!!!!!!!!!!!!!!!!!!!!!!!!!!!!!!!!!!!!!!!!!!!!!!))),%.....                                ",
"              ..-%..%,',,,,',)))!)!!!!!!!!!!!!!!!!!!!!!!!!!!!!!!!!!!!!!!!!!!!!!!!!!!!)!))'>+.....                               ",
"              .%-..%,,,,,,,'')))!!!!!!!!!!!!!!!!!!!!!!!!!!!!!!!!!!!!!!!!!!!!!!!!!!!!!!!)!)'*......                              ",
"             ..>..%>',,,,'''))!!!!!!!!!!!!!!!!!!!!!!!!!!!!!!!!!!!!!!!!!!!!!!!!!!!!!!!!!!!!)'%......                             ",
"            ..-...*,',,,,''))!)!!!!!!!!!!!!!!!!!!!!!!!!!!!!!!!!!!!!!!!!!!!!!!!!!!!!!!!!!!)!),%.....                             ",
"            .%*..%,,,,,'''))!)!!!!!!!!!!!!!!!!!!!!!!!!!!!!!!!!!!!!!!!!!!!!!!!!!!!!!!!!!!!)!)!>......                            ",
"           ..>..%>',,,,''))!!!!!!!!!!!!!!!!!!!!!!!!!!!!!!!!!!!!!!!!!!!!!!!!!!!!!!!!!!!!!!!!!!)*.....                            ",
"          ..-...*,,,,,'')))!!!!!!!!!!!!!!!!!!!!!!!!!!!!!!!!!!!!!!!!!!!!!!!!!!!!!!!!!!!!!!!!!)),......                           ",
"          ..-..%,',,,,')))!!!!!!!!!!!!!!!!!!!!!!!!!!!!!!!!!!!!!!!!!!!!!!!!!!!!!!!!!!!!!!!!!!!!)*......                          ",
"         ..-..+>,,,,'''))!)!!!!!!!!!!!!!!!!!!!!!!!!!!!!!!!!!!!!!!!!!!!!!!!!!!!!!!!!!!!!!!!!!!)!'%.....                          ",
"         ..-..*',,,,''))!!!!!!!!!!!!!!!!!!!!!!!!!!!!!!!!!!!!!!!!!!!!!!!!!!!!!!!!!!!!!!!!!!!!!!!)>+.....                         ",
"         .*..+>,,,','')!)!!!!!!!!!!!!!!!!!!!!!!!!!!!!!!!!!!!!!!!!!!!!!!!!!!!!!!!!!!!!!!!!!!!!!!!)*.....                         ",
"        ..-..*'',,,,))))!!!!!!!!!!!!!!!!!!!!!!!!!!!!!!!!!!!!!!!!!!!!!!!!!!!!!!!!!!!!!!!!!!!!!!!!)>+....                         ",
"        .%%.+>,,,'''))!!!!!!!!!!!!!!!!!!!!!!!!!!!!!!!!!!!!!!!!!!!!!!!!!!!!!!!!!!!!!!!!!!!!!!!!!!!'%.....                        ",
"       ..-..%,,,,,'')!)!!!!!!!!!!!!!!!!!!!!!!!!!!!!!!!!!!!!!!!!!!!!!!!!!!!!!!!!!!!!!!!!!!!!!!!!!)!*.....                        ",
"       ..*..*',,,')))!!!!!!!!!!!!!!!!!!!!!!!!!!!!!!!!!!!!!!!!!!!!!!!!!!!!!!!!!!!!!!!!!!!!!!!!!!!!!,+....                        ",
"       .*..+>',,,'')!)!!!!!!!!!!!!!!!!!!!!!!!!!!!!!!!!!!!!!!!!!!!!!!!!!!!!!!!!!!!!!!!!!!!!!!!!!!!))*.....                       ",
"      ..-..*,,,'''))!!!!!!!!!!!!!!!!!!!!!!!!!!!!!!!!!!!!!!!!!!!!!!!!!!!!!!!!!!!!!!!!!!!!!!!!!!!!!!!>.....                       ",
"      ..*.+>',,,'')!)!!!!!!!!!!!!!!!!!!!!!!!!!!!!!!!!!!!!!!!!!!!!!!!!!!!!!!!!!!!!!!!!!!!!!!!!!!!!!!)%....                       ",
"      .%..+,,,,,)')!!!!!!!!!!!!!!!!!!!!!!!!!!!!!!!!!!!!!!!!!!!!!!!!!!!!!!!!!!!!!!!!!!!!!!!!!!!!!!!)!*.+...                      ",
"      .*..%,',,'')!)!!!!!!!!!!!!!!!!!!!!!!!!!!!!!!!!!!!!!!!!!!!!!!!!!!!!!!!!!!!!!!!!!!!!!!!!!!!!!!!),.....                      ",
"      .-..*,,,,'')!)!!!!!!!!!!!!!!!!!!!!!!!!!!!!!!!!!!!)!)!!!!!!!!!!!!!!!!!!!!!!!!!!!!!!!!!!!!!!!!!)).....                      ",
"     ..*.%>',,''))!!!!!!!!!!!!!!!!!!!!!!!!!!!!!!!!!))';;;;;,)!!!!!!!!!!!!!!!!!!!!!!!!!!!!!!!!!!!!!!!)%....                      ",
"     ....%,,,,''))!!!!!!!!!!!!!!!!!!!!!!!!!!!!!!!!);=@@@@@@@=;)!)!!!!!!!!!!!!!!!!!!!!!!!!!!!!!!!!!!!)%.+..                      ",
"     .+..%,,','))!!!!!!!!!!!!!!!!!!!!!!!!!!!!!!!!';@@@@@@@@#@@;'!!!!!!!!!!!!!!!!!!!!!!!!!!!!!!!!!!!!!*.....                     ",
"     .%..%',,,')))!!!!!!!!!!!!!!!!!!!!!!!!!!!!!!'=@@@@@@@@@@@##=,)!)!!!!!!!!!!!!!!!!!!!!!!!!!!!!!!!!!,.+...                     ",
"     .%..*,,,''))!!!!!!!!!!!!!!!!!!!!!!!!!!!!!!);@@@;;,;==@@@@@#;')!)!!!!!!!!!!!!!!!!!!!!!!!!!!!!!!!!).....                     ",
"     .%.%>,,,'')!!!!!!!!!!!!!!!!!!!!!!!!!!!!!!);@@@;';;;==@@@@@@#;)))!)!!!!!!!!!!!!!!!!!!!!!!!!!!!!!!)+....                     ",
"     .%.%,,','))!)!!!!!!!!!!!!!!!!!!!!!!!!!!!!!=@@='';=@@@@@@@@##=,)))!!!!!!!!!!!!!!!!!!!!!!!!!!!!!!!!+....                     ",
"     .%.%,',,'')!!!!!!!!!!!!!!!!!!!!!!!!!!!!!!,@@@;)=@@@@@@@@@@@##;''))!!!!!!!!!!!!!!!!!!!!!!!!!!!!!!)+....                     ",
"     .%.*,,,'')))!!!!!!!!!!!!!!!!!!!!!!!!!!!!!;@@@;;=@@@@@@@@@@@##;''))!)!!!!!!!!!!!!!!!!!!!!!!!!!!!!)%....                     ",
"     .*.%',,''))!!!!!!!!!!!!!!!!!!!!!!!!!!!!!);@@@;;@@@@@@@@@@@@@#=,''))!!!!!!!!!!!!!!!!!!!!!!!!!!!!!!+....                     ",
"     .*.%,','')!!!!!!!!!!!!!!!!!!!!!!!!!!!!!!!;@@@;=@@@@@@@@@@@@##=,,')))!!!!!!!!!!!!!!!!!!!!!!!!!!!!)%....                     ",
"     .-.%,,'''))!!!!!!!!!!!!!!!!!!!!!!!!!!!!!)=@@@==@@@@@@@@@@@@##&,,'')!!!!!!!!!!!!!!!!!!!!!!!!!!!!!)+....                     ",
"     .-.+>,,'')!!!!!!!!!!!!!!!!!!!!!!!!!!!!!!!;@@@@=@@@@@@@@@@@###=,,'')!)!!!!!!!!!!!!!!!!!!!!!!!!!!!!+%...                     ",
"     .*..*,''))))!!!!!!!!!!!!!!!!!!!!!!!!!!!!!,@@@@@@@@@@@@@@@@@##-,,,'))!!!!!!!!!!!!!!!!!!!!!!!!!!!!).*...                     ",
"     .%..%,,,')!!!!!!!!!!!!!!!!!!!!!!!!!!!!!!!)=@@@@@@@@@@@@@@####>,,''))!!!!!!!!!!!!!!!!!!!!!!!!!!!!).*...                     ",
"     ....%,'''))!!!!!!!!!!!!!!!!!!!!!!!!!!!!!!);@@@@@@@@@@@@@@###->,,,'))!!!!!!!!!!!!!!!!!!!!!!!!!!!!,.-...                     ",
"     ....%,,'')!!!!!!!!!!!!!!!!!!!!!!!!!!!!!!!!';@=@@=@@@@@@#@##=>>,,'')!)!!!!!!!!!!!!!!!!!!!!!!!!!!!*.-..                      ",
"     ..%.%,,,')))!!!!!!!!!!!!!!!!!!!!!!!!!!!!!!!,=@@@@@@@@@@####>>,,,''))!!!!!!!!!!!!!!!!!!!!!!!!!!!!%.-..                      ",
"     ..*..>','))!!!!!!!!!!!!!!!!!!!!!!!!!!!!!!!)),=##@#@######=>>,,,,''!)!!!!!!!!!!!!!!!!!!!!!!!!!!!!%.%..                      ",
"      .%..*,,''))!!!!!!!!!!!!!!!!!!!!!!!!!!!!!!!)),;=########*-,,,>,'')!)!!!!!!!!!!!!!!!!!!!!!!!!!!)).*...                      ",
"      ....%,,'')!!!!!!!!!!!!!!!!!!!!!!!!!!!!!!!!!!)',;-==#=-;>,>,,,'')))!!!!!!!!!!!!!!!!!!!!!!!!!!!!,.-...                      ",
"      ..%..>,''))!!!!!!!!!!!!!!!!!!!!!!!!!!!!!!!!)))'',>>,,,,,,,,,'''))!!!!!!!!!!!!!!!!!!!!!!!!!!!!)-.-...                      ",
"      ..%..*,''))!!!!!!!!!!!!!!!!!!!!!!!!!!!!!!!!!!))''',,,,,,,,,,')))!!!!!!!!!!!!!!!!!!!!!!!!!!!!!)%%%..                       ",
"      .....%,,')))!!!!!!!!!!!!!!!!!!!!!!!!!!!!!!!!!))))'',,,,,''')')!)!!!!!!!!!!!!!!!!!!!!!!!!!!!!),.-...                       ",
"       .....>,''))!!!!!!!!!!!!!!!!!!!!!!!!!!!!!!!!!!!))))')'''''')))!)!!!!!!!!!!!!!!!!!!!!!!!!!!!!!*.>...                       ",
"       ..+..*,''))!!!!!!!!!!!!!!!!!!!!!!!!!!!!!!!!!)!)!))))'))))))!)!!!!!!!!!!!!!!!!!!!!!!!!!!!!!!,+%%..                        ",
"       .....%,'')))!!!!!!!!!!!!!!!!!!!!!!!!!!!!!!!!!!!)!)!))))!))!!!!!!!!!!!!!!!!!!!!!!!!!!!!!!!!!*.-...                        ",
"        .....-,'')!!!!!!!!!!!!!!!!!!!!!!!!!!!!!!!!!!!!!!!!!)!)!!!!!!!!!!!!!!!!!!!!!!!!!!!!!!!!!!))*.-...                        ",
"        .....*,''))!!!!!!!!!!!!!!!!!!!!!!!!!!!!!!!!!!!!!!!!!!!!!!!!!!!!!!!!!!!!!!!!!!!!!!!!!!!!!!,.-...                         ",
"         ....+-,')))!!!!!!!!!!!!!!!!!!!!!!!!!!!!!!!!!!!!!!!!!!!!!!!!!!!!!!!!!!!!!!!!!!!!!!!!!!!!)*.-...                         ",
"         .....*,''))!!!!!!!!!!!!!!!!!!!!!!!!!!!!!!!!!!!!!!!!!!!!!!!!!!!!!!!!!!!!!!!!!!!!!!!!!!!),+-...                          ",
"         .....+-''))!!!!!!!!!!!!!!!!!!!!!!!!!!!!!!!!!!!!!!!!!!!!!!!!!!!!!!!!!!!!!!!!!!!!!!!!!!!'*.>...                          ",
"          .....%>'')!)!!!!!!!!!!!!!!!!!!!!!!!!!!!!!!!!!!!!!!!!!!!!!!!!!!!!!!!!!!!!!!!!!!!!!!!!!*.-...                           ",
"          ...+..*,)))!!!!!!!!!!!!!!!!!!!!!!!!!!!!!!!!!!!!!!!!!!!!!!!!!!!!!!!!!!!!!!!!!!!!!!!!),%.-...                           ",
"           .....+-''))!!!!!!!!!!!!!!!!!!!!!!!!!!!!!!!!!!!!!!!!!!!!!!!!!!!!!!!!!!!!!!!!!!!!!!!!*.>...                            ",
"            .....%,')))!!!!!!!!!!!!!!!!!!!!!!!!!!!!!!!!!!!!!!!!!!!!!!!!!!!!!!!!!!!!!!!!!!!!!!,+**...                            ",
"            ......*,')!!!!!!!!!!!!!!!!!!!!!!!!!!!!!!!!!!!!!!!!!!!!!!!!!!!!!!!!!!!!!!!!!!!!!)'*.-...                             ",
"             .....+>''))!!!!!!!!!!!!!!!!!!!!!!!!!!!!!!!!!!!!!!!!!!!!!!!!!!!!!!!!!!!!!!!!!!!)%.>....                             ",
"              .....%,')))!!!!!!!!!!!!!!!!!!!!!!!!!!!!!!!!!!!!!!!!!!!!!!!!!!!!!!!!!!!!!!!!!!*.-%...                              ",
"              ......%,')!)!!!!!!!!!!!!!!!!!!!!!!!!!!!!!!!!!!!!!!!!!!!!!!!!!!!!!!!!!!!!!!!),+%-...                               ",
"               ......%,')!)!!!!!!!!!!!!!!!!!!!!!!!!!!!!!!!!!!!!!!!!!!!!!!!!!!!!!!!!!!!!!!'*.>...                                ",
"                ......%,')!!!!!!!!!!!!!!!!!!!!!!!!!!!!!!!!!!!!!!!!!!!!!!!!!!!!!!!!!!!!!!'*.>....                                ",
"                 ......%,))!)!!!!!!!!!!!!!!!!!!!!!!!!!!!!!!!!!!!!!!!!!!!!!!!!!!!!!!!!!!'*.-%...                                 ",
"                 .......%,')!!!!!!!!!!!!!!!!!!!!!!!!!!!!!!!!!!!!!!!!!!!!!!!!!!!!!!!!!!'*.%-...                                  ",
"                  .......%,)))!!!!!!!!!!!!!!!!!!!!!!!!!!!!!!!!!!!!!!!!!!!!!!!!!!!!!)!>*..-...                                   ",
"                   .......%,)))!)!!!!!!!!!!!!!!!!!!!!!!!!!!!!!!!!!!!!!!!!!!!!!!!!!!'-+..--..       $$                           ",
"                    .......%>)))!!!!!!!!!!!!!!!!!!!!!!!!!!!!!!!!!!!!!!!!!!!!!!!!!!>*..->*....     $$$$                          ",
"                     .......+*,))!!!!!!!!!!!!!!!!!!!!!!!!!!!!!!!!!!!!!!!!!!!!!!)'*%.*>%.......   &&$$$                          ",
"                       .......+*,!)!!!!!!!!!!!!!!!!!!!!!!!!!!!!!!!!!!!!!!!!!!!),*..>*..........$&>$$$$$$                        ",
"                        ....+...%>))!!!!!!!!!!!!!!!!!!!!!!!!!!!!!!!!!!!!!!!!),*%.--..... ...%.+&>$$++$$$$                       ",
"                         ........%*,))!!!!!!!!!!!!!!!!!!!!!!!!!!!!!!!!!!!!),*%.%>.....    ..+-&>$$$+&$$$$                       ",
"                          .........+*>'!)!!!!!!!!!!!!!!!!!!!!!!!!!!!!!!!),*%..>*.....      .+&>$$$+&>$$$$$$                     ",
"                            .........%%*,)!!!!!!!!!!!!!!!!!!!!!!!!!!!)),*%.+--......       +&,$$&$&>$$++$$$$                    ",
"                             ...........+*>')!)!!!!!!!!!!!!!!!!!!!)),**+.%>*......         &>$$&%&>$$$+$&$$$                    ",
"                               ...........%+**,))!)!!!!!!!!)!)!',**+%..->%......          &>$$$&&>$$++&>$$+$$$                  ",
"                                 .............++%**,')!)!)),***+%..+*-*.......           $>$$$%&>$$$$$>$$$+$$$$                 ",
"                                   .........%......%%*%*%*+%...%*-*%........            $$$$$+&,$$$+&>$$++&$$$$                 ",
"                                      .................+%*----*...........             $$$$$+$>$$$+$>&$$+$>$$$+$$               ",
"                                         ..............................                 $$$$$>$$$+&>$$$+&>$$++$$$$              ",
"                                            .......................                      $ $$$$$+$>&$$.&>$$$+$&$$$              ",
"                                                  .........                               $$$$++&>$$++&>$$++&>$$+$$$            ",
"                                                                                           $$$$$>$$$+$>$$$+&>$$$+$$$$           ",
"                                                                                            $$$$$$+$&,$$+$&>$$++&$$$$           ",
"                                                                                             $$$$$+$>$$$+$>$$$+$>$$$+$$         ",
"                                                                                              $$$$$>$$$+&,$$$+&>$$++$$$$        ",
"                                                                                               $+$$$$$+$>$$$+$>&$$+$&$$$        ",
"                                                                                                $$$$$+&>$$$+&>$$$+&>$$$         ",
"                                                                                                 $$$+$>$$$+&>$$$+$>$$+..        ",
"                                                                                                  $$$$$$$+&>$$++&>$$$...        ",
"                                                                                                   $$$$$+$>$$$+&>$$$....        ",
"                                                                                                    $$+$$>$$$+$,$$+....         ",
"                                                                                                     $$$$$$$+$>$$$....          ",
"                                                                                                      $$$$$+&,$$$....           ",
"                                                                                                       $$$+$-$$$....            ",
"                                                                                                        $$$$$$+....             ",
"                                                                                                         $$$$$+...              ",
"                                                                                                          $$$....               ",
"                                                                                                           $  ..                ",
"                                                                                                                                ",
"                                                                                                                                ",
"                                                                                                                                ",
"                                                                                                                                ",
"                                                                                                                                ",
"                                                                                                                                ",
"                                                                                                                                "};
