/* XPM */
char * zoomout_xpm[] = {
"128 128 17 1",
" 	c None",
".	c #000000",
"+	c #730000",
"@	c #1E1B13",
"#	c #372911",
"$	c #2D2E2B",
"%	c #902D27",
"&	c #47453D",
"*	c #885452",
"=	c #656764",
"-	c #8E8A82",
";	c #B0B2AF",
">	c #BCBEBB",
",	c #CFD1CE",
"'	c #DDDFDC",
")	c #EEF1ED",
"!	c #FDFFFC",
"                                                                                                                                ",
"                                                    .......                                                                     ",
"                                             ......................                                                             ",
"                                         .......$$$$$@@$$&=&=$.........                                                         ",
"                                      .....&==$.................@$$......                                                       ",
"                                   ....@==$........@@$$$$$@@........$$......                                                    ",
"                                 ....&=$......@$$$&-;>>>>>;-&$$$@@.....@$.....                                                  ",
"                               ....==.....@$$&-;>>>;>>>>>>;>>>;;;-$$@.....@.....                                                ",
"                              ...==....@$&-;>>>>;;;>>>>>>>>>>>>>;;>;-&$@....@.....                                              ",
"                            ...==....@&-;>>>;;;;>>>;>>>>>,,,>,,>>,;;;;;=&@.........                                             ",
"                          ...&-....@&->>>>;;>>>>>>,>,,,,,,,'',,',,,,>>>>;-$@.........                                           ",
"                         ...-$...@&->>>>;;>>>>>>,,,,'''')'))'')'',',,',>,>;-&@........                                          ",
"                        ..=-....$->>>;;>;>>>,,,,''')'))))!)!!'))!'))''',,,>>;-$$........                                        ",
"                       ..=&...@&;>>;;;>;,>,,,,)')')'!'!))!!!!!!))!!))'))''',,>;-$@.......                                       ",
"                      ..-...@&->>;>;>>>>,,''!'))!!!!!!!!!!!!!!!!)!!!!!))')''',,>>=$.......                                      ",
"                    ...-...$-,>>>;;>>>,,'')')!!)!!!!!!!!!!!!!!!!!!!!!!!!!))))''',>;$.......                                     ",
"                   ..@-...$;>>>;;>>>,,,')'!!!!!!!!!!!!!!!!!!!!!!!!!!!!!!!!)))')'',>;&.......                                    ",
"                  ..$-...$;,>>;>>>>,''))!!!!!!!!!!!!!!!!!!!!!!!!!!!!!!!!!!!!!!)))'''>-$......                                   ",
"                  .@-...$;>>;;;>>,,''')!'!!!!!!!!!!!!!!!!!!!!!!!!!!!!!!!!!!!!!!)!))'',;$......                                  ",
"                 ..=...$;>>;;>>>,''))!!!!!!!!!!!!!!!!!!!!!!!!!!!!!!!!!!!!!!!!!!!))))',,;$......                                 ",
"                ..-...$;>>;>>>,''')!'!!!!!!!!!!!!!!!!!!!!!!!!!!!!!!!!!!!!!!!!!!!!!!!))',;$......                                ",
"               ..-...$;>>;;>;,,''!)!!!!!!!!!!!!!!!!!!!!!!!!!!!!!!!!!!!!!!!!!!!!!!!!)!)')';$.....                                ",
"              ..=$..$;>>;>>>,,')!'!!!!!!!!!!!!!!!!!!!!!!!!!!!!!!!!!!!!!!!!!!!!!!!!!!!!))''-@.....                               ",
"              .$=..$;,>;;;>,,'')!!!!!!!!!!!!!!!!!!!!!!!!!!!!!!!!!!!!!!!!!!!!!!!!!!!!!!!)!',&......                              ",
"             ..-..@->>;>>>,,'!!!!!!!!!!!!!!!!!!!!!!!!!!!!!!!!!!!!!!!!!!!!!!!!!!!!!!!!!!!!))>$......                             ",
"            ..=...&>>;>;;,,'!'!!!!!!!!!!!!!!!!!!!!!!!!!!!!!!!!!!!!!!!!!!!!!!!!!!!!!!!!!!!!))>$.....                             ",
"            .$=..$;>>;;,,,''!!!!!!!!!!!!!!!!!!!!!!!!!!!!!!!!!!!!!!!!!!!!!!!!!!!!!!!!!!!!!)!))-@.....                            ",
"           ..-..@-,;;;>>,''!!!!!!!!!!!!!!!!!!!!!!!!!!!!!!!!!!!!!!!!!!!!!!!!!!!!!!!!!!!!!!!!!''&.....                            ",
"          ..=...&>>;>>>''!!!!!!!!!!!!!!!!!!!!!!!!!!!!!!!!!!!!!!!!!!!!!!!!!!!!!!!!!!!!!!!!!!!!)-$.....                           ",
"          ..=..$;>;>;>,,'!'!!!!!!!!!!!!!!!!!!!!!!!!!!!!!!!!!!!!!!!!!!!!!!!!!!!!!!!!!!!!!!!!!!))&......                          ",
"         ..=..@-;>;;>,,''!!!!!!!!!!!!!!!!!!!!!!!!!!!!!!!!!!!!!!!!!!!!!!!!!!!!!!!!!!!!!!!!!!!!)'>$.....                          ",
"         ..=..&>>;>>>'''!!!!!!!!!!!!!!!!!!!!!!!!!!!!!!!!!!!!!!!!!!!!!!!!!!!!!!!!!!!!!!!!!!!!!!!!-......                         ",
"         .&..@->>;;>,''!!!!!!!!!!!!!!!!!!!!!!!!!!!!!!!!!!!!!!!!!!!!!!!!!!!!!!!!!!!!!!!!!!!!!!!!))&.....                         ",
"        ..=..&>>;>>,,)))!!!!!!!!!!!!!!!!!!!!!!!!!!!!!!!!!!!!!!!!!!!!!!!!!!!!!!!!!!!!!!!!!!!!!!!!';.....                         ",
"        .$$.@->>;>>,''!!!!!!!!!!!!!!!!!!!!!!!!!!!!!!!!!!!!!!!!!!!!!!!!!!!!!!!!!!!!!!!!!!!!!!!!!!),$.....                        ",
"       ..=..$;>;;>,''!!)!!!!!!!!!!!!!!!!!!!!!!!!!!!!!!!!!!!!!!!!!!!!!!!!!!!!!!!!!!!!!!!!!!!!!!!!!)=.....                        ",
"       ..=..&>>>>>'''!!!!!!!!!!!!!!!!!!!!!!!!!!!!!!!!!!!!!!!!!!!!!!!!!!!!!!!!!!!!!!!!!!!!!!!!!!!));@....                        ",
"       .$..@->;;;,''!!!!!!!!!!!!!!!!!!!!!!!!!!!!!!!!!!!!!!!!!!!!!!!!!!!!!!!!!!!!!!!!!!!!!!!!!!!!!!)&.....                       ",
"      ..=..&>>>>>'''!!!!!!!!!!!!!!!!!!!!!!!!!!!!!!!!!!!!!!!!!!!!!!!!!!!!!!!!!!!!!!!!!!!!!!!!!!!!!!!-.....                       ",
"      ..&.@->>;>>''!!!!!!!!!!!!!!!!!!!!!!!!!!!!!!!!!!!!!!!!!!!!!!!!!!!!!!!!!!!!!!!!!!!!!!!!!!!!!!!!'$....                       ",
"      .$..@;>;>>,''!!!!!!!!!!!!!!!!!!!!!!!!!!!!!!!!!!!!!!!!!!!!!!!!!!!!!!!!!!!!!!!!!!!!!!!!!!!!!!!!)&.@...                      ",
"      .&..$>;>>>,'!!)!!!!!!!!!!!!!!!!!!!!!!!!!!!!!!!!!!!!!!!!!!!!!!!!!!!!!!!!!!!!!!!!!!!!!!!!!!!!!!!;.....                      ",
"      .=..&>>;>,''!!!!!!!!!!!!!!!!!!!!!!!!!!!!!!!!!!!!!!!!!!!!!!!!!!!!!!!!!!!!!!!!!!!!!!!!!!!!!!!!!),.....                      ",
"     ..&.@->;>>''''!!!!!!!!!!!!!!!!!!!!!!!!!!!!!!!!!!!!!!!!!!!!!!!!!!!!!!!!!!!!!!!!!!!!!!!!!!!!!!!!!)$....                      ",
"     ....@;>>>>''!!!!!!!!!!!!!!!!!!!!!!!!!!!!!!!!!!!!!!!!!!!!!!!!!!!!!!!!!!!!!!!!!!!!!!!!!!!!!!!!!!!!$.@..                      ",
"     .@..$>;>>,'))!!!!!!!!!!!!!!!!!!!!!!!!!!!!!!!!!!!!!!!!!!!!!!!!!!!!!!!!!!!!!!!!!!!!!!!!!!!!!!!!!!!&.....                     ",
"     .$..$>;>>,''!!!!!!!!!!!!!!!!!!!!!!!!!!!!!!!!!!!!!!!!!!!!!!!!!!!!!!!!!!!!!!!!!!!!!!!!!!!!!!!!!!!!;.@...                     ",
"     .$..*>>>>,'!)!!!!!!!!!!!!!!!!!!!!!!!!!!!!!!!!!!!!!!!!!!!!!!!!!!!!!!!!!!!!!!!!!!!!!!!!!!!!!!!!!!!'.....                     ",
"     .$.@-;;>>'')!!!!!!!!!!!!!!!!!!!!!!!!!!!!!!!!!!!!!!!!!!!!!!!!!!!!!!!!!!!!!!!!!!!!!!!!!!!!!!!!!!!!)@....                     ",
"     .$.@;>>>,,!'!!!!!!!!!!!!!!!!!!!!!!!!!!!!!!!!!!!!!!!!!!!!!!!!!!!!!!!!!!!!!!!!!!!!!!!!!!!!!!!!!!!!)@....                     ",
"     .$.$>>>>,,'!!!!!!!!!!!!!!!!!!!%%+++++++++++++++++++++++++++++++++++++++*!!!!!!!!!!!!!!!!!!!!!!!!)@....                     ",
"     .$.$>>;,,'))!!!!!!!!!!!!!!!!!!%++++%++%++%+++%+++%++%++++%+++%++%++++++%))))!!!!!!!!!!!!!!!!!!!!!@....                     ",
"     .&.$>>>>,')!!!!!!!!!!!!!!!!!!!%+%,>%*%*%*%**%*%*%*%*%**%*%**%*%*%*%%+++%')))!!)!!!!!!!!!!!!!!!!!)$....                     ",
"     .*.$>>>,,)))!!!!!!!!!!!!!!!!!!%+++%%%%%%%%+%%%%%%%%%%%%%%%%%%%%%%%+++++%''')))!!!!!!!!!!!!!!!!!!)$....                     ",
"     .=.@;>>>'))!!!!!!!!!!!!!!!!!!!%+++++++++++++++++++++++++++++++++++++++++>,,')))!!!!!!!!!!!!!!!!!)@....                     ",
"     .=.$*>>,'')!!!!!!!!!!!!!!!!!!!;************************************&**=*>>,'''!!!!!!!!!!!!!!!!!!!@@...                     ",
"     .&..&,;>')!)!!!!!!!!!!!!!!!!!!!!!!'>>>;;>;>;;;;;;;;;;;;;;;;;;;;;;;;;;;;;>>>,'))!!!!!!!!!!!!!!!!!).$...                     ",
"     .$..$;>,'')!!!!!!!!!!!!!!!!!!!!))',,>>;>;;;>>;>;>;>;>;>;>;>;>;>;;;>;;;;>>>,'')!!!!!!!!!!!!!!!!!!'.=...                     ",
"     ....$>>>,'!!!!!!!!!!!!!!!!!!!!!))),,,>>>,>>;,;>>>>>>>>>>>>>>>>>>,>>>>>>>>,,,)'!!!!!!!!!!!!!!!!!!;.=...                     ",
"     ..@.$;>>''))!!!!!!!!!!!!!!!!!!!!)')',,>,,,,,,,,,,,,,,,,,,,,,,,>,,,,,,,>,,,'')!)!!!!!!!!!!!!!!!!)=.=..                      ",
"     ..$.@;>>,'))!!!!!!!!!!!!!!!!!!!!!'))''''''''''''''''''''''''''''','''''''''))!!!!!!!!!!!!!!!!!!)$.=..                      ",
"     ..$.@->>,,'!!!!!!!!!!!!!!!!!!!!!!!)!))))'))')))')')')))')')))))')'!'!))!)!)))!!!!!!!!!!!!!!!!!!!$.@..                      ",
"      .$..$>>,')))!!!!!!!!!!!!!!!!!!!!!)!))!!!)!)!)!)!)!))!!)!!)!))!!!)!)!'!'!!!!!!!!!!!!!!!!!!!!!!!'.&...                      ",
"      ....$;>>''!!!!!!!!!!!!!!!!!!!!!!!!!!!!!!!)!!!!!!!!!!!!!!!!!)!!!!!!!!!!!!!!!!!!!!!!!!!!!!!!!!!!;.=...                      ",
"      ..$.@-;>,'!)!!!!!!!!!!!!!!!!!!!!!!!!!!!!!!!!!!!!!!!!!!!!!!!!!!!!!!!!!!!!!!!!!!!!!!!!!!!!!!!!!!&.=...                      ",
"      ..$..&;,,'))!!!!!!!!!!!!!!!!!!!!!!!!!!!!!!!!!!!!!!!!!!!!!!!!!!!!!!!!!!!!!!!!!!!!!!!!!!!!!!!!!)$$$..                       ",
"      .....$;>,'))!!!!!!!!!!!!!!!!!!!!!!!!!!!!!!!!!!!!!!!!!!!!!!!!!!!!!!!!!!!!!!!!!!!!!!!!!!!!!!!!!;.=...                       ",
"       .....->>''!!!!!!!!!!!!!!!!!!!!!!!!!!!!!!!!!!!!!!!!!!!!!!!!!!!!!!!!!!!!!!!!!!!!!!!!!!!!!!!!!)&.-...                       ",
"       ..@..$>,,')!!!!!!!!!!!!!!!!!!!!!!!!!!!!!!!!!!!!!!!!!!!!!!!!!!!!!!!!!!!!!!!!!!!!!!!!!!!!!!!);@$$..                        ",
"       .....$;>,,))!!!!!!!!!!!!!!!!!!!!!!!!!!!!!!!!!!!!!!!!!!!!!!!!!!!!!!!!!!!!!!!!!!!!!!!!!!!!!!!=.=...                        ",
"        ....@=>,,)'!!!!!!!!!!!!!!!!!!!!!!!!!!!!!!!!!!!!!!!!!!!!!!!!!!!!!!!!!!!!!!!!!!!!!!!!!!!!!!'$.=...                        ",
"        .....&;>''))!!!!!!!!!!!!!!!!!!!!!!!!!!!!!!!!!!!!!!!!!!!!!!!!!!!!!!!!!!!!!!!!!!!!!!!!!!!!!;@=...                         ",
"         ....@-;,'))!!!!!!!!!!!!!!!!!!!!!!!!!!!!!!!!!!!!!!!!!!!!!!!!!!!!!!!!!!!!!!!!!!!!!!!!!!!!'&.=...                         ",
"         .....&;>,)))!!!!!!!!!!!!!!!!!!!!!!!!!!!!!!!!!!!!!!!!!!!!!!!!!!!!!!!!!!!!!!!!!!!!!!!!!!!;.=...                          ",
"         .....@=,,'))!!!!!!!!!!!!!!!!!!!!!!!!!!!!!!!!!!!!!!!!!!!!!!!!!!!!!!!!!!!!!!!!!!!!!!!!!!,&.-...                          ",
"          .....$-,''!!!!!!!!!!!!!!!!!!!!!!!!!!!!!!!!!!!!!!!!!!!!!!!!!!!!!!!!!!!!!!!!!!!!!!!!!!!&.=...                           ",
"          ...$..&>,'))!!!!!!!!!!!!!!!!!!!!!!!!!!!!!!!!!!!!!!!!!!!!!!!!!!!!!!!!!!!!!!!!!!!!!!!!;@.-...                           ",
"           ......->')))!!!!!!!!!!!!!!!!!!!!!!!!!!!!!!!!!!!!!!!!!!!!!!!!!!!!!!!!!!!!!!!!!!!!!!!&.-...                            ",
"            .....$;,,))!!!!!!!!!!!!!!!!!!!!!!!!!!!!!!!!!!!!!!!!!!!!!!!!!!!!!!!!!!!!!!!!!!!!!!;@&$...                            ",
"            ......&>''))!!!!!!!!!!!!!!!!!!!!!!!!!!!!!!!!!!!!!!!!!!!!!!!!!!!!!!!!!!!!!!!!!!!!,$.-...                             ",
"             .....@-,,))!!!!!!!!!!!!!!!!!!!!!!!!!!!!!!!!!!!!!!!!!!!!!!!!!!!!!!!!!!!!!!!!!!)'&.-....                             ",
"              .....$;,'))!!!!!!!!!!!!!!!!!!!!!!!!!!!!!!!!!!!!!!!!!!!!!!!!!!!!!!!!!!!!!!!!!!&.=$...                              ",
"              ......$;,'))!!!!!!!!!!!!!!!!!!!!!!!!!!!!!!!!!!!!!!!!!!!!!!!!!!!!!!!!!!!!!!!!;@$=...                               ",
"               ......$;'')!)!!!!!!!!!!!!!!!!!!!!!!!!!!!!!!!!!!!!!!!!!!!!!!!!!!!!!!!!!!!!!,$.-...                                ",
"                ......$;')!)!!!!!!!!!!!!!!!!!!!!!!!!!!!!!!!!!!!!!!!!!!!!!!!!!!!!!!!!!!!!,&.-....                                ",
"                 ......$;''!)!!!!!!!!!!!!!!!!!!!!!!!!!!!!!!!!!!!!!!!!!!!!!!!!!!!!!!!!!!,&.=$...                                 ",
"                 .......$;'))!!!!!!!!!!!!!!!!!!!!!!!!!!!!!!!!!!!!!!!!!!!!!!!!!!!!!!!!!,$.@=...                                  ",
"                  .......$;')))!!!!!!!!!!!!!!!!!!!!!!!!!!!!!!!!!!!!!!!!!!!!!!!!!!!!!);&..=...                                   ",
"                   .......$;'))!!!!!!!!!!!!!!!!!!!!!!!!!!!!!!!!!!!!!!!!!!!!!!!!!!!),&@..-&..       ##                           ",
"                    .......$-,)))!!!!!!!!!!!!!!!!!!!!!!!!!!!!!!!!!!!!!!!!!!!!!!!!);&..===....     ####                          ",
"                     .......@&;,)!!!!!!!!!!!!!!!!!!!!!!!!!!!!!!!!!!!!!!!!!!!!!!!,&@.=-$.......   #####                          ",
"                       .......@&>)))!!!!!!!!!!!!!!!!!!!!!!!!!!!!!!!!!!!!!!!!!!';&..-$..........#&;######                        ",
"                        ....@...$-)))!!!!!!!!!!!!!!!!!!!!!!!!!!!!!!!!!!!!!!!);&$.==..... ...$.@#-###@####                       ",
"                         ........$&-))))!!!!!!!!!!!!!!!!!!!!!!!!!!!!!!!!!!);&$.$-.....    ..@=#;##@@#####                       ",
"                          .........$&-'))!!!!!!!!!!!!!!!!!!!!!!!!!!!!!!!);&$..-&.....      .@&-###@#-######                     ",
"                            .........@$&;)))!!!!!!!!!!!!!!!!!!!!!!!!!)';&$.@==......       ##;###&#;##@@####                    ",
"                             ...........@&-')))!!!!!!!!!!!!!!!!!!!)';&&@.$-=......         &-###&#;###@#####                    ",
"                               ...........@$$&;')))!!!!!!!!!)))';&&@$..&-$......          #;###&#-###@#-##@###                  ",
"                                 .............$.&$=;,)))))';&&$$@..@&=&.......           #-###&#;###@#;###@####                 ",
"                                   .........$......@$$$&&$@$...$===$........            ####@##-##@@#-##@@#####                 ",
"                                      .................@$=====&...........             #####@#;###@#;###@#-######               ",
"                                         ..............................                 #####-##@##-###@#;##@@####              ",
"                                            .......................                      # #####@#;###@#;###@#####              ",
"                                                  .........                               ####@##;##@@#-###@&-##@###            ",
"                                                                                           #####-###@#;##@@#-###@####           ",
"                                                                                            #########-#####;##@@#####           ",
"                                                                                             #####.#;##@@#-###@#-######         ",
"                                                                                              #####-###@#;###@#;##@@####        ",
"                                                                                               #@#####@#;###@#;###@#####        ",
"                                                                                                #####@#-##@@#-###@#-###         ",
"                                                                                                 #####-###@#;##@@#;##@..        ",
"                                                                                                  ######@##-####&-###...        ",
"                                                                                                   #####@#;###.#-###....        ",
"                                                                                                    #####-###@#;##@....         ",
"                                                                                                     #@#####@#;###....          ",
"                                                                                                      #####@#-###....           ",
"                                                                                                       ###@#-###....            ",
"                                                                                                        ######@....             ",
"                                                                                                         #####....              ",
"                                                                                                          ###....               ",
"                                                                                                           #  ..                ",
"                                                                                                                                ",
"                                                                                                                                ",
"                                                                                                                                ",
"                                                                                                                                ",
"                                                                                                                                ",
"                                                                                                                                ",
"                                                                                                                                "};
