/* XPM */
char * zoom_xpm[] = {
"128 128 17 1",
" 	c None",
".	c #000000",
"+	c #1A1915",
"@	c #252219",
"#	c #372911",
"$	c #3A3C39",
"%	c #483E27",
"&	c #535552",
"*	c #72736F",
"=	c #938F87",
"-	c #A1A3A0",
";	c #AAACA9",
">	c #B7B9B6",
",	c #C4C6C3",
"'	c #D6D9D5",
")	c #E6E8E5",
"!	c #FDFFFC",
"                                                                                                                                ",
"                                                    .......                                                                     ",
"                                             ......................                                                             ",
"                                         .......$$$@++++$$&&&$.........                                                         ",
"                                      .....$&&$.................+$+......                                                       ",
"                                   ....+&*$........++$$$$$++........@$......                                                    ",
"                                 ....&&$......++$$$-;>>;>>;=$$$$++.....@+.....                                                  ",
"                               ....&*.....++$$=;;>>>>>>>>,>>>;;>;*$$+.....@.....                                                ",
"                              ...*&....+$&=>>,>>>>>>>>>>>>,,,>>>>,>-*&$+....+.....                                              ",
"                            ...&*....+$=>>>>>>>>>>>>>,,,,,,,,,,,,>,>>>-*$+.........                                             ",
"                          ...$=....+&=,>;>>>;>>,>,,,,,''''')'''',,,,,,>>>*$+.........                                           ",
"                         ..+=$...@$=>>>>>>>>,>,,,,''')')))))))')))''',',,,>=$+........                                          ",
"                        ..&*....$=>>>>>>>>,,,,')'))))))))!!)!))))))))))'',,>>=$+........                                        ",
"                       ..*$...+$->>>>;>>>,,'')')))))!)!)!!)!!!!!!)!)))))))'',,>*$+.......                                       ",
"                      ..*...+&=,>>>>>>>,,'')))))!))!!!!!!!!!!!!!!!!!)!))))))'',,>*$.......                                      ",
"                    ..+=...$*,,>>>;>>,,')'))!)!!!!!!!!!!!!!!!!!!!!!!!!!!!!)))))',>-$.......                                     ",
"                   ..+*...$>,>>>>>>,,'')))!)!!!!!!!!!!!!!!!!!!!!!!!!!!!!!!)!))))'',-$+......                                    ",
"                  ..+=...$;,>>>>>>,'')))!)!!!!!!!!!!!!!!!!!!!!!!!!!!!!!!!!!!!!))))'',*$......                                   ",
"                  .+*...$;,>>>;>,,'')))!)!!!!!!!!!!!!!!!!!!!!!!!!!!!!!!!!!!!!!!)))))),-$......                                  ",
"                 ..=...$-,>>>>>,''))!)!!!!!!!!!!!!!!!!!!!!!!!!!!!!!!!!!!!!!!!!!!!)!))''-$......                                 ",
"                ..*...$-,>>;>>,'))))!!!!!!!!!!!!!!!!!!!!!!!!!!!!!!!!!!!!!!!!!!!!!!!)!)),;$......                                ",
"               ..=...$;>>;>>,,'))!)!!!!!!!!!!!!!!!!!!!!!!!!!!!!!!!!!!!!!!!!!!!!!!!!)!)))'-$.....                                ",
"              ..*+..$;,>>>>>,')))!!!!!!!!!!!!!!!!!!!!!!!!!!!!!!!!!!!!!!!!!!!!!!!!!!!!!)!)'*+.....                               ",
"              .$*..$;,>>>>,,'')!)!!!!!!!!!!!!!!!!!!!!!!!!!!!!!!!!!!!!!!!!!!!!!!!!!!!!!!)!)'&......                              ",
"             ..*..+=>>>;>,,')))!!!!!!!!!!!!!!!!!!!!!!!!!!!!!!!!!!!!!!!!!!!!!!!!!!!!!!!!!))),$......                             ",
"            ..*...$,>>>>,,'))!!!!!!!!!!!!!!!!!!!!!!!!!!!!!!!!!!!!!!!!!!!!!!!!!!!!!!!!!!!!!))>$.....                             ",
"            .$&..$;,>>>>,'))))!!!!!!!!!!!!!!!!!!!!!!!!!!!!!!!!!!!!!!!!!!!!!!!!!!!!!!!!!!!!!))=+.....                            ",
"           ..*..+=>>;>>,,))!!!!!!!!!!!!!!!!!!!!!!!!!!!!!!!!!!!!!!!!!!!!!!!!!!!!!!!!!!!!!!!!!)'$.....                            ",
"          ..&...$,>>>>,''))!!!!!!!!!!!!!!!!!!!!!!!!!!!!!!!!!!!!!!!!!!!!!!!!!!!!!!!!!!!!!!!!!!)-+.....                           ",
"          ..*..$;>>;>,,'))!)!!!!!!!!!!!!!!!!!!!!!!!!!!!!!!!!!!!!!!!!!!!!!!!!!!!!!!!!!!!!!!!!!!)$......                          ",
"         ..*..+=,>>>>,')!)!!!!!!!!!!!!!!!!!!!!!!!!!!!!!!!!!!!!!!!!!!!!!!!!!!!!!!!!!!!!!!!!!!!!),$.....                          ",
"         ..*..$>>>>>,')))!!!!!!!!!!!!!!!!!!!!!!!!!!!!!!!!!!!!!!!!!!!!!!!!!!!!!!!!!!!!!!!!!!!!!!)=+.....                         ",
"         .&..+->>>;,,')!!!!!!!!!!!!!!!!!!!!!!!!!!!!!!!!!!!!!!!!!!!!!!!!!!!!!!!!!!!!!!!!!!!!!!!!))$.....                         ",
"        ..*..$,>>>>,')))!!!!!!!!!!!!!!!!!!!!!!!!!!!!!!!!!!!!!!!!!!!!!!!!!!!!!!!!!!!!!!!!!!!!!!!!)-+....                         ",
"        .$+.+=>>;>,,))!!!!!!!!!!!!!!!!!!!!!!!!!!!!!!!!!!!!!!!!!!!!!!!!!!!!!!!!!!!!!!!!!!!!!!!!!!)'$.....                        ",
"       ..*..$;>>>,,')!!!!!!!!!!!!!!!!!!!!!!!!!!!!!!!!!!!!!!!!!!!!!!!!!!!!!!!!!!!!!!!!!!!!!!!!!!!!)&.....                        ",
"       ..&..$,>>>,')))!!!!!!!!!!!!!!!!!!!!!!!!!!!!!!!!!!!!!!!!!!!!!!!!!!!!!!!!!!!!!!!!!!!!!!!!!!!);+....                        ",
"       .$..+=>>>>,'))!!!!!!!!!!!!!!!!!!!!!!!!!!!!!!!!!!!!!!!!!!!!!!!!!!!!!!!!!!!!!!!!!!!!!!!!!!!!!)&.....                       ",
"      ..*..$>>>>,'))!!!!!!!!!!!!!!!!!!!!!!!!!!!!!!!!!!!!!!!!!!!!!!!!!!!!!!!!!!!!!!!!!!!!!!!!!!!!!))-.....                       ",
"      ..&.+=>>>>,'))!!!!!!!!!!!!!!!!!!!!!!!!!!!!!!!!!!!!!!!!!!!!!!!!!!!!!!!!!!!!!!!!!!!!!!!!!!!!!!)'$....                       ",
"      .+..+>>>>>,)))!!!!!!!!!!!!!!!!!!!!!!!!!!!!!!!!!!!!!!!!!!!!!!!!!!!!!!!!!!!!!!!!!!!!!!!!!!!!!!!)&.+...                      ",
"      .&..$>>>>,,)!!!!!!!!!!!!!!!!!!!!!!!!!!!!!!!!!!!!!!!!!!!!!!!!!!!!!!!!!!!!!!!!!!!!!!!!!!!!!!!!!)-.....                      ",
"      .&..$>>>>''))!!!!!!!!!!!!!!!!!!!!!!!!!!!!!!!!!!!!!!!!!!!!!!!!!!!!!!!!!!!!!!!!!!!!!!!!!!!!!!!!!'.....                      ",
"     ..$.+=>>>,')))!!!!!!!!!!!!!!!!!!!!!!!!!!!!!!!!!!!!!!!!!!!!!!!!!!!!!!!!!!!!!!!!!!!!!!!!!!!!!!!!!!@....                      ",
"     ..+.+>>>>,'))!!!!!!!!!!!!!!!!!!!!!!!!!!!!!!!!!!!!!!!!!!!!!!!!!!!!!!!!!!!!!!!!!!!!!!!!!!!!!!!!!!!$.+..                      ",
"     .+..$>,>>,')!!!!!!!!!!!!!!!!!!!!!!!!!!!!!!!!!!!!!!!!!!!!!!!!!!!!!!!!!!!!!!!!!!!!!!!!!!!!!!!!!!!)&.+...                     ",
"     .$..$;>,,,)))!!!!!!!!!!!!!!!!!!!!!!!!!!!!!!!!!!!!!!!!!!!!!!!!!!!!!!!!!!!!!!!!!!!!!!!!!!!!!!!!!!!-.....                     ",
"     .$..$>>>,')!!!!!!!!!!!!!!!!!!!!!!!!!!!!!!!!!!!!!!!!!!!!!!!!!!!!!!!!!!!!!!!!!!!!!!!!!!!!!!!!!!!!!).....                     ",
"     .$.+=>>>,'))!!!!!!!!!!!!!!!!!!!!!!!!!!!!!!!!!!!!!!!!!!!!!!!!!!!!!!!!!!!!!!!!!!!!!!!!!!!!!!!!!!!!)+....                     ",
"     .$.+;>>>,')!)!!!!!!!!!!!!!!!!!!!!!!!!!!!!!!!!!!!!!!!!!!!!!!!!!!!!!!!!!!!!!!!!!!!!!!!!!!!!!!!!!!!!+....                     ",
"     .+.$>>,,,')!!!!!!!!!!!!!!!!!!!!!!!!!!!!!!!!!!!!!!!!!!!!!!!!!!!!!!!!!!!!!!!!!!!!!!!!!!!!!!!!!!!!!)+....                     ",
"     .$.$>>>>')))!!!!!!!!!!!!!!!!!!!!!!!!!!!!!!!!!!!!!!!!!!!!!!!!!!!!!!!!!!!!!!!!!!!!!!!!!!!!!!!!!!!!!@....                     ",
"     .$.$>>>,'))!!!!!!!!!!!!!!!!!!!!!!!!!!!!!!!!!!!!!!!!!!!!!!!!!!!!!!!!!!!!!!!!!!!!!!!!!!!!!!!!!!!!!!+.+..                     ",
"     .&.$,>,,,)!)!!!!!!!!!!!!!!!!!!!!!!!!!!!!!!!!!!!!!!!!!!!!!!!!!!!!!!!!!!!!!!!!!!!!!!!!!!!!!!!!!!!!!+....                     ",
"     .&.+;>>,)))!!!!!!!!!!!!!!!!!!!!!!!!!!!!!!!!!!!!!!!!!!!!!!!!!!!!!!!!!!!!!!!!!!!!!!!!!!!!!!!!!!!!!)+....                     ",
"     .*.+=>,,')!!!!!!!!!!!!!!!!!!!!!!!!!!!!!!!!!!!!!!!!!!!!!!!!!!!!!!!!!!!!!!!!!!!!!!!!!!!!!!!!!!!!!!!++...                     ",
"     .&..$,>,')))!!!!!!!!!!!!!!!!!!!!!!!!!!!!!!!!!!!!!!!!!!!!!!!!!!!!!!!!!!!!!!!!!!!!!!!!!!!!!!!!!!!!!+$...                     ",
"     .$..$>>,')!!!!!!!!!!!!!!!!!!!!!!!!!!!!!!!!!!!!!!!!!!!!!!!!!!!!!!!!!!!!!!!!!!!!!!!!!!!!!!!!!!!!!!'.&...                     ",
"     ....@>>,'))!!!!!!!!!!!!!!!!!!!!!!!!!!!!!!!!!!!!!!!!!!!!!!!!!!!!!!!!!!!!!!!!!!!!!!!!!!!!!!!!!!!!!;.*...                     ",
"     ....$>>,')!)!!!!!!!!!!!!!!!!!!!!!!!!!!!!!!!!!!!!!!!!!!!!!!!!!!!!!!!!!!!!!!!!!!!!!!!!!!!!!!!!!!!!&.*..                      ",
"     ..@.+->,,))!!!!!!!!!!!!!!!!!!!!!!!!!!!!!!!!!!!!!!!!!!!!!!!!!!!!!!!!!!!!!!!!!!!!!!!!!!!!!!!!!!!!)$.&..                      ",
"     ..$.+=>>,'))!!!!!!!!!!!!!!!!!!!!!!!!!!!!!!!!!!!!!!!!!!!!!!!!!!!!!!!!!!!!!!!!!!!!!!!!!!!!!!!!!!!!@++..                      ",
"      .$..$>>,))!!!!!!!!!!!!!!!!!!!!!!!!!!!!!!!!!!!!!!!!!!!!!!!!!!!!!!!!!!!!!!!!!!!!!!!!!!!!!!!!!!!!)+$...                      ",
"      ....$-,,'))!!!!!!!!!!!!!!!!!!!!!!!!!!!!!!!!!!!!!!!!!!!!!!!!!!!!!!!!!!!!!!!!!!!!!!!!!!!!!!!!!!);.*...                      ",
"      ..$.+*>,')!)!!!!!!!!!!!!!!!!!!!!!!!!!!!!!!!!!!!!!!!!!!!!!!!!!!!!!!!!!!!!!!!!!!!!!!!!!!!!!!!!!!&.*...                      ",
"      ..$..$>,'))!!!!!!!!!!!!!!!!!!!!!!!!!!!!!!!!!!!!!!!!!!!!!!!!!!!!!!!!!!!!!!!!!!!!!!!!!!!!!!!!!!'$+$..                       ",
"      .....$->,)))!!!!!!!!!!!!!!!!!!!!!!!!!!!!!!!!!!!!!!!!!!!!!!!!!!!!!!!!!!!!!!!!!!!!!!!!!!!!!!!!!-.*...                       ",
"       ....+*>,')!!!!!!!!!!!!!!!!!!!!!!!!!!!!!!!!!!!!!!!!!!!!!!!!!!!!!!!!!!!!!!!!!!!!!!!!!!!!!!!!!)&.*...                       ",
"       ..+..$>,'))!!!!!!!!!!!!!!!!!!!!!!!!!!!!!!!!!!!!!!!!!!!!!!!!!!!!!!!!!!!!!!!!!!!!!!!!!!!!!!!!;+$$..                        ",
"       .....$;>,')!)!!!!!!!!!!!!!!!!!!!!!!!!!!!!!!!!!!!!!!!!!!!!!!!!!!!!!!!!!!!!!!!!!!!!!!!!!!!!!!&.&...                        ",
"        ....+*>,)))!!!!!!!!!!!!!!!!!!!!!!!!!!!!!!!!!!!!!!!!!!!!!!!!!!!!!!!!!!!!!!!!!!!!!!!!!!!!!!)$.*...                        ",
"        .....$>,')))!!!!!!!!!!!!!!!!!!!!!!!!!!!!!!!!!!!!!!!!!!!!!!!!!!!!!!!!!!!!!!!!!!!!!!!!!!!!!-+&...                         ",
"         ....+*>,))!!!!!!!!!!!!!!!!!!!!!!!!!!!!!!!!!!!!!!!!!!!!!!!!!!!!!!!!!!!!!!!!!!!!!!!!!!!!!)&.*...                         ",
"         .....$>,'))!!!!!!!!!!!!!!!!!!!!!!!!!!!!!!!!!!!!!!!!!!!!!!!!!!!!!!!!!!!!!!!!!!!!!!!!!!!!-+&...                          ",
"         .....+*,'))!!!!!!!!!!!!!!!!!!!!!!!!!!!!!!!!!!!!!!!!!!!!!!!!!!!!!!!!!!!!!!!!!!!!!!!!!!!'$.*...                          ",
"          .....$-,')!)!!!!!!!!!!!!!!!!!!!!!!!!!!!!!!!!!!!!!!!!!!!!!!!!!!!!!!!!!!!!!!!!!!!!!!!!)&.*...                           ",
"          ...+..$>,))!!!!!!!!!!!!!!!!!!!!!!!!!!!!!!!!!!!!!!!!!!!!!!!!!!!!!!!!!!!!!!!!!!!!!!!!!-++*...                           ",
"           .....+*,'))!!!!!!!!!!!!!!!!!!!!!!!!!!!!!!!!!!!!!!!!!!!!!!!!!!!!!!!!!!!!!!!!!!!!!!!)&.*...                            ",
"            .....$-,))!!!!!!!!!!!!!!!!!!!!!!!!!!!!!!!!!!!!!!!!!!!!!!!!!!!!!!!!!!!!!!!!!!!!!!!-+$$...                            ",
"            ......$>')))!!!!!!!!!!!!!!!!!!!!!!!!!!!!!!!!!!!!!!!!!!!!!!!!!!!!!!!!!!!!!!!!!!!!'$.*...                             ",
"             .....+*,))!!!!!!!!!!!!!!!!!!!!!!!!!!!!!!!!!!!!!!!!!!!!!!!!!!!!!!!!!!!!!!!!!!!!'$.=....                             ",
"              .....$;,)))!!!!!!!!!!!!!!!!!!!!!!!!!!!!!!!!!!!!!!!!!!!!!!!!!!!!!!!!!!!!!!!!!)&.&$...                              ",
"              ......$-'))!)!!!!!!!!!!!!!!!!!!!!!!!!!!!!!!!!!!!!!!!!!!!!!!!!!!!!!!!!!!!!!!!-+$*...                               ",
"               ......@;'))!!!!!!!!!!!!!!!!!!!!!!!!!!!!!!!!!!!!!!!!!!!!!!!!!!!!!!!!!!!!!!!'$.*...                                ",
"                ......$;)))!!!!!!!!!!!!!!!!!!!!!!!!!!!!!!!!!!!!!!!!!!!!!!!!!!!!!!!!!!!!!'$.=....                                ",
"                 ......$>'!)!)!!!!!!!!!!!!!!!!!!!!!!!!!!!!!!!!!!!!!!!!!!!!!!!!!!!!!!!!!'$.*@...                                 ",
"                 .......$;')!!!!!!!!!!!!!!!!!!!!!!!!!!!!!!!!!!!!!!!!!!!!!!!!!!!!!!!!!!'$.+*...                                  ",
"                  .......$>')!)!!!!!!!!!!!!!!!!!!!!!!!!!!!!!!!!!!!!!!!!!!!!!!!!!!!!!)-$..*...                                   ",
"                   .......$;')!!!!!!!!!!!!!!!!!!!!!!!!!!!!!!!!!!!!!!!!!!!!!!!!!!!!)'&+..*&..       ##                           ",
"                    .......$=')!)!!!!!!!!!!!!!!!!!!!!!!!!!!!!!!!!!!!!!!!!!!!!!!!!!-$..&=&....     ####                          ",
"                     .......+$-))!!!!!!!!!!!!!!!!!!!!!!!!!!!!!!!!!!!!!!!!!!!!!!!'&+.&*$.......   %%###                          ",
"                       .......+$,)!)!!!!!!!!!!!!!!!!!!!!!!!!!!!!!!!!!!!!!!!!!!)-$.+=$..........#%=######                        ",
"                        ....+...$=))!)!!!!!!!!!!!!!!!!!!!!!!!!!!!!!!!!!!!!!!);&+.&*..... ...++.%=##@+####                       ",
"                         ........+$-)!)!!!!!!!!!!!!!!!!!!!!!!!!!!!!!!!!!!!!;&+.$=+....    ..@&%=##@@#%###                       ",
"                          .........+$-')!!!!!!!!!!!!!!!!!!!!!!!!!!!!!!!!);&+.+*$.....      .+%;###+%=######                     ",
"                            .........+$$-)!)!!!!!!!!!!!!!!!!!!!!!!!!!))-&+.+*&......       @%=##%@%=##++####                    ",
"                             ......+....+&=')!!!!!!!!!!!!!!!!!!!!)!);&$+.$*&......         %=%#$#%=###+#%###                    ",
"                               ...........++$&-')))!!!!!!!)!)!));&$++..&*$......          %=##@%%-##@+%=##@###                  ",
"                                 .............++$$&-'))!)!);&$$++..+&*&.......           #=###@%-###+#=###.####                 ",
"                                   .........++.....@+$$$$$++...$&**+........            #####@%=##@@%=##@+%####                 ",
"                                      .................+$&****$...........             ####@+%=###+#-###+%=######               ",
"                                         ..............................                 ###@#=##@+%=##@+%=##++####              ",
"                                            .......................                      # #####+%=###+#=###+#%###              ",
"                                                  .........                               ####@+%=##@+%-##@+%=##@###            ",
"                                                                                           ###@#=###+%=###@#=##@+####           ",
"                                                                                            ######@@%=##@+%=###+%####           ",
"                                                                                             #####+#=###+%=##@+#=######         ",
"                                                                                              ###@#=##@+%=##+#%=##++####        ",
"                                                                                               @######+#=###+#=###+#%###        ",
"                                                                                                ####@+%;##@+%-##@+%=###         ",
"                                                                                                 ###@#*###+%=###+#=##@..        ",
"                                                                                                  ######@+%=##@+%=###...        ",
"                                                                                                   #####+%=###+%=%#@....        ",
"                                                                                                    ###@#=##@+%=##@....         ",
"                                                                                                     #@#####+#=##@....          ",
"                                                                                                      ####@+%=###....           ",
"                                                                                                       ###@#=##@....            ",
"                                                                                                        #######....             ",
"                                                                                                         ####@....              ",
"                                                                                                          ###....               ",
"                                                                                                           #  ..                ",
"                                                                                                                                ",
"                                                                                                                                ",
"                                                                                                                                ",
"                                                                                                                                ",
"                                                                                                                                ",
"                                                                                                                                ",
"                                                                                                                                "};
