/* XPM */
char * zoomscale_xpm[] = {
"128 128 17 1",
" 	c None",
".	c #000000",
"+	c #760000",
"@	c #1E1B13",
"#	c #372911",
"$	c #2D2E2B",
"%	c #751B1B",
"&	c #46443D",
"*	c #9B4141",
"=	c #706663",
"-	c #B97A7A",
";	c #918A84",
">	c #B5B5B2",
",	c #C7C7C4",
"'	c #D7D8D5",
")	c #E6E8E5",
"!	c #FAFDF9",
"                                                                                                                                ",
"                                                    .......                                                                     ",
"                                             ......................                                                             ",
"                                         .......$$$$$@@$$&&=&$.........                                                         ",
"                                      .....&==$.................@$$......                                                       ",
"                                   .....==&........@@$$$$$@$........$$......                                                    ",
"                                 ....&=$......@$$$&;>,>,,>>;&$$$@@.....@$.....                                                  ",
"                               ....==.....@@$&;>>,>>>>>>>>>>>>>>>;&$@.....@.....                                                ",
"                              ...==....@$&;>>>>>>>>,>,>,>>,,>,>>>>>>=&$@....@.....                                              ",
"                            ...==....$&;>,>,>>>>,>,>>,,,,,,,,,,,,>>,>>>=&@.........                                             ",
"                          ...&;....@&;>,>>>>>,>>>,,,,,,'')')'''',,,,,,,>>;$@.........                                           ",
"                         ...;$...@&;>>>>>>,>>>,,,,''''))))))))))))''',,,,>>;&@........                                          ",
"                        ..=;....$;>,>>>>>>,,,,'''')))))!)!)!)!))))))))''',,,>;$@........                                        ",
"                       ..=&...@&>,>>>>>,>,,')'))))!))!!)!)!!!!!)!!!)!))))'',,,>;$@.......                                       ",
"                      ..;...@&;>>>>>>>>,,'''))!)!)!!!!)!!!!!!!!!)!!!)!!)))))'',,>=$.......                                      ",
"                    ...;...$;,,,>>>,>,,'')))!)!)!!!!!!!!!!!!!!!!!!!!!!!!!)!))'''',>$.......                                     ",
"                   ..@;...$>,>>>>>>,,'')))!!)!!!!!!!!!!!!!!!!!!!!!!!!!!!!!!!!!))'',>$@......                                    ",
"                  ..$;...$>,>>>>>>,,'')!!!)!!!!!!!!!!!!!!!!!!!!!!!!!!!!!!!!!))!))''',;$......                                   ",
"                  .@;...$>,>>>>>,'''))!))!!!!!!!!!!!!!!!!!!!!!!!!!!!!!!!!!!!!!!)!)))',>$......                                  ",
"                 ..=...$>,>>>>,,''))!)!!!!!!!!!!!!!!!!!!!!!!!!!!!!!!!!!!!!!!!!!!!)!))',>$..@...                                 ",
"                ..;...$>>>>>>,,''))!!)!!!!!!!!!!!!!!!!!!!!!!!!!!!!!!!!!!!!!!!!!!!!)!)))'>$......                                ",
"               ..;...$>>>>>>>,'))!)!!!!!!!!!!!!!!!!!!!!!!!!!!!!!!!!!!!!!!!!!!!!!!!!!!!)''>$.....                                ",
"              ..=$..$>,>>>,,,'')!)!!!!!!!!!!!!!!!!!!!!!!!!!!!!!!!!!!!!!!!!!!!!!!!!!!!)!))';@.....                               ",
"              .$=..$>,>>>>>,')))!!!!!!!!!!!!!!!!!!!!!!!!!!!!!!!!!!!!!!!!!!!!!!!!!!!!!!!!))'&......                              ",
"             ..;..@;,>>>>,,'))!!!!!!!!!!!!!!!!!!!!!!!!!!!!!!!!!!!!!!!!!!!!!!!!!!!!!!!!!!)!),$......                             ",
"            ..=...&,>>>>>,'))!)!!!!!!!!!!!!!!!!!!!!!!!!!!!!!!!!!!!!!!!!!!!!!!!!!!!!!!!!!!!)),$.....                             ",
"            .$&..$>>>>>,,')))!--,-*+++++++++++++++++++!!!!!!!!!!!-->-+++++++++++++++!!!!!!!));$.....                            ",
"           ..;..@;>,>>>,'))!!!--++*->-++++++++++++**--)!)!!!!!!!!--*+***+++++++++%--)!)!!!!!)'&.....                            ",
"          ..&...&,>>>>,')))!!!!!!,*++*-'-+++++++*>))))))!)!!!!!!!!!!!-+*'-+++++-,))))))!!!!)!)>@.....                           ",
"          ..;..$>>>>>,,')!)!!!!!!!!-++++-'-*++++,''')))))))!!!!!!!!!)!-+-+++%*,'''''))))!)!!!))&......                          ",
"         ..=..@;,>>>>,'))!!!!!!)!))!>*++++-*+++%;',,'''))!!!)!!!!!!!))-+++%%=>,,,,''''))!)!!!)),$.....                          ",
"         ..=..&>>>>>,'))!)!!!!!!!!))',%%++++++%+->>,,''))))!!!!!!!!!))*++%+->,>,,,,'')))!!!!!!!!;......                         ",
"         .&..@;,>>>,,'))!!!!!!!!)!)))'>++++++++%%;>,,''))!)!!!!!!!!!!-+++%&>>>>>,,,')))!)!!!!!!!)&.....                         ",
"        ..;..&,>>>>,')!!!!!!!!!!!)!!))';++++++++%->>,'))!)!!!!!!!!!!!+-+%*,>>>>>,,)')))!)!!!!!!)!;.....                         ",
"        .$@.$;>,>>,')))!!!!!!!!!!!))!))'-++++++++%;>,'))!)!!!!!!!!!!*-++*,,>>>>,,')))!)!!!!!!!!!!)$.....                        ",
"       ..=..$>>>>,,'))!!!!!!!!!!!!!!!!)))%+++++++%->,')!!!!!!!!!!!!--*+%,',>>>,,'))!!!!!!!!!!!!!)!&.....                        ",
"       ..&..&>>>>,')!)!!!!!!!!!!!!!!!!)!'>++++++++%;,,))!!!!!!!!!!---+%>',,>>,')))!!!!!!!!!!!!!!!!>@....                        ",
"       .&..$;,>>>,'))!!!!!!!!!!!!!!!!!!))'-++++++++%,,)))!!!!!!!!,*,++-)',,,,''))!)!!!!!!!!!!!!!!))&.....                       ",
"      ..=..&>>>,,'))!!!!!!!!!!!!!!!!!!!!!)'%++++++%%*,'))!!!!!!!'+)++-)',,,,,')))!!!!!!!!!!!!!!!!!!;.....                       ",
"      ..&.@;>>>>,')!)!!!!!!!!!!!!!!!!!!!!!);++++++++%;,)))!!!!!)*,++*)'',,,,)))!!!!!!!!!!!!!!!!!!!!)$....                       ",
"      .$..@>>>,>,'))!!!!!!!!!!!!!!!!!!!!!!!!-++++++++%>'))!!!!!*-*+*,)',,,,')))!!!!!!!!!!!!!!!!!!!!!&.@...                      ",
"      .&..$>>>>,')!!!!!!!!!!!!!!!!!!!!!!!!))'%+++++++%*,'))!!!---++')',,,,'))!!!!!!!!!!!!!!!!!!!!!!)>.....                      ",
"      .=..&,>>,,'))!!!!!!!!!!!!!!!!!!!!!!!!!)>++++++++%-,'))!--,++>'',,,,'')))!!!!!!!!!!!!!!!!!!!!!)'.....                      ",
"     ..&.$;>,>,')!)!!!!!!!!!!!!!!!!!!!!!!!!!),-++++++++%>')!'*,++-)'',,,'')!!!!!!!!!!!!!!!!!!!!!!!!!)$....                      ",
"     ....@>>>>,'))!!!!!!!!!!!!!!!!!!!!!!!!!!!))%%+++++++%,,'*'++*)'',,,'')))!!!!!!!!!!!!!!!!!!!!!!!!!$.@..                      ",
"     .@..$>>>,,')!!!!!!!!!!!!!!!!!!!!!!!!!!!!!)>+++++++++*,**++*)'',,,,,))!!!!!!!!!!!!!!!!!!!!!!!!!!!&.....                     ",
"     .$..$>,>>,)))!!!!!!!!!!!!!!!!!!!!!!!!!!!!!)-+++++++++*+++%,)',,,,')))!!!!!!!!!!!!!!!!!!!!!!!!!!!>.@...                     ",
"     .$..&>>,,')!!!!!!!!!!!!!!!!!!!!!!!!!!!!!!!))%+++++++++++%>'',,,,'))!!!!!!!!!!!!!!!!!!!!!!!!!!!!!'.....                     ",
"     .$.$;>>>,'))!!!!!!!!!!!!!!!!!!!!!!!!!!!!!)!!,%+++**+++++-,,,,,,''))!!!!!!!!!!!!!!!!!!!!!!!!!!!!!)@....                     ",
"     .$.@>>,>,'))!!!!!!!!!!!!!!!!!!!!!!!!!!!!!!!)'-++++*++++=>,,,,,'')!)!!!!!!!!!!!!!!!!!!!!!!!!!!!!!!@....                     ",
"     .$.$,>>,,')!!!!!!!!!!!!!!!!!!!!!!!!!!!!!!!!!))*+++*++++%>>>>,,'))!)!!!!!!!!!!!!!!!!!!!!!!!!!!!!!)$....                     ",
"     .$.$,,>,,)))!!!!!!!!!!!!!!!!!!!!!!!!!!!!!!!!!),+++*++++%*>>>,'))!!!!!!!!!!!!!!!!!!!!!!!!!!!!!!!!)@....                     ",
"     .&.$>>,,'))!!!!!!!!!!!!!!!!!!!!!!!!!!!!!!!!!!))-++++++++%=>,'')))!!!!!!!!!!!!!!!!!!!!!!!!!!!!!!!!$....                     ",
"     .=.$,>>,')!!!!!!!!!!!!!!!!!!!!!!!!!!!!!!!!!!!!!>+++++++%++>>,')!!!!!!!!!!!!!!!!!!!!!!!!!!!!!!!!!)$....                     ",
"     .=.@>,,,'))!!!!!!!!!!!!!!!!!!!!!!!!!!!!!!!!!!!,++++++++++%%>,)))!!!!!!!!!!!!!!!!!!!!!!!!!!!!!!!!)@....                     ",
"     .=.@;>>,'))!!!!!!!!!!!!!!!!!!!!!!!!!!!!!!!!!!)*+++++++++++%-,'))!!!!!!!!!!!!!!!!!!!!!!!!!!!!!!!!)$@...                     ",
"     .&..&>,,))!!!!!!!!!!!!!!!!!!!!!!!!!!!!!!!!!!!**++**++++++++%;)))!)!!!!!!!!!!!!!!!!!!!!!!!!!!!!!!)@$...                     ",
"     .$..$>>,'))!!!!!!!!!!!!!!!!!!!!!!!!!!!!!!!!!---++),%+++++++%%,'))!!!!!!!!!!!!!!!!!!!!!!!!!!!!!!!'.=...                     ",
"     ....$>,,,)!)!!!!!!!!!!!!!!!!!!!!!!!!!!!!!!!---++,'';++++++++%*,'))!!!!!!!!!!!!!!!!!!!!!!!!!!!!!!>.=...                     ",
"     ....$>>,'))!!!!!!!!!!!!!!!!!!!!!!!!!!!!!!!'*)+%-)',,*++++++++%;')))!!!!!!!!!!!!!!!!!!!!!!!!!!!!!&.=..                      ",
"     ..$.@>>,,))!!!!!!!!!!!!!!!!!!!!!!!!!!!!!!)+'++-)'',>>%++++++++%>'))!!!!!!!!!!!!!!!!!!!!!!!!!!!!!$.&..                      ",
"     ..&.@;>,,)))!!!!!!!!!!!!!!!!!!!!!!!!!!!!!+'++%)'',,,>;++++++%+%*,')!)!!!!!!!!!!!!!!!!!!!!!!!!!!!$.$..                      ",
"      .$..&>>,')!!!!!!!!!!!!!!!!!!!!!!!!!!!!!*,*+*'),,,,,,,*%+++++++%->')!)!!!!!!!!!!!!!!!!!!!!!!!!!'@&...                      ",
"      ....$>>,)))!!!!!!!!!!!!!!!!!!!!!!!!!!!---++>)'',,,')),+++++++++%>'))!!!!!!!!!!!!!!!!!!!!!!!!!!>.=...                      ",
"      ..$.@;>,'))!!!!!!!!!!!!!!!!!!!!!!!!!!,*'++-)',,,,'''));++++++++%%,'))!!!!!!!!!!!!!!!!!!!!!!!!)=.=...                      ",
"      ..$..$>,'))!!!!!!!!!!!!!!!!!!!!!!!!!)+'++-)'',,,''))!!'-++++++++%-,'))!!!!!!!!!!!!!!!!!!!!!!))$$$..                       ",
"      .....$>>,'))!!!!!!!!!!!!!!!!!!!!!!!)*,++-,'',,,,'))!!!),%++++++++%;'))!!!!!!!!!!!!!!!!!!!!!!)>.=...                       ",
"       ....@;>,)))!!!!!!!!!!!!!!!!!!!!!!!*-*+%')',,,''))!!)!!)-+++++++++%,'))!!!!!!!!!!!!!!!!!!!!!!&.;...                       ",
"       ..@..$>,'))!!!!!!!!!!!!!!!!!!!!!!---+%,)',,,,,)))!!!!!!)-+++++++%+->'))!!!!!!!!!!!!!!!!!!!!>@$$..                        ",
"       .....$>>,)))!!!!!!!!!!!!!!!!!!!!-*)++>'',,,,')))!!!!!!)),%++++++++%-')))!!!!!!!!!!!!!!!!!!!&.=...                        ",
"        ....@=,,')!)!!!!!!!!!!!!!!!!!!'+,++-)',,,,''))!!!!!!!!));++++%+++%%>'))!!!!!!!!!!!!!!!!!!)&.=...                        ",
"        .....$>,'))!!!!!!!!!!!!!!!!!!!+*-+*)'',,,''))!!!!!!!!!!!)-+++%++++%*,'))!!!!!!!!!!!!!!!!)>.=...                         ",
"         ....$=>,))!!!!!!!!!!!!!!!!!!*+-++>'',,,,,)))!!!!!!!!!!))'%+++*++++%->)))!!!!!!!!!!!!!!!)&.=...                         ",
"         .....&>,'))!!!!!!!!!!!!!!!!*++%+*'',,,,'))!!!!!!!!!!!!!!)-++**++++++;'))!!!!!!!!!!!!!!)>@=...                          ",
"         .....@=,')))!!!!!!!!!!!!!!*++'++%',,,,''))!!!!!!!!!!!!!!!>++++++++++%-'))!!!!!!!!!!!!!'$.;...                          ",
"          .....$;,)))!!!!!!!!!!!!!*+*-*+%+>,>,,')!!!!!!!!!!!!!!!!!'+++++++++++%-')))!!!!!!!!!!)=.=...                           ",
"          ...$..&>'))!!!!!!!!!!!-*+++++++%%>>,'')!!!!!!!!!!!!!!!!'++++++++%+++++*>)!!!!!!!!!!!>@.=...                           ",
"           .....@;,'))!!!!!!!,-*++++++++%+++%*--)))!!!!!!!!!)''-*+++++%%%%+%%+%+++%--)!!!!!!!)&.;...                            ",
"            .....$>,)))!!!!!!++++++%+%%+%+%++++-)!!!)!!!!!!!,+++++%+%%+++%%+%++%++++-)!)!!!!!>@&$...                            ",
"            ......$,'))!!!!!!!!!!!)''>>>>;;>>>,')))!!!!!!!!!!!!!!!)',,>>;>;;;;;;>>,''))!)!!)'$.;...                             ",
"             .....$;,)))!!!!!!!!)!))',,>>>>>>,,'))!)!!!!!!!!!!!)!)))'',>>>>>>>>>>>,,''))!!!'&.;....                             ",
"              .....$>,)))!!!!!)!!))'',,,>>>>>,,''))))!!!!!!!!!!!!))''',,>>>>>>>>>>,,'')))!)&.=$...                              ",
"              ......$>,)!!!!!!!)!))''',,,,,,,,'''))!!!!!!!!!!!!)!)))''',,,,>,,,,,,,','))))>@$=...                               ",
"               ......$>'))!!!!!!)))))'')'''')'')))))!!!!!!!!!!!!)!)))))''''''''''')''))))'$.;...                                ",
"                ......$>'))!!!!!!!)))))))))))))))!!)!!!!!!!!!!)!!!)!)))))))))))))))))))!,&.;....                                ",
"                 ......$>))!)!!!!)!!!)!)!))!))!!)!)!!!!!!!!!!!!!!)!))!!)!!)!)!)!))!)!!),&.=$...                                 ",
"                 .......$>')!!!!!!!)!!!!!!!!!!)!)!!!!!!!!!!!!!!!!!!!)!!)!)!!!!!!!!!)!)'&.$=...                                  ",
"                  .......$>'))!!!!!!!!!!!!!!!!!!!!!!!!!!!!!!!!!!!!!!!!!!!!!!!!!!!!!!!;&..=...                                   ",
"                   .......$>))!)!!!!!!!!!!!!!!!!!!!!!!!!!!!!!!!!!!!!!!!!!!!!!!!!!!!'=@..==..       ##                           ",
"                    .......$;')!!!!!!!!!!!!!!!!!!!!!!!!!!!!!!!!!!!!!!!!!!!!!!!!!!!;$..=;&....     ####                          ",
"                     .......@&;))!!!!!!!!!!!!!!!!!!!!!!!!!!!!!!!!!!!!!!!!!!!!!!!'&$.==$.......   #####                          ",
"                       .......$&,))!!!!!!!!!!!!!!!!!!!!!!!!!!!!!!!!!!!!!!!!!!!!;&..;&..........#&>######                        ",
"                        ....@...$;)!)!!!!!!!!!!!!!!!!!!!!!!!!!!!!!!!!!!!!!!)!>&$.==..... ...$.@#;###@####                       ",
"                         ........$&;))!!!!!!!!!!!!!!!!!!!!!!!!!!!!!!!!!!!!!>&$.$;.....    ..@=#>##@@#####                       ",
"                          .........$&;')!!!!!!!!!!!!!!!!!!!!!!!!!!!!!!!!)>&@.@=&.....      .@&;###@#;######                     ",
"                            .........@&&>)!!!!!!!!!!!!!!!!!!!!!!!!!!!!);=@.$==......       ##>###&#>##@@####                    ",
"                             ...........@&;')!)!!!!!!!!!!!!!!!!!!!))>&&$.$;&......         &;###&#>###@#####                    ",
"                               ...........$@&&>')!)!!!!!!!!)!!)'>=$@$..&;$......          #;###&#;###@#;##@###                  ",
"                                 .............$@$&=>')!)!))>&&&$@..@&=&.......           #;###&#>###@#>###@####                 ",
"                                   .........@.......@&$&&$$@...$&==$........            ####@##;##@@#;##@@#####                 ",
"                                      .................@$&==;=$@..........             #####@#>###@#>###@#;######               ",
"                                         ..............................                 #####;##@##;###@#>##@@####              ",
"                                            .......................                      # #####@#>###@#>###@#####              ",
"                                                  .........                               #####@#;##@@#;##@@&;##@###            ",
"                                                                                           ###@#;###@#>###@#;###@####           ",
"                                                                                            ######@##;###@#>##@@#####           ",
"                                                                                             #####@#>###@#;###@#;######         ",
"                                                                                              #####;###@#>##@##>##@@####        ",
"                                                                                               #@#####.#>###@#>###@#####        ",
"                                                                                                #####@#;###@#;##@@#;###         ",
"                                                                                                 ###@#;###@#>###@#>##@..        ",
"                                                                                                  #######@#;###@#;###...        ",
"                                                                                                   #####@#>###@#>##@....        ",
"                                                                                                    #####;##@@#;###@...         ",
"                                                                                                     #@#####@#>###....          ",
"                                                                                                      #####@#;##@....           ",
"                                                                                                       ###@#;###....            ",
"                                                                                                        #######....             ",
"                                                                                                         #####....              ",
"                                                                                                          ###....               ",
"                                                                                                           #  ..                ",
"                                                                                                                                ",
"                                                                                                                                ",
"                                                                                                                                ",
"                                                                                                                                ",
"                                                                                                                                ",
"                                                                                                                                ",
"                                                                                                                                "};
