/* XPM */
char * zoomrealtime_xpm[] = {
"128 128 17 1",
" 	c None",
".	c #000000",
"+	c #1E1B13",
"@	c #770204",
"#	c #372911",
"$	c #2D2E2B",
"%	c #46443C",
"&	c #885452",
"*	c #A75350",
"=	c #666865",
"-	c #B47172",
";	c #8E8A83",
">	c #B1B2AF",
",	c #C0C2BF",
"'	c #D6D9D5",
")	c #E6E8E5",
"!	c #FCFEFB",
"                                                                                                                                ",
"                                                    .......                                                                     ",
"                                             ......................                                                             ",
"                                         .......$$$$$++$$%=%=$.........                                                         ",
"                                      .....%==$.................+$$......                                                       ",
"                                   .....==%........++$$$$$++........$$......                                                    ",
"                                 ....%=$......+$$$%;>,,,,>>;%$$$++.....+$.....                                                  ",
"                               ....==.....++$%;>,,,>>,,>,,,>,>>>>;%$+.....+.....                                                ",
"                              ...==....$$%;>,>,>>>>,,>,,>>,,,,,>>>>>;$$+....+.....                                              ",
"                            ...==....+%;,,,>>>>>,,,,>,,,,,,',',,,,>>,,>=%+.........                                             ",
"                          ...%;....+%;>>,>,>>,,>,,,,,'''))'''''',',,,>,,>;$+.........                                           ",
"                         ...;$...+%;,,,,>>,,,,,,,,'')'')')))))))))')''',,,>;%+........                                          ",
"                        ..==....$;,>,>>>>,>,,''))')))))!))!)!)!))))))')'','>>;$$........                                        ",
"                       ..=%...+%>,,>>>>,,,'''')))))))!)!!!!!)!!)!)!))))))''',,>;$+.......                                       ",
"                      ..;...$%;,>>>>>,>,,''))))!)!!!)!!!!!!!!!!!!!!!!!)!)))))',,>=$.......                                      ",
"                    ...;...$;,,,>>>,,,,'))))!)!)!!!!!!!!!!!!!!!!!!!!!!!!!!))'))'',>$.......                                     ",
"                   ..+;...$,,,>>,>,,,))))))!)!!!!!!!!!!!!!!!!!!!!!!!!!!!!)!!))))'',>%.......                                    ",
"                  ..$;...$>,,,>>>,,,'')))!!!!!!!!!!!!!!!!!!!!!!!!!!!!!!!!!!!!)!)))'',;$......                                   ",
"                  .+;...$>,>>>>,,,))))!!)!!!!!!!!!!!!-*@@**)!!!!!!!!!!!!!!!!!!!!)!))',>$......                                  ",
"                 ..=...$>,,>>,,,'')))))!!!!!!!!!!!!!!-@@@@@!)!)!!!!!!!!!!!!!!!!!)!)))''>$......                                 ",
"                ..;...$>,>>>,,,)'))!!!!!!!!!!!!!!!!!!-@*@@@)))!)!!!!!!!!!!!!!!!!!!!)!))'>$......                                ",
"               ..;...$>,,>>,,,'')!)!!!!!!!!!!!!!!!!!!-@>@@@))))))!!!!!!!!!!!!!!!!!!!!)))'>$.....                                ",
"              ..=$..$>,>>>,>,))))!!!!!!!!!!!!!!!!!!!!-@-@@@'''))!)!!!!!!!!!!!!!!!!!!!!!))';+.....                               ",
"              .$=..$>,,,>>,,')))!!!!!!!!!!!!!!!!!!!!!-@-@@@,,,'))!!!!!!!!!!!!!!!!!!!!!)!))'%......                              ",
"             ..;..+;,,>>,,,)))!)!!!!!!!!!!!!!!!!!!!!!-@*@@@>,,'')!)!!!!!!!!!!!!!!!!!!!!!!)),$......                             ",
"            ..=...%,,>>>,,,)))!!!!!!!!!!!!!!!!!!!!!!!-@*@@@,,,,)))!!!!!!!!!!!!!!!!!!!!!!!!!),$.....                             ",
"            .$=..$>,>>>,,)))!)!!!!!!!!!!!!!!!!!!!!!!!-@*@@@>>,,')!)!!!!!!!!!!!!!!!!!!!!!!)!!);$.....                            ",
"           ..;..$;,>,>,,'))!!!!!!!!!!!!!!!!!!!!!!!!!!-@*@@@>>>,')!!!!!!!!!!!!!!!!!!!!!!!!!!!)'%.....                            ",
"          ..=...%>,>>,,')))!!!!!!!!!!!!!!!!!!!!!!!!!!-@*@@@>>,,'))!!!!!!!!!!!!!!!!!!!!!!!!!!!)>+.....                           ",
"          ..=..$>,>>>,,')!)!!!!!!!!!!!!!!!!!!!!!!!!!!&@*@@@>>,,')!!!!!!!!!!!!!!!!!!!!!!!!!!!)))%......                          ",
"         ..=..+;,>>>,,)))!!!!!!!!!!!!!!!!!!!!!!!!!!!!-@*@@@>>>,))))!!!!!!!!!!!!!!!!!!!!!!!!!!!),$.....                          ",
"         ..=..%,>,>,,,)))!!!!!!!!!!!!!!!!!!!!!!!!!!!!-@&@@@>>,,')!!!!!!!!!!!!!!!!!!!!!!!!!!!!!!!;......                         ",
"         .%..+;,>>,,,))!)!!!!!!!!!!!!!!!!!!!!!!!!!!!!-@-@@@>>,,'))!!!!!!!!!!!!!!!!!!!!!!!!!!!!!!)%.....                         ",
"        ..=..%,,>>,,)))!!!!!!!!!!!!!!!!!!!!!!!!!!!!!!-@,@@@>>>,)))!!!!!!!!!!!!!!!!!!!!!!!!!!!!!!)>.....                         ",
"        .$$.+;>,>,,'))!!!!!!!!!!!!!!!!!!!!!!!!!!!!!!!-@,@@@>>>,'))!!!!!!!!!!!!!!!!!!!!!!!!!!!!!!)'$.....                        ",
"       ..=..$>,>>,,')))!!!!!!!!!!!!!!!!!!!!!!!!!!!!!!-@,@@@>>,,)))!!!!!!!!!!!!!!!!!!!!!!!!!!!!!!!!%.....                        ",
"       ..%..%,>>,,)))!!!!!!!!!!!!!!*@@@@@@@@@@@@@@@@@@-)@@@@@@@@@@@@@@@@@@@@*!!!!!!!!!!!!!!!!!!!!!>+....                        ",
"       .%..+;,,-,,')!)!!!!!!!!!!!!!@@@@@@@@@@@@@@@@*-,)-*@@@@@@@@@@@@@@@@@@@@)!)!!!!!!!!!!!!!!!!!!)%.....                       ",
"      ..=..%,,,,,)))!!!!!!!!!!!!!!!@@*,--*-**-**--,,----@@@@@@@**-**-***@@@@&'))!)!!!!!!!!!!!!!!!!!;.....                       ",
"      ..%.+;>,>,,')!)!!!!!!!!!!!!!!*@@@@@@@@@@@@@@@@*@@@@@@@@@@@@@@@@@@@@@@@@'))))!)!!!!!!!!!!!!!!!)$....                       ",
"      .$..+>,>,,,)))!!!!!!!!!!!!!!!@@@@@@@@@@@@@@@@@@@@@@@@@@@@@@@@@@@@@@@@@@,,'))!!!!!!!!!!!!!!!!)!%.+...                      ",
"      .%..$,>>,,'))!!!!!!!!!!!!!!!!>-&-&&&&&&&&&&&&-&*@@@@@&&&&&&&&&&&&&&%&=&,,,')))!!!!!!!!!!!!!!!)>.....                      ",
"      .=..%,,>,,))!)!!!!!!!!!!!!!!!!!!)''>,>>>>>>>>>>&@@@@@>;>;>>>>>>>>>>>>>>,,,'))!!!!!!!!!!!!!!!!)).....                      ",
"     ..%.$;>>>,'))!!!!!!!!!!!!!!!!!!)))',,>>>>,>,>>>,*@@@@@>;>>>>>>>>>>>>>>>>,,,')))!!!!!!!!!!!!!!!!)$....                      ",
"     ....+>,,,,,))!!!!!!!!!!!!!!!!!!!))'',,,,,,>,,,,,&@@@@@>>>;>>>>,>>>>,,,,,,,'')!!!!!!!!!!!!!!!!!!)$.+..                      ",
"     .+..$>,>,,))!!!!!!!!!!!!!!!!!!!!!))''',','',,',,-@@@@@;>>>,,,','''',',','''))!)!!!!!!!!!!!!!!!!!%.....                     ",
"     .$..$,,>,,)))!!!!!!!!!!!!!!!!!!!)!))))))')))))))-@*@@#>>>>',)'))))'))')))))))!!!!!!!!!!!!!!!!!!!>.+...                     ",
"     .$..%,>,,'))!!!!!!!!!!!!!!!!!!!!!)!)))))))))))))&@*@@@>>>,,'))))))))))))))!!)!!!!!!!!!!!!!!!!!!!).....                     ",
"     .$.+;,,,,')!)!!!!!!!!!!!!!!!!!!!!!!!!!!)!)!)!)!)-@*@@@>>>,')))!)!!)!!)!)!!)!!!!!!!!!!!!!!!!!!!!!)+....                     ",
"     .$.+>>>,,'))!!!!!!!!!!!!!!!!!!!!!!!!!!!!!!!!!!!!*@*@@@>>,,')!!!!!!!!!!!!!!!!!!!!!!!!!!!!!!!!!!!!!+....                     ",
"     .$.$,,,,,))!!!!!!!!!!!!!!!!!!!!!!!!!!!!!!!!!!!!!-@*@@@>>,,)))!!!!!!!!!!!!!!!!!!!!!!!!!!!!!!!!!!!)+....                     ",
"     .$.$,>,,')))!!!!!!!!!!!!!!!!!!!!!!!!!!!!!!!!!!!!&@*@@@>>,,,)!)!!!!!!!!!!!!!!!!!!!!!!!!!!!!!!!!!!!+....                     ",
"     .%.$,,,,'))!!!!!!!!!!!!!!!!!!!!!!!!!!!!!!!!!!!!!-@*@@@>>>,))!)!!!!!!!!!!!!!!!!!!!!!!!!!!!!!!!!!!!+....                     ",
"     .=.&,>,,,)!!!!!!!!!!!!!!!!!!!!!!!!!!!!!!!!!!!!!!*@*@@@>>,,')!!!!!!!!!!!!!!!!!!!!!!!!!!!!!!!!!!!!)$....                     ",
"     .=..>>,,)))!!!!!!!!!!!!!!!!!!!!!!!!!!!!!!!!!!!!!-@*@@@>>,,'))!!!!!!!!!!!!!!!!!!!!!!!!!!!!!!!!!!!!+....                     ",
"     .=.+-,,,')!!!!!!!!!!!!!!!!!!!!!!!!!!!!!!!!!!!!!!&@@@@@>>>,,)!!!!!!!!!!!!!!!!!!!!!!!!!!!!!!!!!!!!)++...                     ",
"     .%..%,,,)))!!!!!!!!!!!!!!!!!!!!!!!!!!!!!!!!!!!!!-@@@@@>>>')))!!!!!!!!!!!!!!!!!!!!!!!!!!!!!!!!!!!!+$...                     ",
"     .$..$>,,')!!!!!!!!!!!!!!!!!!!!!!!!!!!!!!!!!!!!!!&@@@@@>>,,'))!!!!!!!!!!!!!!!!!!!!!!!!!!!!!!!!!!!'.=...                     ",
"     ....$>,,')))!!!!!!!!!!!!!!!!!!!!!!!!!!!!!!!!!!!!-@@@#@>>>,)))!!!!!!!!!!!!!!!!!!!!!!!!!!!!!!!!!!!>.=...                     ",
"     ..+.$>>,,)!!!!!!!!!!!!!!!!!!!!!!!!!!!!!!!!!!!!!!&&@@@*>>>,)))!!!!!!!!!!!!!!!!!!!!!!!!!!!!!!!!!!!%.=..                      ",
"     ..$.+>,,')))!!!!!!!!!!!!!!!!!!!!!!!!!!!!!!!!!!!!!)'',>>>,,))!)!!!!!!!!!!!!!!!!!!!!!!!!!!!!!!!!!!$.%..                      ",
"     ..%.+;>,,')!!!!!!!!!!!!!!!!!!!!!!!!!!!!!!!!!!!!!!)))',,,,,))!!!!!!!!!!!!!!!!!!!!!!!!!!!!!!!!!!!!$+$..                      ",
"      .$..%>,,)))!!!!!!!!!!!!!!!!!!!!!!!!!!!!!!!!!!!!!!))'',',)))!)!!!!!!!!!!!!!!!!!!!!!!!!!!!!!!!!!'.%...                      ",
"      ....$>,,')!!!!!!!!!!!!!!!!!!!!!!!!!!!!!!!!!!!!!!!!))''),))!)!!!!!!!!!!!!!!!!!!!!!!!!!!!!!!!!!!>.=...                      ",
"      ..$.+;>,)))!!!!!!!!!!!!!!!!!!!!!!!!!!!!!!!!!!!!!!!))))))))!!!!!!!!!!!!!!!!!!!!!!!!!!!!!!!!!!!!%.=...                      ",
"      ..$..%>,,)))!!!!!!!!!!!!!!!!!!!!!!!!!!!!!!!!!!!!!)!!)))))!)!!!!!!!!!!!!!!!!!!!!!!!!!!!!!!!!!!)$$$..                       ",
"      .....$>>,))!!!!!!!!!!!!!!!!!!!!!!!!!!!!!!!!!!!!!!!!)!!!!)!!!!!!!!!!!!!!!!!!!!!!!!!!!!!!!!!!!!;+=...                       ",
"       ....+;,,)))!!!!!!!!!!!!!!!!!!!!!!!!!!!!!!!!!!!!!!!!!)!!!!!!!!!!!!!!!!!!!!!!!!!!!!!!!!!!!!!!!%.;...                       ",
"       ..+..%>,'))!!!!!!!!!!!!!!!!!!!!!!!!!!!!!!!!!!!!!!!!!!!!!!!!!!!!!!!!!!!!!!!!!!!!!!!!!!!!!!!!>+$$..                        ",
"       .....$>>''))!!!!!!!!!!!!!!!!!!!!!!!!!!!!!!!!!!!!!!!!!!!!!!!!!!!!!!!!!!!!!!!!!!!!!!!!!!!!!!)=.=...                        ",
"        ....+=,,))!)!!!!!!!!!!!!!!!!!!!!!!!!!!!!!!!!!!!!!!!!!!!!!!!!!!!!!!!!!!!!!!!!!!!!!!!!!!!!!'$.=...                        ",
"        .....%>,'))!!!!!!!!!!!!!!!!!!!!!!!!!!!!!!!!!!!!!!!!!!!!!!!!!!!!!!!!!!!!!!!!!!!!!!!!!!!!!!>.=...                         ",
"         ....+;>,))!!!!!!!!!!!!!!!!!!!!!!!!!!!!!!!!!!!!!!!!!!!!!!!!!!!!!!!!!!!!!!!!!!!!!!!!!!!!!!%.;...                         ",
"         .....%>,')!)!!!!!!!!!!!!!!!!!!!!!!!!!!!!!!!!!!!!!!!!!!!!!!!!!!!!!!!!!!!!!!!!!!!!!!!!!!!;$%...                          ",
"         .....+=,'))!!!!!!!!!!!!!!!*@@@@@@@@@@@@@@@@@@@@@@@@@@@@@@@@@@@@@@@@*!!!!!!!!!!!!!!!!!))%.;...                          ",
"          .....$>,')!)!!!!!!!!!!!!!@@@@@@@@@@@@@@@@@@@@@@@@@@@@@@@@@@@@@@@@@@)!)!!!!!!!!!!!!!!!%.=...                           ",
"          ...$..%>'')!!!!!!!!!!!!!!@@*,--*-**-**-**-**-**-**-**-**-**-**@@@@&'))))!!!!!!!!!!!)>$.;...                           ",
"           .....+=,)))!!!!!!!!!!!!!*@@@@@@@@@@@@@@@@@@@@@@@@@@@@@@@@@@@@@@@@@))))))!!!!!!!!!!!%.;...                            ",
"            .....$>')))!!!!!!!!!!!!@@@@@@@@@@@@@@@@@@@@@@@@@@@@@@@@@@@@@@@@@@,,'))!!!!!!!!!!!>+%$...                            ",
"            ......$,'))!!!!!!!!!!!!>-&-&&&&&&&&&&&&&&&&&&&&&&&&&&&&&&&%&&&%&;,,'')))!!!!!!!)'$.;...                             ",
"             .....+;,)))!)!!!!!!!!!!!))'',>>>>>>>>>>>>>>>>>>>>>>>>>>>>>>>>>>>>,,'))!!!!!!!!'%.;....                             ",
"              .....$>,))!!!!!!!!!!!!)!)',,>>>>>>>>>>>>>>>>>>>>>>>>>>>>>>>>>>>,,,')!)!!!!!!!%.=$...                              ",
"              ......$>')))!!!!!!!!!!)!)'',,,,,,,,,,,>,,>,,,,>,,,,>,,,,>>>,>,>,,,)))!!!!!!)>+$=...                               ",
"               ......$>')!!!!!!!!!!!)!))''',',',',',','','',',,',',','',','',')'))!)!!!!!'$.;...                                ",
"                ......$>'))!!!!!!!!!!!)))))))'))))'))')))'))))')'))))'))))))')))))!!!!!!'%.;....                                ",
"                 ......$>)))!!!!!!!!!!!)!)))))))))))))))))))))))))))))))))))))))!!)!!!!'$.=$...                                 ",
"                 .......$>)))!!!!!!!!!!!!!!)!!)!!)!!!)!!!)!!!)!!!)!!)!)!!)!!)!!!!!!!!)'%.$=...                                  ",
"                  .......$>)))!!!!!!!!!!!!!!!)!!!!!)!!)!!!!!!!!!!!)!!!!!)!!!!!!!!!!!)>$..=...                                   ",
"                   .......$>))!)!!!!!!!!!!!!!!!!!!!!!!!!!!!!!!!!!!!!!!!!!!!!!!!!!!!'%$..==..       ##                           ",
"                    .......$;')!!!!!!!!!!!!!!!!!!!!!!!!!!!!!!!!!!!!!!!!!!!!!!!!!!!;%..=;%....     ####                          ",
"                     .......+%;))!!!!!!!!!!!!!!!!!!!!!!!!!!!!!!!!!!!!!!!!!!!!!!)'%$.%;$.......   #####                          ",
"                       .......+%,))!!!!!!!!!!!!!!!!!!!!!!!!!!!!!!!!!!!!!!!!!!!)>%.+;%..........#%>######                        ",
"                        ....+...$;))!!!!!!!!!!!!!!!!!!!!!!!!!!!!!!!!!!!!!!!!)>%$.==..... ...$.+#;###+####                       ",
"                         ........+%>))!!!!!!!!!!!!!!!!!!!!!!!!!!!!!!!!!!!!)>%$.$;.....    ..+=#>##++#####                       ",
"                          .........+%;')!!!!!!!!!!!!!!!!!!!!!!!!!!!!!!!)!>%$..;%.....      .+%;###+#;######                     ",
"                            .........+$%>)!!!!!!!!!!!!!!!!!!!!!!!!!!!!)>%$.+==......       ##>###%#>##++####                    ",
"                             ...........+%;'))!!!!!!!!!!!!!!!!!!!!))>%$$.$;=......         #>###%#>###+#####                    ",
"                               ...........$+%%>')!)!!!!!!!!!)!))>%%.$..=;$......          #;###%#;###+#;##+###                  ",
"                                 .............$+$%%>')!)!))>%%$$+..+==%.......           #;###%#>###+#>###+####                 ",
"                                   .........+......+$%$$%$+$...$===+........            ####+##;##++#;##++#####                 ",
"                                      .................$$%====%...........             #####+#>###+#>###+#;######               ",
"                                         ..............................                 #####;##+##;###+#>##++####              ",
"                                            .......................                      # #####+#>###+#>###+#####              ",
"                                                  .........                               ####+##;##++#;###+%;##+###            ",
"                                                                                           #####;###+#>##++#;###+####           ",
"                                                                                            #########;###+#>##++#####           ",
"                                                                                             #####+#>###+#;###+#;######         ",
"                                                                                              ###+#;###+#>##+##>##++####        ",
"                                                                                               #+#####+#>###+#>###+#####        ",
"                                                                                                #####+#;##+##;##++#;###         ",
"                                                                                                 ###+#;###+#>###+#>##+..        ",
"                                                                                                  #######+#;###+#;###...        ",
"                                                                                                   #####+#>###+#>###....        ",
"                                                                                                    #####;##++#;##+....         ",
"                                                                                                     #+#####+#>###....          ",
"                                                                                                      ####+##;###....           ",
"                                                                                                       #####;###....            ",
"                                                                                                        ######+....             ",
"                                                                                                         #####+...              ",
"                                                                                                          ###....               ",
"                                                                                                           #  ..                ",
"                                                                                                                                ",
"                                                                                                                                ",
"                                                                                                                                ",
"                                                                                                                                ",
"                                                                                                                                ",
"                                                                                                                                ",
"                                                                                                                                "};
