/* XPM */
char * zoomin_xpm[] = {
"128 128 17 1",
" 	c None",
".	c #000000",
"+	c #1E1B13",
"@	c #770304",
"#	c #372911",
"$	c #2D2F2B",
"%	c #47453D",
"&	c #895452",
"*	c #A5504F",
"=	c #666865",
"-	c #B47272",
";	c #8D8A83",
">	c #B0B1AE",
",	c #C0C1BE",
"'	c #D7D9D6",
")	c #E6E8E5",
"!	c #FDFFFC",
"                                                                                                                                ",
"                                                    .......                                                                     ",
"                                             ......................                                                             ",
"                                         .......$$$$$++$$%%==$.........                                                         ",
"                                      .....%==$.................+$$......                                                       ",
"                                   ....+==$........++$$$$$++........$$......                                                    ",
"                                 ....%=$......++$$%;>,,,,,>;%$$$++.....+$.....                                                  ",
"                               ....==.....++$%;>,,>,,>,>,>,>,>>>>;$$+.....+.....                                                ",
"                              ...==....+$%;,,,,>,,>,,>,,,>,,,,,,>,,>;$$+....+.....                                              ",
"                            ...==....+%;>,,,>>>>>>,>,,,,,,',,,,,,>,>,,>=%+.........                                             ",
"                          ...%;....+%;,,,>,>>,,,,,,,,',''''')'''',,,,,,,>;$+.........                                           ",
"                         ...;$...+%;,,,>>>>,,,,,','''')))))))))'))'''',,,,>;%+........                                          ",
"                        ..=;....$;,,>>>>,,,,,'''''))))))!)!!))))))))')')',,,>;$+........                                        ",
"                       ..=%...+%>,,>>>,,,,,'''')))))!)!!!!)!!!!)!!!!)))))'',',>;$+.......                                       ",
"                      ..;...+%;,,>>>,,>,''')')!)!!)!!!!!!!!!!!!!!!!!!!))))))''',>=$.......                                      ",
"                    ...;...$;,,>>>,>,,,'''))!)!)!!!!!!!!!!!!!!!!!!!!!!!!!!!))'''',>$.......                                     ",
"                   ..+;...$>,,,>,>,,,'')))!)!!!!!!!!!!!!!!!!!!!!!!!!!!!!!!!)!))''',>%.......                                    ",
"                  ..$;...$>,,,>>,>,''')))!!!!!!!!!!!!!!!!!!!!!!!!!!!!!!!!!!)!!!))''',;$......                                   ",
"                  .+;...$>,,>>>,,'''))!!!!!!!!!!!!!!!!!!!!!!!!!!!!!!!!!!!!!!!!!!!)))',>$......                                  ",
"                 ..;...$>,,>>,,,''))!)!!!!!!!!!!!!!!!!!!!!!!!!!!!!!!!!!!!!!!!!!!!)!))''>$......                                 ",
"                ..;...$>,,>>,,,'''))!!!!!!!!!!!!!!!!!!!!!!!!!!!!!!!!!!!!!!!!!!!!!!!!)))'>$......                                ",
"               ..;...$>,>>>,,,'))!!!!!!!!!!!!!!!!!!!!!!!!!!!!!!!!!!!!!!!!!!!!!!!!!!!)!))'>$.....                                ",
"              ..=+..$>,>,>>,,''))!!!!!!!!!!!!!!!!!!!!!!!!!!!!!!!!!!!!!!!!!!!!!!!!!!!)!)!'';+.....                               ",
"              .$=..$>,,>>,,,'')!!!!!!!!!!!!!!!!!!!!!!!!!!!!!!!!!!!!!!!!!!!!!!!!!!!!!!!!)!)'%......                              ",
"             ..;..+;,,>>>,,'))!!!!!!!!!!!!!!!!!!!!!!!!!!!!!!!!!!!!!!!!!!!!!!!!!!!!!!!!!!!)),$......                             ",
"            ..=...%,,>>,,,'))!)!!!!!!!!!!!!!!!!!!!!!!!!!!!!!!!!!!!!!!!!!!!!!!!!!!!!!!!!!!!!),$.....                             ",
"            .$=..$>,,>>,,')))!!!!!!!!!!!!!!!!!!!!!!!!!!!!!!!!!!!!!!!!!!!!!!!!!!!!!!!!!!!!)!));+.....                            ",
"           ..;..+;,>>>,,'))!!!!!!!!!!!!!!!!!!!!!!!!!!!!!!!!!!!!!!!!!!!!!!!!!!!!!!!!!!!!!!!!!)'%.....                            ",
"          ..%...%,,>>,,''))!!!!!!!!!!!!!!!!!!!!!!!!!!!!!!!!!!!!!!!!!!!!!!!!!!!!!!!!!!!!!!!!!!)>+.....                           ",
"          ..=..$>,>>>,'')!!!!!!!!!!!!!!!!!!!!!!!!!!!!!!!!!!!!!!!!!!!!!!!!!!!!!!!!!!!!!!!!!!!!!'%......                          ",
"         ..=..+;>,>,,,''))!!!!!!!!!!!!!!!!!!!!!!!!!!!!!!!!!!!!!!!!!!!!!!!!!!!!!!!!!!!!!!!!!!!)),$.....                          ",
"         ..=..%,,>>>,'))!!!!!!!!!!!!!!!!!!!!!!!!!!!!!!!!!!!!!!!!!!!!!!!!!!!!!!!!!!!!!!!!!!!!!!!!;......                         ",
"         .=..+;,,>,,,')!!!!!!!!!!!!!!!!!!!!!!!!!!!!!!-*@@**!!!!!!!!!!!!!!!!!!!!!!!!!!!!!!!!!!!!!)%.....                         ",
"        ..=..%,,>>,,')))!!!!!!!!!!!!!!!!!!!!!!!!!!!!!-@@@@@!)!!!!!!!!!!!!!!!!!!!!!!!!!!!!!!!!!!!!;+....                         ",
"        .$+.+;,,>,,'')!!!!!!!!!!!!!!!!!!!!!!!!!!!!!!!-@*@@@))))!!!!!!!!!!!!!!!!!!!!!!!!!!!!!!!!!!'$.....                        ",
"       ..=..$>>>'-''!)!!!!!!!!!!!!!!!!!!!!!!!!!!!!!!!-@>@@@))))))!!!!!!!!!!!!!!!!!!!!!!!!!!!!!!!!)=.....                        ",
"       ..=..%,,>,''')!!!!!!!!!!!!!!!!!!!!!!!!!!!!!!!!-@-@@@,'')))!!!!!!!!!!!!!!!!!!!!!!!!!!!!!!!)!>.....                        ",
"       .$..+;>>>,,')!!!!!!!!!!!!!!!!!!!!!!!!!!!!!!!!!-@-@@@,','))!!!!!!!!!!!!!!!!!!!!!!!!!!!!!!!!!!%.....                       ",
"      ..=..%,,,>,')))!!!!!!!!!!!!!!!!!!!!!!!!!!!!!!!!-@*@@@>,,,)))!!!!!!!!!!!!!!!!!!!!!!!!!!!!!!!!!;.....                       ",
"      ..%.+;>,>,,'))!!!!!!!!!!!!!!!!!!!!!!!!!!!!!!!!!-@*@@@,>,'')!!!!!!!!!!!!!!!!!!!!!!!!!!!!!!!!!!)$....                       ",
"      .$..+>,>,,,))!!!!!!!!!!!!!!!!!!!!!!!!!!!!!!!!!!-@*@@@>>>,'))!!!!!!!!!!!!!!!!!!!!!!!!!!!!!!!!!)%.+...                      ",
"      .%..$,>>,,''!)!!!!!!!!!!!!!!!!!!!!!!!!!!!!!!!!!-@*@@@>>,,'))!!!!!!!!!!!!!!!!!!!!!!!!!!!!!!!!!!>.....                      ",
"      .=..%,>,,,))!!!!!!!!!!!!!!!!!!!!!!!!!!!!!!!!!!!-@*@@@>>,,')!!!!!!!!!!!!!!!!!!!!!!!!!!!!!!!!!!)'.....                      ",
"     ..%.$->,,,''))!!!!!!!!!!!!!!!!!!!!!!!!!!!!!!!!!)-@*@@@>,>,'))!!!!!!!!!!!!!!!!!!!!!!!!!!!!!!!!!!)$....                      ",
"     ....+>,>,,')!!!!!!!!!!!!!!!!!!!!!!!!!!!!!!!!!!!!-@*@@@>>>,))!!!!!!!!!!!!!!!!!!!!!!!!!!!!!!!!!!!!$.+..                      ",
"     .+..$>,>,,'))!!!!!!!!!!!!!!!!!!!!!!!!!!!!!!!!!!)-@&@@@>>,,''!)!!!!!!!!!!!!!!!!!!!!!!!!!!!!!!!!!!%.....                     ",
"     .$..$>,,,'')!!!!!!!!!!!!!!!!!!!!!!!!!!!!!!!!!!!!-@-@@@>>,,')!!!!!!!!!!!!!!!!!!!!!!!!!!!!!!!!!!!!>.+...                     ",
"     .$..%,>>,'))!!!!!!!!!!!!!!!!!!!!!!!!!!!!!!!!!!!!-@,@@@>>,,'))!!!!!!!!!!!!!!!!!!!!!!!!!!!!!!!!!!!'.....                     ",
"     .$.+;,>,,')!!!!!!!!!!!!!!!!!!!!!!!!!!!!!!!!!!!!!-@,@@@>>,,')!!!!!!!!!!!!!!!!!!!!!!!!!!!!!!!!!!!!)+....                     ",
"     .$.+>,,,,''!)!!!!!!!!!!!!!!!!!!!!!!!!!!!!!!!!!!!-@,@@@>>,,'))!!!!!!!!!!!!!!!!!!!!!!!!!!!!!!!!!!!!+....                     ",
"     .$.$,>,,'')!!!!!!!!!!!!!!!!!!!*@@@@@@@@@@@@@@@@@@-)@@@@@@@@@@@@@@@@@@@@*!!!!!!!!!!!!!!!!!!!!!!!!)+....                     ",
"     .$.$,>,,''))!!!!!!!!!!!!!!!!!!@@@@@@@@@@@@@@@@*-')-*@@@@@@@@@@@@@@@@@@@@!)!!!!!!!!!!!!!!!!!!!!!!)$....                     ",
"     .%.$,,,,'))!!!!!!!!!!!!!!!!!!!@@*,---**-**---,,----@@@@@@@**-**-*-*@@@@*,))))!!!!!!!!!!!!!!!!!!!!+....                     ",
"     .&.$,>,,'))!!!!!!!!!!!!!!!!!!!@@@@@@@@@@@@@@@@@@@@@@@@@@@@@@@@@@@@@@@@@@')))!!!!!!!!!!!!!!!!!!!!)$....                     ",
"     .=.+>,,''))!!!!!!!!!!!!!!!!!!!@@@@@@@@@@@@@@@@@@@@@@@@@@@@@@@@@@@@@@@@@&>,''))!!!!!!!!!!!!!!!!!!)+....                     ",
"     .=.+->,,')!!!!!!!!!!!!!!!!!!!!>---&&&&&&&&&&&&--*@@@@@&&&&&&&&&&&&&%&%&&,,'')))!!!!!!!!!!!!!!!!!!++...                     ",
"     .%..%,,,'))!!!!!!!!!!!!!!!!!!!!)))''>,>>>>>,,>>>&@@@@@>;>>>>>>>>>>>>>>>>>,,'))!!!!!!!!!!!!!!!!!!!.%...                     ",
"     .$..$,,,'))!!!!!!!!!!!!!!!!!!!!!)'',,,>>>>>>>>>>&@@@@@>;>;>>>>>>>>>>>>>>,,,'))!!!!!!!!!!!!!!!!!!'.=...                     ",
"     ....$>,,'))!!!!!!!!!!!!!!!!!!!!!))',,,,,,,,,,,,,*@@@@@>>>>>>>>>>,,>,,,,,,,,'))!!!!!!!!!!!!!!!!!!>.=...                     ",
"     ....$>,,'))!!!!!!!!!!!!!!!!!!!!!!))''''',',','',-@@@@@>;>>,,,''',','',',')'))!!!!!!!!!!!!!!!!!!!%.=..                      ",
"     ..$.+>>,,)))!!!!!!!!!!!!!!!!!!!!!))))'')'')')'''&@*@@#>>>>,''''))')')')')))))!!!!!!!!!!!!!!!!!!!$.%..                      ",
"     ..%.+;,,'')!!!!!!!!!!!!!!!!!!!!!!!)!)))))))))))!&@*@@@>>>,,')))))))))))))))!)!!!!!!!!!!!!!!!!!!)$+$..                      ",
"      .$..%>,,)))!!!!!!!!!!!!!!!!!!!!!!!!!)!!!!!!!!)!-@*@@@>>>,'))!!)!!!!!!!!!!!!!!!!!!!!!!!!!!!!!!!).%...                      ",
"      ....$>,,')!!!!!!!!!!!!!!!!!!!!!!!!!!!!!!!!!!!!)-@*@@@>>,,'))!!)!!!!!!)!!!!!!!!!!!!!!!!!!!!!!!!>.=...                      ",
"      ..$.+;>,'))!!!!!!!!!!!!!!!!!!!!!!!!!!!!!!!!!!!!-@*@@@>>,,'))!!!!!!!!!!!!!!!!!!!!!!!!!!!!!!!!!!%.=...                      ",
"      ..$..%,>'))!!!!!!!!!!!!!!!!!!!!!!!!!!!!!!!!!!!!&@*@@@>>,,')!!!!!!!!!!!!!!!!!!!!!!!!!!!!!!!!!!)$$$..                       ",
"      .....$>,,)))!!!!!!!!!!!!!!!!!!!!!!!!!!!!!!!!!!!-@*@@@>>,,''!!!!!!!!!!!!!!!!!!!!!!!!!!!!!!!!!!>.=...                       ",
"       ....+=,,')!!!!!!!!!!!!!!!!!!!!!!!!!!!!!!!!!!!!-@*@@@>>,,'))!!!!!!!!!!!!!!!!!!!!!!!!!!!!!!!!)%.;...                       ",
"       ..+..%,,'')!!!!!!!!!!!!!!!!!!!!!!!!!!!!!!!!!!!-@*@@@>>>,')!!!!!!!!!!!!!!!!!!!!!!!!!!!!!!!!!>+$$..                        ",
"       .....$>,,')!!!!!!!!!!!!!!!!!!!!!!!!!!!!!!!!!!!&@@@@@>>,,''!)!!!!!!!!!!!!!!!!!!!!!!!!!!!!!!!%.=...                        ",
"        ....+=,''))!!!!!!!!!!!!!!!!!!!!!!!!!!!!!!!!!!-@@@@@>>,,)'!!!!!!!!!!!!!!!!!!!!!!!!!!!!!!!!)%.=...                        ",
"        .....%>,'))!!!!!!!!!!!!!!!!!!!!!!!!!!!!!!!!!!&@@@@@>>,,'))!!!!!!!!!!!!!!!!!!!!!!!!!!!!!!!>.=...                         ",
"         ....+=,,'))!!!!!!!!!!!!!!!!!!!!!!!!!!!!!!!!!-@@@#@>>,,')!!!!!!!!!!!!!!!!!!!!!!!!!!!!!!!)%.=...                         ",
"         .....%>,')!!!!!!!!!!!!!!!!!!!!!!!!!!!!!!!!!!-&@@@*>>,,'))!!!!!!!!!!!!!!!!!!!!!!!!!!!!!!>.=...                          ",
"         .....+=''')!!!!!!!!!!!!!!!!!!!!!!!!!!!!!!!!!)''',>>>,''))!!!!!!!!!!!!!!!!!!!!!!!!!!!!!'$.;...                          ",
"          .....$;'''!)!!!!!!!!!!!!!!!!!!!!!!!!!!!!!!!!!)'',,,,,))!!!!!!!!!!!!!!!!!!!!!!!!!!!!!)=.=...                           ",
"          ...+..%>'))!!!!!!!!!!!!!!!!!!!!!!!!!!!!!!!!!!!''',,''))!!!!!!!!!!!!!!!!!!!!!!!!!!!!!>..;...                           ",
"           .....+;,'))!!!!!!!!!!!!!!!!!!!!!!!!!!!!!!!!!!))''''')!)!!!!!!!!!!!!!!!!!!!!!!!!!!!)=.;...                            ",
"            .....$>,))!!!!!!!!!!!!!!!!!!!!!!!!!!!!!!!!!!)))'))))!!!!!!!!!!!!!!!!!!!!!!!!!!!!!;+%$...                            ",
"            ......%,')))!!!!!!!!!!!!!!!!!!!!!!!!!!!!!!!!!)!))!)!)!!!!!!!!!!!!!!!!!!!!!!!!!!!'%.;...                             ",
"             .....+;,')!!!!!!!!!!!!!!!!!!!!!!!!!!!!!!!!!!!!)!)!!!!!!!!!!!!!!!!!!!!!!!!!!!!!'$.;....                             ",
"              .....$>')))!!!!!!!!!!!!!!!!!!!!!!!!!!!!!!!!!!!!!!!!!!!!!!!!!!!!!!!!!!!!!!!!!)=.=$...                              ",
"              ......$>'))!!!!!!!!!!!!!!!!!!!!!!!!!!!!!!!!!!!!!!!!!!!!!!!!!!!!!!!!!!!!!!!!!;+$=...                               ",
"               ......$>'))!!!!!!!!!!!!!!!!!!!!!!!!!!!!!!!!!!!!!!!!!!!!!!!!!!!!!!!!!!!!!!!'%.;...                                ",
"                ......$>'))!!!!!!!!!!!!!!!!!!!!!!!!!!!!!!!!!!!!!!!!!!!!!!!!!!!!!!!!!!!!!'$.;....                                ",
"                 ......$>')!!!!!!!!!!!!!!!!!!!!!!!!!!!!!!!!!!!!!!!!!!!!!!!!!!!!!!!!!!!!'%.=$...                                 ",
"                 .......$,'))!!!!!!!!!!!!!!!!!!!!!!!!!!!!!!!!!!!!!!!!!!!!!!!!!!!!!!!!!'$.+=...                                  ",
"                  .......$>'))!!!!!!!!!!!!!!!!!!!!!!!!!!!!!!!!!!!!!!!!!!!!!!!!!!!!!!)>$..=...                                   ",
"                   .......$,')!!!!!!!!!!!!!!!!!!!!!!!!!!!!!!!!!!!!!!!!!!!!!!!!!!!!!'%$..;%..       ##                           ",
"                    .......$;''!)!!!!!!!!!!!!!!!!!!!!!!!!!!!!!!!!!!!!!!!!!!!!!!!!!;%..=;%....     ####                          ",
"                     .......+%>')!!!!!!!!!!!!!!!!!!!!!!!!!!!!!!!!!!!!!!!!!!!!!!!'%$.%;$.......   #####                          ",
"                       .......+%,))!!!!!!!!!!!!!!!!!!!!!!!!!!!!!!!!!!!!!!!!!!!!;%.+;$..........#%>######                        ",
"                        ....+...$;))!!!!!!!!!!!!!!!!!!!!!!!!!!!!!!!!!!!!!!!!)>%$.==..... ...$.+#;###+####                       ",
"                         ........$%>'!)!!!!!!!!!!!!!!!!!!!!!!!!!!!!!!!!!!!)>=+.$;.....    ..+=#>##++#####                       ",
"                          .........+%;')!!!!!!!!!!!!!!!!!!!!!!!!!!!!!!!!!>%$.+=%.....      .+%;###+#;######                     ",
"                            .........+$%>))!!!!!!!!!!!!!!!!!!!!!!!!!!!);%+.+==......       ##>###%#>##++####                    ",
"                             ...........+%;')!)!!!!!!!!!!!!!!!!!!!!'>%%$.$;=......         %;###%#>###+#####                    ",
"                               ...........$+%%>'))!!!!!!!!!!)!)'>=$+$..%;$......          #>###%#;###+#;##+###                  ",
"                                 .............$+%$=>')!)!))>%%$$+..+%=%.......           #;###$#>###+#>###+####                 ",
"                                   .........+......++%$$%$+$...$%==$........            #######>##++#;##++#####                 ",
"                                      .................+$%==;=%...........             #####+#>###+#>###+#;######               ",
"                                         ..............................                 #####;##+##;###+#>##++####              ",
"                                            .......................                      # #####+#>###+#>###+#####              ",
"                                                  .........                               ####+##;##++#;##++#;##+###            ",
"                                                                                           #####;###+#>###+#>###+####           ",
"                                                                                            #########;###+#;##++#####           ",
"                                                                                             #####+#>###+#>###+#;######         ",
"                                                                                              ###+#;##++#;###+#>##++####        ",
"                                                                                               #########>###+#>###+#####        ",
"                                                                                                #####+#;##++#;###+#;###         ",
"                                                                                                 ###+#;###+#>###+#>##+..        ",
"                                                                                                  ######+##;##++#;###...        ",
"                                                                                                   #####+#>###+#>###....        ",
"                                                                                                    #####;###+#>##+....         ",
"                                                                                                     #######+#>###....          ",
"                                                                                                      #####+#;###....           ",
"                                                                                                       ###+#;###....            ",
"                                                                                                        ######+....             ",
"                                                                                                         #####....              ",
"                                                                                                          ###....               ",
"                                                                                                           #  ..                ",
"                                                                                                                                ",
"                                                                                                                                ",
"                                                                                                                                ",
"                                                                                                                                ",
"                                                                                                                                ",
"                                                                                                                                ",
"                                                                                                                                "};
