/* XPM */
char * zoomprevious_xpm[] = {
"128 128 17 1",
" 	c None",
".	c #000000",
"+	c #1F1B13",
"@	c #191D21",
"#	c #382911",
"$	c #2E2F2C",
"%	c #1D3257",
"&	c #46443C",
"*	c #495A77",
"=	c #676966",
"-	c #7E899C",
";	c #908B82",
">	c #ACAFAD",
",	c #BFC1BF",
"'	c #D6D9D6",
")	c #E6E9E6",
"!	c #FCFFFC",
"                                                                                                                                ",
"                                                    .......                                                                     ",
"                                             ......................                                                             ",
"                                         .......@&$$@+@@$&=&=$.........                                                         ",
"                                      .....&==$.................@$$......                                                       ",
"                                   .....==&........+@$$$$$@@........$$......                                                    ",
"                                 ....&=$......@@$$&;>,,,,,>;&$$$@@.....@@.....                                                  ",
"                               ....==.....@@$&;>,,,,,,,>,,>,>>,>>=&$@.....$.....                                                ",
"                              ...==....@$&;,,,,,>>,>,,,,,,,,,,,,,,,>;&#@....@.....                                              ",
"                            ...==....@*;>,,,,>>>,,,>,>,,,,,',,,,,,>,>,>=&@.........                                             ",
"                          ...&;....@&;>,,>>>>,,,>,,,,,'''''')'''',,,,,,,>;$@.........                                           ",
"                         ..+-$...@&;,,,,,>,,,,,,','')'')))))))')')'''',,,,>;&@........                                          ",
"                        ..&;....$;,,>>>>,,,,,,'''))')))))!)!)!))))))')')',,,>;$@........                                        ",
"                       ..=&...@&>,>,>,>,,,,''')))))!)!!!!!!!!!!!!!)!)))')''',,>;&@.......                                       ",
"                      ..;...@&-,,>>,>,,,,''))))!)!)!!!)!!!!!!!!!!!!!!!!)!)))'',,>=$.......                                      ",
"                    ..+-...&;,,,>,>,,,,''))))!!)!!!!!!!!!!!!!!!!!!!!!!!!)!))))''',>$.......                                     ",
"                   ..@;...$>,,,>>,>,,''))!)!!!!!!!!!!!!!!!!!!!!!!!!!!!!!!!!)!))'',,>#@......                                    ",
"                  ..@=...$>,,>,>,,,'''))!)!!!!!!!!!!!!!!!!!!!!!!!!!!!!!!!!!!!!!!)))',-$......                                   ",
"                  .+;...$>,,,>>,,,''))))!!!!!!!!!!!!!!!!!!!!!!!!!!!!!!!!!!!!!!)!))))',>$......                                  ",
"                 ..;...$>,,>>,,,'')))!!!!!!!!!!!!!!!!!!!!!!!!!!!!!!!!!!!!!!!!!!!!!)))''>$......                                 ",
"                ..;...$,,,>,,>'''))!!)!!!!!!!!!!!!!!!!!!!!!!!!!!!!!!!!!!!!!!!!!!!!!!)))'>$......                                ",
"               ..-...$>,,-,>,',)))!!!!!!!!!!!!!!!!!!!!!!!!!!!!!!!!!!!!!!!!!!!!!!!!!)!!))'>$.....                                ",
"              ..=+..$>,,,,,,,'))!)!!!!!!!!!!!!!!!!!!!!!!!!!!!!!!!!!!!!!!!!!!!!!!!!!!!!)!'';@.....                               ",
"              .$=..$,,,>>>,,'')!!!!!!!!!!!!!!!!!!!!!!!!!!!!!!!!!!!!!!!!!!!!!!!!!!!!!!!!)!)'&......                              ",
"             ..=..@;,,>,>,,')))!!!!!!!!!!!!!!!!!!!!!!!)!!!!!!!!!!!!!!!!!!!!!!!!!!!!!!!!!!)),$......                             ",
"            ..-...&,,>,-,,'))!!!!!!!!!!!!!!!!!!!!!!!!!-)!!!!!!!!!!!!!!!!!!!!!!!!!!!!!!!!!!!),$.....                             ",
"            .$&..$>,,>,,'')))!!!!!!!!!!!!!!!!!!!!!!!!)*-!!!!!!!!!!!!!!!!!!!!!!!!!!!!!!!!!!!))-+.....                            ",
"           ..;..@-,,>,,,')))!!!!!!!!!!!!!!!!!!!!!!!!!,%*)!!!!!!!!!!!!!!!!!!!!!!!!!!!!!!!!!!!)'&......                           ",
"          ..&...&,,>-,,'')!!!!!!!!!!!!!!!!!!!!!!!!!!!-%%-))!)!!!!!!!!!!!!!!!!!!!!!!!!!!!!!)'',*%@%%%%%%%%%%%%%                  ",
"          ..=..$>,,,,,,'))!)!!!!!!!!!!!!!!!!!!!!!!!!!-*%%)))!)!!!!!!!!!!!!!!!!!!!!!!!))!---*%%%%%%%%%%%%%%%%%%%%%%%%            ",
"         ..=..@-,>>,,,'))!!!!!!!!!!!!!!!!!!!!!!!!!!!)**%%-)))))!!!!!!!!!!!!!!!!!!!!,>-*%%%%%%***-*-**-********%%%%%%%%%         ",
"         ..=..&,,,-,,'))!!!!!!!!!!!!!!!!!!!!!!!!!!!!'%-%%*''))!!!!!!!!!!!!!!!!!!)>***%%%*---*%%%%%%%%%%%%%%%%%%%**%%%%%%        ",
"         .=..@-,,,,,,'))!!!!!!!!!!!!!!!!!!!!!!!!!!!!-%-%%%,'''))!!!!!!!!!!!!!!,**%%%*---%%%%%%%%%%%%%%%%%%%%%%%%%%%%%%%%        ",
"        ..=..&,,>>,''))!!!!!!!!!!!!!!!!!!!!!!!!!!!!!*%-%%%>,,')!!!!!!!!!!!!!-*%%%---%%%%%%%%%%%**%@@@@@@@%@%@%%%%%%%%%%%        ",
"        .$@.@;,,>,,'')!)!!!!!!!!!!!!!!!!!!!!!!!!!!!'%%>%%%-,,'')!!!!!!!!!'*%%%*--%%%%%%%%*=*=>;;>;@.....        @%%@%@%%        ",
"       ..=..$>,>>,,')!!!!!!!!!!!!!!!!!!!!!!!!!!!!!!-%%-%%%*,,''))!!!!!!,**%%--%%%%%%%&*-;>>,>,>,>>&.....             %@         ",
"       ..=..&,,,,,')))!!!!!!!!!!!!!!!!!!!!!!!!!!!!!*%%>%%%%>,,')!!!!),-%%*--%%%%%%*=>>,>>,>,>>>,>>-......                       ",
"       .$..@-,,-,,'))!!!!!!!!!!!!!!!!!!!!!!!!!!!!!'*%%-%@%%>>,'))!!'-*%%--%%%%%*->,>>,>,>>,>,,,>,,>&.....                       ",
"      ..=..&,>,,,'))!!!!!!!!!!!!!!!!!!!!!!!!!!!!!!-%%--%%%%>>,'')!-*%%--%%%%%*;,,>,,>,>>,,,,,,,''',;.....                       ",
"      ..&.@;,,>,,'))!!!!!!!!!!!!!!!!!!!!!!!!!!!!!!*%%--%%%%->,,',*%%--%%%%%=>,,,,>>>,,,,,,,'''''')),$....                       ",
"      .@..@>>,,,''))!!!!!!!!!!!!!!!!!!!!!!!!!!!!!>%%*-*%%%%>>,,-%%*-*%%%%=>,,,>>,>,,,,,,''''))))))))&.+...                      ",
"      @&..$,,,-,')!!!!!!!!!!!!!!!!!!!!!!!!!!!!!!!*%%*-*%%%%-,-**%--%%%%*->,,>>>,,,,,,')'))))))!)!!!)>.....                      ",
"      .=..&,,,,''))!!!!!!!!!!!!!!!!!!!!!!!!!!!!!,*%%--%%%%%*-*%%-*%%%%;>,,>,>,,,,,'')')))!)!!!!!!!!!'.....                      ",
"     ..&.@-,-,,')))!!!!!!!!!!!!!!!!!!!!!!!!!!!!!-%%*--%%%%%%%%%*%%%%*>,,,>>>,,,,'')))))!!!!!!!!!!!!!)$....                      ",
"     ..@.+>,,,,'))!!!!!!!!!!!!!!!!!!!!!!!!!!!!!!*%%--*%%%%%%%*%%%%*;,,,>,>,,,,'')))!!!!!!!!!!!!!!!!!)$.@..                      ",
"     .@..$,,,,,')!!!!!!!!!!!!!!!!!!!!!!!!!!!!!!'%%%--*%%%%***%*%%*>,,,>>,,,,''))))!)!!!!!!!!!!!!!!!!!&.+...                     ",
"     .$..$,>,,,))!!!!!!!!!!!!!!!!!!!!!!!!!!!!!!*%%--**%%*%*%*%%%*>>>>>>,,,'''))!!!!!!!!!!!!!!!!!!!!!!>.....                     ",
"     .$..*,,,,'))!!!!!!!!!!!!!!!!!!!!!!!!!!!!!,*%%--**%%%%%%%%%%%****---,-'))!)!!!!!!!!!!!!!!!!!!!!!!'.....                     ",
"     .$.+;>-,,'))!!!!!!!!!!!!!!!!!!!!!!!!!!!!!-%%*--%%%%*%%%%%%%%%%%%%%%**--'))!!!!!!!!!!!!!!!!!!!!!!)+....                     ",
"     .@.@,,,,,'))!!!!!!!!!!!!!!!!!!!!!!!!!!!!)*%%--**%%%%%%%*%%%*%%%%%%%%%%%**')!!!!!!!!!!!!!!!!!!!!!)@....                     ",
"     .$.$,,,,'')!!!!!!!!!!!!!!!!!!!!!!!!!!!!!-%**--*%%%%%*%%%%%%%%%%%%%%%%%%%%*->)!!!!!!!!!!!!!!!!!!!)$....                     ",
"     .$.$,>,,''))!!!!!!!!!!!!!!!!!!!!!!!!!!!'*%%--**%*%%%%%%%*%%%%*%%%%%%%%%%%%%-))!!!!!!!!!!!!!!!!!!)@....                     ",
"     .&.$,,,,'))!!!!!!!!!!!!!!!!!!!!!!!!!!!!-%%*--*%%%%%%%%%%%%%%%%%%%%%%%%****->''))!!!!!!!!!!!!!!!!)+....                     ",
"     .*.&-,,,'))!!!!!!!!!!!!!!!!!!!!!!!!!!!'*%%--**%%%*%%*%%%%*%%%%%%%%%%&-=-;>,,'))))!!!!!!!!!!!!!!!!$....                     ",
"     .=.@,,,,')!!!!!!!!!!!!!!!!!!!!!!!!!!!!-%%---*%%%%%%%%%%%%%%%%%%@%&=->>>>>,,,,'))!)!!!!!!!!!!!!!!)@....                     ",
"     .=.@-,,,'))!!!!!!!!!!!!!!!!!!!!!!!!!!)*%%--*%*%%%%*%%%%%%%%%%@**->>>->>>>,,,,')))!!!!!!!!!!!!!!!!@+...                     ",
"     .&..&>,,'))!!!!!!!!!!!!!!!!!!!!!!!!!)-%%---*%%%*%%%%%%%%%@%$*=;>;>>>>>>,,,,''')))!!!!!!!!!!!!!!!)@$...                     ",
"     .$..%,,,')!!!!!!!!!!!!!!!!!!!!!!!!!!,%%%--**%%%%%%%%%%@%%*=->>>>>>>>>,,,,,''')))!)!!!!!!!!!!!!!!).=...                     ",
"     .@..$,,,'))!!!!!!!!!!!!!!!!!!!!!!!!!-%%---%%%%%%%%%%%%%&=->>;>>>>>,,,,''')))))!)!!!!!!!!!!!!!!!!>.=...                     ",
"     ....$-,,'))!!!!!!!!!!!!!!!!!!!!!!!!'*%%--*%%%%%%%%%@%=*>>;>>>>>,,,,'''))))))!)!!!!!!!!!!!!!!!!!!&.=..                      ",
"     ..$.@,,,'')!!!!!!!!!!!!!!!!!!!!!!!!*%%--*%%%%%%%@%$*->>>>>>>>,,,,'''))))!!!)!!!!!!!!!!!!!!!!!!!!$.&..                      ",
"     ..&.@->,,'))!!!!!!!!!!!!!!!!!!!!!!,*%%-*%%%%%%%%%*;>>;>>>>>,,,''')))))!!)!!!!!!!!!!!!!!!!!!!!!!)$@$..                      ",
"      .$..&>,,))!!!!!!!!!!!!!!!!!!!!!!)*%%-*%%%%%%@$*;>>>>>>-,,,,''')))!!!!!!!!!!!!!!!!!!!!!!!!!!!!!'@&...                      ",
"      ....$-,,'))!!!!!!!!!!!!!!!!!!!!!>%%-*%%%%%%**->>>->>>,,,,'')))))!)!!!!!!!!!!!!!!!!!!!!!!!!!!!)>.=...                      ",
"      ..@.@;,,')!)!!!!!!!!!!!!!!!!!!!'*%**%%%%@$*=;;>;>,>,,','')))!!!!!!!!!!!!!!!!!!!!!!!!!!!!!!!!!!&.=...                      ",
"      ..$..%,,'')!!!!!!!!!!!!!!!!!!!!-%**%%%%%*=->>>>>>,,,,')))))!)!!!!!!!!!!!!!!!!!!!!!!!!!!!!!!!!)$@$..                       ",
"      .....$>,,)))!!!!!!!!!!!!!!!!!!>%%%%%%@*=->>>>>>,,,''')))!!!!!!!!!!!!!!!!!!!!!!!!!!!!!!!!!!!!!>.=...                       ",
"       ....@;,,')!!!!!!!!!!!!!!!!!!)-%%%%%*-;>>;>>>>,,,''))!)!!!!!!!!!!!!!!!!!!!!!!!!!!!!!!!!!!!!!!&@=...                       ",
"       ..@..$,,'')!!!!!!!!!!!!!!!!!-%%%%*&>>>>>>>>,,,''))))!!!!!!!!!!!!!!!!!!!!!!!!!!!!!!!!!!!!!!!>@$$..                        ",
"       .....$-,,'))!!!!!!!!!!!!!!!'*%%%*->,,>>>>,,,'')))!!!!!!!!!!!!!!!!!!!!!!!!!!!!!!!!!!!!!!!!!!&.=...                        ",
"        ....@;,,))!!!!!!!!!!!!!!!!*%%*=,,',>>,,,,'')')!)!!!!!!!!!!!!!!!!!!!!!!!!!!!!!!!!!!!!!!!!!)$@=...                        ",
"        .....$>,'')!!!!!!!!!!!!!!,%%--)',,,,,>,'''))!)!!!!!!!!!!!!!!!!!!!!!!!!!!!!!!!!!!!!!!!!!!!>.=...                         ",
"         ....@-,,))!!!!!!!!!!!!!)**')))',,,,,,')))!)!!!!!!!!!!!!!!!!!!!!!!!!!!!!!!!!!!!!!!!!!!!!)*.=...                         ",
"         ..@..&>,'))!!!!!!!!!!!!'-,)!)'',,,,'')))!!!!!!!!!!!!!!!!!!!!!!!!!!!!!!!!!!!!!!!!!!!!!!)>.=...                          ",
"         .....@=,''))!!!!!!!!!!!''!!))'''''')))!)!!!!!!!!!!!!!!!!!!!!!!!!!!!!!!!!!!!!!!!!!!!!!!'$.;...                          ",
"          .....@>,'))!!!!!!!!!!!!!!!))'''''))))!!!!!!!!!!!!!!!!!!!!!!!!!!!!!!!!!!!!!!!!!!!!!!!)=.=...                           ",
"          ...@..&,'')!!!!!!!!!!!!!)!)))))))!!!!!!!!!!!!!!!!!!!!!!!!!!!!!!!!!!!!!!!!!!!!!!!!!!!>+.=...                           ",
"           .....+-,'))!!!!!!!!!!!!!)!))))))!)!!!!!!!!!!!!!!!!!!!!!!!!!!!!!!!!!!!!!!!!!!!!!!!!)=.=...                            ",
"            .....$>''))!!!!!!!!!!!!!))!)!!)!!!!!!!!!!!!!!!!!!!!!!!!!!!!!!!!!!!!!!!!!!!!!!!!!!-@&&...                            ",
"            ......&,')))!!!!!!!!!!!!!!!!!!!!!!!!!!!!!!!!!!!!!!!!!!!!!!!!!!!!!!!!!!!!!!!!!!!!'&.-...                             ",
"             .....@=''!)!!!!!!!!!!!!!!!!!!!!!!!!!!!!!!!!!!!!!!!!!!!!!!!!!!!!!!!!!!!!!!!!!!!'$.;....                             ",
"              .....$>'')!!!!!!!!!!!!!!!!!!!!!!!!!!!!!!!!!!!!!!!!!!!!!!!!!!!!!!!!!!!!!!!!!!)=.=$...                              ",
"              ......$>')))!!!!!!!!!!!!!!!!!!!!!!!!!!!!!!!!!!!!!!!!!!!!!!!!!!!!!!!!!!!!!!!!-+$=...                               ",
"               ......@>'))!!!!!!!!!!!!!!!!!!!!!!!!!!!!!!!!!!!!!!!!!!!!!!!!!!!!!!!!!!!!!!!'&.;...                                ",
"                ......$>'))!!!!!!!!!!!!!!!!!!!!!!!!!!!!!!!!!!!!!!!!!!!!!!!!!!!!!!!!!!!!!'$.-....                                ",
"                 ......$,)))!!!!!!!!!!!!!!!!!!!!!!!!!!!!!!!!!!!!!!!!!!!!!!!!!!!!!!!!!!!'&.=$...                                 ",
"                 .......@,'))!!!!!!!!!!!!!!!!!!!!!!!!!!!!!!!!!!!!!!!!!!!!!!!!!!!!!!!!!,$.@=...                                  ",
"                  .......@,)))!!!!!!!!!!!!!!!!!!!!!!!!!!!!!!!!!!!!!!!!!!!!!!!!!!!!!!!-&..=...                                   ",
"                   .......$,'))!!!!!!!!!!!!!!!!!!!!!!!!!!!!!!!!!!!!!!!!!!!!!!!!!!!!'&$..-&..       ##                           ",
"                    .......$-'))!!!!!!!!!!!!!!!!!!!!!!!!!!!!!!!!!!!!!!!!!!!!!!!!!)>&..=;&....     ####                          ",
"                     .......+&-))!!!!!!!!!!!!!!!!!!!!!!!!!!!!!!!!!!!!!!!!!!!!!!!'&@.&;@.......   #####                          ",
"                       .......@&,))!!!!!!!!!!!!!!!!!!!!!!!!!!!!!!!!!!!!!!!!!!!!-&.@;&..........#&;######                        ",
"                        ....+...$-))!!!!!!!!!!!!!!!!!!!!!!!!!!!!!!!!!!!!!!!!)>&$.*=..... ...$.+#>##++####                       ",
"                         ........+&>)))!!!!!!!!!!!!!!!!!!!!!!!!!!!!!!!!!!!)>=+.$;+....    ..+=&;##++#####                       ",
"                          .........@&-))!!!!!!!!!!!!!!!!!!!!!!!!!!!!!!!!)>&@.@=&.....      .+#>###+&;##+###                     ",
"                            .........+&&>))!!!!!!!!!!!!!!!!!!!!!!!!!!!)-=@.@==......       ##;###&#;##++####                    ",
"                             ...........@&-'))!!!!!!!!!!!!!!!!!!!!))>&&@.$;=......         &>##&#&;##++#####                    ",
"                               ...........+@&&>'))!!!!!!!!!!!!)'>&&@@..&-$......          #;###&#>##+#&;##+###                  ",
"                                 .............@@&$=>'))!)))>&$&@@..@==&.......           #;##+#&;##++#;##++####                 ",
"                                   .........@+.....@@$&$&$@@@..$===@........            #####+#>###+#>###+#####                 ",
"                                      ................@@$&====*...........             ####++#>##++#>##++#;##+###               ",
"                                         ..............................                 #####;###+#;##+##>##++####              ",
"                                            .......................                      # ####++#>##++&;##++#####              ",
"                                                  .........                               ####++#>###+#;##+##;##+###            ",
"                                                                                           #####;##++#>###+&;##++####           ",
"                                                                                            #+####+#&;##++#>##++#####           ",
"                                                                                             ####++#;##+##>###+#;##+###         ",
"                                                                                              ###+#;###+&;##++#>##++####        ",
"                                                                                               #+####++#;##++#>##++#####        ",
"                                                                                                ####++#>###+#;###+#>###         ",
"                                                                                                 #####;##++#>##++#>##+..        ",
"                                                                                                  #+####++#>##+##;##+...        ",
"                                                                                                   ####++#>##++&;##++...        ",
"                                                                                                    #####;###+#>###....         ",
"                                                                                                     +#####++#;##+....          ",
"                                                                                                      +###++#>###....           ",
"                                                                                                       #####;##+....            ",
"                                                                                                        #+#####....             ",
"                                                                                                         ####+....              ",
"                                                                                                          ###....               ",
"                                                                                                           +  ..                ",
"                                                                                                                                ",
"                                                                                                                                ",
"                                                                                                                                ",
"                                                                                                                                ",
"                                                                                                                                ",
"                                                                                                                                ",
"                                                                                                                                "};
